<?xml version="1.0" encoding="UTF-8"?>
<svg id="Layer_1" data-name="Layer 1" xmlns="http://www.w3.org/2000/svg" viewBox="0 0 500 500">
  <defs>
    <style>
      .cls-1 {
        fill: #fff;
      }

      .cls-2 {
        fill: #242424;
      }
    </style>
  </defs>
  <circle class="cls-2" cx="246.91" cy="249.48" r="227.15"/>
  <g>
    <path class="cls-1" d="m370.18,187.71c0,1.84-1.32,2.95-3.08,3.83-10.37,5.15-20.72,10.35-31.08,15.52-28.77,14.38-57.54,28.75-86.3,43.13-.45.22-.9.43-1.34.67-1.78.98-3.53,1.08-5.1-.35-1.47-1.34-1.52-2.98-.9-4.82,2.49-7.33,4.91-14.69,7.36-22.04,3.79-11.38,7.62-22.74,11.32-34.15.4-1.23.39-2.82-.02-4.05-6.07-18.43-12.26-36.82-18.32-55.25-.46-1.4-.65-3.17-.21-4.53.77-2.35,3.19-2.84,5.89-1.5,11.19,5.57,22.37,11.16,33.55,16.75,28.17,14.08,56.34,28.16,84.52,42.23,1.83.91,3.63,1.81,3.71,4.55Z"/>
    <path class="cls-1" d="m370.36,314.44h-8.06c-.27-2.25-.55-4.52-.85-6.99,2.52-.54,4.93-1.06,7.75-1.67.38,2.82.74,5.55,1.16,8.67Z"/>
    <path class="cls-1" d="m357,335.63c2.29,1.32,4.44,2.55,6.91,3.96-1.65,2.4-3.22,4.67-4.94,7.17-2.15-1.81-4.1-3.44-6.13-5.15,1.38-1.99,2.69-3.87,4.16-5.98Z"/>
    <path class="cls-1" d="m130.49,238.29c-.3-2.99-.57-5.67-.85-8.55h7.99c.23,2.16.46,4.35.74,7.03-2.5.48-5.01.97-7.88,1.52Z"/>
    <path class="cls-1" d="m173.68,191.44c-2.14.33-4.32.66-6.79,1.04-.6-2.45-1.2-4.89-1.9-7.76,2.98-.45,5.68-.86,8.69-1.32v8.05Z"/>
    <path class="cls-1" d="m361.82,321.92c2.7.44,5.13.83,7.88,1.27-.71,2.87-1.36,5.48-2.08,8.41-2.63-.91-5-1.73-7.54-2.61.58-2.36,1.13-4.57,1.75-7.08Z"/>
    <path class="cls-1" d="m142.42,197.7c2.15,2.05,3.94,3.75,5.8,5.52-1.49,1.89-2.91,3.69-4.5,5.7-2.15-1.39-4.28-2.76-6.7-4.32,1.82-2.32,3.52-4.51,5.4-6.9Z"/>
    <path class="cls-1" d="m286.19,267.74h7.69v7.73h-7.69v-7.73Z"/>
    <path class="cls-1" d="m253.81,191.42h-7.68v-7.79h7.68v7.79Z"/>
    <path class="cls-1" d="m296.49,355.83h7.68v7.76h-7.68v-7.76Z"/>
    <path class="cls-1" d="m230.07,191.38v-7.69h7.73v7.69h-7.73Z"/>
    <path class="cls-1" d="m280.46,363.6v-7.7h7.7v7.7h-7.7Z"/>
    <path class="cls-1" d="m272.18,363.64h-7.7v-7.69h7.7v7.69Z"/>
    <path class="cls-1" d="m256.17,355.88v7.74h-7.69v-7.74h7.69Z"/>
    <path class="cls-1" d="m181.74,275.5h-7.71v-7.76h7.71v7.76Z"/>
    <path class="cls-1" d="m197.76,275.52h-7.69v-7.73h7.69v7.73Z"/>
    <path class="cls-1" d="m213.71,275.58h-7.61v-7.79h7.61v7.79Z"/>
    <path class="cls-1" d="m229.74,275.58h-7.61v-7.79h7.61v7.79Z"/>
    <path class="cls-1" d="m238.09,275.49v-7.67h7.72v7.67h-7.72Z"/>
    <path class="cls-1" d="m261.8,275.58h-7.61v-7.79h7.61v7.79Z"/>
    <path class="cls-1" d="m277.88,275.59h-7.66v-7.79h7.66v7.79Z"/>
    <path class="cls-1" d="m232.33,363.64v-7.69h7.79v7.69h-7.79Z"/>
    <path class="cls-1" d="m302.21,267.73h7.7v7.75h-7.7v-7.75Z"/>
    <path class="cls-1" d="m326.44,267.82c-.24,2.8-.45,5.19-.67,7.71h-7.48v-7.71h8.15Z"/>
    <path class="cls-1" d="m223.94,363.67h-7.51v-7.78h7.51v7.78Z"/>
    <path class="cls-1" d="m200.34,363.62v-7.74h7.71v7.74h-7.71Z"/>
    <path class="cls-1" d="m320.27,355.93v7.64h-7.73v-7.64h7.73Z"/>
    <path class="cls-1" d="m221.78,191.47h-7.65v-7.78h7.65v7.78Z"/>
    <path class="cls-1" d="m198.01,191.34v-7.71h7.7v7.71h-7.7Z"/>
    <path class="cls-1" d="m182.06,183.6h7.67v7.79h-7.67v-7.79Z"/>
    <path class="cls-1" d="m192.05,363.63h-7.73v-7.7h7.73v7.7Z"/>
    <path class="cls-1" d="m168.28,363.58v-7.67h7.75v7.67h-7.75Z"/>
    <path class="cls-1" d="m136.28,355.88h7.66v7.74h-7.66v-7.74Z"/>
    <path class="cls-1" d="m152.32,355.89h7.63v7.72h-7.63v-7.72Z"/>
    <path class="cls-1" d="m337.47,361.36c-2.94.71-5.5,1.32-8.46,2.03-.39-2.69-.76-5.18-1.16-7.89,2.33-.57,4.54-1.12,7.04-1.73.81,2.4,1.62,4.78,2.57,7.59Z"/>
    <path class="cls-1" d="m352.73,352.92c-2.55,1.72-4.79,3.24-7.22,4.87-1.38-2.46-2.61-4.66-3.89-6.95,2.02-1.39,3.92-2.69,6-4.13,1.6,1.95,3.22,3.91,5.11,6.2Z"/>
    <path class="cls-1" d="m156.65,187.58c1.18,2.56,2.22,4.81,3.33,7.22-2.05,1.21-4.03,2.38-6.22,3.67-1.49-2.07-2.98-4.13-4.69-6.5,2.57-1.49,4.98-2.88,7.58-4.39Z"/>
    <path class="cls-1" d="m156.65,271.64c1.22-2.66,2.26-4.91,3.37-7.3,2.29.78,4.46,1.52,6.8,2.32-.56,2.41-1.11,4.73-1.81,7.71-2.73-.89-5.38-1.76-8.36-2.73Z"/>
    <path class="cls-1" d="m132.96,246.77c2.71-1.08,5.01-2,7.41-2.96,1.13,2.13,2.16,4.09,3.37,6.37-2.13,1.38-4.31,2.79-6.75,4.37-1.39-2.68-2.64-5.09-4.03-7.79Z"/>
    <path class="cls-1" d="m366.67,297.39c-2.62,1.08-4.9,2.02-7.32,3.02-1.15-2.17-2.22-4.19-3.4-6.42,2.21-1.43,4.34-2.79,6.74-4.34,1.36,2.64,2.63,5.1,3.98,7.74Z"/>
    <path class="cls-1" d="m351.44,288.21c-1.93-1.72-3.6-3.21-5.44-4.85,1.54-2.07,3.05-4.1,4.77-6.4,2.22,1.98,4.29,3.82,6.52,5.8-2.07,1.93-3.94,3.67-5.85,5.45Z"/>
    <path class="cls-1" d="m339.78,279.58c-2.32-.89-4.4-1.68-6.81-2.6.67-2.43,1.35-4.85,2.13-7.67,2.76,1.02,5.29,1.96,8.19,3.03-1.2,2.49-2.3,4.75-3.51,7.24Z"/>
    <path class="cls-1" d="m148.23,255.93c1.89,1.63,3.57,3.1,5.48,4.75-1.5,2.1-2.98,4.17-4.64,6.5-2.25-1.94-4.36-3.76-6.63-5.72,2.03-1.93,3.83-3.65,5.79-5.52Z"/>
    <path class="cls-1" d="m140.39,215.39c-.72,2.42-1.35,4.54-2.05,6.9-2.5-.46-4.91-.91-7.8-1.45.78-2.8,1.52-5.44,2.37-8.45,2.6,1.04,4.94,1.98,7.49,3Z"/>
  </g>
</svg>