<?xml version="1.0" encoding="UTF-8"?>
<svg id="Layer_1" data-name="Layer 1" xmlns="http://www.w3.org/2000/svg" viewBox="0 0 500 500">
  <defs>
    <style>
      .cls-1 {
        fill: #fff;
      }

      .cls-2 {
        fill: #5a6267;
      }
    </style>
  </defs>
  <circle class="cls-2" cx="251.9" cy="250" r="234.63"/>
  <g>
    <path class="cls-1" d="m183.17,104.52c7.18,0,14.35-.03,21.53,0,8.25.04,13.85,5.62,13.87,13.9.04,14.36.04,28.71,0,43.07-.03,8.07-5.68,13.71-13.75,13.73-14.35.04-28.71.04-43.06,0-8.24-.02-13.85-5.65-13.86-13.9-.03-14.36-.04-28.71,0-43.07.02-8.06,5.68-13.68,13.75-13.73,7.18-.04,14.35,0,21.53,0Zm-8.81,54.18c9.7-9.7,19.44-19.43,29.07-29.06-1.76-1.85-3.69-3.88-6.1-6.41-7.74,7.89-15.36,15.65-23.69,24.14-1.67-2.21-3.21-4.23-4.6-6.07-2.4,2.26-4.4,4.13-6.22,5.85,3.97,3.97,7.85,7.85,11.54,11.55Z"/>
    <path class="cls-1" d="m324.63,241.47c0-7.09-.02-14.17,0-21.26.03-8.43,5.59-14.01,14.01-14.03,14.26-.03,28.52-.03,42.78,0,8.26.02,13.87,5.61,13.89,13.87.04,14.36.04,28.71,0,43.07-.02,8.08-5.66,13.73-13.73,13.75-14.44.04-28.89.05-43.34,0-7.9-.03-13.55-5.7-13.61-13.59-.05-7.27-.01-14.54-.01-21.81Zm49.83-16.29c-7.76,7.78-15.45,15.49-23.72,23.78-1.73-2.28-3.27-4.33-4.56-6.03-2.61,2.37-4.69,4.26-6.48,5.89,3.98,3.97,7.85,7.84,11.36,11.35,9.58-9.58,19.36-19.36,29.16-29.15-1.7-1.71-3.62-3.66-5.77-5.83Z"/>
    <path class="cls-1" d="m192.06,343.47c0,7.09.03,14.17,0,21.26-.05,8.1-5.65,13.78-13.68,13.81-14.44.05-28.89.05-43.34,0-7.92-.03-13.63-5.67-13.66-13.54-.05-14.54-.05-29.08,0-43.62.03-7.75,5.69-13.48,13.4-13.52,14.63-.06,29.26-.07,43.89,0,7.71.03,13.32,5.76,13.39,13.53.06,7.36.01,14.72.01,22.09Zm-44.31,18.53c9.68-9.69,19.45-19.47,28.88-28.91-1.66-1.87-3.52-3.96-5.61-6.31-7.79,7.8-15.42,15.45-23.48,23.53-1.68-2.04-3.29-4-4.86-5.91-2.49,2.41-4.5,4.35-6.37,6.16,3.92,3.92,7.74,7.74,11.44,11.44Z"/>
    <path class="cls-1" d="m300.1,214.44c-3.76,3.89-2.31,7.7-.48,11.84,1.02,2.3,2.19,3.7,4.52,4.11,2.37.41,2.95,1.74,2.87,4.03-.18,4.96-.14,9.94,0,14.91.05,1.77-.44,2.85-2.2,3.11-3.1.47-4.34,2.49-5.54,5.23-1.51,3.47-2.47,6.55-.02,9.92.3.41.07,1.63-.34,2.06-4.35,4.49-8.78,8.9-13.43,13.56-3.64-3.16-7.25-2.59-11.31-.62-2.52,1.22-4.39,2.36-4.85,5.21-.29,1.83-1.29,2.47-3.24,2.41-5.15-.16-10.3-.12-15.46-.02-1.71.04-2.9-.28-3.15-2.13-.43-3.27-2.65-4.46-5.46-5.68-3.4-1.48-6.38-2.35-9.66.04-.43.32-1.77,0-2.26-.47-4.1-3.96-8.06-8.08-12.17-12.03-1.21-1.16-.84-2.11-.15-3.11,1.71-2.5,1.52-4.76.31-7.61-1.51-3.55-2.92-6.61-7.2-7.22-.44-.06-1.08-1-1.08-1.54-.08-5.89-.11-11.78.03-17.67.02-.67,1-1.71,1.72-1.9,3.08-.8,4.61-2.62,5.99-5.59,1.87-4.03,1.99-7.39-.86-10.83,4.64-4.64,9.02-9.09,13.53-13.42.49-.47,1.96-.58,2.53-.2,2.82,1.87,5.3,1.58,8.39.22,3.27-1.45,6.01-2.77,6.69-6.67.1-.59,1.37-1.39,2.12-1.4,5.61-.12,11.23-.14,16.83.02.82.02,2.15,1.1,2.33,1.89.7,3.12,2.36,5.02,5.52,5.62.62.12,1.26.38,1.77.74,2.32,1.66,4.56,1.45,6.8-.12,1.57-1.1,2.76-.92,4.19.58,4.04,4.26,8.3,8.33,12.73,12.73Zm-10.83,27.05c-.02-17.02-13.87-30.88-30.89-30.89-17.01-.02-30.91,13.83-30.96,30.83-.05,17.12,13.92,31.09,31.03,31.03,17.01-.05,30.84-13.95,30.82-30.97Z"/>
    <path class="cls-1" d="m208.34,349.96c1.28-2.78,2.42-5.26,3.64-7.93,32.54,13.85,64.76,13.73,96.46-2.18,17.38-8.72,31.2-21.54,42.32-38.37-8.67,2.15-16.66,4.13-25.02,6.2-.72-2.82-1.42-5.54-2.19-8.52,13.37-3.35,26.62-6.67,40.17-10.06,1.68,13.42,3.35,26.7,5.05,40.23-2.89.39-5.59.76-8.71,1.18-.95-7.33-1.88-14.57-2.9-22.5-16.89,24.16-38.85,40.58-66.8,48.4-27.98,7.82-55.25,5.43-82.02-6.45Z"/>
    <path class="cls-1" d="m251.74,131.61c2.21,1.48,4.43,2.97,6.64,4.45,2.21,1.48,4.42,2.95,6.83,4.57-1.67,2.5-3.23,4.83-4.9,7.34-10.67-7.12-21.14-14.09-32-21.34,10.8-7.2,21.31-14.21,32.01-21.35,1.65,2.46,3.17,4.74,4.9,7.32-4.55,3.06-9.01,6.06-13.99,9.4,50.43-.45,88,20.7,113.23,64.3-2.89,1.52-5.3,2.78-7.8,4.1-23.38-40.42-58.31-60.08-104.6-59.5-.1.23-.2.47-.3.7Z"/>
    <path class="cls-1" d="m150.13,191.04c2.9,1.39,5.36,2.57,7.94,3.81-12.32,28.18-13.86,56.43-2.21,85.81,1.92-7.96,3.66-15.14,5.43-22.46,2.91.7,5.56,1.34,8.55,2.06-3.24,13.56-6.43,26.91-9.7,40.6-12.28-6.77-24.23-13.35-36.48-20.1,1.44-2.6,2.79-5.04,4.26-7.71,6.43,3.53,12.69,6.96,19.59,10.75-12.31-31.55-10.93-62.19,2.62-92.76Z"/>
    <path class="cls-1" d="m271.59,241.61c-.03,7.23-5.96,13.15-13.18,13.18-7.34.03-13.34-5.98-13.31-13.33.03-7.33,6.11-13.27,13.46-13.17,7.22.1,13.07,6.08,13.03,13.33Z"/>
  </g>
</svg>