<?xml version="1.0" encoding="UTF-8"?>
<svg id="Layer_1" data-name="Layer 1" xmlns="http://www.w3.org/2000/svg" viewBox="0 0 500 500">
  <defs>
    <style>
      .cls-1 {
        fill: #fff;
      }

      .cls-2 {
        fill: #242424;
      }
    </style>
  </defs>
  <circle class="cls-2" cx="251.71" cy="249.48" r="227.15"/>
  <g>
    <path class="cls-1" d="m210.22,309.45c0-12.97,0-25.94,0-38.91,0-1.18-.03-2.37.15-3.53.49-2.98,1.73-4.03,4.69-3.98,3.99.08,7.92.13,11.33-2.52.51-.4,1.44-.33,2.18-.33,15.15-.02,30.31-.02,45.46,0,.66,0,1.52-.12,1.96.23,4.08,3.32,8.92,2.83,13.56,2.52,5.29-.35,6,2.13,6.02,6.16.12,26.95.08,53.9.05,80.84,0,5.23-3.52,8.64-8.79,8.65-22.65.02-45.3.02-67.94,0-5.27,0-8.64-3.4-8.65-8.73-.03-13.47-.01-26.95-.01-40.42Z"/>
    <path class="cls-1" d="m287.74,170.99h-71.72c0,3.68.08,7.27-.05,10.85-.04,1.03-.72,2.03-1.1,3.05-.99-.45-2.19-.67-2.93-1.38-3.71-3.55-7.35-7.17-10.9-10.89-1.27-1.33-2.56-1.9-4.41-1.84-3.9.12-4.49-.58-4.49-4.53,0-13.05,0-26.1,0-39.15,0-3.38.24-3.64,3.55-3.64,36.87,0,73.75,0,110.62,0,3.15,0,3.45.32,3.45,3.51,0,13.47-.04,26.95.04,40.42.01,2.44-.71,3.55-3.31,3.53-1.08-.01-2.41.64-3.23,1.42-3.9,3.72-7.62,7.62-11.52,11.34-.72.69-1.99.81-3,1.19-.33-.96-.92-1.92-.95-2.89-.11-3.6-.05-7.21-.05-10.98Zm10.98-24.89c-.04-5.91-5.08-10.9-10.99-10.88-6.07.01-10.85,4.81-10.87,10.9-.02,6.2,4.84,11.02,11.05,10.96,6.05-.06,10.85-4.93,10.81-10.98Zm-83.78,10.97c6.06-.02,10.92-4.87,10.94-10.9.01-6-4.89-10.94-10.89-10.96-5.92-.02-10.77,4.99-10.71,11.08.06,6.11,4.7,10.8,10.66,10.78Zm36.3-21.86c-5.98.03-10.93,5.19-10.84,11.31.09,5.87,5,10.59,10.97,10.54,5.84-.04,10.52-4.95,10.49-10.99-.03-6.02-4.79-10.89-10.62-10.87Z"/>
    <path class="cls-1" d="m187.83,326.79c2.26,6.74,4.37,13.02,6.48,19.29.94,2.79,1.91,5.56,2.84,8.35,1.36,4.1.19,7.41-2.98,8.44-3.23,1.05-6.23-.84-7.57-4.8-3.2-9.48-6.5-18.92-9.51-28.45-.74-2.35-1.83-2.85-4.09-2.85-5.71.01-11.43-.17-17.13-.52-1.97-.12-3.89-.94-6.08-1.51-1.36,4.34-2.75,8.72-4.12,13.12-2.16,6.9-4.28,13.81-6.46,20.7-1.14,3.62-4.26,5.65-7.17,4.76-3.1-.95-4.61-4.38-3.45-8.09,3.7-11.79,7.42-23.57,11.2-35.33.46-1.42.38-2.45-.56-3.68-3.57-4.68-5.18-10.07-5.7-15.92-2.09-23.56-4.3-47.1-6.46-70.66-.27-2.93-.58-5.87-.7-8.81-.16-4.09,2.77-7.32,6.79-7.69,3.43-.31,6.98,2.35,7.45,6.15.99,8.01,1.7,16.07,2.49,24.1,1.63,16.58,3.23,33.17,4.84,49.75.22,2.26.48,4.52.67,6.78.64,7.7,5.44,12.32,13.18,12.4,9.34.09,18.69.02,28.04.03,1.43,0,2.87-.03,4.29.11,3.99.38,6.61,3.16,6.62,6.92,0,3.9-2.91,7.08-6.86,7.35-1.84.12-3.69.02-6.04.02Z"/>
    <path class="cls-1" d="m196.89,237.99c-4.32-3.16-8.5-6.21-12.67-9.29-3.07-2.26-6.43-2.83-10.03-1.7-3.82,1.19-6.42,3.73-7.28,7.67-.93,4.26.06,8.24,3.55,10.93,6.93,5.34,14.08,10.37,21.16,15.52.54.39,1.17.84,1.79.9,3.47.31,3.56,2.56,3.46,5.29-.17,4.71-.05,9.43-.04,14.14,0,.82.08,1.63.14,2.74h8.01v21.76c-.86.05-1.6.13-2.33.13-9.09,0-18.18.04-27.27,0-13.42-.05-22.71-9.28-22.75-22.68-.05-15.24-.08-30.47.02-45.71.05-8.85,4.22-15.4,11.9-19.67.88-.49,2.25-.58,3.25-.31,4.67,1.27,9.27,1.25,13.96.1,1.23-.3,2.86-.19,3.96.39,6.73,3.57,10.35,9.37,11.4,16.84.09.66.07,1.34.06,2.02,0,.22-.12.43-.28.94Z"/>
    <path class="cls-1" d="m353.2,325.35c-7.9,2.92-15.95,1.7-23.88,1.86-1.84.04-2.6.59-3.16,2.31-3.21,9.83-6.53,19.62-9.86,29.41-.99,2.9-3.38,4.68-5.97,4.62-2.17-.06-4.51-1.96-4.86-4.42-.2-1.42.05-3.03.51-4.42,2.67-8.14,5.47-16.25,8.22-24.37.31-.93.56-1.89.92-3.07-1.66,0-3,.03-4.34,0-4.6-.11-7.56-2.95-7.64-7.31-.07-4.24,2.92-7.43,7.47-7.5,8.42-.13,16.84-.05,25.25-.06,2.1,0,4.21.04,6.31-.01,7.11-.2,12.41-5.11,13.07-12.21,2.25-24.3,4.45-48.61,6.68-72.91.22-2.43.38-4.87.75-7.28.65-4.29,4.02-7.19,7.7-6.79,4.23.46,7.02,3.75,6.66,8.27-.65,8.05-1.48,16.09-2.26,24.13-1.61,16.67-3.2,33.34-4.85,50-.52,5.25-.48,10.64-2.94,15.52-.72,1.42-1.32,3.06-2.43,4.1-2.42,2.26-1.92,4.51-.99,7.23,3.78,11.06,7.37,22.17,11,33.28,1.09,3.34.11,6.02-2.56,7.32-3.4,1.66-6.75.06-8.03-3.92-2.77-8.64-5.49-17.3-8.24-25.96-.81-2.55-1.66-5.09-2.54-7.8Z"/>
    <path class="cls-1" d="m299.24,305.25v-21.78c1.75-.09,3.46-.17,5.36-.27v-19.45c3.68-2.25,6.95-4.04,9.99-6.16,5.45-3.8,10.79-7.77,16.11-11.74,3.81-2.85,5.22-6.78,4.28-11.37-.85-4.13-3.5-6.86-7.57-7.99-3.52-.98-6.83-.32-9.8,1.86-3.53,2.59-7.04,5.19-10.57,7.77-.65.48-1.34.89-2.35,1.56.07-8.36,3.7-14.33,10-18.88,1.96-1.42,3.81-2.12,6.48-1.29,4.22,1.31,8.62.99,12.94-.21,1-.27,2.37-.14,3.27.36,7.52,4.14,11.77,10.5,11.85,19.16.15,15.66.12,31.31.02,46.97-.08,12.39-10.46,22.31-22.83,22.08-8.08-.15-16.15-.31-24.23-.47-.91-.02-1.82-.09-2.94-.15Z"/>
    <path class="cls-1" d="m326.97,214.7c-11.74,0-21.22-9.33-21.17-20.84.05-11.59,9.42-20.95,21.08-21.04,11.77-.09,21.23,9.14,21.27,20.74.03,11.72-9.4,21.15-21.18,21.15Z"/>
    <path class="cls-1" d="m175.55,214.7c-11.94-.06-21.07-9.18-20.96-20.92.11-11.69,9.45-20.96,21.11-20.97,11.85,0,21.13,9.18,21.09,20.86-.04,11.84-9.38,21.09-21.25,21.03Z"/>
    <path class="cls-1" d="m208.82,259.48c-15.33-.17-10.59,1.51-23.42-7.69-3.82-2.74-7.6-5.55-11.38-8.35-3.77-2.78-4.71-7.18-2.29-10.56,2.42-3.38,6.99-3.95,10.72-1.28,5.4,3.86,10.72,7.83,16.18,11.61,1.08.75,2.58,1.21,3.9,1.24,5.38.14,10.76,0,16.14.08,4.79.06,7.9,3.14,7.91,7.63,0,4.11-3.15,7.18-7.67,7.3-3.36.09-6.72.02-10.09.02Z"/>
    <path class="cls-1" d="m293.56,259.88c-3.2,0-6.39.04-9.59,0-4.98-.08-8.33-3.12-8.36-7.54-.03-4.3,3.53-7.46,8.46-7.39,5.13.07,10.26.36,15.39.31,1.46-.01,3.13-.56,4.33-1.39,5.33-3.67,10.52-7.55,15.78-11.32,3.93-2.82,8.47-2.35,10.96,1.11,2.39,3.31,1.46,7.84-2.28,10.61-6.22,4.6-12.41,9.24-18.78,13.62-1.63,1.12-3.83,1.73-5.82,1.91-3.34.31-6.72.08-10.09.08Z"/>
  </g>
</svg>