<?xml version="1.0" encoding="UTF-8"?>
<svg id="Layer_1" data-name="Layer 1" xmlns="http://www.w3.org/2000/svg" viewBox="0 0 500 500">
  <defs>
    <style>
      .cls-1 {
        fill: #242424;
      }
    </style>
  </defs>
  <path class="cls-1" d="m64.9,238.5c.94-6.74,1.6-13.53,2.86-20.2,9.98-52.97,37.38-94.42,82.8-123.55,31.14-19.97,65.48-29.3,102.47-28.61,17.08.32,33.8,3.11,50.1,8.25,4.99,1.57,7.36,5.19,6.87,9.99-.43,4.17-3.65,7.55-7.98,7.94-1.72.15-3.56-.27-5.26-.75-53.46-14.96-103.03-6.66-147.62,26.4-34.83,25.83-56.06,60.86-63.36,103.64-8.56,50.16,3.68,95.33,36,134.53,25.71,31.16,58.99,50.35,98.89,56.91,53.3,8.76,100.77-4.88,140.28-41.58,41.5-38.55,58.44-87.01,51.73-143.37-1.05-8.85-3.52-17.55-5.61-26.25-1.49-6.21.64-11.3,5.86-12.77,5.35-1.51,9.97,1.46,11.81,7.59,31.62,105.12-34.41,213.67-142.49,234.13-7.25,1.37-14.63,2.09-21.95,3.11h-22.99c-.79-.2-1.58-.47-2.38-.59-8.5-1.26-17.1-2.05-25.5-3.8-72.03-15.07-129.59-75.19-141.7-147.82-1.12-6.7-1.89-13.46-2.83-20.19,0-7.66,0-15.33,0-22.99Z"/>
  <path class="cls-1" d="m249.42,378.38c-62.51-.78-116.24-46.2-126.41-107.46-11.36-68.46,32.75-133.17,100.39-147.19,10.71-2.22,21.56-3.01,32.49-2.3,1.3.08,2.63.26,3.88.63,4.75,1.38,7.73,6.09,6.93,10.77-.79,4.58-4.92,7.55-10.12,7.07-17.17-1.58-33.6,1.49-49.43,8-44.8,18.42-72.48,65.23-67,113.15,5.78,50.52,43.15,89.31,93.62,97.18,57.14,8.9,113.73-31.34,123.44-88.17,1.53-8.99,1.49-18.3,1.57-27.46.05-5.91,2.96-10.39,8.43-10.92,5.16-.51,9.92,3.22,9.91,9.02-.03,10.37.47,21.03-1.62,31.07-11.34,54.37-44.25,88.76-98.08,102.62-9.07,2.33-18.64,2.71-27.98,4Z"/>
  <path class="cls-1" d="m304.34,164.19c0-4.67.05-9.34-.01-14-.05-3.54,1.09-6.46,3.65-9,17.73-17.65,35.42-35.34,53.07-53.06,3.18-3.19,6.75-4.58,11.03-2.84,4.2,1.7,5.61,5.2,5.58,9.54-.05,7.78.07,15.56-.06,23.34-.04,2.38.78,3.09,3.1,3.05,7.66-.12,15.32.02,22.98-.07,4.46-.05,8.11,1.27,9.86,5.64,1.72,4.29.28,7.85-2.9,11.02-17.64,17.57-35.24,35.17-52.8,52.82-2.63,2.64-5.59,3.87-9.29,3.84-8.98-.08-17.96.12-26.93-.1-3.16-.08-5.31.99-7.48,3.18-18.72,18.86-37.54,37.62-56.33,56.4-5.46,5.46-10.82,6.16-14.97,1.97-4.16-4.2-3.44-9.46,2.06-14.96,18.96-18.96,37.89-37.94,56.91-56.83,1.86-1.85,2.69-3.67,2.58-6.28-.19-4.54-.05-9.09-.05-13.64Zm78.78-24.78c-5.23,0-9.27.03-13.31,0-6.86-.06-10.36-3.56-10.41-10.4-.03-4.11,0-8.22,0-12.55-.74.31-1,.34-1.15.49-11.44,11.41-22.89,22.82-34.29,34.27-.55.55-1.13,1.39-1.14,2.1-.08,7.49-.05,14.99-.05,22.73,7.25,0,14.06.14,20.86-.1,1.68-.06,3.69-.94,4.9-2.11,7.24-6.98,14.28-14.16,21.39-21.27,4.14-4.13,8.28-8.26,13.21-13.17Z"/>
  <path class="cls-1" d="m254.29,322.62c-42.98-.13-74.62-29.15-77.92-66.77-3.31-37.7,22.75-71.91,59.89-78.49,3.87-.69,7.83-1.09,11.76-1.24,6.11-.23,10.34,3.47,10.52,8.83.19,5.33-3.76,9.3-9.95,9.48-7.77.23-15.16,1.81-22.22,5.06-22.35,10.27-35.38,34.72-31.25,58.71,4.28,24.85,24.14,43.45,48.94,45.82,31.71,3.03,58.82-20.65,60.18-52.65.2-4.63,1.3-8.6,5.99-10.48,6.31-2.53,12.6,2.16,12.47,9.43-.32,16.96-5.67,32.22-16.5,45.3-14.77,17.85-33.94,26.66-51.91,27Z"/>
</svg>