<?xml version="1.0" encoding="UTF-8"?>
<svg id="Layer_1" data-name="Layer 1" xmlns="http://www.w3.org/2000/svg" viewBox="0 0 500 500">
  <defs>
    <style>
      .cls-1 {
        fill: #242424;
      }
    </style>
  </defs>
  <path class="cls-1" d="m421.99,253.51c-1.6,3.97-4.66,5.44-8.78,5.33-3.59-.1-7.18.07-10.76-.05-4.74-.15-7.58-2.78-7.58-6.79,0-4.06,2.85-6.59,7.61-6.69,3.36-.07,6.74.16,10.09-.06,4.21-.27,7.45.98,9.42,4.87v3.38Z"/>
  <path class="cls-1" d="m249,402.25c-5.49.03-9.57-2.65-13.1-6.62-16.9-19.03-33.85-38.02-50.78-57.02-22.4-25.14-44.77-50.31-67.21-75.42-4.34-4.85-6.71-10.15-4.69-16.66.62-2.01,1.69-3.93,2.84-5.71,11.8-18.24,23.74-36.38,35.45-54.68,4.03-6.3,9.4-9.1,16.87-9.09,53.72.11,107.45.11,161.17,0,7.62-.02,13.05,2.87,17.13,9.26,11.62,18.21,23.46,36.3,35.19,54.44,5.31,8.21,4.87,14.81-1.61,22.1-39.39,44.25-78.81,88.46-118.19,132.71-3.52,3.96-7.57,6.69-13.07,6.67Zm13.32-28.38c.25.09.49.17.74.26,34.06-38.24,68.12-76.49,102.58-115.18h-67.91c-11.81,38.34-23.61,76.63-35.41,114.92Zm-130.15-115.04c34.68,38.94,68.74,77.17,102.8,115.41.39-.88.3-1.41.14-1.93-11.38-36.95-22.78-73.9-34.09-110.88-.66-2.17-1.7-2.66-3.8-2.65-16.1.08-32.21.05-48.31.05-5.27,0-10.54,0-16.75,0Zm82.18.14c11.46,37.18,22.84,74.13,34.22,111.08.26,0,.53,0,.79,0,11.38-36.95,22.77-73.9,34.22-111.08h-69.24Zm-53.2-62.77c-10.76,16.56-21.18,32.59-31.72,48.83h63.31c-10.59-16.37-20.9-32.31-31.59-48.83Zm207.49,49.02c-10.72-16.57-21.07-32.55-31.72-48.99-10.67,16.51-21.03,32.55-31.66,48.99h63.38Zm-44.41-54.26h-62.9c10.56,16.32,20.87,32.25,31.47,48.61,10.59-16.38,20.94-32.38,31.43-48.61Zm-118.99,48.5c10.61-16.41,20.92-32.38,31.38-48.57h-62.8c10.53,16.28,20.83,32.19,31.42,48.57Zm75.09,5.72c-10.59-16.36-20.82-32.17-31.36-48.44-10.58,16.36-20.84,32.22-31.33,48.44h62.69Z"/>
  <path class="cls-1" d="m255.85,107.94c0,6.86.04,13.73-.01,20.59-.04,4.93-2.73,8.05-6.75,7.99-3.91-.05-6.68-3.07-6.71-7.78-.09-13.95-.09-27.9,0-41.85.03-4.88,2.93-7.91,7.01-7.77,3.99.13,6.42,3.03,6.46,7.9.05,6.98.01,13.95.01,20.93Z"/>
  <path class="cls-1" d="m345.4,163.61c-6.09.04-9.41-5.21-7.17-9.56.55-1.08,1.37-2.07,2.23-2.94,6.74-6.79,13.51-13.56,20.3-20.31.79-.79,1.67-1.53,2.63-2.09,2.67-1.56,6-1.09,8.04,1.18,2.08,2.32,2.55,4.99,1,7.79-.54.97-1.29,1.85-2.07,2.64-6.75,6.79-13.46,13.61-20.33,20.27-1.53,1.49-3.63,2.39-4.61,3.02Z"/>
  <path class="cls-1" d="m160.68,155.46c.08,6.2-5.03,9.52-9.44,7.34-1.08-.54-2.07-1.36-2.94-2.22-6.87-6.82-13.78-13.6-20.48-20.58-1.38-1.44-2.84-3.77-2.64-5.49.26-2.12,1.78-4.9,3.57-5.81,1.77-.9,4.94-.51,6.78.56,2.64,1.54,4.66,4.17,6.89,6.39,5.11,5.08,10.26,10.11,15.24,15.32,1.47,1.54,2.42,3.58,3.03,4.5Z"/>
  <path class="cls-1" d="m89.59,258.6c-2.57,0-5.18.27-7.71-.07-3.59-.48-5.96-3.42-5.86-6.68.1-3.46,2.79-6.3,6.52-6.45,4.71-.18,9.43-.18,14.13,0,3.7.14,6.18,2.71,6.4,6.12.24,3.66-1.87,6.46-5.76,7.01-2.53.35-5.14.07-7.71.06Z"/>
  <path class="cls-1" d="m255.78,152.74c-.03,3.61-3.13,6.69-6.7,6.64-3.54-.05-6.68-3.24-6.65-6.77.03-3.57,3.18-6.63,6.77-6.6,3.67.04,6.61,3.04,6.57,6.72Z"/>
</svg>