<?xml version="1.0" encoding="UTF-8"?>
<svg id="Layer_1" data-name="Layer 1" xmlns="http://www.w3.org/2000/svg" viewBox="0 0 500 500">
  <defs>
    <style>
      .cls-1 {
        fill: #242424;
      }
    </style>
  </defs>
  <path class="cls-1" d="m100.88,208.84c.37-.98.65-1.96,1.09-2.87,7.69-15.89,15.32-31.81,23.19-47.61,1.12-2.25,3.11-4.35,5.21-5.76,8.35-5.61,16.98-11.06,27.17-12.34,20.9-2.62,40.92-.7,58.27,13.05,2.39,1.9,3.69,3.97,4.19,6.92,1.29,7.65,2.75,15.26,4.18,22.89.14.77.52,1.49.83,2.33,4.56.23,8.57.02,12.98-2.36,11.35-6.11,22.92-5.77,34.38.91,3.05,1.77,7.28,1.51,11.28,2.24,1.43-8.69,2.39-16.53,4.13-24.2.71-3.16,2.47-6.58,4.8-8.78,10.92-10.32,24.47-13.7,39.13-13.81,17.13-.12,33.31,2.87,47.09,13.96,1.03.82,2.15,1.75,2.72,2.88,8.74,17.31,17.4,34.65,26.57,52.99-1.86-.86-2.85-1.26-3.79-1.76-35.44-18.57-70.59-17.6-105.4,1.7-8.79,4.87-14.46,13.06-20.86,20.4-8.17,9.39-15.97,19.09-24.25,29.04-5.6-6.66-11.04-13.2-16.57-19.69-5.56-6.53-11.3-12.91-16.79-19.5-10.53-12.63-25.08-18.07-40.25-21.76-26.56-6.47-52.05-2.9-76.19,10.03-.82.44-1.67.84-2.51,1.24-.08.04-.23-.04-.62-.13Z"/>
  <path class="cls-1" d="m245.27,301.6c0,49.89-40.43,90.3-90.22,90.2-49.84-.11-90.25-40.6-90.15-90.36.09-49.65,40.83-90.19,90.52-90.07,49.55.12,89.85,40.6,89.85,90.24Zm-90.16-60.73c-33.24.04-59.92,26.81-59.87,60.08.05,32.9,26.96,59.85,59.82,59.92,32.84.06,60.17-27.27,60.15-60.16-.02-33.32-26.68-59.87-60.1-59.83Z"/>
  <path class="cls-1" d="m352.49,391.79c-49.87-.03-90.25-40.5-90.11-90.3.14-49.72,40.42-90.08,89.96-90.13,49.71-.05,90.39,40.53,90.41,90.18.02,49.77-40.5,90.28-90.26,90.25Zm-.17-150.92c-32.93.07-59.85,26.95-59.89,59.82-.04,32.89,27.29,60.23,60.14,60.18,33.01-.05,59.88-27.14,59.83-60.31-.05-33.49-26.48-59.74-60.08-59.68Z"/>
  <path class="cls-1" d="m295.65,130.16c4.84-11.79,13.67-18.72,25.89-20.97,15.5-2.85,27.97,2.75,37.9,15.16-21.92-4.89-43.19-3.88-63.79,5.81Z"/>
  <path class="cls-1" d="m147.38,124.71c9.73-12.31,21.18-18.1,35.75-16.12,13.28,1.81,25.71,11.46,28.77,21.92-20.56-9.76-41.72-11.22-64.52-5.8Z"/>
</svg>