<?xml version="1.0" encoding="utf-8"?>
<!-- Generator: Adobe Illustrator 27.1.1, SVG Export Plug-In . SVG Version: 6.00 Build 0)  -->
<svg version="1.1" id="Layer_1" xmlns="http://www.w3.org/2000/svg" xmlns:xlink="http://www.w3.org/1999/xlink" x="0px" y="0px"
	 viewBox="0 0 1920 748.4" style="enable-background:new 0 0 1920 748.4;" xml:space="preserve">
<style type="text/css">
	.st0{clip-path:url(#SVGID_00000153705983042607755310000000886522322108731831_);}
	.st1{fill:#5BC5C7;}
	.st2{fill:#FFFFFF;}
	.st3{opacity:0.5;}
	.st4{clip-path:url(#SVGID_00000030470678031003207080000010327461038611739064_);}
	.st5{clip-path:url(#SVGID_00000045619862229676844300000018302232036925022339_);}
	.st6{clip-path:url(#SVGID_00000037663715997496341830000000348214890796330880_);}
	.st7{fill:#1BB6B3;}
	.st8{clip-path:url(#SVGID_00000049211761878154927530000013221114979644030143_);}
	.st9{clip-path:url(#SVGID_00000057145898139450489000000002991625408223550355_);}
	.st10{fill:#42C6EC;}
	.st11{clip-path:url(#SVGID_00000178891729690980142530000003808574527870747302_);}
	.st12{fill:#3292D0;}
	.st13{clip-path:url(#SVGID_00000158003233997872941970000001450974803776146854_);}
	.st14{clip-path:url(#SVGID_00000106132537785829282180000005784858632850749845_);}
	.st15{clip-path:url(#SVGID_00000069369058773288327530000001384667795084391057_);}
	.st16{clip-path:url(#SVGID_00000100377838535298900270000004626512543211323550_);}
	.st17{clip-path:url(#SVGID_00000066491044157538372720000015865153213738535079_);}
	.st18{clip-path:url(#SVGID_00000103239001947326470550000008467327071422975391_);}
	.st19{clip-path:url(#SVGID_00000075861046062707589950000017253775796381392557_);}
	.st20{clip-path:url(#SVGID_00000140700214736408051420000004629171295015005618_);}
	.st21{fill:#14548A;}
	.st22{clip-path:url(#SVGID_00000078007943012046679500000012408004597870379412_);}
	.st23{clip-path:url(#SVGID_00000028311591488017788690000005959191207349557919_);}
	.st24{clip-path:url(#SVGID_00000070808178731357912590000009505053887620091526_);}
	.st25{fill:#191919;}
	.st26{clip-path:url(#SVGID_00000087414693233736468930000003492339636869149328_);}
	.st27{fill:#51C4CC;}
	.st28{clip-path:url(#SVGID_00000100347453210413922390000013509864389264505227_);}
	.st29{clip-path:url(#SVGID_00000072259497106618952640000016407547524656182406_);}
	.st30{clip-path:url(#SVGID_00000087374491506825388970000001429941685051652528_);}
	.st31{clip-path:url(#SVGID_00000036935940514733340240000009482243833094821550_);}
	.st32{clip-path:url(#SVGID_00000000181360198931928800000017033060032761813120_);}
	.st33{clip-path:url(#SVGID_00000134959132059546447830000003728532270090272188_);}
	.st34{clip-path:url(#SVGID_00000134961206807283821580000013853532128581016718_);}
	.st35{clip-path:url(#SVGID_00000051363050995768462550000013545327240636110774_);}
	.st36{clip-path:url(#SVGID_00000178897857977788881780000010069420870587941781_);}
	.st37{clip-path:url(#SVGID_00000042004176480528857700000006624585710361449399_);}
	.st38{clip-path:url(#SVGID_00000073714629552365677840000011168681904238241924_);}
	.st39{clip-path:url(#SVGID_00000075150528255864562840000013683520630404287927_);}
	.st40{clip-path:url(#SVGID_00000176041513185531937390000016275564915296425149_);}
	.st41{clip-path:url(#SVGID_00000010285291168719993350000005190710717774992288_);}
</style>
<g>
	<g>
		<g>
			<defs>
				<rect id="SVGID_1_" x="19.1" y="465.9" width="220.5" height="127"/>
			</defs>
			<clipPath id="SVGID_00000014601923371792405360000002699844524731802551_">
				<use xlink:href="#SVGID_1_"  style="overflow:visible;"/>
			</clipPath>
			<g style="clip-path:url(#SVGID_00000014601923371792405360000002699844524731802551_);">
				<path class="st1" d="M19.1,465.9h220.1v126.7H19.1V465.9z"/>
			</g>
		</g>
	</g>
	<path class="st2" d="M134.5,519.1h-2.3c-1.4,0-2.7,0.4-3.9,1.1l-5.2,3v4.5l6.5-3.5V541h5v-21.9H134.5z"/>
	<g class="st3">
		<g>
			<g>
				<defs>
					<rect id="SVGID_00000067929812145344169730000005966297117389322909_" x="198.7" y="554.1" width="41.3" height="38.9"/>
				</defs>
				<clipPath id="SVGID_00000138531580642297581850000015754624404018228657_">
					<use xlink:href="#SVGID_00000067929812145344169730000005966297117389322909_"  style="overflow:visible;"/>
				</clipPath>
				<g style="clip-path:url(#SVGID_00000138531580642297581850000015754624404018228657_);">
					<g>
						<g>
							<defs>
								<rect id="SVGID_00000001649831952322110220000014035148960858814373_" x="199.3" y="554.2" width="40.3" height="38.7"/>
							</defs>
							<clipPath id="SVGID_00000076600945742597562360000017421810303971435675_">
								<use xlink:href="#SVGID_00000001649831952322110220000014035148960858814373_"  style="overflow:visible;"/>
							</clipPath>
							<g style="clip-path:url(#SVGID_00000076600945742597562360000017421810303971435675_);">
								<g>
									<g>
										<defs>
											<polyline id="SVGID_00000127024848493165689120000014735818528432379541_" points="199.3,554.3 239.6,554.3 239.6,592.9 
												199.3,554.3 											"/>
										</defs>
										<clipPath id="SVGID_00000015356192376011014000000003858301333895024530_">
											<use xlink:href="#SVGID_00000127024848493165689120000014735818528432379541_"  style="overflow:visible;"/>
										</clipPath>
										<g style="clip-path:url(#SVGID_00000015356192376011014000000003858301333895024530_);">
											<path class="st7" d="M239.6,592.9h-40.3v-38.6h40.3V592.9z"/>
										</g>
									</g>
								</g>
							</g>
						</g>
					</g>
				</g>
			</g>
		</g>
	</g>
	<g>
		<g>
			<defs>
				<rect id="SVGID_00000173148500275749466300000011327647947807497628_" x="199.3" y="427.3" width="220.5" height="126.8"/>
			</defs>
			<clipPath id="SVGID_00000182499467080780937430000002008265065276379564_">
				<use xlink:href="#SVGID_00000173148500275749466300000011327647947807497628_"  style="overflow:visible;"/>
			</clipPath>
			<g style="clip-path:url(#SVGID_00000182499467080780937430000002008265065276379564_);">
				<path class="st7" d="M199.3,427.3h220.1V554H199.3V427.3L199.3,427.3z"/>
			</g>
		</g>
	</g>
	<path class="st2" d="M308.9,498.5l3.6-3.5c4.1-4,5.4-5.9,5.4-8.6c0-3.9-2.7-6.4-7.6-6.4s-8.1,2.6-8.6,7.4v0.3h5v-0.3
		c0.2-2.5,1.2-3.7,3.1-3.7c1.8,0,2.8,1.2,2.8,3c0,2.1-1.1,3.6-4.2,6.6l-7.1,6.9v2.3h16.4v-3.9L308.9,498.5L308.9,498.5z"/>
	<g>
		<g>
			<defs>
				<rect id="SVGID_00000110464296797192420840000009104130860452989105_" x="382.8" y="388.7" width="220.2" height="127"/>
			</defs>
			<clipPath id="SVGID_00000155132980386566532900000005625339538195226283_">
				<use xlink:href="#SVGID_00000110464296797192420840000009104130860452989105_"  style="overflow:visible;"/>
			</clipPath>
			<g style="clip-path:url(#SVGID_00000155132980386566532900000005625339538195226283_);">
				<path class="st10" d="M382.8,388.7H603v126.7H382.8V388.7L382.8,388.7z"/>
			</g>
		</g>
	</g>
	<path class="st2" d="M496.9,452.2c2.7-0.7,4.1-2.5,4.1-5c0-3.2-2.5-5.8-7.5-5.8c-5.4,0-8.1,3.1-8.5,6.9v0.3h5v-0.3
		c0.2-1.8,1.2-3.2,3-3.2s2.8,1,2.8,2.7c0,1.8-1.3,3-3.5,3.2h-0.8v3.3h0.8c2.6,0.1,4,1.2,4,3.2c0,1.8-1.4,3-3.6,3s-3.4-1.4-3.8-3.3
		v-0.3h-5v0.3c0.4,4.5,3.6,7,8.8,7s8.7-2.7,8.7-6.9C501.5,454.6,499.9,452.9,496.9,452.2L496.9,452.2z"/>
	<g>
		<g>
			<defs>
				<rect id="SVGID_00000106860528449886945330000012886219789344855434_" x="564.5" y="350.5" width="220.3" height="127"/>
			</defs>
			<clipPath id="SVGID_00000122722220168509683470000011150716022902827922_">
				<use xlink:href="#SVGID_00000106860528449886945330000012886219789344855434_"  style="overflow:visible;"/>
			</clipPath>
			<g style="clip-path:url(#SVGID_00000122722220168509683470000011150716022902827922_);">
				<path class="st12" d="M564.5,350.5h220.1v126.7H564.5V350.5L564.5,350.5z"/>
			</g>
		</g>
	</g>
	<path class="st2" d="M683.9,420.5v-3.9h-2.7v-13h-5.4l-10,14.2v2.7h10.4v5h5v-5L683.9,420.5L683.9,420.5z M676.2,416.6H671l3.8-5.4
		c0.4-0.6,0.9-1.3,1.3-2.2v7.6H676.2z"/>
	<g class="st3">
		<g>
			<g>
				<defs>
					<rect id="SVGID_00000008125323917049968900000000061856210562046631_" x="563.2" y="476.3" width="39.7" height="39.7"/>
				</defs>
				<clipPath id="SVGID_00000155132085255516119500000010258789912521170356_">
					<use xlink:href="#SVGID_00000008125323917049968900000000061856210562046631_"  style="overflow:visible;"/>
				</clipPath>
				<g style="clip-path:url(#SVGID_00000155132085255516119500000010258789912521170356_);">
					<g>
						<g>
							<defs>
								<rect id="SVGID_00000008112404315003023540000001460765473718165650_" x="564" y="477.1" width="38.7" height="38.6"/>
							</defs>
							<clipPath id="SVGID_00000181781743488710309170000011816019886422248615_">
								<use xlink:href="#SVGID_00000008112404315003023540000001460765473718165650_"  style="overflow:visible;"/>
							</clipPath>
							<g style="clip-path:url(#SVGID_00000181781743488710309170000011816019886422248615_);">
								<g>
									<g>
										<defs>
											<polyline id="SVGID_00000117668767402481403700000013784060002397885062_" points="564,477.1 602.6,477.1 602.6,515.7 
												564,477.1 											"/>
										</defs>
										<clipPath id="SVGID_00000135685629651546101290000008434562124060170880_">
											<use xlink:href="#SVGID_00000117668767402481403700000013784060002397885062_"  style="overflow:visible;"/>
										</clipPath>
										<g style="clip-path:url(#SVGID_00000135685629651546101290000008434562124060170880_);">
											<path class="st12" d="M602.6,515.7H564v-38.6h38.7v38.6H602.6z"/>
										</g>
									</g>
								</g>
							</g>
						</g>
					</g>
				</g>
			</g>
		</g>
	</g>
	<g class="st3">
		<g>
			<g>
				<defs>
					<rect id="SVGID_00000119101064460155992850000015860538442768346021_" x="381.4" y="515.2" width="39.7" height="39.7"/>
				</defs>
				<clipPath id="SVGID_00000042006103145564984100000008546320623180607162_">
					<use xlink:href="#SVGID_00000119101064460155992850000015860538442768346021_"  style="overflow:visible;"/>
				</clipPath>
				<g style="clip-path:url(#SVGID_00000042006103145564984100000008546320623180607162_);">
					<g>
						<g>
							<defs>
								<rect id="SVGID_00000127017984880130522380000018212981421961116291_" x="381.7" y="515.6" width="38.7" height="38.7"/>
							</defs>
							<clipPath id="SVGID_00000154425082846657609080000006289356972909625246_">
								<use xlink:href="#SVGID_00000127017984880130522380000018212981421961116291_"  style="overflow:visible;"/>
							</clipPath>
							<g style="clip-path:url(#SVGID_00000154425082846657609080000006289356972909625246_);">
								<g>
									<g>
										<defs>
											<polyline id="SVGID_00000007390985057391764590000016693041035548902327_" points="381.7,515.7 420.4,515.7 420.4,554.3 
												381.7,515.7 											"/>
										</defs>
										<clipPath id="SVGID_00000107585132152916428550000014703229204024290452_">
											<use xlink:href="#SVGID_00000007390985057391764590000016693041035548902327_"  style="overflow:visible;"/>
										</clipPath>
										<g style="clip-path:url(#SVGID_00000107585132152916428550000014703229204024290452_);">
											<path class="st10" d="M420.4,554.3h-38.7v-38.6h38.7V554.3z"/>
										</g>
									</g>
								</g>
							</g>
						</g>
					</g>
				</g>
			</g>
		</g>
	</g>
	<g>
		<g>
			<defs>
				<rect id="SVGID_00000090256261604650704190000013911800895056348850_" x="746" y="246.3" width="283.2" height="250.6"/>
			</defs>
			<clipPath id="SVGID_00000114038497254173910960000001474213376755368626_">
				<use xlink:href="#SVGID_00000090256261604650704190000013911800895056348850_"  style="overflow:visible;"/>
			</clipPath>
			<g style="clip-path:url(#SVGID_00000114038497254173910960000001474213376755368626_);">
				<g>
					<g>
						<defs>
							<polyline id="SVGID_00000089534096488940772780000016010333255581727911_" points="1029.1,372 911.4,246.3 911.4,305.1 
								746,305.1 746,438.9 911.4,438.9 911.4,497.8 1029.1,372 							"/>
						</defs>
						<clipPath id="SVGID_00000122000421989536530950000005245608123998729867_">
							<use xlink:href="#SVGID_00000089534096488940772780000016010333255581727911_"  style="overflow:visible;"/>
						</clipPath>
						<g style="clip-path:url(#SVGID_00000122000421989536530950000005245608123998729867_);">
							<path class="st21" d="M746,246.3h283.2v250.1H746V246.3L746,246.3z"/>
						</g>
					</g>
				</g>
			</g>
		</g>
	</g>
	<path class="st2" d="M874.1,368.5c-1.2,0-2.4,0.2-3.4,0.8l-1,1.5l0.8-5.5h10v-3.9h-14.1l-1.6,13.1h4.6c0.6-1.6,1.6-2.3,3.2-2.3
		c2.2,0,3.5,1.6,3.5,3.9s-1.2,3.9-3.6,3.9c-1.9,0-2.9-1.1-3.1-2.8v-0.3h-5v0.3c0.5,4.5,3.3,6.5,8.4,6.5c4.4,0,8.5-2.7,8.5-7.8
		C881.3,371.3,878.6,368.5,874.1,368.5L874.1,368.5z"/>
	<g class="st3">
		<g>
			<g>
				<defs>
					<rect id="SVGID_00000091002953238591149930000008737834270471577513_" x="745.1" y="438.1" width="39.7" height="39.7"/>
				</defs>
				<clipPath id="SVGID_00000064350461252760962270000006247089598356357524_">
					<use xlink:href="#SVGID_00000091002953238591149930000008737834270471577513_"  style="overflow:visible;"/>
				</clipPath>
				<g style="clip-path:url(#SVGID_00000064350461252760962270000006247089598356357524_);">
					<g>
						<g>
							<defs>
								<rect id="SVGID_00000007402385059127043360000001792930651962003349_" x="745.4" y="438.4" width="38.7" height="38.7"/>
							</defs>
							<clipPath id="SVGID_00000136382875991167620010000010092839836977541536_">
								<use xlink:href="#SVGID_00000007402385059127043360000001792930651962003349_"  style="overflow:visible;"/>
							</clipPath>
							<g style="clip-path:url(#SVGID_00000136382875991167620010000010092839836977541536_);">
								<g>
									<g>
										<defs>
											<polyline id="SVGID_00000180335934286376842520000013394421350065494955_" points="745.4,438.5 784.1,438.5 784.1,477.1 
												745.4,438.5 											"/>
										</defs>
										<clipPath id="SVGID_00000150802629561387653900000001378575607874191778_">
											<use xlink:href="#SVGID_00000180335934286376842520000013394421350065494955_"  style="overflow:visible;"/>
										</clipPath>
										<g style="clip-path:url(#SVGID_00000150802629561387653900000001378575607874191778_);">
											<path class="st21" d="M784.1,477.1h-38.7v-38.6h38.7V477.1L784.1,477.1z"/>
										</g>
									</g>
								</g>
							</g>
						</g>
					</g>
				</g>
			</g>
		</g>
	</g>
	<path class="st25" d="M67.3,355.2c0,1-0.2,1.9-0.7,2.8s-1.2,1.5-2.2,2.1c-1,0.5-2.2,0.8-3.7,0.8h-3.1v7H54v-18.3h6.7
		c1.4,0,2.6,0.2,3.6,0.7c1,0.5,1.7,1.2,2.2,2C67.1,353.1,67.3,354.1,67.3,355.2L67.3,355.2z M60.5,357.8c1,0,1.8-0.2,2.2-0.7
		c0.5-0.5,0.7-1.1,0.7-2c0-1.8-1-2.7-3-2.7h-2.9v5.3L60.5,357.8L60.5,357.8z"/>
	<path class="st25" d="M74.3,355.5c0.5-0.8,1.1-1.4,1.8-1.8s1.6-0.7,2.6-0.7v3.9h-1c-1.2,0-2,0.3-2.6,0.8s-0.9,1.5-0.9,2.8v7.2h-3.7
		v-14.5h3.7L74.3,355.5L74.3,355.5z"/>
	<path class="st25" d="M88.5,368c-1.4,0-2.7-0.3-3.8-0.9s-2-1.5-2.6-2.6s-1-2.5-1-3.9s0.3-2.8,1-3.9s1.6-2,2.7-2.6s2.4-0.9,3.8-0.9
		s2.7,0.3,3.8,0.9c1.1,0.6,2,1.5,2.7,2.6s1,2.4,1,3.9s-0.3,2.8-1,3.9s-1.6,2-2.7,2.6C91.2,367.7,89.9,368,88.5,368z M88.5,364.8
		c0.7,0,1.3-0.2,1.9-0.5s1.1-0.8,1.4-1.5c0.3-0.6,0.5-1.4,0.5-2.4c0-1.4-0.4-2.4-1.1-3.2c-0.7-0.7-1.6-1.1-2.7-1.1s-1.9,0.4-2.6,1.1
		s-1.1,1.8-1.1,3.2s0.3,2.4,1,3.2C86.6,364.5,87.4,364.8,88.5,364.8z"/>
	<path class="st25" d="M105.1,368c-1.2,0-2.2-0.2-3.2-0.6c-0.9-0.4-1.7-1-2.2-1.8c-0.6-0.7-0.8-1.5-0.9-2.4h3.7
		c0.1,0.6,0.3,1,0.8,1.4s1.1,0.5,1.8,0.5s1.2-0.1,1.6-0.4s0.6-0.6,0.6-1.1s-0.2-0.8-0.7-1s-1.2-0.5-2.3-0.8c-1.1-0.2-2-0.5-2.7-0.8
		s-1.3-0.7-1.8-1.3c-0.5-0.6-0.7-1.4-0.7-2.3c0-0.8,0.2-1.5,0.7-2.2s1.1-1.2,2-1.6s1.9-0.6,3.1-0.6c1.7,0,3.1,0.4,4.2,1.3
		c1,0.9,1.6,2,1.7,3.5h-3.5c-0.1-0.6-0.3-1-0.7-1.4s-1-0.5-1.7-0.5s-1.2,0.1-1.5,0.4s-0.5,0.6-0.5,1c0,0.5,0.2,0.9,0.7,1.1
		c0.5,0.3,1.2,0.5,2.3,0.8c1.1,0.3,1.9,0.5,2.6,0.8s1.3,0.7,1.8,1.3c0.5,0.6,0.8,1.4,0.8,2.3c0,0.8-0.2,1.6-0.7,2.3
		c-0.5,0.7-1.1,1.2-2,1.6C107.3,367.9,106.2,368.1,105.1,368L105.1,368z"/>
	<path class="st25" d="M118.3,355.4c0.5-0.7,1.1-1.2,1.9-1.7s1.8-0.7,2.8-0.7c1.2,0,2.4,0.3,3.4,0.9s1.8,1.5,2.4,2.6
		c0.6,1.1,0.9,2.4,0.9,3.9s-0.3,2.8-0.9,4c-0.6,1.1-1.4,2-2.4,2.7c-1,0.6-2.1,0.9-3.4,0.9c-1.1,0-2-0.2-2.8-0.7s-1.5-1-2-1.6v9h-3.7
		v-21.5h3.7L118.3,355.4L118.3,355.4z M125.9,360.5c0-0.9-0.2-1.6-0.5-2.3c-0.4-0.6-0.8-1.1-1.4-1.5c-0.6-0.3-1.2-0.5-1.9-0.5
		s-1.3,0.2-1.9,0.5s-1.1,0.8-1.4,1.5c-0.4,0.6-0.5,1.4-0.5,2.3s0.2,1.6,0.5,2.3c0.4,0.6,0.8,1.1,1.4,1.5c0.6,0.3,1.2,0.5,1.9,0.5
		s1.3-0.2,1.9-0.5c0.6-0.4,1.1-0.8,1.4-1.5C125.8,362.2,125.9,361.4,125.9,360.5L125.9,360.5z"/>
	<path class="st25" d="M146.6,360.2c0,0.5,0,1-0.1,1.4h-10.6c0.1,1,0.4,1.9,1.1,2.5s1.4,0.9,2.4,0.9c1.4,0,2.3-0.6,2.9-1.8h4
		c-0.4,1.4-1.2,2.5-2.4,3.4s-2.6,1.4-4.4,1.4c-1.4,0-2.6-0.3-3.8-0.9s-2-1.5-2.6-2.6s-0.9-2.5-0.9-3.9s0.3-2.8,0.9-4
		c0.6-1.1,1.5-2,2.6-2.6s2.4-0.9,3.8-0.9s2.6,0.3,3.7,0.9s1.9,1.4,2.5,2.5C146.4,357.6,146.7,358.8,146.6,360.2L146.6,360.2z
		 M142.8,359.2c0-0.9-0.4-1.7-1-2.3s-1.5-0.9-2.4-0.9s-1.7,0.3-2.3,0.8s-1,1.3-1.1,2.3L142.8,359.2L142.8,359.2z"/>
	<path class="st25" d="M149.2,360.6c0-1.5,0.3-2.8,0.9-4c0.6-1.1,1.5-2,2.5-2.6c1.1-0.6,2.3-0.9,3.7-0.9c1.8,0,3.3,0.5,4.5,1.4
		s2,2.2,2.4,3.8h-4c-0.2-0.6-0.6-1.1-1.1-1.5s-1.1-0.5-1.9-0.5c-1,0-1.9,0.4-2.5,1.1s-0.9,1.8-0.9,3.2s0.3,2.5,0.9,3.2
		c0.6,0.8,1.4,1.1,2.5,1.1c1.5,0,2.5-0.7,2.9-2h4c-0.4,1.6-1.2,2.8-2.4,3.8c-1.2,0.9-2.7,1.4-4.5,1.4c-1.4,0-2.6-0.3-3.7-0.9
		s-1.9-1.5-2.5-2.6C149.5,363.4,149.2,362.1,149.2,360.6L149.2,360.6z"/>
	<path class="st25" d="M170.9,356.3v7c0,0.5,0.1,0.8,0.4,1.1c0.2,0.2,0.6,0.3,1.2,0.3h1.7v3.1h-2.3c-3.1,0-4.6-1.5-4.6-4.5v-7h-1.7
		v-3h1.7v-3.6h3.7v3.6h3.2v3H170.9L170.9,356.3z"/>
	<path class="st25" d="M37.3,384.5v19.3h-3.9v-19.3H37.3z"/>
	<path class="st25" d="M50.4,388.2c1.8,0,3.3,0.6,4.4,1.7s1.7,2.8,1.7,4.8v9h-3.9v-8.5c0-1.2-0.3-2.2-0.9-2.8c-0.6-0.7-1.4-1-2.5-1
		s-1.9,0.3-2.5,1s-0.9,1.6-0.9,2.8v8.5h-3.9v-15.3h3.9v1.9c0.5-0.7,1.2-1.2,2-1.6S49.4,388.2,50.4,388.2L50.4,388.2z"/>
	<path class="st25" d="M65.5,392.6H63v11.5h-3.7v-11.5h-1.7v-3h1.7v-0.7c0-1.8,0.5-3.1,1.5-3.9s2.5-1.2,4.6-1.2v3.1
		c-0.9,0-1.5,0.1-1.9,0.5s-0.5,0.9-0.5,1.7v0.6h2.5V392.6L65.5,392.6z"/>
	<path class="st25" d="M75.1,404.4c-1.4,0-2.7-0.3-3.8-0.9s-2-1.5-2.6-2.6s-1-2.5-1-3.9s0.3-2.8,1-3.9s1.6-2,2.7-2.6
		s2.4-0.9,3.8-0.9s2.7,0.3,3.8,0.9c1.1,0.6,2,1.5,2.7,2.6s1,2.4,1,3.9s-0.3,2.8-1,3.9s-1.6,2-2.7,2.6
		C77.8,404.1,76.5,404.4,75.1,404.4z M75.1,401.2c0.7,0,1.3-0.2,1.9-0.5s1.1-0.8,1.4-1.5c0.3-0.6,0.5-1.4,0.5-2.4
		c0-1.4-0.4-2.4-1.1-3.2c-0.7-0.7-1.6-1.1-2.7-1.1s-1.9,0.4-2.6,1.1s-1.1,1.8-1.1,3.2s0.3,2.4,1,3.2C73.2,400.8,74,401.2,75.1,401.2
		z"/>
	<path class="st25" d="M89.8,391.9c0.5-0.8,1.1-1.4,1.8-1.8s1.6-0.7,2.6-0.7v3.9h-1c-1.2,0-2,0.3-2.6,0.8s-0.9,1.5-0.9,2.8v7.2H86
		v-14.5h3.7L89.8,391.9L89.8,391.9z"/>
	<path class="st25" d="M115.6,389.4c1.8,0,3.2,0.5,4.3,1.6s1.6,2.6,1.6,4.6v8.5h-3.7v-8c0-1.1-0.3-2-0.9-2.6s-1.4-0.9-2.4-0.9
		s-1.8,0.3-2.4,0.9s-0.9,1.5-0.9,2.6v8h-3.7v-8c0-1.1-0.3-2-0.9-2.6s-1.4-0.9-2.4-0.9s-1.8,0.3-2.4,0.9s-0.9,1.5-0.9,2.6v8h-3.7
		v-14.5h3.7v1.8c0.5-0.6,1.1-1.1,1.8-1.4s1.6-0.5,2.5-0.5c1.1,0,2.1,0.2,3,0.7s1.6,1.2,2.1,2.1c0.5-0.8,1.2-1.5,2.1-2
		S114.5,389.4,115.6,389.4L115.6,389.4z"/>
	<path class="st25" d="M124.8,396.8c0-1.5,0.3-2.8,0.9-3.9s1.4-2,2.4-2.6s2.1-0.9,3.4-0.9c1.1,0,2,0.2,2.8,0.7s1.5,1,2,1.6v-2.1h3.7
		v14.5h-3.7V402c-0.5,0.7-1.1,1.2-2,1.7s-1.8,0.7-2.9,0.7c-1.2,0-2.3-0.3-3.4-0.9c-1-0.6-1.8-1.5-2.4-2.7
		C125.1,399.6,124.8,398.3,124.8,396.8L124.8,396.8z M136.2,396.9c0-0.9-0.2-1.7-0.5-2.3c-0.4-0.6-0.8-1.1-1.4-1.5
		c-0.6-0.3-1.2-0.5-1.9-0.5s-1.3,0.2-1.9,0.5s-1.1,0.8-1.4,1.5c-0.4,0.6-0.5,1.4-0.5,2.3s0.2,1.6,0.5,2.3c0.4,0.6,0.8,1.1,1.4,1.5
		c0.6,0.4,1.2,0.5,1.9,0.5s1.3-0.2,1.9-0.5c0.6-0.3,1.1-0.8,1.4-1.5C136.1,398.5,136.2,397.8,136.2,396.9L136.2,396.9z"/>
	<path class="st25" d="M148.6,392.6v7c0,0.5,0.1,0.8,0.4,1.1c0.2,0.2,0.6,0.3,1.2,0.3h1.7v3.1h-2.3c-3.1,0-4.6-1.5-4.6-4.5v-7h-1.7
		v-3h1.7V386h3.7v3.6h3.2v3H148.6L148.6,392.6z"/>
	<path class="st25" d="M157.1,387.9c-0.6,0-1.2-0.2-1.6-0.6c-0.4-0.4-0.6-0.9-0.6-1.5s0.2-1.1,0.6-1.5c0.4-0.4,1-0.6,1.6-0.6
		s1.2,0.2,1.6,0.6c0.4,0.4,0.6,0.9,0.6,1.5s-0.2,1.1-0.6,1.5C158.3,387.7,157.8,387.9,157.1,387.9z M158.9,389.6v14.5h-3.7v-14.5
		H158.9z"/>
	<path class="st25" d="M169.8,404.4c-1.4,0-2.7-0.3-3.8-0.9s-2-1.5-2.6-2.6s-1-2.5-1-3.9s0.3-2.8,1-3.9s1.6-2,2.7-2.6
		c1.1-0.6,2.4-0.9,3.8-0.9s2.7,0.3,3.8,0.9s2,1.5,2.7,2.6s1,2.4,1,3.9s-0.3,2.8-1,3.9s-1.6,2-2.7,2.6
		C172.5,404.1,171.2,404.4,169.8,404.4L169.8,404.4z M169.8,401.2c0.7,0,1.3-0.2,1.9-0.5c0.6-0.3,1.1-0.8,1.4-1.5
		c0.4-0.6,0.5-1.4,0.5-2.4c0-1.4-0.4-2.4-1.1-3.2c-0.7-0.7-1.6-1.1-2.7-1.1s-1.9,0.4-2.6,1.1c-0.7,0.7-1.1,1.8-1.1,3.2
		s0.3,2.4,1,3.2C167.9,400.8,168.7,401.2,169.8,401.2L169.8,401.2z"/>
	<path class="st25" d="M188.9,389.4c1.7,0,3.1,0.5,4.2,1.6s1.6,2.6,1.6,4.6v8.5H191v-8c0-1.2-0.3-2-0.9-2.7
		c-0.6-0.6-1.4-0.9-2.4-0.9s-1.8,0.3-2.4,0.9s-0.9,1.5-0.9,2.7v8h-3.7v-14.5h3.7v1.8c0.5-0.6,1.1-1.1,1.9-1.5
		C187.1,389.6,188,389.4,188.9,389.4L188.9,389.4z"/>
	<path class="st25" d="M54.2,427.7c-0.4-0.8-1-1.4-1.7-1.8s-1.6-0.6-2.6-0.6c-1.1,0-2,0.2-2.9,0.7s-1.5,1.2-2,2.1s-0.7,2-0.7,3.1
		s0.2,2.3,0.7,3.2c0.5,0.9,1.1,1.6,2,2.1s1.9,0.7,3,0.7c1.4,0,2.5-0.4,3.4-1.1s1.5-1.8,1.8-3.1H49v-2.8h9.9v3.2
		c-0.2,1.3-0.8,2.5-1.6,3.5c-0.8,1.1-1.8,2-3.1,2.6s-2.7,1-4.3,1c-1.8,0-3.4-0.4-4.8-1.2c-1.4-0.8-2.5-1.9-3.3-3.3s-1.2-3-1.2-4.8
		s0.4-3.4,1.2-4.8s1.9-2.5,3.3-3.3c1.4-0.8,3-1.2,4.8-1.2c2.1,0,3.8,0.5,5.4,1.5c1.5,1,2.6,2.4,3.2,4.2L54.2,427.7L54.2,427.7z"/>
	<path class="st25" d="M61.5,433.2c0-1.5,0.3-2.8,0.9-3.9c0.6-1.1,1.4-2,2.4-2.6s2.1-0.9,3.4-0.9c1.1,0,2,0.2,2.8,0.7s1.5,1,2,1.6
		V426h3.7v14.5H73v-2.1c-0.5,0.7-1.1,1.2-2,1.7s-1.8,0.7-2.9,0.7c-1.2,0-2.3-0.3-3.3-0.9s-1.8-1.5-2.4-2.7S61.5,434.7,61.5,433.2
		L61.5,433.2z M72.9,433.2c0-0.9-0.2-1.7-0.5-2.3c-0.3-0.6-0.8-1.1-1.4-1.5c-0.6-0.3-1.2-0.5-1.9-0.5s-1.3,0.2-1.9,0.5
		s-1.1,0.8-1.4,1.5c-0.4,0.6-0.5,1.4-0.5,2.3s0.2,1.6,0.5,2.3c0.3,0.6,0.8,1.1,1.4,1.5s1.2,0.5,1.9,0.5s1.3-0.2,1.9-0.5
		s1.1-0.8,1.4-1.5C72.7,434.9,72.9,434.1,72.9,433.2L72.9,433.2z"/>
	<path class="st25" d="M85.2,429v7c0,0.5,0.1,0.8,0.3,1.1c0.2,0.2,0.6,0.3,1.2,0.3h1.7v3.1h-2.3c-3.1,0-4.6-1.5-4.6-4.5v-7h-1.7v-3
		h1.7v-3.6h3.7v3.6h3.2v3H85.2L85.2,429z"/>
	<path class="st25" d="M100.1,425.8c1.1,0,2.1,0.2,2.9,0.7c0.9,0.5,1.5,1.2,2,2.1s0.7,2.1,0.7,3.4v8.5H102v-8c0-1.2-0.3-2-0.9-2.7
		c-0.6-0.6-1.4-0.9-2.4-0.9s-1.8,0.3-2.4,0.9s-0.9,1.5-0.9,2.7v8h-3.7v-19.4h3.7v6.7c0.5-0.6,1.1-1.1,1.9-1.5
		C98.2,425.9,99.1,425.8,100.1,425.8L100.1,425.8z"/>
	<path class="st25" d="M123.5,432.9c0,0.5,0,1-0.1,1.4h-10.6c0.1,1,0.4,1.9,1.1,2.5s1.4,0.9,2.4,0.9c1.4,0,2.3-0.6,2.9-1.8h4
		c-0.4,1.4-1.2,2.5-2.4,3.4c-1.2,0.9-2.6,1.4-4.4,1.4c-1.4,0-2.7-0.3-3.8-0.9s-2-1.5-2.6-2.6s-0.9-2.5-0.9-3.9s0.3-2.8,0.9-4
		c0.6-1.1,1.5-2,2.6-2.6s2.4-0.9,3.8-0.9s2.6,0.3,3.7,0.9s1.9,1.4,2.5,2.5C123.2,430.2,123.5,431.5,123.5,432.9L123.5,432.9z
		 M119.7,431.9c0-0.9-0.4-1.7-1-2.3c-0.7-0.6-1.5-0.9-2.4-0.9s-1.7,0.3-2.3,0.8c-0.6,0.5-1,1.3-1.1,2.3L119.7,431.9L119.7,431.9z"/>
	<path class="st25" d="M130.6,428.2c0.5-0.8,1.1-1.4,1.9-1.8c0.8-0.4,1.6-0.7,2.6-0.7v3.9h-1c-1.1,0-2,0.3-2.6,0.8s-0.9,1.5-0.9,2.8
		v7.2H127V426h3.7L130.6,428.2L130.6,428.2z"/>
	<path class="st25" d="M140.2,424.2c-0.6,0-1.2-0.2-1.6-0.6c-0.4-0.4-0.6-0.9-0.6-1.5s0.2-1.1,0.6-1.5c0.4-0.4,1-0.6,1.6-0.6
		s1.2,0.2,1.6,0.6c0.4,0.4,0.6,0.9,0.6,1.5s-0.2,1.1-0.6,1.5C141.4,424.1,140.9,424.2,140.2,424.2z M142,426v14.5h-3.7V426H142z"/>
	<path class="st25" d="M154.5,425.8c1.7,0,3.1,0.5,4.2,1.6s1.6,2.6,1.6,4.6v8.5h-3.7v-8c0-1.2-0.3-2-0.9-2.7
		c-0.6-0.6-1.4-0.9-2.4-0.9s-1.8,0.3-2.4,0.9s-0.9,1.5-0.9,2.7v8h-3.7V426h3.7v1.8c0.5-0.6,1.1-1.1,1.9-1.5
		C152.7,425.9,153.5,425.8,154.5,425.8L154.5,425.8z"/>
	<path class="st25" d="M170.2,425.7c1.1,0,2,0.2,2.9,0.6c0.8,0.4,1.5,1,1.9,1.7v-2h3.7v14.6c0,1.4-0.3,2.5-0.8,3.6s-1.4,1.9-2.4,2.5
		c-1.1,0.6-2.4,0.9-3.9,0.9c-2.1,0-3.8-0.5-5.1-1.5s-2.1-2.3-2.2-3.9h3.6c0.2,0.7,0.6,1.2,1.2,1.6c0.6,0.4,1.4,0.6,2.3,0.6
		c1.1,0,1.9-0.3,2.6-1c0.7-0.6,1-1.6,1-2.9v-2.2c-0.5,0.7-1.1,1.2-2,1.7s-1.8,0.7-2.8,0.7c-1.2,0-2.4-0.3-3.4-0.9s-1.8-1.5-2.4-2.7
		c-0.6-1.1-0.9-2.5-0.9-4s0.3-2.8,0.9-3.9c0.6-1.1,1.4-2,2.4-2.6C167.8,426,169,425.7,170.2,425.7L170.2,425.7z M175,433.2
		c0-0.9-0.2-1.7-0.5-2.3c-0.4-0.6-0.8-1.1-1.4-1.5c-0.6-0.3-1.2-0.5-1.9-0.5s-1.3,0.2-1.9,0.5s-1.1,0.8-1.4,1.5
		c-0.4,0.6-0.5,1.4-0.5,2.3s0.2,1.6,0.5,2.3c0.4,0.6,0.8,1.1,1.4,1.5c0.6,0.4,1.2,0.5,1.9,0.5s1.3-0.2,1.9-0.5
		c0.6-0.3,1.1-0.8,1.4-1.5C174.8,434.9,175,434.1,175,433.2L175,433.2z"/>
	<path class="st25" d="M246.2,395.2l-2.8-3.3c-0.8,0.2-1.6,0.3-2.4,0.3c-1.7,0-3.3-0.4-4.7-1.2c-1.4-0.8-2.6-1.9-3.4-3.4
		s-1.2-3-1.2-4.8s0.4-3.4,1.2-4.8s2-2.5,3.4-3.3s3-1.2,4.7-1.2s3.3,0.4,4.7,1.2c1.4,0.8,2.6,1.9,3.4,3.3c0.8,1.4,1.2,3,1.2,4.8
		c0,1.6-0.4,3.1-1,4.4c-0.7,1.3-1.6,2.4-2.8,3.3l4.2,4.7H246.2L246.2,395.2z M235.5,382.8c0,1.2,0.2,2.3,0.7,3.2
		c0.5,0.9,1.1,1.6,2,2.1s1.8,0.7,2.9,0.7s2.1-0.2,2.9-0.7c0.8-0.5,1.5-1.2,2-2.1s0.7-2,0.7-3.2s-0.2-2.3-0.7-3.2s-1.1-1.6-2-2.1
		s-1.8-0.7-2.9-0.7s-2.1,0.2-2.9,0.7c-0.8,0.5-1.5,1.2-2,2.1S235.5,381.6,235.5,382.8z"/>
	<path class="st25" d="M267.7,377.5V392H264v-1.8c-0.5,0.6-1.1,1.1-1.9,1.5s-1.6,0.5-2.5,0.5c-1.1,0-2.1-0.2-3-0.7s-1.6-1.2-2.1-2.1
		s-0.7-2-0.7-3.4v-8.5h3.7v8c0,1.2,0.3,2,0.9,2.7c0.6,0.6,1.4,0.9,2.4,0.9s1.8-0.3,2.4-0.9s0.9-1.5,0.9-2.7v-8H267.7L267.7,377.5z"
		/>
	<path class="st25" d="M278.6,392.3c-1.4,0-2.7-0.3-3.8-0.9s-2-1.5-2.6-2.6s-1-2.5-1-3.9s0.3-2.8,1-3.9c0.6-1.1,1.5-2,2.7-2.6
		c1.1-0.6,2.4-0.9,3.8-0.9s2.7,0.3,3.8,0.9c1.1,0.6,2,1.5,2.7,2.6s1,2.4,1,3.9s-0.3,2.8-1,3.9s-1.6,2-2.7,2.6
		C281.3,392,280,392.3,278.6,392.3z M278.6,389.1c0.7,0,1.3-0.2,1.9-0.5s1-0.8,1.4-1.5c0.4-0.6,0.5-1.4,0.5-2.4
		c0-1.4-0.4-2.4-1.1-3.2c-0.7-0.7-1.6-1.1-2.7-1.1s-1.9,0.4-2.6,1.1s-1,1.8-1,3.2s0.3,2.4,1,3.2
		C276.6,388.7,277.5,389.1,278.6,389.1L278.6,389.1z"/>
	<path class="st25" d="M293.9,380.5v7c0,0.5,0.1,0.8,0.4,1.1c0.2,0.2,0.6,0.3,1.2,0.3h1.7v3.1h-2.3c-3.1,0-4.6-1.5-4.6-4.5v-7h-1.7
		v-3h1.7v-3.6h3.7v3.6h3.2v3H293.9L293.9,380.5z"/>
	<path class="st25" d="M302.4,375.8c-0.6,0-1.2-0.2-1.6-0.6s-0.6-0.9-0.6-1.5s0.2-1.1,0.6-1.5s1-0.6,1.6-0.6s1.2,0.2,1.6,0.6
		s0.6,0.9,0.6,1.5s-0.2,1.1-0.6,1.5C303.6,375.6,303.1,375.8,302.4,375.8z M304.2,377.5V392h-3.7v-14.5H304.2z"/>
	<path class="st25" d="M316.7,377.3c1.7,0,3.1,0.5,4.2,1.6s1.6,2.6,1.6,4.6v8.5h-3.7v-8c0-1.2-0.3-2-0.9-2.7
		c-0.6-0.6-1.4-0.9-2.4-0.9s-1.8,0.3-2.4,0.9s-0.9,1.5-0.9,2.7v8h-3.7v-14.5h3.7v1.8c0.5-0.6,1.1-1.1,1.9-1.5
		C314.9,377.5,315.8,377.3,316.7,377.3L316.7,377.3z"/>
	<path class="st25" d="M332.4,377.3c1.1,0,2,0.2,2.9,0.6c0.8,0.4,1.5,1,2,1.7v-2.1h3.7v14.6c0,1.4-0.3,2.5-0.8,3.6s-1.4,1.9-2.4,2.5
		c-1.1,0.6-2.4,0.9-3.9,0.9c-2.1,0-3.8-0.5-5.1-1.5c-1.3-1-2.1-2.3-2.2-3.9h3.6c0.2,0.7,0.6,1.2,1.2,1.6s1.4,0.6,2.3,0.6
		c1.1,0,1.9-0.3,2.6-1c0.7-0.6,1-1.6,1-2.9v-2.2c-0.5,0.7-1.1,1.2-2,1.7s-1.8,0.7-2.8,0.7c-1.2,0-2.4-0.3-3.4-0.9s-1.8-1.5-2.4-2.7
		c-0.6-1.1-0.9-2.5-0.9-4s0.3-2.8,0.9-3.9s1.4-2,2.4-2.6C330.1,377.6,331.2,377.3,332.4,377.3L332.4,377.3z M337.2,384.8
		c0-0.9-0.2-1.7-0.5-2.3c-0.4-0.6-0.8-1.1-1.4-1.5c-0.6-0.3-1.2-0.5-1.9-0.5s-1.3,0.2-1.9,0.5s-1,0.8-1.4,1.5
		c-0.4,0.6-0.5,1.4-0.5,2.3s0.2,1.6,0.5,2.3c0.4,0.6,0.8,1.1,1.4,1.5s1.2,0.5,1.9,0.5s1.3-0.2,1.9-0.5s1.1-0.8,1.4-1.5
		C337,386.4,337.2,385.7,337.2,384.8L337.2,384.8z"/>
	<path class="st25" d="M423.9,345.4c0,1-0.2,1.9-0.7,2.8s-1.2,1.5-2.2,2.1c-1,0.5-2.2,0.8-3.7,0.8h-3.1v7h-3.7v-18.3h6.7
		c1.4,0,2.6,0.2,3.6,0.7s1.7,1.2,2.2,2C423.6,343.4,423.9,344.3,423.9,345.4L423.9,345.4z M417.1,348.1c1,0,1.8-0.2,2.2-0.7
		c0.5-0.5,0.7-1.1,0.7-2c0-1.8-1-2.7-3-2.7h-2.9v5.3L417.1,348.1L417.1,348.1z"/>
	<path class="st25" d="M430.9,345.8c0.5-0.8,1.1-1.4,1.9-1.8s1.6-0.7,2.6-0.7v3.9h-1c-1.1,0-2,0.3-2.6,0.8s-0.9,1.5-0.9,2.8v7.2
		h-3.7v-14.5h3.7V345.8L430.9,345.8z"/>
	<path class="st25" d="M445.1,358.3c-1.4,0-2.7-0.3-3.8-0.9s-2-1.5-2.6-2.6s-1-2.5-1-3.9s0.3-2.8,1-3.9c0.6-1.1,1.5-2,2.7-2.6
		c1.1-0.6,2.4-0.9,3.8-0.9s2.7,0.3,3.8,0.9c1.1,0.6,2,1.5,2.7,2.6s1,2.4,1,3.9s-0.3,2.8-1,3.9s-1.6,2-2.7,2.6
		C447.8,358,446.5,358.3,445.1,358.3z M445.1,355.1c0.7,0,1.3-0.2,1.9-0.5s1-0.8,1.4-1.5c0.4-0.6,0.5-1.4,0.5-2.4
		c0-1.4-0.4-2.4-1.1-3.2c-0.7-0.7-1.6-1.1-2.7-1.1s-1.9,0.4-2.6,1.1s-1,1.8-1,3.2s0.3,2.4,1,3.2C443.1,354.7,444,355.1,445.1,355.1
		L445.1,355.1z"/>
	<path class="st25" d="M459.8,345.6c0.5-0.7,1.1-1.2,2-1.7c0.8-0.5,1.8-0.7,2.9-0.7c1.2,0,2.4,0.3,3.4,0.9s1.8,1.5,2.4,2.6
		s0.9,2.4,0.9,3.9s-0.3,2.8-0.9,4c-0.6,1.1-1.4,2-2.4,2.7c-1,0.6-2.1,0.9-3.4,0.9c-1.1,0-2-0.2-2.8-0.7s-1.5-1-2-1.6v9h-3.7v-21.5
		h3.7L459.8,345.6L459.8,345.6z M467.5,350.8c0-0.9-0.2-1.6-0.5-2.3c-0.4-0.6-0.8-1.1-1.4-1.5c-0.6-0.3-1.2-0.5-1.9-0.5
		s-1.3,0.2-1.9,0.5s-1.1,0.8-1.4,1.5c-0.4,0.6-0.5,1.4-0.5,2.3s0.2,1.6,0.5,2.3c0.4,0.6,0.8,1.1,1.4,1.5s1.2,0.5,1.9,0.5
		s1.3-0.2,1.9-0.5c0.6-0.4,1.1-0.8,1.4-1.5S467.5,351.6,467.5,350.8L467.5,350.8z"/>
	<path class="st25" d="M481.1,358.3c-1.4,0-2.7-0.3-3.8-0.9s-2-1.5-2.6-2.6s-1-2.5-1-3.9s0.3-2.8,1-3.9c0.6-1.1,1.5-2,2.7-2.6
		c1.1-0.6,2.4-0.9,3.8-0.9s2.7,0.3,3.8,0.9c1.1,0.6,2,1.5,2.7,2.6s1,2.4,1,3.9s-0.3,2.8-1,3.9s-1.6,2-2.7,2.6
		C483.8,358,482.5,358.3,481.1,358.3z M481.1,355.1c0.7,0,1.3-0.2,1.9-0.5s1-0.8,1.4-1.5c0.4-0.6,0.5-1.4,0.5-2.4
		c0-1.4-0.4-2.4-1.1-3.2c-0.7-0.7-1.6-1.1-2.7-1.1s-1.9,0.4-2.6,1.1s-1,1.8-1,3.2s0.3,2.4,1,3.2
		C479.2,354.7,480.1,355.1,481.1,355.1L481.1,355.1z"/>
	<path class="st25" d="M497.7,358.3c-1.2,0-2.2-0.2-3.2-0.6c-0.9-0.4-1.7-1-2.2-1.8c-0.5-0.7-0.9-1.5-0.9-2.4h3.7
		c0.1,0.6,0.4,1,0.8,1.4c0.5,0.4,1.1,0.5,1.8,0.5s1.2-0.1,1.6-0.4s0.6-0.6,0.6-1.1s-0.2-0.8-0.7-1s-1.2-0.5-2.3-0.8
		c-1.1-0.2-2-0.5-2.7-0.8s-1.3-0.7-1.8-1.3c-0.5-0.6-0.7-1.4-0.7-2.3c0-0.8,0.2-1.5,0.7-2.2s1.1-1.2,2-1.6s1.9-0.6,3-0.6
		c1.7,0,3.1,0.4,4.1,1.3s1.6,2,1.7,3.5h-3.5c0-0.6-0.3-1-0.7-1.4s-1-0.5-1.7-0.5s-1.2,0.1-1.5,0.4c-0.4,0.2-0.5,0.6-0.5,1
		c0,0.5,0.2,0.9,0.7,1.1c0.5,0.3,1.2,0.5,2.3,0.8c1,0.3,1.9,0.5,2.6,0.8s1.3,0.7,1.8,1.3c0.5,0.6,0.8,1.4,0.8,2.3
		c0,0.8-0.2,1.6-0.7,2.3c-0.5,0.7-1.1,1.2-2,1.6C499.9,358.1,498.9,358.3,497.7,358.3L497.7,358.3z"/>
	<path class="st25" d="M506.3,350.8c0-1.5,0.3-2.8,0.9-3.9s1.4-2,2.4-2.6s2.1-0.9,3.4-0.9c1.1,0,2,0.2,2.8,0.7s1.5,1,2,1.6v-2.1h3.7
		v14.5h-3.7V356c-0.5,0.7-1.1,1.2-2,1.7s-1.8,0.7-2.9,0.7c-1.2,0-2.3-0.3-3.4-0.9c-1-0.6-1.8-1.5-2.4-2.7
		C506.6,353.6,506.3,352.2,506.3,350.8L506.3,350.8z M517.7,350.8c0-0.9-0.2-1.7-0.5-2.3c-0.3-0.6-0.8-1.1-1.4-1.5
		c-0.6-0.3-1.2-0.5-1.9-0.5s-1.3,0.2-1.9,0.5s-1,0.8-1.4,1.5c-0.4,0.6-0.5,1.4-0.5,2.3s0.2,1.6,0.5,2.3c0.4,0.6,0.8,1.1,1.4,1.5
		s1.2,0.5,1.9,0.5s1.3-0.2,1.9-0.5c0.6-0.3,1.1-0.8,1.4-1.5C517.5,352.5,517.7,351.7,517.7,350.8L517.7,350.8z"/>
	<path class="st25" d="M529.5,338.7v19.4h-3.7v-19.4H529.5z"/>
	<path class="st25" d="M632.8,280.1c0,1-0.2,1.9-0.7,2.8s-1.2,1.5-2.2,2.1c-1,0.5-2.2,0.8-3.7,0.8h-3.1v7h-3.7v-18.3h6.7
		c1.4,0,2.6,0.2,3.6,0.7s1.7,1.2,2.2,2C632.5,278,632.8,279,632.8,280.1L632.8,280.1z M626,282.7c1,0,1.8-0.2,2.2-0.7
		c0.5-0.5,0.7-1.1,0.7-2c0-1.8-1-2.7-3-2.7H623v5.3L626,282.7L626,282.7z"/>
	<path class="st25" d="M642.6,292.9c-1.4,0-2.7-0.3-3.8-0.9s-2-1.5-2.6-2.6s-1-2.5-1-3.9s0.3-2.8,1-3.9s1.5-2,2.7-2.6
		c1.1-0.6,2.4-0.9,3.8-0.9s2.7,0.3,3.8,0.9s2,1.5,2.7,2.6s1,2.4,1,3.9s-0.3,2.8-1,3.9s-1.6,2-2.7,2.6
		C645.3,292.6,644,292.9,642.6,292.9L642.6,292.9z M642.6,289.7c0.7,0,1.3-0.2,1.9-0.5c0.6-0.3,1-0.8,1.4-1.5
		c0.3-0.6,0.5-1.4,0.5-2.4c0-1.4-0.4-2.4-1.1-3.2c-0.7-0.7-1.6-1.1-2.7-1.1s-1.9,0.4-2.6,1.1c-0.7,0.7-1,1.8-1,3.2s0.3,2.4,1,3.2
		C640.7,289.4,641.5,289.7,642.6,289.7L642.6,289.7z"/>
	<path class="st25" d="M657.3,273.3v19.4h-3.7v-19.4H657.3z"/>
	<path class="st25" d="M663.6,276.5c-0.7,0-1.2-0.2-1.6-0.6c-0.4-0.4-0.7-0.9-0.7-1.5s0.2-1.1,0.7-1.5c0.4-0.4,1-0.6,1.6-0.6
		s1.2,0.2,1.6,0.6c0.4,0.4,0.7,0.9,0.7,1.5s-0.2,1.1-0.7,1.5C664.8,276.3,664.2,276.5,663.6,276.5z M665.4,278.2v14.5h-3.7v-14.5
		H665.4z"/>
	<path class="st25" d="M668.8,285.4c0-1.5,0.3-2.8,0.9-4c0.6-1.1,1.5-2,2.5-2.6c1.1-0.6,2.3-0.9,3.7-0.9c1.8,0,3.3,0.5,4.5,1.4
		s2,2.2,2.4,3.8h-4c-0.2-0.6-0.6-1.1-1.1-1.5s-1.1-0.5-1.8-0.5c-1,0-1.9,0.4-2.5,1.1s-0.9,1.8-0.9,3.2s0.3,2.5,0.9,3.2
		c0.6,0.8,1.4,1.1,2.5,1.1c1.5,0,2.5-0.7,2.9-2h4c-0.4,1.6-1.2,2.8-2.4,3.8c-1.2,0.9-2.7,1.4-4.5,1.4c-1.4,0-2.6-0.3-3.7-0.9
		c-1.1-0.6-1.9-1.5-2.5-2.6C669.1,288.3,668.8,286.9,668.8,285.4L668.8,285.4z"/>
	<path class="st25" d="M700.2,278.2l-9,21.4h-3.9l3.1-7.2l-5.8-14.1h4.1l3.8,10.1l3.8-10.1L700.2,278.2L700.2,278.2z"/>
	<path class="st25" d="M614.5,319.6c1,0.2,1.9,0.7,2.5,1.5s1,1.8,1,2.9c0,1-0.2,1.8-0.7,2.6s-1.2,1.3-2.1,1.8
		c-0.9,0.4-2,0.6-3.2,0.6h-7.9v-18.3h7.5c1.2,0,2.3,0.2,3.2,0.6s1.6,1,2,1.7c0.5,0.7,0.7,1.5,0.7,2.4c0,1.1-0.3,2-0.9,2.7
		C616.2,318.8,615.5,319.4,614.5,319.6L614.5,319.6z M607.8,318.3h3.4c0.9,0,1.5-0.2,2-0.6s0.7-1,0.7-1.7s-0.2-1.3-0.7-1.7
		c-0.5-0.4-1.1-0.6-2-0.6h-3.4V318.3z M611.5,326c0.9,0,1.6-0.2,2.1-0.6s0.7-1,0.7-1.8s-0.3-1.4-0.8-1.9s-1.2-0.7-2.1-0.7h-3.6v4.9
		L611.5,326L611.5,326z"/>
	<path class="st25" d="M623.6,312.8c-0.7,0-1.2-0.2-1.6-0.6c-0.4-0.4-0.7-0.9-0.7-1.5s0.2-1.1,0.7-1.5c0.4-0.4,1-0.6,1.6-0.6
		s1.2,0.2,1.6,0.6c0.4,0.4,0.7,0.9,0.7,1.5s-0.2,1.1-0.7,1.5C624.8,312.6,624.3,312.8,623.6,312.8z M625.4,314.5V329h-3.7v-14.5
		H625.4z"/>
	<path class="st25" d="M637.9,314.3c1.7,0,3.1,0.5,4.2,1.6s1.6,2.6,1.6,4.6v8.5H640v-8c0-1.2-0.3-2-0.9-2.7
		c-0.6-0.6-1.4-0.9-2.4-0.9s-1.8,0.3-2.4,0.9s-0.9,1.5-0.9,2.7v8h-3.7v-14.5h3.7v1.8c0.5-0.6,1.1-1.1,1.9-1.5
		C636.1,314.5,637,314.3,637.9,314.3L637.9,314.3z"/>
	<path class="st25" d="M647,321.7c0-1.5,0.3-2.8,0.9-3.9c0.6-1.1,1.4-2,2.4-2.6s2.2-0.9,3.4-0.9c0.9,0,1.8,0.2,2.7,0.6s1.5,1,2,1.6
		v-6.9h3.7V329h-3.7v-2.1c-0.5,0.7-1.1,1.3-1.9,1.7c-0.8,0.4-1.8,0.7-2.8,0.7c-1.2,0-2.3-0.3-3.4-0.9s-1.8-1.5-2.4-2.7
		S647,323.2,647,321.7L647,321.7z M658.4,321.8c0-0.9-0.2-1.7-0.5-2.3c-0.3-0.6-0.8-1.1-1.4-1.5c-0.6-0.3-1.2-0.5-1.9-0.5
		s-1.3,0.2-1.9,0.5s-1,0.8-1.4,1.5c-0.4,0.6-0.5,1.4-0.5,2.3s0.2,1.6,0.5,2.3c0.3,0.6,0.8,1.1,1.4,1.5c0.6,0.4,1.2,0.5,1.9,0.5
		s1.3-0.2,1.9-0.5c0.6-0.3,1.1-0.8,1.4-1.5C658.2,323.4,658.4,322.7,658.4,321.8L658.4,321.8z"/>
	<path class="st25" d="M668.4,312.8c-0.7,0-1.2-0.2-1.6-0.6c-0.4-0.4-0.7-0.9-0.7-1.5s0.2-1.1,0.7-1.5c0.4-0.4,1-0.6,1.6-0.6
		s1.2,0.2,1.6,0.6c0.4,0.4,0.7,0.9,0.7,1.5s-0.2,1.1-0.7,1.5C669.5,312.6,669,312.8,668.4,312.8z M670.2,314.5V329h-3.7v-14.5H670.2
		z"/>
	<path class="st25" d="M682.6,314.3c1.7,0,3.1,0.5,4.2,1.6s1.6,2.6,1.6,4.6v8.5h-3.7v-8c0-1.2-0.3-2-0.9-2.7
		c-0.6-0.6-1.4-0.9-2.4-0.9s-1.8,0.3-2.4,0.9s-0.9,1.5-0.9,2.7v8h-3.7v-14.5h3.7v1.8c0.5-0.6,1.1-1.1,1.9-1.5
		C680.9,314.5,681.7,314.3,682.6,314.3L682.6,314.3z"/>
	<path class="st25" d="M698.4,314.3c1.1,0,2,0.2,2.8,0.6s1.5,1,2,1.7v-2.1h3.7v14.6c0,1.4-0.3,2.5-0.8,3.6s-1.3,1.9-2.4,2.5
		c-1.1,0.6-2.4,0.9-3.9,0.9c-2.1,0-3.8-0.5-5.1-1.5s-2.1-2.3-2.2-3.9h3.7c0.2,0.7,0.6,1.2,1.2,1.6c0.6,0.4,1.4,0.6,2.3,0.6
		c1.1,0,1.9-0.3,2.6-1c0.7-0.6,1-1.6,1-2.9v-2.2c-0.5,0.7-1.1,1.2-2,1.7s-1.8,0.7-2.8,0.7c-1.2,0-2.3-0.3-3.4-0.9s-1.8-1.5-2.4-2.7
		c-0.6-1.1-0.9-2.5-0.9-4s0.3-2.8,0.9-3.9c0.6-1.1,1.4-2,2.4-2.6C696,314.6,697.1,314.3,698.4,314.3L698.4,314.3z M703.2,321.8
		c0-0.9-0.2-1.7-0.5-2.3c-0.3-0.6-0.8-1.1-1.4-1.5c-0.6-0.3-1.2-0.5-1.9-0.5s-1.3,0.2-1.9,0.5s-1,0.8-1.4,1.5
		c-0.4,0.6-0.5,1.4-0.5,2.3s0.2,1.6,0.5,2.3c0.3,0.6,0.8,1.1,1.4,1.5c0.6,0.4,1.2,0.5,1.9,0.5s1.3-0.2,1.9-0.5
		c0.6-0.3,1.1-0.8,1.4-1.5C703,323.4,703.1,322.7,703.2,321.8L703.2,321.8z"/>
	<path class="st25" d="M809.1,236c0,1-0.2,1.9-0.7,2.8c-0.5,0.9-1.2,1.6-2.2,2.1s-2.2,0.8-3.7,0.8h-3.1v7h-3.7v-18.3h6.7
		c1.4,0,2.6,0.2,3.6,0.7s1.7,1.2,2.2,2C808.9,233.9,809.1,234.9,809.1,236L809.1,236z M802.4,238.6c1,0,1.8-0.2,2.2-0.7
		c0.5-0.5,0.7-1.1,0.7-1.9c0-1.8-1-2.7-3-2.7h-2.9v5.3L802.4,238.6L802.4,238.6z"/>
	<path class="st25" d="M818.9,248.9c-1.4,0-2.7-0.3-3.8-0.9s-2-1.5-2.6-2.6s-1-2.4-1-3.9s0.3-2.8,1-3.9c0.7-1.1,1.5-2,2.7-2.6
		c1.1-0.6,2.4-0.9,3.8-0.9s2.7,0.3,3.8,0.9c1.1,0.6,2,1.5,2.7,2.6s1,2.4,1,3.9s-0.3,2.8-1,3.9c-0.7,1.1-1.6,2-2.7,2.6
		C821.6,248.5,820.3,248.9,818.9,248.9L818.9,248.9z M818.9,245.7c0.7,0,1.3-0.2,1.9-0.5c0.6-0.3,1-0.8,1.4-1.4
		c0.3-0.6,0.5-1.4,0.5-2.4c0-1.4-0.4-2.4-1.1-3.2c-0.7-0.7-1.6-1.1-2.7-1.1s-1.9,0.4-2.6,1.1c-0.7,0.7-1,1.8-1,3.2s0.3,2.4,1,3.2
		C817,245.3,817.9,245.7,818.9,245.7L818.9,245.7z"/>
	<path class="st25" d="M833.7,229.2v19.4H830v-19.4H833.7z"/>
	<path class="st25" d="M839.9,232.4c-0.7,0-1.2-0.2-1.6-0.6c-0.4-0.4-0.7-0.9-0.7-1.5s0.2-1.1,0.7-1.5c0.4-0.4,1-0.6,1.6-0.6
		s1.2,0.2,1.6,0.6c0.4,0.4,0.7,0.9,0.7,1.5s-0.2,1.1-0.7,1.5C841.1,232.2,840.6,232.4,839.9,232.4z M841.7,234.1v14.5H838v-14.5
		H841.7z"/>
	<path class="st25" d="M845.2,241.4c0-1.5,0.3-2.8,0.9-3.9c0.6-1.1,1.5-2,2.5-2.6c1.1-0.6,2.3-0.9,3.7-0.9c1.8,0,3.3,0.4,4.5,1.4
		c1.2,0.9,2,2.2,2.4,3.8h-4c-0.2-0.6-0.6-1.1-1.1-1.5s-1.1-0.6-1.8-0.6c-1,0-1.9,0.4-2.5,1.1s-0.9,1.8-0.9,3.2s0.3,2.4,0.9,3.2
		c0.6,0.8,1.4,1.1,2.5,1.1c1.5,0,2.5-0.7,2.9-2h4c-0.4,1.6-1.2,2.8-2.4,3.8c-1.2,0.9-2.7,1.4-4.5,1.4c-1.4,0-2.6-0.3-3.7-0.9
		c-1.1-0.6-1.9-1.5-2.5-2.6C845.5,244.2,845.2,242.8,845.2,241.4L845.2,241.4z"/>
	<path class="st25" d="M876.6,234.1l-9,21.4h-3.9l3.1-7.2l-5.8-14.1h4.1l3.8,10.1l3.8-10.1L876.6,234.1L876.6,234.1z"/>
	<path class="st25" d="M774.5,266.7V285h-3.7v-18.3H774.5z"/>
	<path class="st25" d="M784.4,285.2c-1.2,0-2.2-0.2-3.2-0.6c-0.9-0.4-1.7-1-2.2-1.8c-0.5-0.7-0.8-1.5-0.9-2.4h3.7
		c0.1,0.6,0.3,1,0.8,1.4s1.1,0.5,1.8,0.5s1.2-0.1,1.6-0.4c0.4-0.3,0.6-0.6,0.6-1.1s-0.2-0.8-0.7-1s-1.2-0.5-2.3-0.8
		c-1.1-0.2-2-0.5-2.7-0.8s-1.3-0.7-1.8-1.3c-0.5-0.6-0.7-1.4-0.7-2.3c0-0.8,0.2-1.5,0.7-2.2s1.1-1.2,2-1.6s1.9-0.6,3-0.6
		c1.7,0,3.1,0.4,4.2,1.3c1,0.9,1.6,2,1.7,3.5h-3.5c0-0.6-0.3-1-0.7-1.4s-1-0.5-1.7-0.5s-1.2,0.1-1.5,0.4s-0.5,0.6-0.5,1
		c0,0.5,0.2,0.9,0.7,1.1s1.2,0.5,2.3,0.8c1,0.3,1.9,0.5,2.6,0.8c0.7,0.3,1.3,0.7,1.8,1.3c0.5,0.6,0.8,1.4,0.8,2.3
		c0,0.8-0.2,1.6-0.7,2.3c-0.5,0.7-1.1,1.2-2,1.6C786.6,285,785.6,285.2,784.4,285.2L784.4,285.2z"/>
	<path class="st25" d="M799.5,285.2c-1.2,0-2.2-0.2-3.2-0.6c-0.9-0.4-1.7-1-2.2-1.8c-0.5-0.7-0.8-1.5-0.9-2.4h3.7
		c0.1,0.6,0.3,1,0.8,1.4s1.1,0.5,1.8,0.5s1.2-0.1,1.6-0.4c0.4-0.3,0.6-0.6,0.6-1.1s-0.2-0.8-0.7-1s-1.2-0.5-2.3-0.8
		c-1.1-0.2-2-0.5-2.7-0.8s-1.3-0.7-1.8-1.3c-0.5-0.6-0.7-1.4-0.7-2.3c0-0.8,0.2-1.5,0.7-2.2s1.1-1.2,2-1.6s1.9-0.6,3-0.6
		c1.7,0,3.1,0.4,4.2,1.3c1,0.9,1.6,2,1.7,3.5h-3.5c0-0.6-0.3-1-0.7-1.4s-1-0.5-1.7-0.5s-1.2,0.1-1.5,0.4s-0.5,0.6-0.5,1
		c0,0.5,0.2,0.9,0.7,1.1s1.2,0.5,2.3,0.8c1,0.3,1.9,0.5,2.6,0.8c0.7,0.3,1.3,0.7,1.8,1.3c0.5,0.6,0.8,1.4,0.8,2.3
		c0,0.8-0.2,1.6-0.7,2.3c-0.5,0.7-1.1,1.2-2,1.6C801.7,285,800.7,285.2,799.5,285.2L799.5,285.2z"/>
	<path class="st25" d="M822.7,270.4v14.5H819v-1.8c-0.5,0.6-1.1,1.1-1.9,1.5c-0.8,0.4-1.6,0.5-2.5,0.5c-1.1,0-2.1-0.2-3-0.7
		s-1.6-1.2-2.1-2.1s-0.7-2-0.7-3.4v-8.5h3.7v8c0,1.2,0.3,2,0.9,2.7c0.6,0.6,1.4,0.9,2.4,0.9s1.8-0.3,2.4-0.9
		c0.6-0.6,0.9-1.5,0.9-2.7v-8H822.7L822.7,270.4z"/>
	<path class="st25" d="M826.2,277.6c0-1.5,0.3-2.8,0.9-3.9c0.6-1.1,1.4-2,2.4-2.6s2.1-0.9,3.4-0.9c1.1,0,2,0.2,2.8,0.7s1.5,1,2,1.6
		v-2.1h3.7v14.5h-3.7v-2.1c-0.5,0.7-1.1,1.2-2,1.7s-1.8,0.7-2.9,0.7c-1.2,0-2.3-0.3-3.3-0.9s-1.8-1.5-2.4-2.7
		S826.2,279.1,826.2,277.6L826.2,277.6z M837.6,277.7c0-0.9-0.2-1.7-0.5-2.3c-0.3-0.6-0.8-1.1-1.4-1.5c-0.6-0.3-1.2-0.5-1.9-0.5
		s-1.3,0.2-1.9,0.5s-1,0.8-1.4,1.5c-0.4,0.6-0.5,1.4-0.5,2.3s0.2,1.6,0.5,2.3c0.3,0.6,0.8,1.1,1.4,1.5c0.6,0.4,1.2,0.5,1.9,0.5
		s1.3-0.2,1.9-0.5c0.6-0.3,1.1-0.8,1.4-1.5S837.6,278.6,837.6,277.7L837.6,277.7z"/>
	<path class="st25" d="M853.7,270.2c1.7,0,3.1,0.5,4.2,1.6s1.6,2.6,1.6,4.6v8.5h-3.7v-8c0-1.2-0.3-2-0.9-2.7
		c-0.6-0.6-1.4-0.9-2.4-0.9s-1.8,0.3-2.4,0.9s-0.9,1.5-0.9,2.7v8h-3.7v-14.5h3.7v1.8c0.5-0.6,1.1-1.1,1.9-1.5
		C852,270.4,852.8,270.2,853.7,270.2L853.7,270.2z"/>
	<path class="st25" d="M862.8,277.7c0-1.5,0.3-2.8,0.9-4c0.6-1.1,1.5-2,2.5-2.6c1.1-0.6,2.3-0.9,3.7-0.9c1.8,0,3.3,0.5,4.5,1.4
		s2,2.2,2.4,3.8h-4c-0.2-0.6-0.6-1.1-1.1-1.5s-1.1-0.5-1.8-0.5c-1,0-1.9,0.4-2.5,1.1s-0.9,1.8-0.9,3.2s0.3,2.5,0.9,3.2
		c0.6,0.8,1.4,1.1,2.5,1.1c1.5,0,2.5-0.7,2.9-2h4c-0.4,1.6-1.2,2.8-2.4,3.8c-1.2,0.9-2.7,1.4-4.5,1.4c-1.4,0-2.6-0.3-3.7-0.9
		c-1.1-0.6-1.9-1.5-2.5-2.6C863.1,280.5,862.8,279.2,862.8,277.7L862.8,277.7z"/>
	<path class="st25" d="M893.8,277.4c0,0.5,0,1-0.1,1.4h-10.6c0.1,1,0.5,1.9,1.1,2.5s1.4,0.9,2.4,0.9c1.4,0,2.3-0.6,2.9-1.8h4
		c-0.4,1.4-1.2,2.5-2.4,3.4s-2.6,1.4-4.4,1.4c-1.4,0-2.7-0.3-3.8-0.9s-2-1.5-2.6-2.6s-0.9-2.5-0.9-3.9s0.3-2.8,0.9-4
		c0.6-1.1,1.5-2,2.6-2.6s2.4-0.9,3.8-0.9s2.6,0.3,3.7,0.9s1.9,1.4,2.5,2.5C893.5,274.7,893.8,276,893.8,277.4L893.8,277.4z
		 M890,276.3c0-0.9-0.4-1.7-1-2.3c-0.7-0.6-1.5-0.9-2.4-0.9s-1.7,0.3-2.3,0.8s-1,1.3-1.1,2.3L890,276.3L890,276.3z"/>
</g>
<g>
	<g>
		<defs>
			<rect id="SVGID_00000157303097119829854250000009228720097763043756_" x="1205.5" y="87.8" width="675.9" height="141.4"/>
		</defs>
		<clipPath id="SVGID_00000027604533393386234840000014154948507654911160_">
			<use xlink:href="#SVGID_00000157303097119829854250000009228720097763043756_"  style="overflow:visible;"/>
		</clipPath>
		<g style="clip-path:url(#SVGID_00000027604533393386234840000014154948507654911160_);">
			<path class="st27" d="M1205.5,87.8h676.7V229h-676.7V87.8z"/>
		</g>
	</g>
</g>
<path class="st2" d="M1323.1,158.4c0-2.4,0.5-4.6,1.6-6.5s2.6-3.4,4.4-4.4s4-1.6,6.3-1.6c2.7,0,5.1,0.7,7.2,2.1
	c2.1,1.4,3.5,3.3,4.3,5.8h-5.6c-0.6-1.2-1.3-2-2.4-2.6c-1-0.6-2.2-0.9-3.5-0.9c-1.4,0-2.7,0.3-3.8,1c-1.1,0.7-2,1.6-2.6,2.8
	s-0.9,2.6-0.9,4.2s0.3,3,0.9,4.3c0.6,1.2,1.5,2.2,2.6,2.8s2.4,1,3.8,1c1.3,0,2.5-0.3,3.5-0.9c1-0.6,1.8-1.5,2.4-2.6h5.6
	c-0.8,2.5-2.2,4.4-4.3,5.8c-2,1.4-4.4,2.1-7.2,2.1c-2.3,0-4.4-0.5-6.3-1.6s-3.4-2.5-4.4-4.4C1323.6,163,1323.1,160.8,1323.1,158.4
	L1323.1,158.4z"/>
<path class="st2" d="M1356,150.2v6.1h8.2v3.9h-8.2v6.5h9.3v4h-14.2v-24.5h14.2v4H1356L1356,150.2z"/>
<path class="st2" d="M1382.3,170.7l-5.4-9.5h-2.3v9.5h-4.9v-24.4h9.2c1.9,0,3.5,0.3,4.8,1s2.3,1.6,3,2.7c0.7,1.1,1,2.4,1,3.8
	c0,1.6-0.5,3.1-1.4,4.4c-0.9,1.3-2.3,2.2-4.2,2.7l5.8,9.9L1382.3,170.7L1382.3,170.7z M1374.6,157.5h4.1c1.3,0,2.3-0.3,3-1
	c0.7-0.6,1-1.5,1-2.7s-0.3-2-1-2.6s-1.6-0.9-3-0.9h-4.1V157.5L1374.6,157.5z"/>
<path class="st2" d="M1408.8,146.2v4h-6.5v20.5h-4.9v-20.5h-6.5v-4H1408.8L1408.8,146.2z"/>
<path class="st2" d="M1417.2,146.2v24.4h-4.9v-24.4H1417.2L1417.2,146.2z"/>
<path class="st2" d="M1437.1,146.2v4h-10.2v6.3h7.8v3.9h-7.8v10.3h-4.9v-24.4L1437.1,146.2L1437.1,146.2z"/>
<path class="st2" d="M1445.5,146.2v24.4h-4.9v-24.4H1445.5L1445.5,146.2z"/>
<path class="st2" d="M1449.1,158.4c0-2.4,0.5-4.6,1.6-6.5s2.6-3.4,4.4-4.4s4-1.6,6.3-1.6c2.7,0,5.1,0.7,7.2,2.1
	c2.1,1.4,3.5,3.3,4.3,5.8h-5.6c-0.6-1.2-1.3-2-2.4-2.6c-1-0.6-2.2-0.9-3.5-0.9c-1.4,0-2.7,0.3-3.8,1c-1.1,0.7-2,1.6-2.6,2.8
	s-0.9,2.6-0.9,4.2s0.3,3,0.9,4.3c0.6,1.2,1.5,2.2,2.6,2.8s2.4,1,3.8,1c1.3,0,2.5-0.3,3.5-0.9c1-0.6,1.8-1.5,2.4-2.6h5.6
	c-0.8,2.5-2.2,4.4-4.3,5.8c-2,1.4-4.4,2.1-7.2,2.1c-2.3,0-4.4-0.5-6.3-1.6s-3.4-2.5-4.4-4.4C1449.7,163,1449.1,160.8,1449.1,158.4
	L1449.1,158.4z"/>
<path class="st2" d="M1492.2,166h-9.7l-1.6,4.6h-5.1l8.8-24.5h5.7l8.8,24.5h-5.2L1492.2,166z M1490.8,162.1l-3.5-10.2l-3.5,10.2
	H1490.8L1490.8,162.1z"/>
<path class="st2" d="M1518.8,146.2v4h-6.5v20.5h-4.9v-20.5h-6.5v-4H1518.8L1518.8,146.2z"/>
<path class="st2" d="M1527.3,150.2v6.1h8.2v3.9h-8.2v6.5h9.3v4h-14.2v-24.5h14.2v4H1527.3L1527.3,150.2z"/>
<path class="st2" d="M1560.7,170.9c-2.3,0-4.4-0.5-6.3-1.6s-3.4-2.6-4.5-4.5s-1.7-4.1-1.7-6.5s0.6-4.5,1.7-6.4s2.6-3.4,4.5-4.5
	s4-1.6,6.3-1.6s4.4,0.5,6.3,1.6s3.4,2.6,4.5,4.5s1.7,4,1.7,6.4s-0.6,4.6-1.7,6.5s-2.6,3.4-4.5,4.5S1563,170.9,1560.7,170.9
	L1560.7,170.9z M1560.7,166.5c1.5,0,2.8-0.3,3.9-1s2-1.6,2.6-2.8s1-2.7,1-4.3s-0.3-3.1-1-4.3c-0.6-1.2-1.5-2.2-2.6-2.8
	c-1.1-0.7-2.4-1-3.9-1s-2.8,0.3-3.9,1c-1.1,0.6-2,1.6-2.6,2.8s-0.9,2.6-0.9,4.3s0.3,3.1,0.9,4.3s1.5,2.2,2.6,2.8
	C1557.9,166.2,1559.2,166.5,1560.7,166.5z"/>
<path class="st2" d="M1591.9,146.2v4h-10.2v6.3h7.8v3.9h-7.8v10.3h-4.9v-24.4L1591.9,146.2L1591.9,146.2z"/>
<path class="st2" d="M1608.6,146.2v24.4h-4.9v-24.4H1608.6L1608.6,146.2z"/>
<path class="st2" d="M1634.3,170.7h-4.9l-11.1-16.8v16.8h-4.9v-24.5h4.9l11.1,16.8v-16.8h4.9V170.7z"/>
<path class="st2" d="M1647.5,170.9c-1.7,0-3.2-0.3-4.6-0.9s-2.4-1.4-3.2-2.5c-0.8-1.1-1.2-2.4-1.2-3.9h5.3c0.1,1,0.4,1.8,1.1,2.4
	c0.6,0.6,1.5,0.9,2.7,0.9s2-0.3,2.7-0.8c0.7-0.6,1-1.3,1-2.1c0-0.7-0.2-1.3-0.7-1.8c-0.4-0.5-1-0.8-1.7-1.1s-1.6-0.6-2.7-0.9
	c-1.6-0.5-2.9-0.9-3.9-1.4c-1-0.4-1.8-1.1-2.6-2.1c-0.7-0.9-1.1-2.1-1.1-3.7c0-1.4,0.4-2.7,1.1-3.8s1.7-1.9,3-2.5s2.8-0.9,4.5-0.9
	c2.5,0,4.6,0.6,6.2,1.9c1.6,1.2,2.4,2.9,2.6,5.1h-5.4c-0.1-0.8-0.4-1.5-1.1-2.1s-1.5-0.8-2.6-0.8c-1,0-1.7,0.2-2.3,0.7
	c-0.6,0.5-0.8,1.2-0.8,2.1c0,0.6,0.2,1.2,0.6,1.6c0.4,0.4,1,0.8,1.6,1.1c0.7,0.3,1.6,0.6,2.7,0.9c1.6,0.5,2.9,0.9,3.9,1.4
	s1.9,1.2,2.6,2.1c0.7,0.9,1.1,2.2,1.1,3.7c0,1.3-0.3,2.5-1,3.7c-0.7,1.1-1.7,2-3,2.7C1650.9,170.6,1649.3,170.9,1647.5,170.9
	L1647.5,170.9z"/>
<path class="st2" d="M1665.2,146.2v15.1c0,1.7,0.4,2.9,1.3,3.8c0.9,0.9,2.1,1.3,3.7,1.3s2.8-0.4,3.7-1.3c0.9-0.9,1.3-2.1,1.3-3.8
	v-15.1h4.9v15.1c0,2.1-0.4,3.8-1.3,5.3c-0.9,1.4-2.1,2.5-3.6,3.2s-3.2,1.1-5,1.1s-3.5-0.4-4.9-1.1c-1.5-0.7-2.7-1.8-3.5-3.2
	c-0.9-1.4-1.3-3.2-1.3-5.3v-15.1H1665.2L1665.2,146.2z"/>
<path class="st2" d="M1697.4,170.7l-5.4-9.5h-2.3v9.5h-4.9v-24.4h9.2c1.9,0,3.5,0.3,4.8,1s2.3,1.6,3,2.7c0.7,1.1,1,2.4,1,3.8
	c0,1.6-0.5,3.1-1.4,4.4c-0.9,1.3-2.3,2.2-4.2,2.7l5.8,9.9L1697.4,170.7L1697.4,170.7z M1689.7,157.5h4.1c1.3,0,2.3-0.3,3-1
	c0.7-0.6,1-1.5,1-2.7s-0.3-2-1-2.6s-1.6-0.9-3-0.9h-4.1V157.5L1689.7,157.5z"/>
<path class="st2" d="M1722.2,166h-9.7l-1.6,4.6h-5.1l8.8-24.5h5.7l8.8,24.5h-5.2L1722.2,166z M1720.9,162.1l-3.5-10.2l-3.5,10.2
	H1720.9L1720.9,162.1z"/>
<path class="st2" d="M1753.2,170.7h-4.9l-11.1-16.8v16.8h-4.9v-24.5h4.9l11.1,16.8v-16.8h4.9V170.7z"/>
<path class="st2" d="M1756.8,158.4c0-2.4,0.5-4.6,1.6-6.5s2.6-3.4,4.4-4.4s4-1.6,6.3-1.6c2.7,0,5.1,0.7,7.2,2.1
	c2.1,1.4,3.5,3.3,4.3,5.8h-5.6c-0.6-1.2-1.3-2-2.4-2.6c-1-0.6-2.2-0.9-3.5-0.9c-1.4,0-2.7,0.3-3.8,1c-1.1,0.7-2,1.6-2.6,2.8
	s-0.9,2.6-0.9,4.2s0.3,3,0.9,4.3c0.6,1.2,1.5,2.2,2.6,2.8s2.4,1,3.8,1c1.3,0,2.5-0.3,3.5-0.9c1-0.6,1.8-1.5,2.4-2.6h5.6
	c-0.8,2.5-2.2,4.4-4.3,5.8c-2,1.4-4.4,2.1-7.2,2.1c-2.3,0-4.4-0.5-6.3-1.6s-3.4-2.5-4.4-4.4C1757.3,163,1756.8,160.8,1756.8,158.4
	L1756.8,158.4z"/>
<path class="st2" d="M1789.7,150.2v6.1h8.2v3.9h-8.2v6.5h9.3v4h-14.2v-24.5h14.2v4H1789.7L1789.7,150.2z"/>
<g>
	<g>
		<defs>
			<rect id="SVGID_00000107573298750146832780000002121240818668063651_" x="1244.2" y="131.8" width="53.8" height="53.8"/>
		</defs>
		<clipPath id="SVGID_00000112617221494867896480000000017204509004166830_">
			<use xlink:href="#SVGID_00000107573298750146832780000002121240818668063651_"  style="overflow:visible;"/>
		</clipPath>
		<g style="clip-path:url(#SVGID_00000112617221494867896480000000017204509004166830_);">
			<g>
				<g>
					<defs>
						<path id="SVGID_00000131368402123272597840000014773710067465123228_" d="M1271.1,131.8c-14.9,0-26.9,12.1-26.9,26.9
							s12.1,26.9,26.9,26.9s26.9-12.1,26.9-26.9S1286,131.8,1271.1,131.8"/>
					</defs>
					<clipPath id="SVGID_00000171707842476836887540000012547277434253128859_">
						<use xlink:href="#SVGID_00000131368402123272597840000014773710067465123228_"  style="overflow:visible;"/>
					</clipPath>
					<g style="clip-path:url(#SVGID_00000171707842476836887540000012547277434253128859_);">
						<path class="st2" d="M1244.2,131.8h53.8v53.8h-53.8V131.8z"/>
					</g>
				</g>
			</g>
		</g>
	</g>
</g>
<path class="st27" d="M1274.4,149.9h-1.6c-0.7,0-1.4,0.1-2.1,0.6l-4.2,2.6v2.6l5.4-3.2v17h2.4L1274.4,149.9L1274.4,149.9z"/>
<g>
	<g>
		<defs>
			<rect id="SVGID_00000044884227563294726700000011732075251249468061_" x="1205.5" y="232.1" width="675.9" height="141.5"/>
		</defs>
		<clipPath id="SVGID_00000075856029283815752830000016370227463555115445_">
			<use xlink:href="#SVGID_00000044884227563294726700000011732075251249468061_"  style="overflow:visible;"/>
		</clipPath>
		<g style="clip-path:url(#SVGID_00000075856029283815752830000016370227463555115445_);">
			<path class="st10" d="M1205.5,232.1h676.7v141.2h-676.7V232.1z"/>
		</g>
	</g>
</g>
<path class="st2" d="M1329.1,294.5v6.1h8.2v3.9h-8.2v6.5h9.3v4h-14.2v-24.5h14.2v4H1329.1L1329.1,294.5z"/>
<path class="st2" d="M1363.7,315h-4.9l-11.1-16.8V315h-4.9v-24.5h4.9l11.1,16.8v-16.8h4.9V315z"/>
<path class="st2" d="M1377.1,290.5c2.6,0,4.8,0.5,6.8,1.5c1.9,1,3.4,2.4,4.5,4.3s1.6,4,1.6,6.4s-0.5,4.6-1.6,6.4s-2.6,3.2-4.5,4.2
	s-4.2,1.5-6.8,1.5h-8.5v-24.4L1377.1,290.5L1377.1,290.5z M1376.9,310.8c2.6,0,4.5-0.7,5.9-2.1s2.1-3.4,2.1-5.9s-0.7-4.5-2.1-6
	s-3.4-2.1-5.9-2.1h-3.5v16.1H1376.9L1376.9,310.8z"/>
<path class="st2" d="M1405,315.2c-2.3,0-4.4-0.5-6.3-1.6s-3.4-2.5-4.5-4.5c-1.1-1.9-1.7-4-1.7-6.5s0.6-4.5,1.7-6.4s2.6-3.4,4.5-4.5
	s4-1.6,6.3-1.6s4.4,0.5,6.3,1.6s3.4,2.6,4.5,4.5s1.7,4,1.7,6.4s-0.6,4.6-1.7,6.5s-2.6,3.4-4.5,4.5S1407.3,315.2,1405,315.2
	L1405,315.2z M1405,310.8c1.5,0,2.8-0.3,3.9-1s2-1.6,2.6-2.8c0.6-1.2,1-2.7,1-4.3s-0.3-3-1-4.3c-0.6-1.2-1.5-2.2-2.6-2.8
	c-1.1-0.7-2.4-1-3.9-1s-2.8,0.3-3.9,1c-1.1,0.6-2,1.6-2.6,2.8c-0.6,1.2-0.9,2.6-0.9,4.3s0.3,3.1,0.9,4.3c0.6,1.2,1.5,2.2,2.6,2.8
	C1402.2,310.5,1403.5,310.8,1405,310.8z"/>
<path class="st2" d="M1433.7,315l-5.4-9.5h-2.3v9.5h-4.9v-24.4h9.2c1.9,0,3.5,0.3,4.8,1s2.3,1.6,3,2.7s1,2.4,1,3.8
	c0,1.6-0.5,3.1-1.4,4.4s-2.3,2.2-4.2,2.7l5.8,9.9L1433.7,315L1433.7,315z M1426,301.8h4.1c1.3,0,2.3-0.3,3-1c0.7-0.6,1-1.5,1-2.7
	s-0.3-2-1-2.6s-1.6-0.9-3-0.9h-4.1V301.8z"/>
<path class="st2" d="M1452,315.2c-1.7,0-3.2-0.3-4.6-0.9s-2.4-1.4-3.2-2.5c-0.8-1.1-1.2-2.4-1.2-3.9h5.3c0.1,1,0.4,1.8,1.1,2.4
	c0.6,0.6,1.5,0.9,2.7,0.9s2-0.3,2.7-0.8s1-1.3,1-2.1c0-0.7-0.2-1.3-0.7-1.8c-0.4-0.5-1-0.8-1.7-1.1c-0.7-0.3-1.6-0.6-2.7-0.9
	c-1.6-0.5-2.9-0.9-3.9-1.4s-1.8-1.1-2.6-2.1c-0.7-0.9-1.1-2.1-1.1-3.7c0-1.4,0.4-2.7,1.1-3.8c0.7-1.1,1.7-1.9,3-2.5s2.8-0.9,4.5-0.9
	c2.5,0,4.6,0.6,6.2,1.9c1.6,1.2,2.4,2.9,2.6,5.1h-5.4c-0.1-0.8-0.4-1.5-1.1-2.1c-0.7-0.5-1.5-0.8-2.6-0.8c-1,0-1.7,0.2-2.3,0.7
	c-0.6,0.5-0.8,1.2-0.8,2.1c0,0.6,0.2,1.2,0.6,1.6s1,0.8,1.6,1.1c0.7,0.3,1.6,0.6,2.7,0.9c1.6,0.5,2.9,0.9,3.9,1.4s1.9,1.2,2.6,2.1
	s1.1,2.2,1.1,3.7c0,1.3-0.3,2.5-1,3.7c-0.7,1.1-1.7,2-3,2.7C1455.3,314.9,1453.8,315.2,1452,315.2L1452,315.2z"/>
<path class="st2" d="M1469.7,294.5v6.1h8.2v3.9h-8.2v6.5h9.3v4h-14.2v-24.5h14.2v4H1469.7L1469.7,294.5z"/>
<path class="st2" d="M1510.1,290.5V315h-4.9v-15.9l-6.5,15.9h-3.7l-6.6-15.9V315h-4.9v-24.4h5.6l7.8,18.2l7.8-18.2h5.4V290.5z"/>
<path class="st2" d="M1519.8,294.5v6.1h8.2v3.9h-8.2v6.5h9.3v4h-14.2v-24.5h14.2v4H1519.8L1519.8,294.5z"/>
<path class="st2" d="M1554.4,315h-4.9l-11.1-16.8V315h-4.9v-24.5h4.9l11.1,16.8v-16.8h4.9V315z"/>
<path class="st2" d="M1575.8,290.5v4h-6.5V315h-4.9v-20.5h-6.5v-4H1575.8L1575.8,290.5z"/>
<path class="st2" d="M1587.8,315.2c-1.7,0-3.2-0.3-4.6-0.9s-2.4-1.4-3.2-2.5c-0.8-1.1-1.2-2.4-1.2-3.9h5.3c0.1,1,0.4,1.8,1.1,2.4
	c0.6,0.6,1.5,0.9,2.7,0.9s2-0.3,2.7-0.8s1-1.3,1-2.1c0-0.7-0.2-1.3-0.7-1.8c-0.4-0.5-1-0.8-1.7-1.1c-0.7-0.3-1.6-0.6-2.7-0.9
	c-1.6-0.5-2.9-0.9-3.9-1.4s-1.8-1.1-2.6-2.1c-0.7-0.9-1.1-2.1-1.1-3.7c0-1.4,0.4-2.7,1.1-3.8c0.7-1.1,1.7-1.9,3-2.5s2.8-0.9,4.5-0.9
	c2.5,0,4.6,0.6,6.2,1.9c1.6,1.2,2.4,2.9,2.6,5.1h-5.4c-0.1-0.8-0.4-1.5-1.1-2.1c-0.7-0.5-1.5-0.8-2.6-0.8c-1,0-1.7,0.2-2.3,0.7
	c-0.6,0.5-0.8,1.2-0.8,2.1c0,0.6,0.2,1.2,0.6,1.6s1,0.8,1.6,1.1c0.7,0.3,1.6,0.6,2.7,0.9c1.6,0.5,2.9,0.9,3.9,1.4s1.9,1.2,2.6,2.1
	s1.1,2.2,1.1,3.7c0,1.3-0.3,2.5-1,3.7c-0.7,1.1-1.7,2-3,2.7C1591.2,314.9,1589.6,315.2,1587.8,315.2L1587.8,315.2z"/>
<g>
	<g>
		<defs>
			<rect id="SVGID_00000023994686894457308090000016931551311624670345_" x="1244.2" y="276.2" width="53.8" height="53.8"/>
		</defs>
		<clipPath id="SVGID_00000094581176172438567020000001125299840056483727_">
			<use xlink:href="#SVGID_00000023994686894457308090000016931551311624670345_"  style="overflow:visible;"/>
		</clipPath>
		<g style="clip-path:url(#SVGID_00000094581176172438567020000001125299840056483727_);">
			<g>
				<g>
					<defs>
						<path id="SVGID_00000032625370952255038890000001868061658735986845_" d="M1271.1,276.2c-14.9,0-26.9,12-26.9,26.9
							s12.1,26.9,26.9,26.9s26.9-12,26.9-26.9S1286,276.2,1271.1,276.2"/>
					</defs>
					<clipPath id="SVGID_00000161632921304145395590000015519015052642717061_">
						<use xlink:href="#SVGID_00000032625370952255038890000001868061658735986845_"  style="overflow:visible;"/>
					</clipPath>
					<g style="clip-path:url(#SVGID_00000161632921304145395590000015519015052642717061_);">
						<path class="st2" d="M1244.2,276.2h53.8V330h-53.8V276.2z"/>
					</g>
				</g>
			</g>
		</g>
	</g>
</g>
<path class="st10" d="M1268.1,312l4.9-4.9c3.3-3.3,4.8-5.1,4.8-7.8c0-2.9-2-5.4-6-5.4s-6.4,2.2-6.8,6.2v0.3h2.4v-0.3
	c0.3-2.8,1.5-4.3,4-4.3c2.4,0,3.5,1.7,3.5,3.8c0,1.9-1.1,3.3-3.4,5.7l-7.1,7.2v1.4h13.2v-2L1268.1,312L1268.1,312z"/>
<g>
	<g>
		<defs>
			<rect id="SVGID_00000072259169864174489250000009370684068643930509_" x="1205.5" y="376.2" width="675.9" height="141.6"/>
		</defs>
		<clipPath id="SVGID_00000104671914851498980260000004114327616458022052_">
			<use xlink:href="#SVGID_00000072259169864174489250000009370684068643930509_"  style="overflow:visible;"/>
		</clipPath>
		<g style="clip-path:url(#SVGID_00000104671914851498980260000004114327616458022052_);">
			<path class="st12" d="M1205.5,376.2h676.7v141.2h-676.7V376.2z"/>
		</g>
	</g>
</g>
<path class="st2" d="M1337.2,435.2c3.2,0,5.6,0.8,7.4,2.3s2.8,3.5,3.1,6v0.3h-4.8l-0.1-0.3c-0.6-3.1-2.5-4.7-5.6-4.7
	c-2,0-3.5,0.8-4.7,2.4s-1.8,3.7-1.8,6.4c0,2.9,0.6,5.2,1.8,6.8c1.2,1.6,2.8,2.4,4.7,2.4c1.5,0,2.8-0.4,3.7-1.3
	c0.9-0.9,1.6-2.1,1.9-3.6l0.1-0.3h4.8v0.3c-0.3,2.6-1.3,4.7-3.2,6.2c-1.9,1.5-4.4,2.3-7.4,2.3c-3.4,0-6.2-1.1-8.2-3.4
	c-2.1-2.2-3.1-5.3-3.1-9.1s1.1-7,3.3-9.3C1331,436.4,1333.8,435.2,1337.2,435.2L1337.2,435.2z"/>
<path class="st2" d="M1369.4,455.8v4H1352v-24.1h4.8v20.1H1369.4L1369.4,455.8z"/>
<path class="st2" d="M1386.2,452.6h-8.1l-2.4,7.3h-5.1l8.7-24.1h6.1l8.5,24.1h-5.3L1386.2,452.6z M1382.1,439.8l-2.9,8.9h5.7
	L1382.1,439.8z"/>
<path class="st2" d="M1401.6,459.9h-4.8v-24.1h4.8V459.9z"/>
<path class="st2" d="M1433,435.7v24.1h-4.8v-11.2c0-3.8,0-6.6,0.1-8.3c-0.7,2.8-1.4,5.5-2.2,8.2l-3.4,11.2h-5.2l-3.5-11.2
	c-0.9-3-1.6-5.7-2.2-8.2c0,1.7,0.1,4.4,0.1,8.2v11.2h-4.8v-24.1h7.6l5.4,19.7l5.5-19.7L1433,435.7L1433,435.7z"/>
<path class="st2" d="M1446.3,435.2c2.8,0,4.9,0.7,6.3,2.1s2.3,3.2,2.6,5.5h-4.9c-0.2-1.3-0.6-2.2-1.3-2.9c-0.7-0.7-1.7-1.1-2.9-1.1
	c-1,0-1.8,0.2-2.5,0.7c-0.6,0.5-0.9,1.2-0.9,2.1c0,1,0.4,1.8,1.1,2.4c0.8,0.6,2.1,1.1,4,1.5c2.6,0.6,4.6,1.5,5.8,2.8
	c1.2,1.2,1.9,2.8,1.9,4.8c0,2.2-0.9,3.9-2.6,5.2c-1.7,1.3-3.8,1.9-6.3,1.9c-2.9,0-5.3-0.6-7-2c-1.8-1.3-2.8-3.2-3-5.7h4.9
	c0.2,1.3,0.8,2.3,1.7,3c0.9,0.7,2,1,3.3,1c1.1,0,2.1-0.3,2.8-0.8c0.8-0.6,1.1-1.3,1.1-2.2c0-1-0.4-1.9-1.1-2.5s-2-1.1-3.7-1.6
	c-2.7-0.6-4.7-1.5-6.1-2.6c-1.3-1.1-2-2.7-2-4.8s0.8-3.9,2.5-5.1C1441.9,435.9,1443.9,435.2,1446.3,435.2L1446.3,435.2z"/>
<path class="st2" d="M1492.4,435.7v24.1h-4.8v-11.2c0-3.8,0-6.6,0.1-8.3c-0.7,2.8-1.4,5.5-2.2,8.2l-3.4,11.2h-5.2l-3.5-11.2
	c-0.9-3-1.6-5.7-2.2-8.2c0,1.7,0.1,4.4,0.1,8.2v11.2h-4.8v-24.1h7.6l5.4,19.7l5.5-19.7L1492.4,435.7L1492.4,435.7z"/>
<path class="st2" d="M1510.8,452.6h-8.1l-2.4,7.3h-5.1l8.7-24.1h6.1l8.5,24.1h-5.3L1510.8,452.6z M1506.8,439.8l-2.9,8.9h5.7
	L1506.8,439.8z"/>
<path class="st2" d="M1542.6,459.9h-6.6l-9.9-18.3c0.1,2.2,0.2,4.7,0.2,7.4v10.9h-4.8v-24.1h6.4l10.2,18.7c-0.1-2.2-0.2-4.7-0.2-7.6
	v-11.1h4.8L1542.6,459.9L1542.6,459.9z"/>
<path class="st2" d="M1561.1,452.6h-8.1l-2.4,7.3h-5.1l8.7-24.1h6.1l8.5,24.1h-5.3L1561.1,452.6z M1557,439.8l-2.9,8.9h5.7
	L1557,439.8z"/>
<path class="st2" d="M1582.7,447.5h9.7v12.3h-3.9l-0.3-3.9l-1.1,2.4c-1.3,1.3-3.3,2-5.9,2c-3.3,0-6-1.1-8-3.3c-2-2.2-3-5.3-3-9.1
	s1.1-7,3.4-9.3c2.2-2.3,5.1-3.5,8.5-3.5c3.1,0,5.6,0.8,7.4,2.3s2.8,3.5,3,6v0.3h-4.8l-0.1-0.3c-0.6-3.1-2.5-4.7-5.6-4.7
	c-2,0-3.6,0.8-4.8,2.4c-1.3,1.6-1.9,3.7-1.9,6.4c0,2.9,0.6,5.2,1.8,6.8c1.2,1.6,2.8,2.4,4.8,2.4c1.6,0,2.9-0.5,3.9-1.4
	c1-1,1.7-2.3,1.9-4h-5.1L1582.7,447.5L1582.7,447.5z"/>
<path class="st2" d="M1614.8,456v3.8h-17.4v-24.1h17.1v3.8h-12.2v6.4h11.4v3.8h-11.4v6.4L1614.8,456L1614.8,456z"/>
<path class="st2" d="M1645,435.7v24.1h-4.8v-11.2c0-3.8,0-6.6,0.1-8.3c-0.7,2.8-1.4,5.5-2.2,8.2l-3.4,11.2h-5.2l-3.5-11.2
	c-0.9-3-1.6-5.7-2.2-8.2c0,1.7,0.1,4.4,0.1,8.2v11.2h-4.8v-24.1h7.6l5.4,19.7l5.5-19.7L1645,435.7L1645,435.7z"/>
<path class="st2" d="M1667.8,456v3.8h-17.4v-24.1h17.1v3.8h-12.2v6.4h11.4v3.8h-11.4v6.4L1667.8,456L1667.8,456z"/>
<path class="st2" d="M1693.1,459.9h-6.6l-9.9-18.3c0.1,2.2,0.2,4.7,0.2,7.4v10.9h-4.8v-24.1h6.4l10.2,18.7c-0.1-2.2-0.2-4.7-0.2-7.6
	v-11.1h4.8L1693.1,459.9L1693.1,459.9z"/>
<path class="st2" d="M1717.4,439.5h-8.2v20.4h-4.8v-20.4h-8.2v-3.8h21.2V439.5L1717.4,439.5z"/>
<g>
	<g>
		<defs>
			<rect id="SVGID_00000067197417057267484920000012693489210332635558_" x="1244.2" y="420.5" width="53.8" height="53.8"/>
		</defs>
		<clipPath id="SVGID_00000098925437840558952930000009726418328245641883_">
			<use xlink:href="#SVGID_00000067197417057267484920000012693489210332635558_"  style="overflow:visible;"/>
		</clipPath>
		<g style="clip-path:url(#SVGID_00000098925437840558952930000009726418328245641883_);">
			<g>
				<g>
					<defs>
						<path id="SVGID_00000063633376498009129620000004808685017013339536_" d="M1271.1,420.5c-14.9,0-26.9,12-26.9,26.9
							s12.1,26.9,26.9,26.9s26.9-12,26.9-26.9S1286,420.5,1271.1,420.5"/>
					</defs>
					<clipPath id="SVGID_00000062174492724339778670000001866061905119971489_">
						<use xlink:href="#SVGID_00000063633376498009129620000004808685017013339536_"  style="overflow:visible;"/>
					</clipPath>
					<g style="clip-path:url(#SVGID_00000062174492724339778670000001866061905119971489_);">
						<path class="st2" d="M1244.2,420.5h53.8v53.8h-53.8V420.5z"/>
					</g>
				</g>
			</g>
		</g>
	</g>
</g>
<path class="st12" d="M1274.1,447.8c2.1-0.6,3.5-2.4,3.5-4.6c0-3-2.3-5-5.9-5c-4,0-6.4,2.2-6.8,5.8v0.3h2.4V444
	c0.3-2.6,1.9-3.8,4-3.8s3.5,1.4,3.5,3.3c0,2.5-1.9,3.8-4.2,3.8h-0.5v2h0.5c3.2,0,4.7,1.3,4.7,3.6s-1.7,3.8-4.2,3.8s-4.3-1.2-4.6-4
	v-0.3h-2.4v0.3c0.4,4.2,3,5.9,6.8,5.9s7.1-2.2,7.1-5.9C1278,450.2,1276.5,448.5,1274.1,447.8L1274.1,447.8z"/>
<g>
	<g>
		<defs>
			<rect id="SVGID_00000066486625437507846690000006281834832076773524_" x="1205.5" y="520.3" width="675.9" height="141.6"/>
		</defs>
		<clipPath id="SVGID_00000085961220683573187910000011739380949308600205_">
			<use xlink:href="#SVGID_00000066486625437507846690000006281834832076773524_"  style="overflow:visible;"/>
		</clipPath>
		<g style="clip-path:url(#SVGID_00000085961220683573187910000011739380949308600205_);">
			<path class="st21" d="M1205.5,520.3h676.7v141.2h-676.7V520.3L1205.5,520.3z"/>
		</g>
	</g>
</g>
<path class="st2" d="M1345.5,580c1.9,0.2,3.5,1,4.7,2.2c1.2,1.3,1.8,3,1.8,5.1s-0.6,3.8-1.9,5.1c-1.2,1.3-2.8,2-4.6,2.2
	c-1,0.1-2.2,0.2-3.5,0.2h-3.5v9.1h-4.8v-24.1h8.4C1343.3,579.8,1344.5,579.9,1345.5,580L1345.5,580z M1344,590.9
	c1.9-0.3,2.9-1.5,2.9-3.6s-1-3.3-2.9-3.6c-0.6-0.1-1.3-0.1-2.1-0.1h-3.5v7.4h3.5C1342.8,591,1343.5,591,1344,590.9z"/>
<path class="st2" d="M1366,579.3c3.7,0,6.6,1.1,8.7,3.4c2.1,2.3,3.2,5.3,3.2,9.1s-1.1,6.8-3.2,9.1s-5,3.4-8.7,3.4s-6.6-1.1-8.7-3.4
	c-2.1-2.3-3.2-5.3-3.2-9.1s1.1-6.9,3.2-9.1C1359.4,580.4,1362.3,579.3,1366,579.3L1366,579.3z M1360.9,598.5
	c1.2,1.6,2.9,2.4,5.1,2.4s3.8-0.8,5-2.4c1.2-1.6,1.8-3.8,1.8-6.6s-0.6-5-1.8-6.6c-1.2-1.6-2.9-2.4-5-2.4s-3.9,0.8-5.1,2.4
	c-1.2,1.6-1.8,3.8-1.8,6.6S1359.7,596.9,1360.9,598.5L1360.9,598.5z"/>
<path class="st2" d="M1399.6,599.9v4h-17.4v-24.1h4.8v20.1H1399.6L1399.6,599.9z"/>
<path class="st2" d="M1408.1,604h-4.8v-24.1h4.8V604z"/>
<path class="st2" d="M1423.9,579.3c3.2,0,5.6,0.8,7.4,2.3s2.8,3.5,3.1,6v0.3h-4.8l-0.1-0.3c-0.6-3.2-2.5-4.7-5.6-4.7
	c-2,0-3.5,0.8-4.7,2.4c-1.2,1.6-1.8,3.7-1.8,6.4c0,2.9,0.6,5.2,1.8,6.8c1.2,1.6,2.8,2.4,4.7,2.4c1.5,0,2.8-0.4,3.7-1.3
	c0.9-0.9,1.6-2.1,1.9-3.6l0.1-0.3h4.8v0.3c-0.3,2.6-1.3,4.7-3.2,6.2c-1.9,1.5-4.4,2.3-7.4,2.3c-3.4,0-6.2-1.1-8.2-3.4
	c-2.1-2.2-3.1-5.3-3.1-9.1s1.1-7,3.3-9.3C1417.7,580.5,1420.5,579.3,1423.9,579.3L1423.9,579.3z"/>
<path class="st2" d="M1449.4,594.6v9.3h-4.8v-9.3l-8.5-14.8h5.4l5.6,10.5l5.4-10.5h5.3L1449.4,594.6L1449.4,594.6z"/>
<path class="st2" d="M1475.3,579.3c2.8,0,4.9,0.7,6.3,2.1s2.3,3.2,2.6,5.5h-4.9c-0.2-1.3-0.6-2.2-1.3-2.9c-0.7-0.7-1.7-1.1-2.9-1.1
	c-1,0-1.8,0.2-2.5,0.7c-0.6,0.5-0.9,1.2-0.9,2.1c0,1,0.4,1.8,1.1,2.4c0.8,0.6,2.1,1.1,4,1.5c2.6,0.6,4.6,1.5,5.8,2.8
	c1.2,1.2,1.9,2.8,1.9,4.8c0,2.2-0.9,3.9-2.6,5.2s-3.8,1.9-6.3,1.9c-2.9,0-5.3-0.7-7-2c-1.8-1.3-2.8-3.2-3-5.7h4.9
	c0.2,1.3,0.8,2.3,1.7,3s2,1,3.3,1c1.1,0,2.1-0.3,2.8-0.8c0.8-0.6,1.1-1.3,1.1-2.2c0-1-0.4-1.9-1.1-2.5s-2-1.2-3.7-1.6
	c-2.7-0.7-4.7-1.5-6.1-2.6c-1.3-1.1-2-2.7-2-4.8s0.8-3.9,2.5-5.1C1470.9,580,1472.9,579.3,1475.3,579.3L1475.3,579.3z"/>
<path class="st2" d="M1506,600.1v3.8h-17.4v-24.1h17.1v3.8h-12.2v6.4h11.4v3.8h-11.4v6.4h12.5V600.1z"/>
<path class="st2" d="M1527.6,597.9c0.3,2.9,0.9,4.9,1.8,6.1h-5.3c-0.6-1.6-1-3.4-1.2-5.4c-0.3-2.7-1.4-4.2-3.3-4.3
	c-0.4,0-1.1,0-1.9,0h-2.8v9.7h-4.8v-24.1h8.8c1.3,0,2.5,0.1,3.5,0.2c1.9,0.2,3.4,0.9,4.6,1.9s1.7,2.5,1.7,4.5c0,1.5-0.4,2.8-1.3,3.8
	c-0.8,1-2,1.7-3.5,2.1C1526.1,593,1527.3,594.9,1527.6,597.9L1527.6,597.9z M1515,590.6h3.3c1,0,1.6,0,2,0c2.3-0.2,3.5-1.4,3.5-3.5
	c0-1.1-0.3-1.9-0.8-2.4c-0.6-0.5-1.3-0.9-2.4-1c-0.6-0.1-1.2-0.1-2-0.1h-3.5L1515,590.6L1515,590.6z"/>
<path class="st2" d="M1545.6,604h-6.1l-8.5-24.1h5.2l6.4,20.4l6.5-20.4h5.2L1545.6,604L1545.6,604z"/>
<path class="st2" d="M1561.9,604h-4.8v-24.1h4.8V604z"/>
<path class="st2" d="M1577.6,579.3c3.2,0,5.6,0.8,7.4,2.3s2.8,3.5,3.1,6v0.3h-4.8l-0.1-0.3c-0.6-3.2-2.5-4.7-5.6-4.7
	c-2,0-3.5,0.8-4.7,2.4c-1.2,1.6-1.8,3.7-1.8,6.4c0,2.9,0.6,5.2,1.8,6.8c1.2,1.6,2.8,2.4,4.7,2.4c1.5,0,2.8-0.4,3.7-1.3
	c0.9-0.9,1.6-2.1,1.9-3.6l0.1-0.3h4.8v0.3c-0.3,2.6-1.3,4.7-3.2,6.2c-1.9,1.5-4.4,2.3-7.4,2.3c-3.4,0-6.2-1.1-8.2-3.4
	c-2.1-2.2-3.1-5.3-3.1-9.1s1.1-7,3.3-9.3C1571.4,580.5,1574.2,579.3,1577.6,579.3L1577.6,579.3z"/>
<path class="st2" d="M1597.2,604h-4.8v-24.1h4.8V604z"/>
<path class="st2" d="M1623.8,604h-6.6l-9.9-18.3c0.1,2.2,0.2,4.7,0.2,7.4V604h-4.8v-24.1h6.4l10.2,18.7c-0.1-2.2-0.2-4.7-0.2-7.6
	v-11.1h4.8L1623.8,604L1623.8,604z"/>
<path class="st2" d="M1640.3,591.6h9.7V604h-3.9l-0.3-3.9l-1.1,2.4c-1.3,1.3-3.3,2-5.9,2c-3.3,0-6-1.1-8-3.3s-3-5.3-3-9.1
	s1.1-7,3.4-9.3c2.2-2.3,5.1-3.5,8.5-3.5c3.1,0,5.6,0.8,7.4,2.3s2.8,3.5,3,6v0.3h-4.8l-0.1-0.3c-0.6-3.2-2.5-4.7-5.6-4.7
	c-2,0-3.6,0.8-4.8,2.4c-1.3,1.6-1.9,3.7-1.9,6.4c0,2.9,0.6,5.2,1.8,6.8c1.2,1.6,2.8,2.4,4.8,2.4c1.6,0,2.9-0.5,3.9-1.4
	c1-1,1.7-2.3,1.9-4h-5.1L1640.3,591.6L1640.3,591.6z"/>
<g>
	<g>
		<defs>
			<rect id="SVGID_00000155105617940735616570000016874649710873805966_" x="1244.2" y="564.6" width="53.8" height="53.8"/>
		</defs>
		<clipPath id="SVGID_00000036219206622343322670000012529962682995840698_">
			<use xlink:href="#SVGID_00000155105617940735616570000016874649710873805966_"  style="overflow:visible;"/>
		</clipPath>
		<g style="clip-path:url(#SVGID_00000036219206622343322670000012529962682995840698_);">
			<g>
				<g>
					<defs>
						<path id="SVGID_00000092453460342241560970000008952748896292443569_" d="M1271.1,564.6c-14.9,0-26.9,12-26.9,26.9
							s12.1,26.9,26.9,26.9s26.9-12,26.9-26.9S1286,564.6,1271.1,564.6"/>
					</defs>
					<clipPath id="SVGID_00000025408570104923600050000000917403810377723556_">
						<use xlink:href="#SVGID_00000092453460342241560970000008952748896292443569_"  style="overflow:visible;"/>
					</clipPath>
					<g style="clip-path:url(#SVGID_00000025408570104923600050000000917403810377723556_);">
						<path class="st2" d="M1244.2,564.6h53.8v53.8h-53.8V564.6z"/>
					</g>
				</g>
			</g>
		</g>
	</g>
</g>
<path class="st21" d="M1278.4,597.4v-2h-2.5v-12.7h-2.4l-9.7,13.5v1.2h9.7v5h2.4v-5H1278.4z M1273.5,595.4h-6.6l5-6.9
	c0.7-0.9,1.2-1.7,1.6-2.5V595.4z"/>
<g>
	<path class="st1" d="M1109,301.4L1109,301.4c39.4,0,71.3,31.9,71.3,71.3l0,0c0,39.4-31.9,71.3-71.3,71.3l0,0
		c-39.4,0-71.3-31.9-71.3-71.3l0,0C1037.8,333.3,1069.7,301.4,1109,301.4z"/>
	<g>
		<g>
			<defs>
				<path id="SVGID_00000057842985625664361270000007178240533297159074_" d="M1109,301.4L1109,301.4c39.4,0,71.3,31.9,71.3,71.3
					l0,0c0,39.4-31.9,71.3-71.3,71.3l0,0c-39.4,0-71.3-31.9-71.3-71.3l0,0C1037.8,333.3,1069.7,301.4,1109,301.4z"/>
			</defs>
			<clipPath id="SVGID_00000008113820474045582210000000246670570434281346_">
				<use xlink:href="#SVGID_00000057842985625664361270000007178240533297159074_"  style="overflow:visible;"/>
			</clipPath>
			<g style="clip-path:url(#SVGID_00000008113820474045582210000000246670570434281346_);">
				<g>
					
						<rect x="1028.1" y="291.5" transform="matrix(0.9909 -0.1349 0.1349 0.9909 -40.1232 153.0446)" class="st1" width="162.3" height="162.3"/>
					<g>
						<g>
							<defs>
								
									<rect id="SVGID_00000130641799212867532150000000016826318560114323_" x="1028.1" y="291.5" transform="matrix(0.9909 -0.1349 0.1349 0.9909 -40.1232 153.0446)" width="162.3" height="162.3"/>
							</defs>
							<clipPath id="SVGID_00000049208193310821803430000005685589509451348114_">
								<use xlink:href="#SVGID_00000130641799212867532150000000016826318560114323_"  style="overflow:visible;"/>
							</clipPath>
							<g style="clip-path:url(#SVGID_00000049208193310821803430000005685589509451348114_);">
								<g>
									
										<rect x="1028.1" y="291.5" transform="matrix(0.9909 -0.1349 0.1349 0.9909 -40.1232 153.0446)" class="st1" width="162.3" height="162.3"/>
									<g>
										<g>
											<defs>
												
													<rect id="SVGID_00000155852648221278162010000001520172413155388556_" x="1028.1" y="291.5" transform="matrix(0.9909 -0.1349 0.1349 0.9909 -40.1232 153.0446)" width="162.3" height="162.3"/>
											</defs>
											<clipPath id="SVGID_00000026847658279644638240000003870555910207333558_">
												<use xlink:href="#SVGID_00000155852648221278162010000001520172413155388556_"  style="overflow:visible;"/>
											</clipPath>
											<g style="clip-path:url(#SVGID_00000026847658279644638240000003870555910207333558_);">
												<path class="st1" d="M1099.5,302.6c-38.6,5.2-65.7,40.9-60.4,79.5c5.2,38.6,40.9,65.7,79.5,60.4
													c38.6-5.2,65.7-40.9,60.4-79.5C1173.8,324.5,1138.1,297.4,1099.5,302.6L1099.5,302.6z"/>
											</g>
										</g>
									</g>
								</g>
							</g>
						</g>
					</g>
				</g>
			</g>
		</g>
	</g>
</g>
<g>
	<rect x="1104.3" y="335.8" class="st2" width="9.4" height="72.8"/>
	<rect x="1072.6" y="367.5" class="st2" width="72.8" height="9.4"/>
</g>
</svg>
