<?xml version="1.0" encoding="UTF-8"?>
<svg id="Layer_1" data-name="Layer 1" xmlns="http://www.w3.org/2000/svg" viewBox="0 0 1920 842.16">
  <defs>
    <style>
      .cls-1 {
        font-family: BebasNeuePro-Regular, 'Bebas Neue Pro';
        font-size: 121.59px;
      }

      .cls-1, .cls-2, .cls-3, .cls-4 {
        fill: #231f20;
      }

      .cls-5 {
        letter-spacing: 0em;
      }

      .cls-2 {
        font-size: 30.64px;
      }

      .cls-2, .cls-4 {
        font-family: BebasNeuePro-Bold, 'Bebas Neue Pro';
        font-weight: 700;
      }

      .cls-6 {
        letter-spacing: 0em;
      }

      .cls-7 {
        letter-spacing: 0em;
      }

      .cls-8 {
        letter-spacing: 0em;
      }

      .cls-9 {
        letter-spacing: 0em;
      }

      .cls-10 {
        letter-spacing: 0em;
      }

      .cls-11 {
        fill: #00a55b;
      }

      .cls-12 {
        fill: #f1572e;
      }

      .cls-13, .cls-14, .cls-15, .cls-16 {
        fill: #fff;
      }

      .cls-17 {
        fill: #f0c419;
      }

      .cls-18 {
        fill: #fed500;
      }

      .cls-19 {
        fill: #151f4b;
      }

      .cls-20 {
        fill: #894b9d;
      }

      .cls-21 {
        letter-spacing: 0em;
      }

      .cls-22 {
        letter-spacing: 0em;
      }

      .cls-23 {
        letter-spacing: 0em;
      }

      .cls-4 {
        font-size: 26.81px;
      }

      .cls-14 {
        stroke: #f1582d;
      }

      .cls-14, .cls-15, .cls-16 {
        stroke-miterlimit: 10;
      }

      .cls-15 {
        stroke: #fdd501;
      }

      .cls-16 {
        stroke: #00a55a;
      }

      .cls-24 {
        letter-spacing: 0em;
      }

      .cls-25 {
        letter-spacing: 0em;
      }

      .cls-26 {
        letter-spacing: 0em;
      }

      .cls-27 {
        letter-spacing: 0em;
      }

      .cls-28 {
        letter-spacing: 0em;
      }

      .cls-29 {
        letter-spacing: 0em;
      }

      .cls-30 {
        letter-spacing: 0em;
      }

      .cls-31 {
        letter-spacing: 0em;
      }

      .cls-32 {
        letter-spacing: 0em;
      }

      .cls-33 {
        letter-spacing: 0em;
      }
    </style>
  </defs>
  <circle class="cls-17" cx="1431.81" cy="526.18" r="52.99"/>
  <polygon class="cls-18" points="195.54 460.53 83.06 460.53 143.96 526.18 83.06 591.83 195.54 591.83 256.44 526.18 195.54 460.53"/>
  <polygon class="cls-13" points="265.13 438.08 114.19 438.08 195.92 526.18 114.19 614.27 265.13 614.27 346.86 526.18 265.13 438.08"/>
  <path class="cls-18" d="m260.5,448.68l71.89,77.49-71.89,77.49h-122.01l71.89-77.49-71.89-77.49h122.01m.51-1.18h-125.22l1.84,1.98,71.15,76.69-71.15,76.69-1.84,1.98h125.22l.35-.38,71.89-77.49.74-.8-.74-.8-71.89-77.49-.35-.38h0Z"/>
  <polygon class="cls-12" points="442.2 460.53 329.71 460.53 390.62 526.18 329.71 591.83 442.2 591.83 503.1 526.18 442.2 460.53"/>
  <polygon class="cls-13" points="511.78 438.08 360.85 438.08 442.58 526.18 360.85 614.27 511.78 614.27 593.51 526.18 511.78 438.08"/>
  <path class="cls-12" d="m507.16,448.68l71.89,77.49-71.89,77.49h-122.01l71.89-77.49-71.89-77.49h122.01m.51-1.18h-125.22l1.84,1.98,71.15,76.69-71.15,76.69-1.84,1.98h125.22l.35-.38,71.89-77.49.74-.8-.74-.8-71.89-77.49-.35-.38h0Z"/>
  <polygon class="cls-11" points="688.85 460.53 576.37 460.53 637.28 526.18 576.37 591.83 688.85 591.83 749.76 526.18 688.85 460.53"/>
  <polygon class="cls-13" points="758.44 438.08 607.51 438.08 689.24 526.18 607.51 614.27 758.44 614.27 840.17 526.18 758.44 438.08"/>
  <path class="cls-11" d="m753.82,448.68l71.89,77.49-71.89,77.49h-122.01l71.89-77.49-71.89-77.49h122.01m.51-1.18h-125.22l1.84,1.98,71.15,76.69-71.15,76.69-1.84,1.98h125.22l.35-.38,71.89-77.49.74-.8-.74-.8-71.89-77.49-.35-.38h0Z"/>
  <polygon class="cls-19" points="935.51 460.53 823.03 460.53 883.94 526.18 823.03 591.83 935.51 591.83 996.42 526.18 935.51 460.53"/>
  <polygon class="cls-13" points="1005.1 438.08 854.17 438.08 935.9 526.18 854.17 614.27 1005.1 614.27 1086.83 526.18 1005.1 438.08"/>
  <path class="cls-19" d="m1000.48,448.68l71.89,77.49-71.89,77.49h-122.01l71.89-77.49-71.89-77.49h122.01m.51-1.18h-125.22l1.84,1.98,71.15,76.69-71.15,76.69-1.84,1.98h125.22l.35-.38,71.89-77.49.74-.8-.74-.8-71.89-77.49-.35-.38h0Z"/>
  <text class="cls-4" transform="translate(170.02 474.19)"><tspan x="0" y="0">P</tspan><tspan class="cls-27" x="10.32" y="0">r</tspan><tspan x="17.56" y="0">o</tspan><tspan class="cls-26" x="27.59" y="0">t</tspan><tspan class="cls-10" x="34.82" y="0">e</tspan><tspan x="44.9" y="0">ct</tspan></text>
  <text class="cls-4" transform="translate(191.51 500.18)"><tspan x="0" y="0">In</tspan><tspan class="cls-29" x="15.58" y="0">f</tspan><tspan class="cls-25" x="22.63" y="0">orm</tspan><tspan class="cls-32" x="55.73" y="0">a</tspan><tspan class="cls-25" x="65.6" y="0">tion</tspan></text>
  <text class="cls-4" transform="translate(216.23 526.18)"><tspan x="0" y="0">G</tspan><tspan class="cls-32" x="10.51" y="0">a</tspan><tspan class="cls-25" x="20.37" y="0">thering</tspan></text>
  <text class="cls-4" transform="translate(453.88 500.18)"><tspan x="0" y="0">Quoting</tspan></text>
  <text class="cls-4" transform="translate(702.4 500.18)"><tspan x="0" y="0">P</tspan><tspan class="cls-27" x="10.32" y="0">r</tspan><tspan x="17.56" y="0">oposal</tspan></text>
  <text class="cls-4" transform="translate(926.06 479.58)"><tspan x="0" y="0">Policy</tspan><tspan x="0" y="32.17" xml:space="preserve">       Binding</tspan></text>
  <polygon class="cls-20" points="1177.73 460.53 1065.25 460.53 1126.16 526.18 1065.25 591.83 1177.73 591.83 1238.64 526.18 1177.73 460.53"/>
  <polygon class="cls-13" points="1247.32 438.08 1096.39 438.08 1178.12 526.18 1096.39 614.27 1247.32 614.27 1329.05 526.18 1247.32 438.08"/>
  <path class="cls-20" d="m1242.7,448.68l71.89,77.49-71.89,77.49h-122.01l71.89-77.49-71.89-77.49h122.01m.51-1.18h-125.22l1.84,1.98,71.15,76.69-71.15,76.69-1.84,1.98h125.22l.35-.38,71.89-77.49.74-.8-.74-.8-71.89-77.49-.35-.38h0Z"/>
  <text class="cls-4" transform="translate(1168.28 479.58)"><tspan x="0" y="0">Policy</tspan><tspan x="0" y="32.17" xml:space="preserve">       Issuan</tspan><tspan class="cls-7" x="84.34" y="32.17">c</tspan><tspan class="cls-33" x="94.09" y="32.17">e</tspan></text>
  <g>
    <path class="cls-11" d="m705.15,576c.06-.12.12-.23.17-.35.41-.91,1.11-1.41,2.1-1.43,1.3-.03,2.61-.04,3.92,0,1.16.03,1.87.7,2.24,1.79.46-.2.92-.39,1.36-.6.09-.05.17-.18.2-.29.03-.11,0-.24,0-.36,0-7.04,0-14.08-.01-21.12,0-.89.28-1.58.92-2.2,1.39-1.35,2.75-2.73,4.11-4.1.54-.54,1.16-.8,1.93-.8,6.08.01,12.16,0,18.23,0,1.55,0,2.48.93,2.48,2.49,0,2.88,0,5.76,0,8.64,0,.16,0,.33,0,.6.18-.16.29-.26.4-.36,1.04-1.04,2.08-2.08,3.12-3.12.79-.79,1.64-.79,2.44,0,.63.62,1.25,1.25,1.88,1.88.84.84.85,1.67.01,2.5-2.51,2.52-5.03,5.03-7.55,7.54-.22.22-.31.43-.31.74.01,2.99,0,5.97,0,8.96v.52c.21-.11.35-.17.48-.25,1.19-.67,2.36-1.36,3.56-2.01,1.61-.87,3.45.1,3.63,1.92.09.93-.32,1.65-1.04,2.22-1.5,1.19-3,2.4-4.49,3.6-3.87,3.1-7.74,6.22-11.64,9.3-.53.42-1.24.63-1.86.93h-1.26c-.24-.08-.48-.16-.72-.23-5.05-1.61-10.09-3.22-15.14-4.83-.22-.07-.45-.12-.69-.19-.04.14-.07.22-.09.31-.31,1.21-1.15,1.87-2.4,1.88-1.23,0-2.46,0-3.69,0-.72,0-1.33-.27-1.77-.83-.22-.29-.37-.64-.55-.96,0-3.93,0-7.87,0-11.8Zm16.92-27.92c0,1.04,0,2.03,0,3.02,0,.71-.26,1.32-.8,1.79-.46.4-1,.59-1.61.58-.98,0-1.97,0-2.96,0v21.18c1.32-.46,2.63-.57,3.97-.34,5.11.87,10.22,1.74,15.32,2.61.35.06.71.11,1.06.2,1.02.29,1.58,1.02,1.81,2.06.71-.4,1.38-.8,2.07-1.15.27-.14.34-.31.34-.6-.01-2.79,0-5.58,0-8.38,0-.12-.02-.25-.04-.46-.82.83-1.57,1.61-2.35,2.35-.23.22-.52.41-.82.51-1,.36-2.01.7-3.02,1-.38.12-.79.19-1.18.19-4.58.01-9.16,0-13.73,0-.15,0-.3,0-.45-.01-.4-.04-.69-.36-.69-.76,0-.39.29-.72.69-.76.13-.02.27,0,.4,0,4.07,0,8.14,0,12.2,0h.51c.41-1.22.77-2.39,1.19-3.54.14-.39.37-.79.66-1.09,2.06-2.1,4.15-4.17,6.24-6.24.27-.27.4-.54.4-.94-.02-3.36,0-6.72,0-10.09,0-.95-.21-1.17-1.16-1.17-5.82,0-11.65,0-17.47,0h-.56Zm-8.46,37.73c.49.13.92.21,1.33.34,4.97,1.59,9.95,3.17,14.92,4.78.91.29,1.73.22,2.49-.39,5.37-4.31,10.74-8.62,16.11-12.93.5-.4.62-.9.32-1.33-.29-.41-.77-.48-1.32-.17-1.16.65-2.32,1.31-3.48,1.97-3.81,2.15-7.62,4.3-11.42,6.47-.97.55-1.88.57-2.83-.05-.86-.57-1.79-1.05-2.62-1.66-1-.73-2.06-1.09-3.3-.93-.35.05-.72.02-1.08,0-.47-.03-.79-.36-.8-.77-.01-.42.32-.76.81-.8.15-.01.3,0,.45,0,4.35,0,8.7,0,13.06,0,.64,0,1.01-.29,1.05-.8.04-.48-.28-.85-.87-.95-1.52-.27-3.04-.53-4.56-.79-3.65-.62-7.29-1.23-10.93-1.88-1.56-.28-3.03-.19-4.47.52-.81.39-1.64.74-2.47,1.07-.3.12-.4.27-.4.59.02,2.09,0,4.17,0,6.26,0,.49,0,.99,0,1.46Zm-6.93-3.96c0,1.72,0,3.45,0,5.17,0,.75.26,1.02.99,1.02,1.14,0,2.28,0,3.42,0,.7,0,.97-.28.97-.99,0-3.43,0-6.87,0-10.3,0-.73-.27-1-1.01-1-1.11,0-2.22,0-3.33,0-.79,0-1.04.26-1.04,1.06,0,1.68,0,3.36,0,5.04Zm36.52-21.61c-2.37,2.37-4.77,4.77-7.13,7.13.68.68,1.39,1.38,2.06,2.04,2.36-2.35,4.76-4.75,7.13-7.11-.69-.69-1.39-1.39-2.06-2.06Zm6.44-2.27c-.72-.72-1.42-1.42-2.12-2.13-.32.33-.66.67-.95.97.7.7,1.4,1.41,2.11,2.12.31-.31.64-.65.96-.96Zm-5.29,1.01c.71.71,1.42,1.42,2.11,2.11.32-.32.66-.67.95-.96-.69-.69-1.39-1.39-2.08-2.08-.31.3-.66.63-.98.94Zm-15.63,22.95s-.02.06-.03.09c.7.43,1.38.9,2.1,1.27.22.11.6.07.84-.04.56-.25,1.08-.58,1.61-.89.21-.12.41-.24.62-.37-.01-.02-.03-.05-.04-.07h-5.1Zm-8.23-32.51c-.83.82-1.68,1.66-2.51,2.49.56,0,1.19.02,1.81,0,.4-.02.68-.27.69-.69.02-.62,0-1.25,0-1.79Zm13.95,21.62c.8-.27,1.49-.5,2.06-.69-.46-.47-.93-.93-1.37-1.38-.2.6-.42,1.27-.69,2.06Z"/>
    <path class="cls-11" d="m728.92,557.32c-2.91,0-5.82,0-8.73,0-.16,0-.33,0-.49-.02-.44-.06-.72-.38-.71-.79,0-.41.3-.71.74-.76.12-.01.24,0,.36,0,5.93,0,11.86,0,17.79,0,.16,0,.33,0,.49.04.38.09.6.36.6.74,0,.4-.22.68-.63.76-.17.03-.36.03-.54.03-2.96,0-5.91,0-8.87,0Z"/>
    <path class="cls-11" d="m730.86,561.15c-2.04,0-4.08,0-6.12,0-.14,0-.27,0-.41,0-.45-.03-.73-.32-.73-.75,0-.44.29-.77.75-.78.84-.01,1.68,0,2.52,0,3.41,0,6.81,0,10.22,0,.12,0,.24,0,.36,0,.43.03.73.35.74.76,0,.43-.3.75-.76.77-.36.02-.72,0-1.08,0-1.83,0-3.66,0-5.49,0Z"/>
    <path class="cls-11" d="m725.14,567.28c1.69,0,3.39,0,5.08,0,.16,0,.33,0,.49.05.37.11.57.37.55.77-.01.38-.22.62-.58.7-.17.04-.36.05-.53.05-3.34,0-6.69,0-10.03,0-.76,0-1.13-.26-1.14-.78,0-.53.37-.8,1.12-.8,1.68,0,3.36,0,5.04,0Z"/>
    <path class="cls-11" d="m722.83,565c-.97,0-1.95,0-2.92,0-.56,0-.91-.3-.92-.76,0-.47.33-.78.9-.78,1.96,0,3.93,0,5.89,0,.58,0,.9.3.9.78,0,.47-.36.76-.92.77-.97,0-1.95,0-2.92,0Z"/>
    <path class="cls-11" d="m731.27,565c-.72,0-1.44,0-2.16,0-.56,0-.9-.3-.9-.78,0-.48.32-.77.9-.77,1.44,0,2.88,0,4.31,0,.61,0,.94.29.92.79-.01.47-.35.75-.92.76-.72,0-1.44,0-2.16,0Z"/>
    <path class="cls-11" d="m720.52,561.14c-.27,0-.54.01-.81,0-.43-.03-.73-.35-.73-.76,0-.39.29-.74.69-.76.57-.03,1.14-.03,1.71,0,.39.02.69.38.69.76,0,.38-.3.72-.69.75-.28.02-.57,0-.85,0h0Z"/>
    <path class="cls-11" d="m709.35,578.84c-.76,0-1.13-.25-1.14-.77,0-.54.37-.8,1.16-.8.78,0,1.17.27,1.16.79,0,.52-.39.78-1.18.78Z"/>
    <path class="cls-11" d="m709.36,586.52c-.76,0-1.13-.26-1.14-.78,0-.53.36-.78,1.13-.78.14,0,.27,0,.4,0,.47.04.78.35.78.77,0,.43-.34.76-.82.78-.12,0-.24,0-.36,0Z"/>
  </g>
  <g>
    <path class="cls-18" d="m254.56,572.17c-.09.68-.16,1.36-.28,2.04-1.16,7.02-4.71,12.52-10.61,16.48-2.98,2-6.26,3.29-9.82,3.68-9.89,1.09-17.75-2.46-23.44-10.64-2.21-3.19-3.42-6.79-3.82-10.65-1.11-10.92,5.15-20.98,15.23-24.93,2.15-.84,4.38-1.36,6.68-1.53.14,0,.27-.06.41-.09,1.06,0,2.13,0,3.19,0,.59.07,1.17.14,1.76.22,3.98.58,7.63,2.02,10.85,4.43,5.29,3.95,8.48,9.19,9.55,15.71.11.69.19,1.39.28,2.08v3.19Zm-2.19-1.59c.01-12.04-9.78-21.83-21.84-21.84-12.04-.01-21.84,9.78-21.85,21.84,0,12.04,9.78,21.83,21.84,21.84,12.04,0,21.84-9.78,21.85-21.84Z"/>
    <path class="cls-18" d="m225.07,569.26c.12-.47.2-.86.32-1.25.03-.1.14-.22.24-.25,1.43-.49,2.81-1.13,4.37-1.15,1.22-.02,2.33.23,3.21,1.14.59.61.77,1.37.76,2.19-.01,1.51-.55,2.9-.93,4.33-.36,1.35-.7,2.72-1.04,4.07-.02.09-.03.19-.04.28-.11,1.23.4,1.78,1.64,1.78.36,0,.72-.01,1.08-.07.34-.05.66-.17,1.07-.29-.11.45-.2.85-.32,1.24-.02.08-.14.16-.23.19-1.08.36-2.14.83-3.25,1.04-1.52.29-3.04.2-4.28-.92-.75-.68-1-1.55-.93-2.54.11-1.66.71-3.19,1.13-4.77.28-1.07.6-2.13.81-3.22.41-2.08-.67-2.41-2.36-2.15-.39.06-.78.21-1.24.35Z"/>
    <path class="cls-18" d="m232.93,558.56c1.58,0,2.9,1.1,3.05,2.48.22,2-1.69,3.27-3.31,3.12-1.45-.13-2.61-1.12-2.8-2.35-.27-1.76,1.13-3.25,3.06-3.25Z"/>
  </g>
  <g>
    <path class="cls-12" d="m492.05,546.54c.71.21,1.46.34,2.13.65,2.96,1.39,4.45,3.79,4.49,7.03.05,3.7.01,7.41.01,11.11,0,.8-.26,1.48-1,1.88-.64.35-1.3.32-1.91-.07-.67-.43-.89-1.09-.89-1.85,0-3.66,0-7.31,0-10.97,0-.92-.18-1.77-.74-2.51-.78-1.04-1.85-1.52-3.12-1.53-7.6-.01-15.19-.02-22.79,0-2.28,0-3.87,1.6-3.87,3.87-.01,10.93-.01,21.85,0,32.78,0,2.28,1.62,3.85,3.93,3.86,2.02.01,4.03,0,6.05,0,1.02,0,1.77.7,1.88,1.72.1.9-.52,1.76-1.43,1.98-.16.04-.34.05-.51.05-2.09,0-4.19.01-6.28,0-3.9-.03-7.13-3.09-7.39-6.99-.03-.45-.05-.91-.05-1.36,0-10.6,0-21.19,0-31.79,0-2.98,1.19-5.34,3.79-6.85.78-.45,1.71-.63,2.57-.93.09-.03.17-.06.26-.09,8.28,0,16.57,0,24.85,0Z"/>
    <path class="cls-12" d="m503.62,577.43c.05,1.68-.52,3.12-1.71,4.31-1.23,1.23-2.45,2.45-3.68,3.68-2.09,2.09-4.18,4.17-6.27,6.26-.41.41-.88.68-1.44.83-2.31.63-4.62,1.28-6.93,1.92-1.21.33-2.21-.08-2.52-1.11-.12-.41-.12-.91,0-1.32.68-2.36,1.4-4.72,2.14-7.07.13-.4.37-.8.67-1.1,3.36-3.38,6.73-6.75,10.12-10.1,1.57-1.56,3.49-2.06,5.6-1.44,2.14.63,3.44,2.12,3.93,4.3.01.06.03.12.04.18.02.22.04.44.06.65Zm-18,12.48c.16-.02.24-.02.31-.04,1.08-.3,2.16-.59,3.23-.91.19-.06.38-.2.53-.35,2.09-2.08,4.18-4.16,6.26-6.25.11-.11.21-.22.24-.25-.88-.89-1.75-1.75-2.62-2.63.03-.02,0,0-.02.02-2.22,2.21-4.44,4.43-6.66,6.65-.08.08-.17.19-.2.3-.35,1.13-.7,2.26-1.07,3.47Zm13.39-10.63c.64-.49.98-1.17.8-2.01-.16-.72-.63-1.2-1.36-1.39-.89-.23-1.53.17-2.06.79.87.87,1.73,1.72,2.63,2.61Z"/>
    <path class="cls-12" d="m479.62,557.8c3.22,0,6.44,0,9.66,0,.88,0,1.63.59,1.82,1.41.21.86-.18,1.75-.97,2.13-.26.12-.57.2-.85.2-6.44.01-12.88.01-19.32,0-1.05,0-1.89-.84-1.89-1.87,0-1.03.83-1.87,1.89-1.87,3.22,0,6.44,0,9.66,0Z"/>
    <path class="cls-12" d="m479.61,569.04c-3.22,0-6.44,0-9.66,0-.83,0-1.52-.52-1.77-1.28-.25-.77-.01-1.63.67-2.08.31-.2.71-.37,1.08-.37,6.47-.02,12.94-.02,19.41-.01,1.01,0,1.84.87,1.83,1.88,0,1.01-.83,1.86-1.85,1.86-3.24.01-6.47,0-9.71,0Z"/>
    <path class="cls-12" d="m475.83,576.55c-1.95,0-3.9,0-5.86,0-1.01,0-1.76-.7-1.88-1.72-.1-.88.53-1.75,1.44-1.97.15-.04.31-.04.46-.04,3.89,0,7.78,0,11.67,0,1.03,0,1.77.68,1.9,1.7.11.88-.5,1.76-1.42,1.99-.21.05-.43.05-.65.05-1.89,0-3.78,0-5.67,0Z"/>
  </g>
  <g>
    <path class="cls-19" d="m1198.77,551.07c.24-.85.5-1.7,1.07-2.41,1.08-1.36,2.46-2.11,4.21-2.11,7.41,0,14.83,0,22.24,0,2.96,0,5.34,2.33,5.36,5.29.02,3.46,0,6.91,0,10.37,0,.93-.64,1.62-1.48,1.61-.83,0-1.44-.66-1.44-1.59,0-3.35,0-6.7-.01-10.05,0-.43-.05-.89-.22-1.28-.42-.99-1.24-1.45-2.3-1.45-1.77-.01-3.53,0-5.3,0-5.5,0-10.99,0-16.49,0-1.77,0-2.75.98-2.75,2.74,0,9.77,0,19.53,0,29.3,0,1.77.98,2.75,2.74,2.75,4.92,0,9.84,0,14.76,0,.72,0,1.23.36,1.45,1,.2.59.01,1.24-.52,1.6-.24.16-.55.28-.83.28-5.16.02-10.33.03-15.49,0-2.3-.01-4.38-1.85-4.9-4.23-.02-.1-.07-.19-.1-.29,0-10.51,0-21.02,0-31.52Z"/>
    <path class="cls-19" d="m1233.2,592.92c-2.52-1.17-4.83-2.66-6.81-4.62-2.07-2.05-3.59-4.42-4.17-7.31-.14-.69-.23-1.4-.24-2.11-.03-2.67-.01-5.34-.01-8.02,0-.78.33-1.24,1.06-1.5,3.32-1.14,6.64-2.28,9.97-3.38.34-.11.79-.11,1.14,0,3.31,1.1,6.62,2.23,9.92,3.36.8.27,1.11.72,1.11,1.56,0,2.42-.03,4.83,0,7.25.06,3.55-1.23,6.56-3.53,9.18-2.13,2.41-4.71,4.21-7.64,5.53-.03.01-.05.04-.07.05h-.72Zm8.99-17.34h.07c0-1.1-.02-2.2,0-3.31,0-.34-.09-.5-.42-.61-2.66-.89-5.3-1.8-7.96-2.68-.2-.07-.45-.06-.65,0-2.67.89-5.33,1.81-8,2.7-.33.11-.39.27-.39.58.01,2.02,0,4.05,0,6.07,0,1.87.48,3.61,1.45,5.2,1.71,2.79,4.21,4.69,7.04,6.21.12.07.35.04.49-.03,2.16-1.16,4.12-2.57,5.72-4.45,1.43-1.68,2.46-3.55,2.62-5.79.09-1.29.02-2.59.02-3.89Z"/>
    <path class="cls-19" d="m1215.21,561.99c2.99,0,5.98,0,8.97,0,.7,0,1.24.24,1.54.89.4.89-.21,1.91-1.22,2.03-.1.01-.21,0-.32,0-5.99,0-11.99,0-17.98,0-1,0-1.66-.62-1.63-1.53.02-.69.53-1.27,1.22-1.36.21-.03.42-.03.63-.03,2.93,0,5.86,0,8.79,0Z"/>
    <path class="cls-19" d="m1211.31,572.63c-1.72,0-3.44,0-5.16,0-.93,0-1.57-.59-1.58-1.43,0-.87.63-1.47,1.58-1.47,3.45,0,6.91,0,10.36,0,.93,0,1.57.58,1.58,1.43.01.86-.64,1.47-1.59,1.47-1.73,0-3.47,0-5.2,0Z"/>
    <path class="cls-19" d="m1210.39,554.25c1.42,0,2.84,0,4.26,0,.73,0,1.31.45,1.48,1.1.16.6-.1,1.28-.67,1.59-.25.14-.57.21-.86.22-2.82.02-5.65.02-8.47,0-.93,0-1.56-.61-1.56-1.46,0-.87.65-1.46,1.61-1.46,1.4,0,2.81,0,4.21,0Z"/>
    <path class="cls-19" d="m1232.91,580.56c1.06-1.4,2.07-2.75,3.08-4.1.55-.74,1.1-1.48,1.65-2.21.53-.7,1.42-.87,2.07-.4.68.49.82,1.39.28,2.12-1.9,2.55-3.81,5.1-5.73,7.64-.59.78-1.55.84-2.25.15-1.28-1.26-2.55-2.53-3.81-3.81-.6-.61-.6-1.49-.03-2.07.59-.6,1.47-.59,2.1.03.87.86,1.72,1.73,2.63,2.65Z"/>
  </g>
  <g>
    <path class="cls-3" d="m1425.07,575.2h-7.9c-1.29-.17-2.59-.32-3.88-.51-11-1.64-20.76-6.03-29.11-13.39-9.84-8.67-16.01-19.47-18.37-32.39-.36-1.97-.59-3.96-.88-5.94,0-2.63,0-5.27,0-7.9.16-1.26.31-2.53.49-3.79,1.61-10.89,5.82-20.66,13.16-28.88,13.86-15.52,31.25-21.91,51.8-18.77,14.35,2.19,26.08,9.41,35.01,20.86,9.72,12.45,13.45,26.66,11.39,42.29-1.46,11.08-6.02,20.85-13.42,29.23-8.66,9.81-19.45,15.96-32.35,18.31-1.97.36-3.96.59-5.94.88Zm-3.89-105.34c-26.98-.09-49.07,21.92-49.23,49.04-.16,26.96,21.99,49.18,49.1,49.28,26.97.1,49.16-21.92,49.21-49.04.05-27.12-21.74-49.09-49.08-49.28Z"/>
    <path class="cls-3" d="m1417.61,515.51c0-.7,0-1.24,0-1.79,0-7.35,0-14.7,0-22.05,0-2.25,1.41-3.8,3.47-3.81,2.11-.01,3.54,1.54,3.54,3.85,0,7.5,0,14.99,0,22.49v1.3c.52,0,.94,0,1.37,0,7.61,0,15.22,0,22.82,0,1.72,0,3.21,1.32,3.44,2.95.24,1.76-.77,3.41-2.46,3.91-.48.14-1.01.15-1.51.15-7.43,0-14.85,0-22.28,0h-1.38c0,.45,0,.87,0,1.29,0,7.61,0,15.21,0,22.82,0,1.8-1.3,3.31-2.98,3.52-1.76.23-3.41-.8-3.89-2.49-.13-.45-.14-.94-.14-1.41,0-7.46,0-14.92,0-22.38v-1.35c-.48,0-.9,0-1.32,0-7.61,0-15.22,0-22.82,0-1.74,0-3.24-1.28-3.49-2.9-.28-1.79.77-3.5,2.51-3.98.45-.12.94-.12,1.41-.13,7.46,0,14.92,0,22.39,0,.4,0,.79,0,1.33,0Z"/>
  </g>
  <rect class="cls-13" x="1545.95" y="326.76" width="303.5" height="72.36"/>
  <rect class="cls-15" x="1553.24" y="332.57" width="288.93" height="60.74"/>
  <text class="cls-2" transform="translate(1581.1 371.92)"><tspan x="0" y="0">Ce</tspan><tspan class="cls-8" x="23.13" y="0">r</tspan><tspan x="31.71" y="0">tific</tspan><tspan class="cls-31" x="70.74" y="0">a</tspan><tspan class="cls-28" x="82.02" y="0">t</tspan><tspan class="cls-21" x="90.29" y="0">e of insu</tspan><tspan class="cls-23" x="171.2" y="0">r</tspan><tspan x="179.35" y="0">an</tspan><tspan class="cls-9" x="202.67" y="0">c</tspan><tspan class="cls-22" x="213.82" y="0">e</tspan></text>
  <text class="cls-1" transform="translate(622.09 197.88)"><tspan x="0" y="0">Insu</tspan><tspan class="cls-30" x="155.87" y="0">r</tspan><tspan class="cls-5" x="187.12" y="0">an</tspan><tspan class="cls-6" x="278.55" y="0">c</tspan><tspan x="322.44" y="0">e </tspan><tspan class="cls-24" x="387.25" y="0">W</tspan><tspan x="454.97" y="0">orkflow </tspan></text>
  <rect class="cls-13" x="1545.95" y="426.15" width="303.5" height="72.36"/>
  <rect class="cls-14" x="1553.24" y="431.96" width="288.93" height="60.74"/>
  <text class="cls-2" transform="translate(1625.41 471.31)"><tspan x="0" y="0">Endo</tspan><tspan class="cls-28" x="46.23" y="0">r</tspan><tspan x="54.54" y="0">sements</tspan></text>
  <rect class="cls-13" x="1545.95" y="525.54" width="303.5" height="72.36"/>
  <rect class="cls-16" x="1553.24" y="531.35" width="288.93" height="60.74"/>
  <text class="cls-2" transform="translate(1597.65 570.7)"><tspan x="0" y="0">Claims Management</tspan></text>
  <rect class="cls-13" x="1545.95" y="624.93" width="303.5" height="72.36"/>
  <rect class="cls-16" x="1553.24" y="630.74" width="288.93" height="60.74"/>
  <text class="cls-2" transform="translate(1618.48 670.09)"><tspan x="0" y="0">Policy Se</tspan><tspan class="cls-8" x="84.59" y="0">r</tspan><tspan x="93.17" y="0">vicing</tspan></text>
  <g>
    <path class="cls-3" d="m988,544.79c.52.34.66.83.65,1.44-.02,7.49,0,14.97-.02,22.46,0,.37.1.59.43.78.93.54,1.83,1.14,2.76,1.69.53.32.8.74.78,1.38-.03.95,0,1.91,0,2.87,0,.5-.28.83-.7.83-.42,0-.7-.32-.7-.82,0-.86-.01-1.72,0-2.58,0-.26-.07-.42-.3-.56-2.93-1.8-5.86-3.62-8.78-5.44-.24-.15-.4-.14-.63,0-2.92,1.82-5.85,3.63-8.78,5.43-.23.14-.3.3-.3.57,0,2.41-.01,4.82.01,7.23.02,2.25.88,4.13,2.61,5.59,2.18,1.85,4.36,3.72,6.54,5.57.07.06.14.11.24.19,1.28-1.08,2.54-2.16,3.8-3.23.98-.83,1.95-1.67,2.93-2.5,1.76-1.48,2.62-3.38,2.65-5.67,0-.42-.01-.85,0-1.27.02-.41.29-.63.68-.64.38-.01.68.21.71.61.18,2.6-.27,5.04-2.09,7.03-.68.75-1.48,1.4-2.25,2.06-1.79,1.54-3.59,3.07-5.4,4.6-.82.69-1.29.69-2.1,0-1.14-.96-2.26-1.94-3.41-2.88-.21-.17-.52-.29-.79-.29-4.24-.02-8.49-.01-12.73-.01-.14,0-.28,0-.42,0-.43-.04-.73-.33-.74-.71,0-.38.28-.68.72-.72.15-.02.31-.01.47-.01,3.59,0,7.17,0,10.76,0h.55s.05-.07.08-.1c-2.03-1.5-3.59-3.31-4.07-5.88h-.59c-3.27,0-6.55,0-9.82,0-.11,0-.22,0-.33,0-.61,0-.96-.28-.96-.73,0-.45.35-.72.97-.72,3.32,0,6.64,0,9.96,0,.18,0,.37,0,.57,0v-1.84c-.19,0-.37,0-.55,0-3.23,0-6.45,0-9.68,0-.11,0-.22,0-.33,0-.6-.01-.96-.3-.94-.75.01-.44.35-.7.94-.7,3.32,0,6.64,0,9.96,0,.19,0,.37,0,.59,0v-1.84h-.56c-3.27,0-6.55,0-9.82,0-.74,0-1.1-.24-1.11-.72,0-.49.36-.73,1.1-.73,3.27,0,6.55,0,9.82,0h.6v-1.84c-.88,0-1.77,0-2.66,0-.17,0-.35,0-.52,0-.43-.05-.73-.34-.73-.72,0-.39.31-.71.77-.72,1.03-.02,2.07-.08,3.1.01,1.36.12,2.55-.18,3.62-1.04.35-.28.75-.48,1.11-.82h-.49c-4.86,0-9.71,0-14.57,0-.22,0-.48.04-.64-.07-.22-.15-.45-.4-.5-.65-.07-.33.16-.59.51-.68.15-.04.31-.04.46-.04,5.04,0,10.09,0,15.13,0,.75,0,.98.23.99,1,1.34-.83,2.67-1.65,3.99-2.48.09-.06.17-.22.17-.34,0-4.2,0-8.39,0-12.59,0-.01-.01-.03-.04-.07h-25.39v35.04c.17,0,.33.02.49.02,1.28,0,2.57,0,3.85,0,.14,0,.28,0,.42.01.44.05.72.35.71.73-.01.38-.32.67-.75.7-.31.02-.63,0-.94,0-1.33,0-2.66,0-3.99,0-.87,0-1.23-.36-1.23-1.22,0-11.85,0-23.71,0-35.56,0-.84.34-1.19,1.2-1.2.65,0,1.31,0,2.01,0,0-.71,0-1.36,0-2.02,0-.82.39-1.21,1.2-1.22.66,0,1.31,0,2.03,0,0-.66.02-1.28,0-1.9-.02-.59.16-1.04.71-1.31h26.97Zm-.83,23.48v-22.04h-25.36v1.76h.65c7.17,0,14.35,0,21.52,0,.16,0,.31,0,.47,0,.54.05.93.39.94.93.03,1.82.02,3.63.01,5.45,0,.42-.27.66-.68.7-.38.03-.69-.28-.74-.7-.01-.12,0-.25,0-.38,0-1.35,0-2.69,0-4.04,0-.17-.01-.33-.02-.49h-25.39v1.76c.23,0,.43,0,.63,0,7.22,0,14.44,0,21.66,0,1.01,0,1.31.31,1.31,1.32,0,4.04,0,8.08,0,12.12,0,.19,0,.37,0,.53.6.36,1.17.7,1.8,1.08v-.61c0-2.54,0-5.07,0-7.61,0-.14,0-.28,0-.42.05-.4.35-.68.71-.68.37,0,.66.27.7.68.02.17.01.34.01.52,0,2.87,0,5.73,0,8.6,0,.18.04.45.17.53.49.35,1.02.65,1.59,1Z"/>
    <path class="cls-3" d="m988.27,577.76c0,3.54-2.92,6.45-6.47,6.45-3.56,0-6.49-2.94-6.48-6.49.01-3.58,2.93-6.45,6.57-6.43,3.5.01,6.38,2.94,6.38,6.47Zm-11.49-.02c0,2.78,2.21,5.01,4.99,5.03,2.8.02,5.04-2.2,5.08-5,.03-2.74-2.26-5.06-5.03-5.07-2.77-.01-5.04,2.26-5.04,5.04Z"/>
    <path class="cls-3" d="m968.03,560.61c2.49,0,4.98,0,7.47,0,.17,0,.35,0,.51.03.35.07.55.31.57.66.01.36-.18.63-.55.72-.17.04-.34.04-.51.04-4.99,0-9.99,0-14.98,0-.14,0-.28,0-.42-.02-.4-.07-.68-.39-.64-.74.04-.39.28-.62.67-.67.14-.02.28-.01.42-.01,2.49,0,4.98,0,7.47,0Z"/>
    <path class="cls-3" d="m968.07,563.89c2.47,0,4.95,0,7.42,0,.17,0,.35,0,.51.03.35.07.56.31.57.66.01.36-.18.63-.55.72-.17.04-.34.04-.51.04-4.99,0-9.99,0-14.98,0-.14,0-.28,0-.42-.02-.4-.07-.68-.38-.64-.74.04-.39.28-.62.67-.67.14-.02.28-.01.42-.01,2.5,0,5.01,0,7.51,0Z"/>
    <path class="cls-3" d="m968.07,555.81c1.46,0,2.91,0,4.37,0,.22,0,.5.04.65.17.16.14.29.44.26.64-.03.2-.25.42-.44.54-.15.1-.39.08-.59.08-2.86,0-5.73,0-8.59,0-.09,0-.19,0-.28,0-.47-.04-.78-.32-.78-.71,0-.41.32-.72.81-.73,1.53-.01,3.07,0,4.6,0Z"/>
    <path class="cls-3" d="m962.86,570.47c.83,0,1.66,0,2.49,0,.57,0,.91.29.91.73,0,.42-.34.71-.88.72-1.67,0-3.35,0-5.02,0-.54,0-.87-.29-.88-.71-.01-.44.33-.73.9-.73.83,0,1.66,0,2.49,0Z"/>
    <path class="cls-3" d="m981.56,578.27c.73-.74,1.41-1.43,2.09-2.11.26-.26.59-.39.88-.15.19.16.29.48.34.74.03.12-.13.31-.24.43-.82.84-1.65,1.67-2.48,2.49-.39.38-.76.38-1.15.01-.53-.51-1.05-1.03-1.56-1.56-.36-.36-.38-.77-.08-1.08.31-.31.7-.29,1.07.07.37.36.72.74,1.13,1.15Z"/>
  </g>
</svg>