<svg width="40" height="40" viewBox="0 0 40 40" fill="none" xmlns="http://www.w3.org/2000/svg">
<path d="M4.33398 19.99C4.33398 28.6281 11.3618 35.6553 19.9999 35.6553C28.6384 35.6546 35.6659 28.6271 35.6659 19.9893C35.6659 11.3518 28.6384 4.32496 19.9999 4.32496C11.3618 4.32496 4.33398 11.3521 4.33398 19.99ZM34.4159 19.9893C34.4159 27.9375 27.9493 34.4046 19.9999 34.4053C12.0509 34.4053 5.58398 27.9387 5.58398 19.99C5.58398 12.0415 12.0509 5.57496 19.9999 5.57496C27.9493 5.57496 34.4159 12.0412 34.4159 19.9893ZM21.5368 15.4565L24.9043 19.3643L13.7318 19.3643C13.3868 19.3643 13.1068 19.6443 13.1068 19.9893C13.1068 20.3343 13.3868 20.6143 13.7318 20.6143L24.9043 20.6143L21.5368 24.5228C21.3115 24.7843 21.3409 25.1793 21.6024 25.4043C21.864 25.6293 22.259 25.6003 22.484 25.3387L27.0927 19.9893L22.484 14.6406C22.2584 14.379 21.864 14.3496 21.6024 14.5753C21.3409 14.8003 21.3115 15.195 21.5368 15.4565Z" fill="white"/>
</svg>
