<svg width="75" height="50" viewBox="0 0 75 50" fill="none" xmlns="http://www.w3.org/2000/svg">
<g clip-path="url(#clip0_7_22)">
<path d="M40.579 50L74.3174 50L74.3174 16.2617L51.2586 16.2617L47.1131 2.38531C46.9044 1.6793 46.472 1.08191 45.9087 0.662347C45.3475 0.242788 44.6511 -2.59351e-06 43.9132 -2.65802e-06C42.0709 -2.81907e-06 40.578 1.49295 40.578 3.33518L40.578 50L40.579 50Z" fill="#F5F5F5"/>
<path d="M-6.10352e-05 50L33.7383 50L33.7383 16.2617L10.6795 16.2617L6.534 2.38531C6.32529 1.6793 5.89295 1.08191 5.32963 0.662347C4.76844 0.242788 4.07201 -2.59351e-06 3.33406 -2.65802e-06C1.49183 -2.81908e-06 -0.00111728 1.49295 -0.00111744 3.33518L-0.00112152 50L-6.10352e-05 50Z" fill="#F5F5F5"/>
</g>
<defs>
<clipPath id="clip0_7_22">
<rect width="74.3174" height="50" fill="white" transform="translate(74.3174 50) rotate(-180)"/>
</clipPath>
</defs>
</svg>
