<svg width="80" height="80" viewBox="0 0 80 80" fill="none" xmlns="http://www.w3.org/2000/svg">
<path d="M53.2125 25.225V13.175C53.2125 12.8435 53.0807 12.5255 52.8464 12.2911C52.6119 12.0567 52.294 11.925 51.9625 11.925H10.2625C9.93093 11.925 9.61299 12.0567 9.37856 12.2911C9.14415 12.5255 9.01245 12.8435 9.01245 13.175V25.225C9.01245 25.5565 9.14415 25.8745 9.37856 26.1089C9.61299 26.3433 9.93093 26.475 10.2625 26.475H51.9625C52.294 26.475 52.6119 26.3433 52.8464 26.1089C53.0807 25.8745 53.2125 25.5565 53.2125 25.225ZM50.7125 23.975H11.5125V14.425H50.7125V23.975Z" fill="#E38B29"/>
<path d="M19.0875 31.675H12.1625C11.831 31.675 11.513 31.8067 11.2786 32.0411C11.0442 32.2755 10.9125 32.5935 10.9125 32.925V39.85C10.9125 40.1815 11.0442 40.4995 11.2786 40.7339C11.513 40.9682 11.831 41.1 12.1625 41.1H19.0875C19.419 41.1 19.737 40.9682 19.9714 40.7339C20.2057 40.4995 20.3375 40.1815 20.3375 39.85V32.925C20.3375 32.5935 20.2057 32.2755 19.9714 32.0411C19.737 31.8067 19.419 31.675 19.0875 31.675ZM17.8375 38.6H13.4125V34.175H17.8375V38.6Z" fill="#E38B29"/>
<path d="M19.0875 45.1875H12.1625C11.831 45.1875 11.513 45.3191 11.2786 45.5536C11.0442 45.788 10.9125 46.106 10.9125 46.4375V53.3625C10.9125 53.694 11.0442 54.012 11.2786 54.2464C11.513 54.4807 11.831 54.6125 12.1625 54.6125H19.0875C19.419 54.6125 19.737 54.4807 19.9714 54.2464C20.2057 54.012 20.3375 53.694 20.3375 53.3625V46.4375C20.3375 46.106 20.2057 45.788 19.9714 45.5536C19.737 45.3191 19.419 45.1875 19.0875 45.1875ZM17.8375 52.1125H13.4125V47.6875H17.8375V52.1125Z" fill="#E38B29"/>
<path d="M19.0875 58.75H12.1625C11.831 58.75 11.513 58.8818 11.2786 59.1161C11.0442 59.3505 10.9125 59.6685 10.9125 60V66.875C10.9125 67.2065 11.0442 67.5245 11.2786 67.7589C11.513 67.9932 11.831 68.125 12.1625 68.125H19.0875C19.419 68.125 19.737 67.9932 19.9714 67.7589C20.2057 67.5245 20.3375 67.2065 20.3375 66.875V60C20.3375 59.6685 20.2057 59.3505 19.9714 59.1161C19.737 58.8818 19.419 58.75 19.0875 58.75ZM17.8375 65.675H13.4125V61.25H17.8375V65.675Z" fill="#E38B29"/>
<path d="M34.575 58.75H27.65C27.3185 58.75 27.0005 58.8818 26.7661 59.1161C26.5317 59.3505 26.4 59.6685 26.4 60V66.875C26.4 67.2065 26.5317 67.5245 26.7661 67.7589C27.0005 67.9932 27.3185 68.125 27.65 68.125H34.575C34.9065 68.125 35.2245 67.9932 35.4589 67.7589C35.6932 67.5245 35.825 67.2065 35.825 66.875V60C35.825 59.6685 35.6932 59.3505 35.4589 59.1161C35.2245 58.8818 34.9065 58.75 34.575 58.75ZM33.325 65.675H28.9V61.25H33.325V65.675Z" fill="#E38B29"/>
<path d="M74.6375 66.775C74.5004 66.6363 74.3543 66.5069 74.2 66.3875L60.2125 54.6875C62.128 51.6161 62.9953 48.0063 62.6843 44.3999C62.3731 40.7936 60.9005 37.3855 58.4875 34.6875V10C58.4875 8.3424 57.829 6.75269 56.6569 5.58059C55.4849 4.40847 53.8951 3.75 52.2375 3.75H10C8.3424 3.75 6.75269 4.40847 5.58059 5.58059C4.40847 6.75269 3.75 8.3424 3.75 10V70C3.75 71.6576 4.40847 73.2474 5.58059 74.4194C6.75269 75.5915 8.3424 76.25 10 76.25H52.2375C53.8951 76.25 55.4849 75.5915 56.6569 74.4194C57.829 73.2474 58.4875 71.6576 58.4875 70V64.75L66.375 74.1875C71.4375 80 79.8625 72.5 74.6375 66.775ZM56.0375 55.975C53.696 58.3111 50.617 59.7634 47.325 60.0843C44.033 60.4053 40.7316 59.575 37.983 57.7351C35.2344 55.8953 33.2085 53.1595 32.2505 49.9936C31.2925 46.8278 31.4615 43.4278 32.7289 40.3726C33.9961 37.3174 36.2834 34.796 39.201 33.2379C42.1186 31.6798 45.4861 31.1811 48.73 31.8271C51.974 32.473 54.8936 34.2235 56.9919 36.7804C59.0901 39.3373 60.2371 42.5424 60.2375 45.85C60.2411 47.7315 59.8719 49.595 59.151 51.3329C58.43 53.0708 57.3719 54.6485 56.0375 55.975ZM44.4 62.5875C44.9 62.5875 45.4125 62.6625 45.9125 62.6625C46.8848 62.6563 47.8549 62.5685 48.8125 62.4V65.625H44.4V62.5875ZM29.2 47.6875C29.362 49.206 29.7321 50.6949 30.3 52.1125H28.9V47.6875H29.2ZM33.325 34.7125C32.2874 35.8803 31.4204 37.189 30.75 38.6H28.9V34.175H33.325V34.7125ZM55.9875 70C55.9875 70.9945 55.5924 71.9484 54.8891 72.6516C54.1859 73.3549 53.2321 73.75 52.2375 73.75H10C9.00544 73.75 8.05161 73.3549 7.34835 72.6516C6.64509 71.9484 6.25 70.9945 6.25 70V10C6.25 9.00544 6.64509 8.05161 7.34835 7.34835C8.05161 6.64509 9.00544 6.25 10 6.25H52.2375C53.2321 6.25 54.1859 6.64509 54.8891 7.34835C55.5924 8.05161 55.9875 9.00544 55.9875 10V32.4C53.0609 30.2143 49.5028 29.0395 45.85 29.0531C42.1973 29.0666 38.6479 30.2676 35.7375 32.475C35.6469 32.2401 35.4874 32.038 35.28 31.8953C35.0725 31.7525 34.8268 31.6758 34.575 31.675H27.65C27.3185 31.675 27.0005 31.8068 26.7661 32.0411C26.5318 32.2755 26.4 32.5935 26.4 32.925V39.85C26.4 40.1815 26.5318 40.4995 26.7661 40.7339C27.0005 40.9683 27.3185 41.1 27.65 41.1H29.775C29.3878 42.4299 29.1694 43.8031 29.125 45.1875H27.65C27.3185 45.1875 27.0005 45.3193 26.7661 45.5536C26.5318 45.788 26.4 46.106 26.4 46.4375V53.3625C26.4 53.694 26.5318 54.012 26.7661 54.2464C27.0005 54.4808 27.3185 54.6125 27.65 54.6125H31.5625C32.7071 56.4815 34.2096 58.1061 35.9835 59.3931C37.7575 60.6801 39.7681 61.6043 41.9 62.1125V66.875C41.9 67.2065 42.0318 67.5245 42.2661 67.7589C42.5005 67.9933 42.8185 68.125 43.15 68.125H50.0625C50.394 68.125 50.712 67.9933 50.9464 67.7589C51.1808 67.5245 51.3125 67.2065 51.3125 66.875V61.7625C52.486 61.3583 53.6133 60.8303 54.675 60.1875L55.925 61.7625L55.9875 70ZM72.85 72.8625C72.5439 73.1635 72.1781 73.3971 71.7763 73.5483C71.3745 73.6994 70.9454 73.7646 70.5168 73.7399C70.0883 73.7153 69.6695 73.601 69.2878 73.4046C68.9059 73.2084 68.5695 72.9343 68.3 72.6L56.7125 58.75C57.0875 58.4375 58.4375 57.0875 58.7375 56.7375L72.5875 68.325C72.9214 68.5933 73.1953 68.9286 73.3915 69.3094C73.5878 69.6901 73.7019 70.1079 73.7266 70.5355C73.7514 70.963 73.6861 71.3911 73.5351 71.792C73.3841 72.1928 73.1508 72.5575 72.85 72.8625Z" fill="#E38B29"/>
</svg>
