<svg width="100" height="100" viewBox="0 0 100 100" fill="none" xmlns="http://www.w3.org/2000/svg">
<path d="M23.3871 63.7095C23.3871 58.8063 19.4355 54.8224 14.5484 54.8063C9.64515 54.8063 5.66128 58.7579 5.64515 63.645C5.64515 66.5643 7.06451 69.2901 9.4516 70.9514C4.19354 71.0966 0 75.3869 0 80.645V98.3869C0 99.274 0.725806 99.9998 1.6129 99.9998H27.4193C28.3064 99.9998 29.0322 99.274 29.0322 98.3869V80.645C29.0322 75.3869 24.8387 71.0966 19.5806 70.9675C21.9516 69.3224 23.3709 66.6127 23.3871 63.7095ZM25.8064 80.645V96.774H3.2258V80.645C3.2258 77.0804 6.1129 74.1933 9.67741 74.1933H12.2742L9.75805 81.7417C9.59676 82.2095 9.67741 82.7256 9.9516 83.1449L13.1774 87.9837C13.6774 88.7256 14.6774 88.9191 15.4193 88.4191C15.5968 88.3062 15.7419 88.1611 15.8548 87.9837L19.0806 83.1449C19.3548 82.7256 19.4355 82.2095 19.2742 81.7417L16.758 74.1933H19.3548C22.9193 74.1933 25.8064 77.0804 25.8064 80.645ZM13.0645 82.0159L14.5161 77.6772L15.9677 82.0159L14.5161 84.1933L13.0645 82.0159ZM14.5161 69.3546C11.4032 69.3546 8.87096 66.8224 8.87096 63.7095C8.87096 60.5966 11.4032 58.0643 14.5161 58.0643C17.629 58.0643 20.1613 60.5966 20.1613 63.7095C20.1613 66.8224 17.629 69.3546 14.5161 69.3546Z" fill="#E38B29"/>
<path d="M64.7902 13.516L63.4676 13.3063C58.7902 12.4999 54.4677 10.2418 51.1451 6.85471C50.516 6.22568 49.4999 6.22568 48.8709 6.85471C45.5483 10.2418 41.2257 12.4999 36.5483 13.3063L35.2257 13.516C34.387 13.6612 33.8064 14.4353 33.9032 15.2902C34.9032 23.8869 39.5322 31.645 46.629 36.6127L49.0644 38.4031C49.3386 38.5966 49.6773 38.7095 50.016 38.7095C50.3709 38.7095 50.7257 38.5966 50.9999 38.3708L54.0483 36.016C60.7418 31.0805 65.1128 23.6128 66.1451 15.3708C66.2902 14.4999 65.6934 13.6612 64.8225 13.516H64.7902ZM52.0483 33.4676L49.9677 35.0805L48.5161 33.9998C42.5967 29.8708 38.5644 23.5482 37.3064 16.4353C42.0322 15.6128 46.4193 13.4837 49.9999 10.2902C53.5806 13.4837 57.9676 15.6128 62.6935 16.4353C61.4193 23.2579 57.6289 29.3385 52.0483 33.4676Z" fill="#E38B29"/>
<path d="M46.7742 21.2097L44.4839 23.4839L47.9032 26.9032C48.5323 27.5323 49.5484 27.5323 50.1774 26.9032L57.0161 20.0645L54.8226 17.7419L49.129 23.4355L46.7581 21.2097H46.7742Z" fill="#E38B29"/>
<path d="M77.4192 41.9354V3.2258C77.4192 1.45161 75.9676 0 74.1934 0H25.8064C24.0322 0 22.5806 1.45161 22.5806 3.2258V41.9354C22.5806 43.7096 24.0322 45.1612 25.8064 45.1612H31.7257L29.0322 54.4032C28.8386 55.0806 29.1128 55.8064 29.7096 56.1935C30.3225 56.5806 31.0967 56.5161 31.6451 56.0483L44.1612 45.1612H74.1934C75.9676 45.1612 77.4192 43.7096 77.4192 41.9354ZM43.5483 41.9354C43.1612 41.9354 42.7741 42.0806 42.4838 42.3387L33.6935 49.9999L35.4838 43.9838C35.6128 43.4999 35.5322 42.9838 35.2257 42.5806C34.9031 42.1612 34.4031 41.9193 33.8709 41.9354H25.8064V3.2258H74.1934V41.9354H43.5483Z" fill="#E38B29"/>
<path d="M93.0806 79.1452C96.2741 76.7259 96.9193 72.1775 94.4999 68.9839C92.0806 65.7904 87.5322 65.1452 84.3386 67.5646C81.1451 69.9839 80.4999 74.5323 82.9193 77.7258C83.3225 78.2581 83.8064 78.742 84.3386 79.1452C82.2257 79.4355 80.3225 80.5646 79.0322 82.2581C77.758 80.5162 75.8548 79.3549 73.7258 79.0323C76.9193 76.6129 77.5645 72.0646 75.1451 68.871C72.7258 65.6775 68.1774 65.0323 64.9838 67.4517C61.7903 69.871 61.1451 74.4194 63.5645 77.6129C63.9677 78.1452 64.4516 78.6291 64.9838 79.0323C60.9838 79.6129 58.0161 83.0484 58.0645 87.0968V98.3871C58.0645 99.2742 58.7903 100 59.6774 100H98.387C99.2741 100 99.9999 99.2742 99.9999 98.3871V87.0968C99.9999 83.0968 97.0322 79.7097 93.0806 79.1452ZM69.3548 69.3549C71.5806 69.3549 73.387 71.1613 73.387 73.3871C73.387 75.613 71.5806 77.4194 69.3548 77.4194C67.129 77.4194 65.3225 75.613 65.3225 73.3871C65.3225 71.1613 67.129 69.3549 69.3548 69.3549ZM77.4193 96.7742H61.2903V87.0968C61.2903 84.4194 63.4516 82.2581 66.129 82.2581H72.5806C75.258 82.2581 77.4193 84.4194 77.4193 87.0968V96.7742ZM88.7096 69.3549C90.9354 69.3549 92.7419 71.1613 92.7419 73.3871C92.7419 75.613 90.9354 77.4194 88.7096 77.4194C86.4838 77.4194 84.6774 75.613 84.6774 73.3871C84.6774 71.1613 86.4838 69.3549 88.7096 69.3549ZM96.7741 96.7742H80.6451V87.0968C80.6451 84.4194 82.8064 82.2581 85.4838 82.2581H91.9354C94.6128 82.2581 96.7741 84.4194 96.7741 87.0968V96.7742Z" fill="#E38B29"/>
</svg>
