<svg width="51" height="80" viewBox="0 0 51 80" fill="none" xmlns="http://www.w3.org/2000/svg">
<g clip-path="url(#clip0_107_5549)">
<path d="M0.154067 71.2465C0.101408 71.0587 -0.0078121 70.7124 0.00193968 70.7085C0.706018 70.4678 0.407614 69.877 0.407614 69.4465C0.421266 49.7229 0.431018 29.9993 0.403713 10.2756C0.399812 8.14302 0.692366 6.1239 1.84113 4.30825C3.31364 1.98195 5.43758 0.60065 8.14468 0.119347C8.17783 0.113478 8.19929 0.0410868 8.22659 0C8.48599 0 8.74539 0 9.00478 0H9.47287C20.584 0 31.6972 0 42.8084 0C42.9644 0.0410868 43.1204 0.0821737 43.2764 0.125217C44.6729 0.491086 46.0225 0.972389 47.1674 1.88413C49.108 3.42977 50.3016 5.3902 50.799 7.87302C51.0779 9.2641 50.9043 10.6082 50.9062 11.9661C50.9374 31.1732 50.9218 50.3803 50.9394 69.5874C50.9394 71.4715 50.7131 73.295 49.8179 74.9561C48.361 77.6619 46.1376 79.37 43.056 79.8356C42.428 79.9315 41.7864 79.9883 41.1525 79.9902C30.3573 80 19.564 80.0078 8.76879 79.9843C7.11489 79.9804 5.66967 79.2233 4.32393 78.335C2.88457 77.3841 1.86648 76.0146 1.14485 74.4885C0.725522 73.6002 0.655309 72.5437 0.429068 71.5635C0.337401 71.4578 0.243784 71.3522 0.152117 71.2465H0.154067ZM47.6784 73.1228C47.7701 72.8098 47.8617 72.4968 47.9534 72.1857C48.0119 71.7689 48.0724 71.3522 48.1309 70.9354C48.7101 70.7026 48.7764 69.8339 48.2518 69.3761C47.967 69.3702 47.6823 69.3605 47.3956 69.3605C34.8607 69.3605 22.3238 69.3605 9.78883 69.3605C7.55762 69.3605 5.32446 69.3702 3.09325 69.3761C2.64662 69.7655 2.63297 70.4855 3.064 70.9354C3.16932 71.4559 3.27074 71.9763 3.38191 72.4967C3.97872 75.277 6.8906 77.3411 9.60939 77.3411C19.802 77.3411 29.9945 77.3411 40.1871 77.3274C40.9516 77.3274 41.722 77.2883 42.4787 77.1807C44.9752 76.8265 46.7325 75.4941 47.6764 73.1248L47.6784 73.1228ZM3.06205 9.2191C2.63687 9.6691 2.65052 10.2384 3.0952 10.6219C3.22393 10.6278 3.3546 10.6376 3.48333 10.6376C18.228 10.6376 32.9727 10.6376 47.7154 10.6376C47.8871 10.6376 48.0607 10.6121 48.3201 10.5926C48.244 9.93519 48.203 9.32476 48.0997 8.72606C47.9339 7.77324 47.93 6.75194 47.0855 6.04955C47.0153 5.99281 47.0055 5.86955 46.949 5.78737C46.6096 5.29238 46.3443 4.71129 45.9075 4.32781C44.472 3.06782 42.6991 2.67847 40.8521 2.67456C30.6498 2.65695 20.4495 2.65891 10.2472 2.67847C9.46897 2.67847 8.67127 2.78608 7.91648 2.97586C5.11187 3.68021 3.15176 6.24324 3.06205 9.2191ZM3.10301 66.5939H48.2128V13.4041H3.10301V66.592V66.5939Z" fill="#E38B29"/>
<path d="M43.2764 0.125217C43.1204 0.0841302 42.9644 0.0430434 42.8084 0C42.9644 0 43.1204 0 43.2764 0C43.2764 0.0410868 43.2764 0.0821737 43.2764 0.125217Z" fill="#E38B29"/>
<path d="M48.1309 70.9355C48.1718 70.415 48.2109 69.8965 48.2518 69.3761C48.7784 69.8339 48.7101 70.7026 48.1309 70.9355Z" fill="#E38B29"/>
<path d="M3.09521 69.3761L3.06596 70.9355C2.63493 70.4855 2.64858 69.7655 3.09521 69.3761Z" fill="#E38B29"/>
<path d="M3.06206 9.2191C3.07376 9.68671 3.08351 10.1543 3.09521 10.6219C2.65248 10.2385 2.63883 9.66715 3.06206 9.2191Z" fill="#E38B29"/>
<path d="M47.6765 73.1228C47.7291 72.7981 47.1323 72.2815 47.9515 72.1857C47.8598 72.4987 47.7681 72.8118 47.6765 73.1228Z" fill="#E38B29"/>
<path d="M28.758 21.2478C29.3392 22.9167 29.9185 24.5856 30.5114 26.2486C30.5387 26.3269 30.7005 26.3582 30.8 26.411C30.9092 26.4501 31.0165 26.4912 31.1257 26.5304C31.6465 26.8923 32.1497 26.8923 32.7075 26.5636C33.3764 26.1704 34.1 25.8749 34.7729 25.4875C36.0231 24.7656 37.324 24.4447 38.7497 24.838C38.7926 24.8419 38.8355 24.8419 38.8784 24.8419C39.4089 25.4249 39.9413 26.008 40.4718 26.591C40.5654 26.6849 40.6591 26.7788 40.7527 26.8728C41.1642 28.1425 40.9126 29.3125 40.2651 30.4414C39.9023 31.0734 39.6254 31.7543 39.2665 32.3862C38.814 33.1806 38.8199 33.9064 39.2256 34.7536C39.6761 35.6927 40.5889 35.6027 41.3105 35.9138C42.0224 36.221 42.7986 36.3795 43.5397 36.6182C44.9986 37.0897 45.5564 38.1971 45.613 39.6351C45.6929 41.7031 45.102 43.1079 42.9293 43.6068C41.9795 43.824 41.0706 44.2192 40.1422 44.5284C39.1534 44.859 38.6229 46.1503 39.0929 47.0992C39.5532 48.0286 39.9842 48.9755 40.4855 49.8833C41.0121 50.8381 41.0979 51.8125 40.78 52.8299C40.7078 53.0607 40.5401 53.2779 40.3724 53.4599C40.0037 53.859 39.6 54.2268 39.2217 54.6162C38.3596 55.5083 37.2596 55.7196 36.0913 55.2012C35.6174 54.9918 35.1513 54.7668 34.6812 54.5496C34.5369 54.4831 34.3945 54.4166 34.2502 54.3501C33.5637 54.0096 32.8869 53.6438 32.1867 53.3366C31.7147 53.1292 30.3963 53.7827 30.2266 54.2855C29.7371 55.7392 29.2631 57.1968 28.7911 58.6564C28.6429 59.1142 27.4044 59.977 26.8057 59.9887C26.0021 60.0024 25.1635 60.1374 24.4068 59.9496C23.7436 59.7833 23.1722 59.2433 22.5617 58.8696C22.5617 58.8227 22.5617 58.7777 22.5559 58.7307C22.039 57.2731 21.5417 55.8077 20.9917 54.3618C20.861 54.0194 20.5626 53.7396 20.3422 53.4325C20.3364 53.3933 20.3305 53.3562 20.3247 53.317C20.2876 53.3542 20.2505 53.3914 20.2135 53.4285C19.4216 53.1762 18.7039 53.3464 17.9901 53.7416C17.1787 54.1896 16.3381 54.5849 15.5053 54.9977C14.3585 55.5651 13.2722 55.8859 12.2814 54.6396C11.7879 54.0194 10.9942 53.6242 10.5553 52.9766C10.0209 52.1862 10.1223 51.2451 10.5514 50.3725C10.9727 49.5175 11.3667 48.6449 11.8153 47.8036C12.2131 47.0601 12.5915 46.3342 12.2443 45.4616C12.1527 45.3521 12.061 45.2444 11.9693 45.1349C11.4817 44.8786 11.0098 44.5773 10.5007 44.3777C9.3383 43.9218 8.15444 43.5149 6.98032 43.0884C6.8711 42.9964 6.75993 42.9025 6.65071 42.8105C6.01489 42.3762 5.70869 41.7638 5.75355 41.0008C5.81596 39.9032 5.42199 38.7429 6.18068 37.7392C6.3289 37.5436 6.49468 37.3616 6.65071 37.1719C6.70727 37.1308 6.76578 37.0897 6.82234 37.0486C8.28316 36.5203 9.74202 35.9823 11.2067 35.4638C12.0434 35.1684 12.6129 33.8145 12.2326 33.0084C11.6124 31.6936 10.9668 30.3886 10.4051 29.0484C10.0502 28.1993 10.1575 27.358 10.8245 26.6458C11.2653 26.1762 11.6417 25.6343 12.1332 25.2332C13.1805 24.3821 14.3488 24.5073 15.4897 25.0375C16.5585 25.5345 17.6 26.0921 18.6552 26.6223C19.4938 27.043 20.7011 26.5343 21.0034 25.648C21.4286 24.4056 21.8986 23.1769 22.2906 21.9247C22.7255 20.5395 23.7709 20.0641 25.0621 20.0034C26.3688 19.9428 27.6736 20.0073 28.6351 21.1167L28.758 21.2399V21.2478ZM9.61915 38.8838C9.46312 38.9366 9.3071 38.9895 9.15107 39.0423C8.89557 39.1616 8.44894 39.2438 8.41968 39.4042C8.33972 39.8386 8.27341 40.5762 8.4938 40.7092C9.23103 41.1553 10.0931 41.3881 10.9746 41.7305V38.3595C10.4734 38.5551 10.0463 38.7195 9.6172 38.8858L9.61915 38.8838ZM42.0282 39.0325C41.919 38.9914 41.8098 38.9503 41.7006 38.9112C41.213 38.739 40.7273 38.5649 40.2027 38.379V41.6738C41.1213 41.3549 41.9639 41.0634 42.7947 40.7758V39.2751C42.5412 39.1949 42.2857 39.1127 42.0302 39.0325H42.0282ZM24.6076 57.0285C25.3234 57.5431 26.2986 57.4903 26.5248 56.8916C26.792 56.1853 26.9949 55.4555 27.2328 54.7081H23.9445C24.1727 55.4007 24.3892 56.0581 24.6076 56.7155C24.6076 56.8192 24.6076 56.9248 24.6076 57.0285ZM14.4268 43.7477C14.5614 44.2114 14.6355 44.7064 14.8422 45.1368C15.7316 46.9857 16.972 48.5764 18.6649 49.7366C19.5582 50.349 20.428 51.1101 21.6197 51.1296C21.7835 51.2216 21.9454 51.3116 22.1092 51.4036C22.7158 51.6051 23.297 52.1216 23.7807 51.6931C24.3853 51.8301 24.8261 52.0003 25.2708 52.0159C26.8057 52.0688 28.2977 51.7675 29.7293 51.2373C32.3115 50.2805 34.3048 48.5803 35.8007 46.2677C36.7545 44.7944 37.2889 43.1608 37.4839 41.4449C37.5912 40.4999 37.4059 39.5216 37.3513 38.559C37.3103 38.5179 37.2674 38.4769 37.2264 38.4377C37.164 37.7647 37.0997 37.0916 37.0373 36.4166C36.9378 36.2562 36.8364 36.0977 36.7369 35.9373C36.577 35.4736 36.417 35.0099 36.2591 34.5443C36.2181 34.4875 36.1771 34.4308 36.1342 34.374C35.0947 32.3373 33.5149 30.823 31.588 29.6471C31.5314 29.6099 31.4729 29.5727 31.4163 29.5356C30.8507 29.3125 30.2871 29.0895 29.7215 28.8664C29.6142 28.8273 29.5089 28.7882 29.4016 28.7491L29.4075 28.7021C29.3782 28.6727 29.349 28.6434 29.3216 28.6141C29.349 28.6434 29.3743 28.6747 29.4016 28.7041L27.2328 28.2912L27.1763 28.1014C27.1411 28.1641 27.1041 28.2286 27.069 28.2912C26.6965 28.2345 26.3259 28.1347 25.9514 28.1308C24.4497 28.1073 23.0239 28.3773 21.567 28.8449C19.4119 29.5395 17.7131 30.7799 16.344 32.4821C15.4527 33.5914 14.809 34.8436 14.3741 36.2719C13.9606 37.6258 13.7617 38.9582 13.6954 40.3336C13.6739 40.7914 14.066 41.3177 13.9431 41.709C13.7188 42.4192 14.0874 42.9005 14.2961 43.4621L14.4268 43.7477ZM16.6053 51.4681C15.7706 50.6523 15.0138 49.9127 14.1791 49.0968C13.9645 49.4979 13.7051 49.9655 13.4633 50.4409C13.0238 51.3057 13.1519 52.0753 13.8475 52.7496C13.8807 52.7829 13.9392 52.7888 14.0094 52.8162C14.8773 52.3662 15.7589 51.9083 16.6053 51.4701V51.4681ZM16.4552 28.4947C15.716 28.1308 15.0353 27.761 14.3254 27.4656C14.1186 27.3795 13.7481 27.4069 13.594 27.5419C13.3092 27.7962 12.8723 28.2619 12.9484 28.4732C13.2429 29.2871 13.7168 30.0345 14.1303 30.8171C14.9436 30.0051 15.6887 29.2597 16.4552 28.4928V28.4947ZM37.1172 30.7799C37.4546 30.1186 37.7745 29.4632 38.1217 28.8214C38.3401 28.4223 38.3011 28.1328 37.9344 27.8314C37.5814 27.5419 37.3435 27.131 36.7642 27.4812C36.1206 27.8686 35.4185 28.1543 34.8236 28.4438C35.5608 29.1951 36.3176 29.968 37.1153 30.7799H37.1172ZM35.0284 51.6559C35.4321 51.8536 36.1167 52.2429 36.8442 52.5129C37.0958 52.6068 37.5365 52.4992 37.7452 52.3172C37.9871 52.1079 38.264 51.6442 38.1821 51.4133C37.911 50.6464 37.4878 49.9323 37.2654 49.4862C36.5204 50.2081 35.7403 50.9653 35.0284 51.654V51.6559ZM23.8411 25.4954C25.0601 25.4112 26.127 25.3369 27.2211 25.2606C27.0124 24.5797 26.831 23.9047 26.5853 23.2532C26.5151 23.0693 26.2401 22.8169 26.0899 22.8365C25.6316 22.8971 25.0211 22.4784 24.7344 23.1652C24.4399 23.8754 24.1825 24.5993 23.8411 25.4954Z" fill="#E38B29"/>
<path d="M20.2115 53.4325C20.2486 53.3953 20.2857 53.3581 20.3227 53.3209C20.3286 53.3601 20.3344 53.3972 20.3403 53.4364C20.2974 53.4364 20.2544 53.4364 20.2135 53.4325H20.2115Z" fill="#E38B29"/>
<path d="M22.5539 58.7346C22.5578 58.7816 22.5598 58.8266 22.5598 58.8735C22.5208 58.8657 22.4798 58.8598 22.4408 58.852C22.4798 58.8129 22.5169 58.7737 22.5559 58.7346H22.5539Z" fill="#E38B29"/>
<path d="M38.8784 24.8438C38.8355 24.8438 38.7926 24.8438 38.7497 24.8399C38.7867 24.8028 38.8238 24.7656 38.8609 24.7284C38.8667 24.7675 38.8726 24.8047 38.8765 24.8438H38.8784Z" fill="#E38B29"/>
<path d="M22.8445 7.9728C21.5202 7.9728 20.1979 7.99433 18.8736 7.96498C18.1208 7.94737 17.7014 7.42889 17.7112 6.64433C17.7209 5.86368 18.1676 5.33151 18.897 5.32759C21.5456 5.31194 24.1922 5.3002 26.8408 5.32759C27.7809 5.33738 28.4557 6.21585 28.1436 7.04542C27.9388 7.58933 27.5078 8.01193 26.8154 8.00411C25.4912 7.99041 24.1669 8.0002 22.8445 8.0002C22.8445 7.99237 22.8445 7.98259 22.8445 7.97476V7.9728Z" fill="#E38B29"/>
<path d="M30.9756 6.71085C30.9795 5.7189 31.2623 5.46259 32.3428 5.46846C33.1327 5.47238 33.6378 5.97911 33.6202 6.74607C33.6027 7.48954 33.0488 7.99433 32.2589 7.98454C31.4729 7.97476 30.9736 7.47976 30.9756 6.71281V6.71085Z" fill="#E38B29"/>
<path d="M31.627 71.9059C31.8318 72.2502 32.1029 72.5457 32.1945 72.8881C32.4695 73.9094 31.8357 74.6724 30.7298 74.6763C27.2796 74.6861 23.8294 74.6822 20.3793 74.6763C19.6713 74.6763 19.0179 74.0757 18.975 73.4281C18.936 72.8274 19.5933 72.0976 20.2661 72.0115C20.4709 71.9861 20.6796 71.9959 20.8883 71.9959C24.1571 71.9959 27.4259 71.9959 30.6927 71.992C30.9951 71.992 31.2954 71.9372 31.627 71.9039V71.9059Z" fill="#E38B29"/>
<path d="M16.6092 51.4681C15.7628 51.9064 14.8812 52.3642 14.0133 52.8142C13.9431 52.7868 13.8846 52.7809 13.8514 52.7477C13.1571 52.0746 13.029 51.3051 13.4672 50.439C13.7091 49.9636 13.9685 49.4979 14.183 49.0949C15.0177 49.9107 15.7745 50.6503 16.6092 51.4662V51.4681Z" fill="#E38B29"/>
<path d="M16.4571 28.4947C15.6906 29.2597 14.9436 30.0071 14.1323 30.819C13.7188 30.0345 13.2449 29.2871 12.9504 28.4751C12.8723 28.2619 13.3092 27.7962 13.5959 27.5438C13.75 27.4069 14.1206 27.3814 14.3273 27.4675C15.0372 27.7649 15.7179 28.1327 16.4571 28.4967V28.4947Z" fill="#E38B29"/>
<path d="M37.1192 30.7799C36.3215 29.968 35.5647 29.1971 34.8275 28.4438C35.4224 28.1543 36.1245 27.8686 36.7681 27.4812C37.3474 27.131 37.5834 27.5419 37.9383 27.8314C38.305 28.1327 38.3421 28.4223 38.1256 28.8214C37.7765 29.4612 37.4566 30.1186 37.1211 30.7799H37.1192Z" fill="#E38B29"/>
<path d="M35.0323 51.6559C35.7442 50.9653 36.5243 50.2081 37.2694 49.4881C37.4917 49.9342 37.9169 50.6464 38.186 51.4153C38.2679 51.6462 37.989 52.1099 37.7491 52.3192C37.5385 52.5012 37.0997 52.6088 36.8481 52.5149C36.1206 52.2449 35.436 51.8555 35.0323 51.6579V51.6559Z" fill="#E38B29"/>
<path d="M24.6096 56.7155C24.3931 56.0581 24.1766 55.4007 23.9465 54.7081H27.2348C26.9968 55.4555 26.794 56.1853 26.5268 56.8916C26.3006 57.4903 25.3254 57.5412 24.6096 57.0285C24.6837 56.9757 24.7598 56.9248 24.8339 56.872C24.7598 56.8192 24.6837 56.7683 24.6096 56.7155Z" fill="#E38B29"/>
<path d="M23.8451 25.4973C24.1864 24.6012 24.4438 23.8754 24.7383 23.1671C25.0231 22.4804 25.6355 22.901 26.0938 22.8384C26.244 22.8189 26.519 23.0712 26.5892 23.2552C26.835 23.9067 27.0163 24.5817 27.225 25.2625C26.1309 25.3388 25.064 25.4132 23.8451 25.4973Z" fill="#E38B29"/>
<path d="M42.0302 39.0345C42.2857 39.1166 42.5412 39.1968 42.7947 39.2771V40.7777C41.9639 41.0653 41.1213 41.3568 40.2027 41.6758V38.381C40.7273 38.5669 41.2149 38.741 41.7006 38.9132C41.8098 38.9542 41.919 38.9953 42.0282 39.0345H42.0302Z" fill="#E38B29"/>
<path d="M9.62111 38.8838C10.0482 38.7175 10.4754 38.5512 10.9786 38.3575V41.7286C10.097 41.3881 9.23299 41.1534 8.4977 40.7073C8.27731 40.5742 8.34362 39.8366 8.42359 39.4023C8.45284 39.2418 8.89947 39.1577 9.15497 39.0403C9.311 38.9875 9.46703 38.9347 9.62306 38.8818L9.62111 38.8838Z" fill="#E38B29"/>
<path d="M24.6096 56.7155C24.6837 56.7683 24.7598 56.8192 24.8339 56.872C24.7598 56.9248 24.6837 56.9757 24.6096 57.0285C24.6096 56.9248 24.6096 56.8192 24.6096 56.7155Z" fill="#E38B29"/>
<path d="M27.2348 28.2932C27.1997 28.3284 27.1646 28.3656 27.1275 28.4008C27.108 28.3656 27.0885 28.3284 27.0709 28.2932C27.1061 28.2306 27.1431 28.166 27.1782 28.1034L27.2348 28.2932Z" fill="#E38B29"/>
<path d="M42.0302 39.0345C41.921 38.9934 41.8117 38.9523 41.7025 38.9132C41.8117 38.9542 41.921 38.9953 42.0302 39.0345Z" fill="#E38B29"/>
<path d="M29.4114 28.7021C29.4114 28.7021 29.4016 28.7041 29.4036 28.7041C29.3782 28.6747 29.3529 28.6434 29.3256 28.6141C29.3548 28.6434 29.3841 28.6727 29.4114 28.7021Z" fill="#E38B29"/>
<path d="M37.3552 38.559C37.3142 38.5179 37.2713 38.4769 37.2303 38.4377C37.2713 38.4788 37.3142 38.5199 37.3552 38.559Z" fill="#E38B29"/>
<path d="M36.261 34.5443C36.2201 34.4875 36.1791 34.4308 36.1362 34.374C36.1772 34.4308 36.2181 34.4875 36.261 34.5443Z" fill="#E38B29"/>
<path d="M25.3507 47.3379C24.9704 47.9131 24.3931 48.1499 23.7885 47.9229C23.1917 47.6999 22.9264 47.1305 23.0318 46.4731C23.2424 45.1584 23.4589 43.8416 23.7124 42.5347C24.1435 40.314 24.5998 38.0992 25.0523 35.8825C25.2532 34.9003 25.4307 33.9123 25.6959 32.9458C25.9027 32.1925 26.6341 31.8404 27.3186 32.0634C28.0208 32.2923 28.3933 33.0201 28.2412 33.748C27.8394 35.6771 27.4669 37.614 27.0748 39.5471C26.7491 41.1514 26.4137 42.7538 26.0782 44.3542C25.9495 44.9686 25.8208 45.5849 25.6725 46.1953C25.6043 46.479 25.4892 46.7529 25.3956 47.0307C25.38 47.1344 25.3644 47.2362 25.3507 47.3399V47.3379Z" fill="#E38B29"/>
<path d="M18.2456 40.0264C19.213 40.9773 20.1296 41.8597 21.0229 42.7636C21.5007 43.2468 21.8596 43.7692 21.4793 44.5186C21.0365 45.3931 20.0731 45.6573 19.3631 44.9784C18.031 43.7027 16.7341 42.3899 15.4527 41.0653C14.8481 40.4392 14.8578 39.5451 15.4663 38.9151C16.7321 37.6082 18.0193 36.3247 19.3163 35.049C19.7883 34.5853 20.3383 34.6029 20.9312 34.8651C21.5729 35.1469 21.6841 35.724 21.7523 36.2914C21.7738 36.4773 21.5202 36.7238 21.3486 36.8999C20.352 37.9192 19.3397 38.9268 18.2436 40.0284L18.2456 40.0264Z" fill="#E38B29"/>
<path d="M33.1249 40.0049C32.0931 38.9855 31.1062 38.0992 30.2403 37.1073C29.9536 36.7786 29.8229 36.1603 29.8834 35.7103C30.0043 34.8143 31.2506 34.4523 31.9078 35.0901C33.2458 36.3932 34.5623 37.7197 35.8671 39.056C36.4483 39.6527 36.4385 40.3551 35.8476 40.9597C34.5584 42.2764 33.2555 43.5794 31.9449 44.8727C31.3344 45.4753 30.5874 45.4929 30.055 44.9568C29.4055 44.3034 29.388 43.7223 30.0589 43.0375C31.038 42.0397 32.0463 41.0692 33.1249 40.0049Z" fill="#E38B29"/>
<path d="M25.3507 47.3379C25.3663 47.2342 25.3819 47.1325 25.3956 47.0288C25.4697 47.0757 25.5419 47.1246 25.616 47.1716C25.5282 47.2264 25.4385 47.2831 25.3507 47.3379Z" fill="#E38B29"/>
</g>
<defs>
<clipPath id="clip0_107_5549">
<rect width="50.9589" height="80" fill="white"/>
</clipPath>
</defs>
</svg>
