<svg width="80" height="80" viewBox="0 0 80 80" fill="none" xmlns="http://www.w3.org/2000/svg">
<path d="M62.5 15H52.25C51 8.24999 44.25 3.74999 37.5 5.24999C32.5 6.24999 28.75 9.99999 27.75 15H17.5C10.5 15 5 20.5 5 27.5V42.25C5 43.75 6 45 7.5 45H10V62.5C10 69.5 15.5 75 22.5 75H57.5C64.5 75 70 69.5 70 62.5V45H72.5C74 45 75 44 75 42.5V27.5C75 20.5 69.5 15 62.5 15ZM40 7.24999C43.5 7.24999 47.75 8.99999 49.5 15H30C32.75 7.99999 36.75 7.24999 40 7.24999ZM72.5 42.5H47H46.75C46.75 43 47 43.25 47 43.75C47 44.25 47 44.5 47 45C47.25 45 47.25 45 47.5 45H67.5V62.5C67.25 69.25 61.75 72.25 57.5 72.25H22.5C15.5 72.25 12.75 66.5 12.75 62.5V45H32.75C32.75 44.5 32.75 44.25 32.75 43.75C32.75 43.25 32.75 42.75 33 42.5H7.75V25.75C8.75 21.5 10.25 17.75 17.75 17.75H63.5C67.75 17.75 70.75 20.5 72.75 26.25V42.5H72.5Z" fill="#E38B29"/>
<path d="M39.75 36C35.5 36 32 39.5 32 43.75C32 48 35.5 51.5 39.75 51.5C44 51.5 47.5 48 47.5 43.75C47.5 39.5 44 36 39.75 36ZM39.75 49C36.75 49 34.5 46.5 34.5 43.75C34.5 40.75 37 38.5 39.75 38.5C42.75 38.5 45 41 45 43.75C45 46.5 42.75 49 39.75 49Z" fill="#E38B29"/>
</svg>
