<svg width="105" height="100" viewBox="0 0 105 100" fill="none" xmlns="http://www.w3.org/2000/svg">
<path d="M21.9758 29.3683C21.9758 28.573 22.6255 27.9234 23.4207 27.9234H55.9364C56.7317 27.9458 57.3701 28.6066 57.3477 29.4131C57.3253 30.1859 56.7093 30.802 55.9364 30.8244H23.4207C22.6255 30.8244 21.9758 30.1747 21.9758 29.3795V29.3683ZM23.4207 23.5663H43.1004C43.8956 23.5663 44.5453 22.9167 44.5453 22.1214C44.5453 21.3262 43.8956 20.6765 43.1004 20.6765H23.4207C22.6255 20.6765 21.9758 21.3262 21.9758 22.1214C21.9758 22.9167 22.6255 23.5663 23.4207 23.5663ZM34.2518 42.7643C34.2518 43.5596 34.9015 44.2092 35.6967 44.2092H72.3791C73.1743 44.2092 73.824 43.5596 73.824 42.7643C73.824 41.9691 73.1743 41.3194 72.3791 41.3194H35.6967C34.9015 41.3194 34.2518 41.9691 34.2518 42.7643ZM30.0068 38.4521C29.4467 37.892 28.5283 37.892 27.957 38.4521L25.6945 40.7258L23.4207 38.4521C22.8607 37.892 21.9422 37.892 21.371 38.4521C20.7998 39.0121 20.811 39.9306 21.371 40.5018L23.6335 42.7755L21.371 45.0493C20.811 45.6093 20.811 46.5278 21.371 47.099C21.931 47.6702 22.8495 47.659 23.4207 47.099L25.6945 44.8253L27.957 47.099C28.5395 47.6478 29.4579 47.6142 30.0068 47.0206C30.522 46.4606 30.522 45.6093 30.0068 45.0493L27.733 42.7755L30.0068 40.5018C30.5668 39.9418 30.5668 39.0233 30.0068 38.4521ZM30.0068 49.2832C29.4467 48.7231 28.5283 48.7231 27.9682 49.2832L25.7057 51.5569L23.4319 49.2832C22.8719 48.7231 21.9534 48.7231 21.3822 49.2832C20.811 49.8432 20.8222 50.7617 21.3822 51.3329L23.6447 53.6066L21.3822 55.8804C20.8222 56.4404 20.8222 57.3589 21.3822 57.9301C21.9422 58.5013 22.8607 58.4901 23.4319 57.9301L25.7057 55.6564L27.9682 57.9301C28.5507 58.4789 29.4691 58.4453 30.018 57.8517C30.5332 57.2917 30.5332 56.4404 30.018 55.8804L27.7442 53.6066L30.018 51.3329C30.578 50.7729 30.578 49.8544 30.018 49.2832H30.0068ZM30.0068 60.1142C29.4467 59.5542 28.5283 59.5542 27.957 60.1142L25.6945 62.388L23.4207 60.1142C22.8607 59.5542 21.9422 59.5542 21.371 60.1142C20.7998 60.6743 20.811 61.5927 21.371 62.164L23.6335 64.4377L21.371 66.7115C20.811 67.2715 20.811 68.19 21.371 68.7612C21.931 69.3324 22.8495 69.3212 23.4207 68.7612L25.6945 66.4875L27.957 68.7612C28.5395 69.31 29.4579 69.2764 30.0068 68.6828C30.522 68.1228 30.522 67.2715 30.0068 66.7115L27.733 64.4377L30.0068 62.164C30.5668 61.6039 30.5668 60.6855 30.0068 60.1142ZM30.0068 70.9453C29.4467 70.3853 28.5283 70.3853 27.9682 70.9453L25.7057 73.2191L23.4319 70.9565C22.8719 70.3965 21.9534 70.3965 21.3822 70.9565C20.811 71.5166 20.8222 72.435 21.3822 73.0063L23.6447 75.28L21.3822 77.5538C20.8446 78.1474 20.9006 79.0659 21.4942 79.5923C22.043 80.0851 22.8831 80.0851 23.4319 79.5923L25.7057 77.3185L27.9682 79.5923C28.5283 80.1635 29.4467 80.1635 30.018 79.5923C30.5892 79.0322 30.5892 78.1138 30.018 77.5426L27.7442 75.28L30.018 73.0063C30.578 72.4462 30.578 71.5278 30.018 70.9565L30.0068 70.9453ZM103.752 75.7393L102.027 78.7298C101.243 80.0739 99.5856 80.634 98.1631 80.0179L94.8029 78.5954V92.8539C94.8029 96.7966 91.5995 100 87.6568 100H26.0417C17.8316 99.8656 11.2904 93.1116 11.4024 84.9014V42.5515H7.14609C3.20343 42.5515 2.92833e-05 39.3481 2.92833e-05 35.4055V7.14606C-0.0111714 3.20341 3.19223 0 7.13489 0H77.0722C80.6004 0.0448029 83.423 2.94579 83.3894 6.47401V40.9162H83.647C85.2039 40.9162 86.5032 42.0699 86.7048 43.6156L87.2648 48.1743C89.7402 48.9583 92.0139 50.2688 93.9181 52.0273L98.1519 50.2352C99.5856 49.6304 101.243 50.1904 102.016 51.5345L103.741 54.5251C104.514 55.8692 104.167 57.5829 102.935 58.5125L99.272 61.2791C99.832 63.8105 99.832 66.4426 99.272 68.974L102.946 71.7406C104.189 72.6814 104.536 74.384 103.752 75.728V75.7393ZM11.4024 39.6729V7.14606C11.4024 4.79391 9.49824 2.88978 7.14609 2.88978C4.79394 2.88978 2.88981 4.79391 2.88981 7.14606V35.4055C2.88981 37.5336 4.46912 39.3369 6.58605 39.6169V22.435C6.58605 21.6398 7.23569 20.9901 8.03094 20.9901C8.82619 20.9901 9.47584 21.6398 9.47584 22.435V39.6505H11.4024V39.6729ZM26.0417 97.1102H81.8997C80.9812 95.8781 80.4884 94.3884 80.4884 92.8539V89.3369H80.186C78.6291 89.3369 77.3298 88.1832 77.1394 86.6375L76.5793 82.0788C74.104 81.2948 71.8302 79.9843 69.9149 78.2258L65.681 80.0179C64.2473 80.6228 62.6008 80.0627 61.8168 78.7298L60.6519 76.7137H35.6967C34.9015 76.6913 34.263 76.0305 34.2854 75.224C34.3078 74.4512 34.9239 73.8351 35.6967 73.8127H59.6999C59.8007 72.9839 60.2375 72.2446 60.8983 71.7406L64.5722 68.974C64.3482 67.9548 64.2137 66.9131 64.1689 65.8714H35.6967C34.9015 65.8714 34.2518 65.2218 34.2518 64.4265C34.2518 63.6313 34.9015 62.9816 35.6967 62.9816H64.2809C64.3482 62.4104 64.449 61.8392 64.5722 61.2791L60.8983 58.5125C59.8343 57.7061 59.4086 56.306 59.8455 55.0403H35.6967C34.9015 55.0179 34.263 54.3571 34.2854 53.5506C34.3078 52.7778 34.9239 52.1617 35.6967 52.1393H61.4584L61.8168 51.5121C62.5896 50.168 64.2473 49.608 65.681 50.2128L69.9149 52.0049C71.8302 50.2464 74.104 48.9359 76.5681 48.1519L77.1282 43.5932C77.3186 42.0587 78.6291 40.905 80.1748 40.8938H80.4772V6.47401C80.522 4.53629 78.9875 2.93459 77.061 2.88978H12.8809C13.7993 4.12186 14.2921 5.61156 14.2921 7.14606V84.9014C14.1801 91.5099 19.4333 96.9758 26.0417 97.1102ZM91.9019 92.8539V79.8275C90.4682 80.802 88.9113 81.5636 87.2648 82.0788L86.7048 86.6375C86.5144 88.1832 85.2039 89.3369 83.6582 89.3369H83.4006V92.8539C83.4006 95.2061 85.3047 97.1102 87.6568 97.1102C90.009 97.1102 91.9131 95.2061 91.9131 92.8539H91.9019ZM101.187 74.0479L96.763 70.6989C96.2926 70.3405 96.0798 69.7245 96.2478 69.1532C96.987 66.5211 96.987 63.7209 96.2478 61.0887C96.091 60.5175 96.2926 59.9014 96.763 59.543L101.199 56.194C101.277 56.138 101.299 56.0372 101.243 55.9588L99.5184 52.9682C99.4736 52.8898 99.3728 52.8562 99.2944 52.8898L94.1645 55.0627C93.6156 55.2979 92.9772 55.1635 92.5628 54.7379C90.6474 52.7778 88.2393 51.3777 85.5847 50.7056C85.0023 50.56 84.5767 50.0784 84.5094 49.4848L83.8262 43.974C83.8262 43.8844 83.7366 43.806 83.647 43.8172H80.186C80.0964 43.8172 80.018 43.8844 80.0068 43.974L79.3235 49.4848C79.2451 50.0784 78.8195 50.56 78.2482 50.7056C75.5937 51.3777 73.1743 52.7778 71.2702 54.7379C70.8558 55.1635 70.2173 55.2867 69.6685 55.0627L64.5498 52.8898C64.4602 52.8562 64.3594 52.8898 64.3146 52.9682L62.5896 55.9588C62.5448 56.0372 62.556 56.138 62.6344 56.194L67.0699 59.543C67.5404 59.9014 67.7532 60.5175 67.5964 61.0887C66.8571 63.7209 66.8571 66.5211 67.5964 69.1532C67.7532 69.7245 67.5516 70.3405 67.0699 70.6989L62.6344 74.0479C62.556 74.1039 62.5336 74.2048 62.5896 74.2831L64.3146 77.2737C64.3594 77.3521 64.4602 77.3857 64.5386 77.3521L69.6573 75.1792C69.8365 75.1008 70.0269 75.0672 70.2173 75.0672C70.6094 75.0672 70.979 75.224 71.2478 75.504C73.1631 77.4642 75.5713 78.8643 78.2258 79.5363C78.8083 79.6819 79.2339 80.1635 79.3011 80.7572L79.9844 86.2679C79.9844 86.3575 80.074 86.4247 80.1636 86.4247H83.6134C83.703 86.4247 83.7814 86.3575 83.7926 86.2679L84.4758 80.7572C84.5543 80.1635 84.9799 79.6819 85.5511 79.5363C88.2057 78.8643 90.625 77.4642 92.5292 75.504C92.9436 75.0784 93.582 74.944 94.1309 75.1792L99.2496 77.3521C99.328 77.3857 99.4288 77.3521 99.4736 77.2737L101.221 74.2831C101.266 74.2048 101.243 74.0927 101.165 74.0479H101.187ZM93.1004 65.121C93.1004 71.3038 88.0937 76.3105 81.9109 76.3105C75.7281 76.3105 70.7214 71.3038 70.7214 65.121C70.7214 58.9382 75.7281 53.9314 81.9109 53.9314C88.0937 53.9314 93.1004 58.9494 93.1004 65.121ZM90.2106 65.121C90.2106 60.5399 86.492 56.8212 81.9109 56.8212C77.3298 56.8212 73.6112 60.5399 73.6112 65.121C73.6112 69.7021 77.3298 73.4207 81.9109 73.4207C86.492 73.4207 90.1994 69.7021 90.2106 65.121ZM81.9109 59.1286C81.1156 59.1286 80.466 59.7782 80.466 60.5735V66.7339C80.466 67.4395 80.97 68.0443 81.6757 68.1564C80.9812 68.2684 80.466 68.8732 80.466 69.5788V69.6685C80.466 70.4637 81.1156 71.1133 81.9109 71.1133C82.7061 71.1133 83.3558 70.4637 83.3558 69.6685V69.5788C83.3558 68.8732 82.8405 68.2684 82.1461 68.1564C82.8405 68.0443 83.3558 67.4395 83.3558 66.7339V60.5735C83.3558 59.7782 82.7061 59.1286 81.9109 59.1286Z" fill="#E38B29"/>
</svg>
