<svg width="80" height="80" viewBox="0 0 80 80" fill="none" xmlns="http://www.w3.org/2000/svg">
<path d="M52.3225 67.0188C51.9313 66.6275 51.86 66.0325 52.1112 65.5387C52.46 64.8537 52.7562 64.1387 52.9975 63.3975C53.1687 62.87 53.6388 62.5 54.1925 62.5H56.25V55H54.1925C53.6388 55 53.1687 54.63 52.9975 54.1025C52.7562 53.3613 52.46 52.6463 52.1112 51.96C51.86 51.4663 51.9313 50.8725 52.3225 50.48L53.7762 49.0263L48.4725 43.7225L47.0188 45.1762C46.6275 45.5675 46.0325 45.6388 45.5387 45.3875C44.8537 45.0388 44.1375 44.7425 43.3962 44.5013C42.87 44.3313 42.5 43.8612 42.5 43.3075V41.25H35V43.3075C35 43.8612 34.63 44.3313 34.1025 44.5025C33.3612 44.7438 32.6463 45.04 31.96 45.3888C31.4663 45.64 30.8725 45.5687 30.48 45.1775L29.0263 43.7238L23.7225 49.0275L25.1763 50.4812C25.5675 50.8725 25.6387 51.4675 25.3875 51.9613C25.0387 52.6463 24.7425 53.3625 24.5012 54.1038C24.3312 54.63 23.8612 55 23.3075 55H21.25V62.5H23.3075C23.8612 62.5 24.3312 62.87 24.5025 63.3975C24.7437 64.1387 25.04 64.8537 25.3888 65.5387C25.64 66.0325 25.5688 66.6263 25.1775 67.0188L23.7238 68.4725L29.0275 73.7762L30.4813 72.3225C30.8725 71.9313 31.4675 71.86 31.9613 72.1112C32.6463 72.46 33.3625 72.7562 34.1025 72.9975C34.63 73.1687 35 73.6388 35 74.1925V76.25H42.5V74.1925C42.5 73.6388 42.87 73.1687 43.3975 72.9975C44.1387 72.7562 44.8537 72.46 45.5387 72.1112C46.0325 71.86 46.6263 71.9313 47.0188 72.3225L48.4725 73.7762L53.7762 68.4725L52.3225 67.0188ZM38.75 68.75C33.2275 68.75 28.75 64.2725 28.75 58.75C28.75 53.2275 33.2275 48.75 38.75 48.75C44.2725 48.75 48.75 53.2275 48.75 58.75C48.75 64.2725 44.2725 68.75 38.75 68.75Z" fill="#E38B29"/>
<path d="M14.3488 12.8675C14.1638 13.3837 13.7038 13.75 13.155 13.75H11.25V18.75H13.155C13.7038 18.75 14.1638 19.1163 14.3488 19.6325C14.4563 19.9313 14.5762 20.2225 14.71 20.5063C14.9437 21.0025 14.8775 21.5862 14.4887 21.975L13.1425 23.3212L16.6775 26.8563L18.0237 25.51C18.4112 25.1225 18.9962 25.055 19.4925 25.2888C19.7762 25.4225 20.0687 25.5438 20.3662 25.65C20.8837 25.8363 21.25 26.2962 21.25 26.845V28.75H26.25V26.845C26.25 26.2962 26.6162 25.8362 27.1325 25.6512C27.4312 25.5437 27.7225 25.4238 28.0063 25.29C28.5025 25.0563 29.0862 25.1225 29.475 25.5113L30.8212 26.8575L34.3563 23.3225L33.01 21.9762C32.6225 21.5887 32.555 21.0038 32.7888 20.5075C32.9225 20.2238 33.0438 19.9312 33.15 19.6337C33.3363 19.1162 33.7962 18.75 34.345 18.75H36.25V13.75H34.345C33.7962 13.75 33.3362 13.3837 33.1512 12.8675C33.0437 12.5687 32.9238 12.2775 32.79 11.9938C32.5563 11.4975 32.6225 10.9138 33.0113 10.525L34.3575 9.17875L30.8225 5.64375L29.475 6.99C29.0875 7.3775 28.5025 7.445 28.0063 7.21125C27.7225 7.0775 27.43 6.95625 27.1325 6.85C26.6162 6.66375 26.25 6.20375 26.25 5.655V3.75H21.25V5.655C21.25 6.20375 20.8838 6.66375 20.3675 6.84875C20.0688 6.95625 19.7775 7.07625 19.4938 7.21C18.9975 7.44375 18.4138 7.3775 18.025 6.98875L16.6788 5.6425L13.1438 9.1775L14.49 10.5237C14.8775 10.9112 14.945 11.4962 14.7113 11.9925C14.5763 12.2787 14.4563 12.57 14.3488 12.8675ZM23.75 11.25C26.5113 11.25 28.75 13.4887 28.75 16.25C28.75 19.0113 26.5113 21.25 23.75 21.25C20.9887 21.25 18.75 19.0113 18.75 16.25C18.75 13.4887 20.9887 11.25 23.75 11.25Z" fill="#E38B29"/>
<path d="M7.5 15H2.5V17.5H7.5V15Z" fill="#E38B29"/>
<path d="M63.125 15H40V17.5H63.125C67.605 17.5 71.25 21.145 71.25 25.625C71.25 30.105 67.605 33.75 63.125 33.75H16.25C9.3575 33.75 3.75 39.3575 3.75 46.25V47.5C3.75 54.3925 9.3575 60 16.25 60V57.5C10.7363 57.5 6.25 53.0137 6.25 47.5V46.25C6.25 40.7363 10.7363 36.25 16.25 36.25H63.125C68.9837 36.25 73.75 31.4837 73.75 25.625C73.75 19.7663 68.9837 15 63.125 15Z" fill="#E38B29"/>
<path d="M70 55V57.5H60V60H70V62.5L76.875 58.75L70 55Z" fill="#E38B29"/>
<path d="M35 60H32.5V62.5H35V60Z" fill="#E38B29"/>
<path d="M40 57.5H37.5V62.5H40V57.5Z" fill="#E38B29"/>
<path d="M45 55H42.5V62.5H45V55Z" fill="#E38B29"/>
</svg>
