<svg width="80" height="80" viewBox="0 0 80 80" fill="none" xmlns="http://www.w3.org/2000/svg">
<g clip-path="url(#clip0_338_19)">
<path d="M73.5044 20.6066C73.4671 18.4414 73.4298 16.4256 73.4298 14.447C73.4298 12.9165 72.1605 11.6472 70.6299 11.6472C58.6467 11.6472 49.538 8.21279 41.9225 0.821278C40.8399 -0.223985 39.1227 -0.223985 38.0028 0.821278C30.3873 8.21279 21.2786 11.6472 9.3327 11.6472C7.80213 11.6472 6.53288 12.9165 6.53288 14.447C6.53288 16.4256 6.49555 18.4788 6.45822 20.6066C6.08491 40.6906 5.56228 68.2408 39.048 79.8507C39.3467 79.9627 39.6453 80 39.9813 80C40.3173 80 40.6159 79.9627 40.9146 79.8507C74.4377 68.2034 73.9151 40.6906 73.5044 20.6066ZM39.9813 77.0509C11.2366 66.5982 10.154 40.8773 10.5273 20.6813C10.5646 19.4867 10.5273 16.3136 10.5273 15.1563C21.7265 14.671 32.2912 10.7886 39.9813 4.10639C47.6715 10.8259 58.9827 15.0443 70.2193 15.4923C70.2193 16.6496 70.182 19.4867 70.2193 20.6813C70.5926 40.9146 68.7261 66.6356 39.9813 77.0509Z" fill="#E38B29"/>
<path d="M50.9192 31.5446L36.1362 45.8796L29.4913 38.9361C28.5954 38.0401 27.2142 38.0775 26.5049 38.7121C25.3476 39.7573 25.273 40.8399 26.3929 41.9599L34.195 49.762C34.755 50.322 35.4643 50.5833 36.1736 50.5833C36.8829 50.5833 37.5921 50.322 38.1521 49.762L53.6444 34.2697C54.727 33.1871 55.9962 32.6645 54.9137 31.5819C53.7564 30.462 52.0018 30.462 50.9192 31.5446Z" fill="#E38B29"/>
</g>
<defs>
<clipPath id="clip0_338_19">
<rect width="80" height="80" fill="white"/>
</clipPath>
</defs>
</svg>
