<svg width="100" height="100" viewBox="0 0 100 100" fill="none" xmlns="http://www.w3.org/2000/svg">
<g clip-path="url(#clip0_107_5445)">
<path d="M100 47.9167H93.6458C92.5625 25.4375 74.5625 7.45833 52.0833 6.35417V0H47.9167V6.35417C25.4375 7.45833 7.45833 25.4375 6.35417 47.9167H0V52.0833H6.35417C7.4375 74.5625 25.4375 92.5417 47.9167 93.6458V100H52.0833V93.6458C74.5625 92.5625 92.5417 74.5625 93.6458 52.0833H100V47.9167ZM52.0833 89.4792V83.3333H47.9167V89.4792C27.7292 88.3958 11.6042 72.2708 10.5208 52.0833H16.6667V47.9167H10.5208C11.6042 27.7292 27.7292 11.6042 47.9167 10.5208V16.6667H52.0833V10.5208C72.2708 11.6042 88.3958 27.7292 89.4792 47.9167H83.3333V52.0833H89.4792C88.3958 72.2708 72.2708 88.3958 52.0833 89.4792Z" fill="#E38B29"/>
<path d="M65.25 58.4375C62.1875 57.4167 59.1875 56.25 56.25 54.9167V54.8125C61.3333 52.3958 64.5833 47.2708 64.5833 41.6458V35.3958C64.5833 27.3333 58.0625 20.8125 50 20.8125C41.9375 20.8125 35.4167 27.3333 35.4167 35.3958V41.6458C35.4167 47.2708 38.6667 52.3958 43.75 54.8125V54.9167C40.8125 56.25 37.8125 57.4167 34.75 58.4375C27.1667 60.9583 27.0833 66.4375 27.0833 66.6667V75H31.25V66.7292C31.25 66.625 31.4583 63.9375 36.0833 62.3958C39.7292 61.2083 43.3125 59.7708 46.7708 58.125C47.4792 57.7708 47.9375 57.0417 47.9167 56.25V53.4375C47.9167 52.5625 47.3542 51.7708 46.5208 51.4792C42.375 50 39.5833 46.0833 39.5833 41.6667V35.4167C39.5833 29.6667 44.25 25 50 25C55.75 25 60.4167 29.6667 60.4167 35.4167V41.6667C60.4167 46.0833 57.625 50 53.4792 51.4792C52.6458 51.7708 52.0833 52.5625 52.0833 53.4375V56.25C52.0833 57.0417 52.5208 57.7708 53.2292 58.125C56.6875 59.7708 60.2708 61.2083 63.9167 62.3958C68.5417 63.9375 68.75 66.6042 68.75 66.6667V75H72.9167V66.6667C72.9167 66.4375 72.8333 60.9792 65.25 58.4375Z" fill="#E38B29"/>
<path d="M52.0833 68.75H47.9167V72.9167H52.0833V68.75Z" fill="#E38B29"/>
<path d="M60.4167 68.75H56.25V72.9167H60.4167V68.75Z" fill="#E38B29"/>
<path d="M43.75 68.75H39.5833V72.9167H43.75V68.75Z" fill="#E38B29"/>
</g>
<defs>
<clipPath id="clip0_107_5445">
<rect width="100" height="100" fill="white"/>
</clipPath>
</defs>
</svg>
