<svg width="102" height="100" viewBox="0 0 102 100" fill="none" xmlns="http://www.w3.org/2000/svg">
<path d="M23.2266 53.125C24.0895 53.125 24.7891 52.4254 24.7891 51.5625C24.7891 50.6996 24.0895 50 23.2266 50C22.3636 50 21.6641 50.6996 21.6641 51.5625C21.6641 52.4254 22.3636 53.125 23.2266 53.125Z" fill="#E38B29"/>
<path d="M87.7266 62.7031V37.2969C87.7734 35.3047 86.2031 33.6484 84.2109 33.5937H80.3047C78.9766 33.5937 77.7578 34.3672 77.1797 35.5625C71.7109 34.6641 65.2891 31.5078 65.1953 31.4609C61.4141 29.6563 58.9922 28.7578 58.8906 28.7187C58.8047 28.6875 58.7109 28.6562 58.6172 28.6406C56.8828 28.3203 55.1172 28.1484 53.3516 28.125C49.2891 28.125 47.5547 29.2578 47.1016 29.625L35.7422 37.9922C34.5156 38.5781 33.6406 39.7187 33.3984 41.0547C33.3047 42.1641 33.7031 43.2578 34.4844 44.0469C36.0312 45.4844 38.1016 46.2266 40.2109 46.0937C41.2656 46.0937 42.3125 45.9766 43.3359 45.7422C44.7969 45.3828 48.1875 42.8516 50.3672 41.1484L70.9687 64.5078C71.5391 65.125 72.3438 65.4766 73.1797 65.4766C73.375 65.4766 73.5703 65.4531 73.7656 65.4141L77.2891 64.6328C77.8906 65.7266 79.0391 66.4141 80.2891 66.4297H84.1953C86.1953 66.3828 87.7734 64.7266 87.7266 62.7266C87.7266 62.7187 87.7266 62.7109 87.7266 62.7031ZM84.6016 62.7031C84.6016 63.0391 84.3984 63.2812 84.2109 63.2812H80.3047C80.1172 63.2812 79.9141 63.0312 79.9141 62.7031V60.9375C79.9141 60.0781 79.2109 59.375 78.3516 59.375C77.4922 59.375 76.7891 60.0781 76.7891 60.9375V61.5234L73.2344 62.3047L53.7969 40.2578L51.5859 37.9687C51.0234 37.3828 50.1094 37.3281 49.4766 37.8359C46.7891 40 43.3672 42.4844 42.5391 42.7187C41.7734 42.8906 40.9844 42.9766 40.1953 42.9766C38.9219 43.0625 37.6641 42.6562 36.6875 41.8281C36.6875 41.8281 36.4844 41.5547 36.5 41.4297C36.5156 41.3047 36.7109 41.0234 37.3594 40.6484C37.4141 40.6484 48.9609 32.1016 48.9609 32.1016L49.0234 32.0547C49.0234 32.0547 50.1562 31.2734 53.3203 31.2734C54.8672 31.2891 56.4141 31.4375 57.9375 31.7187C58.4766 31.9297 60.6875 32.7969 63.8359 34.2969C64.1641 34.4609 70.7656 37.7031 76.7578 38.6719V48.4375C76.7578 49.2969 77.4609 50 78.3203 50C79.1797 50 79.8828 49.2969 79.8828 48.4375V37.2969C79.8828 36.9688 80.0859 36.7187 80.2734 36.7187H84.1797C84.3672 36.7187 84.5703 36.9688 84.5703 37.2969L84.6016 62.7031Z" fill="#E38B29"/>
<path d="M13.4219 78.086C12.9062 77.3985 11.9219 77.2579 11.2344 77.7735C10.5469 78.2891 10.4062 79.2735 10.9219 79.961C11.2422 80.3907 11.5703 80.8125 11.9062 81.2344C12.4687 81.8907 13.4531 81.9688 14.1094 81.4063C14.7344 80.8672 14.8359 79.9375 14.3437 79.2813C14.0312 78.8829 13.7266 78.4844 13.4219 78.086Z" fill="#E38B29"/>
<path d="M10.4922 73.6797C10.2344 73.25 9.97656 72.8125 9.71093 72.3672C9.29687 71.6094 8.35156 71.3281 7.58593 71.7344C6.82812 72.1484 6.54687 73.0937 6.96093 73.8594C7.21874 74.3359 7.47656 74.7969 7.74218 75.2578C8.23437 75.9687 9.20312 76.1484 9.91406 75.6562C10.5469 75.2187 10.7656 74.3906 10.4375 73.6953L10.4922 73.6797Z" fill="#E38B29"/>
<path d="M5.39843 61.125C5.28124 60.6328 5.16406 60.1406 5.06249 59.6484C4.88281 58.8047 4.05468 58.2578 3.21093 58.4375C2.36718 58.6172 1.82031 59.4453 1.99999 60.2891C2.10937 60.8125 2.22656 61.3281 2.35937 61.8516C2.56249 62.6875 3.41406 63.2031 4.24999 63C5.08593 62.7969 5.60156 61.9453 5.39843 61.1094V61.125Z" fill="#E38B29"/>
<path d="M7.48437 67.5859C7.29687 67.125 7.11719 66.6562 6.9375 66.1797C6.64062 65.3672 5.74219 64.9531 4.92969 65.25C4.11719 65.5468 3.70312 66.4453 4 67.2578C4.1875 67.7812 4.38281 68.2812 4.57812 68.7656C4.89844 69.5625 5.8125 69.9531 6.61719 69.6328C7.41406 69.3125 7.80469 68.3984 7.48437 67.5937V67.5859Z" fill="#E38B29"/>
<path d="M16.4062 17.6172C16.8281 17.6172 17.2266 17.4453 17.5234 17.1485C17.875 16.7891 18.2344 16.4375 18.6016 16.086C19.25 15.5156 19.3203 14.5313 18.75 13.8828C18.1797 13.2344 17.1953 13.1641 16.5469 13.7344C16.5156 13.7656 16.4766 13.7969 16.4453 13.8281C16.0547 14.1953 15.6719 14.5781 15.2969 14.961C14.6953 15.5781 14.7031 16.5703 15.3203 17.1719C15.6094 17.461 16.0078 17.6172 16.4141 17.6172H16.4062Z" fill="#E38B29"/>
<path d="M24.2656 88.5313C23.8516 88.2422 23.4375 87.9531 23.0313 87.6484C22.3359 87.1328 21.3594 87.2734 20.8438 87.9688C20.3281 88.6641 20.4688 89.6406 21.1641 90.1563C21.5938 90.4766 22.0313 90.7891 22.4766 91.0938C23.1875 91.5859 24.1641 91.4063 24.6563 90.7031C25.1484 89.9922 24.9688 89.0156 24.2578 88.5234L24.2656 88.5313Z" fill="#E38B29"/>
<path d="M27.5703 9.14061C27.8437 9.14061 28.1094 9.07811 28.3516 8.94529C28.7891 8.70311 29.2344 8.46092 29.6875 8.23436C30.4531 7.82811 30.7422 6.88279 30.3359 6.12498C29.9297 5.35936 28.9844 5.07029 28.2266 5.46873C27.75 5.71092 27.2734 5.97654 26.8047 6.24998C26.0469 6.66404 25.7734 7.61717 26.1953 8.37498C26.4766 8.8828 27.0078 9.18748 27.5859 9.17967L27.5703 9.14061Z" fill="#E38B29"/>
<path d="M17.8828 83.2109C17.2734 82.6016 16.2812 82.6016 15.6719 83.2109C15.0625 83.8203 15.0625 84.8125 15.6719 85.4219C16.0547 85.8047 16.4375 86.1719 16.8359 86.5391C17.4375 87.1562 18.4297 87.1641 19.0469 86.5625C19.6641 85.9609 19.6719 84.9687 19.0703 84.3516C19.0391 84.3203 19.0156 84.2969 18.9844 84.2656C18.6094 83.9219 18.2422 83.5703 17.8906 83.2109H17.8828Z" fill="#E38B29"/>
<path d="M2.86719 56.1172C3.72656 56.039 4.35937 55.2812 4.28125 54.4218C4.23437 53.8984 4.19531 53.3984 4.16406 52.914C4.10156 52.039 3.35156 51.3828 2.47656 51.4453C1.60156 51.5078 0.945311 52.2578 1.00781 53.1328C1.0625 53.6562 1.11719 54.1718 1.16406 54.6953C1.24219 55.5 1.92187 56.1093 2.72656 56.1093L2.86719 56.125V56.1172Z" fill="#E38B29"/>
<path d="M21.6797 12.9765C22.0234 12.9765 22.3516 12.8672 22.625 12.6562C23.0234 12.3515 23.4297 12.0547 23.8438 11.7656C24.5469 11.2656 24.7109 10.289 24.2109 9.58591C23.7109 8.88279 22.7344 8.71873 22.0313 9.21873C21.5938 9.53123 21.1641 9.85154 20.7344 10.1719C20.0469 10.6953 19.9141 11.6797 20.4375 12.3594C20.7344 12.7422 21.1875 12.9765 21.6797 12.9765Z" fill="#E38B29"/>
<path d="M4.76563 35.2735C5.57813 35.5626 6.46875 35.1407 6.76563 34.3282C6.92969 33.8438 7.09375 33.3672 7.25782 32.9063C7.57032 32.1016 7.17969 31.1954 6.36719 30.8751C5.5625 30.5626 4.65625 30.9532 4.34375 31.7657C4.14844 32.2891 3.96094 32.7891 3.78125 33.2813C3.49219 34.0938 3.92188 34.9844 4.74219 35.2735C4.75 35.2735 4.75782 35.2735 4.76563 35.2813V35.2735Z" fill="#E38B29"/>
<path d="M92.6172 28.4062C92.8516 28.8515 93.0781 29.2969 93.2891 29.7578C93.6641 30.539 94.5937 30.8672 95.375 30.4922C96.1562 30.1172 96.4844 29.1875 96.1094 28.4062C95.875 27.9219 95.6328 27.4453 95.3906 26.9687C94.9922 26.2031 94.0469 25.9062 93.2812 26.3047C92.5156 26.7031 92.2187 27.6484 92.6172 28.414V28.4062Z" fill="#E38B29"/>
<path d="M2.49218 49.1016H2.57031C3.39062 49.1016 4.07031 48.4766 4.13281 47.6563C4.13281 47.1328 4.16406 46.6172 4.23437 46.0938C4.30468 45.2344 3.66406 44.4766 2.80468 44.3985C1.94531 44.3282 1.1875 44.9688 1.10937 45.8282C1.07031 46.3516 1.03125 46.8828 0.999995 47.4375C0.945308 48.2969 1.60156 49.0391 2.46093 49.0938C2.46875 49.0938 2.47656 49.0938 2.49218 49.0938V49.1016Z" fill="#E38B29"/>
<path d="M98.3047 39.3828C97.4531 39.5468 96.8984 40.3593 97.0625 41.2109C97.1563 41.7031 97.2422 42.2031 97.3203 42.7031C97.4375 43.4687 98.1094 44.0312 98.8828 44.0234H99.125C99.9766 43.8828 100.555 43.0781 100.414 42.2265C100.414 42.2109 100.414 42.2031 100.414 42.1874C100.328 41.664 100.242 41.1484 100.141 40.6249C99.9766 39.7734 99.1641 39.2187 98.3125 39.3828H98.3047Z" fill="#E38B29"/>
<path d="M64.6484 3.49219C64.875 2.65625 64.3828 1.79687 63.5547 1.57031C63.5391 1.57031 63.5234 1.57031 63.5078 1.5625V4.60156C64.0625 4.46875 64.5 4.03906 64.6484 3.49219Z" fill="#E38B29"/>
<path d="M95.3047 34.6406C95.4687 35.1172 95.625 35.5938 95.7734 36.0781C96.0312 36.9063 96.9062 37.3672 97.7344 37.1172C98.5625 36.8594 99.0234 35.9844 98.7656 35.1563C98.6015 34.6328 98.4375 34.1172 98.2656 33.5938C97.9844 32.7813 97.0937 32.3438 96.2812 32.6328C95.4687 32.9141 95.0312 33.8047 95.3125 34.6172V34.6406H95.3047Z" fill="#E38B29"/>
<path d="M3.125 42.1093C3.96875 42.2734 4.78906 41.7265 4.96094 40.8828C5.0625 40.3593 5.16406 39.8672 5.28125 39.4062C5.47656 38.5625 4.95313 37.7265 4.10938 37.5312C3.26563 37.3359 2.42969 37.8593 2.23438 38.7031C2.11719 39.2265 2 39.7422 1.89844 40.2656C1.72656 41.1093 2.27344 41.9375 3.11719 42.1093H3.125Z" fill="#E38B29"/>
<path d="M10.9297 22.6563C11.625 23.1641 12.6016 23.0157 13.1172 22.3282C13.4141 21.9219 13.7188 21.5235 14.0313 21.125C14.5313 20.4219 14.375 19.4453 13.6719 18.9453C13.0078 18.4688 12.0938 18.586 11.5703 19.2032C11.2344 19.625 10.9141 20.0547 10.5938 20.4922C10.0938 21.1875 10.2422 22.1563 10.9297 22.6641V22.6563Z" fill="#E38B29"/>
<path d="M30.1172 92C29.6641 91.7734 29.2188 91.5469 28.7734 91.3047C28.0156 90.8984 27.0625 91.1797 26.6563 91.9375C26.25 92.6953 26.5313 93.6484 27.2891 94.0547C27.7656 94.3125 28.2422 94.5703 28.7266 94.8359C29.4844 95.2422 30.4375 94.9609 30.8438 94.1953C31.25 93.4375 30.9688 92.4844 30.2031 92.0781C30.1719 92.0625 30.1484 92.0468 30.1172 92.039V92Z" fill="#E38B29"/>
<path d="M7.38281 28.7422C8.14062 29.1563 9.08593 28.875 9.5 28.125C9.73437 27.6797 9.97656 27.2344 10.2344 26.7969C10.6641 26.0469 10.4062 25.086 9.65625 24.6563C8.90625 24.2266 7.94531 24.4844 7.51562 25.2344C7.25 25.7032 6.99218 26.1719 6.73437 26.6485C6.34375 27.4063 6.63281 28.336 7.38281 28.7422Z" fill="#E38B29"/>
<path d="M86.0625 81.1094C85.7266 81.4844 85.3906 81.8594 85.0391 82.2266C84.4453 82.8516 84.4766 83.8438 85.1016 84.4375C85.7266 85.0313 86.7188 85 87.3125 84.375C87.6797 83.9844 88.0469 83.586 88.3984 83.1875C88.9688 82.5391 88.9141 81.5469 88.2656 80.9766C87.6172 80.4063 86.625 80.461 86.0547 81.1094H86.0625Z" fill="#E38B29"/>
<path d="M91.2188 24.5547C92.0781 24.5547 92.7813 23.8593 92.7813 22.9922C92.7813 22.6797 92.6875 22.375 92.5156 22.1172C92.2109 21.6718 91.9063 21.2265 91.5938 20.7968C91.0781 20.0937 90.0938 19.9453 89.3906 20.4531C88.6875 20.9687 88.5391 21.9531 89.0469 22.6562C89.3359 23.0625 89.625 23.4765 89.9063 23.8984C90.2031 24.3203 90.6953 24.5625 91.2109 24.5547H91.2188Z" fill="#E38B29"/>
<path d="M92.3672 75.2656C91.6484 74.789 90.6797 74.9922 90.2031 75.7109C89.9297 76.1328 89.6406 76.5469 89.3516 76.9609C88.875 77.6797 89.0781 78.6484 89.8047 79.125C90.4922 79.5781 91.4141 79.414 91.9063 78.7578C92.2109 78.3203 92.5156 77.875 92.8125 77.4219C93.2812 76.7031 93.0859 75.7422 92.3672 75.2656Z" fill="#E38B29"/>
<path d="M85.7266 18.5156C86.3047 19.164 87.3047 19.2187 87.9531 18.6328C88.6016 18.0547 88.6563 17.0547 88.0703 16.414C87.7109 16.0156 87.3438 15.625 86.9688 15.2422C86.3672 14.6172 85.3828 14.6015 84.7578 15.2031C84.1328 15.8047 84.1172 16.789 84.7188 17.414C85.0547 17.7812 85.3906 18.1484 85.7266 18.5156Z" fill="#E38B29"/>
<path d="M81.1953 85.8516C80.8125 86.1719 80.4219 86.4922 80.0234 86.8047C79.3438 87.336 79.2344 88.3204 79.7656 89C80.2969 89.6797 81.2812 89.7891 81.9609 89.2579C82.3828 88.9219 82.7969 88.586 83.2109 88.2422C83.8672 87.6875 83.9531 86.6954 83.3984 86.0391C82.8438 85.3829 81.8516 85.2969 81.1953 85.8516Z" fill="#E38B29"/>
<path d="M97.8828 62.3672C97.0547 62.1172 96.1875 62.5859 95.9375 63.414C95.7891 63.8984 95.6406 64.375 95.4844 64.8515C95.2109 65.6719 95.6562 66.5547 96.4687 66.8359C97.2891 67.1094 98.1719 66.664 98.4531 65.8437C98.625 65.3203 98.7891 64.8047 98.9375 64.2812C99.1641 63.4609 98.6953 62.6094 97.8828 62.3672Z" fill="#E38B29"/>
<path d="M95.5937 69.0156C94.8125 68.6562 93.8828 69 93.5234 69.7812C93.5234 69.7812 93.5234 69.789 93.5234 69.7968C93.3125 70.2578 93.0859 70.7109 92.8594 71.1562C92.4687 71.9297 92.7734 72.8672 93.5469 73.2578C94.3203 73.6484 95.2578 73.3437 95.6484 72.5703C95.8906 72.0937 96.125 71.6093 96.3516 71.1172C96.7266 70.3437 96.4062 69.4062 95.6328 69.0312C95.625 69.0312 95.6172 69.0234 95.6016 69.0156H95.5937Z" fill="#E38B29"/>
<path d="M99.1641 55.4687C98.3125 55.3437 97.5156 55.9296 97.3906 56.789C97.3203 57.3124 97.2344 57.8046 97.1484 58.2812C97 59.1328 97.5625 59.9453 98.4141 60.0937C99.2656 60.2421 100.078 59.6796 100.227 58.8281C100.32 58.3046 100.406 57.789 100.484 57.2656C100.617 56.414 100.039 55.6171 99.1797 55.4765H99.1641V55.4687Z" fill="#E38B29"/>
<path d="M101.008 49.7187C101.016 49.6249 101.016 49.5312 101.008 49.4374C101.008 48.914 100.992 48.3828 100.961 47.8281C100.922 46.9687 100.195 46.2968 99.3359 46.3281C98.4765 46.3593 97.8047 47.0937 97.8359 47.9531C97.8359 48.4765 97.8515 48.9765 97.875 49.4609C97.875 49.5468 97.875 49.6406 97.875 49.7265C97.875 49.8125 97.875 49.9062 97.875 49.9921C97.875 50.5156 97.875 51.0156 97.875 51.5078C97.8515 52.3593 98.5156 53.0781 99.3672 53.1171H99.4453C100.289 53.1171 100.984 52.4453 101.008 51.6015V49.9921C101.016 49.8984 101.016 49.8046 101.008 49.7109V49.7187Z" fill="#E38B29"/>
<path d="M79.6172 12.8749C80.0156 13.1796 80.4141 13.4999 80.7969 13.8203C81.4609 14.3671 82.4531 14.2734 83 13.6093C83.5469 12.9453 83.4531 11.9531 82.7891 11.4062C82.375 11.0624 81.9531 10.7265 81.5313 10.3984C80.8438 9.86713 79.8672 9.99213 79.3359 10.6796C78.8047 11.3671 78.9297 12.3437 79.6172 12.8749Z" fill="#E38B29"/>
<path d="M33.9375 6.2031C34.125 6.2031 34.3125 6.16404 34.4844 6.10154C34.9531 5.92185 35.4297 5.75779 35.9062 5.59372C36.7344 5.35154 37.2109 4.48435 36.9687 3.65622C36.7266 2.8281 35.8594 2.35154 35.0312 2.59372C34.9922 2.60154 34.9531 2.61716 34.9219 2.63279C34.3984 2.80466 33.8984 2.98435 33.4062 3.17185C32.6016 3.47654 32.1953 4.38279 32.5 5.18747C32.7266 5.78904 33.3047 6.19529 33.9531 6.19529H33.9453L33.9375 6.2031Z" fill="#E38B29"/>
<path d="M73.9453 9.11724C74.3906 9.36724 74.8203 9.62505 75.25 9.89849C75.9687 10.3672 76.9375 10.1641 77.4141 9.44536C77.8906 8.72661 77.6797 7.75786 76.9609 7.2813C76.9297 7.26567 76.8984 7.24224 76.8672 7.22661C76.4062 6.95317 75.9453 6.68755 75.4687 6.44536C74.7187 6.01567 73.7578 6.27349 73.3203 7.02349C72.8828 7.77349 73.1484 8.73442 73.9062 9.16411L73.9453 9.10942V9.11724Z" fill="#E38B29"/>
<path d="M75.6953 89.8437C75.2656 90.1093 74.8359 90.3671 74.3984 90.625C73.6719 91.0859 73.4531 92.0546 73.9219 92.7812C74.3594 93.4687 75.2422 93.7031 75.9609 93.3281C76.4219 93.0546 76.8828 92.7812 77.3438 92.5C78.0781 92.0468 78.3047 91.0781 77.8516 90.3515C77.3984 89.625 76.4297 89.3906 75.7031 89.8437H75.6953Z" fill="#E38B29"/>
<path d="M67.7891 6.24996C68.2656 6.42965 68.7344 6.61715 69.1953 6.81246C70 7.1484 70.9219 6.76559 71.25 5.9609C71.5859 5.15621 71.2031 4.23434 70.4062 3.90621C69.8828 3.69528 69.3828 3.49996 68.9062 3.30465C68.0937 2.99996 67.1797 3.40621 66.875 4.21871C66.5703 5.03121 66.9766 5.94528 67.7891 6.24996Z" fill="#E38B29"/>
<path d="M51.0078 20.3125C51.8672 20.3125 52.5703 19.6094 52.5703 18.75V1.5625C52.5703 0.703125 51.8672 0 51.0078 0C50.1484 0 49.4453 0.703125 49.4453 1.5625V18.75C49.4453 19.6094 50.1484 20.3125 51.0078 20.3125Z" fill="#E38B29"/>
<path d="M43.1953 10.9375C44.0547 10.9375 44.7578 10.2344 44.7578 9.375V1.5625C44.7578 0.703125 44.0547 0 43.1953 0C42.3359 0 41.6328 0.703125 41.6328 1.5625V9.375C41.6328 10.2344 42.3359 10.9375 43.1953 10.9375Z" fill="#E38B29"/>
<path d="M58.8203 10.9375C59.6797 10.9375 60.3828 10.2344 60.3828 9.375V1.5625C60.3828 0.703125 59.6797 0 58.8203 0C57.9609 0 57.2578 0.703125 57.2578 1.5625V9.375C57.2578 10.2344 57.9609 10.9375 58.8203 10.9375Z" fill="#E38B29"/>
<path d="M51.0078 79.6875C50.1484 79.6875 49.4453 80.3906 49.4453 81.25V98.4375C49.4453 99.2969 50.1484 100 51.0078 100C51.8672 100 52.5703 99.2969 52.5703 98.4375V81.25C52.5703 80.3906 51.8672 79.6875 51.0078 79.6875Z" fill="#E38B29"/>
<path d="M43.1953 89.0625C42.3359 89.0625 41.6328 89.7656 41.6328 90.625V98.4375C41.6328 99.2969 42.3359 100 43.1953 100C44.0547 100 44.7578 99.2969 44.7578 98.4375V90.625C44.7578 89.7656 44.0547 89.0625 43.1953 89.0625Z" fill="#E38B29"/>
<path d="M58.8203 89.0625C57.9609 89.0625 57.2578 89.7656 57.2578 90.625V98.4375C57.2578 99.2969 57.9609 100 58.8203 100C59.6797 100 60.3828 99.2969 60.3828 98.4375V90.625C60.3828 89.7656 59.6797 89.0625 58.8203 89.0625Z" fill="#E38B29"/>
<path d="M78.3359 56.25C79.1989 56.25 79.8984 55.5504 79.8984 54.6875C79.8984 53.8246 79.1989 53.125 78.3359 53.125C77.473 53.125 76.7734 53.8246 76.7734 54.6875C76.7734 55.5504 77.473 56.25 78.3359 56.25Z" fill="#E38B29"/>
<path d="M69.8438 67.8047C69.5859 67.6094 69.3516 67.3984 69.1406 67.1562L67.6406 65.4531C67.5391 65.6953 67.3906 65.9062 67.1953 66.0781C66.9453 66.3516 66.5937 66.5156 66.2266 66.5312C65.5703 66.4453 64.9453 66.1719 64.4375 65.75L57.1172 57.9375C56.5313 57.3047 55.5391 57.2734 54.9063 57.8594C54.2734 58.4453 54.2422 59.4375 54.8281 60.0703L60.7734 66.4453C61.3438 66.8828 61.6406 67.5938 61.5547 68.3125C61.5156 68.7734 61.3125 69.2031 60.9844 69.5312C60.2344 70.1641 59.125 70.1094 58.4375 69.4062L57.3594 68.2187C57.2969 68.0937 57.2109 67.9766 57.1172 67.8672L49.875 60.1562C49.2813 59.5234 48.2969 59.4922 47.6641 60.0859C47.0312 60.6797 47 61.6641 47.5938 62.2969L54.3828 69.5312C54.5156 70.1406 54.3203 70.7734 53.8594 71.1953C53.1172 71.8359 52 71.7891 51.3125 71.0937L42.0391 61.7187C41.4297 61.1094 40.4375 61.1172 39.8281 61.7266C39.2188 62.3359 39.2266 63.3281 39.8281 63.9375L47.0938 71.1484L47.1875 71.2188C47.375 71.8594 47.1719 72.5469 46.6797 72.9844C46.4219 73.2578 46.0703 73.4219 45.6953 73.4375C45.0469 73.3516 44.4375 73.0781 43.9453 72.6562L27.2969 59.6484C27.0234 59.4297 26.6875 59.3125 26.3359 59.3125H24.7734V58.0156C24.7734 57.1562 24.0703 56.4531 23.2109 56.4531C22.3516 56.4531 21.6484 57.1562 21.6484 58.0156V61.8672C21.6484 62.2578 21.4141 62.5 21.2578 62.5H17.3516C17.1953 62.5 16.9609 62.25 16.9609 61.8672V36.5703C16.9609 36.1797 17.1953 35.9375 17.3516 35.9375H21.2578C21.4141 35.9375 21.6484 36.1875 21.6484 36.5703V45.3125C21.6484 46.1719 22.3516 46.875 23.2109 46.875C24.0703 46.875 24.7734 46.1719 24.7734 45.3125V39.0625H30.6875C31.2031 37.8125 32.0625 36.7266 33.1641 35.9375H24.7188C24.4922 34.1875 23.0234 32.8594 21.2578 32.8125H17.3516C15.3438 32.8828 13.7734 34.5625 13.8359 36.5703V61.8672C13.7734 63.875 15.3516 65.5547 17.3594 65.625H21.2656C23.0469 65.5703 24.5234 64.2187 24.7266 62.4453H25.7969L42.0313 75.1719C43.0625 76.0078 44.3438 76.5 45.6719 76.5625C46.8203 76.5469 47.9141 76.1016 48.7422 75.3125C49.1953 74.9062 49.5625 74.4219 49.8359 73.8828C51.7109 75.1875 54.2422 75.0312 55.9453 73.5078C56.3516 73.1406 56.6953 72.7109 56.9609 72.2266C58.8359 73.5312 61.3516 73.3828 63.0625 71.875C63.8125 71.2109 64.3359 70.3359 64.5625 69.3594C65.0938 69.5547 65.6562 69.6641 66.2266 69.6641C67.3672 69.6484 68.4531 69.2031 69.2734 68.4141C69.4766 68.2266 69.6641 68.0234 69.8359 67.8047H69.8438Z" fill="#E38B29"/>
</svg>
