<svg width="95" height="100" viewBox="0 0 95 100" fill="none" xmlns="http://www.w3.org/2000/svg">
<g clip-path="url(#clip0_107_5441)">
<path d="M93.1 38.1333H86.7C85.7 33.8444 84.0111 29.7444 81.6778 26.0111L86.2 21.4889C86.8111 20.8778 86.8111 19.8889 86.2 19.2667L75.4 8.46667C74.7889 7.85556 73.8 7.85556 73.1778 8.46667L68.6555 12.9889C64.9222 10.6556 60.8222 8.96667 56.5444 7.96667V1.56667C56.5444 0.7 55.8333 0 54.9667 0H39.6889C38.8222 0 38.1222 0.7 38.1222 1.56667V7.96667C33.8333 8.96667 29.7333 10.6556 26 12.9889L21.4778 8.46667C20.8667 7.85556 19.8778 7.85556 19.2556 8.46667L8.45555 19.2667C7.84444 19.8778 7.84444 20.8667 8.45555 21.4889L12.9778 26.0222C10.6444 29.7556 8.94444 33.8556 7.95555 38.1445H1.56667C0.7 38.1445 0 38.8445 0 39.7111V54.9889C0 55.8556 0.7 56.5556 1.56667 56.5556H7.52222L3.43333 77.0444C3.1 78.7333 4.2 80.3778 5.88889 80.7222L13.7 82.2778C15.3222 82.6 16.9222 81.6 17.3333 79.9889L35.6 98.2445C37.9556 100.6 41.7667 100.6 44.1222 98.2445C44.8333 97.5333 45.3667 96.6445 45.6444 95.6778L47.9778 98.0111C50.3333 100.367 54.1444 100.367 56.5 98.0111C57.2222 97.2889 57.7444 96.4 58.0222 95.4333C60.5333 97.6222 64.3333 97.3667 66.5222 94.8556C67.4778 93.7556 68.0111 92.3445 68.0111 90.8889C68.0111 90.7889 68.0111 90.7 68.0111 90.6C69.7111 90.6889 71.3667 90.0445 72.5667 88.8445C74.1111 87.2778 74.6889 85 74.0778 82.8778L77.2889 79.6667L77.3222 79.8222C77.6555 81.5111 79.3 82.6111 80.9889 82.2778L88.8 80.7222C90.4889 80.3778 91.5889 78.7445 91.2555 77.0444L87.1666 56.5556H93.1222C93.9889 56.5556 94.6889 55.8556 94.6889 54.9889V39.7111C94.6889 38.8445 93.9889 38.1445 93.1222 38.1445L93.1 38.1333ZM14.2889 79.1778L6.51111 77.6222L12.5667 47.2L20.3444 48.7444L14.2889 79.1667V79.1778ZM73.6889 45.6889C73.0333 45.8222 72.4333 46.1556 71.9889 46.6556C70.7444 44.6111 68.9111 42.9778 66.7333 41.9667C69.5889 39.2 69.6667 34.6333 66.8889 31.7667C64.1222 28.9111 59.5555 28.8333 56.6889 31.6111C55.2889 32.9667 54.5 34.8333 54.5 36.7889C54.5 36.9333 54.5 37.0667 54.5111 37.2111C53.8333 36.7 53.1111 36.2667 52.3444 35.9111C55.2111 33.1444 55.2778 28.5778 52.5111 25.7111C49.7444 22.8444 45.1778 22.7778 42.3111 25.5444C39.4444 28.3111 39.3778 32.8778 42.1444 35.7444C42.2 35.8 42.2556 35.8556 42.3111 35.9111C41.5444 36.2667 40.8111 36.7 40.1444 37.2111C40.1444 37.0778 40.1555 36.9333 40.1555 36.7889C40.1555 32.8 36.9333 29.5667 32.9556 29.5667C28.9778 29.5667 25.7333 32.7889 25.7333 36.7667C25.7333 38.7222 26.5222 40.6 27.9222 41.9556C25.7444 42.9556 23.9222 44.5889 22.6778 46.6445C22.2333 46.1445 21.6333 45.8 20.9778 45.6778L19.5111 45.3889C20.6111 30.0222 33.9444 18.4556 49.3111 19.5556C63.1555 20.5444 74.1555 31.5556 75.1444 45.3889L73.6778 45.6778L73.6889 45.6889ZM28.8778 36.8C28.8778 34.5444 30.7 32.7222 32.9556 32.7222C35.2111 32.7222 37.0333 34.5444 37.0333 36.8C37.0333 39.0556 35.2111 40.8778 32.9556 40.8778C30.7 40.8778 28.8778 39.0556 28.8778 36.8ZM32.9556 44.0111C35.9667 44.0222 38.7667 45.5556 40.4 48.0778H25.5111C27.1444 45.5445 29.9444 44.0111 32.9667 44.0111H32.9556ZM43.5 45.4889L42.8222 46.0556C41.9222 44.7556 40.7667 43.6556 39.4444 42.8C40.9667 39.8333 44.0111 37.9667 47.3444 37.9556C50.6667 37.9556 53.7222 39.8333 55.2333 42.7889C54.3667 43.3556 53.5667 44.0222 52.8667 44.7889C49.9222 42.9778 46.1444 43.2667 43.5 45.4889ZM43.2667 30.7444C43.2667 28.4889 45.0889 26.6667 47.3444 26.6667C49.6 26.6667 51.4222 28.4889 51.4222 30.7444C51.4222 33 49.6 34.8222 47.3444 34.8222C45.1 34.8222 43.2667 33 43.2667 30.7444ZM61.7333 40.8778C59.4778 40.8778 57.6555 39.0556 57.6555 36.8C57.6555 34.5444 59.4778 32.7222 61.7333 32.7222C63.9778 32.7222 65.8111 34.5444 65.8111 36.8C65.8111 39.0556 63.9778 40.8778 61.7333 40.8778ZM61.7333 44.0111C65.4889 44.0111 68.8333 46.3778 70.0889 49.9111C66.0111 50.9889 61.2 50.9333 55.4222 46.6556C57.0778 44.9667 59.3555 44.0111 61.7222 44L61.7333 44.0111ZM70.3444 86.6111C69.2111 87.7333 67.3889 87.7333 66.2555 86.6111L52.9667 73.3333C52.3555 72.7222 51.3555 72.7222 50.7444 73.3333C50.1333 73.9445 50.1333 74.9445 50.7444 75.5556L64.0222 88.8222C65.1555 89.9556 65.1444 91.7778 64.0222 92.9111C62.8889 94.0445 61.0667 94.0333 59.9333 92.9111L45.9111 78.8889C45.3 78.2778 44.3 78.2778 43.6889 78.8889C43.0778 79.5 43.0778 80.5 43.6889 81.1111L54.2778 91.7C55.4111 92.8333 55.4111 94.6556 54.2778 95.7889C53.1444 96.9222 51.3222 96.9222 50.1889 95.7889L38.8555 84.4445C38.2444 83.8333 37.2444 83.8333 36.6333 84.4445C36.0222 85.0556 36.0222 86.0556 36.6333 86.6667L41.9111 91.9445C43.0444 93.0778 43.0444 94.9 41.9111 96.0333C40.7778 97.1667 38.9556 97.1667 37.8222 96.0333L18.0889 76.2889L23.0778 51.2333H36.6444L33.0444 54.2445C31.3222 55.5556 30.5 57.7445 30.9333 59.8667L34.1111 74.4111C34.3 75.2556 35.1333 75.7889 35.9778 75.6111C35.9889 75.6111 36.0111 75.6111 36.0222 75.6111C44.6667 73.4778 45.2222 67.1778 45.7111 61.6111C45.7444 61.2667 45.7778 60.9111 45.8 60.5556C46.4444 60.4889 48.6444 61.1111 51.8667 64.0333L70.9555 83.4111C71.4333 84.5 71.1889 85.7778 70.3555 86.6222L70.3444 86.6111ZM72.2444 80.2556L54.0444 61.7889C54.0444 61.7889 54 61.7445 53.9778 61.7333C50.2111 58.3 46.7778 56.8 44.5555 57.6333C43.5 58.0222 42.7555 58.9889 42.6555 60.1111V60.1445C42.6222 60.5333 42.5889 60.9222 42.5444 61.3222C42.1 66.4333 41.7555 70.2445 36.7778 72.0778L33.9667 59.1889C33.8 58.2 34.2111 57.2111 35.0333 56.6333L45.5 47.9C47.4778 46.3111 50.3222 46.4111 52.1889 48.1333C60.1 54.6778 66.7555 54.2667 71.8778 52.6778L76.5222 75.9667L72.2333 80.2667L72.2444 80.2556ZM80.3889 79.1778L74.3222 48.7556L82.1 47.2L88.1555 77.6111L80.3889 79.1667V79.1778ZM91.5444 53.4H86.5222L85.1667 46.5778C84.8222 44.8889 83.1889 43.7889 81.4889 44.1222L78.2444 44.7667C76.8333 27.6889 61.8555 14.9889 44.7778 16.4C29.6556 17.6444 17.6556 29.6445 16.4111 44.7667L13.1667 44.1222C11.4778 43.7889 9.83333 44.8889 9.48889 46.5778L8.13333 53.4H3.13333V41.2556H9.23333C9.97778 41.2556 10.6222 40.7333 10.7667 40C11.7111 35.2333 13.5889 30.7 16.3 26.6667C16.7111 26.0444 16.6333 25.2111 16.1 24.6889L11.7889 20.3778L20.3778 11.7889L24.6889 16.1C25.2222 16.6333 26.0444 16.7111 26.6667 16.3C30.7 13.6 35.2333 11.7111 40 10.7667C40.7333 10.6222 41.2667 9.97778 41.2667 9.22222V3.13333H53.4111V9.23334C53.4111 9.97778 53.9444 10.6222 54.6778 10.7778C59.4444 11.7222 63.9778 13.6 68.0111 16.3111C68.6333 16.7222 69.4667 16.6444 69.9889 16.1111L74.3 11.8L82.8778 20.3889L78.5667 24.7C78.0333 25.2333 77.9555 26.0556 78.3667 26.6778C81.0667 30.7222 82.9444 35.2556 83.9 40.0222C84.0444 40.7556 84.6889 41.2889 85.4333 41.2778H91.5333V53.4111L91.5444 53.4Z" fill="#E38B29"/>
</g>
<defs>
<clipPath id="clip0_107_5441">
<rect width="94.6667" height="100" fill="white"/>
</clipPath>
</defs>
</svg>
