<svg width="119" height="100" viewBox="0 0 119 100" fill="none" xmlns="http://www.w3.org/2000/svg">
<path fill-rule="evenodd" clip-rule="evenodd" d="M76.8562 82.5156C75.9549 82.5156 75.2433 81.8155 75.2433 80.9288C75.2433 80.042 75.9549 79.3419 76.8562 79.3419H98.2273C99.1286 79.3419 99.8402 80.042 99.8402 80.9288C99.8402 81.8155 99.1286 82.5156 98.2273 82.5156H76.8562ZM83.6874 54.7226H98.251C99.1523 54.7226 99.8639 55.4227 99.8639 56.3094V70.6377C99.8639 71.5244 99.1523 72.2245 98.251 72.2245H83.6874C82.786 72.2245 82.0745 71.5244 82.0745 70.6377V56.3094C82.0745 55.446 82.786 54.7226 83.6874 54.7226ZM96.6143 57.8963H85.3003V69.0275H96.6143V57.8963ZM43.5782 40.2544C42.1076 40.2544 40.6844 40.441 39.3087 40.7677V73.4846C40.6607 73.8347 42.1076 73.998 43.5782 73.998C48.322 73.998 52.6152 72.1078 55.7224 69.0508C58.8296 65.9938 60.7509 61.77 60.7509 57.1029C60.7509 52.4357 58.8296 48.2119 55.7224 45.1549C52.6152 42.1446 48.322 40.2544 43.5782 40.2544ZM36.0829 41.9345C34.3514 42.7513 32.7859 43.8714 31.4339 45.2016C28.3267 48.2586 26.4054 52.4824 26.4054 57.1495C26.4054 61.8167 28.3267 66.0405 31.4339 69.0975C32.7859 70.4276 34.3514 71.5244 36.0829 72.3645V41.9345ZM29.1569 42.938C31.3865 40.7444 34.1142 39.0642 37.174 38.0841C37.1977 38.0841 37.2214 38.0608 37.2451 38.0608C39.2375 37.4074 41.3723 37.0574 43.6019 37.0574C49.2233 37.0574 54.323 39.2976 58.0232 42.938C61.7234 46.5784 64.0004 51.5956 64.0004 57.1262C64.0004 62.6568 61.7234 67.674 58.0232 71.3144C54.323 74.9548 49.2233 77.195 43.6019 77.195C41.3723 77.195 39.2375 76.845 37.2451 76.1916C37.2214 76.1916 37.1977 76.1683 37.1977 76.1683C34.1379 75.1648 31.4102 73.4846 29.1806 71.3144C25.4804 67.674 23.2033 62.6568 23.2033 57.1262C23.2033 51.5956 25.4804 46.5784 29.1569 42.938ZM43.5782 33.3003C50.267 33.3003 56.3154 35.9606 60.7034 40.2777C65.0915 44.5948 67.7955 50.5455 67.7955 57.1262C67.7955 63.7069 65.0915 69.6575 60.7034 73.9747C56.3154 78.2918 50.267 80.9521 43.5782 80.9521C36.8893 80.9521 30.8409 78.2918 26.4529 73.9747C22.0648 69.6575 19.3608 63.7069 19.3608 57.1262C19.3608 50.5455 22.0648 44.5948 26.4529 40.2777C30.8409 35.9839 36.8893 33.3003 43.5782 33.3003ZM24.1758 38.0375C19.2185 42.9146 16.135 49.6821 16.135 57.1262C16.135 63.1702 18.1511 68.7708 21.5904 73.2746L16.7043 78.0818L16.301 77.6851C15.6606 77.055 14.6407 77.055 14.024 77.6851L0.480314 91.0332C-0.160105 91.6633 -0.160105 92.6667 0.480314 93.2734L6.83707 99.5275C7.47749 100.158 8.49741 100.158 9.11411 99.5275L22.6578 86.2027C23.2982 85.5726 23.2982 84.5692 22.6578 83.9624L22.2546 83.5657L27.1407 78.7585C29.7973 80.6954 32.8096 82.1889 36.0592 83.099V92.0833C36.0592 94.0435 36.8656 95.8404 38.1939 97.1239C39.4984 98.4073 41.3248 99.2241 43.3172 99.2241H101.999C103.991 99.2241 105.817 98.4307 107.122 97.1239C108.427 95.8404 109.257 94.0435 109.257 92.0833V87.6028H111.344C113.336 87.6028 115.163 86.8094 116.467 85.5026C117.772 84.2191 118.602 82.4223 118.602 80.4621V15.8217C118.602 15.3783 118.412 14.9816 118.128 14.6783L103.683 0.466717C103.374 0.163351 102.947 0 102.544 0H52.6863C50.6939 0 48.8675 0.793419 47.563 2.10023C46.2584 3.3837 45.4283 5.18056 45.4283 7.14077V11.6213H43.341C41.3485 11.6213 39.5222 12.4147 38.2176 13.7215C36.9131 15.005 36.0829 16.8018 36.0829 18.762V31.1534C31.5288 32.4135 27.4491 34.8171 24.1758 38.0375ZM39.3324 30.4533C40.7318 30.2433 42.155 30.1266 43.6019 30.1266C51.1683 30.1266 58.0469 33.1369 63.0042 38.0375C67.9615 42.9146 71.045 49.6821 71.045 57.1262C71.045 64.5703 67.9852 71.3377 63.0042 76.2149C58.0469 81.0921 51.1683 84.1258 43.6019 84.1258C42.155 84.1258 40.7318 84.0091 39.3324 83.7991V92.0833C39.3324 93.1801 39.7831 94.1602 40.5184 94.8836C41.2537 95.607 42.2499 96.0504 43.3647 96.0504H102.046C103.161 96.0504 104.157 95.607 104.892 94.8836C105.628 94.1602 106.078 93.1801 106.078 92.0833V29.0065H98.8914C96.899 29.0065 95.0726 28.2131 93.768 26.9062C92.4635 25.6228 91.6333 23.8259 91.6333 21.8657V14.7949H43.341C42.2262 14.7949 41.2299 15.2383 40.4947 15.9617C39.7594 16.6851 39.3087 17.6652 39.3087 18.762V30.4533H39.3324ZM24.6976 76.705C24.5316 76.5416 24.3656 76.3783 24.1758 76.2149C24.0098 76.0516 23.8438 75.8882 23.6777 75.7015L18.9813 80.3454L20.0012 81.3488L24.6976 76.705ZM19.0999 85.2226L7.97559 96.1671L3.89588 92.1533L15.0202 81.2088C15.0914 81.3722 15.21 81.5355 15.3523 81.6522L18.6492 84.8959C18.7916 85.0359 18.9339 85.1526 19.0999 85.2226ZM63.9292 27.933C63.0279 27.933 62.3163 27.233 62.3163 26.3462C62.3163 25.4594 63.0279 24.7593 63.9292 24.7593H83.4976C84.3989 24.7593 85.1105 25.4594 85.1105 26.3462C85.1105 27.233 84.3989 27.933 83.4976 27.933H63.9292ZM72.0412 37.3374C71.1399 37.3374 70.4283 36.6373 70.4283 35.7505C70.4283 34.8638 71.1399 34.1637 72.0412 34.1637H98.251C99.1523 34.1637 99.8639 34.8638 99.8639 35.7505C99.8639 36.6373 99.1523 37.3374 98.251 37.3374H72.0412ZM76.8562 47.6052C75.9549 47.6052 75.2433 46.9051 75.2433 46.0183C75.2433 45.1316 75.9549 44.4315 76.8562 44.4315H98.2273C99.1286 44.4315 99.8402 45.1316 99.8402 46.0183C99.8402 46.9051 99.1286 47.6052 98.2273 47.6052H76.8562ZM94.8117 17.0585L103.754 25.8561H98.844C97.7292 25.8561 96.7329 25.4128 95.9977 24.6893C95.2624 23.9659 94.8117 22.9858 94.8117 21.889V17.0585ZM48.6541 11.6213H93.1988C93.602 11.6213 94.029 11.7846 94.3373 12.088L108.782 26.2995C109.091 26.5795 109.257 26.9996 109.257 27.443V84.4525H111.344C112.459 84.4525 113.455 84.0091 114.19 83.2857C114.926 82.5623 115.376 81.5822 115.376 80.4854V17.4086H108.166C106.173 17.4086 104.347 16.6151 103.042 15.3083C101.738 14.0249 100.908 12.228 100.908 10.2678V3.19701H52.6863C51.5715 3.19701 50.5753 3.64039 49.84 4.36381C49.1047 5.08722 48.6541 6.06732 48.6541 7.16411V11.6213ZM104.157 5.43726L113.099 14.2349H108.166C107.051 14.2349 106.055 13.7915 105.319 13.0681C104.584 12.3447 104.133 11.3646 104.133 10.2678V5.43726H104.157Z" fill="#E38B29"/>
</svg>
