<svg width="95" height="100" viewBox="0 0 95 100" fill="none" xmlns="http://www.w3.org/2000/svg">
<g clip-path="url(#clip0_107_5451)">
<path d="M92.301 56.8284C91.8924 56.3875 91.2473 56.2692 90.7096 56.5273L56.0967 73.28L50.4086 70.6671C51.9032 70.2155 53.3548 69.8714 54.7741 69.5273C59.0215 68.5165 63.043 67.5488 67.1935 64.0757C70.0107 61.6456 70.7741 57.5918 69.0322 54.3015C68.0322 52.5488 66.8064 52.8069 66.4623 52.9359C61.5591 54.6563 54.8387 57.0112 40.7311 56.3983C33.2903 56.0757 29.1397 56.3337 23.3333 60.1402L20.8387 61.7101C20.2043 60.5703 18.8602 60.0434 17.6129 60.4198L14.1935 61.4628C13.3871 59.8391 11.5161 59.0327 9.77415 59.5595L2.61286 61.7531C0.731141 62.3875 -0.354881 64.3552 0.107485 66.28L6.49458 97.2262C6.68813 98.1617 7.27953 98.9789 8.10748 99.452C9.03222 100 10.1505 100.129 11.172 99.8176L21.1505 96.7746C22.8924 96.237 23.9892 94.5273 23.7526 92.7208L27.172 91.6778C28.6344 91.2262 29.4623 89.6778 29.0107 88.2155L28.9785 88.1079C32.6881 88.4843 36.3871 89.0757 40.0322 89.8821C41.8279 90.2477 43.3763 90.5595 44.6989 90.7423C45.8924 90.9036 47.0967 90.9789 48.2903 90.9789C53.8924 90.8284 59.3978 89.5165 64.4731 87.1402C64.5483 87.1079 64.6236 87.0649 64.6881 87.0219L89.9247 69.6886C92.6666 67.8069 94.1935 65.5918 94.4623 63.1294C94.6129 60.8176 93.8387 58.5488 92.3118 56.8176L92.301 56.8284ZM20.9354 93.6886C20.8172 93.9251 20.6021 94.0972 20.344 94.1832L10.3655 97.237C10.0645 97.323 9.75265 97.28 9.48383 97.1294C9.31178 97.0434 9.19351 96.8821 9.1505 96.6886L2.77415 65.7423C2.60211 65.194 2.87093 64.5918 3.40856 64.366L10.5698 62.1832C10.6666 62.1509 10.7634 62.1402 10.8602 62.1402C11.301 62.1402 11.6881 62.4305 11.8172 62.8499L21.0215 92.9359C21.0967 93.194 21.0645 93.4628 20.9354 93.6993V93.6886ZM26.3978 89.0542C26.3978 89.0542 26.3871 89.0757 26.3763 89.0757L23.0107 90.1079L15.0537 64.0649L18.4193 63.0327C18.4193 63.0327 18.4408 63.0327 18.4516 63.0327C18.4623 63.0327 18.4731 63.0434 18.4731 63.0649L26.4086 89.0112C26.4086 89.0112 26.4086 89.0327 26.4086 89.0434L26.3978 89.0542ZM91.7526 62.8391C91.5698 64.4843 90.4408 66.0327 88.3763 67.452L63.2473 84.7208C59.4623 86.3983 52.1612 89.0112 45.0645 88.0542C43.8279 87.8929 42.3225 87.5811 40.5806 87.2262C36.4731 86.3122 32.3225 85.6778 28.129 85.323L21.7311 64.3875L24.8064 62.452H24.8279C30.0322 59.0327 33.4623 58.8176 40.6236 59.1294C42.2365 59.194 43.7526 59.237 45.1935 59.237C56.2473 59.237 62.258 57.3122 66.7311 55.7531C67.1075 56.5488 67.2795 57.4198 67.2473 58.2907C67.2258 59.7316 66.5698 61.0864 65.4623 62.0004C61.7957 65.0649 58.258 65.9036 54.1505 66.8929C51.4731 67.4735 48.8387 68.2585 46.2903 69.2585C45.9784 69.3875 45.4086 69.6348 44.8064 69.9036C44.2043 70.1725 43.5914 70.4413 43.301 70.5488C42.6021 70.8284 42.2688 71.6241 42.5483 72.323C42.8279 73.0219 43.6236 73.3552 44.3225 73.0757C44.6451 72.9466 45.258 72.6778 45.8924 72.3983L46.7849 72.0112L55.5698 76.0434C55.9354 76.2155 56.3655 76.2047 56.7311 76.0327L90.9032 59.495C91.5483 60.495 91.8602 61.6778 91.7741 62.8714L91.7526 62.8391ZM15.0752 89.5273C15.2903 90.2477 14.8924 91.0112 14.172 91.2262C13.4516 91.452 12.6989 91.0434 12.4731 90.3337L10.5698 84.1187C10.3548 83.3983 10.7526 82.6348 11.4731 82.4198C12.1935 82.2047 12.9569 82.6026 13.172 83.323L15.0752 89.538V89.5273ZM36.6559 27.1832C35.9032 27.1832 35.2903 27.7961 35.2903 28.5488V43.7101C35.2903 44.4628 35.9032 45.0757 36.6559 45.0757H42.2795C43.0322 45.0757 43.6451 44.4628 43.6451 43.7101V28.5488C43.6451 27.7961 43.0322 27.1832 42.2795 27.1832H36.6559ZM40.9139 42.3445H38.0107V29.9036H40.9139V42.3445ZM48.301 21.0542C47.5483 21.0542 46.9354 21.6563 46.9354 22.409V43.6993C46.9354 44.452 47.5483 45.0649 48.301 45.0649H53.9247C54.6774 45.0649 55.2903 44.452 55.2903 43.6993V22.409C55.2903 21.6563 54.6774 21.0434 53.9354 21.0434H48.3118L48.301 21.0542ZM52.5591 42.3445H49.6559V23.7638H52.5591V42.3445ZM59.9462 27.1832C59.1935 27.1832 58.5806 27.7961 58.5806 28.5488V43.7101C58.5806 44.4628 59.1935 45.0649 59.9354 45.0757H65.5591C66.3118 45.0757 66.9247 44.4628 66.9247 43.7208V28.5595C66.9247 27.8069 66.3118 27.194 65.5591 27.194H59.9354L59.9462 27.1832ZM64.215 42.3445H61.3118V29.9036H64.215V42.3445ZM71.6021 17.0542C70.8494 17.0542 70.2365 17.6671 70.2365 18.4198V43.7101C70.2365 44.4628 70.8494 45.0757 71.6021 45.0757H77.2258C77.9784 45.0757 78.5913 44.4628 78.5913 43.7101V18.4198C78.5913 17.6671 77.9784 17.0542 77.2258 17.0542H71.6021ZM75.8602 42.3445H72.9569V19.7746H75.8602V42.3445ZM29.5698 47.7531C29.5698 47.0004 30.1828 46.3875 30.9354 46.3875H82.9569C83.7096 46.366 84.3333 46.9574 84.3548 47.7101C84.3763 48.4628 83.7849 49.0864 83.0322 49.1079C83.0107 49.1079 82.9785 49.1079 82.9569 49.1079H30.9247C30.172 49.1079 29.5591 48.495 29.5591 47.7423L29.5698 47.7531ZM30.301 30.0972C29.7742 29.5703 29.7742 28.6993 30.301 28.1725L50.1505 8.32298C50.6774 7.7961 51.5376 7.78535 52.0645 8.32298L62.7204 18.8391L78.3225 3.1832L76.0537 3.45202C75.301 3.51653 74.6451 2.96815 74.5806 2.21546C74.5161 1.49503 75.0215 0.849867 75.7311 0.753092L81.9032 0.000404262C82.6451 -0.0856172 83.3333 0.441265 83.4193 1.19395C83.4301 1.30148 83.4301 1.40901 83.4193 1.51653L82.6774 7.68858C82.5914 8.37675 82.0107 8.88212 81.3225 8.88212C81.2688 8.88212 81.215 8.88212 81.1612 8.88212C80.4193 8.7961 79.8817 8.11868 79.9677 7.366L80.2365 5.11868L63.6881 21.7208C63.1612 22.2477 62.301 22.2477 61.7634 21.7208L51.1075 11.194L32.215 30.0864C31.6881 30.6133 30.8172 30.6133 30.2903 30.0864L30.301 30.0972Z" fill="#E38B29"/>
</g>
<defs>
<clipPath id="clip0_107_5451">
<rect width="94.4731" height="100" fill="white"/>
</clipPath>
</defs>
</svg>
