<svg width="85" height="100" viewBox="0 0 85 100" fill="none" xmlns="http://www.w3.org/2000/svg">
<g clip-path="url(#clip0_107_5443)">
<path d="M83.4884 34.1069L76.1476 32.6551C75.4115 30.0787 74.3789 27.6045 73.0805 25.253L77.2518 19.0369C77.6403 18.4644 77.5585 17.6976 77.0678 17.2068L67.4369 7.58614C66.9461 7.09539 66.1793 7.02382 65.6068 7.40211L59.3907 11.5735C57.0494 10.2648 54.565 9.24241 51.9886 8.50629L50.5368 1.16552C50.4039 0.490747 49.8109 0 49.1156 0H35.5076C34.8124 0 34.2194 0.490747 34.0865 1.16552L32.6347 8.50629C30.0685 9.24241 27.5841 10.275 25.2326 11.5735L19.0165 7.40211C18.4439 7.0136 17.6771 7.09539 17.1864 7.58614L7.56569 17.2068C7.07494 17.6976 7.00338 18.4644 7.38166 19.0369L11.553 25.253C10.2444 27.5943 9.22196 30.0787 8.48584 32.6551L1.14508 34.1069C0.470301 34.2399 -0.0204468 34.8328 -0.0204468 35.5281V49.1361C-0.0204468 49.8313 0.470301 50.4243 1.14508 50.5572L8.48584 52.009C9.22196 54.5752 10.2444 57.0596 11.553 59.4111L7.38166 65.6272C6.99315 66.1998 7.07494 66.9666 7.56569 67.4573L17.1966 77.0882C17.6056 77.4972 18.2292 77.6301 18.7711 77.4052C19.313 77.1802 19.6606 76.6588 19.6606 76.0658L19.681 62.6623L31.4283 50.915C31.6941 50.6492 31.8475 50.2812 31.8475 49.8927V43.7992H34.9044V58.6545L28.8007 64.9422C28.5349 65.2081 28.3918 65.5761 28.3918 65.9544V77.3643C25.7438 78.0186 23.7706 80.411 23.7706 83.2635C23.7706 86.6169 26.4901 89.3365 29.8436 89.3365C33.197 89.3365 35.9166 86.6169 35.9166 83.2635C35.9166 80.411 33.9434 78.0186 31.2954 77.3643V66.5372L37.399 60.2495C37.6649 59.9836 37.808 59.6156 37.808 59.2373V43.7992H40.865V88.0585C38.217 88.7128 36.2437 91.1052 36.2437 93.9577C36.2437 97.3111 38.9633 100.031 42.3167 100.031C45.6702 100.031 48.3897 97.3111 48.3897 93.9577C48.3897 91.1052 46.4165 88.7128 43.7685 88.0585V43.7992H46.3347V59.2373C46.3347 59.6156 46.4779 59.9734 46.7437 60.2495L52.8474 66.5269V77.3541C50.1994 78.0084 48.2262 80.4008 48.2262 83.2533C48.2262 86.6067 50.9457 89.3262 54.2992 89.3262C57.6526 89.3262 60.3722 86.6067 60.3722 83.2533C60.3722 80.4008 58.3989 78.0084 55.751 77.3541V65.9442C55.751 65.5659 55.6078 65.2081 55.342 64.932L49.2383 58.6443V43.789H51.8045V48.9112C51.8045 49.2997 51.9579 49.6677 52.2237 49.9335L64.9422 62.6521L64.9627 76.0556C64.9627 76.6384 65.3205 77.17 65.8522 77.395C66.0362 77.4665 66.2202 77.5074 66.4043 77.5074C66.7825 77.5074 67.1506 77.3643 67.4266 77.0882L77.0576 67.4573C77.5483 66.9666 77.6199 66.1998 77.2314 65.6272L73.06 59.4111C74.3687 57.0698 75.3911 54.5854 76.1272 52.009L83.468 50.5572C84.1427 50.4243 84.6335 49.8313 84.6335 49.1361V35.5281C84.6335 34.8328 84.1427 34.2399 83.468 34.1069H83.4884ZM33.0437 83.2328C33.0437 84.9811 31.6123 86.4124 29.864 86.4124C28.1157 86.4124 26.6844 84.9913 26.6844 83.2328C26.6844 81.4743 28.1157 80.0532 29.864 80.0532C31.6123 80.0532 33.0437 81.4845 33.0437 83.2328ZM45.5066 93.9372C45.5066 95.6855 44.0753 97.1169 42.327 97.1169C40.5787 97.1169 39.1473 95.6957 39.1473 93.9372C39.1473 92.1787 40.5787 90.7576 42.327 90.7576C44.0753 90.7576 45.5066 92.1787 45.5066 93.9372ZM57.489 83.2328C57.489 84.9811 56.0577 86.4124 54.3094 86.4124C52.5611 86.4124 51.1297 84.9913 51.1297 83.2328C51.1297 81.4743 52.5611 80.0532 54.3094 80.0532C56.0577 80.0532 57.489 81.4845 57.489 83.2328ZM22.6664 40.8854C23.4127 30.6922 31.9395 22.6153 42.327 22.6153C52.7145 22.6153 61.2412 30.6819 61.9875 40.8854H22.6664ZM81.7606 47.9501L74.7061 49.3406C74.1642 49.4428 73.7246 49.862 73.5814 50.3936C72.8351 53.3074 71.6696 56.1088 70.1258 58.7261C69.8395 59.2066 69.8599 59.8098 70.1667 60.2699L74.1744 66.2407L67.8561 72.559L67.8356 62.0386C67.8356 61.6604 67.6823 61.2923 67.4164 61.0163L54.6979 48.2977V43.7685H63.4802C64.2777 43.7685 64.932 43.1244 64.932 42.3167C64.932 29.8538 54.7899 19.7117 42.327 19.7117C29.864 19.7117 19.7219 29.8538 19.7219 42.3167C19.7219 43.1142 20.366 43.7685 21.1635 43.7685H28.9848V49.269L17.2375 61.0163C16.9717 61.2821 16.8183 61.6501 16.8183 62.0386L16.7979 72.559L10.4795 66.2407L14.4873 60.2597C14.794 59.7996 14.8144 59.1964 14.5282 58.7159C12.9844 56.1088 11.8188 53.3074 11.0725 50.3834C10.9294 49.8415 10.5 49.4326 9.94786 49.3303L2.89337 47.9399V36.7038L9.94786 35.3134C10.4897 35.2111 10.9294 34.7919 11.0725 34.2603C11.8291 31.3363 12.9844 28.5349 14.5282 25.9278C14.8144 25.4473 14.794 24.8441 14.4873 24.384L10.4795 18.4132L18.4235 10.4693L24.3942 14.477C24.8543 14.7838 25.4575 14.8042 25.938 14.5179C28.5451 12.9741 31.3465 11.8188 34.2705 11.0623C34.8124 10.9191 35.2214 10.4897 35.3236 9.93763L36.714 2.88314H47.9501L49.3406 9.93763C49.4428 10.4795 49.862 10.9191 50.3936 11.0623C53.3074 11.8086 56.1088 12.9741 58.7261 14.5179C59.2066 14.8042 59.8098 14.7838 60.2699 14.477L66.2509 10.4693L74.1949 18.4132L70.1871 24.384C69.8804 24.8441 69.8599 25.4473 70.1462 25.9278C71.69 28.5349 72.8453 31.3363 73.6019 34.2603C73.745 34.8022 74.1744 35.2111 74.7265 35.3134L81.781 36.7038V47.9399L81.7606 47.9501Z" fill="#E38B29"/>
</g>
<defs>
<clipPath id="clip0_107_5443">
<rect width="84.6539" height="100" fill="white"/>
</clipPath>
</defs>
</svg>
