<svg width="100" height="100" viewBox="0 0 100 100" fill="none" xmlns="http://www.w3.org/2000/svg">
<path d="M50.0031 3.125C30.1755 3.12501 14.0625 19.2363 14.0625 39.0655C14.0625 42.4373 14.5391 45.7915 15.4724 49.0265C11.3198 51.6406 7.8125 55.8181 7.8125 62.503V65.6311H4.69971C3.37246 65.6234 2.64067 67.1699 3.48816 68.1915L11.3068 77.5665C11.9314 78.3169 13.0808 78.3169 13.7054 77.5665L21.5118 68.1915C22.3557 67.1743 21.634 65.6339 20.3125 65.6311H17.1875V62.503C17.1875 60.4631 17.7925 58.5164 18.7439 56.7963C21.2005 61.1137 24.5266 64.8968 28.5187 67.868C28.2624 68.6401 28.1278 69.4564 28.128 70.3125L28.1341 89.0686C28.1356 93.4355 31.6312 96.875 35.9283 96.875H64.0717C68.3688 96.875 71.8644 93.4355 71.8658 89.0686L71.8719 70.3125C71.8722 69.4564 71.7376 68.6401 71.4813 67.868C75.4734 64.8968 78.7995 61.1137 81.2561 56.7963C82.2075 58.5164 82.8125 60.4631 82.8125 62.503V65.6311H79.6875C78.366 65.6339 77.6443 67.1743 78.4882 68.1915L86.2946 77.5665C86.9192 78.3169 88.0686 78.3169 88.6932 77.5665L96.5118 68.1915C97.3593 67.1699 96.6276 65.6235 95.3003 65.6311H92.1875V62.503C92.1875 55.8181 88.6802 51.6406 84.5276 49.0265C85.4609 45.7915 85.9375 42.4373 85.9375 39.0655C85.9375 19.2363 69.8307 3.12501 50.0031 3.125ZM48.4375 6.28662L48.4436 20.2393C44.9072 20.0738 41.4935 19.3752 38.3392 18.1793C40.9045 13.6779 44.3179 9.62684 48.4375 6.28662ZM51.5625 6.28662C55.6821 9.62684 59.0955 13.6779 61.6608 18.1793C58.5065 19.3752 55.0927 20.0738 51.5564 20.2393L51.5625 6.28662ZM42.9596 7.01599C39.9981 9.97778 37.4831 13.3196 35.4645 16.9281C33.4191 15.9167 31.4829 14.6804 29.7058 13.2812C33.5244 10.2766 38.0419 8.08914 42.9596 7.01599ZM57.0404 7.01599C61.9581 8.08914 66.4756 10.2766 70.2942 13.2812C68.5171 14.6804 66.5809 15.9167 64.5355 16.9281C62.5169 13.3196 60.0019 9.97778 57.0404 7.01599ZM27.3132 15.3625C29.3742 17.0406 31.6254 18.515 34.0301 19.7083C31.4237 25.2268 29.9277 31.2673 29.7119 37.4969H17.2272C17.6359 28.7866 21.4175 20.9985 27.3132 15.3625ZM72.6868 15.3625C78.5825 20.9985 82.3641 28.7866 82.7728 37.4969H70.2881C70.0724 31.2673 68.5763 25.2268 65.9698 19.7083C68.3745 18.515 70.6258 17.0406 72.6868 15.3625ZM36.9019 20.9656C40.5053 22.3766 44.3874 23.2279 48.4436 23.4009V37.4969H32.8339C33.0494 31.7066 34.467 26.0898 36.9019 20.9656ZM63.0981 20.9656C65.533 26.0898 66.9507 31.7066 67.1661 37.4969H51.5564V23.4009C55.6126 23.2279 59.4947 22.3766 63.0981 20.9656ZM17.2302 40.6219H29.715C29.982 48.3607 32.2219 55.8902 36.2213 62.503H35.9283C33.5837 62.503 31.5135 63.5257 30.0842 65.1367C26.1668 62.1529 22.9686 58.2853 20.7306 53.891C23.6512 50.3785 27.3376 48.2361 27.3376 48.2361C28.7166 47.4436 28.168 45.3376 26.5778 45.3186C26.527 45.3202 26.4759 45.3242 26.4252 45.3308C26.4252 45.3308 22.5197 45.6776 18.3075 47.5342C17.7008 45.2732 17.3427 42.9606 17.2302 40.6219ZM32.84 40.6219H48.4436V53.128H46.8719C43.3852 53.128 40.6219 55.9426 40.6219 59.378V62.503H39.9292C35.5806 56 33.1289 48.43 32.84 40.6219ZM51.5564 40.6219H67.16C66.8711 48.43 64.4194 56 60.0708 62.503H59.3781V59.378C59.3781 55.9426 56.6148 53.128 53.1281 53.128H51.5564V40.6219ZM70.285 40.6219H82.7698C82.6573 42.9606 82.2992 45.2732 81.6925 47.5342C77.4803 45.6776 73.5748 45.3308 73.5748 45.3308C73.524 45.3242 73.4733 45.3202 73.4222 45.3186C71.8319 45.3376 71.2834 47.4437 72.6623 48.2361C72.6623 48.2361 76.3488 50.3785 79.2694 53.891C77.0314 58.2854 73.8331 62.1529 69.9158 65.1367C68.4865 63.5257 66.4163 62.5031 64.0716 62.5031H63.7787C67.7781 55.8902 70.018 48.3607 70.285 40.6219ZM46.8719 56.253C48.9639 56.2491 51.0361 56.253 53.1281 56.253C54.8429 56.253 56.2531 57.6198 56.2531 59.378V62.503C52.0838 62.4985 47.9162 62.503 43.7469 62.503V59.378C43.7469 57.6198 45.1571 56.253 46.8719 56.253ZM46.8735 76.5625C46.0139 76.5621 45.3125 77.2638 45.3125 78.1219V79.6783H39.0656C34.7112 79.6783 31.25 76.1751 31.25 71.8689V70.3125C31.25 67.6919 33.3513 65.625 35.9283 65.625C45.3159 65.6267 54.6841 65.627 64.0717 65.625C66.6487 65.625 68.75 67.6919 68.75 70.3125V71.8689C68.75 76.1751 65.2888 79.6783 60.9344 79.6783H54.6875V78.1219C54.6875 77.2638 53.9861 76.5621 53.1265 76.5625H46.8735ZM31.2439 79.5227C33.2303 81.5591 36.0011 82.8033 39.0656 82.8033H45.3125L45.3156 84.3719C45.3123 85.2349 46.0093 85.9371 46.872 85.9405C48.9639 85.9366 51.0362 85.9405 53.1281 85.9405C53.9909 85.9371 54.6878 85.2348 54.6845 84.3719L54.6875 82.8033H60.9344C63.9989 82.8033 66.7697 81.5591 68.7561 79.5227V89.0686C68.756 91.6891 66.6401 93.75 64.0717 93.75H35.9283C33.3599 93.75 31.2439 91.6892 31.2439 89.0686V79.5227Z" fill="#E38B29"/>
</svg>
