<svg width="25" height="25" viewBox="0 0 25 25" fill="none" xmlns="http://www.w3.org/2000/svg">
<g id="216360_pin_icon (1) 2">
<path id="Vector" d="M17.426 4.44896C17.0208 4.04166 16.3625 4.03958 15.9531 4.44479C15.8448 4.55312 15.7698 4.68125 15.7187 4.81458C14.8521 6.62292 13.8979 7.64271 12.6937 8.24479C11.3427 8.91146 9.79165 9.375 7.29165 9.375C7.15623 9.375 7.02081 9.40104 6.89373 9.45417C6.63852 9.56042 6.43644 9.76354 6.33019 10.0177C6.22498 10.2719 6.22498 10.5594 6.33019 10.8135C6.38331 10.9417 6.45935 11.0573 6.55623 11.1531L9.93435 14.5312L5.20831 20.8333L11.5104 16.1073L14.8875 19.4844C14.9833 19.5823 15.0989 19.6573 15.2271 19.7104C15.3541 19.7635 15.4896 19.7917 15.625 19.7917C15.7604 19.7917 15.8958 19.7635 16.0229 19.7104C16.2781 19.6042 16.4812 19.4031 16.5864 19.1469C16.6396 19.0208 16.6666 18.8844 16.6666 18.75C16.6666 16.25 17.1291 14.699 17.7948 13.3687C18.3958 12.1646 19.4156 11.2104 21.225 10.3437C21.3594 10.2927 21.4864 10.2177 21.5937 10.1094C21.9989 9.7 21.9969 9.04167 21.5896 8.63646L17.426 4.44896Z" fill="#8A8A8A"/>
</g>
</svg>
