<svg width="45" height="45" viewBox="0 0 45 45" fill="none" xmlns="http://www.w3.org/2000/svg">
<path d="M10.7143 0C4.80928 0 0 4.80928 0 10.7143V34.2857C0 40.1907 4.80928 45 10.7143 45H34.2857C40.1907 45 45 40.1907 45 34.2857V10.7143C45 4.80928 40.1907 0 34.2857 0H10.7143ZM10.7143 2.14286H34.2857C39.0329 2.14286 42.8571 5.96714 42.8571 10.7143V34.2857C42.8571 39.0329 39.0329 42.8571 34.2857 42.8571H10.7143C5.96714 42.8571 2.14286 39.0329 2.14286 34.2857V10.7143C2.14286 5.96714 5.96714 2.14286 10.7143 2.14286ZM32.1429 15.0105C31.8587 15.0105 31.5862 15.1233 31.3852 15.3243C31.1843 15.5252 31.0714 15.7977 31.0714 16.0819C31.0714 16.3661 31.1843 16.6386 31.3852 16.8395C31.5862 17.0404 31.8587 17.1533 32.1429 17.1533C32.427 17.1533 32.6995 17.0404 32.9005 16.8395C33.1014 16.6386 33.2143 16.3661 33.2143 16.0819C33.2143 15.7977 33.1014 15.5252 32.9005 15.3243C32.6995 15.1233 32.427 15.0105 32.1429 15.0105ZM5.625 18.2247V25.7247H7.23214V20.2169C7.76 20.0891 8.28986 19.9669 8.81417 19.8277C9.34989 19.682 9.85944 20.0786 9.90444 20.535L9.91281 25.7247H11.5199L11.522 23.0462L11.5283 21.7069L11.522 21.0372L11.5179 20.6982C11.5088 20.542 11.4897 20.3871 11.453 20.2337C12.0026 20.1009 12.554 19.9726 13.0999 19.8277C13.6356 19.6809 14.1452 20.0797 14.1902 20.535L14.1985 25.7247H15.8057L15.8078 23.0462L15.814 21.7069L15.8078 21.0372L15.8036 20.6982C15.7939 20.5322 15.7763 20.3672 15.7345 20.2044C15.577 19.5519 15.1326 18.9916 14.5626 18.6851C13.998 18.3712 13.2797 18.3309 12.7065 18.5345C12.1001 18.7412 11.4983 18.9648 10.8963 19.1874C10.716 18.9873 10.5108 18.8109 10.2769 18.6851C9.71228 18.3712 8.99397 18.3309 8.42076 18.5345C8.02259 18.6702 7.62827 18.8201 7.23214 18.9634V18.2247H5.625ZM19.0179 18.2247L17.4128 18.2268L17.4149 20.8196C17.4053 21.7014 17.3964 22.5093 17.4254 23.4521C17.4714 24.11 17.8286 24.7093 18.3022 25.0907C18.779 25.4775 19.3642 25.681 19.9449 25.7185C20.5042 25.7645 21.1606 25.5945 21.5688 25.3502C21.612 25.3278 21.6535 25.3019 21.6964 25.279V25.5301H23.3036V18.2268H21.6964V23.9627C21.4698 24.0413 21.2412 24.116 21.0184 24.2034C20.6413 24.363 20.3983 24.3905 20.0705 24.3541C19.4555 24.2791 18.9866 23.7895 19.0241 23.3705C19.0338 22.5862 19.037 21.6639 19.022 20.8175L19.0179 18.2247ZM31.3393 18.2247V25.7247H32.9464V18.2247H31.3393ZM37.7407 18.2289C37.3603 18.2502 36.9798 18.3369 36.6316 18.4863C35.2173 19.1056 34.5214 20.5622 34.5536 21.8597C34.5643 22.4682 34.6603 23.1057 34.9282 23.7347C35.2067 24.3443 35.6992 24.9528 36.3742 25.302C37.0384 25.661 37.7897 25.7626 38.4647 25.7122C38.8718 25.6726 39.2679 25.602 39.6429 25.482V24.3855C38.6893 24.5355 37.7463 24.5353 37.1463 24.126C36.4713 23.707 36.15 22.8094 36.1607 21.8408C36.1393 20.9622 36.5684 20.1238 37.297 19.7231C37.9827 19.3534 38.8714 19.5035 39.6429 20.0328V18.7144C39.3964 18.5655 39.139 18.4466 38.8497 18.3566C38.5015 18.2516 38.121 18.2076 37.7407 18.2289ZM27.5412 18.2415C27.2579 18.2669 26.9755 18.3218 26.6999 18.4089C25.7538 18.7068 25.0772 19.3447 24.984 19.9972C24.8104 21.2176 25.704 21.9325 26.1433 22.1296C26.5826 22.3675 26.9781 22.4714 27.3424 22.5753C28.0816 22.7521 28.551 22.9521 28.7214 23.2157C28.8146 23.3603 28.8532 23.4706 28.8532 23.6635C28.8532 23.8564 28.8099 24.0289 28.6063 24.1532C28.1884 24.3814 27.4707 24.4646 26.8171 24.3917C26.1635 24.3296 25.3286 24.0394 24.6429 23.7598V24.9107C25.275 25.3039 25.9491 25.5126 26.6455 25.6369C27.4705 25.7504 28.3182 25.8234 29.2718 25.4088C29.7325 25.2223 30.2909 24.8054 30.2909 23.6719C30.2909 22.489 29.4325 21.9692 29.0039 21.7613C28.5753 21.5438 28.1796 21.4396 27.8153 21.326C27.4617 21.2114 26.5283 21.0592 26.5283 20.2546C26.5283 19.9192 26.882 19.7323 27.1498 19.6498C28.0498 19.3498 29.1107 19.5805 30 20.037V18.7102C29.2527 18.3518 28.3908 18.1652 27.5412 18.2415ZM38.1466 28.939C36.9563 28.939 35.5427 29.2395 34.5013 29.9895C34.2034 30.2145 34.2027 30.5148 34.5745 30.5148C35.7649 30.3648 38.4441 29.9884 38.9648 30.6634C39.4116 31.2634 38.4448 33.816 37.998 35.016C37.8491 35.391 38.148 35.465 38.4459 35.24C40.4548 33.5139 40.9762 29.9875 40.6034 29.5375C40.3805 29.1636 39.337 28.939 38.1466 28.939ZM5.31738 29.7552C5.25765 29.7668 5.20168 29.7984 5.16044 29.8493C5.06722 29.964 5.08555 30.1349 5.2002 30.2281C7.40734 32.0152 9.90529 33.3778 12.5474 34.4385C15.1981 35.4649 18.0087 36.1687 20.8887 36.3616C23.7697 36.5598 26.6651 36.2893 29.4455 35.579C32.228 34.859 34.8788 33.7518 37.251 32.0696C37.4578 31.9239 37.5381 31.6462 37.4288 31.4083C37.3046 31.1394 36.9863 31.0235 36.7174 31.1468L36.6755 31.1656C34.2487 32.2831 31.6099 33.0677 28.9934 33.6077C26.3663 34.1541 23.6746 34.3622 21.0121 34.269C18.3432 34.1608 15.692 33.6293 13.0852 32.8878C10.4988 32.095 7.92164 31.0968 5.512 29.7928L5.49526 29.7824C5.44008 29.7524 5.37711 29.7435 5.31738 29.7552Z" fill="url(#paint0_linear_284_1430)"/>
<defs>
<linearGradient id="paint0_linear_284_1430" x1="22.5" y1="0" x2="22.5" y2="45" gradientUnits="userSpaceOnUse">
<stop stop-color="#4400FF"/>
<stop offset="1" stop-color="#2E1D7E"/>
</linearGradient>
</defs>
</svg>
