<svg width="80" height="91" viewBox="0 0 80 91" fill="none" xmlns="http://www.w3.org/2000/svg">
<g clip-path="url(#clip0_284_1673)">
<path d="M80 39.9777C80 29.3006 75.8395 19.2594 68.2833 11.7099C60.7293 4.15809 50.6845 0 40.0011 0C29.3178 0 19.2707 4.15809 11.7167 11.7099C4.16053 19.2594 0 29.2983 0 39.9777C0 50.657 4.16053 60.696 11.7167 68.2455C13.7654 70.293 15.9991 72.0901 18.3772 73.6235L19.0157 71.0033C9.06563 64.2588 2.51798 52.8691 2.51798 39.9777C2.51798 19.3202 19.3316 2.5165 40.0011 2.5165C60.6707 2.5165 77.4843 19.3225 77.4843 39.9777C77.4843 53.5794 70.0838 66.1349 58.173 72.7486L57.3337 73.2131L60.5894 86.5916L40.2696 77.4389H39.9989C38.3473 77.4389 36.7205 77.3306 35.1254 77.1232L32.2216 79.2022C34.6696 79.6825 37.1786 79.9373 39.7259 79.9553L64.2513 91.0023L60.2284 74.4714C72.4483 67.3007 80 54.1725 80 39.9799V39.9777Z" fill="#E38B29"/>
<path d="M40.0667 7.92608C22.231 7.92608 7.77295 22.3757 7.77295 40.2009C7.77295 51.5545 13.6392 61.5371 22.5085 67.2894L17.8607 86.3842L37.4472 72.3675V61.9745C33.7785 61.4266 30.3919 59.7286 27.7205 57.0565C24.4218 53.7598 22.6056 49.3785 22.6056 44.7153V43.2631C20.611 43.2631 18.9933 41.6463 18.9933 39.653C18.9933 37.6596 20.611 36.0428 22.6056 36.0428C24.6001 36.0428 26.2178 37.6596 26.2178 39.653V44.7153C26.2178 52.3482 32.4316 58.5583 40.069 58.5583C47.7064 58.5583 53.9201 52.3482 53.9201 44.7153V39.653C53.9201 37.6596 55.5378 36.0428 57.5324 36.0428C59.5269 36.0428 61.1446 37.6596 61.1446 39.653C61.1446 41.6463 59.5269 43.2631 57.5324 43.2631V44.7153C57.5324 49.3762 55.7161 53.7598 52.4174 57.0565C49.746 59.7264 46.3594 61.4266 42.6907 61.9745V72.3675C59.3013 71.0348 72.365 57.1422 72.365 40.1987C72.365 22.3734 57.9069 7.92383 40.0712 7.92383L40.0667 7.92608ZM50.5199 44.9678C50.5199 50.7382 45.8405 55.4149 40.0667 55.4149C34.293 55.4149 29.6135 50.7382 29.6135 44.9678V41.5877H50.5199V44.9678ZM50.5199 25.1989V26.3669H43.6406C43.248 26.3669 42.9299 26.6849 42.9299 27.0772C42.9299 27.4696 43.248 27.7875 43.6406 27.7875H50.5199V29.5757H43.6406C43.248 29.5757 42.9299 29.8936 42.9299 30.286C42.9299 30.6783 43.248 30.9963 43.6406 30.9963H50.5199V32.7844H43.6406C43.248 32.7844 42.9299 33.1024 42.9299 33.4947C42.9299 33.8871 43.248 34.205 43.6406 34.205H50.5199V35.9932H43.6406C43.248 35.9932 42.9299 36.3112 42.9299 36.7035C42.9299 37.0959 43.248 37.4138 43.6406 37.4138H50.5199V39.6575H29.6135V37.4138H36.4928C36.8854 37.4138 37.2035 37.0959 37.2035 36.7035C37.2035 36.3112 36.8854 35.9932 36.4928 35.9932H29.6135V34.205H36.4928C36.8854 34.205 37.2035 33.8871 37.2035 33.4947C37.2035 33.1024 36.8854 32.7844 36.4928 32.7844H29.6135V30.9963H36.4928C36.8854 30.9963 37.2035 30.6783 37.2035 30.286C37.2035 29.8936 36.8854 29.5757 36.4928 29.5757H29.6135V27.7875H36.4928C36.8854 27.7875 37.2035 27.4696 37.2035 27.0772C37.2035 26.6849 36.8854 26.3669 36.4928 26.3669H29.6135V24.6148C29.6135 18.8445 34.293 14.1677 40.0667 14.1677C45.8405 14.1677 50.5199 18.8445 50.5199 24.6148V25.2011V25.1989Z" fill="black"/>
</g>
<defs>
<clipPath id="clip0_284_1673">
<rect width="80" height="91" fill="white"/>
</clipPath>
</defs>
</svg>
