<svg width="80" height="91" viewBox="0 0 80 91" fill="none" xmlns="http://www.w3.org/2000/svg">
<g clip-path="url(#clip0_284_1146)">
<path d="M80 39.9777C80 29.3006 75.8395 19.2594 68.2833 11.7099C60.7293 4.15809 50.6845 0 40.0011 0C29.3178 0 19.2707 4.15809 11.7167 11.7099C4.16053 19.2594 0 29.2983 0 39.9777C0 50.657 4.16053 60.696 11.7167 68.2455C13.7654 70.293 15.9991 72.0901 18.3772 73.6235L19.0157 71.0033C9.06563 64.2588 2.51798 52.8691 2.51798 39.9777C2.51798 19.3202 19.3316 2.5165 40.0011 2.5165C60.6707 2.5165 77.4843 19.3225 77.4843 39.9777C77.4843 53.5794 70.0838 66.1349 58.173 72.7486L57.3337 73.2131L60.5894 86.5916L40.2696 77.4389H39.9989C38.3473 77.4389 36.7205 77.3306 35.1254 77.1232L32.2216 79.2022C34.6696 79.6825 37.1786 79.9373 39.7259 79.9553L64.2513 91.0023L60.2284 74.4714C72.4483 67.3007 80 54.1725 80 39.9799V39.9777Z" fill="#58595B"/>
<path d="M40.0665 7.92608C22.2308 7.92608 7.77271 22.3757 7.77271 40.2009C7.77271 51.5545 13.639 61.5371 22.5083 67.2894L17.8604 86.3842L37.447 72.3675V61.9745C33.7783 61.4266 30.3917 59.7286 27.7202 57.0565C24.4216 53.7598 22.6053 49.3785 22.6053 44.7153V43.2631C20.6108 43.2631 18.9931 41.6463 18.9931 39.653C18.9931 37.6596 20.6108 36.0428 22.6053 36.0428C24.5998 36.0428 26.2176 37.6596 26.2176 39.653V44.7153C26.2176 52.3482 32.4313 58.5583 40.0687 58.5583C47.7061 58.5583 53.9199 52.3482 53.9199 44.7153V39.653C53.9199 37.6596 55.5376 36.0428 57.5321 36.0428C59.5267 36.0428 61.1444 37.6596 61.1444 39.653C61.1444 41.6463 59.5267 43.2631 57.5321 43.2631V44.7153C57.5321 49.3762 55.7159 53.7598 52.4172 57.0565C49.7458 59.7264 46.3592 61.4266 42.6905 61.9745V72.3675C59.301 71.0348 72.3647 57.1422 72.3647 40.1987C72.3647 22.3734 57.9067 7.92383 40.071 7.92383L40.0665 7.92608ZM50.5197 44.9678C50.5197 50.7382 45.8402 55.4149 40.0665 55.4149C34.2927 55.4149 29.6132 50.7382 29.6132 44.9678V41.5877H50.5197V44.9678ZM50.5197 25.1989V26.3669H43.6404C43.2478 26.3669 42.9297 26.6849 42.9297 27.0772C42.9297 27.4696 43.2478 27.7875 43.6404 27.7875H50.5197V29.5757H43.6404C43.2478 29.5757 42.9297 29.8936 42.9297 30.286C42.9297 30.6783 43.2478 30.9963 43.6404 30.9963H50.5197V32.7844H43.6404C43.2478 32.7844 42.9297 33.1024 42.9297 33.4947C42.9297 33.8871 43.2478 34.205 43.6404 34.205H50.5197V35.9932H43.6404C43.2478 35.9932 42.9297 36.3112 42.9297 36.7035C42.9297 37.0959 43.2478 37.4138 43.6404 37.4138H50.5197V39.6575H29.6132V37.4138H36.4926C36.8852 37.4138 37.2033 37.0959 37.2033 36.7035C37.2033 36.3112 36.8852 35.9932 36.4926 35.9932H29.6132V34.205H36.4926C36.8852 34.205 37.2033 33.8871 37.2033 33.4947C37.2033 33.1024 36.8852 32.7844 36.4926 32.7844H29.6132V30.9963H36.4926C36.8852 30.9963 37.2033 30.6783 37.2033 30.286C37.2033 29.8936 36.8852 29.5757 36.4926 29.5757H29.6132V27.7875H36.4926C36.8852 27.7875 37.2033 27.4696 37.2033 27.0772C37.2033 26.6849 36.8852 26.3669 36.4926 26.3669H29.6132V24.6148C29.6132 18.8445 34.2927 14.1677 40.0665 14.1677C45.8402 14.1677 50.5197 18.8445 50.5197 24.6148V25.2011V25.1989Z" fill="#F7941D"/>
</g>
<defs>
<clipPath id="clip0_284_1146">
<rect width="80" height="91" fill="white"/>
</clipPath>
</defs>
</svg>
