<svg width="47" height="54" viewBox="0 0 47 54" fill="none" xmlns="http://www.w3.org/2000/svg">
<path d="M16 27C16 30.866 12.866 34 9 34C5.13401 34 2 30.866 2 27C2 23.134 5.13401 20 9 20C12.866 20 16 23.134 16 27Z" stroke="#E38B29" stroke-width="3"/>
<path d="M31 11L16 21" stroke="#E38B29" stroke-width="3" stroke-linecap="round"/>
<path d="M31 43L16 33" stroke="#E38B29" stroke-width="3" stroke-linecap="round"/>
<path d="M45 45C45 48.866 41.866 52 38 52C34.134 52 31 48.866 31 45C31 41.134 34.134 38 38 38C41.866 38 45 41.134 45 45Z" stroke="#E38B29" stroke-width="3"/>
<path d="M45 9C45 12.866 41.866 16 38 16C34.134 16 31 12.866 31 9C31 5.13401 34.134 2 38 2C41.866 2 45 5.13401 45 9Z" stroke="#E38B29" stroke-width="3"/>
</svg>
