<svg width="45" height="45" viewBox="0 0 45 45" fill="none" xmlns="http://www.w3.org/2000/svg">
<g clip-path="url(#clip0_284_1422)">
<path d="M22.5 0C10.08 0 0 10.08 0 22.5C0 34.92 10.08 45 22.5 45C34.92 45 45 34.92 45 22.5C45 10.08 34.92 0 22.5 0Z" fill="#1AB26B"/>
<path d="M31.6358 33.1052C31.2543 33.1052 31.0185 32.9869 30.6653 32.7785C25.0041 29.3673 18.4175 29.2215 11.9121 30.5559C11.5579 30.6469 11.0952 30.7916 10.8321 30.7916C9.95164 30.7916 9.39893 30.0932 9.39893 29.3585C9.39893 28.4242 9.95262 27.9791 10.6325 27.8344C18.0624 26.1919 25.6566 26.3376 32.1347 30.2115C32.6884 30.5657 33.0151 30.8826 33.0151 31.7083C33.0151 32.5339 32.3704 33.1052 31.6358 33.1052Z" fill="white"/>
<path d="M34.0767 27.1535C33.6052 27.1535 33.2872 26.9451 32.9605 26.7729C27.2905 23.4165 18.8344 22.0646 11.3135 24.1062C10.8782 24.2236 10.6424 24.342 10.2335 24.342C9.26309 24.342 8.47363 23.5525 8.47363 22.5821C8.47363 21.6116 8.94515 20.967 9.88037 20.7038C12.4023 19.9965 14.9791 19.4702 18.7532 19.4702C24.6413 19.4702 30.3299 20.9308 34.8114 23.5985C35.546 24.0338 35.8366 24.5963 35.8366 25.3858C35.8278 26.366 35.0647 27.1545 34.0767 27.1545V27.1535Z" fill="white"/>
<path d="M36.8894 20.2411C36.4179 20.2411 36.1273 20.1227 35.7194 19.8869C29.2599 16.0316 17.7106 15.1052 10.2347 17.1928C9.90797 17.2838 9.50003 17.4286 9.06471 17.4286C7.86731 17.4286 6.95068 16.4943 6.95068 15.2872C6.95068 14.08 7.71275 13.3551 8.5296 13.1193C11.7236 12.1851 15.2972 11.74 19.1897 11.74C25.8125 11.74 32.7533 13.1193 37.8246 16.0766C38.5319 16.4846 38.9946 17.0471 38.9946 18.1271C38.9946 19.3606 37.9968 20.2411 36.8894 20.2411Z" fill="white"/>
</g>
<defs>
<clipPath id="clip0_284_1422">
<rect width="45" height="45" fill="white"/>
</clipPath>
</defs>
</svg>
