<svg width="60" height="60" viewBox="0 0 60 60" fill="none" xmlns="http://www.w3.org/2000/svg">
<circle cx="30" cy="30" r="30" fill="#E38B29"/>
<g clip-path="url(#clip0_403_4)">
<path d="M33.75 45V15L20.625 24.375H15V35.625H20.625L33.75 45Z" fill="white"/>
<path d="M35.625 41.0813C40.9444 40.1869 45 35.5725 45 30C45 24.4275 40.9444 19.8131 35.625 18.9188V20.8144C39.8981 21.6863 43.125 25.4719 43.125 30C43.125 34.5281 39.8981 38.3138 35.625 39.1856V41.0813Z" fill="white"/>
<path d="M35.625 33.2287V35.28C37.8056 34.5056 39.375 32.445 39.375 30C39.375 27.555 37.8056 25.4943 35.625 24.72V26.7712C36.7406 27.4218 37.5 28.6181 37.5 30C37.5 31.3818 36.7406 32.5781 35.625 33.2287Z" fill="white"/>
</g>
<defs>
<clipPath id="clip0_403_4">
<rect width="30" height="30" fill="white" transform="translate(15 15)"/>
</clipPath>
</defs>
</svg>
