<svg width="45" height="45" viewBox="0 0 45 45" fill="none" xmlns="http://www.w3.org/2000/svg">
<path d="M12.8931 24.394H14.5222V32.4867H16.0965V24.394H17.7238V23.0161H12.8931V24.394Z" fill="#EE2724"/>
<path d="M22.5605 17.6693C22.7743 17.6693 22.9443 17.6127 23.0695 17.4966C23.1947 17.3769 23.2586 17.2143 23.2586 17.0096V12.8157C23.2586 12.6476 23.1947 12.5105 23.0658 12.4091C22.937 12.304 22.7698 12.252 22.5605 12.252C22.3696 12.252 22.2142 12.304 22.0927 12.4091C21.973 12.5105 21.9146 12.6485 21.9146 12.8157V17.0096C21.9146 17.2198 21.9703 17.3824 22.0827 17.4966C22.1932 17.6127 22.354 17.6693 22.5605 17.6693Z" fill="#EE2724"/>
<path d="M26.0313 25.4146C25.8139 25.4146 25.5991 25.4703 25.3872 25.5809C25.1779 25.6914 24.9769 25.8559 24.7896 26.0679V23.0161H23.3779V32.4867H24.7896V31.9512C24.9714 32.1669 25.1715 32.324 25.3853 32.4264C25.5973 32.5278 25.8422 32.578 26.1172 32.578C26.5293 32.578 26.8491 32.4474 27.0647 32.1833C27.284 31.9174 27.3946 31.5392 27.3946 31.0448V27.1671C27.3946 26.5942 27.2785 26.1583 27.0428 25.8623C26.8107 25.5644 26.4736 25.4146 26.0313 25.4146ZM25.9546 30.8521C25.9546 31.0768 25.9135 31.2358 25.8331 31.3336C25.7527 31.4332 25.6275 31.4816 25.4566 31.4816C25.3387 31.4816 25.2282 31.4551 25.1195 31.4067C25.0125 31.3582 24.9002 31.2733 24.7896 31.16V26.8071C24.8846 26.7093 24.9806 26.6371 25.0765 26.5933C25.1724 26.5448 25.273 26.5238 25.3725 26.5238C25.5599 26.5238 25.7061 26.5841 25.8084 26.7038C25.9062 26.8272 25.9546 27.0054 25.9546 27.2429V30.8521Z" fill="#EE2724"/>
<path d="M20.9292 30.8093C20.7985 30.9591 20.6541 31.0825 20.497 31.1821C20.3398 31.2799 20.2082 31.3283 20.1077 31.3283C19.9753 31.3283 19.8811 31.2926 19.8208 31.2177C19.7642 31.1446 19.7331 31.0249 19.7331 30.8605V25.4998H18.3379V31.3429C18.3379 31.7605 18.4201 32.0675 18.5828 32.2795C18.7491 32.4869 18.9894 32.5901 19.3128 32.5901C19.575 32.5901 19.8464 32.5188 20.1251 32.369C20.4038 32.2173 20.6715 32.0035 20.9301 31.7212V32.4869H22.3271V25.5007H20.9301L20.9292 30.8093Z" fill="#EE2724"/>
<path d="M22.5 0C10.0736 0 0 10.0736 0 22.5C0 34.9282 10.0736 45 22.5 45C34.9264 45 45 34.9282 45 22.5C45 10.0736 34.9255 0 22.5 0ZM26.1347 11.1125H27.7054V17.0141C27.7054 17.1978 27.741 17.3284 27.8068 17.4088C27.8708 17.4911 27.9786 17.534 28.1266 17.534C28.2408 17.534 28.387 17.4783 28.5652 17.3714C28.7397 17.2608 28.9023 17.1238 29.0485 16.9538V11.1125H30.6228V18.8095H29.0485V17.9598C28.7616 18.2723 28.4592 18.5126 28.144 18.6752C27.8315 18.8379 27.5281 18.9219 27.2321 18.9219C26.8684 18.9219 26.5952 18.8059 26.4097 18.5756C26.2279 18.349 26.1347 18.0064 26.1347 17.5441V11.1125ZM20.2961 12.8723C20.2961 12.2784 20.5063 11.8032 20.9293 11.446C21.3542 11.096 21.9235 10.9179 22.6371 10.9179C23.2885 10.9179 23.8203 11.1052 24.2379 11.4761C24.6518 11.8471 24.8592 12.3295 24.8592 12.918V16.8926C24.8592 17.5532 24.6554 18.0685 24.2507 18.4413C23.8404 18.8141 23.2803 19.0014 22.5658 19.0014C21.8787 19.0014 21.3277 18.8086 20.9147 18.4249C20.5026 18.0356 20.2952 17.5148 20.2952 16.8615L20.2961 12.8723ZM16.0127 8.37685L17.1621 12.5452H17.2745L18.3682 8.37685H20.1673L18.1078 14.4822V18.8105H16.3371V14.675L14.2291 8.37685H16.0127ZM36.6067 30.3359C36.6067 33.12 34.3489 35.3796 31.5649 35.3796H14.0437C11.2578 35.3796 9 33.12 9 30.3359V26.2809C9 23.495 11.2578 21.2373 14.0437 21.2373H31.5649C34.3489 21.2373 36.6067 23.495 36.6067 26.2809V30.3359Z" fill="#EE2724"/>
<path d="M30.2485 25.3269C29.6217 25.3269 29.1155 25.516 28.7189 25.8998C28.3242 26.2799 28.125 26.776 28.125 27.3773V30.5186C28.125 31.1929 28.3068 31.721 28.6659 32.1029C29.025 32.4867 29.5175 32.6795 30.1434 32.6795C30.8396 32.6795 31.3623 32.4995 31.7104 32.1386C32.064 31.7749 32.2367 31.2358 32.2367 30.5186V30.1595H30.8003V30.4775C30.8003 30.8895 30.7519 31.1554 30.6614 31.2751C30.571 31.3948 30.4084 31.4551 30.1763 31.4551C29.9533 31.4551 29.7962 31.3857 29.703 31.245C29.6116 31.1006 29.5677 30.8466 29.5677 30.4775V29.1626H32.2376V27.3782C32.2376 26.7176 32.0676 26.2114 31.7241 25.8559C31.3796 25.5032 30.8871 25.3269 30.2485 25.3269ZM30.8003 28.0753H29.5668V27.369C29.5668 27.0767 29.6116 26.8638 29.7094 26.7422C29.8071 26.6116 29.9661 26.5494 30.1891 26.5494C30.3992 26.5494 30.5582 26.6116 30.6532 26.7422C30.7492 26.8638 30.7994 27.0757 30.7994 27.369L30.8003 28.0753Z" fill="#EE2724"/>
</svg>
