<?xml version="1.0" encoding="UTF-8"?>
<svg id="Layer_1" data-name="Layer 1" xmlns="http://www.w3.org/2000/svg" viewBox="0 0 500 500">
  <defs>
    <style>
      .cls-1 {
        fill: #fff;
      }

      .cls-2 {
        fill: #5a6267;
      }
    </style>
  </defs>
  <circle class="cls-2" cx="250" cy="250" r="234.63"/>
  <g>
    <path class="cls-1" d="m264.42,109.8c2.68.49,5.36.94,8.03,1.49,35.12,7.21,59.08,39.95,55.36,75.64-3.09,29.62-24.04,53.64-53.05,60.83-.66.16-1.3.39-2.02.6v13.76c3.05,0,6.1.05,9.14-.02,2.14-.04,3.93.46,4.83,2.61.92,2.19-.16,3.76-1.64,5.24-7.71,7.69-15.4,15.4-23.11,23.09-2.77,2.76-4.68,2.74-7.46-.02-7.71-7.69-15.4-15.4-23.11-23.09-1.49-1.48-2.55-3.05-1.62-5.24.91-2.15,2.7-2.63,4.84-2.59,2.98.06,5.96.02,9.08.02v-13.02c-6.96-2.96-13.92-5.25-20.23-8.73-24.84-13.73-38.98-43.07-34.5-70.62,4.83-29.69,26.39-52.67,54.81-58.42,2.75-.56,5.52-1.02,8.28-1.53,4.12,0,8.23,0,12.35,0Zm-6.03,16.47c-29.18-.17-53.43,23.72-53.66,52.85-.23,29.65,23.56,54.03,52.84,54.17,29.86.14,53.97-23.49,54.17-53.1.2-29.65-23.64-53.75-53.35-53.92Z"/>
    <path class="cls-1" d="m188.38,360.94v-53.52c2.98,0,5.95.1,8.9-.05,1.29-.07,2.71-.4,3.81-1.05,16.18-9.37,32.32-9.43,48.52-.07,1.18.68,2.7,1.11,4.06,1.11,15.26.08,30.53.02,45.79.07,5.71.02,10.29,3.53,11.88,8.88,1.53,5.18-.36,10.95-5.08,13.65-2.19,1.26-4.98,2.02-7.51,2.06-14.15.19-28.3.09-42.44.09-.77,0-1.55-.04-2.31.03-2.24.23-3.87,1.97-3.88,4.07,0,2.09,1.63,4.06,3.85,4.07,17.66.04,35.33.15,52.99-.13,5.42-.08,9.84-3.07,13.59-7.03,12.49-13.21,25.07-26.33,37.58-39.52,2.77-2.92,6.01-4.61,10.07-3.98,8.43,1.3,12.18,10.43,7.14,17.5-7.76,10.89-15.66,21.68-23.5,32.51-3.42,4.72-6.78,9.49-10.27,14.15-7.6,10.14-17.8,15.33-30.47,15.36-27.53.07-55.05,0-82.58.03-9.91,0-19.13-2.42-27.72-7.36-.91-.52-2.06-.81-3.12-.85-3-.11-6-.04-9.3-.04Z"/>
    <path class="cls-1" d="m122.39,333.92c0-11.15,0-22.3,0-33.45,0-4.04,1.35-5.4,5.4-5.4,15.61,0,31.22,0,46.83,0,4.04,0,5.4,1.36,5.4,5.4,0,22.47,0,44.94,0,67.41,0,4.04-1.37,5.4-5.4,5.4-15.61,0-31.22,0-46.83,0-4.04,0-5.4-1.36-5.4-5.4-.01-11.32,0-22.64,0-33.96Z"/>
    <path class="cls-1" d="m320.06,321.66c.24-7.37-2.2-12.91-7.21-17.54,5.29-5.49,10.26-11.14,15.76-16.23,5.41-5.01,14.42-2.37,16.77,4.6.28.82.24,2.21-.27,2.76-8.12,8.68-16.33,17.27-25.05,26.42Z"/>
    <path class="cls-1" d="m303.52,180.2c-.08,24.74-20.52,44.91-45.48,44.88-24.77-.03-45.16-20.53-45.07-45.31.09-25.07,20.42-45.35,45.36-45.25,25.18.1,45.27,20.41,45.19,45.67Zm-49.37-28.75c-.84.32-1.41.52-1.96.74-6.31,2.58-10.39,8.53-10.41,15.18-.02,6.68,3.99,12.6,10.27,15.29.77.33,1.95,1,1.97,1.54.15,4.83.09,9.67.09,14.89-2.79-1.7-3.81-3.9-4.09-6.56-.32-3-2.07-4.71-4.52-4.46-2.47.25-3.97,2.25-3.67,5.24.6,6.07,3.5,10.83,9.07,13.37,2.61,1.19,3.52,2.48,3.3,5.26-.24,3.01,1.53,4.87,4.02,4.89,2.49.02,4.08-1.84,4.15-4.84,0-.43.07-.87,0-1.28-.34-1.9.42-2.8,2.28-3.54,6.23-2.47,10.2-8.46,10.05-15.08-.17-6.98-3.48-12.11-9.91-14.9-1.89-.82-2.55-1.69-2.45-3.71.18-3.59.04-7.2.06-10.8,0-.62.13-1.24.22-2.08,2.6,1.69,3.63,3.9,3.89,6.59.28,2.83,2,4.51,4.37,4.35,2.48-.16,4.07-2.18,3.81-5.12-.5-5.77-3.08-10.57-8.29-13.05-3.2-1.53-4.44-3.14-4.11-6.61.23-2.37-1.87-4.05-4.11-3.99-2.14.05-3.82,1.64-3.98,3.93-.11,1.53-.02,3.08-.02,4.75Z"/>
    <path class="cls-1" d="m254.04,160.38v13.96c-2.49-1.47-3.66-3.49-3.94-5.97-.37-3.2.89-5.74,3.94-7.99Z"/>
    <path class="cls-1" d="m262.52,198.97v-13.44c5.19,2.88,5.27,9.72,0,13.44Z"/>
  </g>
</svg>