<?xml version="1.0" encoding="utf-8"?>
<!-- Generator: Adobe Illustrator 27.1.1, SVG Export Plug-In . SVG Version: 6.00 Build 0)  -->
<svg version="1.1" id="Layer_1" xmlns="http://www.w3.org/2000/svg" xmlns:xlink="http://www.w3.org/1999/xlink" x="0px" y="0px"
	 viewBox="0 0 500 500" style="enable-background:new 0 0 500 500;" xml:space="preserve">
<style type="text/css">
	.st0{fill:#242424;}
</style>
<g>
	<path class="st0" d="M422.41,417.75c8.36,0,16.05,0,23.91,0c0,3.97,0,7.66,0,11.61c-123.56,0-247.09,0-370.85,0
		c0-3.72,0-7.41,0-11.52c7.69,0,15.47,0,23.65,0c0-72.06,0-143.7,0-215.54c40.02,0,79.64,0,119.54,0c0,35.67,0,71.38,0,107.56
		c-1.55,0-3.13,0-4.7,0c-13.85,0-27.69-0.03-41.54,0.02c-5.04,0.02-7.35,2.3-7.35,7.32c-0.03,32.93-0.01,65.86,0,98.79
		c0,0.37,0.07,0.74,0.15,1.39c3.76,0,7.55,0,11.75,0c0-31.66,0-63.39,0-95.32c32.04,0,63.68,0,95.72,0c0,31.68,0,63.41,0,95.37
		c4.19,0,7.97,0,12.16,0c0-1.3,0-2.51,0-3.72c0-31.68,0-63.37,0-95.05c0-6.98-1.85-8.8-8.9-8.81c-6.84,0-13.69,0-20.79,0
		c0-35.94,0-71.65,0-107.56c35.7,0,71.32,0,107.23,0c0,31.69,0,63.41,0,95.59c-7.06,0-14.12-0.01-21.19,0
		c-6.52,0.01-8.47,1.95-8.47,8.48c-0.01,35.8,0,71.6,0,107.4c0,1.11,0,2.23,0,3.63c3.94,0,7.72,0,11.92,0c0-35.67,0-71.39,0-107.3
		c26.06,0,51.7,0,77.76,0C422.41,345.78,422.41,381.49,422.41,417.75z M410.29,345.74c0-3.9,0-7.77,0-11.67
		c-17.88,0-35.63,0-53.31,0c0,4.04,0,7.83,0,11.67C374.83,345.74,392.4,345.74,410.29,345.74z M410.43,358.03
		c-18.04,0-35.79,0-53.45,0c0,4.05,0,7.84,0,11.55c17.96,0,35.62,0,53.45,0C410.43,365.69,410.43,361.99,410.43,358.03z
		 M356.86,393.51c17.93,0,35.67,0,53.49,0c0-3.99,0-7.77,0-11.52c-18,0-35.74,0-53.49,0C356.86,385.96,356.86,389.66,356.86,393.51z
		 M146.94,220.25c-7.95,0-15.72,0-23.55,0c0,7.98,0,15.76,0,23.49c8.02,0,15.79,0,23.55,0
		C146.94,235.77,146.94,228.09,146.94,220.25z M171.34,220.18c0,8.14,0,15.92,0,23.64c7.97,0,15.66,0,23.47,0
		c0-7.96,0-15.73,0-23.64C186.9,220.18,179.22,220.18,171.34,220.18z M146.83,291.77c0-8.13,0-15.9,0-23.64c-7.97,0-15.65,0-23.48,0
		c0,7.96,0,15.73,0,23.64C131.26,291.77,138.94,291.77,146.83,291.77z M194.76,291.75c0-8.07,0-15.84,0-23.51
		c-8.04,0-15.81,0-23.51,0c0,7.98,0,15.67,0,23.51C179.13,291.75,186.81,291.75,194.76,291.75z M123.3,339.56
		c8.09,0,15.86,0,23.51,0c0-8.05,0-15.82,0-23.5c-7.99,0-15.67,0-23.51,0C123.3,323.94,123.3,331.62,123.3,339.56z M146.87,387.55
		c0-8.03,0-15.8,0-23.51c-8.03,0-15.8,0-23.54,0c0,7.97,0,15.65,0,23.51C131.2,387.55,138.88,387.55,146.87,387.55z"/>
	<path class="st0" d="M303.09,94.31c5.6,0,10.95,0.04,16.3-0.01c5.03-0.05,7.31-2.31,7.36-7.32c0.06-5.35,0.01-10.7,0.01-16.34
		c19.91,0,39.65,0,59.86,0c0,5.17-0.02,10.36,0,15.55c0.02,6.02,2.09,8.09,8.08,8.12c5.1,0.02,10.21,0,15.59,0
		c0,67.8,0,135.43,0,203.32c-11.7,0-23.46,0-35.62,0c0-1.52,0-2.98,0-4.43c0-31.42,0-62.85,0-94.27c0-7-1.84-8.83-8.87-8.83
		c-19.45,0-38.9,0-58.36,0c-1.36,0-2.72,0-4.36,0C303.09,158.2,303.09,126.49,303.09,94.31z"/>
</g>
</svg>
