<?xml version="1.0" encoding="UTF-8"?>
<svg id="Layer_1" data-name="Layer 1" xmlns="http://www.w3.org/2000/svg" viewBox="0 0 500 500">
  <defs>
    <style>
      .cls-1 {
        fill: #fff;
      }

      .cls-2 {
        fill: #5a6267;
      }
    </style>
  </defs>
  <circle class="cls-2" cx="251.9" cy="251.27" r="234.63"/>
  <g>
    <path class="cls-1" d="m104.65,179.12c1.66-1.11,3.18-2.67,5.01-3.25,7.28-2.32,14.64-4.4,22.02-6.41,2.01-.55,2.59-1.47,2.61-3.5.08-7.85.34-15.69.59-23.53.13-3.86,2.2-6.1,5.25-5.37,1.38.33,2.85,1.49,3.7,2.68,4.64,6.55,9.15,13.2,13.58,19.9.96,1.45,1.85,1.72,3.45,1.23,7.67-2.34,15.39-4.54,23.06-6.87,2.42-.74,4.52-.64,6.05,1.57,1.56,2.25.74,4.26-.78,6.21-4.77,6.11-9.45,12.29-14.3,18.34-1.38,1.72-1.65,2.89-.23,4.84,4.55,6.27,8.81,12.74,13.23,19.11,1.41,2.03,2.13,4.11.55,6.27-1.68,2.29-3.96,2.11-6.38,1.22-7.36-2.69-14.76-5.26-22.09-8.01-1.78-.67-2.8-.51-4,1.11-4.67,6.3-9.54,12.45-14.29,18.69-1.54,2.02-3.25,3.55-5.98,2.53-2.66-.99-3.18-3.19-3.07-5.76.3-7.75.48-15.5.86-23.24.1-2.01-.4-2.98-2.41-3.66-7.34-2.46-14.64-5.03-21.86-7.81-1.71-.66-3.04-2.28-4.55-3.46,0-.95,0-1.89,0-2.84Z"/>
    <path class="cls-1" d="m312.1,360.81c-9.32-18.69-24.02-30.99-44.35-37.05,11.52-7.25,17.92-17.33,18.43-30.66.39-10.42-3.31-19.46-10.72-26.85-14.77-14.74-39.15-13.79-52.82,1.91-14.06,16.15-11.84,42.49,9.5,55.62-20.15,6.01-34.9,18.22-44.2,36.88-15.46-14.43-28.09-45.72-19.72-77.67,9.08-34.63,39.06-60.07,74.56-62.95,40.53-3.28,73.35,21.3,85.92,53.58,12.82,32.93,2.53,67.91-16.59,87.18Z"/>
    <path class="cls-1" d="m194.79,367.87c5.93-14.2,15.65-24.75,29.42-31.37,29.91-14.4,66.14-1.13,79.93,29.11.6,1.31,1.21,2.3-.37,3.62-31.82,26.44-78.33,25.5-108.98-1.36Z"/>
    <path class="cls-1" d="m222.94,133.9c3.97,0,7.95-.11,11.92.05,1.87.07,2.63-.65,3.16-2.35,2.36-7.57,4.88-15.09,7.26-22.66.75-2.39,1.97-4.14,4.67-4.15,2.7,0,3.94,1.73,4.69,4.12,2.33,7.38,4.85,14.71,7.1,22.11.65,2.14,1.49,3,3.87,2.94,7.66-.19,15.32-.07,22.98-.13,2.66-.02,4.96.49,5.83,3.39.84,2.8-.85,4.38-2.89,5.84-6.3,4.52-12.53,9.13-18.87,13.59-1.58,1.11-1.95,2.07-1.3,3.95,2.56,7.41,4.89,14.89,7.37,22.32.81,2.44.97,4.73-1.36,6.36-2.31,1.62-4.42.73-6.48-.81-6.3-4.67-12.7-9.22-18.97-13.94-1.48-1.11-2.46-1.07-3.91.02-6.28,4.7-12.68,9.25-18.98,13.92-2.06,1.53-4.17,2.42-6.48.8-2.33-1.63-2.18-3.91-1.36-6.36,2.51-7.52,4.89-15.09,7.46-22.59.57-1.65.26-2.52-1.14-3.51-6.56-4.64-13.02-9.42-19.55-14.11-1.91-1.38-3.2-2.99-2.46-5.49.77-2.6,2.75-3.41,5.25-3.4,4.07.01,8.13,0,12.2,0,0,.02,0,.03,0,.05Z"/>
    <path class="cls-1" d="m365.72,168.62c8.57,2.49,16.86,4.76,25.04,7.36,1.66.53,3.43,2.06,4.24,3.6,1.15,2.2-.6,4.62-3.61,5.7-7.37,2.65-14.73,5.35-22.15,7.84-2.12.71-2.94,1.56-2.8,3.94.45,7.64.57,15.3.88,22.96.11,2.69-.44,4.97-3.26,5.92-2.6.87-4.27-.61-5.74-2.54-4.81-6.32-9.71-12.57-14.48-18.92-1.03-1.37-1.87-1.65-3.52-1.04-7.42,2.78-14.92,5.36-22.37,8.07-2.41.88-4.69,1.14-6.41-1.15-1.7-2.27-.84-4.38.63-6.49,4.49-6.43,8.83-12.96,13.36-19.37,1.06-1.5,1.04-2.47-.1-3.9-4.88-6.14-9.62-12.39-14.46-18.57-1.56-1.99-2.66-4.01-1.05-6.42,1.68-2.52,4.03-2.28,6.57-1.51,7.32,2.22,14.7,4.23,21.97,6.57,2.25.73,3.29.19,4.52-1.68,4.24-6.49,8.71-12.82,13.01-19.26,1.4-2.1,3.1-3.34,5.68-2.65,2.65.72,3.33,2.83,3.39,5.27.22,8.69.44,17.37.67,26.27Z"/>
    <path class="cls-1" d="m250.07,264.88c14.87.07,27.06,12.32,27.04,27.17-.02,14.85-12.35,27.19-27.1,27.12-15.04-.07-27.22-12.32-27.19-27.33.04-14.78,12.42-27.03,27.25-26.96Z"/>
  </g>
</svg>