<?xml version="1.0" encoding="UTF-8"?>
<svg id="Layer_1" data-name="Layer 1" xmlns="http://www.w3.org/2000/svg" viewBox="0 0 500 500">
  <defs>
    <style>
      .cls-1 {
        fill: #fff;
      }

      .cls-2 {
        fill: #5a6267;
      }
    </style>
  </defs>
  <circle class="cls-2" cx="250" cy="251.27" r="234.63"/>
  <g>
    <path class="cls-1" d="m195.07,121.71h180.13c4.48,2.07,5.77,5.62,5.76,10.43-.11,57.18-.07,114.36-.07,171.55,0,6.74-2.83,9.54-9.6,9.54-57.44,0-114.88,0-172.32,0-6.77,0-9.59-2.81-9.59-9.55,0-57.18.04-114.36-.07-171.55,0-4.81,1.28-8.36,5.76-10.43Zm139.24,58.05c0,4.13-.07,7.99.02,11.85.1,4.4,3.52,7.75,7.75,7.74,4.12,0,7.67-3.26,7.71-7.5.11-10.52.11-21.05,0-31.57-.04-4.14-3.32-7.42-7.45-7.46-10.52-.1-21.05-.09-31.57,0-3.21.03-5.57,1.76-6.87,4.69-2.24,5.04,1.41,10.61,7.08,10.78,3.9.11,7.81.02,11.28.02-28.77,28.78-57.57,57.58-86.31,86.33,0-3.64.1-7.59-.03-11.53-.14-4.24-3.59-7.49-7.71-7.5-4.13,0-7.69,3.25-7.73,7.48-.11,10.52-.1,21.05,0,31.57.04,4.14,3.3,7.44,7.43,7.49,10.52.11,21.05.09,31.57,0,3.21-.03,5.58-1.74,6.88-4.67,2.25-5.04-1.39-10.63-7.05-10.79-3.91-.11-7.82-.02-11.89-.02,29.06-29.06,57.83-57.83,86.89-86.89Z"/>
    <path class="cls-1" d="m115.88,261.99c2.07-4.47,5.61-5.83,10.42-5.77,14.83.21,29.66.08,44.49.08h3.06c0,1.14,0,2.06,0,2.98,0,15-.01,30,0,45,.02,14.55,9.96,24.47,24.56,24.48,14.92.01,29.83,0,44.75,0,.94,0,1.88,0,3.03,0,.05.97.12,1.8.12,2.63,0,15.43.01,30.86,0,46.3,0,6.04-3.01,9.04-9.06,9.04-36.99,0-73.97-.06-110.96.07-4.81.02-8.35-1.3-10.42-5.76v-119.05Z"/>
  </g>
</svg>