<?xml version="1.0" encoding="utf-8"?>
<!-- Generator: Adobe Illustrator 27.1.1, SVG Export Plug-In . SVG Version: 6.00 Build 0)  -->
<svg version="1.1" id="Layer_1" xmlns="http://www.w3.org/2000/svg" xmlns:xlink="http://www.w3.org/1999/xlink" x="0px" y="0px"
	 viewBox="0 0 500 500" style="enable-background:new 0 0 500 500;" xml:space="preserve">
<style type="text/css">
	.st0{fill:#242424;}
</style>
<g>
	<path class="st0" d="M58.55,368.95c0-42.42,0-84.83,0-127.25c0.36,0.08,0.74,0.12,1.09,0.24c59.3,19.76,118.6,39.5,177.87,59.32
		c8.48,2.84,16.75,2.87,25.26,0.03c55.49-18.55,111.02-37,166.54-55.47c4.06-1.35,8.13-2.67,12.3-4.04c0.1,0.82,0.18,1.19,0.18,1.56
		c0,40.54,0.14,81.07-0.18,121.61c-0.04,5.55-1.51,11.52-3.89,16.55c-8.35,17.63-22.76,25.87-42.27,25.85
		c-96.66-0.08-193.32-0.04-289.99-0.04c-1.62,0-3.24,0-4.86-0.06c-18.74-0.67-35.43-13.81-40.38-31.81
		C59.61,373.29,59.1,371.12,58.55,368.95z"/>
	<path class="st0" d="M58.55,174.33c0.67-2.52,1.25-5.06,2.02-7.54c5.82-18.58,22.34-30.71,42.27-30.79
		c26.2-0.11,52.4-0.03,78.6-0.03c1.47,0,2.93,0,4.97,0c0-5.83-0.13-11.28,0.02-16.71c0.42-15.22,10.57-27.39,25.43-30.54
		c2.18-0.46,4.45-0.61,6.69-0.62c21.08-0.04,42.17-0.15,63.25,0.01c16.2,0.12,29.14,10.78,31.65,26.31
		c0.89,5.49,0.41,11.19,0.53,16.8c0.03,1.36,0,2.72,0,4.75c1.68,0,3.11,0,4.54,0c25.82,0,51.65-0.02,77.47,0.01
		c27.09,0.03,45.78,18.78,45.8,45.92c0.01,10.35-0.09,20.71,0.06,31.06c0.04,2.51-0.62,3.7-3.11,4.53
		c-61.11,20.28-122.18,40.68-183.32,60.86c-3.08,1.02-7.05,1.12-10.11,0.12c-61.97-20.44-123.87-41.1-185.77-61.73
		c-0.35-0.12-0.67-0.33-1-0.49C58.55,202.28,58.55,188.31,58.55,174.33z M218.35,135.7c21.45,0,42.45,0,63.57,0
		c0-5.32,0-10.35,0-15.48c-21.34,0-42.42,0-63.57,0C218.35,125.51,218.35,130.46,218.35,135.7z"/>
</g>
</svg>
