<?xml version="1.0" encoding="utf-8"?>
<!-- Generator: Adobe Illustrator 27.1.1, SVG Export Plug-In . SVG Version: 6.00 Build 0)  -->
<svg version="1.1" id="Layer_1" xmlns="http://www.w3.org/2000/svg" xmlns:xlink="http://www.w3.org/1999/xlink" x="0px" y="0px"
	 viewBox="0 0 500 500" style="enable-background:new 0 0 500 500;" xml:space="preserve">
<style type="text/css">
	.st0{fill:#242424;}
</style>
<g>
	<path class="st0" d="M253,52.11c6.69,2.8,9.38,7.75,9.06,15.03c-0.39,9.21-0.07,18.44-0.1,27.67c-0.03,7.21-5.19,12.61-11.96,12.61
		c-6.76,0-11.92-5.42-11.95-12.63c-0.03-9.22,0.29-18.46-0.1-27.67c-0.31-7.28,2.31-12.26,9.06-15.01
		C249.01,52.11,251.01,52.11,253,52.11z"/>
	<path class="st0" d="M58.38,240.74c2.75-6.76,7.74-9.38,15.02-9.06c9.21,0.39,18.44,0.07,27.66,0.1
		c7.21,0.03,12.62,5.18,12.62,11.94c0,6.77-5.4,11.94-12.61,11.96c-9.22,0.03-18.46-0.29-27.66,0.1
		c-7.28,0.31-12.24-2.36-15.04-9.06C58.38,244.73,58.38,242.74,58.38,240.74z"/>
	<path class="st0" d="M298.77,363.36c-32.66,0-65.06,0-97.1,0c-2.33-5.64-3.82-11.61-7.04-16.43c-3.73-5.6-8.46-10.8-13.65-15.11
		c-29.63-24.57-44.13-55.81-42.57-94.34c2.16-53.26,43.77-95.8,92.24-103.96c61.81-10.42,121.51,31.8,129.87,93.33
		c5.52,40.63-7.27,75.04-38.3,102.06C311.25,338.45,301.67,348.51,298.77,363.36z M321.95,238.17c-0.22-1.98-0.46-3.96-0.67-5.93
		c-3.53-33.45-32.16-59.73-65.74-60.34c-7.57-0.14-13.14,4.68-13.38,11.55c-0.25,7.02,5.19,12.22,12.97,12.39
		c23.37,0.54,42.24,19.4,42.77,42.76c0.17,7.77,5.38,13.22,12.38,12.98C317.15,251.34,321.99,245.73,321.95,238.17z"/>
	<path class="st0" d="M202.16,387.6c32.06,0,63.67,0,95.03,0c0,8.79,1.05,17.61-0.25,26.06c-1.96,12.74-13.81,21.62-26.75,21.67
		c-12.96,0.06-25.92,0.02-38.89,0.01c-14.81-0.01-25.78-9.24-28.42-23.93c-0.31-1.71-0.67-3.45-0.7-5.17
		C202.1,400.16,202.16,394.06,202.16,387.6z"/>
	<path class="st0" d="M375.63,104.48c6.1,0.41,9.92,2.39,12.13,6.82c2.28,4.57,2.01,9.22-1.45,12.88
		c-7.7,8.13-15.62,16.07-23.75,23.78c-4.64,4.4-11.76,3.79-16.19-0.73c-4.42-4.51-4.86-11.61-0.46-16.22
		c7.56-7.92,15.32-15.68,23.27-23.21C371.11,105.96,374.1,105.23,375.63,104.48z"/>
	<path class="st0" d="M143.56,336.5c6.2,0.31,9.98,2.32,12.22,6.74c2.23,4.41,2.13,9.05-1.18,12.59
		c-7.83,8.35-15.93,16.47-24.27,24.31c-4.6,4.32-11.83,3.44-16.15-1.18c-4.2-4.5-4.56-11.46-0.26-15.95
		c7.66-8,15.52-15.83,23.55-23.46C139.31,337.79,142.2,337.15,143.56,336.5z"/>
	<path class="st0" d="M375.77,383.08c-1.69-0.88-4.85-1.78-6.97-3.77c-7.7-7.25-15.15-14.79-22.51-22.39
		c-4.73-4.88-4.5-12.13,0.18-16.79c4.66-4.65,11.89-4.83,16.79-0.08c7.6,7.37,15.07,14.87,22.45,22.46c3.63,3.74,4.42,8.28,2.3,13.1
		C385.96,380.3,382.06,382.4,375.77,383.08z"/>
	<path class="st0" d="M414.32,231.77c5.1,0,10.2-0.05,15.3,0.01c6.89,0.08,12.03,5.3,11.99,12.06c-0.04,6.58-5.14,11.78-11.84,11.83
		c-10.45,0.08-20.9,0.07-31.36,0c-6.82-0.04-12.16-5.46-12.09-12.07c0.07-6.52,5.28-11.73,11.94-11.82
		C403.62,231.71,408.97,231.77,414.32,231.77z"/>
	<path class="st0" d="M157.26,137.41c-0.39,6.34-2.58,10.15-7.2,12.29c-4.49,2.08-9,1.68-12.53-1.68
		c-8.11-7.73-16.06-15.64-23.76-23.77c-4.25-4.48-3.69-11.52,0.58-15.93c4.38-4.51,11.6-5.18,16.19-0.84
		c8.14,7.7,16.03,15.67,23.74,23.79C156.02,133.1,156.62,136.03,157.26,137.41z"/>
</g>
</svg>
