<?xml version="1.0" encoding="UTF-8"?>
<svg id="Layer_1" data-name="Layer 1" xmlns="http://www.w3.org/2000/svg" viewBox="0 0 500 500">
  <defs>
    <style>
      .cls-1 {
        fill: #fff;
      }

      .cls-2 {
        fill: #5a6267;
      }
    </style>
  </defs>
  <circle class="cls-2" cx="251.9" cy="251.27" r="234.63"/>
  <g>
    <path class="cls-1" d="m158.73,186.13c-5.81-5.76-11.55-11.15-16.88-16.91-1.53-1.65-2.81-4.48-2.55-6.56.24-1.91,2.38-4.11,4.26-5.15,2.45-1.35,5.09-.29,7.13,1.74,5.02,5.02,10.04,10.05,15.07,15.06.76.76,1.55,1.47,2.5,2.37,20.4-17.81,44.05-27.66,71.17-29.59v-20.25c-5.89,0-11.65.02-17.41-.01-1.3,0-2.64,0-3.9-.28-3.27-.71-5.31-3.34-5.28-6.57.03-3.2,2.17-5.78,5.43-6.46.85-.18,1.73-.2,2.6-.2,16.93-.01,33.86,0,50.8,0,.44,0,.88-.01,1.31.02,4.01.28,6.73,2.91,6.82,6.56.09,3.81-2.63,6.75-6.79,6.88-5.35.17-10.7.06-16.06.06-1.18,0-2.36,0-3.76,0v20.23c26.91,1.84,50.65,11.69,71.28,29.7,5.66-5.68,11.15-11.26,16.75-16.73,1.21-1.18,2.72-2.35,4.3-2.78,3.04-.82,5.64.36,7.24,3.14,1.69,2.93,1.14,5.76-1.15,8.11-4.95,5.09-9.99,10.09-15.05,15.08-.85.84-1.95,1.42-2.2,1.59,5.85,9.16,11.72,17.34,16.52,26.1,7.16,13.05,11,27.26,12.31,42.12.41,4.65-1.89,7.86-5.92,8.19-4.07.34-6.89-2.33-7.39-6.98-2.94-27.62-14.5-51.03-35.76-68.87-30.77-25.83-65.93-32.64-103.59-18.77-37.51,13.82-60.15,41.66-66.82,81.09-9.52,56.25,29.86,110,86.08,118.99,11.88,1.9,23.71,1.68,35.53-.35,4.69-.8,7.99,1.22,8.62,5.23.64,4.12-1.73,7.14-6.29,8-63.06,11.95-125.78-31.16-136.74-94.18-6.35-36.49,2.52-69.03,26.17-97.54.48-.58.94-1.19,1.66-2.1Z"/>
    <path class="cls-1" d="m259.76,321.59c-.1-33.33,26.96-60.48,60.34-60.56,33.24-.08,60.5,27.16,60.5,60.45,0,33.08-27.11,60.29-60.23,60.44-33.24.15-60.51-26.99-60.61-60.33Zm107.31-.13c0-25.93-20.9-46.94-46.74-46.98-26.04-.05-47.13,20.96-47.14,46.95,0,26.03,21.05,47.02,47.1,46.96,25.91-.06,46.78-21,46.78-46.92Z"/>
    <path class="cls-1" d="m204.06,344.42c12.21,6.45,24.9,9.88,38.94,10.43,0-3.01.06-5.91-.02-8.8-.06-2.38.65-4.31,3.27-4.35,2.6-.04,3.46,1.8,3.4,4.22-.06,2.82-.01,5.65-.01,8.96,2.82-.21,5.4-.29,7.94-.62,2.52-.32,4.84-.23,5.17,2.87.31,2.92-1.92,3.58-4.26,3.83-30.44,3.29-57.4-4.96-79.26-26.38-28.09-27.53-37.27-61.27-25.63-98.79,11.53-37.19,37.93-60,76.21-67.22,53.23-10.04,105.1,27.83,112.75,81.22.15,1.08.29,2.17.35,3.26.1,1.96-.54,3.53-2.69,3.83-2.26.32-3.48-.99-3.89-3.08-.37-1.93-.43-3.92-.91-5.82-1.25-4.96-2.46-9.96-4.08-14.81-1.23-3.7-3.05-7.2-4.78-11.17-2.81,1.59-5.33,3-7.84,4.44-2.01,1.16-4.04,1.56-5.43-.72-1.42-2.32-.08-3.88,1.95-5.04,2.45-1.41,4.88-2.85,7.64-4.46-7.28-11.74-16.7-21.02-28.41-28.49-1.56,2.67-3.04,5.18-4.5,7.7-1.18,2.05-2.84,3.27-5.1,1.92-2.29-1.36-1.9-3.37-.69-5.39,1.46-2.42,2.82-4.89,4.37-7.6-12.21-6.48-24.94-9.98-38.93-10.39,0,2.98-.06,5.69.02,8.39.07,2.44-.45,4.67-3.25,4.72-3.06.05-3.5-2.32-3.43-4.85.08-2.6.02-5.2.02-8.22-13.94.3-26.62,3.93-38.96,10.33,1.55,2.73,2.96,5.28,4.45,7.79,1.23,2.09,1.37,4.09-.92,5.34-2.11,1.15-3.74.05-4.87-1.91-1.46-2.55-2.96-5.08-4.55-7.81-11.64,7.29-20.93,16.63-28.49,28.45,2.56,1.5,5.03,2.99,7.55,4.4,2.04,1.14,3.46,2.67,2.2,5.01-1.37,2.53-3.53,2.04-5.63.81-2.35-1.37-4.72-2.72-7.44-4.3-6.52,12.09-9.87,24.84-10.51,38.9,3.07,0,5.87,0,8.66,0,2.37,0,4.6.47,4.52,3.44-.07,2.91-2.29,3.36-4.66,3.35-2.71,0-5.41,0-8.47,0,.52,13.92,4.01,26.64,10.43,38.88,2.8-1.61,5.33-3.06,7.86-4.53,1.94-1.13,3.86-1.32,5.15.77,1.42,2.28.23,3.9-1.83,5.09-2.53,1.47-5.05,2.96-7.78,4.56,7.4,11.71,16.74,21.08,28.47,28.47,1.6-2.76,3.09-5.29,4.55-7.84,1.11-1.93,2.66-3.12,4.83-1.93,2.3,1.26,2.2,3.25.97,5.33-1.48,2.52-2.9,5.06-4.46,7.81Z"/>
    <path class="cls-1" d="m256.24,227.4c3.76,0,7.01-.02,10.27,0,6.97.06,10,3.22,9.97,10.39-.03,6.62-3.18,9.77-9.87,9.78-8.52.02-17.04.04-25.56.02-2.38,0-4.58.32-4.65,3.29-.07,2.98,2.09,3.38,4.5,3.42,5.45.1,10.95-.11,16.34.55,6.75.82,11.83,4.74,15.58,10.37,1.2,1.8,1.8,3.7-.27,5.19-2.13,1.53-3.96.64-5.27-1.37-3.82-5.89-9.38-8.18-16.19-8.05-3.71.07-7.43.09-11.14-.01-6.06-.16-10.36-4.32-10.41-9.95-.05-5.52,4.33-9.93,10.35-10.03,8.73-.14,17.47-.11,26.21-.03,2.5.02,3.81-.51,3.83-3.42.03-3.03-1.48-3.37-3.89-3.3-3.71.11-7.43.05-11.14.02-4.27-.04-5.24-1-5.27-5.18-.02-2.95-.12-5.9.03-8.85.15-2.84-1.58-2.77-3.59-2.84-2.2-.07-3.24.6-3.12,2.97.14,2.72.04,5.46.03,8.19-.01,4.66-.57,5.28-5.12,5.72-8.4.81-14.21,6.64-15.02,15.07-.75,7.8,4.23,15.36,11.82,17.58,2.06.6,4.3.77,6.46.84,4.04.13,8.08-.04,12.12.07,5.43.15,9.5,4.15,9.81,9.49.3,5.16-3.57,9.67-8.94,10.34-1.4.18-2.83.19-4.25.2-7.86.02-15.73.06-23.59-.02-2.42-.03-3.59.62-3.57,3.32.02,2.56.9,3.53,3.45,3.45,4.04-.13,8.08-.07,12.12-.02,3.7.05,4.65,1.01,4.7,4.68.04,3.06.09,6.12-.02,9.17-.08,2.15.79,2.99,2.89,2.84,1.3-.09,2.86-.41,3.87.15,1.3.73,2.8,2.16,2.98,3.46.12.87-1.75,2.59-3,2.93-1.82.5-3.9.23-5.85.06-4.33-.38-7.22-3.33-7.46-7.67-.15-2.81-.03-5.64-.03-8.9-3.79,0-7.24.03-10.69,0-6.52-.06-9.54-3.28-9.53-10.12,0-6.78,3.05-10,9.62-10.04,8.63-.04,17.26-.03,25.88,0,2.39,0,4.59-.33,4.58-3.33,0-2.95-2.16-3.33-4.57-3.38-5.67-.11-11.42.24-16.97-.63-10.28-1.63-18.15-11.28-18.52-21.7-.41-11.49,6.01-20.86,16.69-23.63,3.04-.79,3.9-2.1,3.46-4.89-.08-.53.02-1.09-.02-1.64-.66-10.17,5.23-12.03,13.27-11.05,3.66.44,6.42,3.59,6.64,7.45.16,2.82.03,5.65.03,9.03Z"/>
    <path class="cls-1" d="m323.56,346.01c0,.94-.03,2.56,0,4.19.06,2.41-.5,4.65-3.3,4.73-3.1.08-3.51-2.34-3.46-4.83.03-1.52,0-3.04,0-5.17-3.08,0-5.97-.02-8.87,0-2.43.02-4.59-.57-4.48-3.47.1-2.62,2.1-3.28,4.43-3.25,2.83.03,5.65,0,8.7,0v-13.26c-5.44.15-10.78-.69-13.78-5.65-1.6-2.64-2.63-6.1-2.57-9.16.13-7.49,5.63-11.44,16.59-12.35,0-1.95-.01-3.96,0-5.97.02-2.13.9-3.73,3.17-3.8,2.43-.08,3.48,1.51,3.54,3.79.05,1.94.01,3.88.01,6.21,3.02,0,5.72.03,8.42,0,2.48-.04,4.87.2,4.81,3.41-.06,2.95-2.3,3.3-4.68,3.26-2.71-.04-5.42,0-8.54,0v13.52c5.73-.48,11.05.6,14.12,5.64,1.49,2.46,2.21,5.67,2.38,8.6.25,4.19-1.85,7.88-5.44,9.85-3.22,1.77-7.04,2.43-11.06,3.73Zm-6.95-41.14c-3.75-.58-6.98-.17-8.98,3.27-1.54,2.65-1.19,5.29.77,7.56,2.23,2.59,5.13,2.75,8.2,2.09v-12.93Zm7.17,20.18v12.96c3.64.49,6.81.22,8.8-3.11,1.41-2.36,1.33-4.81-.22-7.1-2.08-3.08-5.15-3.23-8.59-2.75Z"/>
  </g>
</svg>