<?xml version="1.0" encoding="UTF-8"?>
<svg id="Layer_1" data-name="Layer 1" xmlns="http://www.w3.org/2000/svg" viewBox="0 0 500 500">
  <defs>
    <style>
      .cls-1 {
        fill: #fff;
      }

      .cls-2 {
        fill: #5a6267;
      }
    </style>
  </defs>
  <circle class="cls-2" cx="251.9" cy="250" r="234.63"/>
  <g>
    <path class="cls-1" d="m298.99,376.62h-6.58c-.2-.14-.38-.36-.6-.41-7.92-1.64-13.45-6.2-16.89-13.49-.32-.68-1.66-1.23-2.53-1.24-13.66-.08-27.32-.02-40.98-.09-1.61,0-2.29.54-2.94,1.97-2.18,4.85-5.71,8.54-10.53,10.82-2.1.99-4.36,1.63-6.55,2.44h-6.58c-.3-.13-.6-.32-.92-.39-14.57-3.16-22.15-16.52-17.22-30.58.52-1.49-.06-2.14-.92-2.99-9.85-9.83-19.7-19.65-29.49-29.53-1.12-1.13-2.01-1.27-3.49-.73-12.12,4.37-25.32-2.04-29.34-14.2-.45-1.35-.77-2.74-1.16-4.11,0-2.19,0-4.39,0-6.58.17-.37.4-.72.49-1.11,1.72-7.48,6.04-12.89,13.01-16.06,1.44-.65,1.73-1.44,1.72-2.85-.04-13.66-.06-27.32.02-40.97,0-1.61-.54-2.3-1.97-2.94-4.85-2.18-8.54-5.71-10.83-10.52-1-2.1-1.63-4.36-2.43-6.55,0-2.19,0-4.39,0-6.58.17-.56.37-1.1.5-1.67,3.17-13.8,16.91-21.35,30.27-16.55,1.31.47,2.08.33,3.06-.67,9.87-9.94,19.78-19.84,29.72-29.71,1.03-1.02,1.27-1.83.75-3.27-4.23-11.68,1.27-24.23,12.57-28.92,11.3-4.69,24.11.31,29.36,11.58.68,1.46,1.41,1.92,2.98,1.91,13.59-.07,27.18-.07,40.76,0,1.7,0,2.42-.54,3.13-2.07,5.16-11.08,18-16.06,29.21-11.46,11.3,4.63,16.91,17.28,12.68,28.88-.57,1.55-.24,2.38.85,3.47,9.83,9.74,19.61,19.53,29.36,29.36,1.07,1.08,1.9,1.44,3.46.87,11.61-4.24,24.26,1.35,28.89,12.65,4.64,11.32-.4,24.13-11.67,29.32-1.52.7-1.85,1.51-1.84,3.02.05,13.58.06,27.17,0,40.75,0,1.56.42,2.3,1.9,2.98,11.25,5.2,16.27,18.03,11.59,29.35-4.66,11.29-17.26,16.83-28.92,12.59-1.44-.52-2.25-.29-3.27.74-9.81,9.88-19.65,19.73-29.54,29.53-1.12,1.11-1.33,1.96-.78,3.48,4.08,11.22-1.03,23.47-11.85,28.4-2.05.93-4.29,1.43-6.44,2.13Zm-146.34-152.09c0,14.62.02,29.05-.04,43.47,0,1.4.67,1.81,1.74,2.31,11.17,5.22,16.21,17.29,11.94,28.76-.56,1.51-.37,2.38.76,3.5,9.82,9.74,19.6,19.53,29.35,29.35,1.03,1.03,1.82,1.28,3.28.73,11.53-4.31,23.65.64,28.84,11.75.67,1.44,1.41,1.9,2.99,1.89,13.58-.08,27.17-.08,40.75,0,1.72.01,2.41-.58,3.12-2.09,5.05-10.81,17.29-15.81,28.48-11.64,1.58.59,2.51.43,3.72-.78,9.61-9.72,19.28-19.38,28.99-28.99,1.24-1.22,1.54-2.18.89-3.91-4.15-11.06.84-23.2,11.49-28.35.73-.35,1.47-.71,2.21-1.06,0-14.67.03-29.17-.08-43.68,0-.72-1.07-1.72-1.88-2.11-10.95-5.32-15.94-17.38-11.7-28.72.56-1.49.4-2.38-.73-3.5-9.83-9.74-19.61-19.52-29.36-29.34-1.02-1.02-1.81-1.3-3.27-.75-11.67,4.34-23.59-.6-28.94-11.97-.61-1.3-1.3-1.65-2.64-1.65-13.75.04-27.5.05-41.25,0-1.5,0-2.15.52-2.77,1.84-5.21,11.14-17.29,16.09-28.82,11.8-1.42-.53-2.24-.37-3.29.69-9.74,9.82-19.52,19.61-29.35,29.35-1.1,1.09-1.42,1.96-.8,3.49,1.49,3.65,1.95,7.48,1.28,11.41-1.51,8.82-6.63,14.71-14.92,18.21Z"/>
    <path class="cls-1" d="m253.65,279.39c3.32-16.17,12.97-25.8,29.87-28.77-7.25-1.72-12.47-5.35-15.46-11.73-2-4.27-2.44-8.73-1.35-13.32,2.15-9.04,10.38-15.51,19.72-15.53,9.51-.02,17.62,6.35,19.8,15.69,1.33,5.69.38,11.07-2.9,15.95-3.18,4.74-7.73,7.56-13.31,8.95,6.13.99,11.65,3.07,16.43,6.85,9.37,7.42,13.5,17.2,12.8,29.06-.18,3.11-2.48,5.78-5.51,6.51-1.21.29-2.51.35-3.76.35-40.08.02-80.16.02-120.23,0-1.01,0-2.03-.02-3.02-.2-3.66-.64-6.11-3.47-6.3-7.17-1.09-21.03,11.85-36.91,32.6-40.02.24-.04.48-.11,1.17-.28-6.59-1.19-11.74-4.09-15.47-9.21-3.77-5.16-5.01-10.95-4.04-17.25,1.63-10.6,11.59-18.9,22.54-18.75,11.57.16,20.79,8.63,22.29,20.48,1.45,11.48-6.13,21.18-19.36,24.77,18.2,2.23,31.21,15.31,33.49,33.61Z"/>
  </g>
</svg>