<?xml version="1.0" encoding="UTF-8"?>
<svg id="Layer_1" data-name="Layer 1" xmlns="http://www.w3.org/2000/svg" viewBox="0 0 500 500">
  <defs>
    <style>
      .cls-1 {
        fill: #fff;
      }

      .cls-2 {
        fill: #5a6267;
      }
    </style>
  </defs>
  <circle class="cls-2" cx="250" cy="251.27" r="234.63"/>
  <g>
    <path class="cls-1" d="m200.84,125.78c.39-4.81,1.79-9.01,5-12.44,3.59-3.83,8.02-5.96,13.27-5.97,24.77-.05,49.55-.08,74.32,0,8.79.03,15.95,6.15,17.76,14.81.23,1.11.39,2.24.58,3.36,5.11.24,10.21.13,15.22.76,22.73,2.89,39.82,22.27,39.9,45.3.11,32.08.03,64.16.03,96.23,0,23.15.03,46.29,0,69.44-.04,22.74-15.16,41.31-37.36,45.81-3.08.62-6.29.85-9.44.85-42.54.05-85.07.06-127.61.03-26.59-.02-46.82-20.31-46.84-46.93-.02-54.74-.02-109.49,0-164.23.01-26.78,20.24-46.97,47.04-47.02,2.67,0,5.34,0,8.14,0Zm-.11,18.44c-2.43,0-4.91,0-7.39,0-17.49.02-29.24,11.78-29.24,29.29,0,54.27,0,108.54,0,162.81,0,17.46,11.8,29.2,29.33,29.21,41.87,0,83.74,0,125.61,0,17.72,0,29.43-11.69,29.44-29.39,0-54.17-.14-108.35.09-162.52.08-17.79-13.52-32.83-36.87-29-1.36,11.64-8.52,18.04-20.21,18.05-23.53,0-47.06,0-70.58-.01-1.53,0-3.09-.02-4.58-.3-8.84-1.65-13.88-7.48-15.59-18.13Zm18.81-.2h73.39v-18.09h-73.39v18.09Z"/>
    <path class="cls-1" d="m213.03,206.83c6.36-6.4,12.23-12.44,18.25-18.31,5.3-5.17,13.66-2.86,15.48,4.17.84,3.22.08,6.17-2.23,8.51-8.28,8.39-16.59,16.77-25.02,25.01-3.58,3.5-8.84,3.45-12.48,0-4.38-4.15-8.67-8.42-12.82-12.81-3.49-3.7-3.25-9.23.26-12.71,3.5-3.47,8.99-3.65,12.73-.2,2.03,1.87,3.76,4.07,5.81,6.33Z"/>
    <path class="cls-1" d="m213.1,262.09c6.17-6.2,11.83-11.93,17.52-17.62,4.32-4.31,9.9-4.58,13.75-.7,3.85,3.87,3.56,9.4-.78,13.76-7.64,7.68-15.3,15.34-22.97,22.99-4.73,4.72-9.88,4.75-14.6.09-3.75-3.7-7.5-7.42-11.18-11.19-3.97-4.07-4.09-9.64-.39-13.36,3.7-3.72,9.34-3.63,13.36.3,1.78,1.74,3.38,3.65,5.28,5.72Z"/>
    <path class="cls-1" d="m212.95,317.5c6.21-6.22,11.89-11.93,17.59-17.62,4.36-4.35,9.86-4.68,13.76-.87,3.97,3.89,3.66,9.47-.82,13.96-7.58,7.61-15.17,15.2-22.77,22.79-4.85,4.84-9.95,4.86-14.8.06-3.68-3.64-7.35-7.29-10.98-10.99-4.01-4.09-4.21-9.6-.56-13.36,3.73-3.85,9.44-3.75,13.56.34,1.76,1.74,3.29,3.71,5.02,5.68Z"/>
    <path class="cls-1" d="m288.85,199.55c7.3,0,14.59-.02,21.89,0,5.87.02,10.04,3.83,10.07,9.15.03,5.34-4.12,9.26-9.95,9.27-14.88.03-29.76.03-44.64,0-5.81-.01-9.97-3.96-9.92-9.3.05-5.35,4.18-9.11,10.09-9.12,7.49-.02,14.98,0,22.46,0Z"/>
    <path class="cls-1" d="m288.53,273.31c-7.39,0-14.78.02-22.18,0-5.87-.02-10.03-3.85-10.06-9.17-.02-5.36,4.1-9.24,9.95-9.25,14.88-.02,29.76-.02,44.64,0,5.81,0,9.97,3.96,9.92,9.3-.05,5.22-4.16,9.09-9.82,9.12-7.49.04-14.98,0-22.46,0Z"/>
    <path class="cls-1" d="m288.69,310.2c7.39,0,14.78-.02,22.18,0,5.82.02,9.98,3.94,9.94,9.28-.04,5.23-4.15,9.13-9.79,9.14-14.98.03-29.95.03-44.93,0-5.63-.01-9.75-3.92-9.79-9.14-.04-5.37,4.09-9.25,9.93-9.28,7.49-.03,14.98,0,22.46,0Z"/>
  </g>
</svg>