<?xml version="1.0" encoding="UTF-8"?>
<svg id="Layer_1" data-name="Layer 1" xmlns="http://www.w3.org/2000/svg" viewBox="0 0 500 500">
  <defs>
    <style>
      .cls-1 {
        fill: #fff;
      }

      .cls-2 {
        fill: #5a6267;
      }
    </style>
  </defs>
  <circle class="cls-2" cx="250" cy="251.27" r="234.63"/>
  <g>
    <path class="cls-1" d="m186.97,109.93c46.46,0,92.92,0,139.37,0,.89.68,1.86,1.28,2.65,2.06,15.33,15.3,30.68,30.58,45.89,45.99,1.26,1.27,2.19,3.5,2.19,5.29.11,65.75.1,131.51.09,197.27,0,4.13-1.99,6.12-6.11,6.12-60.52.01-121.03.01-181.55,0-4.27,0-6.18-1.96-6.2-6.3-.02-6.9-.37-13.82.13-20.69.29-3.99-2.32-4.55-4.67-5.74-2.26-1.14-2.81,1.21-3.78,2.24-11.29,11.91-22.49,23.92-33.72,35.89-5.04,5.37-11.22,7.34-18.32,5.47-7.06-1.86-11.54-6.57-13.49-13.63-.14-.49-.36-.95-.55-1.43,0-2.1,0-4.19,0-6.29,1.43-5.68,5.23-9.61,9.39-13.45,11.37-10.47,22.56-21.12,33.87-31.66,1.19-1.11,1.52-1.93.7-3.51-16.76-32.46-4.46-70.84,28.03-87.33,2-1.02,2.46-2.15,2.46-4.18-.05-33,0-66.01-.09-99.01,0-3.22.88-5.58,3.72-7.12Zm132.56,10.67h-125.56v94.46c28.87-5.19,52.7,2.92,69.01,27.5,14.61,22.02,15.07,45.73,1.19,68.2-16.06,25.99-40.42,34.67-70.17,29.42v15.89h172.54v-188.49c-1.1,0-2.05,0-2.99,0-12.66,0-25.32.02-37.98-.01-3.98,0-5.95-2.01-6.02-5.94-.02-1.13,0-2.27,0-3.41,0-12.48,0-24.95,0-37.61Zm-109.98,103.33c-29.6-.05-53.62,23.89-53.74,53.55-.12,29.54,23.85,53.64,53.5,53.8,29.65.16,53.88-23.99,53.87-53.68-.01-29.61-24-53.61-53.63-53.66Zm-41.12,103.83c-3.09-3.08-6.02-6.01-9.06-9.04.15-.09-.1,0-.28.18-12.35,11.58-24.71,23.16-37.03,34.78-.86.81-1.63,1.86-2.1,2.95-1.48,3.44-.12,7.54,3.06,9.68,3.39,2.28,7.45,1.86,10.43-1.28,6.97-7.34,13.89-14.74,20.81-22.12,4.82-5.14,9.63-10.3,14.16-15.14Zm189.39-170.77c-9.18-9.18-18.6-18.61-27.62-27.62v27.62h27.62Z"/>
    <path class="cls-1" d="m282.98,189.87c20.78,0,41.57,0,62.35,0,.7,0,1.4,0,2.1,0,3.83.07,6.19,2.1,6.15,5.26-.04,3.07-2.31,5.04-6.01,5.2-.7.03-1.4.01-2.1.01-41.74,0-83.48,0-125.22,0-1.31,0-2.63,0-3.91-.23-2.58-.46-4.29-2.68-4.19-5.23.1-2.55,1.96-4.59,4.57-4.91.95-.12,1.92-.09,2.88-.09,21.13,0,42.26,0,63.4,0Z"/>
    <path class="cls-1" d="m259.54,133.51c13.61,0,27.21,0,40.82,0,3.13,0,5.12,1.34,5.86,3.82.88,2.95-1.14,6.09-4.3,6.57-.85.13-1.74.08-2.61.08-26.69,0-53.38,0-80.07,0-.7,0-1.4.03-2.09-.03-2.96-.25-5.08-2.54-5-5.35.07-2.71,2.15-4.94,5.01-5.05,3.4-.13,6.8-.05,10.2-.05,10.73,0,21.46,0,32.18,0Z"/>
    <path class="cls-1" d="m307.74,213.45c12.82,0,25.65,0,38.47,0,1.04,0,2.11-.02,3.13.15,2.43.4,4.18,2.49,4.23,4.94.05,2.44-1.59,4.62-4.01,5.12-1.1.23-2.25.25-3.38.26-25.56.01-51.12.01-76.67,0-1.13,0-2.28-.02-3.38-.24-2.42-.47-4.14-2.64-4.13-5.04,0-2.51,1.87-4.69,4.42-5.06.94-.14,1.91-.12,2.87-.12,12.82,0,25.65,0,38.47,0Z"/>
    <path class="cls-1" d="m316.37,307.76c10.04,0,20.07,0,30.11,0,.96,0,1.93-.01,2.87.15,2.43.41,4.17,2.5,4.22,4.95.05,2.44-1.61,4.62-4.03,5.11-1.1.22-2.25.25-3.38.25-19.98.01-39.97.01-59.95,0-1.13,0-2.28-.03-3.38-.26-2.4-.51-4.06-2.75-3.98-5.16.08-2.44,1.85-4.51,4.29-4.9.94-.15,1.91-.14,2.87-.14,10.12,0,20.25,0,30.37,0Z"/>
    <path class="cls-1" d="m319.84,271.08c-8.81,0-17.62.01-26.43-.01-1.21,0-2.46-.03-3.64-.3-2.37-.54-3.92-2.81-3.78-5.28.13-2.35,1.81-4.32,4.14-4.73.85-.15,1.74-.15,2.61-.15,17.97,0,35.94,0,53.9,0,.09,0,.17,0,.26,0,4.28.03,6.71,1.94,6.67,5.26-.04,3.29-2.47,5.2-6.78,5.21-8.98.02-17.97,0-26.95,0Z"/>
    <path class="cls-1" d="m238.31,157.09c6.62,0,13.25-.01,19.87,0,3.94,0,6.4,2.11,6.32,5.35-.08,3.14-2.46,5.11-6.3,5.12-13.25.01-26.49.01-39.74,0-3.94,0-6.39-2.11-6.32-5.36.07-3.15,2.45-5.1,6.3-5.11,6.62-.02,13.25,0,19.87,0Z"/>
    <path class="cls-1" d="m305.64,284.19c4.45,0,8.91-.04,13.36.01,3.72.04,5.93,2.01,5.94,5.16.01,3.14-2.17,5.23-5.88,5.26-9.08.08-18.16.08-27.25,0-3.67-.03-5.87-2.21-5.82-5.34.05-3.12,2.3-5.05,6.03-5.09,4.54-.04,9.08,0,13.62-.01Z"/>
    <path class="cls-1" d="m274.98,341.74c-2.52,0-5.05.08-7.57-.02-3.22-.12-5.42-2.29-5.42-5.18,0-2.78,2.07-5.07,5.16-5.16,5.3-.15,10.62-.16,15.92.02,3.08.1,5.08,2.45,5,5.27-.07,2.83-2.16,4.84-5.26,5.06-.17.01-.35.02-.52.02-2.44,0-4.87,0-7.31,0h0Z"/>
    <path class="cls-1" d="m203.43,282.19c5.82-5.82,11.3-11.31,16.78-16.8,1.17-1.17,2.3-2.4,3.56-3.47,2.07-1.77,5.02-1.7,6.93.05,2.02,1.84,2.26,4.83.54,7.1-.42.55-.94,1.03-1.43,1.53-7.16,7.16-14.31,14.33-21.48,21.48-3.39,3.38-6.02,3.38-9.4.02-3.41-3.38-6.82-6.77-10.18-10.19-2.72-2.76-2.89-5.77-.53-8.05,2.24-2.17,5.26-1.99,7.87.62,2.45,2.46,4.8,5.03,7.35,7.71Z"/>
  </g>
</svg>