<?xml version="1.0" encoding="UTF-8"?>
<svg id="Layer_1" data-name="Layer 1" xmlns="http://www.w3.org/2000/svg" viewBox="0 0 500 500">
  <defs>
    <style>
      .cls-1 {
        fill: #fff;
      }

      .cls-2 {
        fill: #5a6267;
      }
    </style>
  </defs>
  <circle class="cls-2" cx="250" cy="250" r="234.63"/>
  <g>
    <path class="cls-1" d="m251.59,117.38c7.32,7.37,13.98,14.07,20.65,20.79-11.84,7.09-17.58,17.42-14.41,31.23,2.69,11.7,10.68,18.63,22.54,20.8,11.13,2.04,21.21-3.22,28.68-14.61,6.64,6.67,13.32,13.38,20.22,20.31-.25.26-.93,1-1.64,1.71-8.63,8.65-17.25,17.32-25.91,25.94-1.73,1.72-3.07,3.51-2.03,6.05,1.11,2.71,3.41,2.86,5.97,2.76,10.46-.44,18.67,6.43,19.65,16.32.99,9.92-5.53,18.33-15.53,20.05-11.03,1.9-21.33-7.34-20.91-18.76.02-.67.35-1.44.11-1.98-.73-1.63-1.34-3.57-2.62-4.64-1.63-1.36-3.7-.64-5.17.84-1.19,1.2-2.16,2.63-3.59,3.74-1.06-7.45-3.87-13.48-9.66-17.87-4.51-3.42-9.64-4.97-15.29-4.58-6.73.47-12.25,3.39-16.48,8.65-4.15,5.15-5.34,11.22-5.53,17.97-2.24-2.28-4.5-4.55-6.71-6.86-1.75-1.83-3.6-3.24-6.28-1.99-2.54,1.19-2.64,3.41-2.51,5.83.42,7.77-2.66,13.83-9.49,17.58-6.51,3.58-13.06,3.12-19.21-1.04-6.63-4.49-9.42-12.86-7-20.47,2.44-7.7,9.41-12.83,17.43-12.83,1.14,0,2.41.4,3.41.04,1.42-.51,3.26-1.27,3.78-2.44.57-1.29.1-3.24-.39-4.74-.32-.98-1.48-1.7-2.29-2.51-9-8.95-18.01-17.89-27.18-27,.9-.97,1.56-1.73,2.27-2.44,8.5-8.51,17.01-17.02,25.53-25.51,1.81-1.8,3.6-3.61,2.31-6.46-1.26-2.78-3.63-2.86-6.29-2.69-10.31.66-19.03-7.25-19.45-17.53-.42-10.14,7.67-18.63,17.88-18.77,10.69-.15,18.87,7.91,18.69,18.49-.05,2.78-.63,5.77,2.75,7.08,3.27,1.27,5.09-1.15,7.05-3.11,8.1-8.1,16.22-16.18,24.31-24.31.87-.87,1.52-1.97,2.34-3.05Z"/>
    <path class="cls-1" d="m268.17,376.62h-64.04c-.15-.22-.34-.38-.33-.52.49-6.5-1.64-12.33-4.22-18.16-5.27-11.94-10.24-24.02-15.37-36.02-1.45-3.41-1.65-6.85-.45-10.32,3.6-10.45,7.28-20.87,10.88-31.32.47-1.36.96-2.13,2.71-2.23,12.5-.69,21.07-6.92,25.58-18.65.16-.41.34-.81.69-1.67,2.49,2.55,4.83,4.78,6.93,7.21.58.66.62,1.93.63,2.93.04,14.22.02,28.45.03,42.67,0,.86-.08,1.74.07,2.57.45,2.47,1.97,3.96,4.5,3.97,2.53,0,4.06-1.49,4.52-3.95.17-.93.08-1.9.08-2.86,0-20.52-.04-41.05.02-61.57.03-9.63,8.81-16.21,17.79-13.47,5.88,1.8,9.67,7.09,9.68,13.7.03,17.75.07,35.51-.02,53.26-.04,7.6,1.49,14.76,5.06,21.47,5.82,10.95,5.88,21.93-.06,32.81-3.4,6.21-6.22,12.48-4.68,20.13Z"/>
    <path class="cls-1" d="m304.54,278.05c0,8.61.04,16.71-.02,24.82-.02,3.45-1.95,5.14-5.48,5.07-11.42-.23-21.51-9.98-21.91-21.56-.28-7.9-.22-15.83.03-23.73.05-1.58,1.68-3.12,2.98-4.64,2.15,5.42,4.98,10.05,9.3,13.66,4.35,3.64,9.44,5.59,15.1,6.38Z"/>
    <path class="cls-1" d="m134.89,202.52c-4.1,0-8.21.01-12.31,0-3.82-.01-5.97-1.72-5.92-4.65.05-2.85,2.13-4.5,5.78-4.5,8.3-.02,16.61-.01,24.91,0,3.82,0,5.97,1.71,5.92,4.65-.05,2.91-2.17,4.5-6.07,4.51-4.1.01-8.21,0-12.31,0Z"/>
    <path class="cls-1" d="m373.3,193.36c4.3,0,8.59-.03,12.89,0,3.37.03,5.42,1.8,5.42,4.57,0,2.77-2.06,4.56-5.43,4.57-8.59.03-17.18.03-25.77,0-3.37-.01-5.42-1.8-5.42-4.58,0-2.79,2.03-4.54,5.42-4.57,4.3-.04,8.59,0,12.89,0Z"/>
    <path class="cls-1" d="m158.3,251.54c-.56.71-1.33,2.39-2.64,3.18-7.67,4.61-15.44,9.06-23.22,13.47-2.59,1.47-5.15.79-6.49-1.43-1.4-2.33-.67-4.92,2.05-6.52,7.64-4.48,15.3-8.93,23-13.29,3.47-1.97,7.27.01,7.3,4.59Z"/>
    <path class="cls-1" d="m355,246.03c.66.28,1.66.59,2.55,1.09,7.44,4.25,14.88,8.5,22.28,12.81,3.1,1.8,3.96,4.4,2.44,6.86-1.46,2.36-3.98,2.8-7,1.07-7.52-4.3-15.01-8.66-22.5-13-2.1-1.22-3.28-2.92-2.57-5.44.62-2.19,2.21-3.23,4.81-3.41Z"/>
    <path class="cls-1" d="m158.23,144.17c.02,4.56-3.63,6.68-6.97,4.91-3.53-1.87-6.93-3.96-10.39-5.96-4.2-2.42-8.42-4.81-12.6-7.27-2.9-1.7-3.76-4.26-2.35-6.66,1.41-2.39,4.01-2.91,6.95-1.23,7.52,4.28,15.04,8.55,22.46,13,1.39.84,2.29,2.51,2.9,3.21Z"/>
    <path class="cls-1" d="m353.78,150.25c-1.11-1.18-2.71-2.27-3.42-3.78-1.03-2.19.12-4.08,2.13-5.28,3.59-2.14,7.23-4.2,10.86-6.29,4.03-2.33,8.05-4.69,12.11-6.97,2.9-1.63,5.54-1.07,6.91,1.36,1.32,2.34.54,4.87-2.22,6.48-7.55,4.41-15.14,8.76-22.74,13.09-.88.5-1.91.75-3.64,1.4Z"/>
  </g>
</svg>