<?xml version="1.0" encoding="UTF-8"?>
<svg id="Layer_1" data-name="Layer 1" xmlns="http://www.w3.org/2000/svg" viewBox="0 0 500 500">
  <defs>
    <style>
      .cls-1 {
        fill: #fff;
      }

      .cls-2 {
        fill: #5a6267;
      }
    </style>
  </defs>
  <circle class="cls-2" cx="250" cy="250" r="234.63"/>
  <g>
    <path class="cls-1" d="m403.18,198.18c-.86.81-1.77,1.56-2.56,2.43-31.57,34.75-63.14,69.52-94.69,104.3-.65.71-1.09,1.61-2.01,3-5.19-27.72-20.91-43.5-47.78-48.56.45-.53.86-1.14,1.38-1.62,35.26-32.2,70.53-64.39,105.84-96.55.81-.74,2.03-1.45,3.07-1.45,12.06-.08,24.12-.03,36.18,0,.19,0,.38.11.57.17v38.3Z"/>
    <path class="cls-1" d="m403.18,277.17c-4.27-.08-8.55-.21-12.82-.22-10.26-.03-20.52-.01-30.78-.01h-4.01c14.51-15.98,28.46-31.34,42.95-47.3,1.04,5.47,2.04,10.29,2.84,15.15.72,4.39,1.23,8.82,1.83,13.23v19.15Z"/>
    <path class="cls-1" d="m348.31,150.53c-24.17,22.06-48.17,43.95-72.37,66.04-.81-.86-1.5-1.68-2.27-2.4-3.55-3.35-6.86-7.01-10.76-9.89-2.96-2.19-4.05-4.39-4.02-8.09.18-25.82.1-51.64.1-77.46v-3.68c33.75,2.28,63.35,13.98,89.32,35.48Z"/>
    <path class="cls-1" d="m148.37,153.62c26.11-24.01,61.96-37.32,92.53-38.34v76.49c-2.66-.73-5.19-1.5-7.74-2.12-14.75-3.62-29.37-3.23-43.91,1.24-1.17.36-3.14.27-3.9-.48-12.37-12.14-24.6-24.43-36.97-36.79Z"/>
    <path class="cls-1" d="m169.01,200.5c-12.21,8.41-22.01,19.3-28.56,33.03-6.5,13.64-8.37,28.11-7.6,43.2h-35.9c-1.52-41.91,10.88-78.73,38.19-110.17,11.3,11.32,22.47,22.51,33.86,33.93Z"/>
    <path class="cls-1" d="m249.85,348.98c-19.79-.06-35.84-16.28-35.71-36.11.12-19.68,16.22-35.68,35.88-35.67,19.79,0,35.91,16.19,35.87,35.99-.05,19.82-16.19,35.85-36.04,35.79Z"/>
  </g>
</svg>