<?xml version="1.0" encoding="UTF-8"?>
<svg id="Layer_1" data-name="Layer 1" xmlns="http://www.w3.org/2000/svg" viewBox="0 0 500 500">
  <defs>
    <style>
      .cls-1 {
        fill: #fff;
      }

      .cls-2 {
        fill: #242424;
      }
    </style>
  </defs>
  <circle class="cls-2" cx="251.71" cy="250" r="227.15"/>
  <g>
    <path class="cls-1" d="m99.45,183.97c.34-1.04.71-2.07,1.01-3.12,3.03-10.46,12.47-17.93,23.33-18.09,11.57-.17,23.14-.08,34.7-.04,4.1.01,6.93,1.97,8.25,5.89,5.64,16.68,11.18,33.38,16.76,50.07.97,2.91.3,5.49-1.34,7.95-4.2,6.28-8.34,12.59-12.61,18.82-.97,1.41-1.04,2.46-.23,4,8.46,15.87,20.19,29.04,33.62,40.79,7.32,6.4,15.17,12.06,23.84,16.54,1.35.7,2.26.66,3.5-.18,6.17-4.2,12.44-8.24,18.58-12.46,3.01-2.07,6.01-2.54,9.5-1.36,15.79,5.35,31.61,10.58,47.41,15.89,5.94,2,7.5,4.23,7.51,10.5,0,10.17.02,20.34,0,30.51-.04,15.56-10.97,26.49-26.46,26.3-32.03-.39-61.53-9.69-88.73-26.21-40.76-24.76-70.43-59.11-87.74-103.76-5.79-14.94-9.29-30.45-10.44-46.46-.06-.9-.32-1.79-.49-2.69,0-4.29,0-8.58,0-12.88Z"/>
    <path class="cls-1" d="m251.17,241.27c-3.2-.83-6.29-1.48-9.29-2.42-25.85-8.07-43.14-33.52-40.98-60.23,2.23-27.51,22.77-49.81,49.7-53.88,2.76-.42,5.57-.64,8.36-.64,22.76-.05,45.52-.13,68.27,0,27.41.16,51.03,19.11,57.34,45.77,7.57,31.95-14.13,64.93-46.6,70.61-4.56.8-9.26,1.01-13.9,1.11-8.2.17-16.42.12-24.62,0-2.06-.03-3.44.63-4.85,2.06-9.04,9.16-18.18,18.23-27.28,27.33-.59.59-1.17,1.2-1.8,1.76-2.74,2.46-5.88,3.27-9.3,1.74-3.39-1.52-5.04-4.3-5.04-8.02-.01-7.37,0-14.74,0-22.1,0-1.02,0-2.03,0-3.08Zm16.78-58.3c.07-4.53-3.65-8.41-8.19-8.52-4.52-.11-8.44,3.6-8.58,8.12-.15,4.64,3.69,8.63,8.33,8.66,4.54.03,8.37-3.72,8.45-8.26Zm25.16,8.26c4.54.02,8.37-3.74,8.44-8.27.07-4.53-3.67-8.4-8.2-8.51-4.64-.11-8.59,3.77-8.57,8.41.01,4.53,3.81,8.34,8.34,8.37Zm33.6-16.78c-4.53.02-8.33,3.83-8.35,8.36-.01,4.54,3.76,8.37,8.29,8.42,4.65.06,8.55-3.85,8.49-8.5-.06-4.54-3.89-8.3-8.43-8.28Z"/>
  </g>
</svg>