<?xml version="1.0" encoding="UTF-8"?>
<svg id="Layer_1" data-name="Layer 1" xmlns="http://www.w3.org/2000/svg" viewBox="0 0 500 500">
  <defs>
    <style>
      .cls-1 {
        fill: #fff;
      }

      .cls-2 {
        fill: #242424;
      }
    </style>
  </defs>
  <circle class="cls-2" cx="248.93" cy="250" r="227.15"/>
  <g>
    <path class="cls-1" d="m249.9,316.67c20.33,0,40.66.05,60.99-.02,9.73-.03,16.53-7.77,14.92-17.3-4.09-24.2-16.92-42.49-37.95-55.09-2.63-1.58-4.72-1.02-6.86,1.07-17.94,17.46-44.15,17.46-62.14.05-2.66-2.58-4.09-2.77-7.31-.83-20.26,12.18-32.54,29.94-37.36,53.04-2.33,11.15,5.89,19.41,15.86,19.21,19.94-.42,39.9-.12,59.85-.13Zm29.36-101.91c.68-15.43-12.26-28.88-28.48-29.6-15.9-.71-29.45,12.05-30.25,28.47-.77,15.85,12.1,29.57,28.43,30.31,15.88.72,29.58-12.47,30.31-29.18Zm-75.83-90.33c-11.64,0-23.15-.7-34.55.15-22.94,1.71-43.69,21.95-45.91,44.85-1.08,11.11-.47,22.38-.6,33.58,0,.14.22.28.27.35h17.49c0-6.69-.07-13.14.03-19.59.07-4.36-.12-8.81.68-13.06,3.18-16.83,16.93-28.31,34.13-28.7,8.45-.19,16.91-.05,25.37-.08,1.01,0,2.02-.09,3.11-.14v-17.36Zm173.61,79.04c0-11.56.88-22.92-.18-34.1-2.19-22.94-22.96-43.03-45.94-44.81-11.24-.87-22.58-.38-33.88-.5-.16,0-.32.16-.63.33v17.41c1.16.05,2.18.13,3.19.13,8.93.04,17.87-.18,26.79.14,17.3.62,31.84,14.5,33.02,31.79.6,8.7.24,17.47.33,26.21.01,1.1.11,2.19.17,3.39h17.14Zm-173.55,154.33c-1.39,0-2.5,0-3.62,0-9.02-.04-18.06.18-27.07-.18-16.58-.68-31.17-14.7-32.31-31.28-.61-8.8-.27-17.66-.36-26.49-.01-1.12,0-2.23,0-3.46h-17.88c0,9.26-.1,18.28.02,27.3.3,23.8,17.19,45,40.35,50.43,13.3,3.12,26.86,1.27,40.31,1.53.15,0,.3-.2.56-.39v-17.47Zm156.24-61.51c0,6.97.07,13.61-.03,20.24-.06,4.17.08,8.42-.69,12.49-3.17,16.74-16.78,28.24-33.82,28.7-8.54.23-17.1.06-25.65.09-1.01,0-2.02.09-3.12.14v17.64c.61.08,1.06.18,1.51.18,9.4,0,18.82.2,28.21-.06,23.82-.68,44.22-17.18,49.84-40.35,3.09-12.72,1.24-25.72,1.51-38.6,0-.14-.21-.29-.35-.46h-17.41Z"/>
    <path class="cls-1" d="m249.9,316.68c-19.95,0-39.91-.29-59.85.12-9.98.21-18.19-8.06-15.86-19.21,4.83-23.11,17.1-40.87,37.36-53.04,3.22-1.93,4.65-1.74,7.31.83,17.99,17.4,44.2,17.41,62.14-.05,2.14-2.08,4.23-2.64,6.86-1.07,21.03,12.6,33.85,30.89,37.95,55.09,1.61,9.53-5.19,17.27-14.92,17.3-20.33.07-40.66.02-60.99.02Z"/>
    <path class="cls-1" d="m279.25,214.77c-.73,16.71-14.43,29.9-30.31,29.18-16.33-.74-29.2-14.46-28.43-30.31.8-16.43,14.36-29.18,30.25-28.47,16.22.73,29.16,14.17,28.48,29.6Z"/>
    <path class="cls-1" d="m203.43,124.44v17.36c-1.09.05-2.1.14-3.11.14-8.46.02-16.91-.11-25.37.08-17.2.38-30.95,11.86-34.13,28.7-.8,4.25-.61,8.7-.68,13.06-.1,6.45-.03,12.9-.03,19.59h-17.49c-.06-.07-.27-.21-.27-.35.14-11.2-.47-22.47.6-33.58,2.22-22.9,22.97-43.14,45.91-44.85,11.4-.85,22.91-.15,34.55-.15Z"/>
    <path class="cls-1" d="m377.03,203.47h-17.14c-.06-1.2-.16-2.3-.17-3.39-.09-8.74.26-17.5-.33-26.21-1.18-17.29-15.72-31.17-33.02-31.79-8.92-.32-17.86-.1-26.79-.14-1.02,0-2.03-.08-3.19-.13v-17.41c.31-.17.47-.33.63-.33,11.3.11,22.64-.38,33.88.5,22.98,1.78,43.75,21.87,45.94,44.81,1.07,11.18.18,22.55.18,34.1Z"/>
    <path class="cls-1" d="m203.48,357.81v17.47c-.27.19-.42.39-.56.39-13.45-.26-27.01,1.59-40.31-1.53-23.16-5.43-40.04-26.63-40.35-50.43-.12-9.02-.02-18.04-.02-27.3h17.88c0,1.22,0,2.34,0,3.46.09,8.83-.25,17.69.36,26.49,1.14,16.58,15.73,30.61,32.31,31.28,9.01.37,18.05.14,27.07.18,1.12,0,2.23,0,3.62,0Z"/>
    <path class="cls-1" d="m359.72,296.3h17.41c.14.18.36.32.35.46-.27,12.88,1.58,25.87-1.51,38.6-5.62,23.17-26.02,39.68-49.84,40.35-9.4.27-18.81.06-28.21.06-.45,0-.9-.1-1.51-.18v-17.64c1.1-.05,2.11-.14,3.12-.14,8.55-.03,17.1.14,25.65-.09,17.05-.46,30.66-11.96,33.82-28.7.77-4.06.62-8.32.69-12.49.1-6.64.03-13.28.03-20.24Z"/>
  </g>
</svg>