<?xml version="1.0" encoding="UTF-8"?>
<svg id="Layer_1" data-name="Layer 1" xmlns="http://www.w3.org/2000/svg" xmlns:xlink="http://www.w3.org/1999/xlink" viewBox="0 0 1978.73 744.49">
  <defs>
    <style>
      .cls-1, .cls-2 {
        fill: none;
      }

      .cls-3 {
        clip-path: url(#clippath);
      }

      .cls-4 {
        fill: #fff;
      }

      .cls-5 {
        fill: #3292d0;
      }

      .cls-6 {
        fill: #2173aa;
      }

      .cls-7 {
        fill: #14548a;
      }

      .cls-8 {
        fill: #1bb6b3;
      }

      .cls-9 {
        fill: #42c6ec;
      }

      .cls-10 {
        fill: #51c4cc;
      }

      .cls-11 {
        fill: #54d2ef;
      }

      .cls-12, .cls-13 {
        fill: #5bc5c7;
      }

      .cls-14 {
        fill: #44a3d8;
      }

      .cls-15 {
        clip-path: url(#clippath-1);
      }

      .cls-16 {
        clip-path: url(#clippath-4);
      }

      .cls-17 {
        clip-path: url(#clippath-3);
      }

      .cls-18 {
        clip-path: url(#clippath-2);
      }

      .cls-19 {
        clip-path: url(#clippath-7);
      }

      .cls-20 {
        clip-path: url(#clippath-8);
      }

      .cls-21 {
        clip-path: url(#clippath-6);
      }

      .cls-22 {
        clip-path: url(#clippath-5);
      }

      .cls-23 {
        clip-path: url(#clippath-9);
      }

      .cls-2 {
        stroke: #edf0f2;
        stroke-width: 3.75px;
      }

      .cls-13 {
        opacity: .76;
      }
    </style>
    <clipPath id="clippath">
      <rect class="cls-8" x="524.01" y="151.79" width="151.12" height="116.58"/>
    </clipPath>
    <clipPath id="clippath-1">
      <path class="cls-8" d="m536.8,151.79h121.81c3.39,0,6.65,1.35,9.05,3.75,2.4,2.4,3.75,5.65,3.75,9.05v89.85c0,3.39-1.35,6.65-3.75,9.05-2.4,2.4-5.65,3.75-9.05,3.75h-121.81c-3.39,0-6.65-1.35-9.05-3.75-2.4-2.4-3.75-5.65-3.75-9.05v-89.85c0-3.39,1.35-6.65,3.75-9.05,2.4-2.4,5.65-3.75,9.05-3.75"/>
    </clipPath>
    <clipPath id="clippath-2">
      <rect class="cls-12" x="165.67" y="151.79" width="151.12" height="116.58"/>
    </clipPath>
    <clipPath id="clippath-3">
      <path class="cls-12" d="m178.46,151.79h121.81c3.39,0,6.65,1.35,9.05,3.75,2.4,2.4,3.75,5.65,3.75,9.05v89.85c0,3.39-1.35,6.65-3.75,9.05-2.4,2.4-5.65,3.75-9.05,3.75h-121.81c-3.39,0-6.65-1.35-9.05-3.75-2.4-2.4-3.75-5.65-3.75-9.05v-89.85c0-3.39,1.35-6.65,3.75-9.05,2.4-2.4,5.65-3.75,9.05-3.75"/>
    </clipPath>
    <clipPath id="clippath-4">
      <rect class="cls-11" x="895.53" y="151.79" width="151.12" height="116.58"/>
    </clipPath>
    <clipPath id="clippath-5">
      <path class="cls-11" d="m908.32,151.79h121.81c3.39,0,6.65,1.35,9.05,3.75,2.4,2.4,3.75,5.65,3.75,9.05v89.85c0,3.39-1.35,6.65-3.75,9.05-2.4,2.4-5.65,3.75-9.05,3.75h-121.81c-3.39,0-6.65-1.35-9.05-3.75-2.4-2.4-3.75-5.65-3.75-9.05v-89.85c0-3.39,1.35-6.65,3.75-9.05,2.4-2.4,5.65-3.75,9.05-3.75"/>
    </clipPath>
    <clipPath id="clippath-6">
      <rect class="cls-14" x="1267.04" y="151.79" width="151.12" height="116.58"/>
    </clipPath>
    <clipPath id="clippath-7">
      <path class="cls-14" d="m1279.84,151.79h121.81c3.39,0,6.65,1.35,9.05,3.75,2.4,2.4,3.75,5.65,3.75,9.05v89.85c0,3.39-1.35,6.65-3.75,9.05-2.4,2.4-5.65,3.75-9.05,3.75h-121.81c-3.39,0-6.65-1.35-9.05-3.75-2.4-2.4-3.75-5.65-3.75-9.05v-89.85c0-3.39,1.35-6.65,3.75-9.05,2.4-2.4,5.65-3.75,9.05-3.75"/>
    </clipPath>
    <clipPath id="clippath-8">
      <rect class="cls-6" x="1638.56" y="151.79" width="151.12" height="116.58"/>
    </clipPath>
    <clipPath id="clippath-9">
      <path class="cls-6" d="m1651.36,151.79h121.81c3.39,0,6.65,1.35,9.05,3.75,2.4,2.4,3.75,5.65,3.75,9.05v89.85c0,3.39-1.35,6.65-3.75,9.05-2.4,2.4-5.65,3.75-9.05,3.75h-121.81c-3.39,0-6.65-1.35-9.05-3.75-2.4-2.4-3.75-5.65-3.75-9.05v-89.85c0-3.39,1.35-6.65,3.75-9.05s5.65-3.75,9.05-3.75"/>
    </clipPath>
  </defs>
  <rect class="cls-13" x="73.24" y="222.78" width="326.06" height="409.57"/>
  <rect class="cls-10" x="440.25" y="222.78" width="326.06" height="409.57"/>
  <rect class="cls-9" x="808.22" y="222.78" width="326.06" height="409.57"/>
  <rect class="cls-5" x="1173.3" y="222.78" width="326.06" height="409.57"/>
  <rect class="cls-7" x="1545.56" y="222.78" width="326.06" height="409.57"/>
  <rect class="cls-1" x="336.19" y="-167.48" width="1637.58" height="929.67"/>
  <rect class="cls-1" x="336.19" y="-167.48" width="1637.58" height="921.14"/>
  <rect class="cls-1" x="432.57" y="213.77" width="342.02" height="426.45"/>
  <rect class="cls-1" x="800.17" y="213.77" width="342.02" height="426.45"/>
  <rect class="cls-1" x="1167.78" y="213.77" width="342.02" height="426.45"/>
  <rect class="cls-1" x="1535.38" y="213.77" width="342.02" height="426.45"/>
  <path d="m1531.11,641.97h350.54m-350.54-430.34h350.54m-2.13,2.13v426.07m-346.28-426.07v426.07m-369.73,2.13h350.54m-350.54-430.34h350.54m-2.13,2.13v426.07m-346.28-426.07v426.07m-369.73,2.13h350.54m-350.54-430.34h350.54m-2.13,2.13v426.07m-346.28-426.07v426.07m-369.73,2.13h350.54M428.31,211.64h350.54m-2.13,2.13v426.07M430.44,213.77v426.07"/>
  <path class="cls-2" d="m1531.11,641.97h350.54m-350.54-430.34h350.54m-2.13,2.13v426.07m-346.28-426.07v426.07m-369.73,2.13h350.54m-350.54-430.34h350.54m-2.13,2.13v426.07m-346.28-426.07v426.07m-369.73,2.13h350.54m-350.54-430.34h350.54m-2.13,2.13v426.07m-346.28-426.07v426.07m-369.73,2.13h350.54M428.31,211.64h350.54m-2.13,2.13v426.07M430.44,213.77v426.07"/>
  <path d="m60.51,641.97h350.54M60.51,211.64h350.54m-2.13,2.13v426.07M62.64,213.77v426.07"/>
  <path class="cls-2" d="m60.51,641.97h350.54M60.51,211.64h350.54m-2.13,2.13v426.07M62.64,213.77v426.07"/>
  <g>
    <rect class="cls-8" x="524.01" y="151.79" width="151.12" height="116.58"/>
    <g class="cls-3">
      <g>
        <path class="cls-8" d="m536.8,151.79h121.81c3.39,0,6.65,1.35,9.05,3.75,2.4,2.4,3.75,5.65,3.75,9.05v89.85c0,3.39-1.35,6.65-3.75,9.05-2.4,2.4-5.65,3.75-9.05,3.75h-121.81c-3.39,0-6.65-1.35-9.05-3.75-2.4-2.4-3.75-5.65-3.75-9.05v-89.85c0-3.39,1.35-6.65,3.75-9.05,2.4-2.4,5.65-3.75,9.05-3.75"/>
        <g class="cls-15">
          <rect class="cls-8" x="524.01" y="151.79" width="146.81" height="116.58"/>
        </g>
      </g>
    </g>
  </g>
  <g>
    <rect class="cls-12" x="165.67" y="151.79" width="151.12" height="116.58"/>
    <g class="cls-18">
      <g>
        <path class="cls-12" d="m178.46,151.79h121.81c3.39,0,6.65,1.35,9.05,3.75,2.4,2.4,3.75,5.65,3.75,9.05v89.85c0,3.39-1.35,6.65-3.75,9.05-2.4,2.4-5.65,3.75-9.05,3.75h-121.81c-3.39,0-6.65-1.35-9.05-3.75-2.4-2.4-3.75-5.65-3.75-9.05v-89.85c0-3.39,1.35-6.65,3.75-9.05,2.4-2.4,5.65-3.75,9.05-3.75"/>
        <g class="cls-17">
          <rect class="cls-12" x="165.67" y="151.79" width="146.81" height="116.58"/>
        </g>
      </g>
    </g>
  </g>
  <rect class="cls-1" x="336.19" y="-167.48" width="1637.58" height="921.14"/>
  <rect class="cls-1" x="336.19" y="-167.48" width="1637.58" height="929.67"/>
  <g>
    <rect class="cls-11" x="895.53" y="151.79" width="151.12" height="116.58"/>
    <g class="cls-16">
      <g>
        <path class="cls-11" d="m908.32,151.79h121.81c3.39,0,6.65,1.35,9.05,3.75,2.4,2.4,3.75,5.65,3.75,9.05v89.85c0,3.39-1.35,6.65-3.75,9.05-2.4,2.4-5.65,3.75-9.05,3.75h-121.81c-3.39,0-6.65-1.35-9.05-3.75-2.4-2.4-3.75-5.65-3.75-9.05v-89.85c0-3.39,1.35-6.65,3.75-9.05,2.4-2.4,5.65-3.75,9.05-3.75"/>
        <g class="cls-22">
          <rect class="cls-11" x="895.53" y="151.79" width="146.81" height="116.58"/>
        </g>
      </g>
    </g>
  </g>
  <rect class="cls-1" x="336.19" y="-167.48" width="1637.58" height="921.14"/>
  <rect class="cls-1" x="336.19" y="-167.48" width="1637.58" height="929.67"/>
  <g>
    <rect class="cls-14" x="1267.04" y="151.79" width="151.12" height="116.58"/>
    <g class="cls-21">
      <g>
        <path class="cls-14" d="m1279.84,151.79h121.81c3.39,0,6.65,1.35,9.05,3.75,2.4,2.4,3.75,5.65,3.75,9.05v89.85c0,3.39-1.35,6.65-3.75,9.05-2.4,2.4-5.65,3.75-9.05,3.75h-121.81c-3.39,0-6.65-1.35-9.05-3.75-2.4-2.4-3.75-5.65-3.75-9.05v-89.85c0-3.39,1.35-6.65,3.75-9.05,2.4-2.4,5.65-3.75,9.05-3.75"/>
        <g class="cls-19">
          <rect class="cls-14" x="1267.04" y="151.79" width="146.81" height="116.58"/>
        </g>
      </g>
    </g>
  </g>
  <rect class="cls-1" x="336.19" y="-167.48" width="1637.58" height="921.14"/>
  <rect class="cls-1" x="336.19" y="-167.48" width="1637.58" height="921.14"/>
  <rect class="cls-1" x="336.19" y="-167.48" width="1637.58" height="929.67"/>
  <g>
    <rect class="cls-6" x="1638.56" y="151.79" width="151.12" height="116.58"/>
    <g class="cls-20">
      <g>
        <path class="cls-6" d="m1651.36,151.79h121.81c3.39,0,6.65,1.35,9.05,3.75,2.4,2.4,3.75,5.65,3.75,9.05v89.85c0,3.39-1.35,6.65-3.75,9.05-2.4,2.4-5.65,3.75-9.05,3.75h-121.81c-3.39,0-6.65-1.35-9.05-3.75-2.4-2.4-3.75-5.65-3.75-9.05v-89.85c0-3.39,1.35-6.65,3.75-9.05s5.65-3.75,9.05-3.75"/>
        <g class="cls-23">
          <rect class="cls-6" x="1638.56" y="151.79" width="146.81" height="116.58"/>
        </g>
      </g>
    </g>
  </g>
  <rect class="cls-1" x="336.19" y="-167.48" width="1637.58" height="921.14"/>
  <rect class="cls-1" x="336.19" y="-167.48" width="1637.58" height="921.14"/>
  <rect class="cls-1" x="336.19" y="-167.48" width="1637.58" height="929.67"/>
  <rect class="cls-1" x="336.19" y="-167.48" width="1637.58" height="921.14"/>
  <g>
    <path d="m148.21,109.85h-2.89v6.88h-4.67v-19.16h7.56c4.7,0,7.04,2.65,7.04,6.17,0,3.17-2.16,6.11-7.04,6.11Zm-.35-3.71c1.86,0,2.65-.93,2.65-2.4s-.79-2.4-2.65-2.4h-2.54v4.8h2.54Z"/>
    <path d="m157.68,96.53h4.67v20.2h-4.67v-20.2Z"/>
    <path d="m171.52,101.28c2.27,0,3.88,1.04,4.7,2.38v-2.16h4.67v15.23h-4.67v-2.16c-.85,1.34-2.46,2.38-4.72,2.38-3.71,0-6.69-3.06-6.69-7.86s2.98-7.81,6.72-7.81Zm1.37,4.07c-1.75,0-3.33,1.31-3.33,3.74s1.58,3.79,3.33,3.79,3.33-1.34,3.33-3.77-1.56-3.77-3.33-3.77Z"/>
    <path d="m185,105.37h-1.86v-3.88h1.86v-3.71h4.67v3.71h3.06v3.88h-3.06v6.12c0,.9.38,1.28,1.42,1.28h1.67v3.96h-2.38c-3.17,0-5.38-1.34-5.38-5.29v-6.06Z"/>
    <path d="m195.81,105.37h-1.69v-3.88h1.69v-.44c0-3.99,2.46-5.95,7.1-5.71v3.96c-1.8-.11-2.43.44-2.43,2.05v.14h2.51v3.88h-2.51v11.36h-4.67v-11.36Z"/>
    <path d="m212.1,116.95c-4.48,0-7.86-3-7.86-7.83s3.47-7.83,7.92-7.83,7.92,3,7.92,7.83-3.49,7.83-7.97,7.83Zm0-4.04c1.67,0,3.22-1.23,3.22-3.79s-1.53-3.79-3.17-3.79-3.17,1.2-3.17,3.79,1.42,3.79,3.11,3.79Z"/>
    <path d="m227.22,116.73h-4.67v-15.23h4.67v2.54c1.06-1.61,2.73-2.7,4.78-2.7v4.94h-1.28c-2.21,0-3.49.76-3.49,3.38v7.07Z"/>
    <path d="m255.23,108.46c0-1.99-1.15-3.08-2.92-3.08s-2.92,1.09-2.92,3.08v8.27h-4.64v-8.27c0-1.99-1.15-3.08-2.92-3.08s-2.92,1.09-2.92,3.08v8.27h-4.67v-15.23h4.67v1.91c.9-1.23,2.46-2.08,4.45-2.08,2.29,0,4.15,1.01,5.19,2.84,1.01-1.61,2.92-2.84,5.13-2.84,3.77,0,6.2,2.4,6.2,6.5v8.9h-4.64v-8.27Z"/>
    <path d="m275.86,116.92c-4.12,0-7.34-2.05-7.48-5.92h4.97c.14,1.47,1.06,2.18,2.38,2.18s2.24-.68,2.24-1.8c0-3.55-9.58-1.64-9.53-8.44,0-3.63,2.98-5.65,6.99-5.65s6.99,2.07,7.18,5.73h-5.05c-.08-1.23-.96-1.96-2.21-1.99-1.12-.03-1.97.54-1.97,1.75,0,3.33,9.47,1.83,9.47,8.24,0,3.22-2.51,5.9-6.99,5.9Z"/>
    <path d="m292.48,116.95c-4.48,0-7.7-3-7.7-7.83s3.17-7.83,7.7-7.83,7.59,2.95,7.59,7.59c0,.44-.03.9-.08,1.37h-10.56c.16,1.99,1.39,2.92,2.89,2.92,1.31,0,2.05-.65,2.43-1.47h4.97c-.74,2.98-3.44,5.27-7.23,5.27Zm-3.03-9.31h5.84c0-1.67-1.31-2.62-2.87-2.62s-2.7.93-2.98,2.62Z"/>
    <path d="m303.26,105.37h-1.86v-3.88h1.86v-3.71h4.67v3.71h3.06v3.88h-3.06v6.12c0,.9.38,1.28,1.42,1.28h1.67v3.96h-2.38c-3.17,0-5.38-1.34-5.38-5.29v-6.06Z"/>
    <path d="m328.64,116.73h-4.67v-2.07c-.93,1.31-2.57,2.24-4.61,2.24-3.52,0-5.9-2.43-5.9-6.5v-8.9h4.64v8.27c0,2.08,1.17,3.22,2.92,3.22s2.95-1.15,2.95-3.22v-8.27h4.67v15.23Z"/>
    <path d="m341.36,101.28c3.74,0,6.72,3,6.72,7.81s-2.98,7.86-6.72,7.86c-2.24,0-3.85-1.06-4.7-2.35v9.39h-4.67v-22.49h4.67v2.16c.85-1.34,2.46-2.38,4.7-2.38Zm-1.39,4.07c-1.75,0-3.33,1.34-3.33,3.77s1.58,3.77,3.33,3.77,3.36-1.36,3.36-3.79-1.58-3.74-3.36-3.74Z"/>
  </g>
  <g>
    <path class="cls-4" d="m180.17,330.74l3.15,3.79h-4.24l-1.84-2.48c-.51.1-1.04.16-1.6.16-4.07,0-7.39-3.05-7.39-7.37s3.32-7.35,7.39-7.35,7.35,3.03,7.35,7.35c0,2.52-1.11,4.59-2.83,5.9Zm-4.53-1.72c2.29,0,3.79-1.66,3.79-4.18s-1.5-4.18-3.79-4.18-3.81,1.62-3.81,4.18,1.47,4.18,3.81,4.18Z"/>
    <path class="cls-4" d="m184.71,317.7h3.5v8.6c0,1.7.84,2.68,2.5,2.68s2.54-.98,2.54-2.68v-8.6h3.5v8.58c0,3.97-2.79,5.94-6.1,5.94s-5.94-1.97-5.94-5.94v-8.58Z"/>
    <path class="cls-4" d="m199,317.7h3.5v14.38h-3.5v-14.38Z"/>
    <path class="cls-4" d="m211.47,317.54c3.42,0,6,1.92,6.82,5.04h-3.85c-.59-1.23-1.68-1.84-3.01-1.84-2.15,0-3.62,1.6-3.62,4.14s1.47,4.14,3.62,4.14c1.33,0,2.42-.62,3.01-1.84h3.85c-.82,3.11-3.4,5.02-6.82,5.02-4.24,0-7.23-3.01-7.23-7.31s2.99-7.33,7.23-7.33Z"/>
    <path class="cls-4" d="m223.73,325.73v6.35h-3.5v-14.38h3.5v6.31l4.79-6.31h4.12l-5.57,7.04,5.77,7.33h-4.28l-4.83-6.35Z"/>
    <path class="cls-4" d="m240.98,332.08h-6.7v-14.38h6.47c2.93,0,4.67,1.45,4.67,3.73,0,1.74-1.04,2.87-2.44,3.28,1.68.35,2.76,1.82,2.76,3.46,0,2.38-1.74,3.91-4.77,3.91Zm-.9-11.57h-2.29v3.01h2.29c1.15,0,1.78-.51,1.78-1.49s-.63-1.52-1.78-1.52Zm.25,5.57h-2.54v3.17h2.58c1.17,0,1.84-.53,1.84-1.56s-.72-1.62-1.88-1.62Z"/>
    <path class="cls-4" d="m254.37,332.22c-4.07,0-7.39-3.05-7.39-7.37s3.32-7.35,7.39-7.35,7.35,3.03,7.35,7.35-3.28,7.37-7.35,7.37Zm0-3.2c2.29,0,3.79-1.66,3.79-4.18s-1.5-4.18-3.79-4.18-3.81,1.62-3.81,4.18,1.47,4.18,3.81,4.18Z"/>
    <path class="cls-4" d="m270.26,332.22c-4.07,0-7.39-3.05-7.39-7.37s3.32-7.35,7.39-7.35,7.35,3.03,7.35,7.35-3.28,7.37-7.35,7.37Zm0-3.2c2.29,0,3.79-1.66,3.79-4.18s-1.5-4.18-3.79-4.18-3.81,1.62-3.81,4.18,1.47,4.18,3.81,4.18Z"/>
    <path class="cls-4" d="m282.84,325.73v6.35h-3.5v-14.38h3.5v6.31l4.79-6.31h4.12l-5.57,7.04,5.77,7.33h-4.28l-4.83-6.35Z"/>
    <path class="cls-4" d="m298.61,332.22c-3.09,0-5.51-1.54-5.61-4.44h3.73c.1,1.11.8,1.64,1.78,1.64s1.68-.51,1.68-1.35c0-2.66-7.19-1.23-7.15-6.33,0-2.72,2.23-4.24,5.24-4.24s5.24,1.56,5.39,4.3h-3.79c-.06-.92-.72-1.47-1.66-1.49-.84-.02-1.47.41-1.47,1.31,0,2.5,7.11,1.37,7.11,6.18,0,2.42-1.88,4.42-5.24,4.42Z"/>
    <path class="cls-4" d="m180.15,357.89l-6.18,8.85h6.18v2.87h-10.16v-2.66l6.14-8.85h-6.14v-2.87h10.16v2.66Z"/>
    <path class="cls-4" d="m189.03,369.75c-4.07,0-7.39-3.05-7.39-7.37s3.32-7.35,7.39-7.35,7.35,3.03,7.35,7.35-3.28,7.37-7.35,7.37Zm0-3.19c2.29,0,3.79-1.66,3.79-4.18s-1.5-4.18-3.79-4.18-3.81,1.62-3.81,4.18,1.47,4.18,3.81,4.18Z"/>
    <path class="cls-4" d="m207.07,363.69h-5.45v5.92h-3.5v-14.38h3.5v5.63h5.45v-5.63h3.5v14.38h-3.5v-5.92Z"/>
    <path class="cls-4" d="m219.68,369.75c-4.07,0-7.39-3.05-7.39-7.37s3.32-7.35,7.39-7.35,7.35,3.03,7.35,7.35-3.28,7.37-7.35,7.37Zm0-3.19c2.29,0,3.79-1.66,3.79-4.18s-1.5-4.18-3.79-4.18-3.81,1.62-3.81,4.18,1.47,4.18,3.81,4.18Z"/>
    <path class="cls-4" d="m239.59,369.6h-6.7v-14.38h6.47c2.93,0,4.67,1.45,4.67,3.73,0,1.74-1.04,2.87-2.44,3.28,1.68.35,2.76,1.82,2.76,3.46,0,2.38-1.74,3.91-4.77,3.91Zm-.9-11.57h-2.29v3.01h2.29c1.15,0,1.78-.51,1.78-1.49s-.63-1.52-1.78-1.52Zm.25,5.57h-2.54v3.17h2.58c1.17,0,1.84-.53,1.84-1.56s-.72-1.62-1.88-1.62Z"/>
    <path class="cls-4" d="m252.98,369.75c-4.07,0-7.39-3.05-7.39-7.37s3.32-7.35,7.39-7.35,7.35,3.03,7.35,7.35-3.28,7.37-7.35,7.37Zm0-3.19c2.29,0,3.79-1.66,3.79-4.18s-1.5-4.18-3.79-4.18-3.81,1.62-3.81,4.18,1.47,4.18,3.81,4.18Z"/>
    <path class="cls-4" d="m268.86,369.75c-4.07,0-7.39-3.05-7.39-7.37s3.32-7.35,7.39-7.35,7.35,3.03,7.35,7.35-3.28,7.37-7.35,7.37Zm0-3.19c2.29,0,3.79-1.66,3.79-4.18s-1.5-4.18-3.79-4.18-3.81,1.62-3.81,4.18,1.47,4.18,3.81,4.18Z"/>
    <path class="cls-4" d="m281.45,363.26v6.35h-3.5v-14.38h3.5v6.31l4.79-6.31h4.12l-5.57,7.04,5.77,7.33h-4.28l-4.83-6.35Z"/>
    <path class="cls-4" d="m297.21,369.75c-3.09,0-5.51-1.54-5.61-4.44h3.73c.1,1.11.8,1.64,1.78,1.64s1.68-.51,1.68-1.35c0-2.66-7.19-1.23-7.15-6.33,0-2.72,2.23-4.24,5.24-4.24s5.24,1.56,5.39,4.3h-3.79c-.06-.92-.72-1.47-1.66-1.5-.84-.02-1.47.41-1.47,1.31,0,2.5,7.11,1.37,7.11,6.19,0,2.42-1.88,4.42-5.24,4.42Z"/>
    <path class="cls-4" d="m216.03,402.73l-2.58,4.4h-3.97l4.61-7.31-4.71-7.06h4.07l2.89,4.34,2.54-4.34h3.97l-4.57,7.25,4.75,7.12h-4.08l-2.93-4.4Z"/>
    <path class="cls-4" d="m233.39,395.56h-5.3v2.91h4.69v2.7h-4.69v3.15h5.3v2.8h-8.81v-14.38h8.81v2.81Z"/>
    <path class="cls-4" d="m241.33,392.76c3.52,0,5.28,2.03,5.28,4.53,0,1.8-.98,3.5-3.19,4.16l3.32,5.69h-3.95l-2.99-5.43h-.84v5.43h-3.5v-14.38h5.88Zm-.2,2.91h-2.17v3.56h2.17c1.31,0,1.92-.68,1.92-1.8,0-1.07-.61-1.76-1.92-1.76Z"/>
    <path class="cls-4" d="m255.39,407.28c-4.07,0-7.39-3.05-7.39-7.37s3.32-7.35,7.39-7.35,7.35,3.03,7.35,7.35-3.28,7.37-7.35,7.37Zm0-3.2c2.29,0,3.79-1.66,3.79-4.18s-1.5-4.18-3.79-4.18-3.81,1.62-3.81,4.18,1.47,4.18,3.81,4.18Z"/>
    <path class="cls-4" d="m216.43,444.8c-3.09,0-5.51-1.54-5.61-4.44h3.73c.1,1.11.8,1.64,1.78,1.64s1.68-.51,1.68-1.35c0-2.66-7.19-1.23-7.15-6.33,0-2.72,2.23-4.24,5.24-4.24s5.24,1.56,5.39,4.3h-3.79c-.06-.92-.72-1.47-1.66-1.49-.84-.02-1.47.41-1.47,1.31,0,2.5,7.11,1.37,7.11,6.18,0,2.42-1.88,4.42-5.24,4.42Z"/>
    <path class="cls-4" d="m227.95,433.07c1.7,0,2.91.78,3.52,1.78v-1.62h3.5v11.43h-3.5v-1.62c-.63,1-1.84,1.78-3.54,1.78-2.79,0-5.02-2.29-5.02-5.9s2.23-5.86,5.04-5.86Zm1.02,3.05c-1.31,0-2.5.98-2.5,2.81s1.19,2.85,2.5,2.85,2.5-1,2.5-2.83-1.17-2.83-2.5-2.83Z"/>
    <path class="cls-4" d="m241.65,433.07c1.68,0,2.91.76,3.52,1.78v-1.62h3.5v11.41c0,3.05-1.76,5.65-5.71,5.65-3.4,0-5.61-1.72-5.92-4.44h3.46c.23.86,1.09,1.41,2.29,1.41,1.33,0,2.38-.7,2.38-2.62v-1.62c-.63,1-1.84,1.8-3.52,1.8-2.81,0-5.04-2.29-5.04-5.9s2.23-5.86,5.04-5.86Zm1.02,3.05c-1.31,0-2.5.98-2.5,2.81s1.19,2.85,2.5,2.85,2.5-1,2.5-2.83-1.17-2.83-2.5-2.83Z"/>
    <path class="cls-4" d="m256.08,444.82c-3.36,0-5.77-2.25-5.77-5.88s2.38-5.88,5.77-5.88,5.69,2.21,5.69,5.69c0,.33-.02.68-.06,1.02h-7.92c.12,1.49,1.04,2.19,2.17,2.19.98,0,1.54-.49,1.82-1.11h3.73c-.55,2.23-2.58,3.95-5.43,3.95Zm-2.27-6.98h4.38c0-1.25-.98-1.97-2.15-1.97s-2.03.7-2.23,1.97Z"/>
    <path class="cls-4" d="m222.63,482.33c-3.09,0-5.51-1.54-5.61-4.44h3.73c.1,1.11.8,1.64,1.78,1.64s1.68-.51,1.68-1.35c0-2.66-7.19-1.23-7.15-6.33,0-2.72,2.23-4.24,5.24-4.24s5.24,1.56,5.39,4.3h-3.79c-.06-.92-.72-1.47-1.66-1.5-.84-.02-1.47.41-1.47,1.31,0,2.5,7.11,1.37,7.11,6.19,0,2.42-1.88,4.42-5.24,4.42Z"/>
    <path class="cls-4" d="m234.16,470.6c1.7,0,2.91.78,3.52,1.78v-1.62h3.5v11.43h-3.5v-1.62c-.63,1-1.84,1.78-3.54,1.78-2.79,0-5.02-2.29-5.02-5.9s2.23-5.86,5.04-5.86Zm1.02,3.05c-1.31,0-2.5.98-2.5,2.8s1.19,2.85,2.5,2.85,2.5-1,2.5-2.82-1.17-2.83-2.5-2.83Z"/>
    <path class="cls-4" d="m250.53,470.6c2.81,0,5.04,2.25,5.04,5.86s-2.23,5.9-5.04,5.9c-1.68,0-2.89-.8-3.52-1.76v7.04h-3.5v-16.88h3.5v1.62c.64-1,1.84-1.78,3.52-1.78Zm-1.04,3.05c-1.31,0-2.5,1-2.5,2.83s1.19,2.82,2.5,2.82,2.52-1.02,2.52-2.85-1.19-2.8-2.52-2.8Z"/>
    <path class="cls-4" d="m209.84,519.86c-4.07,0-7.39-3.05-7.39-7.37s3.32-7.35,7.39-7.35,7.35,3.03,7.35,7.35-3.28,7.37-7.35,7.37Zm0-3.19c2.29,0,3.79-1.66,3.79-4.18s-1.5-4.18-3.79-4.18-3.81,1.62-3.81,4.18,1.47,4.18,3.81,4.18Z"/>
    <path class="cls-4" d="m222.43,519.72h-3.5v-11.43h3.5v1.91c.8-1.21,2.05-2.03,3.58-2.03v3.71h-.96c-1.66,0-2.62.57-2.62,2.54v5.3Z"/>
    <path class="cls-4" d="m231.82,508.13c1.7,0,2.91.78,3.52,1.78v-1.62h3.5v11.43h-3.5v-1.62c-.63,1-1.84,1.78-3.54,1.78-2.79,0-5.02-2.29-5.02-5.9s2.23-5.86,5.04-5.86Zm1.02,3.05c-1.31,0-2.5.98-2.5,2.8s1.19,2.85,2.5,2.85,2.5-1,2.5-2.82-1.17-2.83-2.5-2.83Z"/>
    <path class="cls-4" d="m246.21,508.13c2.87,0,4.89,1.58,5.49,4.3h-3.73c-.29-.8-.86-1.31-1.82-1.31-1.25,0-2.11.98-2.11,2.89s.86,2.89,2.11,2.89c.96,0,1.52-.47,1.82-1.31h3.73c-.59,2.64-2.62,4.3-5.49,4.3-3.36,0-5.73-2.25-5.73-5.88s2.38-5.88,5.73-5.88Z"/>
    <path class="cls-4" d="m253.36,504.56h3.5v15.15h-3.5v-15.15Z"/>
    <path class="cls-4" d="m264.27,519.88c-3.36,0-5.77-2.25-5.77-5.88s2.38-5.88,5.77-5.88,5.69,2.21,5.69,5.69c0,.33-.02.68-.06,1.02h-7.92c.12,1.5,1.04,2.19,2.17,2.19.98,0,1.54-.49,1.82-1.11h3.73c-.55,2.23-2.58,3.95-5.43,3.95Zm-2.27-6.98h4.38c0-1.25-.98-1.96-2.15-1.96s-2.03.7-2.23,1.96Z"/>
    <path class="cls-4" d="m186.39,552.08h-2.17v5.16h-3.5v-14.38h5.67c3.52,0,5.28,1.99,5.28,4.63,0,2.38-1.62,4.59-5.28,4.59Zm-.27-2.79c1.39,0,1.99-.7,1.99-1.8s-.59-1.8-1.99-1.8h-1.9v3.6h1.9Z"/>
    <path class="cls-4" d="m198.37,557.41c-3.36,0-5.77-2.25-5.77-5.88s2.38-5.88,5.77-5.88,5.69,2.21,5.69,5.69c0,.33-.02.68-.06,1.02h-7.92c.12,1.49,1.04,2.19,2.17,2.19.98,0,1.54-.49,1.82-1.11h3.73c-.55,2.23-2.58,3.95-5.43,3.95Zm-2.27-6.98h4.38c0-1.25-.98-1.97-2.15-1.97s-2.03.7-2.23,1.97Z"/>
    <path class="cls-4" d="m210.89,557.41c-3.36,0-5.9-2.25-5.9-5.88s2.6-5.88,5.94-5.88,5.94,2.25,5.94,5.88-2.62,5.88-5.98,5.88Zm0-3.03c1.25,0,2.42-.92,2.42-2.85s-1.15-2.85-2.38-2.85-2.38.9-2.38,2.85,1.06,2.85,2.33,2.85Z"/>
    <path class="cls-4" d="m225.55,545.65c2.81,0,5.04,2.25,5.04,5.86s-2.23,5.9-5.04,5.9c-1.68,0-2.89-.8-3.52-1.76v7.04h-3.5v-16.87h3.5v1.62c.63-1,1.84-1.78,3.52-1.78Zm-1.04,3.05c-1.31,0-2.5,1-2.5,2.83s1.19,2.83,2.5,2.83,2.52-1.02,2.52-2.85-1.19-2.81-2.52-2.81Z"/>
    <path class="cls-4" d="m232.22,542.09h3.5v15.15h-3.5v-15.15Z"/>
    <path class="cls-4" d="m243.13,557.41c-3.36,0-5.77-2.25-5.77-5.88s2.38-5.88,5.77-5.88,5.69,2.21,5.69,5.69c0,.33-.02.68-.06,1.02h-7.92c.12,1.49,1.04,2.19,2.17,2.19.98,0,1.54-.49,1.82-1.11h3.73c-.55,2.23-2.58,3.95-5.43,3.95Zm-2.27-6.98h4.38c0-1.25-.98-1.97-2.15-1.97s-2.03.7-2.23,1.97Z"/>
    <path class="cls-4" d="m259.24,557.41c-3.05,0-5.1-1.7-5.26-3.91h3.46c.08.8.8,1.33,1.76,1.33.9,0,1.37-.41,1.37-.92,0-1.84-6.23-.51-6.23-4.71,0-1.95,1.66-3.54,4.65-3.54s4.59,1.64,4.81,3.89h-3.24c-.1-.78-.7-1.29-1.68-1.29-.82,0-1.27.33-1.27.88,0,1.82,6.18.53,6.25,4.79,0,1.99-1.76,3.48-4.63,3.48Z"/>
    <path class="cls-4" d="m271.01,557.41c-3.36,0-5.9-2.25-5.9-5.88s2.6-5.88,5.94-5.88,5.94,2.25,5.94,5.88-2.62,5.88-5.98,5.88Zm0-3.03c1.25,0,2.42-.92,2.42-2.85s-1.15-2.85-2.38-2.85-2.38.9-2.38,2.85,1.06,2.85,2.33,2.85Z"/>
    <path class="cls-4" d="m278.99,548.72h-1.27v-2.91h1.27v-.33c0-2.99,1.84-4.46,5.32-4.28v2.97c-1.35-.08-1.82.33-1.82,1.54v.1h1.88v2.91h-1.88v8.52h-3.5v-8.52Z"/>
    <path class="cls-4" d="m286.36,548.72h-1.39v-2.91h1.39v-2.79h3.5v2.79h2.29v2.91h-2.29v4.59c0,.68.29.96,1.06.96h1.25v2.97h-1.78c-2.38,0-4.03-1-4.03-3.97v-4.54Z"/>
  </g>
  <g>
    <path class="cls-4" d="m536.48,317.54c3.42,0,6,1.92,6.82,5.04h-3.85c-.59-1.23-1.68-1.84-3.01-1.84-2.15,0-3.62,1.6-3.62,4.14s1.47,4.14,3.62,4.14c1.33,0,2.42-.62,3.01-1.84h3.85c-.82,3.11-3.4,5.02-6.82,5.02-4.24,0-7.23-3.01-7.23-7.31s2.99-7.33,7.23-7.33Z"/>
    <path class="cls-4" d="m548.74,332.08h-3.5v-11.43h3.5v1.9c.8-1.21,2.05-2.03,3.58-2.03v3.71h-.96c-1.66,0-2.62.57-2.62,2.54v5.3Z"/>
    <path class="cls-4" d="m558.87,332.24c-3.36,0-5.77-2.25-5.77-5.88s2.38-5.88,5.77-5.88,5.69,2.21,5.69,5.69c0,.33-.02.68-.06,1.02h-7.92c.12,1.5,1.04,2.19,2.17,2.19.98,0,1.54-.49,1.82-1.11h3.73c-.55,2.23-2.58,3.95-5.43,3.95Zm-2.27-6.98h4.38c0-1.25-.98-1.96-2.15-1.96s-2.03.7-2.23,1.96Z"/>
    <path class="cls-4" d="m570.54,320.48c1.7,0,2.91.78,3.52,1.78v-1.62h3.5v11.43h-3.5v-1.62c-.63,1-1.84,1.78-3.54,1.78-2.79,0-5.02-2.29-5.02-5.9s2.23-5.86,5.04-5.86Zm1.02,3.05c-1.31,0-2.5.98-2.5,2.81s1.19,2.85,2.5,2.85,2.5-1,2.5-2.83-1.17-2.83-2.5-2.83Z"/>
    <path class="cls-4" d="m580.44,323.56h-1.39v-2.91h1.39v-2.79h3.5v2.79h2.29v2.91h-2.29v4.59c0,.68.29.96,1.06.96h1.25v2.97h-1.78c-2.38,0-4.03-1-4.03-3.97v-4.55Z"/>
    <path class="cls-4" d="m587.67,317.58c0-1.07.84-1.9,2.09-1.9s2.07.84,2.07,1.9-.84,1.88-2.07,1.88-2.09-.84-2.09-1.88Zm.33,3.07h3.5v11.43h-3.5v-11.43Z"/>
    <path class="cls-4" d="m601.71,325.87c0-1.56-.86-2.42-2.19-2.42s-2.19.86-2.19,2.42v6.2h-3.5v-11.43h3.5v1.52c.7-.96,1.93-1.64,3.46-1.64,2.64,0,4.4,1.8,4.4,4.87v6.68h-3.48v-6.2Z"/>
    <path class="cls-4" d="m611.76,320.48c1.68,0,2.91.76,3.52,1.78v-1.62h3.5v11.41c0,3.05-1.76,5.65-5.71,5.65-3.4,0-5.61-1.72-5.92-4.44h3.46c.23.86,1.09,1.41,2.29,1.41,1.33,0,2.38-.7,2.38-2.62v-1.62c-.63,1-1.84,1.8-3.52,1.8-2.81,0-5.04-2.29-5.04-5.9s2.23-5.86,5.04-5.86Zm1.02,3.05c-1.31,0-2.5.98-2.5,2.81s1.19,2.85,2.5,2.85,2.5-1,2.5-2.83-1.17-2.83-2.5-2.83Z"/>
    <path class="cls-4" d="m631.89,317.54c3.42,0,6,1.92,6.82,5.04h-3.85c-.59-1.23-1.68-1.84-3.01-1.84-2.15,0-3.62,1.6-3.62,4.14s1.47,4.14,3.62,4.14c1.33,0,2.42-.62,3.01-1.84h3.85c-.82,3.11-3.4,5.02-6.82,5.02-4.24,0-7.23-3.01-7.23-7.31s2.99-7.33,7.23-7.33Z"/>
    <path class="cls-4" d="m640.64,316.92h3.5v5.26c.7-.98,1.95-1.66,3.52-1.66,2.6,0,4.34,1.8,4.34,4.87v6.68h-3.48v-6.2c0-1.56-.86-2.42-2.19-2.42s-2.19.86-2.19,2.42v6.2h-3.5v-15.15Z"/>
    <path class="cls-4" d="m658.58,320.48c1.7,0,2.91.78,3.52,1.78v-1.62h3.5v11.43h-3.5v-1.62c-.63,1-1.84,1.78-3.54,1.78-2.79,0-5.02-2.29-5.02-5.9s2.23-5.86,5.04-5.86Zm1.02,3.05c-1.31,0-2.5.98-2.5,2.81s1.19,2.85,2.5,2.85,2.5-1,2.5-2.83-1.17-2.83-2.5-2.83Z"/>
    <path class="cls-4" d="m671.43,332.08h-3.5v-11.43h3.5v1.9c.8-1.21,2.05-2.03,3.58-2.03v3.71h-.96c-1.66,0-2.62.57-2.62,2.54v5.3Z"/>
    <path class="cls-4" d="m677.04,323.56h-1.39v-2.91h1.39v-2.79h3.5v2.79h2.29v2.91h-2.29v4.59c0,.68.29.96,1.06.96h1.25v2.97h-1.78c-2.38,0-4.03-1-4.03-3.97v-4.55Z"/>
    <path class="cls-4" d="m551.06,369.77c-3.36,0-5.9-2.25-5.9-5.88s2.6-5.88,5.94-5.88,5.94,2.25,5.94,5.88-2.62,5.88-5.98,5.88Zm0-3.03c1.25,0,2.42-.92,2.42-2.85s-1.15-2.85-2.38-2.85-2.38.9-2.38,2.85,1.06,2.85,2.33,2.85Z"/>
    <path class="cls-4" d="m559.04,361.08h-1.27v-2.91h1.27v-.33c0-2.99,1.84-4.46,5.32-4.28v2.97c-1.35-.08-1.82.33-1.82,1.54v.1h1.88v2.91h-1.88v8.52h-3.5v-8.52Z"/>
    <path class="cls-4" d="m578.94,367.06h-5.37l-.86,2.54h-3.67l5.2-14.38h4.05l5.2,14.38h-3.71l-.86-2.54Zm-2.68-7.97l-1.76,5.26h3.54l-1.78-5.26Z"/>
    <path class="cls-4" d="m589.91,358.01c2.87,0,4.89,1.58,5.49,4.3h-3.73c-.29-.8-.86-1.31-1.82-1.31-1.25,0-2.11.98-2.11,2.89s.86,2.89,2.11,2.89c.96,0,1.52-.47,1.82-1.31h3.73c-.59,2.64-2.62,4.3-5.49,4.3-3.36,0-5.73-2.25-5.73-5.88s2.38-5.88,5.73-5.88Z"/>
    <path class="cls-4" d="m602.09,358.01c2.87,0,4.89,1.58,5.49,4.3h-3.73c-.29-.8-.86-1.31-1.82-1.31-1.25,0-2.11.98-2.11,2.89s.86,2.89,2.11,2.89c.96,0,1.52-.47,1.82-1.31h3.73c-.59,2.64-2.62,4.3-5.49,4.3-3.36,0-5.73-2.25-5.73-5.88s2.38-5.88,5.73-5.88Z"/>
    <path class="cls-4" d="m614.43,369.77c-3.36,0-5.9-2.25-5.9-5.88s2.6-5.88,5.94-5.88,5.94,2.25,5.94,5.88-2.62,5.88-5.98,5.88Zm0-3.03c1.25,0,2.42-.92,2.42-2.85s-1.15-2.85-2.38-2.85-2.38.9-2.38,2.85,1.06,2.85,2.33,2.85Z"/>
    <path class="cls-4" d="m633.35,369.6h-3.5v-1.56c-.7.98-1.92,1.68-3.46,1.68-2.64,0-4.42-1.82-4.42-4.88v-6.68h3.48v6.21c0,1.56.88,2.42,2.19,2.42s2.21-.86,2.21-2.42v-6.21h3.5v11.43Z"/>
    <path class="cls-4" d="m643.54,363.4c0-1.56-.86-2.42-2.19-2.42s-2.19.86-2.19,2.42v6.21h-3.5v-11.43h3.5v1.52c.7-.96,1.93-1.64,3.46-1.64,2.64,0,4.4,1.8,4.4,4.87v6.68h-3.48v-6.21Z"/>
    <path class="cls-4" d="m649.8,361.08h-1.39v-2.91h1.39v-2.78h3.5v2.78h2.29v2.91h-2.29v4.59c0,.68.29.96,1.06.96h1.25v2.97h-1.78c-2.38,0-4.03-1-4.03-3.97v-4.55Z"/>
    <path class="cls-4" d="m662.01,369.77c-3.05,0-5.1-1.7-5.26-3.91h3.46c.08.8.8,1.33,1.76,1.33.9,0,1.37-.41,1.37-.92,0-1.84-6.23-.51-6.23-4.71,0-1.95,1.66-3.54,4.65-3.54s4.59,1.64,4.81,3.89h-3.24c-.1-.78-.7-1.29-1.68-1.29-.82,0-1.27.33-1.27.88,0,1.82,6.18.53,6.25,4.79,0,1.99-1.76,3.48-4.63,3.48Z"/>
  </g>
  <g>
    <path class="cls-4" d="m911.07,332.08h-6.7v-14.38h6.47c2.93,0,4.67,1.45,4.67,3.73,0,1.74-1.04,2.87-2.44,3.28,1.68.35,2.76,1.82,2.76,3.46,0,2.38-1.74,3.91-4.77,3.91Zm-.9-11.57h-2.29v3.01h2.29c1.15,0,1.78-.51,1.78-1.49s-.63-1.52-1.78-1.52Zm.25,5.57h-2.54v3.17h2.58c1.17,0,1.84-.53,1.84-1.56s-.72-1.62-1.88-1.62Z"/>
    <path class="cls-4" d="m922,320.48c1.7,0,2.91.78,3.52,1.78v-1.62h3.5v11.43h-3.5v-1.62c-.63,1-1.84,1.78-3.54,1.78-2.78,0-5.02-2.29-5.02-5.9s2.23-5.86,5.04-5.86Zm1.02,3.05c-1.31,0-2.5.98-2.5,2.81s1.19,2.85,2.5,2.85,2.5-1,2.5-2.83-1.17-2.83-2.5-2.83Z"/>
    <path class="cls-4" d="m939.23,325.87c0-1.56-.86-2.42-2.19-2.42s-2.19.86-2.19,2.42v6.2h-3.5v-11.43h3.5v1.52c.7-.96,1.92-1.64,3.46-1.64,2.64,0,4.4,1.8,4.4,4.87v6.68h-3.48v-6.2Z"/>
    <path class="cls-4" d="m944.94,316.92h3.5v8.38l3.46-4.65h4.32l-4.75,5.73,4.79,5.69h-4.34l-3.48-4.79v4.79h-3.5v-15.15Z"/>
    <path class="cls-4" d="m970.47,329.54h-5.36l-.86,2.54h-3.67l5.2-14.38h4.05l5.2,14.38h-3.71l-.86-2.54Zm-2.68-7.97l-1.76,5.26h3.54l-1.78-5.26Z"/>
    <path class="cls-4" d="m981.44,320.48c2.87,0,4.89,1.58,5.49,4.3h-3.73c-.29-.8-.86-1.31-1.82-1.31-1.25,0-2.11.98-2.11,2.89s.86,2.89,2.11,2.89c.96,0,1.52-.47,1.82-1.31h3.73c-.59,2.64-2.62,4.3-5.49,4.3-3.36,0-5.73-2.25-5.73-5.88s2.38-5.88,5.73-5.88Z"/>
    <path class="cls-4" d="m993.62,320.48c2.87,0,4.89,1.58,5.49,4.3h-3.73c-.29-.8-.86-1.31-1.82-1.31-1.25,0-2.11.98-2.11,2.89s.86,2.89,2.11,2.89c.96,0,1.52-.47,1.82-1.31h3.73c-.59,2.64-2.62,4.3-5.49,4.3-3.36,0-5.73-2.25-5.73-5.88s2.38-5.88,5.73-5.88Z"/>
    <path class="cls-4" d="m1005.96,332.24c-3.36,0-5.9-2.25-5.9-5.88s2.6-5.88,5.94-5.88,5.94,2.25,5.94,5.88-2.62,5.88-5.98,5.88Zm0-3.03c1.25,0,2.42-.92,2.42-2.85s-1.15-2.85-2.38-2.85-2.38.9-2.38,2.85,1.06,2.85,2.33,2.85Z"/>
    <path class="cls-4" d="m1024.88,332.08h-3.5v-1.56c-.7.98-1.92,1.68-3.46,1.68-2.64,0-4.42-1.82-4.42-4.87v-6.68h3.48v6.21c0,1.56.88,2.42,2.19,2.42s2.21-.86,2.21-2.42v-6.21h3.5v11.43Z"/>
    <path class="cls-4" d="m1035.07,325.87c0-1.56-.86-2.42-2.19-2.42s-2.19.86-2.19,2.42v6.2h-3.5v-11.43h3.5v1.52c.7-.96,1.92-1.64,3.46-1.64,2.64,0,4.4,1.8,4.4,4.87v6.68h-3.48v-6.2Z"/>
    <path class="cls-4" d="m1041.33,323.56h-1.39v-2.91h1.39v-2.79h3.5v2.79h2.29v2.91h-2.29v4.59c0,.68.29.96,1.06.96h1.25v2.97h-1.78c-2.38,0-4.03-1-4.03-3.97v-4.55Z"/>
    <path class="cls-4" d="m918.5,355.23h3.5v14.38h-3.5v-14.38Z"/>
    <path class="cls-4" d="m932.22,363.4c0-1.56-.86-2.42-2.19-2.42s-2.19.86-2.19,2.42v6.21h-3.5v-11.43h3.5v1.52c.7-.96,1.92-1.64,3.46-1.64,2.64,0,4.4,1.8,4.4,4.87v6.68h-3.48v-6.21Z"/>
    <path class="cls-4" d="m938.48,361.08h-1.39v-2.91h1.39v-2.78h3.5v2.78h2.29v2.91h-2.29v4.59c0,.68.29.96,1.06.96h1.25v2.97h-1.78c-2.38,0-4.03-1-4.03-3.97v-4.55Z"/>
    <path class="cls-4" d="m951.11,369.77c-3.36,0-5.77-2.25-5.77-5.88s2.38-5.88,5.77-5.88,5.69,2.21,5.69,5.69c0,.33-.02.68-.06,1.02h-7.92c.12,1.5,1.04,2.19,2.17,2.19.98,0,1.54-.49,1.82-1.11h3.73c-.55,2.23-2.58,3.95-5.43,3.95Zm-2.27-6.98h4.38c0-1.25-.98-1.96-2.15-1.96s-2.03.7-2.23,1.96Z"/>
    <path class="cls-4" d="m962.78,358.01c1.68,0,2.91.76,3.52,1.78v-1.62h3.5v11.41c0,3.05-1.76,5.65-5.71,5.65-3.4,0-5.61-1.72-5.92-4.44h3.46c.23.86,1.09,1.41,2.29,1.41,1.33,0,2.38-.7,2.38-2.62v-1.62c-.63,1-1.84,1.8-3.52,1.8-2.8,0-5.04-2.29-5.04-5.9s2.23-5.86,5.04-5.86Zm1.02,3.05c-1.31,0-2.5.98-2.5,2.8s1.19,2.85,2.5,2.85,2.5-1,2.5-2.82-1.17-2.83-2.5-2.83Z"/>
    <path class="cls-4" d="m975.63,369.6h-3.5v-11.43h3.5v1.91c.8-1.21,2.05-2.03,3.58-2.03v3.71h-.96c-1.66,0-2.62.57-2.62,2.54v5.3Z"/>
    <path class="cls-4" d="m985.03,358.01c1.7,0,2.91.78,3.52,1.78v-1.62h3.5v11.43h-3.5v-1.62c-.63,1-1.84,1.78-3.54,1.78-2.78,0-5.02-2.29-5.02-5.9s2.23-5.86,5.04-5.86Zm1.02,3.05c-1.31,0-2.5.98-2.5,2.8s1.19,2.85,2.5,2.85,2.5-1,2.5-2.82-1.17-2.83-2.5-2.83Z"/>
    <path class="cls-4" d="m994.94,361.08h-1.39v-2.91h1.39v-2.78h3.5v2.78h2.29v2.91h-2.29v4.59c0,.68.29.96,1.06.96h1.25v2.97h-1.78c-2.38,0-4.03-1-4.03-3.97v-4.55Z"/>
    <path class="cls-4" d="m1002.16,355.11c0-1.06.84-1.9,2.09-1.9s2.07.84,2.07,1.9-.84,1.88-2.07,1.88-2.09-.84-2.09-1.88Zm.33,3.07h3.5v11.43h-3.5v-11.43Z"/>
    <path class="cls-4" d="m1013.52,369.77c-3.36,0-5.9-2.25-5.9-5.88s2.6-5.88,5.94-5.88,5.94,2.25,5.94,5.88-2.62,5.88-5.98,5.88Zm0-3.03c1.25,0,2.42-.92,2.42-2.85s-1.15-2.85-2.38-2.85-2.38.9-2.38,2.85,1.06,2.85,2.33,2.85Z"/>
    <path class="cls-4" d="m1029.04,363.4c0-1.56-.86-2.42-2.19-2.42s-2.19.86-2.19,2.42v6.21h-3.5v-11.43h3.5v1.52c.7-.96,1.92-1.64,3.46-1.64,2.64,0,4.4,1.8,4.4,4.87v6.68h-3.48v-6.21Z"/>
    <path class="cls-4" d="m923.53,430.12c3.42,0,6,1.93,6.82,5.04h-3.85c-.59-1.23-1.68-1.84-3.01-1.84-2.15,0-3.62,1.6-3.62,4.14s1.47,4.14,3.62,4.14c1.33,0,2.42-.62,3.01-1.84h3.85c-.82,3.11-3.4,5.02-6.82,5.02-4.24,0-7.23-3.01-7.23-7.31s2.99-7.33,7.23-7.33Z"/>
    <path class="cls-4" d="m935.79,444.66h-3.5v-11.43h3.5v1.9c.8-1.21,2.05-2.03,3.58-2.03v3.71h-.96c-1.66,0-2.62.57-2.62,2.54v5.3Z"/>
    <path class="cls-4" d="m945.92,444.82c-3.36,0-5.77-2.25-5.77-5.88s2.38-5.88,5.77-5.88,5.69,2.21,5.69,5.69c0,.33-.02.68-.06,1.02h-7.92c.12,1.49,1.04,2.19,2.17,2.19.98,0,1.54-.49,1.82-1.11h3.73c-.55,2.23-2.58,3.95-5.43,3.95Zm-2.27-6.98h4.38c0-1.25-.98-1.97-2.15-1.97s-2.03.7-2.23,1.97Z"/>
    <path class="cls-4" d="m957.59,433.07c1.52,0,2.83.7,3.52,1.74v-5.3h3.5v15.15h-3.5v-1.64c-.63,1.04-1.84,1.8-3.52,1.8-2.8,0-5.04-2.29-5.04-5.9s2.23-5.86,5.04-5.86Zm1.02,3.05c-1.31,0-2.5.98-2.5,2.81s1.19,2.85,2.5,2.85,2.5-1,2.5-2.83-1.17-2.83-2.5-2.83Z"/>
    <path class="cls-4" d="m966.62,430.16c0-1.06.84-1.9,2.09-1.9s2.07.84,2.07,1.9-.84,1.88-2.07,1.88-2.09-.84-2.09-1.88Zm.33,3.07h3.5v11.43h-3.5v-11.43Z"/>
    <path class="cls-4" d="m973.33,436.14h-1.39v-2.91h1.39v-2.79h3.5v2.79h2.29v2.91h-2.29v4.59c0,.68.29.96,1.06.96h1.25v2.97h-1.78c-2.38,0-4.03-1-4.03-3.97v-4.54Z"/>
    <path class="cls-4" d="m991.65,430.12c3.42,0,6,1.93,6.82,5.04h-3.85c-.59-1.23-1.68-1.84-3.01-1.84-2.15,0-3.62,1.6-3.62,4.14s1.47,4.14,3.62,4.14c1.33,0,2.42-.62,3.01-1.84h3.85c-.82,3.11-3.4,5.02-6.82,5.02-4.24,0-7.23-3.01-7.23-7.31s2.99-7.33,7.23-7.33Z"/>
    <path class="cls-4" d="m1004.75,433.07c1.7,0,2.91.78,3.52,1.78v-1.62h3.5v11.43h-3.5v-1.62c-.63,1-1.84,1.78-3.54,1.78-2.78,0-5.02-2.29-5.02-5.9s2.23-5.86,5.04-5.86Zm1.02,3.05c-1.31,0-2.5.98-2.5,2.81s1.19,2.85,2.5,2.85,2.5-1,2.5-2.83-1.17-2.83-2.5-2.83Z"/>
    <path class="cls-4" d="m1017.61,444.66h-3.5v-11.43h3.5v1.9c.8-1.21,2.05-2.03,3.58-2.03v3.71h-.96c-1.66,0-2.62.57-2.62,2.54v5.3Z"/>
    <path class="cls-4" d="m1027,433.07c1.52,0,2.83.7,3.52,1.74v-5.3h3.5v15.15h-3.5v-1.64c-.63,1.04-1.84,1.8-3.52,1.8-2.8,0-5.04-2.29-5.04-5.9s2.23-5.86,5.04-5.86Zm1.02,3.05c-1.31,0-2.5.98-2.5,2.81s1.19,2.85,2.5,2.85,2.5-1,2.5-2.83-1.17-2.83-2.5-2.83Z"/>
    <path class="cls-4" d="m918.5,467.81h3.5v14.38h-3.5v-14.38Z"/>
    <path class="cls-4" d="m932.22,475.98c0-1.56-.86-2.42-2.19-2.42s-2.19.86-2.19,2.42v6.21h-3.5v-11.43h3.5v1.52c.7-.96,1.92-1.64,3.46-1.64,2.64,0,4.4,1.8,4.4,4.87v6.68h-3.48v-6.21Z"/>
    <path class="cls-4" d="m938.48,473.67h-1.39v-2.91h1.39v-2.78h3.5v2.78h2.29v2.91h-2.29v4.59c0,.68.29.96,1.06.96h1.25v2.97h-1.78c-2.38,0-4.03-1-4.03-3.97v-4.55Z"/>
    <path class="cls-4" d="m951.11,482.35c-3.36,0-5.77-2.25-5.77-5.88s2.38-5.88,5.77-5.88,5.69,2.21,5.69,5.69c0,.33-.02.68-.06,1.02h-7.92c.12,1.5,1.04,2.19,2.17,2.19.98,0,1.54-.49,1.82-1.11h3.73c-.55,2.23-2.58,3.95-5.43,3.95Zm-2.27-6.98h4.38c0-1.25-.98-1.96-2.15-1.96s-2.03.7-2.23,1.96Z"/>
    <path class="cls-4" d="m962.78,470.6c1.68,0,2.91.76,3.52,1.78v-1.62h3.5v11.41c0,3.05-1.76,5.65-5.71,5.65-3.4,0-5.61-1.72-5.92-4.44h3.46c.23.86,1.09,1.41,2.29,1.41,1.33,0,2.38-.7,2.38-2.62v-1.62c-.63,1-1.84,1.8-3.52,1.8-2.8,0-5.04-2.29-5.04-5.9s2.23-5.86,5.04-5.86Zm1.02,3.05c-1.31,0-2.5.98-2.5,2.8s1.19,2.85,2.5,2.85,2.5-1,2.5-2.82-1.17-2.83-2.5-2.83Z"/>
    <path class="cls-4" d="m975.63,482.19h-3.5v-11.43h3.5v1.91c.8-1.21,2.05-2.03,3.58-2.03v3.71h-.96c-1.66,0-2.62.57-2.62,2.54v5.3Z"/>
    <path class="cls-4" d="m985.03,470.6c1.7,0,2.91.78,3.52,1.78v-1.62h3.5v11.43h-3.5v-1.62c-.63,1-1.84,1.78-3.54,1.78-2.78,0-5.02-2.29-5.02-5.9s2.23-5.86,5.04-5.86Zm1.02,3.05c-1.31,0-2.5.98-2.5,2.8s1.19,2.85,2.5,2.85,2.5-1,2.5-2.82-1.17-2.83-2.5-2.83Z"/>
    <path class="cls-4" d="m994.94,473.67h-1.39v-2.91h1.39v-2.78h3.5v2.78h2.29v2.91h-2.29v4.59c0,.68.29.96,1.06.96h1.25v2.97h-1.78c-2.38,0-4.03-1-4.03-3.97v-4.55Z"/>
    <path class="cls-4" d="m1002.16,467.69c0-1.06.84-1.9,2.09-1.9s2.07.84,2.07,1.9-.84,1.88-2.07,1.88-2.09-.84-2.09-1.88Zm.33,3.07h3.5v11.43h-3.5v-11.43Z"/>
    <path class="cls-4" d="m1013.52,482.35c-3.36,0-5.9-2.25-5.9-5.88s2.6-5.88,5.94-5.88,5.94,2.25,5.94,5.88-2.62,5.88-5.98,5.88Zm0-3.03c1.25,0,2.42-.92,2.42-2.85s-1.15-2.85-2.38-2.85-2.38.9-2.38,2.85,1.06,2.85,2.33,2.85Z"/>
    <path class="cls-4" d="m1029.04,475.98c0-1.56-.86-2.42-2.19-2.42s-2.19.86-2.19,2.42v6.21h-3.5v-11.43h3.5v1.52c.7-.96,1.92-1.64,3.46-1.64,2.64,0,4.4,1.8,4.4,4.87v6.68h-3.48v-6.21Z"/>
  </g>
  <g>
    <path class="cls-4" d="m1213.54,322.25h-3.87c-.53-.96-1.51-1.47-2.83-1.47-2.25,0-3.75,1.6-3.75,4.1,0,2.66,1.51,4.22,4.03,4.22,1.74,0,2.95-.92,3.48-2.54h-4.44v-2.58h7.62v3.26c-.74,2.48-3.13,4.96-6.92,4.96-4.3,0-7.33-3.01-7.33-7.31s3.01-7.33,7.31-7.33c3.44,0,5.94,1.76,6.7,4.71Z"/>
    <path class="cls-4" d="m1220.6,332.24c-3.36,0-5.77-2.25-5.77-5.88s2.38-5.88,5.77-5.88,5.69,2.21,5.69,5.69c0,.33-.02.68-.06,1.02h-7.92c.12,1.5,1.04,2.19,2.17,2.19.98,0,1.54-.49,1.82-1.11h3.73c-.55,2.23-2.58,3.95-5.43,3.95Zm-2.27-6.98h4.38c0-1.25-.98-1.96-2.15-1.96s-2.03.7-2.23,1.96Z"/>
    <path class="cls-4" d="m1235.81,325.87c0-1.56-.86-2.42-2.19-2.42s-2.19.86-2.19,2.42v6.2h-3.5v-11.43h3.5v1.52c.7-.96,1.92-1.64,3.46-1.64,2.64,0,4.4,1.8,4.4,4.87v6.68h-3.48v-6.2Z"/>
    <path class="cls-4" d="m1246.6,332.24c-3.36,0-5.77-2.25-5.77-5.88s2.38-5.88,5.77-5.88,5.69,2.21,5.69,5.69c0,.33-.02.68-.06,1.02h-7.92c.12,1.5,1.04,2.19,2.17,2.19.98,0,1.54-.49,1.82-1.11h3.73c-.55,2.23-2.58,3.95-5.43,3.95Zm-2.27-6.98h4.38c0-1.25-.98-1.96-2.15-1.96s-2.03.7-2.23,1.96Z"/>
    <path class="cls-4" d="m1257.43,332.08h-3.5v-11.43h3.5v1.9c.8-1.21,2.05-2.03,3.58-2.03v3.71h-.96c-1.66,0-2.62.57-2.62,2.54v5.3Z"/>
    <path class="cls-4" d="m1266.82,320.48c1.7,0,2.91.78,3.52,1.78v-1.62h3.5v11.43h-3.5v-1.62c-.63,1-1.84,1.78-3.54,1.78-2.78,0-5.02-2.29-5.02-5.9s2.23-5.86,5.04-5.86Zm1.02,3.05c-1.31,0-2.5.98-2.5,2.81s1.19,2.85,2.5,2.85,2.5-1,2.5-2.83-1.17-2.83-2.5-2.83Z"/>
    <path class="cls-4" d="m1276.17,316.92h3.5v15.15h-3.5v-15.15Z"/>
    <path class="cls-4" d="m1289.64,317.7v11.67h4.59v2.7h-8.09v-14.38h3.5Z"/>
    <path class="cls-4" d="m1300.78,332.24c-3.36,0-5.77-2.25-5.77-5.88s2.38-5.88,5.77-5.88,5.69,2.21,5.69,5.69c0,.33-.02.68-.06,1.02h-7.92c.12,1.5,1.04,2.19,2.17,2.19.98,0,1.54-.49,1.82-1.11h3.73c-.55,2.23-2.58,3.95-5.43,3.95Zm-2.27-6.98h4.38c0-1.25-.98-1.96-2.15-1.96s-2.03.7-2.23,1.96Z"/>
    <path class="cls-4" d="m1312.45,320.48c1.52,0,2.83.7,3.52,1.74v-5.3h3.5v15.15h-3.5v-1.64c-.63,1.04-1.84,1.8-3.52,1.8-2.8,0-5.04-2.29-5.04-5.9s2.23-5.86,5.04-5.86Zm1.02,3.05c-1.31,0-2.5.98-2.5,2.81s1.19,2.85,2.5,2.85,2.5-1,2.5-2.83-1.17-2.83-2.5-2.83Z"/>
    <path class="cls-4" d="m1326.14,320.48c1.68,0,2.91.76,3.52,1.78v-1.62h3.5v11.41c0,3.05-1.76,5.65-5.71,5.65-3.4,0-5.61-1.72-5.92-4.44h3.46c.23.86,1.09,1.41,2.29,1.41,1.33,0,2.38-.7,2.38-2.62v-1.62c-.63,1-1.84,1.8-3.52,1.8-2.8,0-5.04-2.29-5.04-5.9s2.23-5.86,5.04-5.86Zm1.02,3.05c-1.31,0-2.5.98-2.5,2.81s1.19,2.85,2.5,2.85,2.5-1,2.5-2.83-1.17-2.83-2.5-2.83Z"/>
    <path class="cls-4" d="m1340.57,332.24c-3.36,0-5.77-2.25-5.77-5.88s2.38-5.88,5.77-5.88,5.69,2.21,5.69,5.69c0,.33-.02.68-.06,1.02h-7.92c.12,1.5,1.04,2.19,2.17,2.19.98,0,1.54-.49,1.82-1.11h3.73c-.55,2.23-2.58,3.95-5.43,3.95Zm-2.27-6.98h4.38c0-1.25-.98-1.96-2.15-1.96s-2.03.7-2.23,1.96Z"/>
    <path class="cls-4" d="m1351.4,332.08h-3.5v-11.43h3.5v1.9c.8-1.21,2.05-2.03,3.58-2.03v3.71h-.96c-1.66,0-2.62.57-2.62,2.54v5.3Z"/>
    <path class="cls-4" d="m1369.54,329.54h-5.36l-.86,2.54h-3.67l5.2-14.38h4.05l5.2,14.38h-3.71l-.86-2.54Zm-2.68-7.97l-1.76,5.26h3.54l-1.78-5.26Z"/>
    <path class="cls-4" d="m1380.51,320.48c2.87,0,4.89,1.58,5.49,4.3h-3.73c-.29-.8-.86-1.31-1.82-1.31-1.25,0-2.11.98-2.11,2.89s.86,2.89,2.11,2.89c.96,0,1.52-.47,1.82-1.31h3.73c-.59,2.64-2.62,4.3-5.49,4.3-3.36,0-5.73-2.25-5.73-5.88s2.38-5.88,5.73-5.88Z"/>
    <path class="cls-4" d="m1392.69,320.48c2.87,0,4.89,1.58,5.49,4.3h-3.73c-.29-.8-.86-1.31-1.82-1.31-1.25,0-2.11.98-2.11,2.89s.86,2.89,2.11,2.89c.96,0,1.52-.47,1.82-1.31h3.73c-.59,2.64-2.62,4.3-5.49,4.3-3.36,0-5.73-2.25-5.73-5.88s2.38-5.88,5.73-5.88Z"/>
    <path class="cls-4" d="m1405.03,332.24c-3.36,0-5.9-2.25-5.9-5.88s2.6-5.88,5.94-5.88,5.94,2.25,5.94,5.88-2.62,5.88-5.98,5.88Zm0-3.03c1.25,0,2.42-.92,2.42-2.85s-1.15-2.85-2.38-2.85-2.38.9-2.38,2.85,1.06,2.85,2.33,2.85Z"/>
    <path class="cls-4" d="m1423.95,332.08h-3.5v-1.56c-.7.98-1.92,1.68-3.46,1.68-2.64,0-4.42-1.82-4.42-4.87v-6.68h3.48v6.21c0,1.56.88,2.42,2.19,2.42s2.21-.86,2.21-2.42v-6.21h3.5v11.43Z"/>
    <path class="cls-4" d="m1434.14,325.87c0-1.56-.86-2.42-2.19-2.42s-2.19.86-2.19,2.42v6.2h-3.5v-11.43h3.5v1.52c.7-.96,1.92-1.64,3.46-1.64,2.64,0,4.4,1.8,4.4,4.87v6.68h-3.48v-6.2Z"/>
    <path class="cls-4" d="m1440.4,323.56h-1.39v-2.91h1.39v-2.79h3.5v2.79h2.29v2.91h-2.29v4.59c0,.68.29.96,1.06.96h1.25v2.97h-1.78c-2.38,0-4.03-1-4.03-3.97v-4.55Z"/>
    <path class="cls-4" d="m1447.63,317.58c0-1.07.84-1.9,2.09-1.9s2.07.84,2.07,1.9-.84,1.88-2.07,1.88-2.09-.84-2.09-1.88Zm.33,3.07h3.5v11.43h-3.5v-11.43Z"/>
    <path class="cls-4" d="m1461.67,325.87c0-1.56-.86-2.42-2.19-2.42s-2.19.86-2.19,2.42v6.2h-3.5v-11.43h3.5v1.52c.7-.96,1.92-1.64,3.46-1.64,2.64,0,4.4,1.8,4.4,4.87v6.68h-3.48v-6.2Z"/>
    <path class="cls-4" d="m1471.72,320.48c1.68,0,2.91.76,3.52,1.78v-1.62h3.5v11.41c0,3.05-1.76,5.65-5.71,5.65-3.4,0-5.61-1.72-5.92-4.44h3.46c.23.86,1.09,1.41,2.29,1.41,1.33,0,2.38-.7,2.38-2.62v-1.62c-.63,1-1.84,1.8-3.52,1.8-2.8,0-5.04-2.29-5.04-5.9s2.23-5.86,5.04-5.86Zm1.02,3.05c-1.31,0-2.5.98-2.5,2.81s1.19,2.85,2.5,2.85,2.5-1,2.5-2.83-1.17-2.83-2.5-2.83Z"/>
    <path class="cls-4" d="m1251.15,373.64c-2.68-2.58-4.18-6.8-4.18-11.32s1.49-8.95,4.48-11.63h2.89v.27c-3.11,2.95-4.61,7.27-4.61,11.37s1.5,8.15,4.3,11.04v.29h-2.89Z"/>
    <path class="cls-4" d="m1261.29,355.31c3.44,0,5.16,1.99,5.16,4.38,0,1.74-.96,3.5-3.26,4.12l3.42,5.79h-3.32l-3.15-5.57h-1.35v5.57h-2.87v-14.29h5.37Zm-.1,2.38h-2.4v4.2h2.4c1.6,0,2.31-.84,2.31-2.13s-.72-2.07-2.31-2.07Z"/>
    <path class="cls-4" d="m1273.79,369.79c-3.3,0-5.69-2.29-5.69-5.86s2.33-5.86,5.69-5.86,5.59,2.23,5.59,5.61c0,.37-.02.74-.08,1.11h-8.29c.14,1.68,1.29,2.62,2.72,2.62,1.23,0,1.9-.62,2.27-1.37h3.09c-.61,2.09-2.5,3.75-5.3,3.75Zm-2.76-6.92h5.38c-.04-1.49-1.23-2.44-2.7-2.44-1.37,0-2.46.88-2.68,2.44Z"/>
    <path class="cls-4" d="m1286.13,358.07c2.83,0,4.73,1.47,5.34,4.01h-3.09c-.33-.96-1.08-1.58-2.27-1.58-1.6,0-2.66,1.21-2.66,3.42s1.07,3.4,2.66,3.4c1.19,0,1.93-.53,2.27-1.56h3.09c-.61,2.42-2.52,4.01-5.34,4.01-3.28,0-5.61-2.29-5.61-5.86s2.33-5.86,5.61-5.86Z"/>
    <path class="cls-4" d="m1298.42,369.79c-3.28,0-5.75-2.29-5.75-5.86s2.56-5.86,5.84-5.86,5.84,2.27,5.84,5.86-2.62,5.86-5.92,5.86Zm0-2.5c1.52,0,2.97-1.11,2.97-3.36s-1.41-3.36-2.93-3.36-2.89,1.09-2.89,3.36,1.31,3.36,2.85,3.36Z"/>
    <path class="cls-4" d="m1309.1,369.6h-2.87v-11.35h2.87v1.76c.72-1.17,1.91-1.92,3.48-1.92v3.01h-.76c-1.7,0-2.72.65-2.72,2.85v5.65Z"/>
    <path class="cls-4" d="m1318.76,358.07c1.5,0,2.93.7,3.71,1.76v-5.39h2.91v15.15h-2.91v-1.68c-.68,1.04-1.95,1.86-3.73,1.86-2.89,0-5.18-2.36-5.18-5.9s2.29-5.82,5.2-5.82Zm.72,2.52c-1.54,0-2.99,1.15-2.99,3.3s1.45,3.38,2.99,3.38,3.01-1.19,3.01-3.34-1.43-3.34-3.01-3.34Z"/>
    <path class="cls-4" d="m1333.09,360.61h-1.35v-2.36h1.35v-2.8h2.89v2.8h2.54v2.36h-2.54v5.49c0,.76.31,1.09,1.21,1.09h1.33v2.42h-1.8c-2.17,0-3.62-.92-3.62-3.52v-5.47Z"/>
    <path class="cls-4" d="m1345.41,369.79c-3.28,0-5.75-2.29-5.75-5.86s2.56-5.86,5.84-5.86,5.84,2.27,5.84,5.86-2.62,5.86-5.92,5.86Zm0-2.5c1.52,0,2.97-1.11,2.97-3.36s-1.41-3.36-2.93-3.36-2.89,1.09-2.89,3.36,1.31,3.36,2.85,3.36Z"/>
    <path class="cls-4" d="m1363.26,355.31c3.44,0,5.16,1.99,5.16,4.38,0,1.74-.96,3.5-3.26,4.12l3.42,5.79h-3.32l-3.15-5.57h-1.35v5.57h-2.87v-14.29h5.37Zm-.1,2.38h-2.4v4.2h2.4c1.6,0,2.31-.84,2.31-2.13s-.72-2.07-2.31-2.07Z"/>
    <path class="cls-4" d="m1375.77,369.79c-3.3,0-5.69-2.29-5.69-5.86s2.33-5.86,5.69-5.86,5.59,2.23,5.59,5.61c0,.37-.02.74-.08,1.11h-8.29c.14,1.68,1.29,2.62,2.72,2.62,1.23,0,1.9-.62,2.27-1.37h3.09c-.61,2.09-2.5,3.75-5.3,3.75Zm-2.76-6.92h5.38c-.04-1.49-1.23-2.44-2.7-2.44-1.37,0-2.46.88-2.68,2.44Z"/>
    <path class="cls-4" d="m1389.85,358.07c2.91,0,5.18,2.27,5.18,5.82s-2.27,5.9-5.18,5.9c-1.78,0-3.05-.88-3.75-1.8v7.03h-2.87v-16.75h2.87v1.64c.68-.96,1.99-1.82,3.75-1.82Zm-.76,2.52c-1.54,0-2.99,1.19-2.99,3.34s1.45,3.34,2.99,3.34,3.01-1.23,3.01-3.38-1.45-3.3-3.01-3.3Z"/>
    <path class="cls-4" d="m1401.95,369.79c-3.28,0-5.75-2.29-5.75-5.86s2.56-5.86,5.84-5.86,5.84,2.27,5.84,5.86-2.62,5.86-5.92,5.86Zm0-2.5c1.52,0,2.97-1.11,2.97-3.36s-1.41-3.36-2.93-3.36-2.89,1.09-2.89,3.36,1.31,3.36,2.85,3.36Z"/>
    <path class="cls-4" d="m1412.63,369.6h-2.87v-11.35h2.87v1.76c.72-1.17,1.91-1.92,3.48-1.92v3.01h-.76c-1.7,0-2.72.65-2.72,2.85v5.65Z"/>
    <path class="cls-4" d="m1418.28,360.61h-1.35v-2.36h1.35v-2.8h2.89v2.8h2.54v2.36h-2.54v5.49c0,.76.31,1.09,1.21,1.09h1.33v2.42h-1.8c-2.17,0-3.62-.92-3.62-3.52v-5.47Z"/>
    <path class="cls-4" d="m1424.83,373.64v-.29c2.81-2.89,4.3-6.94,4.3-11.04s-1.49-8.42-4.61-11.37v-.27h2.89c2.99,2.68,4.48,7.09,4.48,11.63s-1.5,8.74-4.18,11.32h-2.89Z"/>
    <path class="cls-4" d="m1255.88,404.59h-5.36l-.86,2.54h-3.67l5.2-14.38h4.05l5.2,14.38h-3.71l-.86-2.54Zm-2.68-7.96l-1.76,5.26h3.54l-1.78-5.26Z"/>
    <path class="cls-4" d="m1266.85,395.54c2.87,0,4.89,1.58,5.49,4.3h-3.73c-.29-.8-.86-1.31-1.82-1.31-1.25,0-2.11.98-2.11,2.89s.86,2.89,2.11,2.89c.96,0,1.52-.47,1.82-1.31h3.73c-.59,2.64-2.62,4.3-5.49,4.3-3.36,0-5.73-2.25-5.73-5.88s2.38-5.88,5.73-5.88Z"/>
    <path class="cls-4" d="m1279.03,395.54c2.87,0,4.89,1.58,5.49,4.3h-3.73c-.29-.8-.86-1.31-1.82-1.31-1.25,0-2.11.98-2.11,2.89s.86,2.89,2.11,2.89c.96,0,1.52-.47,1.82-1.31h3.73c-.59,2.64-2.62,4.3-5.49,4.3-3.36,0-5.73-2.25-5.73-5.88s2.38-5.88,5.73-5.88Z"/>
    <path class="cls-4" d="m1291.38,407.3c-3.36,0-5.9-2.25-5.9-5.88s2.6-5.88,5.94-5.88,5.94,2.25,5.94,5.88-2.62,5.88-5.98,5.88Zm0-3.03c1.25,0,2.42-.92,2.42-2.85s-1.15-2.85-2.38-2.85-2.38.9-2.38,2.85,1.06,2.85,2.33,2.85Z"/>
    <path class="cls-4" d="m1310.29,407.13h-3.5v-1.56c-.7.98-1.92,1.68-3.46,1.68-2.64,0-4.42-1.82-4.42-4.87v-6.68h3.48v6.21c0,1.56.88,2.42,2.19,2.42s2.21-.86,2.21-2.42v-6.21h3.5v11.43Z"/>
    <path class="cls-4" d="m1320.48,400.93c0-1.55-.86-2.42-2.19-2.42s-2.19.86-2.19,2.42v6.21h-3.5v-11.43h3.5v1.52c.7-.96,1.92-1.64,3.46-1.64,2.64,0,4.4,1.8,4.4,4.87v6.68h-3.48v-6.21Z"/>
    <path class="cls-4" d="m1326.74,398.61h-1.39v-2.91h1.39v-2.79h3.5v2.79h2.29v2.91h-2.29v4.59c0,.68.29.96,1.06.96h1.25v2.97h-1.78c-2.38,0-4.03-1-4.03-3.97v-4.54Z"/>
    <path class="cls-4" d="m1338.95,407.3c-3.05,0-5.1-1.7-5.26-3.91h3.46c.08.8.8,1.33,1.76,1.33.9,0,1.37-.41,1.37-.92,0-1.84-6.23-.51-6.23-4.71,0-1.95,1.66-3.54,4.65-3.54s4.59,1.64,4.81,3.89h-3.24c-.1-.78-.7-1.29-1.68-1.29-.82,0-1.27.33-1.27.88,0,1.82,6.18.53,6.25,4.79,0,1.99-1.76,3.48-4.63,3.48Z"/>
    <path class="cls-4" d="m1355.32,401.97h-2.17v5.16h-3.5v-14.38h5.67c3.52,0,5.28,1.99,5.28,4.63,0,2.38-1.62,4.59-5.28,4.59Zm-.27-2.79c1.39,0,1.99-.7,1.99-1.8s-.59-1.8-1.99-1.8h-1.9v3.6h1.9Z"/>
    <path class="cls-4" d="m1366.56,395.54c1.7,0,2.91.78,3.52,1.78v-1.62h3.5v11.43h-3.5v-1.62c-.63,1-1.84,1.78-3.54,1.78-2.78,0-5.02-2.29-5.02-5.9s2.23-5.86,5.04-5.86Zm1.02,3.05c-1.31,0-2.5.98-2.5,2.81s1.19,2.85,2.5,2.85,2.5-1,2.5-2.83-1.17-2.83-2.5-2.83Z"/>
    <path class="cls-4" d="m1383.8,395.71h3.79l-7.17,16.85h-3.77l2.62-5.82-4.65-11.04h3.91l2.64,7.15,2.62-7.15Z"/>
    <path class="cls-4" d="m1392.98,395.54c1.7,0,2.91.78,3.52,1.78v-1.62h3.5v11.43h-3.5v-1.62c-.63,1-1.84,1.78-3.54,1.78-2.78,0-5.02-2.29-5.02-5.9s2.23-5.86,5.04-5.86Zm1.02,3.05c-1.31,0-2.5.98-2.5,2.81s1.19,2.85,2.5,2.85,2.5-1,2.5-2.83-1.17-2.83-2.5-2.83Z"/>
    <path class="cls-4" d="m1409.36,395.54c2.83,0,5.04,2.25,5.04,5.86s-2.23,5.9-5.04,5.9c-1.68,0-2.89-.76-3.52-1.76v1.6h-3.5v-15.15h3.5v5.34c.63-1.02,1.88-1.78,3.52-1.78Zm-1.04,3.05c-1.31,0-2.5,1-2.5,2.83s1.19,2.83,2.5,2.83,2.52-1.02,2.52-2.85-1.19-2.81-2.52-2.81Z"/>
    <path class="cls-4" d="m1416.03,391.98h3.5v15.15h-3.5v-15.15Z"/>
    <path class="cls-4" d="m1426.94,407.3c-3.36,0-5.77-2.25-5.77-5.88s2.38-5.88,5.77-5.88,5.69,2.21,5.69,5.69c0,.33-.02.68-.06,1.02h-7.92c.12,1.49,1.04,2.19,2.17,2.19.98,0,1.54-.49,1.82-1.11h3.73c-.55,2.23-2.58,3.95-5.43,3.95Zm-2.27-6.98h4.38c0-1.25-.98-1.97-2.15-1.97s-2.03.7-2.23,1.97Z"/>
    <path class="cls-4" d="m1262.42,448.69c-2.68-2.58-4.18-6.8-4.18-11.32s1.49-8.95,4.48-11.63h2.89v.27c-3.11,2.95-4.61,7.27-4.61,11.37s1.5,8.15,4.3,11.04v.29h-2.89Z"/>
    <path class="cls-4" d="m1272.45,439.17h-2.4v5.49h-2.87v-14.29h5.26c3.44,0,5.16,1.95,5.16,4.42,0,2.17-1.47,4.38-5.16,4.38Zm-.12-2.31c1.62,0,2.33-.8,2.33-2.07s-.72-2.09-2.33-2.09h-2.27v4.16h2.27Z"/>
    <path class="cls-4" d="m1282.3,444.66h-2.87v-11.34h2.87v1.76c.72-1.17,1.91-1.93,3.48-1.93v3.01h-.76c-1.7,0-2.72.66-2.72,2.85v5.65Z"/>
    <path class="cls-4" d="m1292.53,444.84c-3.28,0-5.75-2.29-5.75-5.86s2.56-5.86,5.84-5.86,5.84,2.27,5.84,5.86-2.62,5.86-5.92,5.86Zm0-2.5c1.52,0,2.97-1.11,2.97-3.36s-1.41-3.36-2.93-3.36-2.89,1.08-2.89,3.36,1.31,3.36,2.85,3.36Z"/>
    <path class="cls-4" d="m1305.22,433.13c2.83,0,4.73,1.47,5.34,4.01h-3.09c-.33-.96-1.08-1.58-2.27-1.58-1.6,0-2.66,1.21-2.66,3.42s1.07,3.4,2.66,3.4c1.19,0,1.93-.53,2.27-1.55h3.09c-.61,2.42-2.52,4.01-5.34,4.01-3.28,0-5.61-2.29-5.61-5.86s2.33-5.86,5.61-5.86Z"/>
    <path class="cls-4" d="m1323.18,444.66h-2.89v-1.43c-.72.96-1.97,1.58-3.38,1.58-2.64,0-4.55-1.72-4.55-4.83v-6.65h2.87v6.25c0,1.82,1,2.8,2.52,2.8s2.54-.98,2.54-2.8v-6.25h2.89v11.34Z"/>
    <path class="cls-4" d="m1328.66,444.66h-2.87v-11.34h2.87v1.76c.72-1.17,1.91-1.93,3.48-1.93v3.01h-.76c-1.7,0-2.72.66-2.72,2.85v5.65Z"/>
    <path class="cls-4" d="m1338.81,444.84c-3.3,0-5.69-2.29-5.69-5.86s2.33-5.86,5.69-5.86,5.59,2.23,5.59,5.61c0,.37-.02.74-.08,1.11h-8.29c.14,1.68,1.29,2.62,2.72,2.62,1.23,0,1.9-.61,2.27-1.37h3.09c-.61,2.09-2.5,3.75-5.3,3.75Zm-2.76-6.92h5.38c-.04-1.49-1.23-2.44-2.7-2.44-1.37,0-2.46.88-2.68,2.44Z"/>
    <path class="cls-4" d="m1351.4,435.67h-1.35v-2.36h1.35v-2.8h2.89v2.8h2.54v2.36h-2.54v5.49c0,.76.31,1.09,1.21,1.09h1.33v2.42h-1.8c-2.17,0-3.62-.92-3.62-3.52v-5.47Z"/>
    <path class="cls-4" d="m1363.72,444.84c-3.28,0-5.75-2.29-5.75-5.86s2.56-5.86,5.84-5.86,5.84,2.27,5.84,5.86-2.62,5.86-5.92,5.86Zm0-2.5c1.52,0,2.97-1.11,2.97-3.36s-1.41-3.36-2.93-3.36-2.89,1.08-2.89,3.36,1.31,3.36,2.85,3.36Z"/>
    <path class="cls-4" d="m1381.47,439.17h-2.4v5.49h-2.87v-14.29h5.26c3.44,0,5.16,1.95,5.16,4.42,0,2.17-1.47,4.38-5.16,4.38Zm-.12-2.31c1.62,0,2.33-.8,2.33-2.07s-.72-2.09-2.33-2.09h-2.27v4.16h2.27Z"/>
    <path class="cls-4" d="m1392.89,433.13c1.82,0,3.07.86,3.75,1.8v-1.62h2.89v11.34h-2.89v-1.66c-.68.98-1.97,1.84-3.77,1.84-2.87,0-5.16-2.36-5.16-5.9s2.29-5.81,5.18-5.81Zm.74,2.52c-1.54,0-2.99,1.15-2.99,3.3s1.45,3.38,2.99,3.38,3.01-1.19,3.01-3.34-1.43-3.34-3.01-3.34Z"/>
    <path class="cls-4" d="m1409.92,433.31h3.05l-7.02,16.71h-3.05l2.46-5.65-4.55-11.06h3.21l2.93,7.92,2.97-7.92Z"/>
    <path class="cls-4" d="m1413.56,448.69v-.29c2.81-2.89,4.3-6.94,4.3-11.04s-1.49-8.42-4.61-11.37v-.27h2.89c2.99,2.68,4.48,7.08,4.48,11.63s-1.5,8.74-4.18,11.32h-2.89Z"/>
    <path class="cls-4" d="m1241.09,479.65h-5.36l-.86,2.54h-3.67l5.2-14.38h4.05l5.2,14.38h-3.71l-.86-2.54Zm-2.68-7.97l-1.76,5.26h3.54l-1.78-5.26Z"/>
    <path class="cls-4" d="m1252.06,470.6c2.87,0,4.89,1.58,5.49,4.3h-3.73c-.29-.8-.86-1.31-1.82-1.31-1.25,0-2.11.98-2.11,2.89s.86,2.89,2.11,2.89c.96,0,1.52-.47,1.82-1.31h3.73c-.59,2.64-2.62,4.3-5.49,4.3-3.36,0-5.73-2.25-5.73-5.88s2.38-5.88,5.73-5.88Z"/>
    <path class="cls-4" d="m1264.24,470.6c2.87,0,4.89,1.58,5.49,4.3h-3.73c-.29-.8-.86-1.31-1.82-1.31-1.25,0-2.11.98-2.11,2.89s.86,2.89,2.11,2.89c.96,0,1.52-.47,1.82-1.31h3.73c-.59,2.64-2.62,4.3-5.49,4.3-3.36,0-5.73-2.25-5.73-5.88s2.38-5.88,5.73-5.88Z"/>
    <path class="cls-4" d="m1276.58,482.35c-3.36,0-5.9-2.25-5.9-5.88s2.6-5.88,5.94-5.88,5.94,2.25,5.94,5.88-2.62,5.88-5.98,5.88Zm0-3.03c1.25,0,2.42-.92,2.42-2.85s-1.15-2.85-2.38-2.85-2.38.9-2.38,2.85,1.06,2.85,2.33,2.85Z"/>
    <path class="cls-4" d="m1295.5,482.19h-3.5v-1.56c-.7.98-1.92,1.68-3.46,1.68-2.64,0-4.42-1.82-4.42-4.88v-6.68h3.48v6.21c0,1.56.88,2.42,2.19,2.42s2.21-.86,2.21-2.42v-6.21h3.5v11.43Z"/>
    <path class="cls-4" d="m1305.69,475.98c0-1.56-.86-2.42-2.19-2.42s-2.19.86-2.19,2.42v6.21h-3.5v-11.43h3.5v1.52c.7-.96,1.92-1.64,3.46-1.64,2.64,0,4.4,1.8,4.4,4.87v6.68h-3.48v-6.21Z"/>
    <path class="cls-4" d="m1311.95,473.67h-1.39v-2.91h1.39v-2.78h3.5v2.78h2.29v2.91h-2.29v4.59c0,.68.29.96,1.06.96h1.25v2.97h-1.78c-2.38,0-4.03-1-4.03-3.97v-4.55Z"/>
    <path class="cls-4" d="m1324.16,482.35c-3.05,0-5.1-1.7-5.26-3.91h3.46c.08.8.8,1.33,1.76,1.33.9,0,1.37-.41,1.37-.92,0-1.84-6.23-.51-6.23-4.71,0-1.95,1.66-3.54,4.65-3.54s4.59,1.64,4.81,3.89h-3.24c-.1-.78-.7-1.29-1.68-1.29-.82,0-1.27.33-1.27.88,0,1.82,6.18.53,6.25,4.79,0,1.99-1.76,3.48-4.63,3.48Z"/>
    <path class="cls-4" d="m1340.74,467.81c3.52,0,5.28,2.03,5.28,4.53,0,1.8-.98,3.5-3.19,4.16l3.32,5.69h-3.95l-2.99-5.43h-.84v5.43h-3.5v-14.38h5.88Zm-.21,2.91h-2.17v3.56h2.17c1.31,0,1.92-.68,1.92-1.8,0-1.06-.61-1.76-1.92-1.76Z"/>
    <path class="cls-4" d="m1353.08,482.35c-3.36,0-5.77-2.25-5.77-5.88s2.38-5.88,5.77-5.88,5.69,2.21,5.69,5.69c0,.33-.02.68-.06,1.02h-7.92c.12,1.5,1.04,2.19,2.17,2.19.98,0,1.54-.49,1.82-1.11h3.73c-.55,2.23-2.58,3.95-5.43,3.95Zm-2.27-6.98h4.38c0-1.25-.98-1.96-2.15-1.96s-2.03.7-2.23,1.96Z"/>
    <path class="cls-4" d="m1365.44,470.6c2.87,0,4.89,1.58,5.49,4.3h-3.73c-.29-.8-.86-1.31-1.82-1.31-1.25,0-2.11.98-2.11,2.89s.86,2.89,2.11,2.89c.96,0,1.52-.47,1.82-1.31h3.73c-.59,2.64-2.62,4.3-5.49,4.3-3.36,0-5.73-2.25-5.73-5.88s2.38-5.88,5.73-5.88Z"/>
    <path class="cls-4" d="m1377.66,482.35c-3.36,0-5.77-2.25-5.77-5.88s2.38-5.88,5.77-5.88,5.69,2.21,5.69,5.69c0,.33-.02.68-.06,1.02h-7.92c.12,1.5,1.04,2.19,2.17,2.19.98,0,1.54-.49,1.82-1.11h3.73c-.55,2.23-2.58,3.95-5.43,3.95Zm-2.27-6.98h4.38c0-1.25-.98-1.96-2.15-1.96s-2.03.7-2.23,1.96Z"/>
    <path class="cls-4" d="m1384.66,467.69c0-1.06.84-1.9,2.09-1.9s2.07.84,2.07,1.9-.84,1.88-2.07,1.88-2.09-.84-2.09-1.88Zm.33,3.07h3.5v11.43h-3.5v-11.43Z"/>
    <path class="cls-4" d="m1393.49,470.76l2.48,8.15,2.48-8.15h3.73l-4.05,11.43h-4.32l-4.05-11.43h3.75Z"/>
    <path class="cls-4" d="m1407.77,470.6c1.7,0,2.91.78,3.52,1.78v-1.62h3.5v11.43h-3.5v-1.62c-.63,1-1.84,1.78-3.54,1.78-2.78,0-5.02-2.29-5.02-5.9s2.23-5.86,5.04-5.86Zm1.02,3.05c-1.31,0-2.5.98-2.5,2.8s1.19,2.85,2.5,2.85,2.5-1,2.5-2.82-1.17-2.83-2.5-2.83Z"/>
    <path class="cls-4" d="m1424.15,470.6c2.83,0,5.04,2.25,5.04,5.86s-2.23,5.9-5.04,5.9c-1.68,0-2.89-.76-3.52-1.76v1.6h-3.5v-15.15h3.5v5.35c.63-1.02,1.88-1.78,3.52-1.78Zm-1.04,3.05c-1.31,0-2.5,1-2.5,2.83s1.19,2.82,2.5,2.82,2.52-1.02,2.52-2.85-1.19-2.8-2.52-2.8Z"/>
    <path class="cls-4" d="m1430.82,467.03h3.5v15.15h-3.5v-15.15Z"/>
    <path class="cls-4" d="m1441.73,482.35c-3.36,0-5.77-2.25-5.77-5.88s2.38-5.88,5.77-5.88,5.69,2.21,5.69,5.69c0,.33-.02.68-.06,1.02h-7.92c.12,1.5,1.04,2.19,2.17,2.19.98,0,1.54-.49,1.82-1.11h3.73c-.55,2.23-2.58,3.95-5.43,3.95Zm-2.27-6.98h4.38c0-1.25-.98-1.96-2.15-1.96s-2.03.7-2.23,1.96Z"/>
    <path class="cls-4" d="m1265.24,523.75c-2.68-2.58-4.18-6.8-4.18-11.32s1.49-8.95,4.48-11.63h2.89v.27c-3.11,2.95-4.61,7.27-4.61,11.37s1.5,8.15,4.3,11.04v.29h-2.89Z"/>
    <path class="cls-4" d="m1276.64,519.86c-4.03,0-7.33-3.03-7.33-7.33s3.3-7.31,7.33-7.31,7.31,3.03,7.31,7.31-3.26,7.33-7.31,7.33Zm0-2.56c2.58,0,4.36-1.86,4.36-4.77s-1.78-4.73-4.36-4.73-4.38,1.82-4.38,4.73,1.78,4.77,4.38,4.77Z"/>
    <path class="cls-4" d="m1288.73,519.72h-2.87v-11.35h2.87v1.76c.72-1.17,1.91-1.92,3.48-1.92v3.01h-.76c-1.7,0-2.72.65-2.72,2.85v5.65Z"/>
    <path class="cls-4" d="m1298.4,508.19c1.5,0,2.93.7,3.71,1.76v-5.39h2.91v15.15h-2.91v-1.68c-.68,1.04-1.95,1.86-3.73,1.86-2.89,0-5.18-2.36-5.18-5.9s2.29-5.82,5.2-5.82Zm.72,2.52c-1.54,0-2.99,1.15-2.99,3.3s1.45,3.38,2.99,3.38,3.01-1.19,3.01-3.34-1.43-3.34-3.01-3.34Z"/>
    <path class="cls-4" d="m1312.56,519.9c-3.3,0-5.69-2.29-5.69-5.86s2.33-5.86,5.69-5.86,5.59,2.23,5.59,5.61c0,.37-.02.74-.08,1.11h-8.29c.14,1.68,1.29,2.62,2.72,2.62,1.23,0,1.9-.62,2.27-1.37h3.09c-.61,2.09-2.5,3.75-5.3,3.75Zm-2.76-6.92h5.38c-.04-1.49-1.23-2.44-2.7-2.44-1.37,0-2.46.88-2.68,2.44Z"/>
    <path class="cls-4" d="m1322.9,519.72h-2.87v-11.35h2.87v1.76c.72-1.17,1.91-1.92,3.48-1.92v3.01h-.76c-1.7,0-2.72.65-2.72,2.85v5.65Z"/>
    <path class="cls-4" d="m1333.21,510.72h-1.35v-2.36h1.35v-2.8h2.89v2.8h2.54v2.36h-2.54v5.49c0,.76.31,1.09,1.21,1.09h1.33v2.42h-1.8c-2.17,0-3.62-.92-3.62-3.52v-5.47Z"/>
    <path class="cls-4" d="m1345.54,519.9c-3.28,0-5.75-2.29-5.75-5.86s2.56-5.86,5.84-5.86,5.84,2.27,5.84,5.86-2.62,5.86-5.92,5.86Zm0-2.5c1.52,0,2.97-1.11,2.97-3.36s-1.41-3.36-2.93-3.36-2.89,1.09-2.89,3.36,1.31,3.36,2.85,3.36Z"/>
    <path class="cls-4" d="m1364.57,505.24c3.17,0,5.75,1.7,6.72,4.63h-3.3c-.68-1.37-1.9-2.05-3.44-2.05-2.5,0-4.28,1.82-4.28,4.73s1.78,4.73,4.28,4.73c1.54,0,2.76-.68,3.44-2.07h3.3c-.96,2.95-3.54,4.63-6.72,4.63-4.12,0-7.25-3.01-7.25-7.29s3.13-7.31,7.25-7.31Z"/>
    <path class="cls-4" d="m1377.98,508.19c1.82,0,3.07.86,3.75,1.8v-1.62h2.89v11.35h-2.89v-1.66c-.68.98-1.97,1.84-3.77,1.84-2.87,0-5.16-2.36-5.16-5.9s2.29-5.82,5.18-5.82Zm.74,2.52c-1.54,0-2.99,1.15-2.99,3.3s1.45,3.38,2.99,3.38,3.01-1.19,3.01-3.34-1.43-3.34-3.01-3.34Z"/>
    <path class="cls-4" d="m1391.55,519.9c-2.85,0-4.83-1.66-4.96-3.77h2.89c.1.86.9,1.52,2.05,1.52s1.74-.51,1.74-1.17c0-2.03-6.41-.74-6.41-4.89,0-1.88,1.68-3.4,4.49-3.4s4.4,1.49,4.57,3.75h-2.74c-.08-.88-.78-1.47-1.9-1.47-1.07,0-1.62.43-1.62,1.08,0,2.07,6.29.78,6.37,4.94,0,1.95-1.7,3.42-4.46,3.42Z"/>
    <path class="cls-4" d="m1398.16,504.56h2.87v5.22c.74-.96,2.01-1.58,3.52-1.58,2.56,0,4.42,1.72,4.42,4.85v6.66h-2.87v-6.27c0-1.82-1-2.81-2.52-2.81s-2.56.98-2.56,2.81v6.27h-2.87v-15.15Z"/>
    <path class="cls-4" d="m1410.75,523.75v-.29c2.81-2.89,4.3-6.94,4.3-11.04s-1.49-8.42-4.61-11.37v-.27h2.89c2.99,2.68,4.48,7.09,4.48,11.63s-1.5,8.74-4.18,11.32h-2.89Z"/>
    <path class="cls-4" d="m1197.43,557.24h-6.7v-14.38h6.47c2.93,0,4.67,1.46,4.67,3.73,0,1.74-1.04,2.87-2.44,3.28,1.68.35,2.76,1.82,2.76,3.46,0,2.38-1.74,3.91-4.77,3.91Zm-.9-11.57h-2.29v3.01h2.29c1.15,0,1.78-.51,1.78-1.5s-.63-1.51-1.78-1.51Zm.25,5.57h-2.54v3.17h2.58c1.17,0,1.84-.53,1.84-1.55s-.72-1.62-1.88-1.62Z"/>
    <path class="cls-4" d="m1208.36,545.65c1.7,0,2.91.78,3.52,1.78v-1.62h3.5v11.43h-3.5v-1.62c-.63,1-1.84,1.78-3.54,1.78-2.78,0-5.02-2.29-5.02-5.9s2.23-5.86,5.04-5.86Zm1.02,3.05c-1.31,0-2.5.98-2.5,2.81s1.19,2.85,2.5,2.85,2.5-1,2.5-2.83-1.17-2.83-2.5-2.83Z"/>
    <path class="cls-4" d="m1217.71,542.09h3.5v15.15h-3.5v-15.15Z"/>
    <path class="cls-4" d="m1227.89,545.65c1.7,0,2.91.78,3.52,1.78v-1.62h3.5v11.43h-3.5v-1.62c-.63,1-1.84,1.78-3.54,1.78-2.78,0-5.02-2.29-5.02-5.9s2.23-5.86,5.04-5.86Zm1.02,3.05c-1.31,0-2.5.98-2.5,2.81s1.19,2.85,2.5,2.85,2.5-1,2.5-2.83-1.17-2.83-2.5-2.83Z"/>
    <path class="cls-4" d="m1245.12,551.04c0-1.55-.86-2.42-2.19-2.42s-2.19.86-2.19,2.42v6.21h-3.5v-11.43h3.5v1.52c.7-.96,1.92-1.64,3.46-1.64,2.64,0,4.4,1.8,4.4,4.87v6.68h-3.48v-6.21Z"/>
    <path class="cls-4" d="m1255.87,545.65c2.87,0,4.89,1.58,5.49,4.3h-3.73c-.29-.8-.86-1.31-1.82-1.31-1.25,0-2.11.98-2.11,2.89s.86,2.89,2.11,2.89c.96,0,1.52-.47,1.82-1.31h3.73c-.59,2.64-2.62,4.3-5.49,4.3-3.36,0-5.73-2.25-5.73-5.88s2.38-5.88,5.73-5.88Z"/>
    <path class="cls-4" d="m1268.09,557.41c-3.36,0-5.77-2.25-5.77-5.88s2.38-5.88,5.77-5.88,5.69,2.21,5.69,5.69c0,.33-.02.68-.06,1.02h-7.92c.12,1.49,1.04,2.19,2.17,2.19.98,0,1.54-.49,1.82-1.11h3.73c-.55,2.23-2.58,3.95-5.43,3.95Zm-2.27-6.98h4.38c0-1.25-.98-1.97-2.15-1.97s-2.03.7-2.23,1.97Z"/>
    <path class="cls-4" d="m1284.75,557.39c-3.09,0-5.51-1.54-5.61-4.44h3.73c.1,1.11.8,1.64,1.78,1.64s1.68-.51,1.68-1.35c0-2.66-7.19-1.23-7.15-6.33,0-2.72,2.23-4.24,5.24-4.24s5.24,1.56,5.38,4.3h-3.79c-.06-.92-.72-1.47-1.66-1.49-.84-.02-1.47.41-1.47,1.31,0,2.5,7.11,1.37,7.11,6.18,0,2.42-1.88,4.42-5.24,4.42Z"/>
    <path class="cls-4" d="m1291.94,542.09h3.5v5.26c.7-.98,1.95-1.66,3.52-1.66,2.6,0,4.34,1.8,4.34,4.87v6.68h-3.48v-6.21c0-1.55-.86-2.42-2.19-2.42s-2.19.86-2.19,2.42v6.21h-3.5v-15.15Z"/>
    <path class="cls-4" d="m1310.61,557.41c-3.36,0-5.77-2.25-5.77-5.88s2.38-5.88,5.77-5.88,5.69,2.21,5.69,5.69c0,.33-.02.68-.06,1.02h-7.92c.12,1.49,1.04,2.19,2.17,2.19.98,0,1.54-.49,1.82-1.11h3.73c-.55,2.23-2.58,3.95-5.43,3.95Zm-2.27-6.98h4.38c0-1.25-.98-1.97-2.15-1.97s-2.03.7-2.23,1.97Z"/>
    <path class="cls-4" d="m1323.01,557.41c-3.36,0-5.77-2.25-5.77-5.88s2.38-5.88,5.77-5.88,5.69,2.21,5.69,5.69c0,.33-.02.68-.06,1.02h-7.92c.12,1.49,1.04,2.19,2.17,2.19.98,0,1.54-.49,1.82-1.11h3.73c-.55,2.23-2.58,3.95-5.43,3.95Zm-2.27-6.98h4.38c0-1.25-.98-1.97-2.15-1.97s-2.03.7-2.23,1.97Z"/>
    <path class="cls-4" d="m1330.89,548.72h-1.39v-2.91h1.39v-2.79h3.5v2.79h2.29v2.91h-2.29v4.59c0,.68.29.96,1.06.96h1.25v2.97h-1.78c-2.38,0-4.03-1-4.03-3.97v-4.54Z"/>
    <path class="cls-4" d="m1348.45,542.87c3.52,0,5.28,2.03,5.28,4.53,0,1.8-.98,3.5-3.19,4.16l3.32,5.69h-3.95l-2.99-5.43h-.84v5.43h-3.5v-14.38h5.88Zm-.21,2.91h-2.17v3.56h2.17c1.31,0,1.92-.68,1.92-1.8,0-1.07-.61-1.76-1.92-1.76Z"/>
    <path class="cls-4" d="m1360.8,557.41c-3.36,0-5.77-2.25-5.77-5.88s2.38-5.88,5.77-5.88,5.69,2.21,5.69,5.69c0,.33-.02.68-.06,1.02h-7.92c.12,1.49,1.04,2.19,2.17,2.19.98,0,1.54-.49,1.82-1.11h3.73c-.55,2.23-2.58,3.95-5.43,3.95Zm-2.27-6.98h4.38c0-1.25-.98-1.97-2.15-1.97s-2.03.7-2.23,1.97Z"/>
    <path class="cls-4" d="m1373.16,545.65c2.87,0,4.89,1.58,5.49,4.3h-3.73c-.29-.8-.86-1.31-1.82-1.31-1.25,0-2.11.98-2.11,2.89s.86,2.89,2.11,2.89c.96,0,1.52-.47,1.82-1.31h3.73c-.59,2.64-2.62,4.3-5.49,4.3-3.36,0-5.73-2.25-5.73-5.88s2.38-5.88,5.73-5.88Z"/>
    <path class="cls-4" d="m1385.5,557.41c-3.36,0-5.9-2.25-5.9-5.88s2.6-5.88,5.94-5.88,5.94,2.25,5.94,5.88-2.62,5.88-5.98,5.88Zm0-3.03c1.25,0,2.42-.92,2.42-2.85s-1.15-2.85-2.38-2.85-2.38.9-2.38,2.85,1.06,2.85,2.33,2.85Z"/>
    <path class="cls-4" d="m1401.02,551.04c0-1.55-.86-2.42-2.19-2.42s-2.19.86-2.19,2.42v6.21h-3.5v-11.43h3.5v1.52c.7-.96,1.92-1.64,3.46-1.64,2.64,0,4.4,1.8,4.4,4.87v6.68h-3.48v-6.21Z"/>
    <path class="cls-4" d="m1411.77,545.65c2.87,0,4.89,1.58,5.49,4.3h-3.73c-.29-.8-.86-1.31-1.82-1.31-1.25,0-2.11.98-2.11,2.89s.86,2.89,2.11,2.89c.96,0,1.52-.47,1.82-1.31h3.73c-.59,2.64-2.62,4.3-5.49,4.3-3.36,0-5.73-2.25-5.73-5.88s2.38-5.88,5.73-5.88Z"/>
    <path class="cls-4" d="m1418.58,542.74c0-1.06.84-1.9,2.09-1.9s2.07.84,2.07,1.9-.84,1.88-2.07,1.88-2.09-.84-2.09-1.88Zm.33,3.07h3.5v11.43h-3.5v-11.43Z"/>
    <path class="cls-4" d="m1424.74,542.09h3.5v15.15h-3.5v-15.15Z"/>
    <path class="cls-4" d="m1430.25,542.74c0-1.06.84-1.9,2.09-1.9s2.07.84,2.07,1.9-.84,1.88-2.07,1.88-2.09-.84-2.09-1.88Zm.33,3.07h3.5v11.43h-3.5v-11.43Z"/>
    <path class="cls-4" d="m1440.75,545.65c1.7,0,2.91.78,3.52,1.78v-1.62h3.5v11.43h-3.5v-1.62c-.63,1-1.84,1.78-3.54,1.78-2.78,0-5.02-2.29-5.02-5.9s2.23-5.86,5.04-5.86Zm1.02,3.05c-1.31,0-2.5.98-2.5,2.81s1.19,2.85,2.5,2.85,2.5-1,2.5-2.83-1.17-2.83-2.5-2.83Z"/>
    <path class="cls-4" d="m1450.66,548.72h-1.39v-2.91h1.39v-2.79h3.5v2.79h2.29v2.91h-2.29v4.59c0,.68.29.96,1.06.96h1.25v2.97h-1.78c-2.38,0-4.03-1-4.03-3.97v-4.54Z"/>
    <path class="cls-4" d="m1457.88,542.74c0-1.06.84-1.9,2.09-1.9s2.07.84,2.07,1.9-.84,1.88-2.07,1.88-2.09-.84-2.09-1.88Zm.33,3.07h3.5v11.43h-3.5v-11.43Z"/>
    <path class="cls-4" d="m1469.24,557.41c-3.36,0-5.9-2.25-5.9-5.88s2.6-5.88,5.94-5.88,5.94,2.25,5.94,5.88-2.62,5.88-5.98,5.88Zm0-3.03c1.25,0,2.42-.92,2.42-2.85s-1.15-2.85-2.38-2.85-2.38.9-2.38,2.85,1.06,2.85,2.33,2.85Z"/>
    <path class="cls-4" d="m1484.76,551.04c0-1.55-.86-2.42-2.19-2.42s-2.19.86-2.19,2.42v6.21h-3.5v-11.43h3.5v1.52c.7-.96,1.92-1.64,3.46-1.64,2.64,0,4.4,1.8,4.4,4.87v6.68h-3.48v-6.21Z"/>
  </g>
  <g>
    <path class="cls-4" d="m1634.49,332.08h-6.7v-14.38h6.47c2.93,0,4.67,1.45,4.67,3.73,0,1.74-1.04,2.87-2.44,3.28,1.68.35,2.76,1.82,2.76,3.46,0,2.38-1.74,3.91-4.77,3.91Zm-.9-11.57h-2.29v3.01h2.29c1.15,0,1.78-.51,1.78-1.49s-.64-1.52-1.78-1.52Zm.25,5.57h-2.54v3.17h2.58c1.17,0,1.84-.53,1.84-1.56s-.72-1.62-1.88-1.62Z"/>
    <path class="cls-4" d="m1645.42,320.48c1.7,0,2.91.78,3.52,1.78v-1.62h3.5v11.43h-3.5v-1.62c-.63,1-1.84,1.78-3.54,1.78-2.78,0-5.02-2.29-5.02-5.9s2.23-5.86,5.04-5.86Zm1.02,3.05c-1.31,0-2.5.98-2.5,2.81s1.19,2.85,2.5,2.85,2.5-1,2.5-2.83-1.17-2.83-2.5-2.83Z"/>
    <path class="cls-4" d="m1654.77,316.92h3.5v15.15h-3.5v-15.15Z"/>
    <path class="cls-4" d="m1664.95,320.48c1.7,0,2.91.78,3.52,1.78v-1.62h3.5v11.43h-3.5v-1.62c-.63,1-1.84,1.78-3.54,1.78-2.78,0-5.02-2.29-5.02-5.9s2.23-5.86,5.04-5.86Zm1.02,3.05c-1.31,0-2.5.98-2.5,2.81s1.19,2.85,2.5,2.85,2.5-1,2.5-2.83-1.17-2.83-2.5-2.83Z"/>
    <path class="cls-4" d="m1682.19,325.87c0-1.56-.86-2.42-2.19-2.42s-2.19.86-2.19,2.42v6.2h-3.5v-11.43h3.5v1.52c.7-.96,1.92-1.64,3.46-1.64,2.64,0,4.4,1.8,4.4,4.87v6.68h-3.48v-6.2Z"/>
    <path class="cls-4" d="m1692.93,320.48c2.87,0,4.89,1.58,5.49,4.3h-3.73c-.29-.8-.86-1.31-1.82-1.31-1.25,0-2.11.98-2.11,2.89s.86,2.89,2.11,2.89c.96,0,1.52-.47,1.82-1.31h3.73c-.59,2.64-2.62,4.3-5.49,4.3-3.36,0-5.73-2.25-5.73-5.88s2.38-5.88,5.73-5.88Z"/>
    <path class="cls-4" d="m1705.15,332.24c-3.36,0-5.77-2.25-5.77-5.88s2.38-5.88,5.77-5.88,5.69,2.21,5.69,5.69c0,.33-.02.68-.06,1.02h-7.92c.12,1.5,1.04,2.19,2.17,2.19.98,0,1.54-.49,1.82-1.11h3.73c-.55,2.23-2.58,3.95-5.43,3.95Zm-2.27-6.98h4.38c0-1.25-.98-1.96-2.15-1.96s-2.03.7-2.23,1.96Z"/>
    <path class="cls-4" d="m1721.81,332.22c-3.09,0-5.51-1.54-5.61-4.44h3.73c.1,1.11.8,1.64,1.78,1.64s1.68-.51,1.68-1.35c0-2.66-7.19-1.23-7.15-6.33,0-2.72,2.23-4.24,5.24-4.24s5.24,1.56,5.38,4.3h-3.79c-.06-.92-.72-1.47-1.66-1.49-.84-.02-1.47.41-1.47,1.31,0,2.5,7.11,1.37,7.11,6.18,0,2.42-1.88,4.42-5.24,4.42Z"/>
    <path class="cls-4" d="m1729,316.92h3.5v5.26c.7-.98,1.95-1.66,3.52-1.66,2.6,0,4.34,1.8,4.34,4.87v6.68h-3.48v-6.2c0-1.56-.86-2.42-2.19-2.42s-2.19.86-2.19,2.42v6.2h-3.5v-15.15Z"/>
    <path class="cls-4" d="m1747.67,332.24c-3.36,0-5.77-2.25-5.77-5.88s2.38-5.88,5.77-5.88,5.69,2.21,5.69,5.69c0,.33-.02.68-.06,1.02h-7.92c.12,1.5,1.04,2.19,2.17,2.19.98,0,1.54-.49,1.82-1.11h3.73c-.55,2.23-2.58,3.95-5.43,3.95Zm-2.27-6.98h4.38c0-1.25-.98-1.96-2.15-1.96s-2.03.7-2.23,1.96Z"/>
    <path class="cls-4" d="m1760.07,332.24c-3.36,0-5.77-2.25-5.77-5.88s2.38-5.88,5.77-5.88,5.69,2.21,5.69,5.69c0,.33-.02.68-.06,1.02h-7.92c.12,1.5,1.04,2.19,2.17,2.19.98,0,1.54-.49,1.82-1.11h3.73c-.55,2.23-2.58,3.95-5.43,3.95Zm-2.27-6.98h4.38c0-1.25-.98-1.96-2.15-1.96s-2.03.7-2.23,1.96Z"/>
    <path class="cls-4" d="m1767.95,323.56h-1.39v-2.91h1.39v-2.79h3.5v2.79h2.29v2.91h-2.29v4.59c0,.68.29.96,1.06.96h1.25v2.97h-1.78c-2.38,0-4.03-1-4.03-3.97v-4.55Z"/>
    <path class="cls-4" d="m1645.18,368.99h-2.17v5.16h-3.5v-14.38h5.67c3.52,0,5.28,1.99,5.28,4.63,0,2.38-1.62,4.59-5.28,4.59Zm-.27-2.79c1.39,0,1.99-.7,1.99-1.8s-.59-1.8-1.99-1.8h-1.9v3.6h1.9Z"/>
    <path class="cls-4" d="m1655.58,374.15h-3.5v-11.43h3.5v1.91c.8-1.21,2.05-2.03,3.58-2.03v3.71h-.96c-1.66,0-2.62.57-2.62,2.54v5.3Z"/>
    <path class="cls-4" d="m1665.83,374.32c-3.36,0-5.9-2.25-5.9-5.88s2.6-5.88,5.94-5.88,5.94,2.25,5.94,5.88-2.62,5.88-5.98,5.88Zm0-3.03c1.25,0,2.42-.92,2.42-2.85s-1.15-2.85-2.38-2.85-2.38.9-2.38,2.85,1.06,2.85,2.33,2.85Z"/>
    <path class="cls-4" d="m1673.81,365.63h-1.27v-2.91h1.27v-.33c0-2.99,1.84-4.46,5.32-4.28v2.97c-1.35-.08-1.82.33-1.82,1.54v.1h1.88v2.91h-1.88v8.52h-3.5v-8.52Z"/>
    <path class="cls-4" d="m1680.3,359.65c0-1.06.84-1.9,2.09-1.9s2.07.84,2.07,1.9-.84,1.88-2.07,1.88-2.09-.84-2.09-1.88Zm.33,3.07h3.5v11.43h-3.5v-11.43Z"/>
    <path class="cls-4" d="m1687.01,365.63h-1.39v-2.91h1.39v-2.78h3.5v2.78h2.29v2.91h-2.29v4.59c0,.68.29.96,1.06.96h1.25v2.97h-1.78c-2.38,0-4.03-1-4.03-3.97v-4.55Z"/>
    <path class="cls-4" d="m1705.6,363.26c.02-.78-.45-1.15-1.07-1.15-.66,0-1.15.41-1.15,1.02s.39,1.19,1.15,1.99l3.5,3.42c.08-.18.18-.37.27-.57l.76-1.29h3.5l-.98,1.78c-.39.86-.82,1.62-1.27,2.29l3.46,3.4h-4.08l-1.33-1.29c-1.31,1-2.87,1.52-4.75,1.52-3.34,0-5.45-1.74-5.45-4.4,0-1.76.94-3.3,2.93-4.24-.74-.88-1-1.66-1-2.58,0-2.03,1.62-3.67,4.48-3.67s4.38,1.78,4.32,3.77h-3.3Zm.61,7.52l-3.2-3.09c-.98.51-1.47,1.23-1.47,2.05,0,1,.84,1.82,2.23,1.82.94,0,1.74-.27,2.44-.78Z"/>
    <path class="cls-4" d="m1722.47,359.78v11.67h4.59v2.7h-8.09v-14.38h3.5Z"/>
    <path class="cls-4" d="m1733.73,374.32c-3.36,0-5.9-2.25-5.9-5.88s2.6-5.88,5.94-5.88,5.94,2.25,5.94,5.88-2.62,5.88-5.98,5.88Zm0-3.03c1.25,0,2.42-.92,2.42-2.85s-1.15-2.85-2.38-2.85-2.38.9-2.38,2.85,1.06,2.85,2.33,2.85Z"/>
    <path class="cls-4" d="m1746.01,374.32c-3.05,0-5.1-1.7-5.26-3.91h3.46c.08.8.8,1.33,1.76,1.33.9,0,1.37-.41,1.37-.92,0-1.84-6.23-.51-6.23-4.71,0-1.95,1.66-3.54,4.65-3.54s4.59,1.64,4.81,3.89h-3.24c-.1-.78-.7-1.29-1.68-1.29-.82,0-1.27.33-1.27.88,0,1.82,6.18.53,6.25,4.79,0,1.99-1.76,3.48-4.63,3.48Z"/>
    <path class="cls-4" d="m1757.23,374.32c-3.05,0-5.1-1.7-5.26-3.91h3.46c.08.8.8,1.33,1.76,1.33.9,0,1.37-.41,1.37-.92,0-1.84-6.23-.51-6.23-4.71,0-1.95,1.66-3.54,4.65-3.54s4.59,1.64,4.81,3.89h-3.24c-.1-.78-.7-1.29-1.68-1.29-.82,0-1.27.33-1.27.88,0,1.82,6.18.53,6.25,4.79,0,1.99-1.76,3.48-4.63,3.48Z"/>
    <path class="cls-4" d="m1617.52,401.85h3.71l-5.1,14.38h-4.38l-5.1-14.38h3.73l3.56,10.85,3.58-10.85Z"/>
    <path class="cls-4" d="m1626.81,404.64c1.7,0,2.91.78,3.52,1.78v-1.62h3.5v11.43h-3.5v-1.62c-.63,1-1.84,1.78-3.54,1.78-2.78,0-5.02-2.29-5.02-5.9s2.23-5.86,5.04-5.86Zm1.02,3.05c-1.31,0-2.5.98-2.5,2.81s1.19,2.85,2.5,2.85,2.5-1,2.5-2.83-1.17-2.83-2.5-2.83Z"/>
    <path class="cls-4" d="m1639.67,416.23h-3.5v-11.43h3.5v1.9c.8-1.21,2.05-2.03,3.58-2.03v3.71h-.96c-1.66,0-2.62.57-2.62,2.54v5.3Z"/>
    <path class="cls-4" d="m1644.4,401.73c0-1.06.84-1.9,2.09-1.9s2.07.84,2.07,1.9-.84,1.88-2.07,1.88-2.09-.84-2.09-1.88Zm.33,3.07h3.5v11.43h-3.5v-11.43Z"/>
    <path class="cls-4" d="m1654.9,404.64c1.7,0,2.91.78,3.52,1.78v-1.62h3.5v11.43h-3.5v-1.62c-.63,1-1.84,1.78-3.54,1.78-2.78,0-5.02-2.29-5.02-5.9s2.23-5.86,5.04-5.86Zm1.02,3.05c-1.31,0-2.5.98-2.5,2.81s1.19,2.85,2.5,2.85,2.5-1,2.5-2.83-1.17-2.83-2.5-2.83Z"/>
    <path class="cls-4" d="m1672.13,410.02c0-1.55-.86-2.42-2.19-2.42s-2.19.86-2.19,2.42v6.21h-3.5v-11.43h3.5v1.52c.7-.96,1.92-1.64,3.46-1.64,2.64,0,4.4,1.8,4.4,4.87v6.68h-3.48v-6.21Z"/>
    <path class="cls-4" d="m1682.88,404.64c2.87,0,4.89,1.58,5.49,4.3h-3.73c-.29-.8-.86-1.31-1.82-1.31-1.25,0-2.11.98-2.11,2.89s.86,2.89,2.11,2.89c.96,0,1.52-.47,1.82-1.31h3.73c-.59,2.64-2.62,4.3-5.49,4.3-3.36,0-5.73-2.25-5.73-5.88s2.38-5.88,5.73-5.88Z"/>
    <path class="cls-4" d="m1695.1,416.39c-3.36,0-5.77-2.25-5.77-5.88s2.38-5.88,5.77-5.88,5.69,2.21,5.69,5.69c0,.33-.02.68-.06,1.02h-7.92c.12,1.49,1.04,2.19,2.17,2.19.98,0,1.54-.49,1.82-1.11h3.73c-.55,2.23-2.58,3.95-5.43,3.95Zm-2.27-6.98h4.38c0-1.25-.98-1.97-2.15-1.97s-2.03.7-2.23,1.97Z"/>
    <path class="cls-4" d="m1715.51,413.69h-5.36l-.86,2.54h-3.67l5.2-14.38h4.05l5.2,14.38h-3.71l-.86-2.54Zm-2.68-7.96l-1.76,5.26h3.54l-1.78-5.26Z"/>
    <path class="cls-4" d="m1729.33,410.02c0-1.55-.86-2.42-2.19-2.42s-2.19.86-2.19,2.42v6.21h-3.5v-11.43h3.5v1.52c.7-.96,1.92-1.64,3.46-1.64,2.64,0,4.4,1.8,4.4,4.87v6.68h-3.48v-6.21Z"/>
    <path class="cls-4" d="m1739.38,404.64c1.7,0,2.91.78,3.52,1.78v-1.62h3.5v11.43h-3.5v-1.62c-.63,1-1.84,1.78-3.54,1.78-2.78,0-5.02-2.29-5.02-5.9s2.23-5.86,5.04-5.86Zm1.02,3.05c-1.31,0-2.5.98-2.5,2.81s1.19,2.85,2.5,2.85,2.5-1,2.5-2.83-1.17-2.83-2.5-2.83Z"/>
    <path class="cls-4" d="m1748.73,401.08h3.5v15.15h-3.5v-15.15Z"/>
    <path class="cls-4" d="m1762.45,404.8h3.79l-7.17,16.85h-3.77l2.62-5.82-4.65-11.04h3.91l2.64,7.15,2.62-7.15Z"/>
    <path class="cls-4" d="m1771.94,416.39c-3.05,0-5.1-1.7-5.26-3.91h3.46c.08.8.8,1.33,1.76,1.33.9,0,1.37-.41,1.37-.92,0-1.84-6.23-.51-6.23-4.71,0-1.95,1.66-3.54,4.65-3.54s4.59,1.64,4.81,3.89h-3.24c-.1-.78-.7-1.29-1.68-1.29-.82,0-1.27.33-1.27.88,0,1.82,6.18.53,6.25,4.79,0,1.99-1.76,3.48-4.63,3.48Z"/>
    <path class="cls-4" d="m1778.19,401.73c0-1.06.84-1.9,2.09-1.9s2.07.84,2.07,1.9-.84,1.88-2.07,1.88-2.09-.84-2.09-1.88Zm.33,3.07h3.5v11.43h-3.5v-11.43Z"/>
    <path class="cls-4" d="m1788.99,416.39c-3.05,0-5.1-1.7-5.26-3.91h3.46c.08.8.8,1.33,1.76,1.33.9,0,1.37-.41,1.37-.92,0-1.84-6.23-.51-6.23-4.71,0-1.95,1.66-3.54,4.65-3.54s4.59,1.64,4.81,3.89h-3.24c-.1-.78-.7-1.29-1.68-1.29-.82,0-1.27.33-1.27.88,0,1.82,6.18.53,6.25,4.79,0,1.99-1.76,3.48-4.63,3.48Z"/>
    <path class="cls-4" d="m1634.15,443.93c3.52,0,5.28,2.03,5.28,4.53,0,1.8-.98,3.5-3.19,4.16l3.32,5.69h-3.95l-2.99-5.43h-.84v5.43h-3.5v-14.38h5.88Zm-.21,2.91h-2.17v3.56h2.17c1.31,0,1.92-.68,1.92-1.8,0-1.07-.61-1.76-1.92-1.76Z"/>
    <path class="cls-4" d="m1645.76,446.72c1.7,0,2.91.78,3.52,1.78v-1.62h3.5v11.43h-3.5v-1.62c-.63,1-1.84,1.78-3.54,1.78-2.78,0-5.02-2.29-5.02-5.9s2.23-5.86,5.04-5.86Zm1.02,3.05c-1.31,0-2.5.98-2.5,2.81s1.19,2.85,2.5,2.85,2.5-1,2.5-2.83-1.17-2.83-2.5-2.83Z"/>
    <path class="cls-4" d="m1655.66,449.79h-1.39v-2.91h1.39v-2.79h3.5v2.79h2.29v2.91h-2.29v4.59c0,.68.29.96,1.06.96h1.25v2.97h-1.78c-2.38,0-4.03-1-4.03-3.97v-4.54Z"/>
    <path class="cls-4" d="m1662.89,443.81c0-1.06.84-1.9,2.09-1.9s2.07.84,2.07,1.9-.84,1.88-2.07,1.88-2.09-.84-2.09-1.88Zm.33,3.07h3.5v11.43h-3.5v-11.43Z"/>
    <path class="cls-4" d="m1674.25,458.47c-3.36,0-5.9-2.25-5.9-5.88s2.6-5.88,5.94-5.88,5.94,2.25,5.94,5.88-2.62,5.88-5.98,5.88Zm0-3.03c1.25,0,2.42-.92,2.42-2.85s-1.15-2.85-2.38-2.85-2.38.9-2.38,2.85,1.06,2.85,2.33,2.85Z"/>
    <path class="cls-4" d="m1694.97,455.77h-5.36l-.86,2.54h-3.67l5.2-14.38h4.05l5.2,14.38h-3.71l-.86-2.54Zm-2.68-7.96l-1.76,5.26h3.54l-1.78-5.26Z"/>
    <path class="cls-4" d="m1708.79,452.1c0-1.55-.86-2.42-2.19-2.42s-2.19.86-2.19,2.42v6.21h-3.5v-11.43h3.5v1.52c.7-.96,1.92-1.64,3.46-1.64,2.64,0,4.4,1.8,4.4,4.87v6.68h-3.48v-6.21Z"/>
    <path class="cls-4" d="m1718.83,446.72c1.7,0,2.91.78,3.52,1.78v-1.62h3.5v11.43h-3.5v-1.62c-.63,1-1.84,1.78-3.54,1.78-2.78,0-5.02-2.29-5.02-5.9s2.23-5.86,5.04-5.86Zm1.02,3.05c-1.31,0-2.5.98-2.5,2.81s1.19,2.85,2.5,2.85,2.5-1,2.5-2.83-1.17-2.83-2.5-2.83Z"/>
    <path class="cls-4" d="m1728.19,443.15h3.5v15.15h-3.5v-15.15Z"/>
    <path class="cls-4" d="m1741.91,446.88h3.79l-7.17,16.85h-3.77l2.62-5.82-4.65-11.04h3.91l2.64,7.15,2.62-7.15Z"/>
    <path class="cls-4" d="m1751.4,458.47c-3.05,0-5.1-1.7-5.26-3.91h3.46c.08.8.8,1.33,1.76,1.33.9,0,1.37-.41,1.37-.92,0-1.84-6.23-.51-6.23-4.71,0-1.95,1.66-3.54,4.65-3.54s4.59,1.64,4.81,3.89h-3.24c-.1-.78-.7-1.29-1.68-1.29-.82,0-1.27.33-1.27.88,0,1.82,6.18.53,6.25,4.79,0,1.99-1.76,3.48-4.63,3.48Z"/>
    <path class="cls-4" d="m1757.64,443.81c0-1.06.84-1.9,2.09-1.9s2.07.84,2.07,1.9-.84,1.88-2.07,1.88-2.09-.84-2.09-1.88Zm.33,3.07h3.5v11.43h-3.5v-11.43Z"/>
    <path class="cls-4" d="m1768.45,458.47c-3.05,0-5.1-1.7-5.26-3.91h3.46c.08.8.8,1.33,1.76,1.33.9,0,1.37-.41,1.37-.92,0-1.84-6.23-.51-6.23-4.71,0-1.95,1.66-3.54,4.65-3.54s4.59,1.64,4.81,3.89h-3.24c-.1-.78-.7-1.29-1.68-1.29-.82,0-1.27.33-1.27.88,0,1.82,6.18.53,6.25,4.79,0,1.99-1.76,3.48-4.63,3.48Z"/>
    <path class="cls-4" d="m1637.71,497.84h-5.36l-.86,2.54h-3.67l5.2-14.38h4.05l5.2,14.38h-3.71l-.86-2.54Zm-2.68-7.97l-1.76,5.26h3.54l-1.78-5.26Z"/>
    <path class="cls-4" d="m1647.98,488.79c1.68,0,2.91.76,3.52,1.78v-1.62h3.5v11.41c0,3.05-1.76,5.65-5.71,5.65-3.4,0-5.61-1.72-5.92-4.44h3.46c.23.86,1.09,1.41,2.29,1.41,1.33,0,2.38-.7,2.38-2.62v-1.62c-.63,1-1.84,1.8-3.52,1.8-2.8,0-5.04-2.29-5.04-5.9s2.23-5.86,5.04-5.86Zm1.02,3.05c-1.31,0-2.5.98-2.5,2.8s1.19,2.85,2.5,2.85,2.5-1,2.5-2.82-1.17-2.83-2.5-2.83Z"/>
    <path class="cls-4" d="m1657.01,485.88c0-1.06.84-1.9,2.09-1.9s2.07.84,2.07,1.9-.84,1.88-2.07,1.88-2.09-.84-2.09-1.88Zm.33,3.07h3.5v11.43h-3.5v-11.43Z"/>
    <path class="cls-4" d="m1671.05,494.18c0-1.56-.86-2.42-2.19-2.42s-2.19.86-2.19,2.42v6.21h-3.5v-11.43h3.5v1.52c.7-.96,1.92-1.64,3.46-1.64,2.64,0,4.4,1.8,4.4,4.87v6.68h-3.48v-6.21Z"/>
    <path class="cls-4" d="m1681.1,488.79c1.68,0,2.91.76,3.52,1.78v-1.62h3.5v11.41c0,3.05-1.76,5.65-5.71,5.65-3.4,0-5.61-1.72-5.92-4.44h3.46c.23.86,1.09,1.41,2.29,1.41,1.33,0,2.38-.7,2.38-2.62v-1.62c-.63,1-1.84,1.8-3.52,1.8-2.8,0-5.04-2.29-5.04-5.9s2.23-5.86,5.04-5.86Zm1.02,3.05c-1.31,0-2.5.98-2.5,2.8s1.19,2.85,2.5,2.85,2.5-1,2.5-2.82-1.17-2.83-2.5-2.83Z"/>
    <path class="cls-4" d="m1700.46,486.01c3.52,0,5.28,2.03,5.28,4.53,0,1.8-.98,3.5-3.19,4.16l3.32,5.69h-3.95l-2.99-5.43h-.84v5.43h-3.5v-14.38h5.88Zm-.21,2.91h-2.17v3.56h2.17c1.31,0,1.92-.68,1.92-1.8,0-1.06-.61-1.76-1.92-1.76Z"/>
    <path class="cls-4" d="m1712.81,500.55c-3.36,0-5.77-2.25-5.77-5.88s2.38-5.88,5.77-5.88,5.69,2.21,5.69,5.69c0,.33-.02.68-.06,1.02h-7.92c.12,1.5,1.04,2.19,2.17,2.19.98,0,1.54-.49,1.82-1.11h3.73c-.55,2.23-2.58,3.95-5.43,3.95Zm-2.27-6.98h4.38c0-1.25-.98-1.96-2.15-1.96s-2.03.7-2.23,1.96Z"/>
    <path class="cls-4" d="m1727.16,488.79c2.81,0,5.04,2.25,5.04,5.86s-2.23,5.9-5.04,5.9c-1.68,0-2.89-.8-3.52-1.76v7.04h-3.5v-16.88h3.5v1.62c.63-1,1.84-1.78,3.52-1.78Zm-1.04,3.05c-1.31,0-2.5,1-2.5,2.83s1.19,2.82,2.5,2.82,2.52-1.02,2.52-2.85-1.19-2.8-2.52-2.8Z"/>
    <path class="cls-4" d="m1739.03,500.55c-3.36,0-5.9-2.25-5.9-5.88s2.6-5.88,5.94-5.88,5.94,2.25,5.94,5.88-2.62,5.88-5.98,5.88Zm0-3.03c1.25,0,2.42-.92,2.42-2.85s-1.15-2.85-2.38-2.85-2.38.9-2.38,2.85,1.06,2.85,2.33,2.85Z"/>
    <path class="cls-4" d="m1750.16,500.38h-3.5v-11.43h3.5v1.91c.8-1.21,2.05-2.03,3.58-2.03v3.71h-.96c-1.66,0-2.62.57-2.62,2.54v5.3Z"/>
    <path class="cls-4" d="m1755.77,491.86h-1.39v-2.91h1.39v-2.78h3.5v2.78h2.29v2.91h-2.29v4.59c0,.68.29.96,1.06.96h1.25v2.97h-1.78c-2.38,0-4.03-1-4.03-3.97v-4.55Z"/>
    <path class="cls-4" d="m1767.97,500.55c-3.05,0-5.1-1.7-5.26-3.91h3.46c.08.8.8,1.33,1.76,1.33.9,0,1.37-.41,1.37-.92,0-1.84-6.23-.51-6.23-4.71,0-1.95,1.66-3.54,4.65-3.54s4.59,1.64,4.81,3.89h-3.24c-.1-.78-.7-1.29-1.68-1.29-.82,0-1.27.33-1.27.88,0,1.82,6.18.53,6.25,4.79,0,1.99-1.76,3.48-4.63,3.48Z"/>
    <path class="cls-4" d="m1637.13,542.6c-4.08,0-7.39-3.05-7.39-7.37s3.32-7.35,7.39-7.35,7.35,3.03,7.35,7.35-3.28,7.37-7.35,7.37Zm0-3.19c2.29,0,3.79-1.66,3.79-4.18s-1.5-4.18-3.79-4.18-3.81,1.62-3.81,4.18,1.47,4.18,3.81,4.18Z"/>
    <path class="cls-4" d="m1646.77,533.94h-1.39v-2.91h1.39v-2.78h3.5v2.78h2.29v2.91h-2.29v4.59c0,.68.29.96,1.06.96h1.25v2.97h-1.78c-2.38,0-4.03-1-4.03-3.97v-4.55Z"/>
    <path class="cls-4" d="m1654.32,527.3h3.5v5.26c.7-.98,1.95-1.66,3.52-1.66,2.6,0,4.34,1.8,4.34,4.87v6.68h-3.48v-6.21c0-1.56-.86-2.42-2.19-2.42s-2.19.86-2.19,2.42v6.21h-3.5v-15.15Z"/>
    <path class="cls-4" d="m1672.99,542.62c-3.36,0-5.77-2.25-5.77-5.88s2.38-5.88,5.77-5.88,5.69,2.21,5.69,5.69c0,.33-.02.68-.06,1.02h-7.92c.12,1.5,1.04,2.19,2.17,2.19.98,0,1.54-.49,1.82-1.11h3.73c-.55,2.23-2.58,3.95-5.43,3.95Zm-2.27-6.98h4.38c0-1.25-.98-1.96-2.15-1.96s-2.03.7-2.23,1.96Z"/>
    <path class="cls-4" d="m1683.82,542.46h-3.5v-11.43h3.5v1.91c.8-1.21,2.05-2.03,3.58-2.03v3.71h-.96c-1.66,0-2.62.57-2.62,2.54v5.3Z"/>
    <path class="cls-4" d="m1698.89,528.08c3.52,0,5.28,2.03,5.28,4.53,0,1.8-.98,3.5-3.19,4.16l3.32,5.69h-3.95l-2.99-5.43h-.84v5.43h-3.5v-14.38h5.88Zm-.21,2.91h-2.17v3.56h2.17c1.31,0,1.92-.68,1.92-1.8,0-1.06-.61-1.76-1.92-1.76Z"/>
    <path class="cls-4" d="m1711.23,542.62c-3.36,0-5.77-2.25-5.77-5.88s2.38-5.88,5.77-5.88,5.69,2.21,5.69,5.69c0,.33-.02.68-.06,1.02h-7.92c.12,1.5,1.04,2.19,2.17,2.19.98,0,1.54-.49,1.82-1.11h3.73c-.55,2.23-2.58,3.95-5.43,3.95Zm-2.27-6.98h4.38c0-1.25-.98-1.96-2.15-1.96s-2.03.7-2.23,1.96Z"/>
    <path class="cls-4" d="m1725.58,530.87c2.81,0,5.04,2.25,5.04,5.86s-2.23,5.9-5.04,5.9c-1.68,0-2.89-.8-3.52-1.76v7.04h-3.5v-16.88h3.5v1.62c.63-1,1.84-1.78,3.52-1.78Zm-1.04,3.05c-1.31,0-2.5,1-2.5,2.83s1.19,2.82,2.5,2.82,2.52-1.02,2.52-2.85-1.19-2.8-2.52-2.8Z"/>
    <path class="cls-4" d="m1737.45,542.62c-3.36,0-5.9-2.25-5.9-5.88s2.6-5.88,5.94-5.88,5.94,2.25,5.94,5.88-2.62,5.88-5.98,5.88Zm0-3.03c1.25,0,2.42-.92,2.42-2.85s-1.15-2.85-2.38-2.85-2.38.9-2.38,2.85,1.06,2.85,2.33,2.85Z"/>
    <path class="cls-4" d="m1748.59,542.46h-3.5v-11.43h3.5v1.91c.8-1.21,2.05-2.03,3.58-2.03v3.71h-.96c-1.66,0-2.62.57-2.62,2.54v5.3Z"/>
    <path class="cls-4" d="m1754.2,533.94h-1.39v-2.91h1.39v-2.78h3.5v2.78h2.29v2.91h-2.29v4.59c0,.68.29.96,1.06.96h1.25v2.97h-1.78c-2.38,0-4.03-1-4.03-3.97v-4.55Z"/>
    <path class="cls-4" d="m1766.4,542.62c-3.05,0-5.1-1.7-5.26-3.91h3.46c.08.8.8,1.33,1.76,1.33.9,0,1.37-.41,1.37-.92,0-1.84-6.23-.51-6.23-4.71,0-1.95,1.66-3.54,4.65-3.54s4.59,1.64,4.81,3.89h-3.24c-.1-.78-.7-1.29-1.68-1.29-.82,0-1.27.33-1.27.88,0,1.82,6.18.53,6.25,4.79,0,1.99-1.76,3.48-4.63,3.48Z"/>
  </g>
  <g>
    <path class="cls-4" d="m216.43,195.34c0-7.64,4.03-12.01,11.4-12.01s11.4,4.37,11.4,12.01v24.84c0,7.64-4.03,12.01-11.4,12.01s-11.4-4.37-11.4-12.01v-24.84Zm7.51,25.32c0,3.41,1.5,4.71,3.89,4.71s3.89-1.3,3.89-4.71v-25.79c0-3.41-1.5-4.71-3.89-4.71s-3.89,1.3-3.89,4.71v25.79Z"/>
    <path class="cls-4" d="m247,189.88c5.8,0,7.1-2.8,8.26-6h5.05v47.77h-7.51v-36.44h-5.8v-5.32Z"/>
  </g>
  <g>
    <path class="cls-4" d="m576.7,195.34c0-7.64,4.03-12.01,11.4-12.01s11.4,4.37,11.4,12.01v24.84c0,7.64-4.03,12.01-11.4,12.01s-11.4-4.37-11.4-12.01v-24.84Zm7.51,25.32c0,3.41,1.5,4.71,3.89,4.71s3.89-1.3,3.89-4.71v-25.79c0-3.41-1.5-4.71-3.89-4.71s-3.89,1.3-3.89,4.71v25.79Z"/>
    <path class="cls-4" d="m615.32,190.15c-2.39,0-3.89,1.3-3.89,4.71v5.12h-7.1v-4.64c0-7.64,3.82-12.01,11.19-12.01s11.19,4.37,11.19,12.01c0,15.01-14.94,20.61-14.94,28.46,0,.34,0,.68.07,1.02h14.19v6.82h-21.7v-5.87c0-14.06,14.88-16.38,14.88-30.16,0-4.3-1.5-5.46-3.89-5.46Z"/>
  </g>
  <g>
    <path class="cls-4" d="m945.18,195.34c0-7.64,4.03-12.01,11.4-12.01s11.4,4.37,11.4,12.01v24.84c0,7.64-4.03,12.01-11.4,12.01s-11.4-4.37-11.4-12.01v-24.84Zm7.51,25.32c0,3.41,1.5,4.71,3.89,4.71s3.89-1.3,3.89-4.71v-25.79c0-3.41-1.5-4.71-3.89-4.71s-3.89,1.3-3.89,4.71v25.79Z"/>
    <path class="cls-4" d="m987.28,195.61c0-4.3-1.5-5.46-3.89-5.46s-3.89,1.3-3.89,4.71v3.07h-7.1v-2.59c0-7.64,3.82-12.01,11.19-12.01s11.19,4.37,11.19,12.01v1.23c0,5.12-1.64,8.33-5.25,9.83,3.75,1.64,5.25,5.19,5.25,10.03v3.75c0,7.64-3.82,12.01-11.19,12.01s-11.19-4.37-11.19-12.01v-3.96h7.1v4.44c0,3.41,1.5,4.71,3.89,4.71s3.89-1.16,3.89-5.39v-3.75c0-4.43-1.5-6.07-4.91-6.07h-2.53v-6.82h2.93c2.8,0,4.5-1.23,4.5-5.05v-2.66Z"/>
  </g>
  <g>
    <path class="cls-4" d="m1315.88,195.34c0-7.64,4.03-12.01,11.4-12.01s11.4,4.37,11.4,12.01v24.84c0,7.64-4.03,12.01-11.4,12.01s-11.4-4.37-11.4-12.01v-24.84Zm7.51,25.32c0,3.41,1.5,4.71,3.89,4.71s3.89-1.3,3.89-4.71v-25.79c0-3.41-1.5-4.71-3.89-4.71s-3.89,1.3-3.89,4.71v25.79Z"/>
    <path class="cls-4" d="m1342.42,216.15l13.65-32.28h8.19v32.28h3.55v6.82h-3.55v8.67h-7.37v-8.67h-14.47v-6.82Zm14.47,0v-17.95l-7.57,17.95h7.57Z"/>
  </g>
  <g>
    <path class="cls-4" d="m1687.71,195.34c0-7.64,4.03-12.01,11.4-12.01s11.4,4.37,11.4,12.01v24.84c0,7.64-4.03,12.01-11.4,12.01s-11.4-4.37-11.4-12.01v-24.84Zm7.51,25.32c0,3.41,1.5,4.71,3.89,4.71s3.89-1.3,3.89-4.71v-25.79c0-3.41-1.5-4.71-3.89-4.71s-3.89,1.3-3.89,4.71v25.79Z"/>
    <path class="cls-4" d="m1722.78,216.22v4.44c0,3.41,1.5,4.64,3.89,4.64s3.89-1.23,3.89-4.64v-10.51c0-3.41-1.5-4.71-3.89-4.71s-3.89,1.3-3.89,4.71v1.43h-7.1l1.36-27.71h19.79v6.82h-13.03l-.61,11.39c1.36-2.25,3.55-3.48,6.55-3.48,5.53,0,8.33,3.89,8.33,10.92v10.65c0,7.64-3.82,12.01-11.19,12.01s-11.19-4.37-11.19-12.01v-3.96h7.1Z"/>
  </g>
  <g>
    <path d="m499.07,113.34h-7.15l-1.15,3.38h-4.89l6.93-19.16h5.4l6.93,19.16h-4.94l-1.15-3.38Zm-3.58-10.62l-2.35,7.02h4.72l-2.38-7.02Z"/>
    <path d="m513.97,101.28c3.82,0,6.52,2.1,7.32,5.73h-4.97c-.38-1.06-1.15-1.75-2.43-1.75-1.67,0-2.81,1.31-2.81,3.85s1.15,3.85,2.81,3.85c1.28,0,2.02-.63,2.43-1.75h4.97c-.79,3.52-3.49,5.73-7.32,5.73-4.48,0-7.64-3-7.64-7.83s3.17-7.83,7.64-7.83Z"/>
    <path d="m530.48,101.28c3.82,0,6.52,2.1,7.32,5.73h-4.97c-.38-1.06-1.15-1.75-2.43-1.75-1.67,0-2.81,1.31-2.81,3.85s1.15,3.85,2.81,3.85c1.28,0,2.02-.63,2.43-1.75h4.97c-.79,3.52-3.49,5.73-7.32,5.73-4.48,0-7.64-3-7.64-7.83s3.17-7.83,7.64-7.83Z"/>
    <path d="m547.21,116.95c-4.48,0-7.86-3-7.86-7.83s3.47-7.83,7.92-7.83,7.92,3,7.92,7.83-3.49,7.83-7.97,7.83Zm0-4.04c1.67,0,3.22-1.23,3.22-3.79s-1.53-3.79-3.17-3.79-3.17,1.2-3.17,3.79,1.42,3.79,3.11,3.79Z"/>
    <path d="m572.7,116.73h-4.67v-2.07c-.93,1.31-2.57,2.24-4.61,2.24-3.52,0-5.9-2.43-5.9-6.5v-8.9h4.64v8.27c0,2.08,1.17,3.22,2.92,3.22s2.95-1.15,2.95-3.22v-8.27h4.67v15.23Z"/>
    <path d="m586.57,108.46c0-2.07-1.15-3.22-2.92-3.22s-2.92,1.15-2.92,3.22v8.27h-4.67v-15.23h4.67v2.02c.93-1.28,2.57-2.18,4.61-2.18,3.52,0,5.87,2.4,5.87,6.5v8.9h-4.64v-8.27Z"/>
    <path d="m595.19,105.37h-1.86v-3.88h1.86v-3.71h4.67v3.71h3.06v3.88h-3.06v6.12c0,.9.38,1.28,1.42,1.28h1.67v3.96h-2.38c-3.17,0-5.38-1.34-5.38-5.29v-6.06Z"/>
    <path d="m611.73,116.95c-4.07,0-6.8-2.27-7.02-5.21h4.61c.11,1.07,1.06,1.77,2.35,1.77,1.2,0,1.83-.55,1.83-1.23,0-2.46-8.3-.68-8.3-6.28,0-2.59,2.21-4.72,6.2-4.72s6.11,2.18,6.42,5.19h-4.31c-.14-1.04-.93-1.72-2.24-1.72-1.09,0-1.69.44-1.69,1.17,0,2.43,8.24.71,8.33,6.39,0,2.65-2.35,4.64-6.17,4.64Z"/>
    <path d="m633.48,116.92c-4.12,0-7.34-2.05-7.48-5.92h4.97c.14,1.47,1.06,2.18,2.38,2.18s2.24-.68,2.24-1.8c0-3.55-9.58-1.64-9.53-8.44,0-3.63,2.98-5.65,6.99-5.65s6.99,2.07,7.18,5.73h-5.05c-.08-1.23-.96-1.96-2.21-1.99-1.12-.03-1.97.54-1.97,1.75,0,3.33,9.47,1.83,9.47,8.24,0,3.22-2.51,5.9-6.99,5.9Z"/>
    <path d="m650.1,116.95c-4.48,0-7.7-3-7.7-7.83s3.17-7.83,7.7-7.83,7.59,2.95,7.59,7.59c0,.44-.03.9-.08,1.37h-10.56c.16,1.99,1.39,2.92,2.89,2.92,1.31,0,2.05-.65,2.43-1.47h4.97c-.74,2.98-3.44,5.27-7.23,5.27Zm-3.03-9.31h5.84c0-1.67-1.31-2.62-2.87-2.62s-2.7.93-2.98,2.62Z"/>
    <path d="m660.88,105.37h-1.86v-3.88h1.86v-3.71h4.67v3.71h3.06v3.88h-3.06v6.12c0,.9.38,1.28,1.42,1.28h1.67v3.96h-2.38c-3.17,0-5.38-1.34-5.38-5.29v-6.06Z"/>
    <path d="m686.27,116.73h-4.67v-2.07c-.93,1.31-2.57,2.24-4.61,2.24-3.52,0-5.9-2.43-5.9-6.5v-8.9h4.64v8.27c0,2.08,1.17,3.22,2.92,3.22s2.95-1.15,2.95-3.22v-8.27h4.67v15.23Z"/>
    <path d="m698.99,101.28c3.74,0,6.71,3,6.71,7.81s-2.97,7.86-6.71,7.86c-2.24,0-3.85-1.06-4.7-2.35v9.39h-4.67v-22.49h4.67v2.16c.85-1.34,2.46-2.38,4.7-2.38Zm-1.39,4.07c-1.75,0-3.33,1.34-3.33,3.77s1.58,3.77,3.33,3.77,3.36-1.36,3.36-3.79-1.58-3.74-3.36-3.74Z"/>
  </g>
  <g>
    <path d="m895.25,97.57h4.67v19.16h-4.67v-19.16Z"/>
    <path d="m913.82,108.46c0-2.07-1.15-3.22-2.92-3.22s-2.92,1.15-2.92,3.22v8.27h-4.67v-15.23h4.67v2.02c.93-1.28,2.57-2.18,4.61-2.18,3.52,0,5.87,2.4,5.87,6.5v8.9h-4.64v-8.27Z"/>
    <path d="m922.44,105.37h-1.86v-3.88h1.86v-3.71h4.67v3.71h3.06v3.88h-3.06v6.12c0,.9.38,1.28,1.42,1.28h1.67v3.96h-2.38c-3.17,0-5.38-1.34-5.38-5.29v-6.06Z"/>
    <path d="m939.55,116.95c-4.48,0-7.7-3-7.7-7.83s3.17-7.83,7.7-7.83,7.59,2.95,7.59,7.59c0,.44-.03.9-.08,1.37h-10.56c.16,1.99,1.39,2.92,2.89,2.92,1.31,0,2.05-.65,2.43-1.47h4.97c-.74,2.98-3.44,5.27-7.23,5.27Zm-3.03-9.31h5.84c0-1.67-1.31-2.62-2.87-2.62s-2.7.93-2.98,2.62Z"/>
    <path d="m955.38,101.28c2.24,0,3.88,1.01,4.7,2.38v-2.16h4.67v15.21c0,4.07-2.35,7.54-7.62,7.54-4.53,0-7.48-2.29-7.89-5.92h4.61c.3,1.15,1.45,1.88,3.06,1.88,1.77,0,3.17-.93,3.17-3.49v-2.16c-.85,1.34-2.46,2.4-4.7,2.4-3.74,0-6.71-3.06-6.71-7.86s2.98-7.81,6.71-7.81Zm1.37,4.07c-1.75,0-3.33,1.31-3.33,3.74s1.58,3.79,3.33,3.79,3.33-1.34,3.33-3.77-1.56-3.77-3.33-3.77Z"/>
    <path d="m972.79,116.73h-4.67v-15.23h4.67v2.54c1.06-1.61,2.73-2.7,4.78-2.7v4.94h-1.28c-2.21,0-3.49.76-3.49,3.38v7.07Z"/>
    <path d="m985.59,101.28c2.27,0,3.88,1.04,4.7,2.38v-2.16h4.67v15.23h-4.67v-2.16c-.85,1.34-2.46,2.38-4.72,2.38-3.71,0-6.69-3.06-6.69-7.86s2.98-7.81,6.71-7.81Zm1.37,4.07c-1.75,0-3.33,1.31-3.33,3.74s1.58,3.79,3.33,3.79,3.33-1.34,3.33-3.77-1.56-3.77-3.33-3.77Z"/>
    <path d="m999.08,105.37h-1.86v-3.88h1.86v-3.71h4.67v3.71h3.06v3.88h-3.06v6.12c0,.9.38,1.28,1.42,1.28h1.67v3.96h-2.38c-3.17,0-5.38-1.34-5.38-5.29v-6.06Z"/>
    <path d="m1008.98,97.4c0-1.42,1.12-2.54,2.78-2.54s2.76,1.12,2.76,2.54-1.12,2.51-2.76,2.51-2.78-1.12-2.78-2.51Zm.44,4.09h4.67v15.23h-4.67v-15.23Z"/>
    <path d="m1024.4,116.95c-4.48,0-7.86-3-7.86-7.83s3.47-7.83,7.92-7.83,7.92,3,7.92,7.83-3.49,7.83-7.97,7.83Zm0-4.04c1.67,0,3.22-1.23,3.22-3.79s-1.53-3.79-3.17-3.79-3.17,1.2-3.17,3.79,1.42,3.79,3.11,3.79Z"/>
    <path d="m1045.37,108.46c0-2.07-1.15-3.22-2.92-3.22s-2.92,1.15-2.92,3.22v8.27h-4.67v-15.23h4.67v2.02c.93-1.28,2.57-2.18,4.61-2.18,3.52,0,5.87,2.4,5.87,6.5v8.9h-4.64v-8.27Z"/>
  </g>
  <g>
    <path d="m1273.76,109.85h-2.89v6.88h-4.67v-19.16h7.56c4.7,0,7.04,2.65,7.04,6.17,0,3.17-2.16,6.11-7.04,6.11Zm-.35-3.71c1.86,0,2.65-.93,2.65-2.4s-.79-2.4-2.65-2.4h-2.54v4.8h2.54Z"/>
    <path d="m1287.89,116.73h-4.67v-15.23h4.67v2.54c1.06-1.61,2.73-2.7,4.78-2.7v4.94h-1.28c-2.21,0-3.49.76-3.49,3.38v7.07Z"/>
    <path d="m1301.84,116.95c-4.48,0-7.86-3-7.86-7.83s3.47-7.83,7.92-7.83,7.92,3,7.92,7.83-3.49,7.83-7.97,7.83Zm0-4.04c1.67,0,3.22-1.23,3.22-3.79s-1.53-3.79-3.17-3.79-3.17,1.2-3.17,3.79,1.42,3.79,3.11,3.79Z"/>
    <path d="m1319.01,101.28c3.82,0,6.52,2.1,7.32,5.73h-4.97c-.38-1.06-1.15-1.75-2.43-1.75-1.67,0-2.81,1.31-2.81,3.85s1.15,3.85,2.81,3.85c1.28,0,2.02-.63,2.43-1.75h4.97c-.79,3.52-3.49,5.73-7.32,5.73-4.48,0-7.64-3-7.64-7.83s3.17-7.83,7.64-7.83Z"/>
    <path d="m1335.57,116.95c-4.48,0-7.7-3-7.7-7.83s3.17-7.83,7.7-7.83,7.59,2.95,7.59,7.59c0,.44-.03.9-.08,1.37h-10.56c.16,1.99,1.39,2.92,2.89,2.92,1.31,0,2.05-.65,2.43-1.47h4.97c-.74,2.98-3.44,5.27-7.23,5.27Zm-3.03-9.31h5.84c0-1.67-1.31-2.62-2.87-2.62s-2.7.93-2.98,2.62Z"/>
    <path d="m1351.81,116.95c-4.07,0-6.8-2.27-7.01-5.21h4.61c.11,1.07,1.06,1.77,2.35,1.77,1.2,0,1.83-.55,1.83-1.23,0-2.46-8.3-.68-8.3-6.28,0-2.59,2.21-4.72,6.2-4.72s6.12,2.18,6.42,5.19h-4.31c-.14-1.04-.93-1.72-2.24-1.72-1.09,0-1.69.44-1.69,1.17,0,2.43,8.24.71,8.33,6.39,0,2.65-2.35,4.64-6.17,4.64Z"/>
    <path d="m1367.04,116.95c-4.07,0-6.8-2.27-7.02-5.21h4.61c.11,1.07,1.06,1.77,2.35,1.77,1.2,0,1.83-.55,1.83-1.23,0-2.46-8.3-.68-8.3-6.28,0-2.59,2.21-4.72,6.2-4.72s6.12,2.18,6.42,5.19h-4.31c-.14-1.04-.93-1.72-2.24-1.72-1.09,0-1.69.44-1.69,1.17,0,2.43,8.24.71,8.33,6.39,0,2.65-2.35,4.64-6.17,4.64Z"/>
    <path d="m1375.64,97.4c0-1.42,1.12-2.54,2.78-2.54s2.76,1.12,2.76,2.54-1.12,2.51-2.76,2.51-2.78-1.12-2.78-2.51Zm.44,4.09h4.67v15.23h-4.67v-15.23Z"/>
    <path d="m1394.64,108.46c0-2.07-1.15-3.22-2.92-3.22s-2.92,1.15-2.92,3.22v8.27h-4.67v-15.23h4.67v2.02c.93-1.28,2.57-2.18,4.61-2.18,3.52,0,5.87,2.4,5.87,6.5v8.9h-4.64v-8.27Z"/>
    <path d="m1408.31,101.28c2.24,0,3.88,1.01,4.7,2.38v-2.16h4.67v15.21c0,4.07-2.35,7.54-7.62,7.54-4.53,0-7.48-2.29-7.89-5.92h4.61c.3,1.15,1.45,1.88,3.06,1.88,1.77,0,3.17-.93,3.17-3.49v-2.16c-.85,1.34-2.46,2.4-4.7,2.4-3.74,0-6.71-3.06-6.71-7.86s2.98-7.81,6.71-7.81Zm1.37,4.07c-1.75,0-3.33,1.31-3.33,3.74s1.58,3.79,3.33,3.79,3.33-1.34,3.33-3.77-1.56-3.77-3.33-3.77Z"/>
  </g>
  <g>
    <path d="m1612.36,97.57c4.7,0,7.04,2.7,7.04,6.03,0,2.4-1.31,4.67-4.26,5.54l4.42,7.59h-5.27l-3.99-7.23h-1.12v7.23h-4.67v-19.16h7.83Zm-.27,3.88h-2.89v4.75h2.89c1.75,0,2.57-.9,2.57-2.4,0-1.42-.82-2.35-2.57-2.35Z"/>
    <path d="m1629.09,116.95c-4.48,0-7.7-3-7.7-7.83s3.17-7.83,7.7-7.83,7.59,2.95,7.59,7.59c0,.44-.03.9-.08,1.37h-10.56c.16,1.99,1.39,2.92,2.89,2.92,1.31,0,2.05-.65,2.43-1.47h4.97c-.74,2.98-3.44,5.27-7.23,5.27Zm-3.03-9.31h5.84c0-1.67-1.31-2.62-2.87-2.62s-2.7.93-2.98,2.62Z"/>
    <path d="m1648.5,101.28c3.74,0,6.71,3,6.71,7.81s-2.97,7.86-6.71,7.86c-2.24,0-3.85-1.06-4.7-2.35v9.39h-4.67v-22.49h4.67v2.16c.85-1.34,2.46-2.38,4.7-2.38Zm-1.39,4.07c-1.75,0-3.33,1.34-3.33,3.77s1.58,3.77,3.33,3.77,3.36-1.36,3.36-3.79-1.58-3.74-3.36-3.74Z"/>
    <path d="m1664.6,116.95c-4.48,0-7.86-3-7.86-7.83s3.47-7.83,7.92-7.83,7.92,3,7.92,7.83-3.49,7.83-7.97,7.83Zm0-4.04c1.67,0,3.22-1.23,3.22-3.79s-1.53-3.79-3.17-3.79-3.17,1.2-3.17,3.79,1.42,3.79,3.11,3.79Z"/>
    <path d="m1679.72,116.73h-4.67v-15.23h4.67v2.54c1.06-1.61,2.73-2.7,4.78-2.7v4.94h-1.28c-2.21,0-3.49.76-3.49,3.38v7.07Z"/>
    <path d="m1687.47,105.37h-1.86v-3.88h1.86v-3.71h4.67v3.71h3.06v3.88h-3.06v6.12c0,.9.38,1.28,1.42,1.28h1.67v3.96h-2.38c-3.17,0-5.38-1.34-5.38-5.29v-6.06Z"/>
    <path d="m1697.38,97.4c0-1.42,1.12-2.54,2.78-2.54s2.76,1.12,2.76,2.54-1.12,2.51-2.76,2.51-2.78-1.12-2.78-2.51Zm.44,4.09h4.67v15.23h-4.67v-15.23Z"/>
    <path d="m1716.38,108.46c0-2.07-1.15-3.22-2.92-3.22s-2.92,1.15-2.92,3.22v8.27h-4.67v-15.23h4.67v2.02c.93-1.28,2.57-2.18,4.61-2.18,3.52,0,5.87,2.4,5.87,6.5v8.9h-4.64v-8.27Z"/>
    <path d="m1730.05,101.28c2.24,0,3.88,1.01,4.7,2.38v-2.16h4.67v15.21c0,4.07-2.35,7.54-7.62,7.54-4.53,0-7.48-2.29-7.89-5.92h4.61c.3,1.15,1.45,1.88,3.06,1.88,1.77,0,3.17-.93,3.17-3.49v-2.16c-.85,1.34-2.46,2.4-4.7,2.4-3.74,0-6.71-3.06-6.71-7.86s2.98-7.81,6.71-7.81Zm1.37,4.07c-1.75,0-3.33,1.31-3.33,3.74s1.58,3.79,3.33,3.79,3.33-1.34,3.33-3.77-1.56-3.77-3.33-3.77Z"/>
    <path d="m1754.86,122.43c-3.52-3.38-5.6-9.04-5.6-15.2s2.07-11.96,5.87-15.42h4.59v.44c-3.9,3.85-5.98,9.5-5.98,14.99s2.08,10.97,5.73,14.77v.44h-4.61Z"/>
    <path d="m1761.6,97.57h5.51l5.38,13.27,5.32-13.27h5.49v19.16h-4.67v-11.49l-4.29,11.49h-3.77l-4.31-11.52v11.52h-4.67v-19.16Z"/>
    <path d="m1786.65,97.57h4.67v19.16h-4.67v-19.16Z"/>
    <path d="m1801.64,116.92c-4.12,0-7.34-2.05-7.48-5.92h4.97c.14,1.47,1.07,2.18,2.38,2.18s2.24-.68,2.24-1.8c0-3.55-9.58-1.64-9.53-8.44,0-3.63,2.98-5.65,6.99-5.65s6.99,2.07,7.18,5.73h-5.05c-.08-1.23-.96-1.96-2.21-1.99-1.12-.03-1.97.54-1.97,1.75,0,3.33,9.47,1.83,9.47,8.24,0,3.22-2.51,5.9-6.99,5.9Z"/>
    <path d="m1810.23,122.43v-.44c3.66-3.79,5.73-9.23,5.73-14.77s-2.07-11.14-5.98-14.99v-.44h4.59c3.79,3.47,5.87,9.25,5.87,15.42s-2.08,11.82-5.6,15.2h-4.61Z"/>
  </g>
  <text/>
</svg>