<?xml version="1.0" encoding="UTF-8"?>
<svg id="Layer_1" data-name="Layer 1" xmlns="http://www.w3.org/2000/svg" viewBox="0 0 500 500">
  <defs>
    <style>
      .cls-1 {
        fill: #fff;
      }

      .cls-2 {
        fill: #5a6267;
      }
    </style>
  </defs>
  <circle class="cls-2" cx="250" cy="251.27" r="234.63"/>
  <g>
    <path class="cls-1" d="m304.74,373.11c-2.96-.41-5.95-.72-8.89-1.26-8.51-1.55-16.12-.11-22.63,6.02-2.4,2.26-5.14,4.22-7.95,5.96-10.39,6.44-20.87,6.2-31.18-.2-2.71-1.69-5.33-3.63-7.66-5.82-6.52-6.12-14.12-7.34-22.66-6.01-4.61.72-9.4,1.06-14.04.69-12.87-1.04-19.22-9.9-23.67-20.75-.36-.89-.65-1.82-.85-2.76-2.15-10.21-8.67-16-18.48-18.76-3.04-.86-5.93-2.44-8.71-4.01-10.18-5.73-13.99-14.87-13.47-26.13.14-3.09.62-6.18,1.17-9.23,1.41-7.79-.58-14.46-5.63-20.6-3.36-4.09-6.32-8.63-8.76-13.33-3.62-6.96-3.53-14.34,0-21.35,2.05-4.07,4.3-8.27,7.37-11.56,6.97-7.46,8.49-15.82,6.66-25.56-.85-4.54-.76-9.42-.18-14.03,1.49-11.79,10.04-17.53,19.92-21.88.88-.39,1.81-.64,2.73-.95,8.86-2.92,14.73-8.75,17.55-17.72.8-2.53,1.86-5.05,3.19-7.34,7.71-13.26,16.84-17.37,32.91-15.61,1.81.2,3.59.62,5.39.9,7.95,1.22,14.72-1.07,20.68-6.47,2.67-2.42,5.7-4.54,8.82-6.38,9.86-5.82,19.79-5.46,29.49.41,3,1.82,5.91,3.93,8.48,6.32,6.47,6.03,13.98,7.13,22.39,5.88,4.72-.7,9.61-1.05,14.36-.67,12.61,1.02,18.82,9.78,23.3,20.33.33.79.57,1.61.82,2.43,2.85,9.15,8.7,15.31,17.98,18.06.41.12.81.28,1.2.44,17.48,6.98,23.73,17.95,20.46,36.39-1.76,9.94-.26,18.45,7.06,25.67,1.21,1.19,2.28,2.59,3.18,4.03,8.38,13.36,8.47,22.56-.22,36.09-1.38,2.15-2.83,4.28-4.45,6.25-6,7.31-6.7,15.57-5.2,24.57.76,4.57.77,9.42.22,14.03-1.39,11.69-9.54,18.2-19.65,21.55-11.15,3.7-17.65,10.42-21.77,21.43-5.57,14.87-14.72,20.73-29.24,20.91Zm40.74-126.6c0-52.24-42.69-94.98-94.89-95.04-52.72-.06-95.47,42.47-95.52,95.05-.05,52.51,42.57,95.36,94.87,95.39,52.82.03,95.56-42.64,95.55-95.4Z"/>
    <path class="cls-1" d="m250.29,326.46c-44,.02-79.76-35.74-79.78-79.75-.02-43.88,35.67-79.75,79.4-79.8,44.37-.05,80.18,35.75,80.13,80.09-.05,43.75-35.88,79.45-79.75,79.46Zm-8.93-72.91c-6.51-6.76-12.18-12.76-17.99-18.62-3.65-3.68-8.17-3.81-11.42-.6-3.19,3.16-3.07,7.88.49,11.42,7.68,7.63,15.4,15.23,23.18,22.76,3.66,3.54,7.7,3.53,11.37-.04,13.82-13.46,27.61-26.96,41.32-40.55,1.2-1.19,2.1-3.02,2.44-4.7.66-3.23-1.08-6.29-3.88-7.8-3.04-1.63-6.41-1.23-9.16,1.43-6.94,6.71-13.84,13.45-20.63,20.3-5.12,5.16-10.07,10.49-15.71,16.4Z"/>
  </g>
</svg>