<?xml version="1.0" encoding="UTF-8"?>
<svg id="Layer_1" data-name="Layer 1" xmlns="http://www.w3.org/2000/svg" xmlns:xlink="http://www.w3.org/1999/xlink" viewBox="0 0 950.82 631.9">
  <defs>
    <style>
      .cls-1 {
        fill: none;
      }

      .cls-2 {
        clip-path: url(#clippath);
      }

      .cls-3 {
        font-family: BebasNeuePro-Bold, 'Bebas Neue Pro';
        font-size: 48px;
        font-weight: 700;
      }

      .cls-4 {
        fill: #fff;
      }

      .cls-5 {
        fill: #e74c3c;
      }

      .cls-6 {
        fill: #ff8f2e;
      }

      .cls-7 {
        fill: #91d5d8;
      }

      .cls-8 {
        fill: #27ae60;
      }

      .cls-9 {
        clip-path: url(#clippath-1);
      }

      .cls-10 {
        clip-path: url(#clippath-4);
      }

      .cls-11 {
        clip-path: url(#clippath-3);
      }

      .cls-12 {
        clip-path: url(#clippath-2);
      }

      .cls-13 {
        clip-path: url(#clippath-7);
      }

      .cls-14 {
        clip-path: url(#clippath-8);
      }

      .cls-15 {
        clip-path: url(#clippath-6);
      }

      .cls-16 {
        clip-path: url(#clippath-5);
      }

      .cls-17 {
        clip-path: url(#clippath-9);
      }

      .cls-18 {
        clip-path: url(#clippath-13);
      }

      .cls-19 {
        clip-path: url(#clippath-12);
      }

      .cls-20 {
        clip-path: url(#clippath-10);
      }

      .cls-21 {
        clip-path: url(#clippath-11);
      }
    </style>
    <clipPath id="clippath">
      <rect class="cls-1" x="136.38" y="267" width="197.18" height="227.95"/>
    </clipPath>
    <clipPath id="clippath-1">
      <polyline class="cls-8" points="136.38 324.2 136.38 438.03 234.97 494.95 333.56 438.03 333.56 324.2 234.97 267.28 136.38 324.2"/>
    </clipPath>
    <clipPath id="clippath-2">
      <rect class="cls-1" x="124.75" y="213.23" width="220.43" height="254.36"/>
    </clipPath>
    <clipPath id="clippath-3">
      <polyline class="cls-1" points="124.75 276.71 124.75 403.97 234.97 467.59 345.18 403.97 345.18 276.71 234.97 213.08 124.75 276.71"/>
    </clipPath>
    <clipPath id="clippath-4">
      <rect class="cls-1" x="380.59" y="341.23" width="197.18" height="233.13"/>
    </clipPath>
    <clipPath id="clippath-5">
      <polyline class="cls-6" points="380.59 398.02 380.59 517.44 479.19 574.35 577.78 517.44 577.78 398.02 479.19 341.11 380.59 398.02"/>
    </clipPath>
    <clipPath id="clippath-6">
      <rect class="cls-1" x="368.97" y="292.44" width="220.44" height="254.83"/>
    </clipPath>
    <clipPath id="clippath-7">
      <polyline class="cls-1" points="368.97 356.38 368.97 483.64 479.19 547.27 589.41 483.64 589.41 356.38 479.19 292.75 368.97 356.38"/>
    </clipPath>
    <clipPath id="clippath-8">
      <rect class="cls-1" x="625.95" y="265.23" width="197.18" height="227.82"/>
    </clipPath>
    <clipPath id="clippath-9">
      <polyline class="cls-1" points="625.95 322.3 625.95 436.13 724.54 493.05 823.13 436.13 823.13 322.3 724.54 265.38 625.95 322.3"/>
    </clipPath>
    <clipPath id="clippath-10">
      <rect class="cls-1" x="625.95" y="274.56" width="197.18" height="227.49"/>
    </clipPath>
    <clipPath id="clippath-11">
      <polyline class="cls-5" points="625.95 331.3 625.95 445.13 724.54 502.05 823.13 445.13 823.13 331.3 724.54 274.38 625.95 331.3"/>
    </clipPath>
    <clipPath id="clippath-12">
      <rect class="cls-1" x="614.32" y="220.14" width="220.43" height="254.83"/>
    </clipPath>
    <clipPath id="clippath-13">
      <polyline class="cls-1" points="614.32 284.08 614.32 411.34 724.54 474.97 834.76 411.34 834.76 284.08 724.54 220.45 614.32 284.08"/>
    </clipPath>
  </defs>
  <g class="cls-2">
    <g>
      <polyline class="cls-8" points="136.38 324.2 136.38 438.03 234.97 494.95 333.56 438.03 333.56 324.2 234.97 267.28 136.38 324.2"/>
      <g class="cls-9">
        <path class="cls-8" d="m136.38,494.95v-227.48h197.18v227.48h-197.18Z"/>
      </g>
    </g>
  </g>
  <g class="cls-12">
    <g class="cls-11">
      <path class="cls-4" d="m124.75,467.59v-254.31h220.43v254.31H124.75Z"/>
    </g>
  </g>
  <g class="cls-10">
    <g>
      <polyline class="cls-6" points="380.59 398.02 380.59 517.44 479.19 574.35 577.78 517.44 577.78 398.02 479.19 341.11 380.59 398.02"/>
      <g class="cls-16">
        <path class="cls-6" d="m380.59,574.35v-233.07h197.18v233.07h-197.18Z"/>
      </g>
    </g>
  </g>
  <g class="cls-15">
    <g class="cls-13">
      <path class="cls-4" d="m368.97,547.27v-254.31h220.44v254.31h-220.44Z"/>
    </g>
  </g>
  <g class="cls-14">
    <g class="cls-17">
      <path class="cls-7" d="m625.95,493.05v-227.48h197.18v227.48h-197.18Z"/>
    </g>
  </g>
  <g class="cls-20">
    <g>
      <polyline class="cls-5" points="625.95 331.3 625.95 445.13 724.54 502.05 823.13 445.13 823.13 331.3 724.54 274.38 625.95 331.3"/>
      <g class="cls-21">
        <path class="cls-5" d="m625.95,502.05v-227.48h197.18v227.48h-197.18Z"/>
      </g>
    </g>
  </g>
  <g class="cls-19">
    <g class="cls-18">
      <g>
        <path class="cls-4" d="m614.32,474.97v-254.31h220.43v254.31h-220.43Z"/>
        <path class="cls-4" d="m614.32,474.97v-254.31h220.43v254.31h-220.43Z"/>
      </g>
    </g>
  </g>
  <text class="cls-3" transform="translate(920.34 485.14)"><tspan x="0" y="0"> </tspan></text>
  <g>
    <path d="m239.96,118.46v-36.6c0-12.37,6.66-19.13,18.72-19.13s18.82,6.76,18.82,19.13v36.6c0,12.27-6.66,19.13-18.82,19.13s-18.72-6.86-18.72-19.13Zm29.22.52v-37.64c0-7.59-3.85-11.13-10.5-11.13s-10.4,3.54-10.4,11.13v37.64c0,7.49,3.74,11.13,10.4,11.13s10.5-3.64,10.5-11.13Z"/>
    <path d="m321.8,84.45v52.1h-6.97l-.1-8.01c-2.29,5.72-7.18,9.05-13.62,9.05-8.73,0-13.41-5.3-13.41-16.22v-36.92h8.11v35.77c0,6.86,2.39,10.29,7.9,10.29,6.14,0,9.98-4.58,9.98-13v-33.07h8.11Z"/>
    <path d="m356.95,84.04v7.9c-1.14-.42-2.29-.52-3.64-.52-7.9,0-11.75,5.3-11.75,16.22v28.91h-8.11v-52.1h6.97l.21,9.15c1.98-6.86,6.13-10.19,12.48-10.19,1.46,0,2.7.1,3.85.62Z"/>
    <path d="m382.94,63.76h33.48v7.49h-25.17v24.12h20.59v7.38h-20.59v26.31h25.17v7.49h-33.48V63.76Z"/>
    <path d="m436.6,109.82l-13.93-25.37h8.94l10.09,19.13,10.19-19.13h8.11l-13.93,25.37,14.56,26.73h-8.84l-10.82-20.69-10.81,20.69h-8.11l14.56-26.73Z"/>
    <path d="m503.15,99.43v21.94c0,10.81-4.89,16.22-13.62,16.22-5.72,0-10.19-2.6-12.79-7.07v22.15h-8.11v-68.22h6.97l.1,8.01c2.39-5.72,7.28-9.05,13.83-9.05,8.74,0,13.62,5.3,13.62,16.01Zm-8.11,1.04c0-6.55-2.5-9.98-8.11-9.98-6.24,0-10.19,4.58-10.19,13v14.04c0,8.32,3.95,13,10.19,13,5.62,0,8.11-3.54,8.11-10.09v-19.97Z"/>
    <path d="m547.14,101.3v10.5h-26.52v8.53c0,6.76,3.22,10.29,9.25,10.29s9.46-3.64,9.46-10.09v-.73h7.8v.42c-.21,11.02-6.34,17.37-17.37,17.37s-17.26-6.45-17.26-17.99v-18.3c0-11.54,6.03-17.89,17.26-17.89s17.37,6.34,17.37,17.89Zm-7.9,4.06v-4.89c0-6.76-3.22-10.09-9.36-10.09s-9.25,3.43-9.25,10.09v4.89h18.61Z"/>
    <path d="m580.73,84.04v7.9c-1.14-.42-2.29-.52-3.64-.52-7.9,0-11.75,5.3-11.75,16.22v28.91h-8.11v-52.1h6.97l.21,9.15c1.98-6.86,6.13-10.19,12.48-10.19,1.46,0,2.7.1,3.85.62Z"/>
    <path d="m601.21,91.21v32.24c0,4.99,1.66,6.86,6.03,6.86,1.56,0,3.22-.21,5.1-.94v6.97c-2.18,1.04-3.95,1.25-6.34,1.25-8.74,0-12.89-4.37-12.89-13.31v-33.07h-7.49v-6.76h7.69l.83-14.87h7.07v14.87h11.13v6.76h-11.13Z"/>
    <path d="m620.97,64.38h8.11v11.65h-8.11v-11.65Zm0,20.07h8.11v52.1h-8.11v-52.1Z"/>
    <path d="m638.23,122.51v-1.77h7.8v1.87c0,5.41,3.22,8.11,8.74,8.11s8.74-2.5,8.74-8.11c0-5.3-4.78-7.07-10.61-9.05-6.97-2.39-14.04-5.51-14.04-15.6,0-9.05,5.93-14.56,15.91-14.56,9.46,0,15.7,5.41,15.7,14.45v1.04h-7.59v-1.14c0-5.1-3.02-7.59-8.11-7.59-4.58,0-8.01,2.39-8.01,7.59s4.68,7.17,10.71,9.25c6.76,2.39,13.93,5.41,13.93,15.39,0,9.46-5.82,15.18-16.22,15.18s-16.95-5.62-16.95-15.08Z"/>
    <path d="m714.04,101.3v10.5h-26.52v8.53c0,6.76,3.22,10.29,9.25,10.29s9.46-3.64,9.46-10.09v-.73h7.8v.42c-.21,11.02-6.34,17.37-17.37,17.37s-17.26-6.45-17.26-17.99v-18.3c0-11.54,6.03-17.89,17.26-17.89s17.37,6.34,17.37,17.89Zm-7.9,4.06v-4.89c0-6.76-3.22-10.09-9.36-10.09s-9.25,3.43-9.25,10.09v4.89h18.61Z"/>
  </g>
  <g>
    <path d="m173.27,361.67h6.27c4.25,0,6.34,2.36,6.34,6.69v2.67c0,4.33-2.09,6.69-6.34,6.69h-2.01v11.02h-4.25v-27.07Zm6.27,12.18c1.35,0,2.09-.62,2.09-2.55v-3.21c0-1.93-.73-2.55-2.09-2.55h-2.01v8.32h2.01Z"/>
    <path d="m196.79,368.86v3.98c-.31-.08-.7-.12-1.04-.12-2.28,0-3.48,1.59-3.48,4.64v11.37h-4.1v-19.72h3.56l.08,3.33c.54-2.48,1.82-3.71,3.83-3.71.5,0,.85.08,1.16.23Z"/>
    <path d="m198.22,382.71v-7.66c0-4.1,2.17-6.42,6.03-6.42s6.03,2.32,6.03,6.42v7.66c0,4.1-2.17,6.42-6.03,6.42s-6.03-2.32-6.03-6.42Zm7.97.39v-8.43c0-1.35-.43-2.4-1.93-2.4s-1.93,1.04-1.93,2.4v8.43c0,1.39.46,2.4,1.93,2.4s1.93-1.01,1.93-2.4Z"/>
    <path d="m225.14,374.39v8.97c0,4.06-1.74,5.76-4.49,5.76-1.47,0-2.67-.66-3.48-1.82v7.43h-4.1v-25.72h3.56l.08,2.32c.7-1.7,2.17-2.71,3.95-2.71,2.75,0,4.49,1.7,4.49,5.76Zm-4.1.27c0-1.35-.39-2.4-1.74-2.4-1.16,0-2.13.85-2.13,3.17v6.88c0,2.32.97,3.17,2.13,3.17,1.35,0,1.74-1.04,1.74-2.4v-8.43Z"/>
    <path d="m239.8,375.05v4.72h-8.04v3.33c0,1.74.7,2.4,2.05,2.4s2.05-.66,2.05-2.4v-.74h3.94v.35c0,4.1-2.13,6.42-6.07,6.42s-6.07-2.32-6.07-6.42v-7.66c0-4.1,2.13-6.42,6.07-6.42s6.07,2.32,6.07,6.42Zm-4.02,1.47v-1.86c0-1.74-.73-2.4-2.01-2.4s-2.01.66-2.01,2.4v1.86h4.02Z"/>
    <path d="m251.13,368.86v3.98c-.31-.08-.7-.12-1.04-.12-2.28,0-3.48,1.59-3.48,4.64v11.37h-4.1v-19.72h3.56l.08,3.33c.54-2.48,1.82-3.71,3.83-3.71.5,0,.85.08,1.16.23Z"/>
    <path d="m258.56,372.5v11.29c0,1.24.43,1.7,1.59,1.7.43,0,.89-.08,1.39-.23v3.48c-.7.27-1.39.39-2.24.39-3.25,0-4.84-1.59-4.84-4.8v-11.83h-2.24v-3.48h2.44l.39-5.34h3.52v5.34h2.98v3.48h-2.98Z"/>
    <path d="m263.67,394.73v-3.48c.46.15.97.23,1.51.23,1.39,0,1.9-.39,2.17-1.66l.08-.27-4.76-20.54h4.18l2.63,13.57,2.36-13.57h3.83l-4.37,21.43c-.7,3.37-2.24,4.68-5.41,4.68-.74,0-1.51-.08-2.2-.39Z"/>
    <path d="m296.35,376.83v6.23c0,2.63.19,4.33.54,5.69h-3.79c-.16-.23-.31-1.2-.35-2.36-.81,1.74-2.44,2.75-4.45,2.75-2.9,0-4.76-1.74-4.76-5.76v-3.02c0-2.75.85-4.72,3.13-5.57v-.08c-2.13-.77-3.02-2.59-3.02-5.45v-1.28c0-4.33,2.17-6.69,6.34-6.69s6.34,2.4,6.34,6.73v1.01h-3.95v-1.35c0-1.82-.85-2.59-2.24-2.59s-2.32.81-2.32,2.78v2.28c0,1.93.77,2.9,2.78,2.9h6.92v3.79h-1.2Zm-4.1,0h-1.7c-1.62,0-2.82.62-2.82,3.48v2.78c0,1.24.46,2.36,2.01,2.36,1.35,0,2.51-.81,2.51-3.13v-5.49Z"/>
    <path d="m181.39,423.3v-14.54c0-4.18,2.17-6.65,6.27-6.65s6.27,2.48,6.27,6.65v2.86h-4.02v-3.13c0-1.78-.85-2.51-2.13-2.51s-2.13.73-2.13,2.51v15.12c0,1.78.85,2.48,2.13,2.48s2.13-.7,2.13-2.48v-3.95h4.02v3.64c0,4.18-2.17,6.65-6.27,6.65s-6.27-2.48-6.27-6.65Z"/>
    <path d="m204.56,429.57c-.12-.23-.27-1.08-.31-2.32-.73,1.74-2.2,2.71-4.18,2.71-2.63,0-4.29-1.9-4.29-4.95s1.28-4.87,4.76-6.57c2.82-1.39,3.21-1.74,3.21-2.82v-.39c0-1.59-.5-2.24-1.66-2.24-1.28,0-1.86.81-1.86,2.28v.73h-3.87v-.5c0-3.83,1.97-6.03,5.76-6.03,4.1,0,5.72,2.17,5.72,6.5v7.93c0,2.78.19,4.56.46,5.69h-3.75Zm-.81-6.42v-3.36c-.31.39-.93.77-2.01,1.47-1.24.77-1.86,1.78-1.86,3.06,0,1.39.58,2.13,1.74,2.13,1.39,0,2.13-1.12,2.13-3.29Z"/>
    <path d="m210.21,423.92v-.62h3.95v.73c0,1.78.77,2.4,1.82,2.4s1.78-.58,1.78-2.13-1.32-2.24-2.86-3.13c-2.09-1.2-4.49-2.55-4.49-6.27,0-3.29,1.9-5.45,5.53-5.45,3.37,0,5.53,2.17,5.53,5.76v.43h-3.87v-.54c0-1.59-.62-2.13-1.62-2.13-.85,0-1.59.5-1.59,1.86,0,1.62,1.39,2.48,3.02,3.36,2.09,1.16,4.41,2.51,4.41,6.03s-1.9,5.72-5.65,5.72-5.96-2.24-5.96-6.03Z"/>
    <path d="m236.08,409.85v19.72h-3.56l-.08-2.28c-.7,1.7-2.13,2.67-3.94,2.67-2.75,0-4.41-1.7-4.41-5.76v-14.35h4.1v13.88c0,1.7.46,2.59,1.7,2.59,1.16,0,2.09-.81,2.09-3.17v-13.3h4.1Z"/>
    <path d="m247.22,429.57c-.12-.23-.27-1.08-.31-2.32-.73,1.74-2.2,2.71-4.18,2.71-2.63,0-4.29-1.9-4.29-4.95s1.28-4.87,4.76-6.57c2.82-1.39,3.21-1.74,3.21-2.82v-.39c0-1.59-.5-2.24-1.66-2.24-1.28,0-1.86.81-1.86,2.28v.73h-3.87v-.5c0-3.83,1.97-6.03,5.76-6.03,4.1,0,5.72,2.17,5.72,6.5v7.93c0,2.78.19,4.56.46,5.69h-3.75Zm-.81-6.42v-3.36c-.31.39-.93.77-2.01,1.47-1.24.77-1.86,1.78-1.86,3.06,0,1.39.58,2.13,1.74,2.13,1.39,0,2.13-1.12,2.13-3.29Z"/>
    <path d="m253.65,402.5h4.1v27.07h-4.1v-27.07Z"/>
    <path d="m266.14,413.33v11.29c0,1.24.43,1.7,1.59,1.7.43,0,.89-.08,1.39-.23v3.48c-.7.27-1.39.39-2.24.39-3.25,0-4.84-1.59-4.84-4.8v-11.83h-2.24v-3.48h2.44l.39-5.34h3.52v5.34h2.98v3.48h-2.98Z"/>
    <path d="m271.25,435.56v-3.48c.46.15.97.23,1.51.23,1.39,0,1.9-.39,2.17-1.66l.08-.27-4.76-20.54h4.18l2.63,13.57,2.36-13.57h3.83l-4.37,21.43c-.7,3.37-2.24,4.68-5.41,4.68-.74,0-1.51-.08-2.2-.39Z"/>
  </g>
  <g>
    <path d="m433.07,451.23h5v14h6v-14h5v34h-5v-15h-6v15h-5v-34Z"/>
    <path d="m468.07,468.76v5.46h-10v3.85c0,2.02.85,2.78,2.5,2.78s2.5-.76,2.5-2.78v-.85h5v.4c0,4.75-2.63,7.43-7.5,7.43s-7.5-2.69-7.5-7.43v-8.87c0-4.75,2.63-7.43,7.5-7.43s7.5,2.69,7.5,7.43Zm-5,1.46v-2.3c0-2.16-.91-2.98-2.5-2.98s-2.5.82-2.5,2.98v2.3h5Z"/>
    <path d="m481,485.23c-.13-.29-.31-1.36-.35-2.91-.84,2.18-2.51,3.39-4.75,3.39-2.99,0-4.88-2.37-4.88-6.2s1.45-6.1,5.41-8.23c3.21-1.74,3.65-2.18,3.65-3.54v-.48c0-1.99-.57-2.81-1.89-2.81-1.45,0-2.11,1.02-2.11,2.86v.92h-5v-.63c0-4.79,2.4-7.56,7.02-7.56,5,0,6.98,2.71,6.98,8.14v9.93c0,3.49.24,5.71.57,7.12h-4.64Zm-.92-8.06v-4.18c-.38.48-1.15.96-2.5,1.82-1.54.96-2.3,2.21-2.3,3.79,0,1.73.72,2.64,2.16,2.64,1.73,0,2.64-1.39,2.64-4.08Z"/>
    <path d="m489.07,451.23h5v34h-5v-34Z"/>
    <path d="m505.07,465.23v12.98c0,1.42.57,1.96,2.13,1.96.57,0,1.2-.09,1.87-.27v5.31c-.89.34-1.77.49-2.85.49-4.13,0-6.15-2.02-6.15-6.1v-14.37h-3v-4h3.07l.49-7h4.44v7h4v4h-4Z"/>
    <path d="m526.07,467.21v18.02h-5v-17.23c0-2.11-.61-3.22-2.25-3.22-1.53,0-2.75,1.01-2.75,3.94v16.51h-5v-34h5v10.98c.98-1.46,2.55-2.23,4.41-2.23,3.48,0,5.59,2.14,5.59,7.24Z"/>
  </g>
  <g>
    <path d="m666.07,362.23h7.49s7.83,2.84,7.51,8.02v1.34c.31,3.46-3,6.58-3,6.58v.04c2.88.98,4,3.51,4,7.12v2.83c0,5.25-2.68,8.06-7.86,8.06h-8.14v-34Zm6.97,14c1.88,0,3.03-.88,3.03-3.6v-1.9c0-2.43-.78-3.5-2.57-3.5h-2.43v9h1.97Zm1.18,15c1.85,0,2.85-.79,2.85-3.21v-2.84c0-3.02-1.05-3.95-3.55-3.95h-2.45v10h3.15Z"/>
    <path d="m699.07,379.76v5.46h-9v3.85c0,2.02.85,2.78,2.5,2.78s2.5-.76,2.5-2.78v-.85h4v.4c0,4.75-2.63,7.43-7.5,7.43s-7.5-2.69-7.5-7.43v-8.87c0-4.75,2.63-7.43,7.5-7.43s7.5,2.69,7.5,7.43Zm-4,1.46v-2.3c0-2.16-.91-2.98-2.5-2.98s-2.5.82-2.5,2.98v2.3h5Z"/>
    <path d="m718.07,378.77v17.46h-5v-17.23c0-2.11-.61-3.22-2.25-3.22-1.53,0-2.75,1.01-2.75,3.94v16.51h-5v-24h4.45l.1,2.78c.87-2.07,2.66-3.25,4.94-3.25,3.44,0,5.52,2.07,5.52,7.01Z"/>
    <path d="m736.07,379.76v5.46h-10v3.85c0,2.02.85,2.78,2.5,2.78s2.5-.76,2.5-2.78v-.85h5v.4c0,4.75-2.63,7.43-7.5,7.43s-7.5-2.69-7.5-7.43v-8.87c0-4.75,2.63-7.43,7.5-7.43s7.5,2.69,7.5,7.43Zm-5,1.46v-2.3c0-2.16-.91-2.98-2.5-2.98s-2.5.82-2.5,2.98v2.3h5Z"/>
    <path d="m747.22,362.63c1.08,0,1.97.14,2.85.48v4.68c-.68-.18-1.3-.27-1.87-.27-1.56,0-2.13.53-2.13,1.96v2.75h4v4h-4v20h-5v-20h-3v-4h3v-3.65c0-3.98,2.02-5.95,6.15-5.95Zm9.85.6v6h-5v-6h5Zm-5,9h5v24h-5v-24Z"/>
    <path d="m768.07,376.23v12.98c0,1.42.57,1.96,2.13,1.96.57,0,1.19-.09,1.87-.27v5.29c-.89.34-1.77.49-2.85.49-4.13,0-6.15-2.02-6.15-6.1v-14.35h-3v-4h3.07l.49-7h4.44v7h4v4h-4Z"/>
    <path d="m773.07,389.41v-1.19s5,0,5,0v.96c0,2.32.95,3.13,2.24,3.13s2.19-.76,2.19-2.78-1.62-2.93-3.52-4.09c-2.57-1.57-5.52-3.33-5.52-8.18,0-4.29,2.33-7.12,6.81-7.12,4.14,0,6.81,2.83,6.81,7.52v.56h-5v-.71c0-2.07-.75-2.78-1.98-2.78-1.04,0-1.93.66-1.93,2.42,0,2.12,1.7,3.23,3.68,4.39,2.54,1.52,5.37,3.28,5.37,7.88s-2.23,7.37-6.64,7.47c-4.14.1-7.5-3.36-7.5-7.5Z"/>
  </g>
  <g>
    <path class="cls-8" d="m284.76,341.36h-92.67v-5.43h9.35v-1.29c0-21.81,0-43.63-.02-65.44,0-.81.17-1.12,1.03-1.26,7.79-1.26,15.58-2.57,23.36-3.87,3.27-.54,6.53-1.09,9.93-1.65v73.47h5.42v-60.68h34.26v60.75h9.35v5.42Zm-56.91-5.48v-13.12h-18.53v13.11h5.38v-7.67h7.8v7.68h5.35Zm.2-66.13h-5.69v5.3h5.69v-5.3Zm-.02,39.78h-5.68v5.3h5.68v-5.3Zm20.81-.04v5.34h5.63v-5.34h-5.63Zm5.66,13.26h-5.67v5.33h5.67v-5.33Zm13.21,5.35v-5.35h-5.64v5.35h5.64Zm-52.9-45.09h-5.66v5.29h5.66v-5.29Zm7.54,5.32h5.66v-5.32h-5.66v5.32Zm26.47-5.33v5.31h5.67v-5.31h-5.67Zm13.23,5.32h5.67v-5.28h-5.67v5.28Zm-52.92,13.26h5.66v-5.3h-5.66v5.3Zm18.93-5.28h-5.7v5.29h5.7v-5.29Zm26.45-.01h-5.69v5.31h5.69v-5.31Zm13.22,5.33v-5.34h-5.64v5.34h5.64Zm-52.93,7.91h-5.66v5.32h5.66v-5.32Zm47.3-.03v5.35h5.62v-5.35h-5.62Z"/>
    <path class="cls-8" d="m208.08,261.42v-12.68h20.93c.02.16.07.33.07.5,0,2.68,0,5.37.01,8.05,0,.48-.08.74-.65.84-6.72,1.1-13.43,2.22-20.14,3.34-.05,0-.11-.02-.21-.05Z"/>
  </g>
  <g>
    <path class="cls-6" d="m436.32,373.99c0-5.9,0-11.8,0-17.71,0-1.56.3-1.93,1.86-2.16,13.81-2.03,27.04-5.98,39.73-11.8.47-.22,1.22-.21,1.69,0,7.68,3.57,15.61,6.46,23.82,8.5,5.31,1.32,10.72,2.23,16.1,3.31,1.23.25,1.64.66,1.64,1.89,0,10.95.17,21.91-.06,32.85-.32,15-6.99,26.65-19.43,34.98-6.79,4.54-14.28,7.46-22.29,8.98-.82.16-1.75-.06-2.6-.25-9.36-2.1-17.97-5.83-25.38-12.03-8.51-7.12-13.52-16.21-14.67-27.27-.41-3.91-.3-7.87-.39-11.81-.05-2.49,0-4.99,0-7.48Zm42.39,40.79c15.03,0,27.28-12.24,27.28-27.28,0-15.01-12.19-27.23-27.19-27.26-15.04-.04-27.3,12.18-27.33,27.22-.02,15.04,12.21,27.31,27.24,27.32Z"/>
    <path class="cls-6" d="m472.67,393.57c-2.4,0-4.7,0-6.99,0-1.62,0-2.09-.47-2.09-2.07,0-2.71,0-5.43,0-8.14,0-1.37.53-1.9,1.88-1.91,2.36,0,4.72,0,7.21,0,0-.55,0-1.04,0-1.53,0-1.92,0-3.85,0-5.77,0-1.19.56-1.77,1.71-1.78,2.9-.02,5.8-.02,8.7,0,1.15,0,1.69.6,1.69,1.8.01,2.39,0,4.78,0,7.29,2.11,0,4.15,0,6.19,0,2.73,0,2.9.17,2.9,2.87,0,2.4,0,4.79,0,7.19,0,1.55-.49,2.05-2.02,2.05-2.27,0-4.54.01-6.81.02-.05,0-.11.04-.26.11,0,2.22,0,4.49,0,6.75,0,1.79-.43,2.21-2.24,2.21-2.65,0-5.3,0-7.95,0-1.42,0-1.93-.52-1.93-1.95,0-2.33,0-4.66,0-7.14Z"/>
  </g>
  <g>
    <path class="cls-5" d="m775.46,290.01c-.51.73-1.04,1.43-1.52,2.19-13.39,21.26-26.78,42.54-40.17,63.8-.22.35-.45.69-.87,1.34.1-.63.12-.92.19-1.18,5.14-21.79,10.29-43.57,15.41-65.36.2-.85.49-1.05,1.14-1.04,8.61.02,17.21.01,25.82,0v.25Z"/>
    <path class="cls-5" d="m725.42,361.55c-5.63-23.85-11.26-47.7-16.92-71.68h34.07c-5.65,23.92-11.28,47.8-16.92,71.68-.08,0-.16,0-.23,0Z"/>
    <path class="cls-5" d="m675.62,289.77h.98c8.28,0,16.57.01,24.85-.02.67,0,.94.24,1.13,1.07,5.11,21.72,10.24,43.43,15.36,65.14.08.34.14.68.05,1.13-14.07-22.35-28.14-44.71-42.37-67.32Z"/>
    <path class="cls-5" d="m742.24,282.25h-33.38c.08-.36.14-.7.23-1.01,2.56-8.69,5.13-17.37,7.67-26.06.23-.79.52-1.06,1.19-1.06,5.07.04,10.14.03,15.21,0,.6,0,.92.19,1.15.95,2.56,8.77,5.16,17.53,7.74,26.29.08.26.12.54.2.89Z"/>
    <path class="cls-5" d="m710.79,254.14c-1.23,4.14-2.39,8.07-3.55,11.99-1.5,5.09-3.01,10.18-4.5,15.28-.17.6-.36.92-.95.92-8.18-.03-16.37-.02-24.55-.02-.12,0-.24-.02-.52-.05.3-.43.48-.73.7-1,6.68-8.49,13.37-16.98,20.04-25.49.89-1.13,1.88-1.65,3.12-1.64,3.34.04,6.69.01,10.21.01Z"/>
    <path class="cls-5" d="m774.41,282.31h-.89c-8.02,0-16.04,0-24.07,0-.52,0-.88-.04-1.1-.82-2.59-8.89-5.21-17.76-7.83-26.63-.05-.18-.09-.37-.18-.73,1.19,0,2.28,0,3.37,0,2.34,0,4.68,0,7.02,0,1.06,0,1.95.43,2.71,1.39,6.81,8.68,13.64,17.34,20.46,26.01.13.17.24.36.52.77Z"/>
  </g>
</svg>