<?xml version="1.0" encoding="UTF-8"?>
<svg id="Layer_1" data-name="Layer 1" xmlns="http://www.w3.org/2000/svg" viewBox="0 0 500 500">
  <defs>
    <style>
      .cls-1 {
        fill: #fff;
      }

      .cls-2 {
        fill: #5a6267;
      }
    </style>
  </defs>
  <circle class="cls-2" cx="250" cy="251.27" r="234.63"/>
  <g>
    <path class="cls-1" d="m118.33,369.59v-111.96h112.12v111.96h-112.12Z"/>
    <path class="cls-1" d="m357.51,158.44h-13.97v-13.94h-13.87v-14.09h27.85v28.03Z"/>
    <path class="cls-1" d="m357.51,326.61h-27.88v-13.93h13.74v-14.1h14.14v28.03Z"/>
    <path class="cls-1" d="m357.51,200.48h-13.86v-28.03h13.86v28.03Z"/>
    <path class="cls-1" d="m357.51,242.53h-13.86v-28.03h13.86v28.03Z"/>
    <path class="cls-1" d="m357.51,284.57h-13.86v-28.03h13.86v28.03Z"/>
    <path class="cls-1" d="m315.35,172.62v55.78h-13.83v-31.62c-14.73,14.75-29.21,29.25-43.5,43.55-3.59-3.58-6.81-6.8-10.16-10.14,14.24-14.22,28.76-28.72,43.74-43.68h-32.08v-13.9h55.82Z"/>
    <path class="cls-1" d="m189.16,144.47h-13.79v13.79h-13.93v-27.74h27.72v13.95Z"/>
    <path class="cls-1" d="m203.54,130.49h27.7v13.81h-27.7v-13.81Z"/>
    <path class="cls-1" d="m273.32,130.53v13.73h-27.78v-13.73h27.78Z"/>
    <path class="cls-1" d="m287.54,144.25v-13.72h27.74v13.72h-27.74Z"/>
    <path class="cls-1" d="m175.16,200.37h-13.73v-27.74h13.73v27.74Z"/>
    <path class="cls-1" d="m161.43,214.6h13.73v27.78h-13.73v-27.78Z"/>
    <path class="cls-1" d="m245.5,326.45v-13.73h27.74v13.73h-27.74Z"/>
    <path class="cls-1" d="m315.33,326.5h-27.72v-13.75h27.72v13.75Z"/>
  </g>
</svg>