<?xml version="1.0" encoding="UTF-8"?>
<svg id="Layer_1" data-name="Layer 1" xmlns="http://www.w3.org/2000/svg" viewBox="0 0 500 500">
  <defs>
    <style>
      .cls-1 {
        fill: #fff;
      }

      .cls-2 {
        fill: #5a6267;
      }
    </style>
  </defs>
  <circle class="cls-2" cx="251.9" cy="250" r="234.63"/>
  <g>
    <path class="cls-1" d="m288.6,323.53c-3.7,0-7.11,0-10.53,0-5.41,0-9.47,2.35-11.77,7.24-2.3,4.88-1.57,9.55,1.91,13.68,7.56,8.97,15.17,17.91,23.29,27.49-5.63,3.24-10.82,6.99-16.58,9.4-36.73,15.45-72.47,14.08-105.6-9.12-22.99-16.1-35.01-38.81-34.25-67.39.38-14.27,4.98-27.4,12.15-39.67,11.01-18.85,24.88-35.52,39.02-52.03,3.63-4.25,7.04-6.08,13.06-5.88,20.23.67,40.49.26,60.74.25.68,0,1.43.12,2.04-.11,4.29-1.59,6.75.77,9.23,3.81,5.26,6.43,10.78,12.66,16.1,19.05.73.88,1.26,2.25,1.26,3.39.07,29.35.05,58.71.05,88.06,0,.47-.06.95-.13,1.82Zm-63.84,12.6c0,2.17-.06,4.11.01,6.05.11,2.88,1.87,4.75,4.43,4.86,2.69.11,4.68-1.77,4.91-4.75.11-1.36.12-2.74.01-4.1-.12-1.6.55-2.04,2.09-2.42,3.39-.84,6.84-1.76,9.97-3.26,7.08-3.4,11.68-8.89,12.04-17.04.38-8.5-2.97-15.41-10.39-19.66-4-2.29-8.55-3.73-12.99-5.14-4.82-1.53-9.91-2.25-14.65-3.95-4.47-1.6-7.51-4.87-7.77-10.03-.27-5.51,2.37-9.34,6.97-11.95,10.01-5.68,22.27-2.06,27.62,8.1,1.62,3.08,4.08,4.2,6.61,3.02,2.61-1.22,3.3-4.02,1.74-7.3-2.74-5.77-6.94-10.17-12.74-12.85-2.63-1.22-5.48-1.97-8.49-3.02,0-.79,0-1.76,0-2.73,0-.98.05-1.96-.02-2.93-.2-2.95-2.18-4.98-4.76-4.95-2.65.03-4.5,2.02-4.59,5.04-.06,1.93-.01,3.87-.01,4.95-4.87,2.48-9.62,4.1-13.4,6.98-12.43,9.47-10.89,27.87,2.91,35.09,4.33,2.26,9.29,3.47,14.09,4.65,5.41,1.33,10.98,2.09,15.56,5.6,7.36,5.64,6.58,15.59-1.71,19.64-2.92,1.43-6.25,2.34-9.49,2.76-9.07,1.18-20.3-2.49-23.12-13.08-.76-2.84-3.14-3.97-5.65-3.26-2.64.74-3.93,2.99-3.17,6,1.33,5.28,4.2,9.63,8.41,13.09,4.43,3.63,9.6,5.54,15.57,6.59Z"/>
    <path class="cls-1" d="m345.08,332.93c6.6,0,12.75-.11,18.9.08,1.45.05,3.32.73,4.21,1.78,1.42,1.68-.14,3.24-1.29,4.59-13.99,16.49-27.98,32.98-41.99,49.45-2.64,3.1-4.13,3.05-6.82-.11-14-16.48-28.02-32.95-41.92-49.51-.92-1.09-1.67-3.25-1.19-4.33.47-1.04,2.61-1.82,4.04-1.87,6.24-.2,12.49-.08,19.11-.08v-3.65c0-31.91,0-63.81,0-95.72,0-6.88,1.84-8.73,8.66-8.73,9.79,0,19.57,0,29.36,0,6.98,0,8.93,1.93,8.93,8.84,0,31.81,0,63.62,0,95.42,0,1.16,0,2.32,0,3.84Z"/>
    <path class="cls-1" d="m229.59,160.82c-9.09,0-18.19.06-27.28-.07-1.29-.02-2.85-.66-3.79-1.54-3.99-3.75-7.83-7.65-11.65-11.58-5.3-5.45-5.95-13.23-1.67-18.98,4.38-5.88,12-7.39,18.88-3.73,5.38,2.86,9.83,1.04,11.65-4.75,2.15-6.85,7.35-10.96,13.88-10.98,6.66-.02,11.9,4.15,14.03,11.15,1.72,5.66,6.27,7.39,11.77,4.48,9.33-4.94,19.79.13,21.39,10.44.7,4.53-.69,8.55-3.85,11.83-4.07,4.23-8.22,8.38-12.46,12.43-.8.76-2.2,1.22-3.33,1.23-9.19.1-18.38.05-27.58.05Z"/>
    <path class="cls-1" d="m229.83,170.24c10.47,0,20.93-.09,31.4.03,6.86.08,12.53,5.32,13.43,12.06.9,6.71-3.26,13.2-9.86,15.12-1.66.48-3.47.63-5.21.63-19.96.04-39.91.07-59.87,0-9.92-.03-16.38-7.22-14.89-16.35,1.06-6.55,6.69-11.42,13.59-11.48,10.47-.1,20.93-.02,31.4-.02h0Z"/>
  </g>
</svg>