<?xml version="1.0" encoding="UTF-8"?>
<svg id="Layer_1" data-name="Layer 1" xmlns="http://www.w3.org/2000/svg" viewBox="0 0 500 500">
  <defs>
    <style>
      .cls-1 {
        fill: #fff;
      }

      .cls-2 {
        fill: #5a6267;
      }
    </style>
  </defs>
  <circle class="cls-2" cx="250" cy="250" r="234.63"/>
  <g>
    <path class="cls-1" d="m103.81,246.8c.21-1.41.46-2.83.63-4.25.56-4.73,3.37-7.73,8.06-8.52,5.61-.94,11.23-1.79,16.81-2.87.93-.18,2.23-1.2,2.43-2.06,3.2-13.63,8.45-26.38,15.9-38.25.46-.74.22-2.4-.32-3.2-3.07-4.55-6.36-8.97-9.53-13.45-3.32-4.7-3.39-8.55.57-12.81,5.57-5.99,11.4-11.77,17.38-17.35,3.91-3.66,7.88-3.58,12.35-.43,4.49,3.16,9,6.31,13.38,9.63,1.49,1.13,2.52,1.07,4.05.09,11.47-7.32,23.85-12.51,37.16-15.4,1.64-.36,2.42-1.09,2.66-2.8.72-5.15,1.6-10.28,2.42-15.42,1.04-6.53,3.96-9.15,10.61-9.54,1.73-.1,3.46-.29,5.2-.36,3.54-.13,5.87,1.75,5.9,5.26.1,13.21.1,26.43.01,39.64-.02,3.41-1.88,5.07-5.55,5.34-22.84,1.66-43.1,9.73-59.53,25.71-27.55,26.79-37,59.45-26.35,96.28,10.51,36.37,35.77,58.47,72.66,67.04,4.48,1.04,9.16,1.25,13.75,1.82,3.19.4,5,2.04,5.02,5.25.09,13.21.09,26.43,0,39.64-.02,3.32-2.12,5.4-5.24,5.33-2.98-.06-5.98-.3-8.92-.81-3.9-.67-6.38-3.13-7.1-7.04-1.05-5.68-2-11.39-2.82-17.11-.27-1.91-1.02-2.78-2.94-3.19-13.21-2.88-25.51-8.05-36.89-15.32-1.71-1.1-2.78-.93-4.29.21-4.31,3.25-8.73,6.36-13.14,9.46-4.57,3.22-8.57,3.2-12.57-.58-5.88-5.55-11.65-11.24-17.17-17.16-3.96-4.25-3.92-8.09-.59-12.8,3.11-4.41,6.21-8.84,9.45-13.15,1.08-1.44,1.22-2.48.21-4.06-7.34-11.47-12.51-23.86-15.43-37.16-.37-1.7-1.05-2.53-2.95-2.78-5.34-.71-10.65-1.71-15.97-2.64-5.71-.99-8.28-3.92-8.73-9.77-.09-1.22-.37-2.43-.56-3.65,0-5.6,0-11.19,0-16.79Z"/>
    <path class="cls-1" d="m249.53,255.69c0,22.66,0,45.33,0,67.99,0,6.02-1.73,7.38-7.78,6.76-32.3-3.28-58.75-27.16-65.9-58.66-9.76-43,20.76-86.19,64.59-91.07,8.11-.9,9.1-.02,9.1,8.13,0,22.28,0,44.56,0,66.84Z"/>
    <path class="cls-1" d="m259.67,260.55v-10.13h3.51c34.91,0,69.82-.02,104.73.04,2.01,0,3.2-.38,4.25-2.37,3.2-6.05,10.18-8.87,16.75-7.15,6.73,1.76,11.33,7.74,11.28,14.66-.05,6.63-4.62,12.6-10.98,14.33-6.7,1.83-13.8-.97-17.05-7.08-1.06-1.99-2.26-2.35-4.27-2.35-34.81.05-69.62.04-104.44.04h-3.79Z"/>
    <path class="cls-1" d="m259.64,235.32v-9.96h3.47c23.24,0,46.49,0,69.73,0,5.52,0,7.11-1.56,7.11-7,0-7.14-.06-14.27.04-21.41.03-1.87-.5-2.82-2.23-3.73-6.19-3.25-9.14-10.29-7.42-16.95,1.64-6.35,7.36-10.96,13.85-11.19,7.13-.25,13.05,3.9,15.13,10.61,2.07,6.69-.69,14.01-6.95,17.33-2.09,1.11-2.53,2.36-2.5,4.47.11,7.23.06,14.47.03,21.7-.03,9.92-6.16,16.11-16.01,16.12-23.82.02-47.64,0-71.46,0-.85,0-1.7,0-2.8,0Z"/>
    <path class="cls-1" d="m259.71,275.64h3.12c23.53,0,47.06,0,70.6,0,10.47,0,16.47,6.03,16.49,16.52.01,7.43.04,14.85-.03,22.28-.01,1.52.39,2.33,1.84,3.09,6.56,3.45,9.62,10.44,7.77,17.29-1.77,6.56-7.69,11.08-14.53,11.1-6.94.01-13-4.67-14.65-11.31-1.7-6.81,1.36-13.68,7.78-17.05,1.41-.74,1.91-1.48,1.89-3.05-.08-7.52-.02-15.04-.05-22.57-.02-4.51-1.82-6.32-6.33-6.32-23.44-.01-46.87,0-70.31,0-1.14,0-2.28,0-3.59,0v-9.96Z"/>
    <path class="cls-1" d="m259.67,325.85v-9.92c.79-.07,1.53-.19,2.27-.19,7.33-.01,14.65-.05,21.98,0,9.3.07,15.63,6.27,15.75,15.58.12,9.25.06,18.51,0,27.76-.01,1.77.3,2.88,2.12,3.83,6.35,3.31,9.26,10.3,7.46,17.14-1.71,6.48-7.72,11.06-14.54,11.07-6.97,0-12.82-4.53-14.6-11.33-1.74-6.62,1.25-13.57,7.49-16.88,1.61-.85,2.12-1.74,2.1-3.52-.1-9.06-.03-18.12-.05-27.18,0-4.72-1.66-6.34-6.49-6.36-6.75-.02-13.49,0-20.24,0-1.04,0-2.08,0-3.25,0Z"/>
    <path class="cls-1" d="m259.68,195.23v-10.05c5.79,0,11.45,0,17.11,0,2.6,0,5.22.09,7.81-.08,3.23-.21,5.01-2.02,5.03-5.19.07-9.74.09-19.49-.07-29.23-.02-.92-1.3-2.1-2.28-2.69-5.84-3.51-8.81-10.16-7.24-16.59,1.63-6.7,7.31-11.33,14.16-11.54,6.8-.21,12.68,3.88,14.8,10.3,2.27,6.88-.55,14.33-7.05,17.79-1.86.99-2.31,2.11-2.29,4.04.09,8.87.06,17.75.03,26.63-.04,10.55-6.17,16.61-16.79,16.62-7.62,0-15.24,0-23.21,0Z"/>
    <path class="cls-1" d="m259.68,205.19c4.68,0,9.1,0,13.51,0,11.56,0,23.11-.01,34.67.02,1.23,0,2.54.07,3.68.47,2.26.78,3.3,2.57,3.14,4.95-.14,2.26-1.38,3.76-3.55,4.38-.82.23-1.71.32-2.57.32-15.7.02-31.39.01-47.09,0-.56,0-1.11-.12-1.8-.19v-9.95Z"/>
    <path class="cls-1" d="m259.63,305.61v-9.78c.96-.05,1.88-.14,2.8-.14,15.24,0,30.49-.01,45.73,0,1.15,0,2.66-.18,3.36.45,1.31,1.19,2.93,2.87,2.98,4.39.05,1.52-1.47,3.27-2.67,4.59-.56.62-1.99.62-3.02.62-15.92.03-31.84.02-47.75.01-.37,0-.74-.08-1.42-.15Z"/>
  </g>
</svg>