<?xml version="1.0" encoding="UTF-8"?>
<svg id="Layer_1" data-name="Layer 1" xmlns="http://www.w3.org/2000/svg" viewBox="0 0 500 500">
  <defs>
    <style>
      .cls-1 {
        fill: #fff;
      }

      .cls-2 {
        fill: #5a6267;
      }
    </style>
  </defs>
  <circle class="cls-2" cx="251.9" cy="251.27" r="234.63"/>
  <g>
    <path class="cls-1" d="m223.33,120.6c5.1,1.19,10.37,1.91,15.28,3.65,23.85,8.46,39.71,29.91,40.66,55.13.41,11.02.07,22.07.07,33.31h-30.51c0-.86,0-1.76,0-2.66,0-9.51.1-19.03-.03-28.54-.25-17.35-14.41-30.8-31.71-30.27-15.74.48-28.96,13.51-29.37,29.25-.25,9.76-.07,19.54-.08,29.31,0,.92,0,1.85,0,2.94h-30.59v-2.76c0-8.84-.05-17.67,0-26.51.16-23.94,10.36-42.27,30.86-54.71,6.98-4.23,14.66-6.6,22.75-7.64.83-.11,1.64-.34,2.47-.51,3.4,0,6.8,0,10.2,0Z"/>
    <path class="cls-1" d="m395.18,360.77c-1.05,4.67-2.63,9.03-5.78,12.81-9.91,11.88-29.2,10.13-36.73-3.39-3.2-5.75-4.2-11.72-2.44-18.15.25-.92-.1-2.33-.71-3.1-3.28-4.11-6.66-8.16-10.18-12.07-.77-.86-2.23-1.5-3.39-1.53-6-.15-12.01-.07-18.14-.07v-15.11c.61-.06,1.26-.18,1.9-.18,7.05-.01,14.1.03,21.14-.03,2.93-.02,5.24,1.05,7.11,3.29,4.19,5.01,8.42,9.99,12.6,14.94,2.57-.84,4.99-1.89,7.52-2.4,12.36-2.48,24.5,5.98,26.68,18.43.09.49.29.96.43,1.45v5.1Z"/>
    <path class="cls-1" d="m395.18,238.39c-1.02,4.4-2.42,8.59-5.43,12.15-5.94,7.05-15.72,10-24.38,6.98-1.85-.64-3-.48-4.41.95-4.18,4.22-8.62,8.2-12.84,12.39-2.32,2.31-4.94,3.31-8.22,3.25-7.29-.13-14.59-.04-22.05-.04v-15.3c5.63,0,11.22-.17,16.79.07,2.9.13,4.95-.74,6.9-2.82,2.79-2.97,5.82-5.72,8.83-8.47,1.07-.98,1.33-1.75.75-3.22-3.53-8.92-1.94-17.12,4.47-24.09,6-6.52,13.7-8.78,22.28-6.52,9.4,2.47,15.02,8.78,16.92,18.36.08.41.27.8.41,1.19v5.1Z"/>
    <path class="cls-1" d="m395.18,299.58c-1.02,4.4-2.45,8.56-5.43,12.15-10.46,12.59-30.87,10.23-37.86-4.56-.97-2.06-2.07-2.57-4.19-2.54-9,.12-18.01.05-27.01.05h-2.88v-15.3c.84,0,1.74,0,2.63,0,9.43,0,18.86-.02,28.29.02,1.31,0,2.07-.25,2.71-1.6,4.75-10.04,13.69-14.79,24.71-13.29,9.3,1.27,16.77,8.89,18.66,19.02.06.33.24.63.37.94v5.1Z"/>
    <path class="cls-1" d="m218.3,365.87c-20.05,0-40.11,0-60.16,0-7.95,0-14.55-2.88-19.44-9.3-3.15-4.14-4.57-8.89-4.58-14.03-.04-30.33-.1-60.67.02-91,.05-13.34,9.89-23.26,23.23-23.29,40.62-.12,81.23-.13,121.85,0,13.22.04,23.04,9.92,23.1,23.15.15,30.42.15,60.84,0,91.26-.07,13.55-10.13,23.16-23.86,23.2-20.05.06-40.11.01-60.16.01Zm-7.72-49.62c0,3.65-.27,7.34.11,10.95.22,2.05,1.1,4.33,2.41,5.88,2.02,2.38,4.99,2.82,7.95,1.6,3.13-1.3,4.78-3.77,4.81-7.15.06-7.39.05-14.78,0-22.18-.01-1.42.32-2.22,1.74-2.88,9.73-4.51,14.71-13.58,13.15-24.29-1.22-8.41-6.07-14.37-13.81-17.57-7.85-3.24-15.62-2.39-22.39,2.88-14.12,11-11.71,31.21,4.45,39.16.74.36,1.48,1.55,1.52,2.39.16,3.73.07,7.47.07,11.21Z"/>
    <path class="cls-1" d="m218.26,289.36c-4.16.01-7.64-3.45-7.65-7.61-.01-4.16,3.45-7.64,7.61-7.65,4.16-.01,7.64,3.45,7.65,7.61.01,4.16-3.45,7.64-7.61,7.65Z"/>
  </g>
</svg>