<?xml version="1.0" encoding="UTF-8"?>
<svg id="Layer_1" data-name="Layer 1" xmlns="http://www.w3.org/2000/svg" viewBox="0 0 500 500">
  <defs>
    <style>
      .cls-1 {
        fill: #fff;
      }

      .cls-2 {
        fill: #5a6267;
      }
    </style>
  </defs>
  <circle class="cls-2" cx="250" cy="251.27" r="234.63"/>
  <g>
    <path class="cls-1" d="m411.81,333.37c-.77,3.51-1.38,7.07-2.33,10.53-7.99,29.14-35.14,48.58-65.25,46.77-29.92-1.8-54.72-24.59-59.14-54.37-6.04-40.64,28.33-76.78,69-72.56,30.27,3.14,52.93,25.17,57.2,55.59.07.47.34.91.51,1.37v12.68Zm-44.93-31.96c-8.3,8.3-16.78,16.8-25.77,25.8-4.09-4.28-8.16-8.54-11.88-12.44-4.32,4.33-8.48,8.49-12.46,12.48,8.2,8.2,16.64,16.63,24.87,24.86,12.6-12.6,25.35-25.36,37.96-37.97-3.98-3.98-8.16-8.16-12.72-12.72Z"/>
    <path class="cls-1" d="m194.64,276.38c-25.54,14.11-38.66,35.5-39.23,65.18-14.01-9.78-25.42-21.53-34.17-35.8-17.6-28.7-22.97-59.65-15.56-92.46,14.91-65.98,79.47-105.21,141.53-93.53,66.57,12.53,104.15,72.45,100.53,125.23-32.51,1.45-56.7,16.44-72.58,44.58-6.17-4.44-12.39-8.93-18.8-13.54,11.6-10.76,17.37-24.35,15.63-40.64-1.37-12.8-7.29-23.35-17.31-31.4-19.38-15.57-47.59-13.21-64.15,5.07-16.42,18.13-17.26,47.87,4.12,67.32Z"/>
    <path class="cls-1" d="m271.01,354.59c-11.12,4.51-22.32,7.16-33.87,8.26-21.03,1.99-41.26-1.22-60.71-9.5-1.93-.82-2.73-1.73-2.69-3.93.14-8.73-.5-17.54,2.52-25.98,6.99-19.57,20.66-31.81,41.16-35.05,19.76-3.13,36.12,3.92,48.8,19.44,1.3,1.59,1.7,3.09,1.32,5.2-2.54,14.03-1.29,27.8,3.47,41.56Z"/>
    <path class="cls-1" d="m196.58,240.77c-.08-15.95,12.69-28.82,28.63-28.86,15.95-.04,28.86,12.74,28.92,28.62.06,15.89-12.78,28.81-28.68,28.87-15.96.06-28.79-12.66-28.87-28.63Z"/>
  </g>
</svg>