<?xml version="1.0" encoding="UTF-8"?>
<svg id="Layer_1" data-name="Layer 1" xmlns="http://www.w3.org/2000/svg" viewBox="0 0 500 500">
  <defs>
    <style>
      .cls-1 {
        fill: #fff;
      }

      .cls-2 {
        fill: #242424;
      }
    </style>
  </defs>
  <circle class="cls-2" cx="248.93" cy="250" r="227.15"/>
  <g>
    <path class="cls-1" d="m274.59,125.03c4.33,2,5.98,5.44,5.54,10.1-.18,1.88-.03,3.8-.03,5.94,4.05,0,7.87-.01,11.69,0,5.34.02,8.34,3.04,8.36,8.41.02,6.1.02,12.19,0,18.29-.02,5.34-3.05,8.37-8.4,8.37-26.14.01-52.28.01-78.42,0-5.36,0-8.38-3.03-8.4-8.37-.02-6.18-.03-12.36,0-18.54.02-5.04,3.1-8.12,8.11-8.15,3.84-.03,7.68,0,11.93,0,0-2.03.15-4-.03-5.94-.44-4.66,1.2-8.1,5.54-10.1h44.11Z"/>
    <path class="cls-1" d="m350.26,324.85c0,16.95.04,33.14-.03,49.34-.02,4.14-3.2,7.19-7.33,7.4-.67.03-1.34.01-2,.01-58.88,0-117.76,0-176.64,0-6.85,0-9.46-2.64-9.46-9.57,0-67.97,0-135.94,0-203.91,0-6.89,2.62-9.51,9.52-9.51,8.42,0,16.84,0,25.56,0,0,3.07,0,5.96,0,8.85.03,14.11,9.64,23.71,23.78,23.72,25.89.01,51.78.01,77.67,0,14.28,0,23.83-9.59,23.85-23.9,0-2.75,0-5.51,0-8.67h2.45c8.02,0,16.04,0,24.05,0,5.65,0,8.58,2.97,8.58,8.69,0,16.28-.02,32.57.04,48.85,0,1.73-.5,2.93-1.72,4.14-21.35,21.28-42.72,42.55-63.92,63.99-2.75,2.78-5.06,6.24-6.75,9.78-5.82,12.19-11.36,24.51-16.84,36.85-6.32,14.24,2.02,29.49,17.37,31.93,4.59.73,8.95-.24,13.14-2.15,12.37-5.63,24.8-11.13,37.08-16.94,3.1-1.47,5.99-3.64,8.54-5.96,4.37-3.96,8.39-8.29,13.04-12.94Zm-127.96-92.54c-2.36-2.47-4.43-4.76-6.62-6.92-3.45-3.4-8.09-3.5-11.14-.35-2.99,3.1-2.81,7.58.52,10.97,3.81,3.87,7.65,7.71,11.51,11.52,3.81,3.76,8.01,3.73,11.87-.07,2.8-2.75,5.56-5.54,8.34-8.32,5.26-5.26,10.52-10.5,15.76-15.78,2.15-2.17,3.06-4.72,2.14-7.77-.86-2.82-2.78-4.53-5.59-5.17-2.96-.67-5.37.46-7.45,2.55-6.3,6.33-12.62,12.63-19.33,19.34Zm-.13,97.7c-2.2-2.36-4.24-4.66-6.42-6.83-3.46-3.45-8.05-3.61-11.14-.49-3.09,3.11-2.9,7.66.54,11.15,3.75,3.81,7.54,7.58,11.34,11.34,3.85,3.8,8.06,3.85,11.87.07,8-7.95,15.97-15.92,23.92-23.92,3.47-3.48,3.66-8.03.58-11.15-3.14-3.18-7.73-2.95-11.33.62-5.69,5.65-11.34,11.34-17.02,17-.63.63-1.31,1.23-2.35,2.21Zm.17-48.76c-2.45-2.57-4.62-4.98-6.94-7.24-3.17-3.1-7.83-3.12-10.78-.17-2.99,3-2.96,7.53.19,10.76,4.03,4.12,8.1,8.2,12.23,12.22,3.2,3.12,7.61,3.17,10.77.05,8.38-8.28,16.69-16.62,24.99-24.98,1.95-1.96,2.69-4.39,1.96-7.13-1.54-5.77-8.34-7.58-12.7-3.28-6.49,6.38-12.86,12.88-19.73,19.77Zm-29.96-40.94c.02-4.06-3.36-7.49-7.42-7.53-4.07-.05-7.52,3.29-7.6,7.36-.08,4.16,3.39,7.68,7.55,7.66,4.06-.02,7.46-3.42,7.47-7.48Zm-7.57,105.2c4.06.04,7.5-3.32,7.57-7.39.07-4.06-3.26-7.53-7.32-7.63-4.16-.11-7.7,3.35-7.7,7.51,0,4.06,3.39,7.48,7.45,7.51Zm.12-48.9c4.13-.03,7.49-3.42,7.46-7.53-.03-4.1-3.44-7.45-7.57-7.42-4.13.03-7.49,3.42-7.46,7.53.03,4.1,3.45,7.45,7.57,7.42Z"/>
    <path class="cls-1" d="m331.38,322.42c-10.68-10.67-21.17-21.15-31.8-31.77.46-.49,1.05-1.17,1.69-1.8,22.01-22.01,44.02-44.02,66.04-66.03,4.32-4.32,8.28-4.35,12.57-.07,6.56,6.54,13.12,13.08,19.65,19.65,3.82,3.84,3.87,8.08.11,11.86-22.41,22.44-44.85,44.85-67.28,67.28-.35.35-.73.66-.98.89Z"/>
    <path class="cls-1" d="m290.13,303.6c9.44,9.43,18.82,18.8,28.37,28.34-4.57,2.08-9.23,4.19-13.89,6.31-6.37,2.9-12.74,5.82-19.12,8.7-3.8,1.71-6.81,1.32-9.27-1.08-2.48-2.43-2.88-5.61-1.13-9.47,4.71-10.4,9.44-20.8,14.17-31.19.27-.59.62-1.15.86-1.59Z"/>
  </g>
</svg>