<?xml version="1.0" encoding="UTF-8"?>
<svg id="Layer_1" data-name="Layer 1" xmlns="http://www.w3.org/2000/svg" viewBox="0 0 500 500">
  <defs>
    <style>
      .cls-1 {
        fill: #fff;
      }

      .cls-2 {
        fill: #242424;
      }
    </style>
  </defs>
  <circle class="cls-2" cx="261.19" cy="249.48" r="227.15"/>
  <g>
    <path class="cls-1" d="m332.21,379.33c-3.82-.99-7.75-1.69-11.45-3.02-19.15-6.9-31.72-27.05-29.43-46.9,2.49-21.64,18.48-38.24,39.39-40.91,24.89-3.18,47.87,14.06,51.18,38.39,3.48,25.58-13.53,48.3-38.87,51.95-.57.08-1.12.32-1.68.48h-9.13Zm-3.35-20.48c11.82-11.8,23.68-23.62,35.3-35.22-3.19-3.21-6.63-6.66-10.44-10.49-8.12,8.15-16.37,16.43-24.99,25.08-3.11-3.33-6.16-6.59-8.95-9.58-3.71,3.7-7.2,7.19-10.6,10.59,6.56,6.54,13.3,13.26,19.69,19.63Z"/>
    <path class="cls-1" d="m154.14,348.75c0-7.48,0-14.74,0-22.01,0-10.23-.25-20.46.05-30.68,1.03-35.69,17.77-61.3,49.86-76.94,1.59-.77,2.81-.74,4.42.14,19.47,10.57,39.01,10.54,58.6.22,1.03-.54,2.64-.86,3.65-.45,23.53,9.54,42.58,31.94,48.17,56.27-32.84,13.78-47.22,37.77-41.45,73.44h-123.29Z"/>
    <path class="cls-1" d="m283.5,166.46c-.13,25.17-20.75,45.62-45.85,45.47-25.18-.15-45.62-20.78-45.45-45.86.17-25.4,20.94-46.49,45.72-46.43,24.92.06,45.71,21.42,45.58,46.83Z"/>
  </g>
</svg>