<?xml version="1.0" encoding="UTF-8"?>
<svg id="Layer_1" data-name="Layer 1" xmlns="http://www.w3.org/2000/svg" viewBox="0 0 500 500">
  <defs>
    <style>
      .cls-1 {
        fill: #fff;
      }

      .cls-2 {
        fill: #5a6267;
      }
    </style>
  </defs>
  <circle class="cls-2" cx="250" cy="251.27" r="234.63"/>
  <g>
    <path class="cls-1" d="m175.88,104.79c2.6.53,5.2,1.03,7.79,1.61,28.4,6.4,48.74,32.57,47.83,61.51-.94,29.92-22.3,54.61-51.36,59.45-27.97,4.66-65.47-10.36-71.19-52.85-.24-1.81-.45-3.62-.68-5.43,0-1.66,0-3.33,0-4.99.37-2.72.62-5.47,1.12-8.16,4.43-23.81,17.74-40.12,40.94-47.76,4.85-1.6,10.01-2.27,15.02-3.38,3.51,0,7.02,0,10.53,0Zm2.82,54c0-1.31,0-2.3,0-3.29,0-7.93.05-15.87-.03-23.8-.05-4.92-3.36-8.31-8.03-8.47-4.65-.15-8.47,3.35-8.52,8.3-.12,11.9-.11,23.8,0,35.7.04,4.44,3.23,7.96,7.57,8.05,9.4.2,18.82.2,28.22-.03,4.47-.11,7.4-3.65,7.42-8.07.02-4.47-2.77-7.9-7.3-8.19-5.24-.33-10.51-.16-15.76-.2-1.08,0-2.16,0-3.56,0Z"/>
    <path class="cls-1" d="m143.73,240.73c5.61,1.32,10.98,2.57,16.57,3.88v127.3c1.38,0,2.54,0,3.71,0,72.67,0,145.34,0,218.02,0,5.68,0,8.96,2.43,9.61,7.08.69,4.89-2.52,9.01-7.43,9.49-1.01.1-2.03.05-3.05.05-75.63,0-151.25,0-226.88,0-7.65,0-10.55-2.88-10.55-10.49,0-44.69,0-89.39,0-134.08,0-1.08,0-2.16,0-3.24Z"/>
    <path class="cls-1" d="m373.93,355.2h-52.18v-2.97c0-29.37,0-58.74,0-88.11,0-6.98,3.16-10.11,10.19-10.11,10.81,0,21.61-.01,32.42,0,6.34.01,9.68,3.22,9.69,9.47.03,29.83.01,59.66,0,89.49,0,.64-.06,1.27-.12,2.22Z"/>
    <path class="cls-1" d="m352.45,214.57c-7.24,4.16-13.78,7.91-20.32,11.68-46.24,26.71-92.49,53.4-138.72,80.14-3.24,1.87-6.43,2.84-9.89.82-5.72-3.33-5.6-11.05.29-14.49,12.51-7.29,25.08-14.49,37.62-21.73,39.86-23.01,79.71-46.03,119.56-69.05.86-.5,1.71-1.03,3.08-1.86-1.8-.49-3.11-.8-4.39-1.19-5.01-1.5-7.52-5.74-6.2-10.4,1.3-4.57,5.47-6.91,10.43-5.64,7.95,2.03,15.88,4.13,23.78,6.33,4.66,1.3,7.17,5.33,6.02,10.04-2.04,8.32-4.26,16.61-6.66,24.84-1.31,4.5-5.75,6.71-10.05,5.49-4.4-1.25-6.86-5.56-5.79-10.2.31-1.33.68-2.64,1.23-4.79Z"/>
    <path class="cls-1" d="m302.8,355.17h-52.04c-.05-.9-.14-1.78-.14-2.66,0-15.88-.01-31.77,0-47.65,0-6.56,3.09-9.65,9.67-9.66,10.99-.02,21.98-.02,32.97,0,6.36.02,9.53,3.21,9.54,9.54.01,16.71,0,33.42,0,50.43Z"/>
    <path class="cls-1" d="m231.45,355.19h-52.3c.19-4.32.04-8.63.67-12.84.53-3.55,3.74-5.92,7.36-5.95,12.17-.09,24.34-.1,36.5,0,4.14.03,7.42,3.11,7.71,7.25.26,3.75.06,7.53.06,11.54Z"/>
  </g>
</svg>