<?xml version="1.0" encoding="UTF-8"?>
<svg id="Layer_1" data-name="Layer 1" xmlns="http://www.w3.org/2000/svg" viewBox="0 0 1920 842.16">
  <defs>
    <style>
      .cls-1 {
        fill: #00a55b;
      }

      .cls-2 {
        fill: #f1572e;
      }

      .cls-3, .cls-4, .cls-5, .cls-6 {
        fill: #fff;
      }

      .cls-7 {
        fill: #f0c419;
      }

      .cls-8 {
        fill: #fed500;
      }

      .cls-9 {
        fill: #231f20;
      }

      .cls-10 {
        fill: #151f4b;
      }

      .cls-11 {
        fill: #894b9d;
      }

      .cls-4 {
        stroke: #f1582d;
      }

      .cls-4, .cls-5, .cls-6 {
        stroke-miterlimit: 10;
      }

      .cls-5 {
        stroke: #fdd501;
      }

      .cls-6 {
        stroke: #00a55a;
      }
    </style>
  </defs>
  <circle class="cls-7" cx="1431.81" cy="526.18" r="52.99"/>
  <polygon class="cls-8" points="195.54 460.53 83.06 460.53 143.96 526.18 83.06 591.83 195.54 591.83 256.44 526.18 195.54 460.53"/>
  <polygon class="cls-3" points="265.13 438.08 114.19 438.08 195.92 526.18 114.19 614.27 265.13 614.27 346.86 526.18 265.13 438.08"/>
  <path class="cls-8" d="m260.5,448.68l71.89,77.49-71.89,77.49h-122.01l71.89-77.49-71.89-77.49h122.01m.51-1.18h-125.22l1.84,1.98,71.15,76.69-71.15,76.69-1.84,1.98h125.22l.35-.38,71.89-77.49.74-.8-.74-.8-71.89-77.49-.35-.38h0Z"/>
  <polygon class="cls-2" points="442.2 460.53 329.71 460.53 390.62 526.18 329.71 591.83 442.2 591.83 503.1 526.18 442.2 460.53"/>
  <polygon class="cls-3" points="511.78 438.08 360.85 438.08 442.58 526.18 360.85 614.27 511.78 614.27 593.51 526.18 511.78 438.08"/>
  <path class="cls-2" d="m507.16,448.68l71.89,77.49-71.89,77.49h-122.01l71.89-77.49-71.89-77.49h122.01m.51-1.18h-125.22l1.84,1.98,71.15,76.69-71.15,76.69-1.84,1.98h125.22l.35-.38,71.89-77.49.74-.8-.74-.8-71.89-77.49-.35-.38h0Z"/>
  <polygon class="cls-1" points="688.85 460.53 576.37 460.53 637.28 526.18 576.37 591.83 688.85 591.83 749.76 526.18 688.85 460.53"/>
  <polygon class="cls-3" points="758.44 438.08 607.51 438.08 689.24 526.18 607.51 614.27 758.44 614.27 840.17 526.18 758.44 438.08"/>
  <path class="cls-1" d="m753.82,448.68l71.89,77.49-71.89,77.49h-122.01l71.89-77.49-71.89-77.49h122.01m.51-1.18h-125.22l1.84,1.98,71.15,76.69-71.15,76.69-1.84,1.98h125.22l.35-.38,71.89-77.49.74-.8-.74-.8-71.89-77.49-.35-.38h0Z"/>
  <polygon class="cls-10" points="935.51 460.53 823.03 460.53 883.94 526.18 823.03 591.83 935.51 591.83 996.42 526.18 935.51 460.53"/>
  <polygon class="cls-3" points="1005.1 438.08 854.17 438.08 935.9 526.18 854.17 614.27 1005.1 614.27 1086.83 526.18 1005.1 438.08"/>
  <path class="cls-10" d="m1000.48,448.68l71.89,77.49-71.89,77.49h-122.01l71.89-77.49-71.89-77.49h122.01m.51-1.18h-125.22l1.84,1.98,71.15,76.69-71.15,76.69-1.84,1.98h125.22l.35-.38,71.89-77.49.74-.8-.74-.8-71.89-77.49-.35-.38h0Z"/>
  <g>
    <path class="cls-9" d="m171.12,455.42h4.34c2.95,0,4.4,1.64,4.4,4.64v1.85c0,3-1.45,4.64-4.4,4.64h-1.39v7.64h-2.95v-18.77Zm4.34,8.44c.94,0,1.45-.43,1.45-1.77v-2.23c0-1.34-.51-1.77-1.45-1.77h-1.39v5.76h1.39Z"/>
    <path class="cls-9" d="m187.42,460.41v2.76c-.21-.05-.48-.08-.72-.08-1.58,0-2.41,1.1-2.41,3.22v7.88h-2.84v-13.67h2.47l.05,2.31c.38-1.72,1.26-2.57,2.65-2.57.35,0,.59.05.8.16Z"/>
    <path class="cls-9" d="m188.41,470v-5.31c0-2.84,1.5-4.45,4.18-4.45s4.18,1.61,4.18,4.45v5.31c0,2.84-1.5,4.45-4.18,4.45s-4.18-1.61-4.18-4.45Zm5.52.27v-5.84c0-.94-.29-1.66-1.34-1.66s-1.34.72-1.34,1.66v5.84c0,.96.32,1.66,1.34,1.66s1.34-.7,1.34-1.66Z"/>
    <path class="cls-9" d="m202.32,462.93v7.83c0,.86.29,1.18,1.1,1.18.29,0,.62-.05.96-.16v2.41c-.48.19-.96.27-1.55.27-2.25,0-3.35-1.1-3.35-3.32v-8.2h-1.55v-2.41h1.69l.27-3.7h2.44v3.7h2.06v2.41h-2.06Z"/>
    <path class="cls-9" d="m214.09,464.7v3.27h-5.58v2.31c0,1.21.48,1.66,1.42,1.66s1.42-.46,1.42-1.66v-.51h2.73v.24c0,2.84-1.47,4.45-4.21,4.45s-4.21-1.61-4.21-4.45v-5.31c0-2.84,1.47-4.45,4.21-4.45s4.21,1.61,4.21,4.45Zm-2.79,1.02v-1.29c0-1.21-.51-1.66-1.39-1.66s-1.39.46-1.39,1.66v1.29h2.79Z"/>
    <path class="cls-9" d="m215.75,470.06v-5.42c0-2.79,1.45-4.4,4.16-4.4s4.05,1.72,4.05,4.4v.83h-2.73v-1.1c0-1.02-.35-1.61-1.31-1.61s-1.31.59-1.31,1.61v5.95c0,1.02.35,1.61,1.31,1.61s1.31-.59,1.31-1.61v-1.37h2.73v1.1c0,2.68-1.31,4.4-4.05,4.4s-4.16-1.61-4.16-4.4Z"/>
    <path class="cls-9" d="m229.34,462.93v7.83c0,.86.29,1.18,1.1,1.18.29,0,.62-.05.96-.16v2.41c-.48.19-.96.27-1.55.27-2.25,0-3.35-1.1-3.35-3.32v-8.2h-1.55v-2.41h1.69l.27-3.7h2.44v3.7h2.06v2.41h-2.06Z"/>
  </g>
  <g>
    <path class="cls-9" d="m192.61,481.42h2.95v18.77h-2.95v-18.77Z"/>
    <path class="cls-9" d="m206.07,490.24v9.95h-2.84v-9.62c0-1.18-.32-1.8-1.18-1.8-.8,0-1.45.56-1.45,2.2v9.22h-2.84v-13.67h2.47l.05,1.58c.48-1.18,1.47-1.85,2.73-1.85,1.9,0,3.06,1.18,3.06,3.99Z"/>
    <path class="cls-9" d="m211.83,484.85v1.66h2.06v2.41h-2.06v11.26h-2.84v-11.26h-1.55v-2.41h1.55v-2.04c0-2.23,1.1-3.32,3.35-3.32.59,0,1.07.08,1.55.27v2.41c-.35-.11-.67-.16-.96-.16-.8,0-1.1.32-1.1,1.18Z"/>
    <path class="cls-9" d="m214.97,496v-5.31c0-2.84,1.5-4.45,4.18-4.45s4.18,1.61,4.18,4.45v5.31c0,2.84-1.5,4.45-4.18,4.45s-4.18-1.61-4.18-4.45Zm5.52.27v-5.84c0-.94-.29-1.66-1.34-1.66s-1.34.72-1.34,1.66v5.84c0,.96.32,1.66,1.34,1.66s1.34-.7,1.34-1.66Z"/>
    <path class="cls-9" d="m231.24,486.4v2.76c-.21-.05-.48-.08-.72-.08-1.58,0-2.41,1.1-2.41,3.22v7.88h-2.84v-13.67h2.47l.05,2.31c.38-1.72,1.26-2.57,2.65-2.57.35,0,.59.05.8.16Z"/>
    <path class="cls-9" d="m246.23,490.24v9.95h-2.84v-9.76c0-.94-.24-1.66-1.15-1.66-.8,0-1.42.59-1.42,2.2v9.22h-2.84v-9.76c0-.94-.24-1.66-1.15-1.66-.8,0-1.42.59-1.42,2.2v9.22h-2.84v-13.67h2.47l.05,1.58c.48-1.18,1.45-1.85,2.68-1.85,1.31,0,2.25.56,2.73,1.82.48-1.15,1.47-1.82,2.68-1.82,1.9,0,3.06,1.21,3.06,3.99Z"/>
    <path class="cls-9" d="m253.87,500.18c-.08-.16-.19-.75-.21-1.61-.51,1.21-1.53,1.88-2.9,1.88-1.82,0-2.98-1.31-2.98-3.43s.88-3.38,3.3-4.56c1.96-.97,2.23-1.21,2.23-1.96v-.27c0-1.1-.35-1.56-1.15-1.56-.88,0-1.29.56-1.29,1.58v.51h-2.68v-.35c0-2.65,1.37-4.18,3.99-4.18,2.84,0,3.97,1.5,3.97,4.5v5.5c0,1.93.13,3.16.32,3.94h-2.6Zm-.56-4.45v-2.33c-.21.27-.64.54-1.39,1.02-.86.54-1.29,1.23-1.29,2.12,0,.96.4,1.47,1.21,1.47.97,0,1.47-.78,1.47-2.28Z"/>
    <path class="cls-9" d="m261.83,488.92v7.83c0,.86.29,1.18,1.1,1.18.29,0,.62-.05.96-.16v2.41c-.48.19-.96.27-1.55.27-2.25,0-3.35-1.1-3.35-3.32v-8.2h-1.55v-2.41h1.69l.27-3.7h2.44v3.7h2.06v2.41h-2.06Z"/>
    <path class="cls-9" d="m265.48,481.71h2.84v3.11h-2.84v-3.11Zm0,4.8h2.84v13.67h-2.84v-13.67Z"/>
    <path class="cls-9" d="m270.25,496v-5.31c0-2.84,1.5-4.45,4.18-4.45s4.18,1.61,4.18,4.45v5.31c0,2.84-1.5,4.45-4.18,4.45s-4.18-1.61-4.18-4.45Zm5.52.27v-5.84c0-.94-.29-1.66-1.34-1.66s-1.34.72-1.34,1.66v5.84c0,.96.32,1.66,1.34,1.66s1.34-.7,1.34-1.66Z"/>
    <path class="cls-9" d="m288.85,490.24v9.95h-2.84v-9.62c0-1.18-.32-1.8-1.18-1.8-.8,0-1.45.56-1.45,2.2v9.22h-2.84v-13.67h2.47l.05,1.58c.48-1.18,1.47-1.85,2.73-1.85,1.9,0,3.06,1.18,3.06,3.99Z"/>
  </g>
  <g>
    <path class="cls-9" d="m217.12,521.73v-9.87c0-3,1.5-4.72,4.4-4.72s4.4,1.72,4.4,4.72v1.61h-2.79v-1.8c0-1.34-.59-1.85-1.53-1.85s-1.53.51-1.53,1.85v10.27c0,1.34.59,1.82,1.53,1.82s1.53-.48,1.53-1.82v-3.67h-1.47v-2.68h4.26v6.14c0,3-1.5,4.72-4.4,4.72s-4.4-1.72-4.4-4.72Z"/>
    <path class="cls-9" d="m233.36,526.18c-.08-.16-.19-.75-.21-1.61-.51,1.21-1.53,1.88-2.9,1.88-1.82,0-2.98-1.31-2.98-3.43s.88-3.38,3.3-4.56c1.96-.97,2.23-1.21,2.23-1.96v-.27c0-1.1-.35-1.56-1.15-1.56-.88,0-1.29.56-1.29,1.58v.51h-2.68v-.35c0-2.65,1.37-4.18,3.99-4.18,2.84,0,3.97,1.5,3.97,4.5v5.5c0,1.93.13,3.16.32,3.94h-2.6Zm-.56-4.45v-2.33c-.21.27-.64.54-1.39,1.02-.86.54-1.29,1.23-1.29,2.12,0,.96.4,1.47,1.21,1.47.97,0,1.47-.78,1.47-2.28Z"/>
    <path class="cls-9" d="m241.33,514.92v7.83c0,.86.29,1.18,1.1,1.18.29,0,.62-.05.96-.16v2.41c-.48.19-.96.27-1.55.27-2.25,0-3.35-1.1-3.35-3.32v-8.2h-1.55v-2.41h1.69l.27-3.7h2.44v3.7h2.06v2.41h-2.06Z"/>
    <path class="cls-9" d="m253.28,516.23v9.95h-2.84v-9.62c0-1.18-.32-1.8-1.18-1.8-.8,0-1.45.56-1.45,2.2v9.22h-2.84v-18.77h2.84v6.06c.54-.8,1.39-1.23,2.41-1.23,1.9,0,3.06,1.18,3.06,3.99Z"/>
    <path class="cls-9" d="m263.55,516.69v3.27h-5.58v2.31c0,1.21.48,1.66,1.42,1.66s1.42-.46,1.42-1.66v-.51h2.73v.24c0,2.84-1.47,4.45-4.21,4.45s-4.21-1.61-4.21-4.45v-5.31c0-2.84,1.47-4.45,4.21-4.45s4.21,1.61,4.21,4.45Zm-2.79,1.02v-1.29c0-1.21-.51-1.66-1.39-1.66s-1.39.46-1.39,1.66v1.29h2.79Z"/>
    <path class="cls-9" d="m271.4,512.4v2.76c-.21-.05-.48-.08-.72-.08-1.58,0-2.41,1.1-2.41,3.22v7.88h-2.84v-13.67h2.47l.05,2.31c.38-1.72,1.26-2.57,2.65-2.57.35,0,.59.05.8.16Z"/>
    <path class="cls-9" d="m272.72,507.71h2.84v3.11h-2.84v-3.11Zm0,4.8h2.84v13.67h-2.84v-13.67Z"/>
    <path class="cls-9" d="m286.07,516.23v9.95h-2.84v-9.62c0-1.18-.32-1.8-1.18-1.8-.8,0-1.45.56-1.45,2.2v9.22h-2.84v-13.67h2.47l.05,1.58c.48-1.18,1.47-1.85,2.73-1.85,1.9,0,3.06,1.18,3.06,3.99Z"/>
    <path class="cls-9" d="m296.31,512.5v13.86c0,2.63-1.02,4.24-4.21,4.24-2.71,0-4.07-1.31-4.07-3.67v-.08h2.73v.21c0,.72.4,1.21,1.29,1.21.96,0,1.42-.48,1.42-1.69v-2.06c-.56.8-1.39,1.26-2.41,1.26-1.9,0-3.11-1.18-3.11-3.99v-5.55c0-2.81,1.21-3.99,3.11-3.99,1.23,0,2.25.7,2.73,1.88l.05-1.61h2.47Zm-2.84,8.55v-4.1c0-1.61-.67-2.2-1.47-2.2-.94,0-1.21.72-1.21,1.66v5.17c0,.94.27,1.66,1.21,1.66.8,0,1.47-.59,1.47-2.2Z"/>
  </g>
  <g>
    <path class="cls-9" d="m464.45,499.24v2.68h-.78c-1.1,0-2.12-.4-2.47-1.8-.56.21-1.21.32-1.96.32-2.9,0-4.48-1.72-4.48-4.72v-9.87c0-3,1.58-4.72,4.48-4.72s4.48,1.72,4.48,4.72v9.87c0,1.26-.29,2.31-.83,3.08.21.38.56.43,1.1.43h.46Zm-3.67-13.57c0-1.34-.59-1.85-1.53-1.85s-1.53.51-1.53,1.85v10.24c0,1.34.59,1.85,1.53,1.85s1.53-.51,1.53-1.85v-10.24Z"/>
    <path class="cls-9" d="m473.94,486.51v13.67h-2.47l-.05-1.58c-.48,1.18-1.47,1.85-2.73,1.85-1.9,0-3.06-1.18-3.06-3.99v-9.95h2.84v9.62c0,1.18.32,1.8,1.18,1.8.8,0,1.45-.56,1.45-2.2v-9.22h2.84Z"/>
    <path class="cls-9" d="m475.87,496v-5.31c0-2.84,1.5-4.45,4.18-4.45s4.18,1.61,4.18,4.45v5.31c0,2.84-1.5,4.45-4.18,4.45s-4.18-1.61-4.18-4.45Zm5.52.27v-5.84c0-.94-.29-1.66-1.34-1.66s-1.34.72-1.34,1.66v5.84c0,.96.32,1.66,1.34,1.66s1.34-.7,1.34-1.66Z"/>
    <path class="cls-9" d="m489.78,488.92v7.83c0,.86.29,1.18,1.1,1.18.29,0,.62-.05.96-.16v2.41c-.48.19-.96.27-1.55.27-2.25,0-3.35-1.1-3.35-3.32v-8.2h-1.55v-2.41h1.69l.27-3.7h2.44v3.7h2.06v2.41h-2.06Z"/>
    <path class="cls-9" d="m493.43,481.71h2.84v3.11h-2.84v-3.11Zm0,4.8h2.84v13.67h-2.84v-13.67Z"/>
    <path class="cls-9" d="m506.78,490.24v9.95h-2.84v-9.62c0-1.18-.32-1.8-1.18-1.8-.8,0-1.45.56-1.45,2.2v9.22h-2.84v-13.67h2.47l.05,1.58c.48-1.18,1.47-1.85,2.73-1.85,1.9,0,3.06,1.18,3.06,3.99Z"/>
    <path class="cls-9" d="m517.02,486.51v13.86c0,2.63-1.02,4.24-4.21,4.24-2.71,0-4.07-1.31-4.07-3.67v-.08h2.73v.21c0,.72.4,1.21,1.29,1.21.96,0,1.42-.48,1.42-1.69v-2.06c-.56.8-1.39,1.26-2.41,1.26-1.9,0-3.11-1.18-3.11-3.99v-5.55c0-2.81,1.21-3.99,3.11-3.99,1.23,0,2.25.7,2.73,1.88l.05-1.61h2.47Zm-2.84,8.55v-4.1c0-1.61-.67-2.2-1.47-2.2-.94,0-1.21.72-1.21,1.66v5.17c0,.94.27,1.66,1.21,1.66.8,0,1.47-.59,1.47-2.2Z"/>
  </g>
  <g>
    <path class="cls-9" d="m703.5,481.42h4.34c2.95,0,4.4,1.64,4.4,4.64v1.85c0,3-1.45,4.64-4.4,4.64h-1.39v7.64h-2.95v-18.77Zm4.34,8.44c.94,0,1.45-.43,1.45-1.77v-2.23c0-1.34-.51-1.77-1.45-1.77h-1.39v5.76h1.39Z"/>
    <path class="cls-9" d="m719.8,486.4v2.76c-.21-.05-.48-.08-.72-.08-1.58,0-2.41,1.1-2.41,3.22v7.88h-2.84v-13.67h2.47l.05,2.31c.38-1.72,1.26-2.57,2.65-2.57.35,0,.59.05.8.16Z"/>
    <path class="cls-9" d="m720.79,496v-5.31c0-2.84,1.5-4.45,4.18-4.45s4.18,1.61,4.18,4.45v5.31c0,2.84-1.5,4.45-4.18,4.45s-4.18-1.61-4.18-4.45Zm5.52.27v-5.84c0-.94-.29-1.66-1.34-1.66s-1.34.72-1.34,1.66v5.84c0,.96.32,1.66,1.34,1.66s1.34-.7,1.34-1.66Z"/>
    <path class="cls-9" d="m739.45,490.24v6.22c0,2.81-1.21,3.99-3.11,3.99-1.02,0-1.85-.46-2.41-1.26v5.15h-2.84v-17.83h2.47l.05,1.61c.48-1.18,1.5-1.88,2.73-1.88,1.9,0,3.11,1.18,3.11,3.99Zm-2.84.19c0-.94-.27-1.66-1.21-1.66-.8,0-1.47.59-1.47,2.2v4.77c0,1.61.67,2.2,1.47,2.2.94,0,1.21-.72,1.21-1.66v-5.84Z"/>
    <path class="cls-9" d="m741.19,496v-5.31c0-2.84,1.5-4.45,4.18-4.45s4.18,1.61,4.18,4.45v5.31c0,2.84-1.5,4.45-4.18,4.45s-4.18-1.61-4.18-4.45Zm5.52.27v-5.84c0-.94-.29-1.66-1.34-1.66s-1.34.72-1.34,1.66v5.84c0,.96.32,1.66,1.34,1.66s1.34-.7,1.34-1.66Z"/>
    <path class="cls-9" d="m750.95,496.27v-.43h2.73v.51c0,1.23.54,1.66,1.26,1.66s1.23-.4,1.23-1.47-.91-1.56-1.98-2.17c-1.45-.83-3.11-1.77-3.11-4.34,0-2.28,1.31-3.78,3.83-3.78,2.33,0,3.83,1.5,3.83,3.99v.29h-2.68v-.38c0-1.1-.43-1.47-1.13-1.47-.59,0-1.1.35-1.1,1.29,0,1.13.97,1.72,2.09,2.33,1.45.8,3.06,1.74,3.06,4.18s-1.31,3.97-3.91,3.97-4.13-1.56-4.13-4.18Z"/>
    <path class="cls-9" d="m766.18,500.18c-.08-.16-.19-.75-.21-1.61-.51,1.21-1.53,1.88-2.9,1.88-1.82,0-2.98-1.31-2.98-3.43s.88-3.38,3.3-4.56c1.96-.97,2.23-1.21,2.23-1.96v-.27c0-1.1-.35-1.56-1.15-1.56-.88,0-1.29.56-1.29,1.58v.51h-2.68v-.35c0-2.65,1.37-4.18,3.99-4.18,2.84,0,3.97,1.5,3.97,4.5v5.5c0,1.93.13,3.16.32,3.94h-2.6Zm-.56-4.45v-2.33c-.21.27-.64.54-1.39,1.02-.86.54-1.29,1.23-1.29,2.12,0,.96.4,1.47,1.21,1.47.97,0,1.47-.78,1.47-2.28Z"/>
    <path class="cls-9" d="m770.63,481.42h2.84v18.77h-2.84v-18.77Z"/>
  </g>
  <g>
    <path class="cls-9" d="m927.16,460.82h4.34c2.95,0,4.4,1.64,4.4,4.64v1.85c0,3-1.45,4.64-4.4,4.64h-1.39v7.64h-2.95v-18.77Zm4.34,8.44c.94,0,1.45-.43,1.45-1.77v-2.23c0-1.34-.51-1.77-1.45-1.77h-1.39v5.76h1.39Z"/>
    <path class="cls-9" d="m937.21,475.4v-5.31c0-2.84,1.5-4.45,4.18-4.45s4.18,1.61,4.18,4.45v5.31c0,2.84-1.5,4.45-4.18,4.45s-4.18-1.61-4.18-4.45Zm5.52.27v-5.84c0-.94-.29-1.66-1.34-1.66s-1.34.72-1.34,1.66v5.84c0,.96.32,1.66,1.34,1.66s1.34-.7,1.34-1.66Z"/>
    <path class="cls-9" d="m947.51,460.82h2.84v18.77h-2.84v-18.77Z"/>
    <path class="cls-9" d="m952.55,461.11h2.84v3.11h-2.84v-3.11Zm0,4.8h2.84v13.67h-2.84v-13.67Z"/>
    <path class="cls-9" d="m957.32,475.46v-5.42c0-2.79,1.45-4.4,4.16-4.4s4.05,1.72,4.05,4.4v.83h-2.73v-1.1c0-1.02-.35-1.61-1.31-1.61s-1.31.59-1.31,1.61v5.95c0,1.02.35,1.61,1.31,1.61s1.31-.59,1.31-1.61v-1.37h2.73v1.1c0,2.68-1.31,4.4-4.05,4.4s-4.16-1.61-4.16-4.4Z"/>
    <path class="cls-9" d="m967.18,483.74v-2.41c.32.11.67.16,1.04.16.97,0,1.31-.27,1.5-1.15l.05-.19-3.3-14.24h2.9l1.82,9.41,1.63-9.41h2.65l-3.03,14.85c-.48,2.33-1.55,3.24-3.75,3.24-.51,0-1.05-.05-1.53-.27Z"/>
    <path class="cls-9" d="m957.18,492.99h4.45c3.06,0,4.37,1.42,4.37,4.32v.75c0,1.93-.59,3.14-1.9,3.67v.05c1.58.54,2.2,1.93,2.2,3.91v1.61c0,2.9-1.53,4.45-4.48,4.45h-4.64v-18.77Zm4.1,7.64c1.1,0,1.77-.48,1.77-1.98v-1.05c0-1.34-.46-1.93-1.5-1.93h-1.42v4.96h1.15Zm.54,8.44c.99,0,1.53-.46,1.53-1.85v-1.64c0-1.74-.56-2.28-1.9-2.28h-1.31v5.76h1.69Z"/>
    <path class="cls-9" d="m968.01,493.28h2.84v3.11h-2.84v-3.11Zm0,4.8h2.84v13.67h-2.84v-13.67Z"/>
    <path class="cls-9" d="m981.36,501.81v9.95h-2.84v-9.62c0-1.18-.32-1.8-1.18-1.8-.8,0-1.45.56-1.45,2.2v9.22h-2.84v-13.67h2.47l.05,1.58c.48-1.18,1.47-1.85,2.73-1.85,1.9,0,3.06,1.18,3.06,3.99Z"/>
    <path class="cls-9" d="m989.38,511.75c-.08-.16-.19-.75-.24-1.61-.48,1.18-1.5,1.88-2.76,1.88-1.88,0-3.08-1.18-3.08-3.99v-6.22c0-2.81,1.21-3.99,3.08-3.99,1.02,0,1.88.46,2.44,1.26v-6.09h2.84v14.83c0,1.93.13,3.16.32,3.94h-2.6Zm-.56-4.45v-4.77c0-1.61-.67-2.2-1.47-2.2-.94,0-1.21.72-1.21,1.66v5.84c0,.94.27,1.66,1.21,1.66.8,0,1.47-.59,1.47-2.2Z"/>
    <path class="cls-9" d="m993.86,493.28h2.84v3.11h-2.84v-3.11Zm0,4.8h2.84v13.67h-2.84v-13.67Z"/>
    <path class="cls-9" d="m1007.21,501.81v9.95h-2.84v-9.62c0-1.18-.32-1.8-1.18-1.8-.8,0-1.45.56-1.45,2.2v9.22h-2.84v-13.67h2.47l.05,1.58c.48-1.18,1.47-1.85,2.73-1.85,1.9,0,3.06,1.18,3.06,3.99Z"/>
    <path class="cls-9" d="m1017.45,498.08v13.86c0,2.63-1.02,4.24-4.21,4.24-2.71,0-4.08-1.31-4.08-3.67v-.08h2.73v.21c0,.72.4,1.21,1.29,1.21.96,0,1.42-.48,1.42-1.69v-2.06c-.56.8-1.39,1.26-2.41,1.26-1.9,0-3.11-1.18-3.11-3.99v-5.55c0-2.81,1.21-3.99,3.11-3.99,1.23,0,2.25.7,2.73,1.88l.05-1.61h2.47Zm-2.84,8.55v-4.1c0-1.61-.67-2.2-1.47-2.2-.94,0-1.21.72-1.21,1.66v5.17c0,.94.27,1.66,1.21,1.66.8,0,1.47-.59,1.47-2.2Z"/>
  </g>
  <polygon class="cls-11" points="1177.73 460.53 1065.25 460.53 1126.16 526.18 1065.25 591.83 1177.73 591.83 1238.64 526.18 1177.73 460.53"/>
  <polygon class="cls-3" points="1247.32 438.08 1096.39 438.08 1178.12 526.18 1096.39 614.27 1247.32 614.27 1329.05 526.18 1247.32 438.08"/>
  <path class="cls-11" d="m1242.7,448.68l71.89,77.49-71.89,77.49h-122.01l71.89-77.49-71.89-77.49h122.01m.51-1.18h-125.22l1.84,1.98,71.15,76.69-71.15,76.69-1.84,1.98h125.22l.35-.38,71.89-77.49.74-.8-.74-.8-71.89-77.49-.35-.38h0Z"/>
  <g>
    <path class="cls-9" d="m1169.38,460.82h4.34c2.95,0,4.4,1.64,4.4,4.64v1.85c0,3-1.45,4.64-4.4,4.64h-1.39v7.64h-2.95v-18.77Zm4.34,8.44c.94,0,1.45-.43,1.45-1.77v-2.23c0-1.34-.51-1.77-1.45-1.77h-1.39v5.76h1.39Z"/>
    <path class="cls-9" d="m1179.44,475.4v-5.31c0-2.84,1.5-4.45,4.18-4.45s4.18,1.61,4.18,4.45v5.31c0,2.84-1.5,4.45-4.18,4.45s-4.18-1.61-4.18-4.45Zm5.52.27v-5.84c0-.94-.29-1.66-1.34-1.66s-1.34.72-1.34,1.66v5.84c0,.96.32,1.66,1.34,1.66s1.34-.7,1.34-1.66Z"/>
    <path class="cls-9" d="m1189.73,460.82h2.84v18.77h-2.84v-18.77Z"/>
    <path class="cls-9" d="m1194.77,461.11h2.84v3.11h-2.84v-3.11Zm0,4.8h2.84v13.67h-2.84v-13.67Z"/>
    <path class="cls-9" d="m1199.54,475.46v-5.42c0-2.79,1.45-4.4,4.16-4.4s4.05,1.72,4.05,4.4v.83h-2.74v-1.1c0-1.02-.35-1.61-1.31-1.61s-1.31.59-1.31,1.61v5.95c0,1.02.35,1.61,1.31,1.61s1.31-.59,1.31-1.61v-1.37h2.74v1.1c0,2.68-1.31,4.4-4.05,4.4s-4.16-1.61-4.16-4.4Z"/>
    <path class="cls-9" d="m1209.41,483.74v-2.41c.32.11.67.16,1.04.16.97,0,1.31-.27,1.5-1.15l.05-.19-3.3-14.24h2.9l1.82,9.41,1.63-9.41h2.65l-3.03,14.85c-.48,2.33-1.55,3.24-3.75,3.24-.51,0-1.05-.05-1.53-.27Z"/>
    <path class="cls-9" d="m1199.41,492.99h2.95v18.77h-2.95v-18.77Z"/>
    <path class="cls-9" d="m1204.02,507.84v-.43h2.73v.51c0,1.23.54,1.66,1.26,1.66s1.23-.4,1.23-1.47-.91-1.56-1.98-2.17c-1.45-.83-3.11-1.77-3.11-4.34,0-2.28,1.31-3.78,3.83-3.78,2.33,0,3.83,1.5,3.83,3.99v.29h-2.68v-.38c0-1.1-.43-1.47-1.13-1.47-.59,0-1.1.35-1.1,1.29,0,1.13.97,1.72,2.09,2.33,1.45.8,3.06,1.74,3.06,4.18s-1.31,3.97-3.91,3.97-4.13-1.55-4.13-4.18Z"/>
    <path class="cls-9" d="m1213.19,507.84v-.43h2.73v.51c0,1.23.54,1.66,1.26,1.66s1.23-.4,1.23-1.47-.91-1.56-1.98-2.17c-1.45-.83-3.11-1.77-3.11-4.34,0-2.28,1.31-3.78,3.83-3.78,2.33,0,3.83,1.5,3.83,3.99v.29h-2.68v-.38c0-1.1-.43-1.47-1.13-1.47-.59,0-1.1.35-1.1,1.29,0,1.13.97,1.72,2.09,2.33,1.45.8,3.06,1.74,3.06,4.18s-1.31,3.97-3.91,3.97-4.13-1.55-4.13-4.18Z"/>
    <path class="cls-9" d="m1231.12,498.08v13.67h-2.47l-.05-1.58c-.48,1.18-1.47,1.85-2.73,1.85-1.9,0-3.06-1.18-3.06-3.99v-9.95h2.84v9.62c0,1.18.32,1.8,1.18,1.8.8,0,1.45-.56,1.45-2.2v-9.22h2.84Z"/>
    <path class="cls-9" d="m1238.84,511.75c-.08-.16-.19-.75-.21-1.61-.51,1.21-1.53,1.88-2.9,1.88-1.82,0-2.98-1.31-2.98-3.43s.88-3.38,3.3-4.56c1.96-.97,2.22-1.21,2.22-1.96v-.27c0-1.1-.35-1.56-1.15-1.56-.88,0-1.29.56-1.29,1.58v.51h-2.68v-.35c0-2.65,1.37-4.18,3.99-4.18,2.84,0,3.97,1.5,3.97,4.5v5.5c0,1.93.13,3.16.32,3.94h-2.6Zm-.56-4.45v-2.33c-.21.27-.64.54-1.39,1.02-.86.54-1.29,1.23-1.29,2.12,0,.96.4,1.47,1.21,1.47.97,0,1.47-.78,1.47-2.28Z"/>
    <path class="cls-9" d="m1251.6,501.81v9.95h-2.84v-9.62c0-1.18-.32-1.8-1.18-1.8-.8,0-1.45.56-1.45,2.2v9.22h-2.84v-13.67h2.47l.05,1.58c.48-1.18,1.47-1.85,2.73-1.85,1.9,0,3.06,1.18,3.06,3.99Z"/>
    <path class="cls-9" d="m1253.45,507.63v-5.42c0-2.79,1.45-4.4,4.16-4.4s4.05,1.72,4.05,4.4v.83h-2.74v-1.1c0-1.02-.35-1.61-1.31-1.61s-1.31.59-1.31,1.61v5.95c0,1.02.35,1.61,1.31,1.61s1.31-.59,1.31-1.61v-1.37h2.74v1.1c0,2.68-1.31,4.4-4.05,4.4s-4.16-1.61-4.16-4.4Z"/>
    <path class="cls-9" d="m1271.63,502.26v3.27h-5.58v2.31c0,1.21.48,1.66,1.42,1.66s1.42-.46,1.42-1.66v-.51h2.73v.24c0,2.84-1.47,4.45-4.21,4.45s-4.21-1.61-4.21-4.45v-5.31c0-2.84,1.47-4.45,4.21-4.45s4.21,1.61,4.21,4.45Zm-2.79,1.02v-1.29c0-1.21-.51-1.66-1.39-1.66s-1.39.46-1.39,1.66v1.29h2.79Z"/>
  </g>
  <g>
    <path class="cls-1" d="m705.15,576c.06-.12.12-.23.17-.35.41-.91,1.11-1.41,2.1-1.43,1.3-.03,2.61-.04,3.92,0,1.16.03,1.87.7,2.24,1.79.46-.2.92-.39,1.36-.6.09-.05.17-.18.2-.29.03-.11,0-.24,0-.36,0-7.04,0-14.08-.01-21.12,0-.89.28-1.58.92-2.2,1.39-1.35,2.75-2.73,4.11-4.1.54-.54,1.16-.8,1.93-.8,6.08.01,12.16,0,18.23,0,1.55,0,2.48.93,2.48,2.49,0,2.88,0,5.76,0,8.64,0,.16,0,.33,0,.6.18-.16.29-.26.4-.36,1.04-1.04,2.08-2.08,3.12-3.12.79-.79,1.64-.79,2.44,0,.63.62,1.25,1.25,1.88,1.88.84.84.85,1.67.01,2.5-2.51,2.52-5.03,5.03-7.55,7.54-.22.22-.31.43-.31.74.01,2.99,0,5.97,0,8.96v.52c.21-.11.35-.17.48-.25,1.19-.67,2.36-1.36,3.56-2.01,1.61-.87,3.45.1,3.63,1.92.09.93-.32,1.65-1.04,2.22-1.5,1.19-3,2.4-4.49,3.6-3.87,3.1-7.74,6.22-11.64,9.3-.53.42-1.24.63-1.86.93h-1.26c-.24-.08-.48-.16-.72-.23-5.05-1.61-10.09-3.22-15.14-4.83-.22-.07-.45-.12-.69-.19-.04.14-.07.22-.09.31-.31,1.21-1.15,1.87-2.4,1.88-1.23,0-2.46,0-3.69,0-.72,0-1.33-.27-1.77-.83-.22-.29-.37-.64-.55-.96,0-3.93,0-7.87,0-11.8Zm16.92-27.92c0,1.04,0,2.03,0,3.02,0,.71-.26,1.32-.8,1.79-.46.4-1,.59-1.61.58-.98,0-1.97,0-2.96,0v21.18c1.32-.46,2.63-.57,3.97-.34,5.11.87,10.22,1.74,15.32,2.61.35.06.71.11,1.06.2,1.02.29,1.58,1.02,1.81,2.06.71-.4,1.38-.8,2.07-1.15.27-.14.34-.31.34-.6-.01-2.79,0-5.58,0-8.38,0-.12-.02-.25-.04-.46-.82.83-1.57,1.61-2.35,2.35-.23.22-.52.41-.82.51-1,.36-2.01.7-3.02,1-.38.12-.79.19-1.18.19-4.58.01-9.16,0-13.73,0-.15,0-.3,0-.45-.01-.4-.04-.69-.36-.69-.76,0-.39.29-.72.69-.76.13-.02.27,0,.4,0,4.07,0,8.14,0,12.2,0h.51c.41-1.22.77-2.39,1.19-3.54.14-.39.37-.79.66-1.09,2.06-2.1,4.15-4.17,6.24-6.24.27-.27.4-.54.4-.94-.02-3.36,0-6.72,0-10.09,0-.95-.21-1.17-1.16-1.17-5.82,0-11.65,0-17.47,0h-.56Zm-8.46,37.73c.49.13.92.21,1.33.34,4.97,1.59,9.95,3.17,14.92,4.78.91.29,1.73.22,2.49-.39,5.37-4.31,10.74-8.62,16.11-12.93.5-.4.62-.9.32-1.33-.29-.41-.77-.48-1.32-.17-1.16.65-2.32,1.31-3.48,1.97-3.81,2.15-7.62,4.3-11.42,6.47-.97.55-1.88.57-2.83-.05-.86-.57-1.79-1.05-2.62-1.66-1-.73-2.06-1.09-3.3-.93-.35.05-.72.02-1.08,0-.47-.03-.79-.36-.8-.77-.01-.42.32-.76.81-.8.15-.01.3,0,.45,0,4.35,0,8.7,0,13.06,0,.64,0,1.01-.29,1.05-.8.04-.48-.28-.85-.87-.95-1.52-.27-3.04-.53-4.56-.79-3.65-.62-7.29-1.23-10.93-1.88-1.56-.28-3.03-.19-4.47.52-.81.39-1.64.74-2.47,1.07-.3.12-.4.27-.4.59.02,2.09,0,4.17,0,6.26,0,.49,0,.99,0,1.46Zm-6.93-3.96c0,1.72,0,3.45,0,5.17,0,.75.26,1.02.99,1.02,1.14,0,2.28,0,3.42,0,.7,0,.97-.28.97-.99,0-3.43,0-6.87,0-10.3,0-.73-.27-1-1.01-1-1.11,0-2.22,0-3.33,0-.79,0-1.04.26-1.04,1.06,0,1.68,0,3.36,0,5.04Zm36.52-21.61c-2.37,2.37-4.77,4.77-7.13,7.13.68.68,1.39,1.38,2.06,2.04,2.36-2.35,4.76-4.75,7.13-7.11-.69-.69-1.39-1.39-2.06-2.06Zm6.44-2.27c-.72-.72-1.42-1.42-2.12-2.13-.32.33-.66.67-.95.97.7.7,1.4,1.41,2.11,2.12.31-.31.64-.65.96-.96Zm-5.29,1.01c.71.71,1.42,1.42,2.11,2.11.32-.32.66-.67.95-.96-.69-.69-1.39-1.39-2.08-2.08-.31.3-.66.63-.98.94Zm-15.63,22.95s-.02.06-.03.09c.7.43,1.38.9,2.1,1.27.22.11.6.07.84-.04.56-.25,1.08-.58,1.61-.89.21-.12.41-.24.62-.37-.01-.02-.03-.05-.04-.07h-5.1Zm-8.23-32.51c-.83.82-1.68,1.66-2.51,2.49.56,0,1.19.02,1.81,0,.4-.02.68-.27.69-.69.02-.62,0-1.25,0-1.79Zm13.95,21.62c.8-.27,1.49-.5,2.06-.69-.46-.47-.93-.93-1.37-1.38-.2.6-.42,1.27-.69,2.06Z"/>
    <path class="cls-1" d="m728.92,557.32c-2.91,0-5.82,0-8.73,0-.16,0-.33,0-.49-.02-.44-.06-.72-.38-.71-.79,0-.41.3-.71.74-.76.12-.01.24,0,.36,0,5.93,0,11.86,0,17.79,0,.16,0,.33,0,.49.04.38.09.6.36.6.74,0,.4-.22.68-.63.76-.17.03-.36.03-.54.03-2.96,0-5.91,0-8.87,0Z"/>
    <path class="cls-1" d="m730.86,561.15c-2.04,0-4.08,0-6.12,0-.14,0-.27,0-.41,0-.45-.03-.73-.32-.73-.75,0-.44.29-.77.75-.78.84-.01,1.68,0,2.52,0,3.41,0,6.81,0,10.22,0,.12,0,.24,0,.36,0,.43.03.73.35.74.76,0,.43-.3.75-.76.77-.36.02-.72,0-1.08,0-1.83,0-3.66,0-5.49,0Z"/>
    <path class="cls-1" d="m725.14,567.28c1.69,0,3.39,0,5.08,0,.16,0,.33,0,.49.05.37.11.57.37.55.77-.01.38-.22.62-.58.7-.17.04-.36.05-.53.05-3.34,0-6.69,0-10.03,0-.76,0-1.13-.26-1.14-.78,0-.53.37-.8,1.12-.8,1.68,0,3.36,0,5.04,0Z"/>
    <path class="cls-1" d="m722.83,565c-.97,0-1.95,0-2.92,0-.56,0-.91-.3-.92-.76,0-.47.33-.78.9-.78,1.96,0,3.93,0,5.89,0,.58,0,.9.3.9.78,0,.47-.36.76-.92.77-.97,0-1.95,0-2.92,0Z"/>
    <path class="cls-1" d="m731.27,565c-.72,0-1.44,0-2.16,0-.56,0-.9-.3-.9-.78,0-.48.32-.77.9-.77,1.44,0,2.88,0,4.31,0,.61,0,.94.29.92.79-.01.47-.35.75-.92.76-.72,0-1.44,0-2.16,0Z"/>
    <path class="cls-1" d="m720.52,561.14c-.27,0-.54.01-.81,0-.43-.03-.73-.35-.73-.76,0-.39.29-.74.69-.76.57-.03,1.14-.03,1.71,0,.39.02.69.38.69.76,0,.38-.3.72-.69.75-.28.02-.57,0-.85,0h0Z"/>
    <path class="cls-1" d="m709.35,578.84c-.76,0-1.13-.25-1.14-.77,0-.54.37-.8,1.16-.8.78,0,1.17.27,1.16.79,0,.52-.39.78-1.18.78Z"/>
    <path class="cls-1" d="m709.36,586.52c-.76,0-1.13-.26-1.14-.78,0-.53.36-.78,1.13-.78.14,0,.27,0,.4,0,.47.04.78.35.78.77,0,.43-.34.76-.82.78-.12,0-.24,0-.36,0Z"/>
  </g>
  <g>
    <path class="cls-8" d="m254.56,572.17c-.09.68-.16,1.36-.28,2.04-1.16,7.02-4.71,12.52-10.61,16.48-2.98,2-6.26,3.29-9.82,3.68-9.89,1.09-17.75-2.46-23.44-10.64-2.21-3.19-3.42-6.79-3.82-10.65-1.11-10.92,5.15-20.98,15.23-24.93,2.15-.84,4.38-1.36,6.68-1.53.14,0,.27-.06.41-.09,1.06,0,2.13,0,3.19,0,.59.07,1.17.14,1.76.22,3.98.58,7.63,2.02,10.85,4.43,5.29,3.95,8.48,9.19,9.55,15.71.11.69.19,1.39.28,2.08v3.19Zm-2.19-1.59c.01-12.04-9.78-21.83-21.84-21.84-12.04-.01-21.84,9.78-21.85,21.84,0,12.04,9.78,21.83,21.84,21.84,12.04,0,21.84-9.78,21.85-21.84Z"/>
    <path class="cls-8" d="m225.07,569.26c.12-.47.2-.86.32-1.25.03-.1.14-.22.24-.25,1.43-.49,2.81-1.13,4.37-1.15,1.22-.02,2.33.23,3.21,1.14.59.61.77,1.37.76,2.19-.01,1.51-.55,2.9-.93,4.33-.36,1.35-.7,2.72-1.04,4.07-.02.09-.03.19-.04.28-.11,1.23.4,1.78,1.64,1.78.36,0,.72-.01,1.08-.07.34-.05.66-.17,1.07-.29-.11.45-.2.85-.32,1.24-.02.08-.14.16-.23.19-1.08.36-2.14.83-3.25,1.04-1.52.29-3.04.2-4.28-.92-.75-.68-1-1.55-.93-2.54.11-1.66.71-3.19,1.13-4.77.28-1.07.6-2.13.81-3.22.41-2.08-.67-2.41-2.36-2.15-.39.06-.78.21-1.24.35Z"/>
    <path class="cls-8" d="m232.93,558.56c1.58,0,2.9,1.1,3.05,2.48.22,2-1.69,3.27-3.31,3.12-1.45-.13-2.61-1.12-2.8-2.35-.27-1.76,1.13-3.25,3.06-3.25Z"/>
  </g>
  <g>
    <path class="cls-2" d="m492.05,546.54c.71.21,1.46.34,2.13.65,2.96,1.39,4.45,3.79,4.49,7.03.05,3.7.01,7.41.01,11.11,0,.8-.26,1.48-1,1.88-.64.35-1.3.32-1.91-.07-.67-.43-.89-1.09-.89-1.85,0-3.66,0-7.31,0-10.97,0-.92-.18-1.77-.74-2.51-.78-1.04-1.85-1.52-3.12-1.53-7.6-.01-15.19-.02-22.79,0-2.28,0-3.87,1.6-3.87,3.87-.01,10.93-.01,21.85,0,32.78,0,2.28,1.62,3.85,3.93,3.86,2.02.01,4.03,0,6.05,0,1.02,0,1.77.7,1.88,1.72.1.9-.52,1.76-1.43,1.98-.16.04-.34.05-.51.05-2.09,0-4.19.01-6.28,0-3.9-.03-7.13-3.09-7.39-6.99-.03-.45-.05-.91-.05-1.36,0-10.6,0-21.19,0-31.79,0-2.98,1.19-5.34,3.79-6.85.78-.45,1.71-.63,2.57-.93.09-.03.17-.06.26-.09,8.28,0,16.57,0,24.85,0Z"/>
    <path class="cls-2" d="m503.62,577.43c.05,1.68-.52,3.12-1.71,4.31-1.23,1.23-2.45,2.45-3.68,3.68-2.09,2.09-4.18,4.17-6.27,6.26-.41.41-.88.68-1.44.83-2.31.63-4.62,1.28-6.93,1.92-1.21.33-2.21-.08-2.52-1.11-.12-.41-.12-.91,0-1.32.68-2.36,1.4-4.72,2.14-7.07.13-.4.37-.8.67-1.1,3.36-3.38,6.73-6.75,10.12-10.1,1.57-1.56,3.49-2.06,5.6-1.44,2.14.63,3.44,2.12,3.93,4.3.01.06.03.12.04.18.02.22.04.44.06.65Zm-18,12.48c.16-.02.24-.02.31-.04,1.08-.3,2.16-.59,3.23-.91.19-.06.38-.2.53-.35,2.09-2.08,4.18-4.16,6.26-6.25.11-.11.21-.22.24-.25-.88-.89-1.75-1.75-2.62-2.63.03-.02,0,0-.02.02-2.22,2.21-4.44,4.43-6.66,6.65-.08.08-.17.19-.2.3-.35,1.13-.7,2.26-1.07,3.47Zm13.39-10.63c.64-.49.98-1.17.8-2.01-.16-.72-.63-1.2-1.36-1.39-.89-.23-1.53.17-2.06.79.87.87,1.73,1.72,2.63,2.61Z"/>
    <path class="cls-2" d="m479.62,557.8c3.22,0,6.44,0,9.66,0,.88,0,1.63.59,1.82,1.41.21.86-.18,1.75-.97,2.13-.26.12-.57.2-.85.2-6.44.01-12.88.01-19.32,0-1.05,0-1.89-.84-1.89-1.87,0-1.03.83-1.87,1.89-1.87,3.22,0,6.44,0,9.66,0Z"/>
    <path class="cls-2" d="m479.61,569.04c-3.22,0-6.44,0-9.66,0-.83,0-1.52-.52-1.77-1.28-.25-.77-.01-1.63.67-2.08.31-.2.71-.37,1.08-.37,6.47-.02,12.94-.02,19.41-.01,1.01,0,1.84.87,1.83,1.88,0,1.01-.83,1.86-1.85,1.86-3.24.01-6.47,0-9.71,0Z"/>
    <path class="cls-2" d="m475.83,576.55c-1.95,0-3.9,0-5.86,0-1.01,0-1.76-.7-1.88-1.72-.1-.88.53-1.75,1.44-1.97.15-.04.31-.04.46-.04,3.89,0,7.78,0,11.67,0,1.03,0,1.77.68,1.9,1.7.11.88-.5,1.76-1.42,1.99-.21.05-.43.05-.65.05-1.89,0-3.78,0-5.67,0Z"/>
  </g>
  <g>
    <path class="cls-10" d="m1198.77,551.07c.24-.85.5-1.7,1.07-2.41,1.08-1.36,2.46-2.11,4.21-2.11,7.41,0,14.83,0,22.24,0,2.96,0,5.34,2.33,5.36,5.29.02,3.46,0,6.91,0,10.37,0,.93-.64,1.62-1.48,1.61-.83,0-1.44-.66-1.44-1.59,0-3.35,0-6.7-.01-10.05,0-.43-.05-.89-.22-1.28-.42-.99-1.24-1.45-2.3-1.45-1.77-.01-3.53,0-5.3,0-5.5,0-10.99,0-16.49,0-1.77,0-2.75.98-2.75,2.74,0,9.77,0,19.53,0,29.3,0,1.77.98,2.75,2.74,2.75,4.92,0,9.84,0,14.76,0,.72,0,1.23.36,1.45,1,.2.59.01,1.24-.52,1.6-.24.16-.55.28-.83.28-5.16.02-10.33.03-15.49,0-2.3-.01-4.38-1.85-4.9-4.23-.02-.1-.07-.19-.1-.29,0-10.51,0-21.02,0-31.52Z"/>
    <path class="cls-10" d="m1233.2,592.92c-2.52-1.17-4.83-2.66-6.81-4.62-2.07-2.05-3.59-4.42-4.17-7.31-.14-.69-.23-1.4-.24-2.11-.03-2.67-.01-5.34-.01-8.02,0-.78.33-1.24,1.06-1.5,3.32-1.14,6.64-2.28,9.97-3.38.34-.11.79-.11,1.14,0,3.31,1.1,6.62,2.23,9.92,3.36.8.27,1.11.72,1.11,1.56,0,2.42-.03,4.83,0,7.25.06,3.55-1.23,6.56-3.53,9.18-2.13,2.41-4.71,4.21-7.64,5.53-.03.01-.05.04-.07.05h-.72Zm8.99-17.34h.07c0-1.1-.02-2.2,0-3.31,0-.34-.09-.5-.42-.61-2.66-.89-5.3-1.8-7.96-2.68-.2-.07-.45-.06-.65,0-2.67.89-5.33,1.81-8,2.7-.33.11-.39.27-.39.58.01,2.02,0,4.05,0,6.07,0,1.87.48,3.61,1.45,5.2,1.71,2.79,4.21,4.69,7.04,6.21.12.07.35.04.49-.03,2.16-1.16,4.12-2.57,5.72-4.45,1.43-1.68,2.46-3.55,2.62-5.79.09-1.29.02-2.59.02-3.89Z"/>
    <path class="cls-10" d="m1215.21,561.99c2.99,0,5.98,0,8.97,0,.7,0,1.24.24,1.54.89.4.89-.21,1.91-1.22,2.03-.1.01-.21,0-.32,0-5.99,0-11.99,0-17.98,0-1,0-1.66-.62-1.63-1.53.02-.69.53-1.27,1.22-1.36.21-.03.42-.03.63-.03,2.93,0,5.86,0,8.79,0Z"/>
    <path class="cls-10" d="m1211.31,572.63c-1.72,0-3.44,0-5.16,0-.93,0-1.57-.59-1.58-1.43,0-.87.63-1.47,1.58-1.47,3.45,0,6.91,0,10.36,0,.93,0,1.57.58,1.58,1.43.01.86-.64,1.47-1.59,1.47-1.73,0-3.47,0-5.2,0Z"/>
    <path class="cls-10" d="m1210.39,554.25c1.42,0,2.84,0,4.26,0,.73,0,1.31.45,1.48,1.1.16.6-.1,1.28-.67,1.59-.25.14-.57.21-.86.22-2.82.02-5.65.02-8.47,0-.93,0-1.56-.61-1.56-1.46,0-.87.65-1.46,1.61-1.46,1.4,0,2.81,0,4.21,0Z"/>
    <path class="cls-10" d="m1232.91,580.56c1.06-1.4,2.07-2.75,3.08-4.1.55-.74,1.1-1.48,1.65-2.21.53-.7,1.42-.87,2.07-.4.68.49.82,1.39.28,2.12-1.9,2.55-3.81,5.1-5.73,7.64-.59.78-1.55.84-2.25.15-1.28-1.26-2.55-2.53-3.81-3.81-.6-.61-.6-1.49-.03-2.07.59-.6,1.47-.59,2.1.03.87.86,1.72,1.73,2.63,2.65Z"/>
  </g>
  <g>
    <path class="cls-9" d="m1425.07,575.2h-7.9c-1.29-.17-2.59-.32-3.88-.51-11-1.64-20.76-6.03-29.11-13.39-9.84-8.67-16.01-19.47-18.37-32.39-.36-1.97-.59-3.96-.88-5.94,0-2.63,0-5.27,0-7.9.16-1.26.31-2.53.49-3.79,1.61-10.89,5.82-20.66,13.16-28.88,13.86-15.52,31.25-21.91,51.8-18.77,14.35,2.19,26.08,9.41,35.01,20.86,9.72,12.45,13.45,26.66,11.39,42.29-1.46,11.08-6.02,20.85-13.42,29.23-8.66,9.81-19.45,15.96-32.35,18.31-1.97.36-3.96.59-5.94.88Zm-3.89-105.34c-26.98-.09-49.07,21.92-49.23,49.04-.16,26.96,21.99,49.18,49.1,49.28,26.97.1,49.16-21.92,49.21-49.04.05-27.12-21.74-49.09-49.08-49.28Z"/>
    <path class="cls-9" d="m1417.61,515.51c0-.7,0-1.24,0-1.79,0-7.35,0-14.7,0-22.05,0-2.25,1.41-3.8,3.47-3.81,2.11-.01,3.54,1.54,3.54,3.85,0,7.5,0,14.99,0,22.49v1.3c.52,0,.94,0,1.37,0,7.61,0,15.22,0,22.82,0,1.72,0,3.21,1.32,3.44,2.95.24,1.76-.77,3.41-2.46,3.91-.48.14-1.01.15-1.51.15-7.43,0-14.85,0-22.28,0h-1.38c0,.45,0,.87,0,1.29,0,7.61,0,15.21,0,22.82,0,1.8-1.3,3.31-2.98,3.52-1.76.23-3.41-.8-3.89-2.49-.13-.45-.14-.94-.14-1.41,0-7.46,0-14.92,0-22.38v-1.35c-.48,0-.9,0-1.32,0-7.61,0-15.22,0-22.82,0-1.74,0-3.24-1.28-3.49-2.9-.28-1.79.77-3.5,2.51-3.98.45-.12.94-.12,1.41-.13,7.46,0,14.92,0,22.39,0,.4,0,.79,0,1.33,0Z"/>
  </g>
  <rect class="cls-3" x="1545.95" y="326.76" width="303.5" height="72.36"/>
  <rect class="cls-5" x="1553.24" y="332.57" width="288.93" height="60.74"/>
  <g>
    <path class="cls-9" d="m1582.12,366.96v-11.52c0-3.31,1.72-5.27,4.96-5.27s4.96,1.96,4.96,5.27v2.27h-3.19v-2.48c0-1.41-.67-1.99-1.69-1.99s-1.68.58-1.68,1.99v11.98c0,1.41.67,1.96,1.68,1.96s1.69-.55,1.69-1.96v-3.13h3.19v2.88c0,3.31-1.72,5.27-4.96,5.27s-4.96-1.96-4.96-5.27Z"/>
    <path class="cls-9" d="m1603.35,361.07v3.74h-6.37v2.64c0,1.38.55,1.9,1.62,1.9s1.62-.52,1.62-1.9v-.58h3.12v.28c0,3.25-1.68,5.09-4.81,5.09s-4.81-1.84-4.81-5.09v-6.07c0-3.25,1.68-5.09,4.81-5.09s4.81,1.84,4.81,5.09Zm-3.19,1.16v-1.47c0-1.38-.58-1.9-1.59-1.9s-1.59.52-1.59,1.9v1.47h3.19Z"/>
    <path class="cls-9" d="m1612.33,356.17v3.16c-.25-.06-.55-.09-.83-.09-1.81,0-2.76,1.26-2.76,3.68v9.01h-3.25v-15.63h2.82l.06,2.64c.43-1.96,1.44-2.94,3.03-2.94.4,0,.67.06.92.18Z"/>
    <path class="cls-9" d="m1618.21,359.05v8.95c0,.98.34,1.35,1.26,1.35.34,0,.71-.06,1.1-.18v2.76c-.55.21-1.1.31-1.78.31-2.57,0-3.83-1.26-3.83-3.8v-9.38h-1.78v-2.76h1.93l.31-4.23h2.79v4.23h2.36v2.76h-2.36Z"/>
    <path class="cls-9" d="m1622.37,350.81h3.25v3.55h-3.25v-3.55Zm0,5.48h3.25v15.63h-3.25v-15.63Z"/>
    <path class="cls-9" d="m1632.88,350.17c.67,0,1.22.09,1.78.31v2.76c-.4-.12-.77-.18-1.1-.18-.92,0-1.26.37-1.26,1.35v1.9h2.36v2.76h-2.36v12.87h-3.25v-12.87h-1.78v-2.76h1.78v-2.33c0-2.54,1.26-3.8,3.83-3.8Zm6.62.64v3.55h-3.25v-3.55h3.25Zm-3.25,5.48h3.25v15.63h-3.25v-15.63Z"/>
    <path class="cls-9" d="m1641.71,367.2v-6.19c0-3.19,1.65-5.02,4.75-5.02s4.63,1.96,4.63,5.02v.95h-3.12v-1.26c0-1.16-.4-1.84-1.5-1.84s-1.5.67-1.5,1.84v6.8c0,1.16.4,1.84,1.5,1.84s1.5-.67,1.5-1.84v-1.56h3.12v1.26c0,3.06-1.5,5.02-4.63,5.02s-4.75-1.84-4.75-5.02Z"/>
    <path class="cls-9" d="m1659.42,371.92c-.09-.18-.21-.86-.25-1.84-.58,1.38-1.75,2.14-3.31,2.14-2.08,0-3.4-1.5-3.4-3.92s1.01-3.86,3.77-5.21c2.24-1.1,2.54-1.38,2.54-2.24v-.31c0-1.26-.4-1.78-1.32-1.78-1.01,0-1.47.64-1.47,1.81v.58h-3.06v-.4c0-3.03,1.56-4.78,4.57-4.78,3.25,0,4.54,1.72,4.54,5.15v6.28c0,2.21.15,3.62.37,4.5h-2.97Zm-.64-5.09v-2.67c-.25.31-.74.61-1.59,1.16-.98.61-1.47,1.41-1.47,2.42,0,1.1.46,1.69,1.38,1.69,1.1,0,1.69-.89,1.69-2.6Z"/>
    <path class="cls-9" d="m1668.51,359.05v8.95c0,.98.34,1.35,1.26,1.35.34,0,.71-.06,1.1-.18v2.76c-.55.21-1.1.31-1.78.31-2.57,0-3.83-1.26-3.83-3.8v-9.38h-1.78v-2.76h1.93l.31-4.23h2.79v4.23h2.36v2.76h-2.36Z"/>
    <path class="cls-9" d="m1681.96,361.07v3.74h-6.37v2.64c0,1.38.55,1.9,1.62,1.9s1.62-.52,1.62-1.9v-.58h3.12v.28c0,3.25-1.68,5.09-4.81,5.09s-4.81-1.84-4.81-5.09v-6.07c0-3.25,1.68-5.09,4.81-5.09s4.81,1.84,4.81,5.09Zm-3.19,1.16v-1.47c0-1.38-.58-1.9-1.59-1.9s-1.59.52-1.59,1.9v1.47h3.19Z"/>
    <path class="cls-9" d="m1688.7,367.14v-6.07c0-3.25,1.72-5.09,4.78-5.09s4.78,1.84,4.78,5.09v6.07c0,3.25-1.72,5.09-4.78,5.09s-4.78-1.84-4.78-5.09Zm6.31.31v-6.68c0-1.07-.34-1.9-1.53-1.9s-1.53.83-1.53,1.9v6.68c0,1.1.37,1.9,1.53,1.9s1.53-.8,1.53-1.9Z"/>
    <path class="cls-9" d="m1704.64,354.39v1.9h2.36v2.76h-2.36v12.87h-3.25v-12.87h-1.78v-2.76h1.78v-2.33c0-2.54,1.26-3.8,3.83-3.8.67,0,1.22.09,1.78.31v2.76c-.4-.12-.77-.18-1.1-.18-.92,0-1.26.37-1.26,1.35Z"/>
    <path class="cls-9" d="m1713.49,350.81h3.25v3.55h-3.25v-3.55Zm0,5.48h3.25v15.63h-3.25v-15.63Z"/>
    <path class="cls-9" d="m1728.75,360.55v11.37h-3.25v-11c0-1.35-.37-2.05-1.35-2.05-.92,0-1.65.64-1.65,2.51v10.54h-3.25v-15.63h2.82l.06,1.81c.55-1.35,1.68-2.11,3.12-2.11,2.17,0,3.49,1.35,3.49,4.57Z"/>
    <path class="cls-9" d="m1730.55,367.45v-.49h3.12v.58c0,1.41.61,1.9,1.44,1.9s1.41-.46,1.41-1.69-1.04-1.78-2.27-2.48c-1.65-.95-3.55-2.02-3.55-4.96,0-2.6,1.5-4.32,4.38-4.32,2.67,0,4.38,1.72,4.38,4.57v.34h-3.06v-.43c0-1.26-.49-1.69-1.29-1.69-.67,0-1.26.4-1.26,1.47,0,1.29,1.1,1.96,2.39,2.67,1.65.92,3.49,1.99,3.49,4.78s-1.5,4.53-4.47,4.53-4.72-1.78-4.72-4.78Z"/>
    <path class="cls-9" d="m1751.05,356.29v15.63h-2.82l-.06-1.81c-.55,1.35-1.68,2.11-3.12,2.11-2.18,0-3.49-1.35-3.49-4.56v-11.37h3.25v11c0,1.35.37,2.05,1.35,2.05.92,0,1.65-.64,1.65-2.51v-10.54h3.25Z"/>
    <path class="cls-9" d="m1760.4,356.17v3.16c-.25-.06-.55-.09-.83-.09-1.81,0-2.76,1.26-2.76,3.68v9.01h-3.25v-15.63h2.82l.06,2.64c.43-1.96,1.44-2.94,3.03-2.94.4,0,.67.06.92.18Z"/>
    <path class="cls-9" d="m1768.03,371.92c-.09-.18-.21-.86-.25-1.84-.58,1.38-1.75,2.14-3.31,2.14-2.08,0-3.4-1.5-3.4-3.92s1.01-3.86,3.77-5.21c2.24-1.1,2.54-1.38,2.54-2.24v-.31c0-1.26-.4-1.78-1.32-1.78-1.01,0-1.47.64-1.47,1.81v.58h-3.06v-.4c0-3.03,1.56-4.78,4.57-4.78,3.25,0,4.53,1.72,4.53,5.15v6.28c0,2.21.15,3.62.37,4.5h-2.97Zm-.64-5.09v-2.67c-.25.31-.74.61-1.59,1.16-.98.61-1.47,1.41-1.47,2.42,0,1.1.46,1.69,1.38,1.69,1.1,0,1.69-.89,1.69-2.6Z"/>
    <path class="cls-9" d="m1782.61,360.55v11.37h-3.25v-11c0-1.35-.37-2.05-1.35-2.05-.92,0-1.65.64-1.65,2.51v10.54h-3.25v-15.63h2.82l.06,1.81c.55-1.35,1.68-2.11,3.12-2.11,2.17,0,3.49,1.35,3.49,4.57Z"/>
    <path class="cls-9" d="m1784.72,367.2v-6.19c0-3.19,1.65-5.02,4.75-5.02s4.63,1.96,4.63,5.02v.95h-3.12v-1.26c0-1.16-.4-1.84-1.5-1.84s-1.5.67-1.5,1.84v6.8c0,1.16.4,1.84,1.5,1.84s1.5-.67,1.5-1.84v-1.56h3.12v1.26c0,3.06-1.5,5.02-4.63,5.02s-4.75-1.84-4.75-5.02Z"/>
    <path class="cls-9" d="m1805.5,361.07v3.74h-6.37v2.64c0,1.38.55,1.9,1.62,1.9s1.62-.52,1.62-1.9v-.58h3.12v.28c0,3.25-1.68,5.09-4.81,5.09s-4.81-1.84-4.81-5.09v-6.07c0-3.25,1.68-5.09,4.81-5.09s4.81,1.84,4.81,5.09Zm-3.19,1.16v-1.47c0-1.38-.58-1.9-1.59-1.9s-1.59.52-1.59,1.9v1.47h3.19Z"/>
  </g>
  <g>
    <path class="cls-9" d="m627.92,112.77h9.48v85.11h-9.48v-85.11Z"/>
    <path class="cls-9" d="m684.58,153.14v44.74h-9.24v-43.53c0-7.05-2.31-10.7-7.66-10.7s-9.6,4.5-9.6,13.62v40.61h-9.12v-61.16h7.9l.12,8.02c2.43-5.84,7.29-9.24,13.5-9.24,9,0,14.1,5.47,14.1,17.63Z"/>
    <path class="cls-9" d="m693.21,181.47v-2.07h8.88v2.31c0,6.57,3.4,9.36,8.39,9.36s8.39-2.67,8.39-8.88-4.98-8.75-10.58-11.55c-6.81-3.65-14.47-7.54-14.47-18.85,0-9.97,6.08-16.29,16.54-16.29s16.54,6.32,16.54,17.02v1.22h-8.63v-1.46c0-6.2-3.16-8.88-7.78-8.88-4.26,0-7.78,2.67-7.78,8.27,0,6.2,5.11,9,10.94,11.92,6.81,3.53,14.35,7.54,14.35,18.48s-6.08,17.02-17.02,17.02-17.75-6.57-17.75-17.63Z"/>
    <path class="cls-9" d="m772.12,136.73v61.16h-7.9l-.12-8.15c-2.43,5.96-7.29,9.36-13.5,9.36-9,0-14.1-5.47-14.1-17.75v-44.62h9.24v43.53c0,7.05,2.31,10.7,7.66,10.7s9.6-4.5,9.6-13.62v-40.61h9.12Z"/>
    <path class="cls-9" d="m808.6,136.24v9c-1.22-.49-2.43-.61-3.77-.61-7.9,0-11.92,5.84-11.92,17.63v35.62h-9.12v-61.16h7.9l.12,10.09c2.07-7.66,6.32-11.31,12.77-11.31,1.58,0,2.8.12,4.01.73Z"/>
    <path class="cls-9" d="m841.18,197.88c-.36-1.22-.73-4.38-.97-8.27-2.43,6.08-7.42,9.48-14.23,9.48-8.39,0-13.62-5.84-13.62-15.08s4.13-14.83,15.2-20.06c10.21-4.62,11.55-5.84,11.55-9.97v-1.46c0-6.08-2.67-9.12-7.9-9.12s-8.51,3.28-8.51,9.36v1.82h-8.63v-1.34c0-11.43,6.32-17.75,17.26-17.75,11.67,0,16.9,6.32,16.9,18.48v27.23c0,7.66.49,13.13,1.34,16.66h-8.39Zm-2.07-20.67v-12.28c-1.22,1.58-3.65,3.04-8.88,5.71-6.08,3.04-8.63,6.69-8.63,12.04s2.55,8.39,7.54,8.39c6.2,0,9.97-5.11,9.97-13.86Z"/>
    <path class="cls-9" d="m895.29,153.14v44.74h-9.24v-43.53c0-7.05-2.31-10.7-7.66-10.7s-9.6,4.5-9.6,13.62v40.61h-9.12v-61.16h7.9l.12,8.02c2.43-5.84,7.29-9.24,13.5-9.24,9,0,14.1,5.47,14.1,17.63Z"/>
    <path class="cls-9" d="m905.26,179.52v-24.56c0-12.52,6.2-19.45,17.87-19.45s17.51,7.29,17.51,19.45v2.67h-8.88v-3.53c0-6.81-2.55-10.46-8.63-10.46s-8.63,3.65-8.63,10.46v26.26c0,6.81,2.55,10.58,8.63,10.58s8.63-3.77,8.63-10.58v-4.74h8.88v3.89c0,12.16-5.71,19.57-17.51,19.57s-17.87-7.05-17.87-19.57Z"/>
    <path class="cls-9" d="m985.38,155.21v13.5h-26.99v11.43c0,7.42,3.04,10.82,9,10.82s9.12-3.4,9.12-10.82v-1.82h8.88v.97c0,12.64-6.44,19.82-18.12,19.82s-18.12-7.17-18.12-19.82v-24.07c0-12.64,6.32-19.7,18.12-19.7s18.12,7.05,18.12,19.7Zm-9,5.96v-6.81c0-7.29-3.28-10.7-9.12-10.7s-8.88,3.4-8.88,10.7v6.81h17.99Z"/>
    <path class="cls-9" d="m1011.77,112.77h9.24l8.51,71.98,8.75-71.98h10.7l8.88,71.98,8.51-71.98h8.39l-10.46,85.11h-12.16l-8.51-66.38-8.63,66.38h-12.77l-10.46-85.11Z"/>
    <path class="cls-9" d="m1081.68,179.28v-24.07c0-12.64,6.32-19.7,17.99-19.7s17.99,7.05,17.99,19.7v24.07c0,12.64-6.44,19.82-17.99,19.82s-17.99-7.17-17.99-19.82Zm26.75.85v-25.78c0-6.57-2.43-10.7-8.75-10.7s-8.88,4.13-8.88,10.7v25.78c0,6.69,2.55,10.82,8.88,10.82s8.75-4.13,8.75-10.82Z"/>
    <path class="cls-9" d="m1152.8,136.24v9c-1.22-.49-2.43-.61-3.77-.61-7.9,0-11.92,5.84-11.92,17.63v35.62h-9.12v-61.16h7.9l.12,10.09c2.07-7.66,6.32-11.31,12.77-11.31,1.58,0,2.8.12,4.01.73Z"/>
    <path class="cls-9" d="m1176.51,168.58l-7.29,10.82v18.48h-9.12v-85.11h9.12v53.74l19.09-29.79h9.85l-15.32,22.98,16.05,38.18h-9.97l-12.4-29.3Z"/>
    <path class="cls-9" d="m1224.05,111.56c2.67,0,4.62.24,6.81,1.22v7.9c-1.82-.73-3.4-.97-5.11-.97-4.25,0-5.96,1.82-5.96,6.81v10.21h11.06v7.78h-11.06v53.37h-9.12v-53.37h-7.78v-7.78h7.78v-11.31c0-9.24,4.38-13.86,13.38-13.86Zm23.59,1.22v85.11h-9.12v-85.11h9.12Z"/>
    <path class="cls-9" d="m1258.1,179.28v-24.07c0-12.64,6.32-19.7,17.99-19.7s17.99,7.05,17.99,19.7v24.07c0,12.64-6.44,19.82-17.99,19.82s-17.99-7.17-17.99-19.82Zm26.75.85v-25.78c0-6.57-2.43-10.7-8.75-10.7s-8.88,4.13-8.88,10.7v25.78c0,6.69,2.55,10.82,8.88,10.82s8.75-4.13,8.75-10.82Z"/>
    <path class="cls-9" d="m1301.02,136.73h9l8.51,48.51,8.15-48.51h9.6l8.15,48.51,8.51-48.51h8.27l-10.58,61.16h-11.19l-8.02-44.13-8.02,44.13h-11.79l-10.58-61.16Z"/>
  </g>
  <rect class="cls-3" x="1545.95" y="426.15" width="303.5" height="72.36"/>
  <rect class="cls-4" x="1553.24" y="431.96" width="288.93" height="60.74"/>
  <g>
    <path class="cls-9" d="m1626.66,449.86h9.19v3.06h-5.82v5.67h4.63v3.06h-4.63v6.59h5.82v3.06h-9.19v-21.45Z"/>
    <path class="cls-9" d="m1647.16,459.94v11.37h-3.25v-11c0-1.35-.37-2.05-1.35-2.05-.92,0-1.65.64-1.65,2.51v10.54h-3.25v-15.63h2.82l.06,1.81c.55-1.35,1.68-2.11,3.12-2.11,2.17,0,3.49,1.35,3.49,4.57Z"/>
    <path class="cls-9" d="m1656.32,471.31c-.09-.18-.21-.86-.28-1.84-.55,1.35-1.72,2.15-3.16,2.15-2.14,0-3.52-1.35-3.52-4.57v-7.11c0-3.22,1.38-4.57,3.52-4.57,1.16,0,2.14.52,2.79,1.44v-6.96h3.25v16.94c0,2.21.15,3.62.37,4.5h-2.97Zm-.64-5.09v-5.45c0-1.84-.77-2.51-1.69-2.51-1.07,0-1.38.83-1.38,1.9v6.68c0,1.07.31,1.9,1.38,1.9.92,0,1.69-.67,1.69-2.51Z"/>
    <path class="cls-9" d="m1661.13,466.53v-6.07c0-3.25,1.72-5.09,4.78-5.09s4.78,1.84,4.78,5.09v6.07c0,3.25-1.72,5.09-4.78,5.09s-4.78-1.84-4.78-5.09Zm6.31.31v-6.68c0-1.07-.34-1.9-1.53-1.9s-1.53.83-1.53,1.9v6.68c0,1.1.37,1.9,1.53,1.9s1.53-.8,1.53-1.9Z"/>
    <path class="cls-9" d="m1679.73,455.56v3.16c-.25-.06-.55-.09-.83-.09-1.81,0-2.76,1.26-2.76,3.68v9.01h-3.25v-15.63h2.82l.06,2.63c.43-1.96,1.44-2.94,3.03-2.94.4,0,.67.06.92.18Z"/>
    <path class="cls-9" d="m1680.58,466.83v-.49h3.12v.58c0,1.41.61,1.9,1.44,1.9s1.41-.46,1.41-1.69-1.04-1.78-2.27-2.48c-1.65-.95-3.55-2.02-3.55-4.96,0-2.6,1.5-4.32,4.38-4.32,2.67,0,4.38,1.72,4.38,4.57v.34h-3.06v-.43c0-1.26-.49-1.69-1.29-1.69-.67,0-1.26.4-1.26,1.47,0,1.29,1.1,1.96,2.39,2.67,1.65.92,3.49,1.99,3.49,4.78s-1.5,4.54-4.47,4.54-4.72-1.78-4.72-4.78Z"/>
    <path class="cls-9" d="m1700.99,460.46v3.74h-6.37v2.63c0,1.38.55,1.9,1.62,1.9s1.62-.52,1.62-1.9v-.58h3.12v.28c0,3.25-1.68,5.09-4.81,5.09s-4.81-1.84-4.81-5.09v-6.07c0-3.25,1.68-5.09,4.81-5.09s4.81,1.84,4.81,5.09Zm-3.19,1.16v-1.47c0-1.38-.58-1.9-1.59-1.9s-1.59.52-1.59,1.9v1.47h3.19Z"/>
    <path class="cls-9" d="m1718.76,459.94v11.37h-3.25v-11.15c0-1.07-.28-1.9-1.32-1.9-.92,0-1.62.67-1.62,2.51v10.54h-3.25v-11.15c0-1.07-.28-1.9-1.32-1.9-.92,0-1.62.67-1.62,2.51v10.54h-3.25v-15.63h2.82l.06,1.81c.55-1.35,1.65-2.11,3.06-2.11,1.5,0,2.57.64,3.12,2.08.55-1.32,1.69-2.08,3.06-2.08,2.18,0,3.49,1.38,3.49,4.57Z"/>
    <path class="cls-9" d="m1730.49,460.46v3.74h-6.37v2.63c0,1.38.55,1.9,1.62,1.9s1.62-.52,1.62-1.9v-.58h3.12v.28c0,3.25-1.68,5.09-4.81,5.09s-4.81-1.84-4.81-5.09v-6.07c0-3.25,1.68-5.09,4.81-5.09s4.81,1.84,4.81,5.09Zm-3.19,1.16v-1.47c0-1.38-.58-1.9-1.59-1.9s-1.59.52-1.59,1.9v1.47h3.19Z"/>
    <path class="cls-9" d="m1742.14,459.94v11.37h-3.25v-11c0-1.35-.37-2.05-1.35-2.05-.92,0-1.65.64-1.65,2.51v10.54h-3.25v-15.63h2.82l.06,1.81c.55-1.35,1.68-2.11,3.12-2.11,2.17,0,3.49,1.35,3.49,4.57Z"/>
    <path class="cls-9" d="m1748.69,458.44v8.95c0,.98.34,1.35,1.26,1.35.34,0,.71-.06,1.1-.18v2.76c-.55.21-1.1.31-1.78.31-2.57,0-3.83-1.26-3.83-3.8v-9.38h-1.78v-2.76h1.93l.31-4.23h2.79v4.23h2.36v2.76h-2.36Z"/>
    <path class="cls-9" d="m1752.25,466.83v-.49h3.12v.58c0,1.41.61,1.9,1.44,1.9s1.41-.46,1.41-1.69-1.04-1.78-2.27-2.48c-1.65-.95-3.55-2.02-3.55-4.96,0-2.6,1.5-4.32,4.38-4.32,2.67,0,4.38,1.72,4.38,4.57v.34h-3.06v-.43c0-1.26-.49-1.69-1.29-1.69-.67,0-1.26.4-1.26,1.47,0,1.29,1.1,1.96,2.39,2.67,1.65.92,3.49,1.99,3.49,4.78s-1.5,4.54-4.47,4.54-4.72-1.78-4.72-4.78Z"/>
  </g>
  <rect class="cls-3" x="1545.95" y="525.54" width="303.5" height="72.36"/>
  <rect class="cls-6" x="1553.24" y="531.35" width="288.93" height="60.74"/>
  <g>
    <path class="cls-9" d="m1598.66,565.73v-11.52c0-3.31,1.72-5.27,4.96-5.27s4.96,1.96,4.96,5.27v2.27h-3.19v-2.48c0-1.41-.67-1.99-1.69-1.99s-1.68.58-1.68,1.99v11.98c0,1.41.67,1.96,1.68,1.96s1.69-.55,1.69-1.96v-3.12h3.19v2.88c0,3.31-1.72,5.27-4.96,5.27s-4.96-1.96-4.96-5.27Z"/>
    <path class="cls-9" d="m1610.58,549.25h3.25v21.45h-3.25v-21.45Z"/>
    <path class="cls-9" d="m1622.65,570.7c-.09-.18-.21-.86-.25-1.84-.58,1.38-1.75,2.15-3.31,2.15-2.08,0-3.4-1.5-3.4-3.92s1.01-3.86,3.77-5.21c2.24-1.1,2.54-1.38,2.54-2.24v-.31c0-1.26-.4-1.78-1.32-1.78-1.01,0-1.47.64-1.47,1.81v.58h-3.06v-.4c0-3.03,1.56-4.78,4.57-4.78,3.25,0,4.53,1.72,4.53,5.15v6.28c0,2.21.15,3.62.37,4.5h-2.97Zm-.64-5.09v-2.67c-.25.31-.74.61-1.59,1.16-.98.61-1.47,1.41-1.47,2.42,0,1.1.46,1.69,1.38,1.69,1.1,0,1.69-.89,1.69-2.6Z"/>
    <path class="cls-9" d="m1627.74,549.59h3.25v3.55h-3.25v-3.55Zm0,5.48h3.25v15.63h-3.25v-15.63Z"/>
    <path class="cls-9" d="m1649.12,559.33v11.37h-3.25v-11.15c0-1.07-.28-1.9-1.32-1.9-.92,0-1.62.67-1.62,2.51v10.54h-3.25v-11.15c0-1.07-.28-1.9-1.32-1.9-.92,0-1.62.67-1.62,2.51v10.54h-3.25v-15.63h2.82l.06,1.81c.55-1.35,1.65-2.11,3.06-2.11,1.5,0,2.57.64,3.12,2.08.55-1.32,1.69-2.08,3.06-2.08,2.18,0,3.49,1.38,3.49,4.57Z"/>
    <path class="cls-9" d="m1650.93,566.22v-.49h3.12v.58c0,1.41.61,1.9,1.44,1.9s1.41-.46,1.41-1.69-1.04-1.78-2.27-2.48c-1.65-.95-3.55-2.02-3.55-4.96,0-2.6,1.5-4.32,4.38-4.32,2.67,0,4.38,1.72,4.38,4.57v.34h-3.06v-.43c0-1.26-.49-1.69-1.29-1.69-.67,0-1.26.4-1.26,1.47,0,1.29,1.1,1.96,2.39,2.67,1.65.92,3.49,1.99,3.49,4.78s-1.5,4.54-4.47,4.54-4.72-1.78-4.72-4.78Z"/>
    <path class="cls-9" d="m1666.92,549.25h4.75l2.24,15.57,2.24-15.57h4.75v21.45h-3.19v-16.24l-2.51,16.24h-2.82l-2.51-16.24v16.24h-2.94v-21.45Z"/>
    <path class="cls-9" d="m1689.72,570.7c-.09-.18-.21-.86-.25-1.84-.58,1.38-1.75,2.15-3.31,2.15-2.08,0-3.4-1.5-3.4-3.92s1.01-3.86,3.77-5.21c2.24-1.1,2.54-1.38,2.54-2.24v-.31c0-1.26-.4-1.78-1.32-1.78-1.01,0-1.47.64-1.47,1.81v.58h-3.06v-.4c0-3.03,1.56-4.78,4.57-4.78,3.25,0,4.54,1.72,4.54,5.15v6.28c0,2.21.15,3.62.37,4.5h-2.97Zm-.64-5.09v-2.67c-.25.31-.74.61-1.59,1.16-.98.61-1.47,1.41-1.47,2.42,0,1.1.46,1.69,1.38,1.69,1.1,0,1.69-.89,1.69-2.6Z"/>
    <path class="cls-9" d="m1704.3,559.33v11.37h-3.25v-11c0-1.35-.37-2.05-1.35-2.05-.92,0-1.65.64-1.65,2.51v10.54h-3.25v-15.63h2.82l.06,1.81c.55-1.35,1.68-2.11,3.12-2.11,2.18,0,3.49,1.35,3.49,4.57Z"/>
    <path class="cls-9" d="m1713.03,570.7c-.09-.18-.21-.86-.25-1.84-.58,1.38-1.75,2.15-3.31,2.15-2.08,0-3.4-1.5-3.4-3.92s1.01-3.86,3.77-5.21c2.24-1.1,2.54-1.38,2.54-2.24v-.31c0-1.26-.4-1.78-1.32-1.78-1.01,0-1.47.64-1.47,1.81v.58h-3.06v-.4c0-3.03,1.56-4.78,4.57-4.78,3.25,0,4.53,1.72,4.53,5.15v6.28c0,2.21.15,3.62.37,4.5h-2.97Zm-.64-5.09v-2.67c-.25.31-.74.61-1.59,1.16-.98.61-1.47,1.41-1.47,2.42,0,1.1.46,1.69,1.38,1.69,1.1,0,1.69-.89,1.69-2.6Z"/>
    <path class="cls-9" d="m1727.4,555.07v15.84c0,3-1.16,4.84-4.81,4.84-3.09,0-4.66-1.5-4.66-4.2v-.09h3.12v.25c0,.83.46,1.38,1.47,1.38,1.1,0,1.62-.55,1.62-1.93v-2.36c-.64.92-1.59,1.44-2.76,1.44-2.17,0-3.55-1.35-3.55-4.56v-6.34c0-3.22,1.38-4.57,3.55-4.57,1.41,0,2.57.8,3.13,2.14l.06-1.84h2.82Zm-3.25,9.77v-4.69c0-1.84-.77-2.51-1.68-2.51-1.07,0-1.38.83-1.38,1.9v5.91c0,1.07.31,1.9,1.38,1.9.92,0,1.68-.67,1.68-2.51Z"/>
    <path class="cls-9" d="m1739.23,559.85v3.74h-6.37v2.63c0,1.38.55,1.9,1.62,1.9s1.62-.52,1.62-1.9v-.58h3.12v.28c0,3.25-1.68,5.09-4.81,5.09s-4.81-1.84-4.81-5.09v-6.07c0-3.25,1.68-5.09,4.81-5.09s4.81,1.84,4.81,5.09Zm-3.19,1.16v-1.47c0-1.38-.58-1.9-1.59-1.9s-1.59.52-1.59,1.9v1.47h3.19Z"/>
    <path class="cls-9" d="m1757,559.33v11.37h-3.25v-11.15c0-1.07-.28-1.9-1.32-1.9-.92,0-1.62.67-1.62,2.51v10.54h-3.25v-11.15c0-1.07-.28-1.9-1.32-1.9-.92,0-1.62.67-1.62,2.51v10.54h-3.25v-15.63h2.82l.06,1.81c.55-1.35,1.65-2.11,3.06-2.11,1.5,0,2.57.64,3.12,2.08.55-1.32,1.69-2.08,3.06-2.08,2.18,0,3.49,1.38,3.49,4.57Z"/>
    <path class="cls-9" d="m1768.73,559.85v3.74h-6.37v2.63c0,1.38.55,1.9,1.62,1.9s1.62-.52,1.62-1.9v-.58h3.12v.28c0,3.25-1.68,5.09-4.81,5.09s-4.81-1.84-4.81-5.09v-6.07c0-3.25,1.68-5.09,4.81-5.09s4.81,1.84,4.81,5.09Zm-3.19,1.16v-1.47c0-1.38-.58-1.9-1.59-1.9s-1.59.52-1.59,1.9v1.47h3.19Z"/>
    <path class="cls-9" d="m1780.37,559.33v11.37h-3.25v-11c0-1.35-.37-2.05-1.35-2.05-.92,0-1.65.64-1.65,2.51v10.54h-3.25v-15.63h2.82l.06,1.81c.55-1.35,1.68-2.11,3.12-2.11,2.17,0,3.49,1.35,3.49,4.57Z"/>
    <path class="cls-9" d="m1786.93,557.83v8.95c0,.98.34,1.35,1.26,1.35.34,0,.71-.06,1.1-.18v2.76c-.55.21-1.1.31-1.78.31-2.57,0-3.83-1.26-3.83-3.8v-9.38h-1.78v-2.76h1.93l.31-4.23h2.79v4.23h2.36v2.76h-2.36Z"/>
  </g>
  <rect class="cls-3" x="1545.95" y="624.93" width="303.5" height="72.36"/>
  <rect class="cls-6" x="1553.24" y="630.74" width="288.93" height="60.74"/>
  <g>
    <path class="cls-9" d="m1619.74,648.64h4.96c3.37,0,5.03,1.87,5.03,5.3v2.11c0,3.43-1.66,5.3-5.03,5.3h-1.59v8.73h-3.37v-21.45Zm4.96,9.65c1.07,0,1.65-.49,1.65-2.02v-2.54c0-1.53-.58-2.02-1.65-2.02h-1.59v6.59h1.59Z"/>
    <path class="cls-9" d="m1631.23,665.31v-6.07c0-3.25,1.72-5.09,4.78-5.09s4.78,1.84,4.78,5.09v6.07c0,3.25-1.72,5.09-4.78,5.09s-4.78-1.84-4.78-5.09Zm6.31.31v-6.68c0-1.07-.34-1.9-1.53-1.9s-1.53.83-1.53,1.9v6.68c0,1.1.37,1.9,1.53,1.9s1.53-.8,1.53-1.9Z"/>
    <path class="cls-9" d="m1642.99,648.64h3.25v21.45h-3.25v-21.45Z"/>
    <path class="cls-9" d="m1648.75,648.98h3.25v3.55h-3.25v-3.55Zm0,5.48h3.25v15.63h-3.25v-15.63Z"/>
    <path class="cls-9" d="m1654.21,665.37v-6.19c0-3.19,1.65-5.03,4.75-5.03s4.63,1.96,4.63,5.03v.95h-3.12v-1.26c0-1.16-.4-1.84-1.5-1.84s-1.5.67-1.5,1.84v6.8c0,1.16.4,1.84,1.5,1.84s1.5-.67,1.5-1.84v-1.56h3.12v1.26c0,3.06-1.5,5.03-4.63,5.03s-4.75-1.84-4.75-5.03Z"/>
    <path class="cls-9" d="m1665.48,674.84v-2.76c.37.12.77.18,1.19.18,1.1,0,1.5-.31,1.72-1.32l.06-.21-3.77-16.27h3.31l2.08,10.75,1.87-10.75h3.03l-3.46,16.97c-.55,2.67-1.78,3.71-4.29,3.71-.58,0-1.19-.06-1.75-.31Z"/>
    <path class="cls-9" d="m1680.92,665v-1.23h3.19v1.47c0,1.53.67,2.08,1.75,2.08s1.78-.55,1.78-2.14c0-1.78-.74-2.88-2.94-4.81-2.82-2.48-3.77-4.26-3.77-6.71,0-3.37,1.75-5.33,5.03-5.33s4.9,1.96,4.9,5.39v.89h-3.19v-1.1c0-1.53-.61-2.11-1.69-2.11s-1.72.58-1.72,2.05c0,1.56.77,2.67,2.97,4.6,2.82,2.48,3.74,4.23,3.74,6.89,0,3.49-1.78,5.45-5.09,5.45s-4.96-1.96-4.96-5.39Z"/>
    <path class="cls-9" d="m1702.19,659.24v3.74h-6.37v2.63c0,1.38.55,1.9,1.62,1.9s1.62-.52,1.62-1.9v-.58h3.12v.28c0,3.25-1.68,5.09-4.81,5.09s-4.81-1.84-4.81-5.09v-6.07c0-3.25,1.68-5.09,4.81-5.09s4.81,1.84,4.81,5.09Zm-3.19,1.16v-1.47c0-1.38-.58-1.9-1.59-1.9s-1.59.52-1.59,1.9v1.47h3.19Z"/>
    <path class="cls-9" d="m1711.16,654.34v3.16c-.25-.06-.55-.09-.83-.09-1.81,0-2.76,1.26-2.76,3.68v9.01h-3.25v-15.63h2.82l.06,2.63c.43-1.96,1.44-2.94,3.03-2.94.4,0,.67.06.92.18Z"/>
    <path class="cls-9" d="m1712.02,654.46h3.31l1.99,11.24,1.96-11.24h3.03l-3.16,15.63h-3.98l-3.16-15.63Z"/>
    <path class="cls-9" d="m1723.94,648.98h3.25v3.55h-3.25v-3.55Zm0,5.48h3.25v15.63h-3.25v-15.63Z"/>
    <path class="cls-9" d="m1729.39,665.37v-6.19c0-3.19,1.65-5.03,4.75-5.03s4.63,1.96,4.63,5.03v.95h-3.12v-1.26c0-1.16-.4-1.84-1.5-1.84s-1.5.67-1.5,1.84v6.8c0,1.16.4,1.84,1.5,1.84s1.5-.67,1.5-1.84v-1.56h3.12v1.26c0,3.06-1.5,5.03-4.63,5.03s-4.75-1.84-4.75-5.03Z"/>
    <path class="cls-9" d="m1740.79,648.98h3.25v3.55h-3.25v-3.55Zm0,5.48h3.25v15.63h-3.25v-15.63Z"/>
    <path class="cls-9" d="m1756.05,658.72v11.37h-3.25v-11c0-1.35-.37-2.05-1.35-2.05-.92,0-1.65.64-1.65,2.51v10.54h-3.25v-15.63h2.82l.06,1.81c.55-1.35,1.68-2.11,3.12-2.11,2.18,0,3.49,1.35,3.49,4.57Z"/>
    <path class="cls-9" d="m1767.75,654.46v15.84c0,3-1.16,4.84-4.81,4.84-3.09,0-4.66-1.5-4.66-4.2v-.09h3.12v.25c0,.83.46,1.38,1.47,1.38,1.1,0,1.62-.55,1.62-1.93v-2.36c-.64.92-1.59,1.44-2.76,1.44-2.18,0-3.55-1.35-3.55-4.56v-6.34c0-3.22,1.38-4.57,3.55-4.57,1.41,0,2.57.8,3.12,2.14l.06-1.84h2.82Zm-3.25,9.77v-4.69c0-1.84-.77-2.51-1.68-2.51-1.07,0-1.38.83-1.38,1.9v5.91c0,1.07.31,1.9,1.38,1.9.92,0,1.68-.67,1.68-2.51Z"/>
  </g>
  <g>
    <path class="cls-9" d="m988,544.79c.52.34.66.83.65,1.44-.02,7.49,0,14.97-.02,22.46,0,.37.1.59.43.78.93.54,1.83,1.14,2.76,1.69.53.32.8.74.78,1.38-.03.95,0,1.91,0,2.87,0,.5-.28.83-.7.83-.42,0-.7-.32-.7-.82,0-.86-.01-1.72,0-2.58,0-.26-.07-.42-.3-.56-2.93-1.8-5.86-3.62-8.78-5.44-.24-.15-.4-.14-.63,0-2.92,1.82-5.85,3.63-8.78,5.43-.23.14-.3.3-.3.57,0,2.41-.01,4.82.01,7.23.02,2.25.88,4.13,2.61,5.59,2.18,1.85,4.36,3.72,6.54,5.57.07.06.14.11.24.19,1.28-1.08,2.54-2.16,3.8-3.23.98-.83,1.95-1.67,2.93-2.5,1.76-1.48,2.62-3.38,2.65-5.67,0-.42-.01-.85,0-1.27.02-.41.29-.63.68-.64.38-.01.68.21.71.61.18,2.6-.27,5.04-2.09,7.03-.68.75-1.48,1.4-2.25,2.06-1.79,1.54-3.59,3.07-5.4,4.6-.82.69-1.29.69-2.1,0-1.14-.96-2.26-1.94-3.41-2.88-.21-.17-.52-.29-.79-.29-4.24-.02-8.49-.01-12.73-.01-.14,0-.28,0-.42,0-.43-.04-.73-.33-.74-.71,0-.38.28-.68.72-.72.15-.02.31-.01.47-.01,3.59,0,7.17,0,10.76,0h.55s.05-.07.08-.1c-2.03-1.5-3.59-3.31-4.07-5.88h-.59c-3.27,0-6.55,0-9.82,0-.11,0-.22,0-.33,0-.61,0-.96-.28-.96-.73,0-.45.35-.72.97-.72,3.32,0,6.64,0,9.96,0,.18,0,.37,0,.57,0v-1.84c-.19,0-.37,0-.55,0-3.23,0-6.45,0-9.68,0-.11,0-.22,0-.33,0-.6-.01-.96-.3-.94-.75.01-.44.35-.7.94-.7,3.32,0,6.64,0,9.96,0,.19,0,.37,0,.59,0v-1.84h-.56c-3.27,0-6.55,0-9.82,0-.74,0-1.1-.24-1.11-.72,0-.49.36-.73,1.1-.73,3.27,0,6.55,0,9.82,0h.6v-1.84c-.88,0-1.77,0-2.66,0-.17,0-.35,0-.52,0-.43-.05-.73-.34-.73-.72,0-.39.31-.71.77-.72,1.03-.02,2.07-.08,3.1.01,1.36.12,2.55-.18,3.62-1.04.35-.28.75-.48,1.11-.82h-.49c-4.86,0-9.71,0-14.57,0-.22,0-.48.04-.64-.07-.22-.15-.45-.4-.5-.65-.07-.33.16-.59.51-.68.15-.04.31-.04.46-.04,5.04,0,10.09,0,15.13,0,.75,0,.98.23.99,1,1.34-.83,2.67-1.65,3.99-2.48.09-.06.17-.22.17-.34,0-4.2,0-8.39,0-12.59,0-.01-.01-.03-.04-.07h-25.39v35.04c.17,0,.33.02.49.02,1.28,0,2.57,0,3.85,0,.14,0,.28,0,.42.01.44.05.72.35.71.73-.01.38-.32.67-.75.7-.31.02-.63,0-.94,0-1.33,0-2.66,0-3.99,0-.87,0-1.23-.36-1.23-1.22,0-11.85,0-23.71,0-35.56,0-.84.34-1.19,1.2-1.2.65,0,1.31,0,2.01,0,0-.71,0-1.36,0-2.02,0-.82.39-1.21,1.2-1.22.66,0,1.31,0,2.03,0,0-.66.02-1.28,0-1.9-.02-.59.16-1.04.71-1.31h26.97Zm-.83,23.48v-22.04h-25.36v1.76h.65c7.17,0,14.35,0,21.52,0,.16,0,.31,0,.47,0,.54.05.93.39.94.93.03,1.82.02,3.63.01,5.45,0,.42-.27.66-.68.7-.38.03-.69-.28-.74-.7-.01-.12,0-.25,0-.38,0-1.35,0-2.69,0-4.04,0-.17-.01-.33-.02-.49h-25.39v1.76c.23,0,.43,0,.63,0,7.22,0,14.44,0,21.66,0,1.01,0,1.31.31,1.31,1.32,0,4.04,0,8.08,0,12.12,0,.19,0,.37,0,.53.6.36,1.17.7,1.8,1.08v-.61c0-2.54,0-5.07,0-7.61,0-.14,0-.28,0-.42.05-.4.35-.68.71-.68.37,0,.66.27.7.68.02.17.01.34.01.52,0,2.87,0,5.73,0,8.6,0,.18.04.45.17.53.49.35,1.02.65,1.59,1Z"/>
    <path class="cls-9" d="m988.27,577.76c0,3.54-2.92,6.45-6.47,6.45-3.56,0-6.49-2.94-6.48-6.49.01-3.58,2.93-6.45,6.57-6.43,3.5.01,6.38,2.94,6.38,6.47Zm-11.49-.02c0,2.78,2.21,5.01,4.99,5.03,2.8.02,5.04-2.2,5.08-5,.03-2.74-2.26-5.06-5.03-5.07-2.77-.01-5.04,2.26-5.04,5.04Z"/>
    <path class="cls-9" d="m968.03,560.61c2.49,0,4.98,0,7.47,0,.17,0,.35,0,.51.03.35.07.55.31.57.66.01.36-.18.63-.55.72-.17.04-.34.04-.51.04-4.99,0-9.99,0-14.98,0-.14,0-.28,0-.42-.02-.4-.07-.68-.39-.64-.74.04-.39.28-.62.67-.67.14-.02.28-.01.42-.01,2.49,0,4.98,0,7.47,0Z"/>
    <path class="cls-9" d="m968.07,563.89c2.47,0,4.95,0,7.42,0,.17,0,.35,0,.51.03.35.07.56.31.57.66.01.36-.18.63-.55.72-.17.04-.34.04-.51.04-4.99,0-9.99,0-14.98,0-.14,0-.28,0-.42-.02-.4-.07-.68-.38-.64-.74.04-.39.28-.62.67-.67.14-.02.28-.01.42-.01,2.5,0,5.01,0,7.51,0Z"/>
    <path class="cls-9" d="m968.07,555.81c1.46,0,2.91,0,4.37,0,.22,0,.5.04.65.17.16.14.29.44.26.64-.03.2-.25.42-.44.54-.15.1-.39.08-.59.08-2.86,0-5.73,0-8.59,0-.09,0-.19,0-.28,0-.47-.04-.78-.32-.78-.71,0-.41.32-.72.81-.73,1.53-.01,3.07,0,4.6,0Z"/>
    <path class="cls-9" d="m962.86,570.47c.83,0,1.66,0,2.49,0,.57,0,.91.29.91.73,0,.42-.34.71-.88.72-1.67,0-3.35,0-5.02,0-.54,0-.87-.29-.88-.71-.01-.44.33-.73.9-.73.83,0,1.66,0,2.49,0Z"/>
    <path class="cls-9" d="m981.56,578.27c.73-.74,1.41-1.43,2.09-2.11.26-.26.59-.39.88-.15.19.16.29.48.34.74.03.12-.13.31-.24.43-.82.84-1.65,1.67-2.48,2.49-.39.38-.76.38-1.15.01-.53-.51-1.05-1.03-1.56-1.56-.36-.36-.38-.77-.08-1.08.31-.31.7-.29,1.07.07.37.36.72.74,1.13,1.15Z"/>
  </g>
</svg>