<?xml version="1.0" encoding="UTF-8"?>
<svg id="Layer_1" data-name="Layer 1" xmlns="http://www.w3.org/2000/svg" viewBox="0 0 500 500">
  <defs>
    <style>
      .cls-1 {
        fill: #fff;
      }

      .cls-2 {
        fill: #5a6267;
      }
    </style>
  </defs>
  <circle class="cls-2" cx="251.9" cy="251.27" r="234.63"/>
  <g>
    <path class="cls-1" d="m112.79,280.97c.39-1.57.76-3.14,1.17-4.71,3.75-14.26,16.09-25.25,30.71-27.37.63-.09,1.24-.27,1.9-.58-6.08-1.34-11.12-4.29-14.76-9.32-3.69-5.1-4.99-10.77-3.77-17.01,2.08-10.63,12.42-18.46,23.62-17.83,10.77.6,19.71,9.35,20.68,20.22,1.01,11.33-6.48,21.04-19.04,23.96,2.23.45,3.84.74,5.43,1.1,16.18,3.67,28.33,18.71,28.45,35.19.03,5.03-3.01,8.14-8.09,8.14-18.79.02-37.58-.09-56.37.08-4.58.04-7.95-1.24-9.92-5.49,0-2.13,0-4.27,0-6.4Z"/>
    <path class="cls-1" d="m246.18,255.04c-22.56-4.76-33.57-23.87-31.96-41.32,1.75-19.01,17.76-34.01,36.51-34.4,19.87-.41,36.13,13.57,38.76,33.62,2.01,15.33-6.75,36.59-32.78,41.94,2.62.5,4.42.83,6.22,1.19,26.57,5.34,45.49,28.25,45.72,55.38.03,3.15.06,6.3-.01,9.46-.13,5.58-3.99,9.65-9.51,9.66-31.52.06-63.04.05-94.55,0-4.84,0-8.99-3.55-9.26-8.23-.75-12.92-.01-25.65,6.55-37.31,9.42-16.72,23.54-26.69,42.6-29.53.59-.09,1.15-.3,1.73-.45Z"/>
    <path class="cls-1" d="m361.49,248.36c2.16.43,3.74.71,5.3,1.06,16.42,3.64,28.82,18.57,29.07,34.98.08,5.23-2.91,8.37-8.09,8.37-19.36.02-38.72.02-58.08,0-5.22,0-8.23-3.1-8.17-8.29.19-17.49,13.84-33.04,31.23-35.57.7-.1,1.39-.3,2.49-.54-13.09-3.64-20.37-13.35-18.83-24.62,1.58-11.53,11.04-19.8,22.48-19.62,11.21.17,20.82,8.78,22.09,19.94,1.1,9.75-5.08,21.26-19.49,24.29Z"/>
    <path class="cls-1" d="m185.71,160.39c0,3.37.06,6.29-.01,9.22-.13,5.59-4.22,9.72-9.51,9.68-5.28-.04-9.31-4.19-9.37-9.81-.07-6.09-.07-12.18,0-18.27.07-5.71,4.04-9.68,9.78-9.7,12.39-.06,24.78-.06,37.17,0,5.62.03,9.75,4.13,9.75,9.43,0,5.29-4.13,9.39-9.74,9.44-9.22.07-18.45.02-28.07.02Z"/>
    <path class="cls-1" d="m318.11,160.39c-9.02,0-17.71,0-26.39,0-1.26,0-2.55.06-3.76-.19-4.78-.96-8.08-5.39-7.64-10.1.44-4.74,4.36-8.54,9.3-8.58,12.71-.09,25.41-.1,38.12,0,5.2.04,9.13,4.04,9.24,9.26.13,6.4.14,12.81,0,19.22-.11,5.33-4.41,9.37-9.55,9.3-5.03-.08-9.1-4.07-9.29-9.26-.11-3.04-.02-6.09-.02-9.64Z"/>
    <path class="cls-1" d="m185.7,349.51c9.66,0,18.89-.07,28.11.02,7,.07,11.53,6.57,9.03,12.82-1.51,3.77-4.44,5.96-8.46,6-12.81.12-25.62.13-38.43,0-5.03-.05-8.97-4.05-9.09-9.07-.15-6.51-.15-13.02,0-19.53.12-5.16,4.34-9.13,9.37-9.15,5.03-.02,9.21,3.92,9.45,9.08.14,3.13.03,6.27.03,9.83Z"/>
    <path class="cls-1" d="m318.1,349.51c0-3.29-.04-6.21,0-9.13.1-5.61,4.13-9.76,9.41-9.78,5.28-.02,9.39,4.12,9.46,9.71.08,6.09.08,12.18,0,18.27-.07,5.76-3.98,9.77-9.69,9.8-12.39.07-24.78.06-37.18,0-5.62-.03-9.78-4.07-9.84-9.34-.06-5.39,4.17-9.5,9.96-9.53,9.13-.05,18.26-.01,27.85-.01Z"/>
  </g>
</svg>