<?xml version="1.0" encoding="UTF-8"?>
<svg id="Layer_1" data-name="Layer 1" xmlns="http://www.w3.org/2000/svg" viewBox="0 0 500 500">
  <defs>
    <style>
      .cls-1 {
        fill: #fff;
      }

      .cls-2 {
        fill: #5a6267;
      }
    </style>
  </defs>
  <circle class="cls-2" cx="250" cy="251.27" r="234.63"/>
  <g>
    <path class="cls-1" d="m115.92,241.24c.19-1.28.42-2.56.57-3.84.51-4.28,3.05-6.99,7.29-7.71,5.07-.85,10.16-1.62,15.21-2.6.85-.16,2.02-1.09,2.2-1.86,2.9-12.33,7.65-23.87,14.39-34.61.42-.67.2-2.17-.29-2.9-2.78-4.12-5.75-8.11-8.62-12.17-3.01-4.25-3.07-7.74.52-11.59,5.04-5.42,10.31-10.65,15.72-15.7,3.54-3.31,7.13-3.24,11.18-.39,4.07,2.86,8.14,5.71,12.11,8.71,1.35,1.02,2.28.97,3.66.09,10.38-6.63,21.58-11.32,33.63-13.94,1.48-.32,2.19-.98,2.4-2.53.65-4.66,1.45-9.3,2.19-13.95.94-5.91,3.58-8.28,9.6-8.63,1.57-.09,3.13-.27,4.7-.33,3.2-.12,5.31,1.59,5.33,4.76.09,11.96.09,23.91,0,35.87-.02,3.09-1.71,4.59-5.02,4.83-20.66,1.5-38.99,8.8-53.87,23.27-24.92,24.24-33.47,53.79-23.84,87.11,9.51,32.9,32.37,52.9,65.74,60.65,4.05.94,8.29,1.13,12.44,1.65,2.88.36,4.53,1.85,4.55,4.75.08,11.96.08,23.91,0,35.87-.02,3.01-1.92,4.88-4.74,4.83-2.69-.06-5.41-.27-8.07-.73-3.53-.61-5.77-2.83-6.42-6.37-.95-5.14-1.81-10.3-2.55-15.48-.25-1.73-.93-2.51-2.66-2.89-11.95-2.61-23.08-7.28-33.38-13.86-1.55-.99-2.51-.84-3.89.19-3.9,2.94-7.9,5.75-11.89,8.56-4.14,2.91-7.75,2.9-11.38-.53-5.32-5.02-10.54-10.17-15.53-15.52-3.59-3.84-3.55-7.32-.54-11.59,2.82-3.99,5.62-7.99,8.55-11.9.98-1.31,1.1-2.25.19-3.68-6.64-10.37-11.32-21.58-13.96-33.62-.34-1.54-.95-2.29-2.67-2.52-4.84-.64-9.64-1.55-14.45-2.39-5.17-.9-7.49-3.54-7.9-8.84-.09-1.11-.34-2.2-.51-3.3,0-5.06,0-10.13,0-15.19Z"/>
    <path class="cls-1" d="m247.77,249.28c0,20.51,0,41.01,0,61.52,0,5.45-1.56,6.68-7.04,6.12-29.22-2.97-53.16-24.57-59.63-53.07-8.83-38.91,18.78-77.98,58.44-82.4,7.34-.82,8.23-.02,8.23,7.36,0,20.16,0,40.32,0,60.47Z"/>
    <path class="cls-1" d="m256.94,253.68v-9.16h3.18c31.58,0,63.17-.01,94.75.04,1.82,0,2.9-.34,3.85-2.14,2.89-5.47,9.21-8.03,15.16-6.47,6.09,1.59,10.25,7.01,10.21,13.27-.04,6-4.18,11.4-9.94,12.97-6.06,1.66-12.49-.87-15.43-6.4-.96-1.8-2.05-2.13-3.86-2.12-31.5.05-62.99.03-94.49.03h-3.43Z"/>
    <path class="cls-1" d="m256.91,230.86v-9.02h3.14c21.03,0,42.06,0,63.09,0,5,0,6.43-1.41,6.43-6.33,0-6.46-.06-12.92.04-19.37.03-1.69-.45-2.55-2.02-3.37-5.6-2.94-8.27-9.31-6.71-15.34,1.49-5.74,6.66-9.92,12.53-10.12,6.45-.23,11.81,3.53,13.69,9.6,1.87,6.05-.63,12.67-6.29,15.68-1.89,1.01-2.29,2.14-2.26,4.04.1,6.54.05,13.09.03,19.63-.03,8.97-5.58,14.58-14.48,14.59-21.55.02-43.11,0-64.66,0-.77,0-1.54,0-2.53,0Z"/>
    <path class="cls-1" d="m256.98,267.33h2.82c21.29,0,42.58,0,63.87,0,9.47,0,14.9,5.45,14.92,14.94.01,6.72.04,13.44-.03,20.16-.01,1.38.36,2.11,1.66,2.8,5.94,3.12,8.7,9.45,7.03,15.64-1.6,5.94-6.96,10.03-13.14,10.04-6.28.01-11.76-4.22-13.26-10.24-1.54-6.16,1.23-12.37,7.04-15.43,1.27-.67,1.73-1.34,1.71-2.76-.08-6.81-.02-13.61-.04-20.42-.01-4.09-1.64-5.72-5.73-5.72-21.2-.01-42.41,0-63.61,0-1.03,0-2.06,0-3.25,0v-9.02Z"/>
    <path class="cls-1" d="m256.94,312.76v-8.98c.72-.06,1.39-.17,2.05-.17,6.63-.01,13.26-.05,19.88,0,8.42.06,14.14,5.68,14.25,14.1.11,8.37.06,16.74,0,25.11-.01,1.61.27,2.61,1.92,3.47,5.75,3,8.38,9.32,6.75,15.51-1.54,5.87-6.98,10.01-13.16,10.01-6.31,0-11.6-4.1-13.21-10.25-1.57-5.99,1.13-12.28,6.78-15.28,1.45-.77,1.92-1.58,1.9-3.18-.09-8.2-.03-16.39-.04-24.59,0-4.27-1.5-5.74-5.87-5.75-6.1-.02-12.21,0-18.31,0-.94,0-1.88,0-2.94,0Z"/>
    <path class="cls-1" d="m256.95,194.58v-9.09c5.24,0,10.36,0,15.48,0,2.36,0,4.72.08,7.07-.07,2.92-.19,4.53-1.83,4.55-4.7.06-8.82.08-17.63-.07-26.45-.01-.84-1.18-1.9-2.06-2.44-5.29-3.18-7.97-9.19-6.55-15.01,1.48-6.07,6.62-10.26,12.81-10.44,6.16-.19,11.47,3.51,13.39,9.32,2.06,6.23-.5,12.97-6.38,16.09-1.68.9-2.09,1.91-2.07,3.65.08,8.03.06,16.06.03,24.09-.03,9.55-5.58,15.02-15.19,15.03-6.89,0-13.79,0-21,0Z"/>
    <path class="cls-1" d="m256.94,203.59c4.24,0,8.23,0,12.22,0,10.46,0,20.91-.01,31.37.02,1.12,0,2.29.07,3.33.43,2.05.71,2.98,2.33,2.85,4.48-.13,2.05-1.25,3.4-3.21,3.96-.74.21-1.55.29-2.32.29-14.2.02-28.4.01-42.61,0-.5,0-1.01-.1-1.63-.17v-9Z"/>
    <path class="cls-1" d="m256.9,294.45v-8.85c.87-.05,1.7-.13,2.53-.13,13.79,0,27.58-.01,41.37,0,1.04,0,2.41-.16,3.04.41,1.19,1.07,2.65,2.6,2.69,3.97.05,1.38-1.33,2.96-2.42,4.15-.51.56-1.8.56-2.73.56-14.4.03-28.8.02-43.21.01-.34,0-.67-.07-1.28-.14Z"/>
  </g>
</svg>