<?xml version="1.0" encoding="UTF-8"?>
<svg id="Layer_1" data-name="Layer 1" xmlns="http://www.w3.org/2000/svg" xmlns:xlink="http://www.w3.org/1999/xlink" viewBox="0 0 1024 631.9">
  <defs>
    <style>
      .cls-1 {
        fill: none;
      }

      .cls-2 {
        clip-path: url(#clippath);
      }

      .cls-3 {
        font-family: BebasNeuePro-Bold, 'Bebas Neue Pro';
        font-size: 48px;
        font-weight: 700;
      }

      .cls-4 {
        fill: #fff;
      }

      .cls-5 {
        fill: #ff3874;
      }

      .cls-6 {
        fill: #ff8f2e;
      }

      .cls-7 {
        fill: #91d5d8;
      }

      .cls-8 {
        fill: #8c52ff;
      }

      .cls-9 {
        fill: #44a4f4;
      }

      .cls-10 {
        clip-path: url(#clippath-1);
      }

      .cls-11 {
        clip-path: url(#clippath-4);
      }

      .cls-12 {
        clip-path: url(#clippath-3);
      }

      .cls-13 {
        clip-path: url(#clippath-2);
      }

      .cls-14 {
        clip-path: url(#clippath-7);
      }

      .cls-15 {
        clip-path: url(#clippath-8);
      }

      .cls-16 {
        clip-path: url(#clippath-6);
      }

      .cls-17 {
        clip-path: url(#clippath-5);
      }

      .cls-18 {
        clip-path: url(#clippath-9);
      }

      .cls-19 {
        clip-path: url(#clippath-14);
      }

      .cls-20 {
        clip-path: url(#clippath-13);
      }

      .cls-21 {
        clip-path: url(#clippath-12);
      }

      .cls-22 {
        clip-path: url(#clippath-10);
      }

      .cls-23 {
        clip-path: url(#clippath-15);
      }

      .cls-24 {
        clip-path: url(#clippath-17);
      }

      .cls-25 {
        clip-path: url(#clippath-16);
      }

      .cls-26 {
        clip-path: url(#clippath-11);
      }
    </style>
    <clipPath id="clippath">
      <rect class="cls-1" x="44.6" y="267" width="197.18" height="227.95"/>
    </clipPath>
    <clipPath id="clippath-1">
      <polyline class="cls-1" points="44.6 324.2 44.6 438.03 143.19 494.95 241.78 438.03 241.78 324.2 143.19 267.28 44.6 324.2"/>
    </clipPath>
    <clipPath id="clippath-2">
      <rect class="cls-1" x="32.97" y="213.23" width="220.43" height="254.36"/>
    </clipPath>
    <clipPath id="clippath-3">
      <polyline class="cls-1" points="32.97 276.71 32.97 403.97 143.19 467.59 253.41 403.97 253.41 276.71 143.19 213.08 32.97 276.71"/>
    </clipPath>
    <clipPath id="clippath-4">
      <rect class="cls-1" x="288.82" y="341.23" width="197.18" height="233.13"/>
    </clipPath>
    <clipPath id="clippath-5">
      <polyline class="cls-1" points="288.82 398.02 288.82 517.44 387.41 574.35 486 517.44 486 398.02 387.41 341.11 288.82 398.02"/>
    </clipPath>
    <clipPath id="clippath-6">
      <rect class="cls-1" x="277.19" y="292.44" width="220.44" height="254.83"/>
    </clipPath>
    <clipPath id="clippath-7">
      <polyline class="cls-1" points="277.19 356.38 277.19 483.64 387.41 547.27 497.63 483.64 497.63 356.38 387.41 292.75 277.19 356.38"/>
    </clipPath>
    <clipPath id="clippath-8">
      <rect class="cls-1" x="534.18" y="265.23" width="197.18" height="227.82"/>
    </clipPath>
    <clipPath id="clippath-9">
      <polyline class="cls-1" points="534.18 322.3 534.18 436.13 632.77 493.05 731.35 436.13 731.35 322.3 632.77 265.38 534.18 322.3"/>
    </clipPath>
    <clipPath id="clippath-10">
      <rect class="cls-1" x="534.18" y="274.56" width="197.18" height="227.49"/>
    </clipPath>
    <clipPath id="clippath-11">
      <polyline class="cls-1" points="534.18 331.3 534.18 445.13 632.77 502.05 731.35 445.13 731.35 331.3 632.77 274.38 534.18 331.3"/>
    </clipPath>
    <clipPath id="clippath-12">
      <rect class="cls-1" x="522.55" y="220.14" width="220.43" height="254.83"/>
    </clipPath>
    <clipPath id="clippath-13">
      <polyline class="cls-1" points="522.55 284.08 522.55 411.34 632.77 474.97 742.98 411.34 742.98 284.08 632.77 220.45 522.55 284.08"/>
    </clipPath>
    <clipPath id="clippath-14">
      <rect class="cls-1" x="782.21" y="346.56" width="197.18" height="227.79"/>
    </clipPath>
    <clipPath id="clippath-15">
      <polyline class="cls-1" points="782.21 403.61 782.21 517.44 880.81 574.35 979.4 517.44 979.4 403.61 880.81 346.69 782.21 403.61"/>
    </clipPath>
    <clipPath id="clippath-16">
      <rect class="cls-1" x="770.59" y="292.17" width="220.43" height="254.83"/>
    </clipPath>
    <clipPath id="clippath-17">
      <polyline class="cls-1" points="770.59 356.11 770.59 483.37 880.81 547 991.02 483.37 991.02 356.11 880.81 292.48 770.59 356.11"/>
    </clipPath>
  </defs>
  <g class="cls-2">
    <g class="cls-10">
      <path class="cls-6" d="m44.6,494.95v-227.48h197.18v227.48H44.6Z"/>
    </g>
  </g>
  <g class="cls-13">
    <g class="cls-12">
      <path class="cls-4" d="m32.97,467.59v-254.31h220.43v254.31H32.97Z"/>
    </g>
  </g>
  <g class="cls-11">
    <g class="cls-17">
      <path class="cls-5" d="m288.82,574.35v-233.07h197.18v233.07h-197.18Z"/>
    </g>
  </g>
  <g class="cls-16">
    <g class="cls-14">
      <path class="cls-4" d="m277.19,547.27v-254.31h220.44v254.31h-220.44Z"/>
    </g>
  </g>
  <g class="cls-15">
    <g class="cls-18">
      <path class="cls-7" d="m534.18,493.05v-227.48h197.18v227.48h-197.18Z"/>
    </g>
  </g>
  <g class="cls-22">
    <g class="cls-26">
      <path class="cls-8" d="m534.18,502.05v-227.48h197.18v227.48h-197.18Z"/>
    </g>
  </g>
  <g class="cls-21">
    <g class="cls-20">
      <g>
        <path class="cls-4" d="m522.55,474.97v-254.31h220.43v254.31h-220.43Z"/>
        <path class="cls-4" d="m522.55,474.97v-254.31h220.43v254.31h-220.43Z"/>
      </g>
    </g>
  </g>
  <g class="cls-19">
    <g class="cls-23">
      <path class="cls-9" d="m782.21,574.35v-227.48h197.18v227.48h-197.18Z"/>
    </g>
  </g>
  <g class="cls-25">
    <g class="cls-24">
      <path class="cls-4" d="m770.59,547v-254.31h220.43v254.31h-220.43Z"/>
    </g>
  </g>
  <g>
    <path d="m96.71,389.65h-6.1l-.91,6.58h-4.9l5.47-33.6h7.15l5.47,33.6h-5.28l-.91-6.58Zm-.67-4.56l-2.4-16.95-2.35,16.95h4.75Z"/>
    <path d="m119.94,371.74v24.82c0,4.71-1.82,7.58-7.54,7.58-4.85,0-7.3-2.35-7.3-6.58v-.14h4.9v.38c0,1.3.72,2.16,2.3,2.16,1.73,0,2.54-.86,2.54-3.02v-3.7c-1.01,1.44-2.5,2.26-4.32,2.26-3.41,0-5.57-2.11-5.57-7.15v-9.94c0-5.04,2.16-7.15,5.57-7.15,2.21,0,4.03,1.25,4.9,3.36l.1-2.88h4.42Zm-5.09,15.31v-7.34c0-2.88-1.2-3.94-2.64-3.94-1.68,0-2.16,1.3-2.16,2.98v9.27c0,1.68.48,2.98,2.16,2.98,1.44,0,2.64-1.06,2.64-3.94Z"/>
    <path d="m138.46,379.23v5.86h-9.98v4.13c0,2.16.86,2.98,2.54,2.98s2.54-.82,2.54-2.98v-.91h4.9v.43c0,5.09-2.64,7.97-7.54,7.97s-7.54-2.88-7.54-7.97v-9.5c0-5.09,2.64-7.97,7.54-7.97s7.54,2.88,7.54,7.97Zm-4.99,1.82v-2.3c0-2.16-.91-2.98-2.5-2.98s-2.5.82-2.5,2.98v2.3h4.99Z"/>
    <path d="m156.7,378.42v17.81h-5.09v-17.23c0-2.11-.58-3.22-2.11-3.22-1.44,0-2.59,1.01-2.59,3.94v16.51h-5.09v-24.48h4.42l.1,2.83c.86-2.11,2.64-3.31,4.9-3.31,3.41,0,5.47,2.11,5.47,7.15Z"/>
    <path d="m160.01,388.83v-9.7c0-4.99,2.59-7.87,7.44-7.87s7.25,3.07,7.25,7.87v1.49h-4.9v-1.97c0-1.82-.62-2.88-2.35-2.88s-2.35,1.06-2.35,2.88v10.66c0,1.82.62,2.88,2.35,2.88s2.35-1.06,2.35-2.88v-2.45h4.9v1.97c0,4.8-2.35,7.87-7.25,7.87s-7.44-2.88-7.44-7.87Z"/>
    <path d="m177.68,403.67v-4.32c.58.19,1.2.29,1.87.29,1.73,0,2.35-.48,2.69-2.06l.1-.34-5.9-25.49h5.18l3.26,16.85,2.93-16.85h4.75l-5.42,26.59c-.86,4.18-2.78,5.81-6.72,5.81-.91,0-1.87-.1-2.74-.48Z"/>
  </g>
  <g>
    <path d="m586.14,362.62h7.97c5.47,0,7.83,2.54,7.83,7.73v1.34c0,3.46-1.06,5.62-3.41,6.58v.1c2.83.96,3.94,3.46,3.94,7.01v2.88c0,5.18-2.74,7.97-8.02,7.97h-8.3v-33.6Zm7.35,13.68c1.97,0,3.17-.86,3.17-3.55v-1.87c0-2.4-.82-3.46-2.69-3.46h-2.54v8.88h2.06Zm.96,15.12c1.78,0,2.74-.82,2.74-3.31v-2.93c0-3.12-1.01-4.08-3.41-4.08h-2.35v10.32h3.02Z"/>
    <path d="m616.23,371.55v4.94c-.38-.1-.86-.14-1.3-.14-2.83,0-4.32,1.97-4.32,5.76v14.11h-5.09v-24.48h4.42l.1,4.13c.67-3.07,2.26-4.61,4.75-4.61.62,0,1.06.1,1.44.29Z"/>
    <path d="m618.01,388.74v-9.5c0-5.09,2.69-7.97,7.49-7.97s7.49,2.88,7.49,7.97v9.5c0,5.09-2.69,7.97-7.49,7.97s-7.49-2.88-7.49-7.97Zm9.89.48v-10.46c0-1.68-.53-2.98-2.4-2.98s-2.4,1.3-2.4,2.98v10.46c0,1.73.58,2.98,2.4,2.98s2.4-1.25,2.4-2.98Z"/>
    <path d="m643.54,385.95l-2.02,3.22v7.06h-5.09v-33.6h5.09v19.39l5.67-10.27h5.42l-5.66,9.02,5.95,15.46h-5.47l-3.89-10.27Z"/>
    <path d="m669.32,379.23v5.86h-9.99v4.13c0,2.16.86,2.98,2.54,2.98s2.54-.82,2.54-2.98v-.91h4.9v.43c0,5.09-2.64,7.97-7.54,7.97s-7.54-2.88-7.54-7.97v-9.5c0-5.09,2.64-7.97,7.54-7.97s7.54,2.88,7.54,7.97Zm-4.99,1.82v-2.3c0-2.16-.91-2.98-2.5-2.98s-2.5.82-2.5,2.98v2.3h4.99Z"/>
    <path d="m683.38,371.55v4.94c-.38-.1-.86-.14-1.3-.14-2.83,0-4.32,1.97-4.32,5.76v14.11h-5.09v-24.48h4.42l.1,4.13c.67-3.07,2.26-4.61,4.75-4.61.62,0,1.06.1,1.44.29Z"/>
  </g>
  <g>
    <path d="m356.43,451.54h7.44l3.5,24.39,3.5-24.39h7.44v33.6h-4.99v-25.44l-3.94,25.44h-4.42l-3.94-25.44v25.44h-4.61v-33.6Z"/>
    <path d="m381.87,477.17v-17.67c0-5.38,2.69-8.45,7.87-8.45s7.87,3.07,7.87,8.45v2.88h-4.99v-3.22c0-2.4-1.06-3.31-2.74-3.31s-2.74.91-2.74,3.31v18.39c0,2.4,1.06,3.26,2.74,3.26s2.74-.86,2.74-3.26v-6.58h-2.64v-4.8h7.63v10.99c0,5.38-2.69,8.45-7.87,8.45s-7.87-3.07-7.87-8.45Z"/>
    <path d="m411.54,478.56h-6.1l-.91,6.58h-4.9l5.47-33.6h7.15l5.47,33.6h-5.28l-.91-6.58Zm-.67-4.56l-2.4-16.95-2.35,16.95h4.75Z"/>
  </g>
  <g>
    <path d="m280.67,118.54v-36.15c0-12.22,6.57-18.9,18.48-18.9s18.59,6.67,18.59,18.9v36.15c0,12.12-6.57,18.9-18.59,18.9s-18.48-6.78-18.48-18.9Zm28.86.51v-37.17c0-7.5-3.8-10.99-10.37-10.99s-10.27,3.49-10.27,10.99v37.17c0,7.39,3.7,10.99,10.27,10.99s10.37-3.59,10.37-10.99Z"/>
    <path d="m361.49,84.95v51.45h-6.88l-.1-7.91c-2.26,5.65-7.09,8.93-13.45,8.93-8.63,0-13.25-5.24-13.25-16.02v-36.46h8.01v35.33c0,6.78,2.36,10.17,7.8,10.17,6.06,0,9.86-4.52,9.86-12.84v-32.66h8.01Z"/>
    <path d="m396.21,84.54v7.8c-1.13-.41-2.26-.51-3.59-.51-7.8,0-11.6,5.24-11.6,16.02v28.55h-8.01v-51.45h6.88l.21,9.04c1.95-6.78,6.06-10.06,12.32-10.06,1.44,0,2.67.1,3.8.62Z"/>
    <path d="m420.96,118.95v-36.97c0-11.71,6.57-18.48,17.97-18.48s18.07,6.78,18.07,18.48v6.16h-7.91v-6.57c0-7.09-3.8-10.78-9.96-10.78s-9.96,3.7-9.96,10.78v37.69c0,7.19,3.9,10.89,9.96,10.89s9.96-3.7,9.96-10.89v-8.63h7.91v8.32c0,11.6-6.47,18.48-18.07,18.48s-17.97-6.88-17.97-18.48Z"/>
    <path d="m465.32,119.66v-18.07c0-11.4,6.06-17.66,17.05-17.66s16.94,6.26,16.94,17.66v18.07c0,11.4-6.06,17.77-16.94,17.77s-17.05-6.37-17.05-17.77Zm26.08.72v-19.51c0-6.26-2.98-9.96-9.04-9.96s-9.04,3.7-9.04,9.96v19.51c0,6.26,2.88,10.06,9.04,10.06s9.04-3.8,9.04-10.06Z"/>
    <path d="m505.58,84.95h8.22l10.78,42.1,10.68-42.1h7.7l-13.66,51.45h-10.06l-13.66-51.45Z"/>
    <path d="m583.43,101.59v10.37h-26.19v8.42c0,6.68,3.18,10.17,9.14,10.17s9.34-3.59,9.34-9.96v-.72h7.7v.41c-.21,10.89-6.26,17.15-17.15,17.15s-17.05-6.37-17.05-17.77v-18.07c0-11.4,5.96-17.66,17.05-17.66s17.15,6.26,17.15,17.66Zm-7.8,4v-4.83c0-6.68-3.18-9.96-9.24-9.96s-9.14,3.39-9.14,9.96v4.83h18.38Z"/>
    <path d="m616.6,84.54v7.8c-1.13-.41-2.26-.51-3.59-.51-7.8,0-11.6,5.24-11.6,16.02v28.55h-8.01v-51.45h6.88l.21,9.04c1.95-6.78,6.06-10.06,12.32-10.06,1.44,0,2.67.1,3.8.62Z"/>
    <path d="m648.74,136.4c-.51-1.13-.82-4-.92-7.91-2.26,5.65-7.09,8.93-13.76,8.93-8.11,0-13.14-5.03-13.14-13.14s3.7-12.73,14.27-16.33c10.37-3.49,11.71-4.62,11.71-8.42v-.51c0-5.44-2.77-8.32-8.11-8.32-5.65,0-8.63,3.18-8.63,8.63v.72h-7.5v-.62c0-9.76,6.06-15.51,16.33-15.51,10.99,0,15.92,5.75,15.92,16.43v21.87c0,6.57.41,11.3,1.23,14.17h-7.39Zm-1.85-18.79v-8.63c-1.33,1.44-4,2.67-9.45,4.72-6.06,2.26-8.52,5.03-8.52,9.65s2.57,7.19,7.5,7.19c6.37,0,10.47-4.42,10.47-12.94Z"/>
    <path d="m698.96,84.95v51.86c0,10.37-4.52,16.53-16.94,16.53-10.68,0-16.33-4.62-16.64-13.76h7.8c.21,4.93,2.88,7.09,8.73,7.09,6.16,0,9.04-2.88,9.04-9.55v-9.86c-2.46,4.52-6.88,7.09-12.63,7.09-8.73,0-13.45-5.24-13.45-15.92v-18.69c0-10.58,4.72-15.81,13.45-15.81,6.57,0,11.4,3.29,13.66,9.14l.1-8.11h6.88Zm-8.01,29.47v-10.68c0-8.32-3.9-12.84-10.17-12.84-5.54,0-7.91,3.39-7.91,9.86v16.64c0,6.47,2.36,9.96,7.91,9.96,6.26,0,10.17-4.52,10.17-12.94Z"/>
    <path d="m743.33,101.59v10.37h-26.19v8.42c0,6.68,3.18,10.17,9.14,10.17s9.34-3.59,9.34-9.96v-.72h7.7v.41c-.21,10.89-6.26,17.15-17.15,17.15s-17.05-6.37-17.05-17.77v-18.07c0-11.4,5.96-17.66,17.05-17.66s17.15,6.26,17.15,17.66Zm-7.8,4v-4.83c0-6.68-3.18-9.96-9.24-9.96s-9.14,3.39-9.14,9.96v4.83h18.38Z"/>
  </g>
  <g>
    <path d="m833.38,477.36v-18.05c0-5.18,2.69-8.26,7.78-8.26s7.78,3.07,7.78,8.26v3.55h-4.99v-3.89c0-2.21-1.06-3.12-2.64-3.12s-2.64.91-2.64,3.12v18.77c0,2.21,1.06,3.07,2.64,3.07s2.64-.86,2.64-3.07v-4.9h4.99v4.51c0,5.18-2.69,8.26-7.78,8.26s-7.78-3.07-7.78-8.26Z"/>
    <path d="m862.14,485.14c-.14-.29-.34-1.34-.38-2.88-.91,2.16-2.74,3.36-5.18,3.36-3.26,0-5.33-2.35-5.33-6.14s1.58-6.05,5.9-8.16c3.5-1.73,3.98-2.16,3.98-3.5v-.48c0-1.97-.62-2.78-2.06-2.78-1.58,0-2.3,1.01-2.3,2.83v.91h-4.8v-.62c0-4.75,2.45-7.49,7.15-7.49,5.09,0,7.1,2.69,7.1,8.06v9.84c0,3.46.24,5.67.58,7.06h-4.66Zm-1.01-7.97v-4.18c-.38.48-1.15.96-2.5,1.82-1.54.96-2.3,2.21-2.3,3.79,0,1.73.72,2.64,2.16,2.64,1.73,0,2.64-1.39,2.64-4.08Z"/>
    <path d="m880.81,460.47v4.94c-.38-.1-.86-.14-1.3-.14-2.83,0-4.32,1.97-4.32,5.76v14.11h-5.09v-24.48h4.42l.1,4.13c.67-3.07,2.26-4.61,4.75-4.61.62,0,1.06.1,1.44.29Z"/>
    <path d="m893.86,460.47v4.94c-.38-.1-.86-.14-1.3-.14-2.83,0-4.32,1.97-4.32,5.76v14.11h-5.09v-24.48h4.42l.1,4.13c.67-3.07,2.26-4.61,4.75-4.61.62,0,1.06.1,1.44.29Z"/>
    <path d="m896.21,452.07h5.09v5.57h-5.09v-5.57Zm0,8.59h5.09v24.48h-5.09v-24.48Z"/>
    <path d="m919.83,468.15v5.86h-9.99v4.13c0,2.16.86,2.98,2.54,2.98s2.54-.82,2.54-2.98v-.91h4.9v.43c0,5.09-2.64,7.97-7.54,7.97s-7.54-2.88-7.54-7.97v-9.5c0-5.09,2.64-7.97,7.54-7.97s7.54,2.88,7.54,7.97Zm-4.99,1.82v-2.3c0-2.16-.91-2.98-2.5-2.98s-2.5.82-2.5,2.98v2.3h4.99Z"/>
    <path d="m933.9,460.47v4.94c-.38-.1-.86-.14-1.3-.14-2.83,0-4.32,1.97-4.32,5.76v14.11h-5.09v-24.48h4.42l.1,4.13c.67-3.07,2.26-4.61,4.75-4.61.62,0,1.06.1,1.44.29Z"/>
  </g>
  <text class="cls-3" transform="translate(828.57 485.14)"><tspan x="0" y="0"> </tspan></text>
  <g>
    <path class="cls-6" d="m158.65,275.44h26.63v54.62c-.34,0-.66,0-.99,0-7.67,0-15.35,0-23.02.01-.63,0-.98-.25-1.43-.67-1.06-1.01-1.22-2.18-1.21-3.56.04-16.39.02-32.77.02-49.16,0-.4,0-.8,0-1.24Zm13.32,13.6c2.33,0,4.65,0,6.98,0,1.93,0,2.35-.42,2.35-2.31,0-.88.01-1.76,0-2.64-.02-1.31-.54-1.88-1.82-1.89-5-.02-10-.02-15,0-1.23,0-1.75.58-1.78,1.83-.02,1.01-.01,2.01,0,3.02.01,1.46.52,1.98,2.01,1.98,2.42.01,4.84,0,7.26,0Zm-8.39,23.83h6.83v-6.32h-6.83v6.32Zm0-9.45h6.85v-6.35h-6.85v6.35Zm6.85,12.59h-6.83v6.35h6.83v-6.35Zm9.99-12.6v-6.36h-6.84v6.36h6.84Zm-6.83,3.11v6.35h6.81v-6.35h-6.81Zm-.02,15.85h6.84v-6.36h-6.84v6.36Z"/>
    <path class="cls-6" d="m124.73,275.38v1.16c0,16.8,0,33.6,0,50.4,0,1.68-1.42,3.11-3.06,3.11-7.11,0-14.22,0-21.33,0-1.89,0-2.3-.4-2.3-2.24,0-16.74,0-33.47,0-50.21,0-1.81.41-2.22,2.21-2.22,7.8,0,15.6,0,23.4,0h1.07Zm-13.33,13.65c2.42,0,4.84,0,7.26,0,1.52,0,2.01-.52,2.02-2.06,0-1.01.02-2.01,0-3.02-.03-1.18-.57-1.75-1.76-1.75-5.03-.02-10.06-.02-15.09,0-1.18,0-1.71.59-1.74,1.77-.02,1.01-.01,2.01,0,3.02,0,1.53.51,2.03,2.05,2.04,2.42.01,4.84,0,7.26,0Zm8.41,17.49h-6.83v6.32h6.83v-6.32Zm-6.84-9.5v6.35h6.8v-6.35h-6.8Zm-.02,18.96v6.36h6.84v-6.36h-6.84Zm-3.16-12.58v-6.36h-6.81v6.36h6.81Zm-6.83,9.46h6.85v-6.35h-6.85v6.35Zm6.82,9.49v-6.35h-6.8v6.35h6.8Z"/>
    <path class="cls-6" d="m155.63,325.04c-1.97-1.08-3.81-2.08-5.72-3.12,3.61-3.11,5.46-7.07,4.88-11.94-.57-4.87-3.26-8.32-7.85-10.66h3.17v-6.93h-6.88v5.89h-3.04v-5.91h-6.93v6.93h3.09c-9.12,4.33-10.62,16.45-2.94,22.67-1.84,1-3.7,2.01-5.62,3.05-.02-.24-.05-.5-.05-.77,0-20.2,0-40.41,0-60.61,0-1.62.47-2.09,2.07-2.09,7.93,0,15.86,0,23.79,0,1.54,0,2.03.49,2.03,2.03,0,20.23,0,40.47,0,60.7v.76Zm-13.94-50.81c2.26,0,4.52.01,6.78,0,1.13,0,1.67-.56,1.7-1.68.02-.94.02-1.89,0-2.83-.02-1.06-.57-1.69-1.61-1.7-4.59-.03-9.17-.03-13.76,0-1.04,0-1.58.64-1.6,1.7-.02.88-.01,1.76,0,2.64.01,1.35.52,1.86,1.89,1.87,2.2,0,4.4,0,6.6,0Zm-8.44,8.12v6.87h6.88v-6.87h-6.88Zm16.9.02h-6.9v6.84h6.9v-6.84Z"/>
    <path class="cls-6" d="m141.63,341.61c-5.85,0-11.7,0-17.55,0-1.92,0-2.44-.65-2.03-2.49,2.06-9.09,10.45-15.63,19.88-15.5,9.48.14,17.69,6.86,19.5,15.98.25,1.25-.41,2-1.78,2.01-6.01,0-12.01,0-18.02,0Z"/>
    <path class="cls-6" d="m141.65,301.32c5.62-.03,10.22,4.52,10.23,10.15.01,5.63-4.52,10.2-10.16,10.25-5.58.05-10.21-4.56-10.23-10.17-.02-5.64,4.51-10.19,10.16-10.22Z"/>
    <path class="cls-6" d="m133.36,258.45c-.32-3.07.09-3.66,2.89-3.52,1.28.07,2.56.01,3.93.01,0-1.27,0-2.46,0-3.64,0-1.12.56-1.8,1.47-1.82.94-.03,1.54.67,1.55,1.84,0,1.16,0,2.32,0,3.63,1.15,0,2.26,0,3.38,0,.66,0,1.32-.02,1.98,0,.88.03,1.43.51,1.51,1.38.07.68.01,1.37.01,2.12h-16.73Z"/>
  </g>
  <g>
    <path class="cls-5" d="m390.84,335.53c.36,1.38.74,2.75,1.07,4.14.16.67.52,1.01,1.16,1.23,1.02.35,2.02.75,2.98,1.23.68.34,1.23.32,1.87-.08,1.15-.73,2.33-1.41,3.46-2.09,1.36,1.39,2.69,2.74,4.08,4.15-.65,1.06-1.33,2.24-2.07,3.38-.41.63-.42,1.19-.09,1.86.47.96.88,1.97,1.24,2.98.22.64.57,1,1.24,1.14,1.36.3,2.7.66,4.09,1v5.74c-1.35.34-2.72.71-4.1,1.01-.67.15-1.02.5-1.24,1.14-.37,1.04-.92,2.03-1.25,3.08-.16.51-.16,1.21.07,1.66.63,1.24,1.42,2.39,2.11,3.53-1.36,1.38-2.68,2.71-4.11,4.16-.39-.34-.86-.65-1.19-1.07-1.78-2.24-4.01-3.76-6.79-4.49-.27-.07-.54-.19-.79-.32-6.5-3.37-14.17-1.05-17.72,5.35-.07.13-.16.26-.21.33-1.33-1.36-2.66-2.71-4.08-4.16.56-.92,1.24-2.1,1.98-3.23.43-.66.45-1.24.1-1.95-.48-.96-.78-2.01-1.27-2.96-.23-.45-.69-.92-1.15-1.08-1.17-.4-2.4-.6-3.59-.93-.23-.06-.55-.37-.56-.57-.04-1.74-.03-3.49-.03-5.27,1.4-.35,2.75-.7,4.11-1,.69-.16,1.07-.53,1.3-1.21.35-1.02.79-2.01,1.26-2.97.31-.64.29-1.18-.09-1.78-.73-1.14-1.42-2.32-2.09-3.41,1.38-1.39,2.71-2.74,4.09-4.13,1.14.68,2.35,1.37,3.52,2.12.61.39,1.14.38,1.78.07.97-.46,1.97-.89,2.99-1.23.69-.23,1.06-.62,1.22-1.31.31-1.36.66-2.71.99-4.07,1.91,0,3.81,0,5.72,0Zm-2.91,30.93c5.07.03,9.19-4.04,9.2-9.08.02-5.05-4.05-9.16-9.1-9.21-5.01-.05-9.18,4.08-9.2,9.11-.02,5.06,4.04,9.16,9.1,9.18Z"/>
    <path class="cls-5" d="m436.79,428.55h-27.83c-.02-.4-.05-.74-.05-1.07,0-3.02-.03-6.04,0-9.05.03-2.66,0-5.28-1.65-7.73.79-.46,1.45-.95,2.19-1.27,1.28-.56,2.59-1.04,3.91-1.49.25-.09.75.05.91.26,1.83,2.43,3.64,4.89,5.42,7.37.2.28.3.69.3,1.05.03,1.62,0,3.24.01,4.86,0,.97.39,1.52,1.09,1.47.92-.07,1.1-.71,1.06-1.49,0-.13.02-.26,0-.38-.5-3.56.48-6.64,2.78-9.4.97-1.16,1.69-2.53,2.66-4,2.1.87,4.28,1.61,6.32,2.66,1.66.85,2.36,2.58,2.87,4.31v13.92Z"/>
    <path class="cls-5" d="m406.65,433.08h-7.79c0-.33,0-.67,0-1,0-2.99.02-5.97-.03-8.95,0-.41-.27-.91-.58-1.17-.2-.17-.84-.14-1.03.05-.29.3-.49.81-.49,1.23-.04,2.92-.02,5.84-.02,8.76,0,.34,0,.68,0,1.08h-17.46c0-.32,0-.66,0-.99,0-2.99,0-5.97,0-8.96,0-.73-.23-1.3-1.03-1.32-.85-.02-1.13.53-1.13,1.32,0,3.05,0,6.1,0,9.15,0,.25,0,.49,0,.8h-7.83c0-.35,0-.66,0-.97,0-5.24,0-10.48,0-15.72,0-3.86,1.79-6.44,5.39-7.77,1.63-.61,3.28-1.18,4.9-1.82.57-.23.87-.19,1.23.36,1.89,2.9,3.83,5.76,5.73,8.65.22.34.35.82.35,1.23.03,2.54-.03,5.08.04,7.62.01.47.35,1.13.74,1.36.72.42,1.43-.25,1.43-1.3.02-2.35-.01-4.7.03-7.05,0-.51.15-1.07.39-1.52,1.56-2.98,3.17-5.93,4.73-8.91.29-.56.55-.7,1.17-.48,2.02.74,4.08,1.39,6.11,2.12,3.21,1.15,5.15,3.8,5.17,7.14.03,5.49.01,10.99.01,16.48,0,.18-.03.37-.04.59Z"/>
    <path class="cls-5" d="m367.05,428.5h-27.83c-.02-.32-.05-.63-.05-.93,0-3.91,0-7.81,0-11.72,0-3.13,1.61-5.45,4.55-6.58,1.15-.44,2.32-.86,3.46-1.34.45-.19.72-.17,1.03.26,1.76,2.45,3.57,4.86,5.32,7.32.22.3.32.75.33,1.13.03,1.62,0,3.24.01,4.86,0,.94.44,1.5,1.14,1.44.85-.08,1.07-.68,1.07-1.42,0-1.46.05-2.92-.01-4.38-.04-.88.22-1.58.7-2.29,1.56-2.31,3.07-4.66,4.72-7.16,2.09.86,4.19,1.7,6.28,2.58.59.25.71.65.35,1.28-.81,1.44-1.07,3.04-1.07,4.68,0,3.72,0,7.43,0,11.15,0,.35,0,.69,0,1.14Z"/>
    <path class="cls-5" d="m390.95,378.62c.76,1.09,1.43,2.16,2.21,3.15,1.7,2.18,3.81,3.9,6.28,5.15.71.36.91.7.79,1.51-.74,5.15-4.57,9.58-9.4,10.75-6.32,1.54-12.7-2.29-14.63-8.77-.04-.12-.05-.25-.1-.37-1.01-2.32-.15-4.26,1.28-6.04,1.38-1.71,3.23-2.44,5.41-2.16,3.33.43,6.05-.62,8.17-3.23Z"/>
    <path class="cls-5" d="m406.92,386.54c-.85-7.79,3.19-11.68,7.34-13.51,3.62-1.59,7.21-1.51,10.69.49.38.22.81.36,1.23.47,4.97,1.29,8.42,5.63,8.49,10.76.03,1.93,0,3.85,0,6.01-.67-.62-1.22-1.07-1.71-1.58-3.31-3.46-6.62-6.93-9.91-10.42-.99-1.05-1.5-1.06-2.42.11-3.51,4.43-8.14,6.83-13.72,7.66Z"/>
    <path class="cls-5" d="m368.56,390.74c-.68-.63-1.24-1.08-1.73-1.6-3.25-3.39-6.5-6.79-9.71-10.21-1.21-1.29-1.58-1.31-2.67.06-3.3,4.13-7.65,6.47-12.8,7.42-.25.05-.5.04-.84.07-.34-3.45.07-6.65,2.22-9.47,3.55-4.65,10.5-6.77,15.9-3.43.34.21.76.31,1.15.42,4.94,1.29,8.32,5.49,8.46,10.58.05,1.98,0,3.97,0,6.17Z"/>
    <path class="cls-5" d="m412.61,390.91c0-.25-.01-.51,0-.76.11-1.81.52-3.24,2.56-4.02,2.28-.88,4.15-2.55,5.83-4.35.73-.78,1.1-.76,1.85.04,1.78,1.9,3.53,3.83,5.37,5.67.8.8,1.2,1.65,1.23,2.75.09,2.87-.62,5.49-2.54,7.66-3.46,3.92-9.12,3.64-12.26-.58-1.41-1.9-2.02-4.07-2.05-6.41Z"/>
    <path class="cls-5" d="m363.58,390.88c-.3,2.61-.98,4.94-2.66,6.91-3.39,3.95-9.02,3.84-12.2-.28-2.25-2.92-2.74-6.21-1.75-9.72.1-.36.45-.77.79-.93,2.74-1.27,5.18-2.96,7.22-5.18.61-.66,1.1-.57,1.67.03,2.02,2.16,4.12,4.24,6.03,6.49.57.67.61,1.78.9,2.69Z"/>
    <path class="cls-5" d="m400.39,385.07c-1.04-.71-1.95-1.27-2.78-1.92-2.24-1.76-3.92-3.96-5.1-6.55-.67-1.48-1.41-1.59-2.43-.35-1.11,1.35-2.19,2.78-4,3.23-.79.2-1.65.34-2.44.23-3.14-.45-5.76.47-7.99,2.9-.37-3.59.22-6.78,2.63-9.45,3.39-3.76,8.75-4.69,13.22-2.33.42.22.86.4,1.32.52,4.39,1.13,7.46,4.96,7.56,9.49.03,1.32,0,2.65,0,4.23Z"/>
    <path class="cls-5" d="m388.05,414.16c-1.1-1.66-2.14-3.21-3.17-4.76-.47-.71-.86-1.51-1.45-2.12-1.9-2-1.68-4.42-1.51-6.93,3.6,1.65,7.24,1.78,11.04.48-.06,2.08.29,4.01-.89,5.89-1.47,2.35-2.66,4.87-4.03,7.44Z"/>
    <path class="cls-5" d="m349.28,401.11c3.39,2.1,6.74,2.3,10.33.59,0,1.64,0,3.18,0,4.71,0,.12-.07.25-.14.35-1.49,2.28-2.99,4.56-4.54,6.93-1.86-2.53-3.66-4.97-5.44-7.43-.14-.19-.2-.47-.2-.71-.02-1.43,0-2.85,0-4.45Z"/>
    <path class="cls-5" d="m425.74,401.7c0,1.59,0,3.08,0,4.56,0,.15-.05.32-.13.44-1.5,2.31-3.01,4.6-4.57,6.99-1.86-2.54-3.67-4.99-5.46-7.45-.09-.12-.15-.29-.16-.43-.01-1.51,0-3.02,0-4.68,3.38,2.1,6.77,2.27,10.32.56Z"/>
    <path class="cls-5" d="m347.31,401.61c-3.07.17-5.92-2.33-6.43-5.35-.07-.44-.13-.88-.14-1.32-.01-2.03,0-4.06,0-6.14,1.26-.26,2.47-.5,3.82-.77-.03.35-.04.65-.08.94-.49,3.49.31,6.63,2.24,9.59.51.78.41,1.96.61,3.05Z"/>
    <path class="cls-5" d="m413.15,401.6c-2.61.2-5.48-2.11-6.08-4.95-.22-1.07-.19-2.2-.21-3.3-.03-1.51,0-3.03,0-4.56,1.29-.26,2.5-.5,3.79-.76-.02.26-.01.5-.05.74-.48,3.25-.03,6.36,1.85,9.08.86,1.24.77,2.45.71,3.75Z"/>
    <path class="cls-5" d="m365.55,390.94c1.05.97,1.92,1.78,2.79,2.61.11.1.18.26.22.4.85,3.67-2.67,7.88-6.46,7.73-.06,0-.11-.05-.2-.09-.12-.88-.07-1.62.63-2.39,2.03-2.25,2.92-4.99,3.03-8.26Z"/>
    <path class="cls-5" d="m428.02,401.63c-.22-1.02.03-1.77.71-2.54,1.8-2.03,2.66-4.5,2.89-7.2.02-.24.03-.49.06-.93,1.02.94,1.91,1.77,2.8,2.61.09.08.16.2.19.31,1.05,3.6-2.75,8.06-6.65,7.74Z"/>
    <path class="cls-5" d="m388.02,350.37c3.85.02,6.98,3.17,6.94,7-.04,3.84-3.2,6.95-7.03,6.93-3.82-.02-6.98-3.22-6.94-7.02.04-3.85,3.17-6.92,7.03-6.91Z"/>
  </g>
  <g>
    <path class="cls-8" d="m647.86,280.8v41.8h-7.8c-.02-.34-.06-.68-.06-1.01,0-3.61,0-7.22,0-10.83,0-1.66-.42-2.07-2.07-2.07-3.97,0-7.93,0-11.9,0-1.53,0-1.98.44-1.98,1.98,0,3.61,0,7.22,0,10.83,0,.34,0,.69,0,1.09h-7.86v-41.79h31.68Zm-22.62,7.73c0-.55-.02-1.1,0-1.65.04-.65-.28-.88-.89-.88-1.08.01-2.15,0-3.23,0-.57,0-.87.24-.85.84.02.55,0,1.1,0,1.65.04,2.81-.42,2.46,2.51,2.48,2.44.01,2.44,0,2.44-2.44Zm13.55-.05c0,.55.02,1.1,0,1.65-.03.6.25.84.83.84,1.1,0,2.21,0,3.31,0,.59,0,.83-.28.82-.86-.02-1.07-.02-2.15,0-3.22.01-.64-.28-.9-.89-.89-1.08.01-2.15.01-3.23,0-.64,0-.88.29-.85.91.03.52,0,1.04,0,1.57Zm-9.25-.02c0,.55.02,1.1,0,1.65-.03.59.23.86.81.86,1.13,0,2.27,0,3.4,0,.49,0,.75-.23.74-.75-.02-.58,0-1.16,0-1.74-.05-2.79.47-2.47-2.51-2.47-2.89,0-2.38-.3-2.43,2.45Zm-6.73,7.93c-.61,0-1.23-.07-1.83.03-.26.04-.66.42-.67.66-.07,1.16-.08,2.32,0,3.48.02.27.44.71.7.73,1.16.08,2.32.03,3.48.04.51,0,.74-.25.73-.75-.01-.58,0-1.16,0-1.74q0-2.45-2.42-2.45Zm9.14,4.94c.58,0,1.16,0,1.74,0,.54,0,.8-.24.79-.79-.02-1.13-.02-2.26,0-3.39,0-.58-.28-.77-.81-.76-1.1.01-2.21.01-3.31,0-.58,0-.86.22-.83.82.03.58,0,1.16,0,1.74.04,2.72-.4,2.36,2.41,2.38Zm9.26,0c.55,0,1.1-.01,1.66,0,.57.01.88-.21.88-.81,0-1.13,0-2.26,0-3.39,0-.5-.23-.75-.74-.74-1.16,0-2.32,0-3.49,0-.52,0-.74.24-.72.75.01.58,0,1.16,0,1.74q0,2.46,2.42,2.46Z"/>
    <path class="cls-8" d="m613.24,294.86v27.75c-.31.02-.59.05-.87.05-4.35,0-8.69,0-13.04,0-1.5,0-1.91-.42-1.91-1.93,0-8,0-16.01,0-24.01,0-1.48.41-1.91,1.85-1.91,4.37,0,8.75,0,13.12,0,.26,0,.51.03.84.05Zm-7.84,16.59c-.58,0-1.16.01-1.74,0-.5-.01-.76.19-.76.71,0,1.16,0,2.32,0,3.48,0,.57.28.76.82.75,1.1-.02,2.21-.02,3.31,0,.6,0,.84-.28.83-.85-.01-.55,0-1.1,0-1.65-.03-2.86.36-2.39-2.45-2.43Zm-2.5-7.93c0,.58.01,1.16,0,1.74-.02.55.25.79.79.79,1.13,0,2.27.04,3.4-.04.27-.02.71-.45.73-.71.08-1.15.03-2.32.04-3.48,0-.51-.26-.73-.76-.73-.58,0-1.16,0-1.74,0q-2.45,0-2.45,2.42Z"/>
    <path class="cls-8" d="m650.82,294.85c.34-.02.66-.04.97-.04,4.26,0,8.52,0,12.77,0,1.68,0,2.04.36,2.04,2.07,0,7.92,0,15.83,0,23.75,0,1.68-.37,2.04-2.07,2.04-4.26,0-8.52,0-12.77,0h-.94v-27.81Zm10.31,19.07c0-.58,0-1.16,0-1.74,0-.5-.22-.74-.74-.74-1.16.01-2.33,0-3.49,0-.52,0-.73.27-.73.76,0,1.13,0,2.26,0,3.39,0,.54.25.79.8.78,1.13-.01,2.27-.02,3.4,0,.58,0,.77-.28.76-.81-.01-.55,0-1.1,0-1.65Zm-2.43-12.83c-2.52,0-2.53,0-2.51,2.54.01,2.72-.35,2.4,2.41,2.41,2.54.01,2.54,0,2.54-2.52s0-2.43-2.44-2.43Z"/>
    <path class="cls-8" d="m632.08,272.89c5.25,0,10.5,0,15.75,0,2.08,0,3.35,1.9,2.44,3.63-.53,1.01-1.42,1.4-2.53,1.39-4.7,0-9.39,0-14.09,0-5.81,0-11.61,0-17.42,0-2.06,0-3.34-1.79-2.55-3.53.49-1.06,1.38-1.5,2.54-1.5,5.28,0,10.56,0,15.84,0Z"/>
    <path class="cls-8" d="m600.17,345.77c-2.68,0-5.37,0-8.05,0-1.35,0-1.65-.38-1.43-1.7.77-4.49,4.82-7.9,9.43-7.94,4.65-.04,8.8,3.34,9.62,7.84.25,1.39-.08,1.8-1.52,1.8-2.68,0-5.37,0-8.05,0Z"/>
    <path class="cls-8" d="m621.43,345.77c-2.71,0-5.42,0-8.14,0-1.31,0-1.61-.37-1.41-1.64.71-4.49,4.83-7.97,9.47-8,4.65-.03,8.84,3.41,9.59,7.87.24,1.41-.08,1.77-1.55,1.77-2.65,0-5.31,0-7.96,0Z"/>
    <path class="cls-8" d="m642.61,345.77c-2.62,0-5.25,0-7.87,0-1.6,0-1.93-.39-1.62-1.94.86-4.27,4.76-7.56,9.12-7.7,4.5-.14,8.54,2.78,9.71,7.05.61,2.22.38,2.67-1.98,2.61-2.45-.06-4.9-.01-7.35-.01Z"/>
    <path class="cls-8" d="m663.88,345.77c-2.68,0-5.37,0-8.05,0-1.45,0-1.78-.39-1.54-1.78.8-4.57,5.09-7.99,9.86-7.85,4.63.13,8.71,3.8,9.27,8.34.1.85-.31,1.28-1.31,1.29-2.74.01-5.48,0-8.22,0Z"/>
    <path class="cls-8" d="m605.42,329.63c0,2.89-2.32,5.22-5.2,5.22-2.86,0-5.23-2.36-5.23-5.22,0-2.87,2.35-5.21,5.23-5.21,2.89,0,5.2,2.31,5.21,5.21Z"/>
    <path class="cls-8" d="m658.61,329.6c.01-2.89,2.34-5.19,5.24-5.18,2.88.01,5.22,2.38,5.2,5.24-.03,2.87-2.4,5.21-5.26,5.19-2.88-.02-5.18-2.36-5.17-5.26Z"/>
    <path class="cls-8" d="m626.62,329.63c0,2.89-2.33,5.22-5.2,5.22-2.87,0-5.21-2.35-5.21-5.22,0-2.89,2.32-5.21,5.21-5.21,2.89,0,5.2,2.31,5.2,5.21Z"/>
    <path class="cls-8" d="m647.82,329.76c-.08,2.89-2.47,5.17-5.33,5.1-2.92-.08-5.17-2.49-5.07-5.43.09-2.87,2.49-5.09,5.41-5,2.82.09,5.07,2.49,4.99,5.33Z"/>
    <path class="cls-8" d="m642.79,267.78h-6.18v-6.69h6.2c-.54.97-1.02,1.89-1.56,2.77-.26.43-.26.76,0,1.19.52.86.99,1.75,1.54,2.73Z"/>
    <path class="cls-8" d="m633.64,270.03h-3.2c-.04-.2-.1-.39-.1-.58,0-2.71,0-5.42,0-8.12,0-.23.02-.47.08-.69.21-.8.74-1.23,1.58-1.24.83-.02,1.45.47,1.61,1.3.08.4.08.81.08,1.22,0,2.39,0,4.77,0,7.16,0,.31-.03.62-.05.95Z"/>
  </g>
  <g>
    <path class="cls-9" d="m957.39,384.72c-1.78,3.94-3.56,7.88-5.34,11.81-.29.63-.58,1.27-.88,1.89-.91,1.89-2.34,2.77-4.52,2.77-17.65-.04-35.3-.03-52.95-.03-27.47,0-54.95,0-82.42,0-4.79,0-7.05-2.26-7.05-7.04,0-3.04-.02-6.08,0-9.12.01-1.82.6-2.39,2.44-2.39,11.57,0,23.14.01,34.7-.03,1.2,0,2.03.41,2.62,1.36.97,1.56,2.32,1.95,4.14,1.94,21.89-.06,43.78-.06,65.67-.01,1.47,0,2.63-.25,3.41-1.55.87-1.45,2.16-1.76,3.8-1.75,11.27.06,22.54.05,33.81.01,1.25,0,2.13.32,2.58,1.54v.6Z"/>
    <path class="cls-9" d="m943.36,427.17c0,.9.1,1.8-.05,2.69-.06.33-.57.83-1.11.93-8.96,1.65-18.06,2.89-27.75,1.99-2.94-.27-5.74-.81-7.85-1.88-4.42-2.24-9.74-2.63-15.46-1.92-3.2.4-6.34,1.04-9.31,1.77-5.39,1.33-10.89,2.35-16.98,2.3-4.06-.04-7.91-.58-10.83-2.01-4.07-1.99-8.96-2.46-14.31-2.36-6.29.12-12.3.89-18.19,1.94-2.52.45-3.32.2-3.3-1.14.03-1.64.18-3.29.3-4.93.05-.66.63-1.06,1.99-1.3,6.92-1.2,13.94-2.08,21.33-2.02,5.45.05,10.32.79,14.44,2.73,3.96,1.87,8.97,1.98,13.93,1.37,3.35-.42,6.61-1.09,9.74-1.83,5.22-1.25,10.48-2.31,16.39-2.27,4.52.03,8.53.74,11.81,2.32,2.69,1.3,5.95,1.88,9.57,2.02,7.72.3,15.03-.64,22.24-1.88.33-.06.65-.13.98-.18,1.46-.21,2.35.11,2.37.87.03.92,0,1.85,0,2.77.02,0,.04,0,.05,0Z"/>
    <path class="cls-9" d="m943.36,414.23c0,.9.1,1.8-.05,2.69-.06.33-.57.83-1.11.93-8.96,1.65-18.06,2.89-27.75,1.99-2.94-.27-5.74-.81-7.85-1.88-4.42-2.24-9.74-2.63-15.46-1.92-3.2.4-6.34,1.04-9.31,1.77-5.39,1.33-10.89,2.35-16.98,2.3-4.06-.04-7.91-.58-10.83-2.01-4.07-1.99-8.96-2.46-14.31-2.36-6.29.12-12.3.89-18.19,1.94-2.52.45-3.32.2-3.3-1.14.03-1.64.18-3.29.3-4.93.05-.66.63-1.06,1.99-1.3,6.92-1.2,13.94-2.08,21.33-2.02,5.45.05,10.32.79,14.44,2.73,3.96,1.87,8.97,1.98,13.93,1.37,3.35-.42,6.61-1.09,9.74-1.83,5.22-1.25,10.48-2.31,16.39-2.27,4.52.03,8.53.74,11.81,2.32,2.69,1.3,5.95,1.88,9.57,2.02,7.72.3,15.03-.64,22.24-1.88.33-.06.65-.13.98-.18,1.46-.21,2.35.11,2.37.87.03.92,0,1.85,0,2.77.02,0,.04,0,.05,0Z"/>
    <path class="cls-9" d="m839.37,378.97h-30.71c0-1.5-.13-2.98.04-4.43.13-1.05,1.09-1.28,2.08-1.27,3.19.02,6.38,0,9.57,0,.54,0,1.08,0,1.82,0,0-.67,0-1.2,0-1.73,0-5.14,0-10.27,0-15.41,0-2.21.52-2.73,2.73-2.74,4.04,0,8.08-.01,12.12,0,1.77,0,2.41.61,2.42,2.29.02,7.48,0,14.96,0,22.44,0,.24-.04.48-.08.84Zm-8.57-11.31s0,0,0,0c.35,0,.69.01,1.04,0,1.11-.05,1.8-.67,1.82-1.75.02-1.09-.66-1.74-1.76-1.81-.79-.05-1.68-.22-2.35.07-.64.29-1.34,1.03-1.49,1.69-.22.98.53,1.64,1.55,1.78.39.05.79,0,1.19,0Zm0,2.09c-.3,0-.59,0-.89,0-1.17.04-1.91.63-1.89,1.82.02,1.2.8,1.74,1.96,1.76.59.01,1.19.02,1.78,0,1.17-.04,1.92-.66,1.9-1.83-.02-1.17-.8-1.75-1.97-1.76-.3,0-.59,0-.89,0Zm0-7.76s0,0,0,.01c.35,0,.69,0,1.04,0,1.12-.04,1.81-.66,1.83-1.74.03-1.09-.66-1.74-1.76-1.82-.79-.06-1.59-.08-2.37.03-1.01.15-1.74.87-1.47,1.84.17.65.96,1.19,1.57,1.64.25.19.77.03,1.16.03Z"/>
    <path class="cls-9" d="m870.04,346.89v12.69h-21.33c0-1.4,0-2.82,0-4.25,0-2.19,0-4.39,0-6.58,0-1.25.56-2.04,1.85-2.04,6.38-.02,12.76,0,19.14.02.09,0,.17.08.34.16Z"/>
    <path class="cls-9" d="m912.84,359.6h-21.3v-12.9c.43,0,.91,0,1.38,0,5.78,0,11.57,0,17.35,0,2.09,0,2.56.47,2.57,2.54,0,3.43,0,6.85,0,10.36Z"/>
    <path class="cls-9" d="m848.8,363.26h21.22v9.51h-21.22v-9.51Z"/>
    <path class="cls-9" d="m891.52,372.78v-9.5h21.25v9.5h-21.25Z"/>
    <path class="cls-9" d="m887.72,359.61h-13.89v-12.85h13.89v12.85Z"/>
    <path class="cls-9" d="m887.71,372.79h-13.86v-9.54h13.86v9.54Z"/>
    <path class="cls-9" d="m848.77,382.16v-5.57h21.26v5.57h-21.26Z"/>
    <path class="cls-9" d="m912.73,382.16h-21.21v-5.61h21.21v5.61Z"/>
    <path class="cls-9" d="m887.71,382.17h-13.89v-5.55h13.89v5.55Z"/>
  </g>
</svg>