<?xml version="1.0" encoding="utf-8"?>
<!-- Generator: Adobe Illustrator 27.1.1, SVG Export Plug-In . SVG Version: 6.00 Build 0)  -->
<svg version="1.1" id="Layer_1" xmlns="http://www.w3.org/2000/svg" xmlns:xlink="http://www.w3.org/1999/xlink" x="0px" y="0px"
	 viewBox="0 0 1080 472.7" style="enable-background:new 0 0 1080 472.7;" xml:space="preserve">
<style type="text/css">
	.st0{clip-path:url(#SVGID_00000051351649322526233210000015316137648624764583_);}
	.st1{fill:#3092CF;}
	.st2{clip-path:url(#SVGID_00000155130825376918160430000000921331328611743389_);}
	.st3{fill:#12558B;}
	.st4{clip-path:url(#SVGID_00000005974670598299871210000004360519817957839542_);}
	.st5{fill:#50C4CC;}
	.st6{clip-path:url(#SVGID_00000112597051662407004830000007378158534902273674_);}
	.st7{fill:#3FC6ED;}
	.st8{fill:#FFFFFF;}
	.st9{clip-path:url(#SVGID_00000014614307103895674760000000033032800618840745_);}
	.st10{fill:#3C3735;}
	.st11{fill:#E0D7D1;}
	.st12{clip-path:url(#SVGID_00000052796590617023647170000011281027011670122150_);}
	.st13{clip-path:url(#SVGID_00000120533779689556495220000003212462151112694657_);}
	.st14{enable-background:new    ;}
	.st15{clip-path:url(#SVGID_00000165935798608466838920000017568055223369755312_);}
</style>
<g>
	<g>
		<g>
			<defs>
				<rect id="SVGID_1_" x="285.2" y="84.8" width="244.3" height="169.2"/>
			</defs>
			<clipPath id="SVGID_00000143598348243417870780000009277673613851644600_">
				<use xlink:href="#SVGID_1_"  style="overflow:visible;"/>
			</clipPath>
			<g style="clip-path:url(#SVGID_00000143598348243417870780000009277673613851644600_);">
				<path class="st1" d="M528.8,150.3c-19.9-1.5-39.4-11-52.2-29.4v0.2c-15.2-21.9-40.5-36.3-69.1-36.3s-53.9,14.4-69.1,36.3v-0.2
					c-12.8,18.4-32.2,27.9-52.2,29.4v38.3c19.9,1.5,39.4,11,52.2,29.4v-0.2c15.2,21.9,40.5,36.3,69.1,36.3s53.9-14.4,69.1-36.3v0.2
					c12.8-18.4,32.2-27.9,52.2-29.4V150.3L528.8,150.3z"/>
			</g>
		</g>
	</g>
</g>
<g>
	<g>
		<g>
			<defs>
				<rect id="SVGID_00000170990988648064371400000006060145205370021038_" x="69.6" y="84.8" width="206.9" height="169.2"/>
			</defs>
			<clipPath id="SVGID_00000034782813552781336200000007982398281844655539_">
				<use xlink:href="#SVGID_00000170990988648064371400000006060145205370021038_"  style="overflow:visible;"/>
			</clipPath>
			<g style="clip-path:url(#SVGID_00000034782813552781336200000007982398281844655539_);">
				<path class="st3" d="M275.7,150.3c-19.9-1.5-39.4-11-52.2-29.4v0.2c-15.2-21.9-40.5-36.3-69.1-36.3c-46.6,0-84.4,37.9-84.4,84.6
					s37.8,84.6,84.4,84.6c28.6,0,53.9-14.4,69.1-36.3v0.2c12.8-18.4,32.2-27.9,52.2-29.4L275.7,150.3L275.7,150.3z"/>
			</g>
		</g>
	</g>
</g>
<g>
	<g>
		<g>
			<defs>
				<rect id="SVGID_00000104679069334716212130000007245059162995711148_" x="792.4" y="84.8" width="206.9" height="169.2"/>
			</defs>
			<clipPath id="SVGID_00000044150142305668663180000000387323050862997133_">
				<use xlink:href="#SVGID_00000104679069334716212130000007245059162995711148_"  style="overflow:visible;"/>
			</clipPath>
			<g style="clip-path:url(#SVGID_00000044150142305668663180000000387323050862997133_);">
				<path class="st5" d="M913.8,84.8c-28.7,0-53.9,14.4-69.1,36.3v-0.2c-12.8,18.4-32.2,27.9-52.2,29.4v38.3
					c19.9,1.5,39.3,11,52.2,29.4v-0.2c15.2,21.9,40.5,36.3,69.1,36.3c46.6,0,84.4-37.9,84.4-84.6S960.4,84.8,913.8,84.8L913.8,84.8z
					"/>
			</g>
		</g>
	</g>
</g>
<g>
	<g>
		<g>
			<defs>
				<rect id="SVGID_00000041274352665675422910000005866220552963291297_" x="538.1" y="84.8" width="244.3" height="169.2"/>
			</defs>
			<clipPath id="SVGID_00000171704112342748571330000016356622672284972169_">
				<use xlink:href="#SVGID_00000041274352665675422910000005866220552963291297_"  style="overflow:visible;"/>
			</clipPath>
			<g style="clip-path:url(#SVGID_00000171704112342748571330000016356622672284972169_);">
				<path class="st7" d="M782,150.3c-19.9-1.5-39.3-11-52.2-29.4v0.2c-15.2-21.9-40.5-36.3-69.1-36.3s-53.9,14.4-69.1,36.3v-0.2
					c-12.8,18.4-32.2,27.9-52.2,29.4v38.3c19.9,1.5,39.3,11,52.2,29.4v-0.2c15.2,21.9,40.5,36.3,69.1,36.3s53.9-14.4,69.1-36.3v0.2
					c12.8-18.4,32.2-27.9,52.2-29.4V150.3L782,150.3z"/>
			</g>
		</g>
	</g>
</g>
<path class="st8" d="M220.2,169.8c0,2.2-0.1,4.4-0.3,6.6c-0.2,2.2-0.5,4.4-1,6.6c-0.4,2.2-1,4.3-1.6,6.5s-1.4,4.2-2.2,6.3
	c-0.9,2.1-1.8,4.1-2.9,6c-1,2-2.2,3.9-3.4,5.7s-2.6,3.6-4,5.4s-2.9,3.4-4.5,4.9s-3.2,3.1-4.9,4.5s-3.5,2.7-5.4,4
	c-1.9,1.2-3.8,2.4-5.7,3.4c-2,1.1-4,2-6,2.9s-4.1,1.6-6.3,2.2s-4.3,1.2-6.5,1.6c-2.2,0.4-4.4,0.8-6.6,1c-2.2,0.2-4.4,0.3-6.6,0.3
	s-4.4-0.1-6.7-0.3c-2.2-0.2-4.4-0.5-6.6-1c-2.2-0.4-4.3-1-6.5-1.6s-4.2-1.4-6.3-2.2s-4.1-1.8-6-2.9c-2-1-3.9-2.2-5.7-3.4
	s-3.6-2.6-5.3-4s-3.4-2.9-4.9-4.5c-1.6-1.6-3.1-3.2-4.5-4.9s-2.7-3.5-4-5.4s-2.4-3.8-3.4-5.7c-1.1-2-2-4-2.8-6s-1.6-4.1-2.2-6.3
	s-1.2-4.3-1.6-6.5s-0.8-4.4-1-6.6c-0.2-2.2-0.3-4.4-0.3-6.6s0.1-4.4,0.3-6.7s0.5-4.4,1-6.6c0.4-2.2,1-4.3,1.6-6.5
	c0.7-2.1,1.4-4.2,2.2-6.3s1.8-4.1,2.8-6c1.1-2,2.2-3.9,3.4-5.7c1.2-1.9,2.6-3.6,4-5.3s2.9-3.4,4.5-4.9s3.2-3.1,4.9-4.5
	c1.7-1.4,3.5-2.7,5.3-4c1.8-1.2,3.8-2.4,5.7-3.4c2-1.1,4-2,6-2.8s4.1-1.6,6.3-2.2s4.3-1.2,6.5-1.6s4.4-0.8,6.6-1s4.4-0.3,6.7-0.3
	s4.4,0.1,6.6,0.3s4.4,0.5,6.6,1c2.2,0.4,4.3,1,6.5,1.6s4.2,1.4,6.3,2.2c2.1,0.8,4.1,1.8,6,2.8c2,1.1,3.9,2.2,5.7,3.4
	c1.9,1.2,3.6,2.6,5.4,4s3.4,2.9,4.9,4.5c1.6,1.6,3.1,3.2,4.5,4.9c1.4,1.7,2.7,3.5,4,5.3c1.2,1.9,2.4,3.8,3.4,5.7c1.1,2,2,4,2.9,6
	s1.6,4.1,2.2,6.3s1.2,4.3,1.6,6.5c0.4,2.2,0.8,4.4,1,6.6S220.2,167.5,220.2,169.8z"/>
<path class="st8" d="M475.7,169.8c0,2.2-0.1,4.4-0.3,6.6c-0.2,2.2-0.5,4.4-1,6.6c-0.4,2.2-1,4.3-1.6,6.5s-1.4,4.2-2.2,6.3
	s-1.8,4.1-2.9,6c-1,2-2.2,3.9-3.4,5.7c-1.2,1.9-2.6,3.6-4,5.4s-2.9,3.4-4.5,4.9s-3.2,3.1-4.9,4.5s-3.5,2.7-5.4,4s-3.8,2.4-5.7,3.4
	c-2,1.1-4,2-6,2.9s-4.1,1.6-6.3,2.2s-4.3,1.2-6.5,1.6s-4.4,0.8-6.6,1s-4.4,0.3-6.6,0.3s-4.5-0.1-6.7-0.3s-4.4-0.5-6.6-1
	c-2.2-0.4-4.3-1-6.5-1.6c-2.1-0.6-4.2-1.4-6.3-2.2s-4.1-1.8-6-2.9c-2-1-3.9-2.2-5.7-3.4c-1.9-1.2-3.6-2.6-5.4-4s-3.4-2.9-4.9-4.5
	c-1.6-1.6-3.1-3.2-4.5-4.9s-2.7-3.5-4-5.4c-1.2-1.9-2.4-3.8-3.4-5.7c-1-2-2-4-2.9-6s-1.6-4.1-2.2-6.3s-1.2-4.3-1.6-6.5
	s-0.8-4.4-1-6.6c-0.2-2.2-0.3-4.4-0.3-6.6s0.1-4.4,0.3-6.7s0.5-4.4,1-6.6c0.4-2.2,1-4.3,1.6-6.5c0.6-2.1,1.4-4.2,2.2-6.3
	c0.9-2.1,1.8-4.1,2.9-6c1-2,2.2-3.9,3.4-5.7c1.2-1.9,2.6-3.6,4-5.3s2.9-3.4,4.5-4.9c1.6-1.6,3.2-3.1,4.9-4.5c1.7-1.4,3.5-2.7,5.4-4
	c1.9-1.2,3.8-2.4,5.7-3.4c2-1.1,4-2,6-2.8s4.1-1.6,6.3-2.2c2.1-0.7,4.3-1.2,6.5-1.6s4.4-0.8,6.6-1s4.4-0.3,6.7-0.3s4.4,0.1,6.6,0.3
	c2.2,0.2,4.4,0.5,6.6,1c2.2,0.4,4.3,1,6.5,1.6s4.2,1.4,6.3,2.2c2,0.8,4.1,1.8,6,2.8c2,1.1,3.9,2.2,5.7,3.4s3.6,2.6,5.4,4
	s3.4,2.9,4.9,4.5c1.6,1.6,3.1,3.2,4.5,4.9c1.4,1.7,2.7,3.5,4,5.3c1.2,1.9,2.4,3.8,3.4,5.7c1,2,2,4,2.9,6s1.6,4.1,2.2,6.3
	s1.2,4.3,1.6,6.5s0.8,4.4,1,6.6C475.6,165.3,475.7,167.5,475.7,169.8z"/>
<path class="st8" d="M731.9,169.8c0,2.2-0.1,4.4-0.3,6.6c-0.2,2.2-0.5,4.4-1,6.6c-0.4,2.2-1,4.3-1.6,6.5s-1.4,4.2-2.2,6.3
	s-1.8,4.1-2.8,6s-2.2,3.9-3.4,5.7c-1.2,1.9-2.6,3.6-4,5.4s-2.9,3.4-4.5,4.9s-3.2,3.1-4.9,4.5s-3.5,2.7-5.3,4s-3.8,2.4-5.7,3.4
	c-2,1.1-4,2-6,2.9s-4.2,1.6-6.3,2.2s-4.3,1.2-6.5,1.6s-4.4,0.8-6.6,1c-2.2,0.2-4.4,0.3-6.7,0.3s-4.5-0.1-6.7-0.3s-4.4-0.5-6.6-1
	c-2.2-0.4-4.3-1-6.5-1.6s-4.2-1.4-6.3-2.2s-4.1-1.8-6-2.9c-2-1-3.9-2.2-5.7-3.4s-3.6-2.6-5.3-4s-3.4-2.9-4.9-4.5s-3.1-3.2-4.5-4.9
	s-2.7-3.5-4-5.4c-1.2-1.9-2.4-3.8-3.4-5.7c-1-2-2-4-2.8-6s-1.6-4.1-2.2-6.3s-1.2-4.3-1.6-6.5c-0.4-2.2-0.8-4.4-1-6.6
	c-0.2-2.2-0.3-4.4-0.3-6.6s0.1-4.4,0.3-6.7s0.5-4.4,1-6.6s1-4.3,1.6-6.5c0.7-2.1,1.4-4.2,2.2-6.3s1.8-4.1,2.8-6s2.2-3.9,3.4-5.7
	c1.2-1.9,2.6-3.6,4-5.3s2.9-3.4,4.5-4.9c1.6-1.6,3.2-3.1,4.9-4.5s3.5-2.7,5.3-4c1.8-1.2,3.8-2.4,5.7-3.4c2-1.1,4-2,6-2.8
	s4.1-1.6,6.3-2.2c2.1-0.7,4.3-1.2,6.5-1.6s4.4-0.8,6.6-1s4.4-0.3,6.7-0.3s4.4,0.1,6.7,0.3c2.2,0.2,4.4,0.5,6.6,1
	c2.2,0.4,4.3,1,6.5,1.6s4.2,1.4,6.3,2.2c2,0.8,4.1,1.8,6,2.8c2,1.1,3.9,2.2,5.7,3.4s3.6,2.6,5.3,4s3.4,2.9,4.9,4.5
	c1.6,1.6,3.1,3.2,4.5,4.9c1.4,1.7,2.7,3.5,4,5.3c1.2,1.9,2.4,3.8,3.4,5.7c1,2,2,4,2.8,6s1.6,4.1,2.2,6.3s1.2,4.3,1.6,6.5
	c0.4,2.2,0.8,4.4,1,6.6C731.8,165.3,731.9,167.5,731.9,169.8z"/>
<path class="st8" d="M983.3,169.8c0,2.2-0.1,4.4-0.3,6.6c-0.2,2.2-0.5,4.4-1,6.6c-0.4,2.2-1,4.3-1.6,6.5s-1.4,4.2-2.2,6.3
	s-1.8,4.1-2.8,6c-1,2-2.2,3.9-3.4,5.7s-2.6,3.6-4,5.4s-2.9,3.4-4.5,4.9s-3.2,3.1-4.9,4.5s-3.5,2.7-5.3,4c-1.8,1.2-3.8,2.4-5.7,3.4
	c-2,1.1-4,2-6,2.9s-4.2,1.6-6.3,2.2s-4.3,1.2-6.5,1.6s-4.4,0.8-6.6,1c-2.2,0.2-4.4,0.3-6.7,0.3s-4.5-0.1-6.7-0.3s-4.4-0.5-6.6-1
	c-2.2-0.4-4.3-1-6.5-1.6c-2.1-0.6-4.2-1.4-6.3-2.2s-4.1-1.8-6-2.9c-2-1-3.9-2.2-5.7-3.4s-3.6-2.6-5.3-4s-3.4-2.9-4.9-4.5
	c-1.6-1.6-3.1-3.2-4.5-4.9s-2.7-3.5-4-5.4s-2.4-3.8-3.4-5.7c-1-2-2-4-2.8-6s-1.6-4.1-2.2-6.3c-0.7-2.1-1.2-4.3-1.6-6.5
	c-0.4-2.2-0.8-4.4-1-6.6c-0.2-2.2-0.3-4.4-0.3-6.6s0.1-4.4,0.3-6.7s0.5-4.4,1-6.6c0.4-2.2,1-4.3,1.6-6.5c0.7-2.1,1.4-4.2,2.2-6.3
	s1.8-4.1,2.8-6s2.2-3.9,3.4-5.7c1.2-1.9,2.6-3.6,4-5.3s2.9-3.4,4.5-4.9c1.6-1.6,3.2-3.1,4.9-4.5s3.5-2.7,5.3-4
	c1.8-1.2,3.8-2.4,5.7-3.4c2-1.1,4-2,6-2.8s4.1-1.6,6.3-2.2s4.3-1.2,6.5-1.6s4.4-0.8,6.6-1s4.4-0.3,6.7-0.3s4.4,0.1,6.7,0.3
	c2.2,0.2,4.4,0.5,6.6,1c2.2,0.4,4.3,1,6.5,1.6s4.2,1.4,6.3,2.2c2,0.8,4.1,1.8,6,2.8c2,1.1,3.9,2.2,5.7,3.4c1.8,1.2,3.6,2.6,5.3,4
	s3.4,2.9,4.9,4.5c1.6,1.6,3.1,3.2,4.5,4.9c1.4,1.7,2.7,3.5,4,5.3c1.2,1.9,2.4,3.8,3.4,5.7c1,2,2,4,2.8,6s1.6,4.1,2.2,6.3
	s1.2,4.3,1.6,6.5c0.4,2.2,0.8,4.4,1,6.6C983.2,165.3,983.3,167.5,983.3,169.8z"/>
<g>
	<g>
		<g>
			<defs>
				<rect id="SVGID_00000057833419894447986820000000725411406678280361_" x="142.9" y="274.4" width="22.6" height="23"/>
			</defs>
			<clipPath id="SVGID_00000062888497311472770280000014013835360569593225_">
				<use xlink:href="#SVGID_00000057833419894447986820000000725411406678280361_"  style="overflow:visible;"/>
			</clipPath>
			<g style="clip-path:url(#SVGID_00000062888497311472770280000014013835360569593225_);">
				<path class="st10" d="M154.2,296.8c6.2,0,11.3-5,11.3-11.1s-5.1-11.1-11.3-11.1s-11.3,5-11.3,11.1S148,296.8,154.2,296.8z"/>
			</g>
		</g>
	</g>
</g>
<path class="st8" d="M154.2,291.2c3.1,0,5.7-2.5,5.7-5.6s-2.5-5.6-5.7-5.6s-5.7,2.5-5.7,5.6S151.1,291.2,154.2,291.2z"/>
<path class="st11" d="M154.2,324.7c3.1,0,5.7-2.5,5.7-5.6s-2.5-5.6-5.7-5.6s-5.7,2.5-5.7,5.6S151.1,324.7,154.2,324.7z"/>
<path class="st11" d="M154.2,347c3.1,0,5.7-2.5,5.7-5.6s-2.5-5.6-5.7-5.6s-5.7,2.5-5.7,5.6S151.1,347,154.2,347z"/>
<g>
	<g>
		<g>
			<defs>
				<rect id="SVGID_00000115495796989201720630000017587273933898304162_" x="651.8" y="274.4" width="22.6" height="23"/>
			</defs>
			<clipPath id="SVGID_00000155123822078726975680000010955180641089433257_">
				<use xlink:href="#SVGID_00000115495796989201720630000017587273933898304162_"  style="overflow:visible;"/>
			</clipPath>
			<g style="clip-path:url(#SVGID_00000155123822078726975680000010955180641089433257_);">
				<path class="st10" d="M663.1,296.8c6.2,0,11.3-5,11.3-11.1s-5.1-11.1-11.3-11.1s-11.3,5-11.3,11.1S656.8,296.8,663.1,296.8z"/>
			</g>
		</g>
	</g>
</g>
<path class="st8" d="M663.1,291.2c3.1,0,5.7-2.5,5.7-5.6s-2.5-5.6-5.7-5.6s-5.7,2.5-5.7,5.6S660,291.2,663.1,291.2z"/>
<path class="st11" d="M663.1,324.7c3.1,0,5.7-2.5,5.7-5.6s-2.5-5.6-5.7-5.6s-5.7,2.5-5.7,5.6S660,324.7,663.1,324.7z"/>
<path class="st11" d="M663.1,347c3.1,0,5.7-2.5,5.7-5.6s-2.5-5.6-5.7-5.6s-5.7,2.5-5.7,5.6S660,347,663.1,347z"/>
<g>
	<path class="st3" d="M165.7,148.2h22.5v46.2c-0.3,0-0.6,0-0.8,0c-6.5,0-13,0-19.4,0c-0.5,0-0.8-0.2-1.2-0.6c-0.9-0.9-1-1.9-1-3
		c0-13.9,0-27.7,0-41.5C165.7,148.9,165.7,148.6,165.7,148.2L165.7,148.2z M176.9,159.7c2,0,3.9,0,5.9,0c1.6,0,2-0.4,2-1.9
		c0-0.7,0-1.5,0-2.2c0-1.1-0.5-1.6-1.5-1.6c-4.2,0-8.4,0-12.7,0c-1,0-1.5,0.5-1.5,1.5c0,0.9,0,1.7,0,2.6c0,1.2,0.4,1.7,1.7,1.7
		C172.9,159.7,174.9,159.7,176.9,159.7L176.9,159.7z M169.8,179.8h5.8v-5.3h-5.8V179.8z M169.8,171.8h5.8v-5.4h-5.8V171.8z
		 M175.6,182.4h-5.8v5.4h5.8V182.4z M184.1,171.8v-5.4h-5.8v5.4H184.1z M178.3,174.4v5.4h5.8v-5.4H178.3z M178.3,187.8h5.8v-5.4
		h-5.8V187.8z"/>
	<path class="st3" d="M137,148.1v1c0,14.2,0,28.4,0,42.6c0,1.4-1.2,2.6-2.6,2.6c-6,0-12,0-18,0c-1.6,0-1.9-0.3-1.9-1.9
		c0-14.1,0-28.3,0-42.4c0-1.5,0.3-1.9,1.9-1.9c6.6,0,13.2,0,19.8,0L137,148.1L137,148.1z M125.7,159.7c2.1,0,4.1,0,6.1,0
		c1.3,0,1.7-0.4,1.7-1.7c0-0.9,0-1.7,0-2.6c0-1-0.5-1.5-1.5-1.5c-4.2,0-8.5,0-12.8,0c-1,0-1.4,0.5-1.5,1.5c0,0.9,0,1.7,0,2.6
		c0,1.3,0.4,1.7,1.7,1.7C121.7,159.7,123.7,159.7,125.7,159.7L125.7,159.7z M132.8,174.4H127v5.3h5.8V174.4z M127.1,166.4v5.4h5.8
		v-5.4H127.1z M127,182.4v5.4h5.8v-5.4C132.8,182.4,127.1,182.4,127,182.4z M124.4,171.8v-5.4h-5.8v5.4H124.4z M118.6,179.8h5.8
		v-5.4h-5.8V179.8z M124.4,187.8v-5.4h-5.7v5.4H124.4z"/>
	<path class="st3" d="M163.1,190.1c-1.7-0.9-3.2-1.8-4.8-2.6c3.1-2.6,4.6-6,4.1-10.1s-2.8-7-6.6-9h2.7v-5.9h-5.8v5h-2.6v-5h-5.9v5.9
		h2.6c-7.7,3.7-9,13.9-2.5,19.1c-1.6,0.9-3.1,1.7-4.8,2.6c0-0.2,0-0.4,0-0.6c0-17.1,0-34.1,0-51.2c0-1.4,0.4-1.8,1.8-1.8
		c6.7,0,13.4,0,20.1,0c1.3,0,1.7,0.4,1.7,1.7c0,17.1,0,34.2,0,51.3V190.1L163.1,190.1z M151.4,147.2c1.9,0,3.8,0,5.7,0
		c0.9,0,1.4-0.5,1.4-1.4c0-0.8,0-1.6,0-2.4c0-0.9-0.5-1.4-1.4-1.4c-3.9,0-7.8,0-11.6,0c-0.9,0-1.3,0.5-1.4,1.4c0,0.7,0,1.5,0,2.2
		c0,1.1,0.4,1.6,1.6,1.6C147.6,147.2,149.5,147.2,151.4,147.2z M144.2,154v5.8h5.8V154H144.2z M158.5,154h-5.8v5.8h5.8V154z"/>
	<path class="st3" d="M151.3,204.1c-4.9,0-9.9,0-14.8,0c-1.6,0-2.1-0.6-1.7-2.1c1.7-7.7,8.8-13.2,16.8-13.1
		c8,0.1,14.9,5.8,16.5,13.5c0.2,1.1-0.3,1.7-1.5,1.7C161.4,204.1,156.4,204.1,151.3,204.1L151.3,204.1z"/>
	<path class="st3" d="M151.3,170.1c4.8,0,8.6,3.8,8.6,8.6s-3.8,8.6-8.6,8.7c-4.7,0-8.6-3.9-8.6-8.6
		C142.7,173.9,146.5,170.1,151.3,170.1L151.3,170.1z"/>
	<path class="st3" d="M144.3,133.8c-0.3-2.6,0.1-3.1,2.4-3c1.1,0.1,2.2,0,3.3,0c0-1.1,0-2.1,0-3.1c0-0.9,0.5-1.5,1.2-1.5
		c0.8,0,1.3,0.6,1.3,1.6s0,2,0,3.1c1,0,1.9,0,2.9,0c0.6,0,1.1,0,1.7,0c0.7,0,1.2,0.4,1.3,1.2c0.1,0.6,0,1.2,0,1.8L144.3,133.8
		L144.3,133.8z"/>
</g>
<g>
	<path class="st1" d="M410.9,126.8c0.3,1.1,0.6,2.2,0.9,3.4c0.1,0.5,0.4,0.8,0.9,1c0.8,0.3,1.6,0.6,2.4,1c0.5,0.3,1,0.3,1.5-0.1
		c0.9-0.6,1.9-1.1,2.8-1.7c1.1,1.1,2.2,2.2,3.3,3.4c-0.5,0.9-1.1,1.8-1.7,2.8c-0.3,0.5-0.3,1-0.1,1.5c0.4,0.8,0.7,1.6,1,2.4
		c0.2,0.5,0.5,0.8,1,0.9c1.1,0.2,2.2,0.5,3.3,0.8v4.7c-1.1,0.3-2.2,0.6-3.3,0.8c-0.5,0.1-0.8,0.4-1,0.9c-0.3,0.9-0.8,1.6-1,2.5
		c-0.1,0.4-0.1,1,0.1,1.4c0.5,1,1.1,1.9,1.7,2.9c-1.1,1.1-2.2,2.2-3.3,3.4c-0.3-0.3-0.7-0.5-1-0.9c-1.5-1.8-3.3-3.1-5.5-3.6
		c-0.2-0.1-0.4-0.1-0.6-0.3c-5.3-2.7-11.5-0.9-14.4,4.4c-0.1,0.1-0.1,0.2-0.2,0.3c-1.1-1.1-2.2-2.2-3.3-3.4c0.5-0.8,1-1.7,1.6-2.6
		c0.4-0.5,0.4-1,0.1-1.6c-0.4-0.8-0.6-1.6-1-2.4c-0.2-0.4-0.6-0.8-0.9-0.9c-1-0.3-2-0.5-2.9-0.8c-0.2-0.1-0.5-0.3-0.5-0.5
		c0-1.4,0-2.8,0-4.3c1.1-0.3,2.2-0.6,3.3-0.8c0.6-0.1,0.9-0.4,1.1-1c0.3-0.8,0.6-1.6,1-2.4c0.2-0.5,0.2-1-0.1-1.4
		c-0.6-0.9-1.2-1.9-1.7-2.8c1.1-1.1,2.2-2.2,3.3-3.4c0.9,0.6,1.9,1.1,2.9,1.7c0.5,0.3,0.9,0.3,1.4,0.1c0.8-0.4,1.6-0.7,2.4-1
		c0.6-0.2,0.9-0.5,1-1.1c0.3-1.1,0.5-2.2,0.8-3.3C407.8,126.8,409.4,126.8,410.9,126.8L410.9,126.8z M408.5,151.9
		c4.1,0,7.5-3.3,7.5-7.4c0-4.1-3.3-7.4-7.4-7.5c-4.1,0-7.5,3.3-7.5,7.4C401.1,148.6,404.4,151.9,408.5,151.9L408.5,151.9z"/>
	<path class="st1" d="M448.2,202.4h-22.6c0-0.3,0-0.6,0-0.9c0-2.4,0-4.9,0-7.4c0-2.2,0-4.3-1.3-6.3c0.6-0.4,1.2-0.8,1.8-1
		c1-0.4,2.1-0.9,3.2-1.2c0.2-0.1,0.6,0,0.7,0.2c1.5,2,3,4,4.4,6c0.2,0.2,0.2,0.6,0.2,0.9c0,1.3,0,2.6,0,3.9c0,0.8,0.3,1.2,0.9,1.2
		c0.7-0.1,0.9-0.6,0.9-1.2c0-0.1,0-0.2,0-0.3c-0.4-2.9,0.4-5.4,2.3-7.6c0.8-0.9,1.4-2.1,2.2-3.2c1.7,0.7,3.5,1.3,5.1,2.2
		c1.4,0.7,1.9,2.1,2.3,3.5v11.2L448.2,202.4L448.2,202.4z"/>
	<path class="st1" d="M423.7,206.1h-6.3c0-0.3,0-0.5,0-0.8c0-2.4,0-4.9,0-7.3c0-0.3-0.2-0.7-0.5-0.9c-0.2-0.1-0.7-0.1-0.8,0
		c-0.2,0.2-0.4,0.7-0.4,1c0,2.4,0,4.8,0,7.1c0,0.3,0,0.6,0,0.9h-14.2c0-0.3,0-0.5,0-0.8c0-2.4,0-4.9,0-7.3c0-0.6-0.2-1.1-0.8-1.1
		c-0.7,0-0.9,0.4-0.9,1.1c0,2.5,0,4.9,0,7.4c0,0.2,0,0.4,0,0.6h-6.4c0-0.3,0-0.5,0-0.8c0-4.3,0-8.5,0-12.8c0-3.1,1.5-5.2,4.4-6.3
		c1.3-0.5,2.7-1,4-1.5c0.5-0.2,0.7-0.1,1,0.3c1.5,2.4,3.1,4.7,4.6,7c0.2,0.3,0.3,0.7,0.3,1c0,2.1,0,4.1,0,6.2c0,0.4,0.3,0.9,0.6,1.1
		c0.6,0.3,1.2-0.2,1.2-1.1c0-1.9,0-3.8,0-5.7c0-0.4,0.1-0.9,0.3-1.2c1.3-2.4,2.6-4.8,3.8-7.2c0.2-0.4,0.5-0.6,1-0.4
		c1.6,0.6,3.3,1.1,5,1.7c2.6,0.9,4.2,3.1,4.2,5.8c0,4.5,0,8.9,0,13.4C423.7,205.7,423.7,205.9,423.7,206.1L423.7,206.1z"/>
	<path class="st1" d="M391.6,202.3H369c0-0.3,0-0.5,0-0.8c0-3.2,0-6.3,0-9.5c0-2.6,1.3-4.4,3.7-5.4c0.9-0.4,1.9-0.7,2.8-1.1
		c0.4-0.1,0.6-0.1,0.8,0.2c1.4,2,2.9,3.9,4.3,5.9c0.2,0.2,0.3,0.6,0.3,0.9c0,1.3,0,2.6,0,3.9c0,0.8,0.4,1.2,0.9,1.2
		c0.7-0.1,0.9-0.6,0.9-1.1c0-1.2,0-2.4,0-3.6c0-0.7,0.2-1.3,0.6-1.9c1.3-1.9,2.5-3.8,3.8-5.8c1.7,0.7,3.4,1.4,5.1,2.1
		c0.5,0.2,0.6,0.5,0.3,1c-0.7,1.2-0.9,2.5-0.9,3.8c0,3,0,6,0,9.1C391.6,201.7,391.6,202,391.6,202.3L391.6,202.3z"/>
	<path class="st1" d="M411,161.8c0.6,0.9,1.2,1.8,1.8,2.6c1.4,1.8,3.1,3.2,5.1,4.2c0.6,0.3,0.7,0.6,0.6,1.2
		c-0.6,4.2-3.7,7.8-7.6,8.7c-5.1,1.2-10.3-1.9-11.9-7.1c0-0.1,0-0.2-0.1-0.3c-0.8-1.9-0.1-3.5,1-4.9s2.6-2,4.4-1.8
		C407,164.8,409.2,163.9,411,161.8L411,161.8z"/>
	<path class="st1" d="M423.9,168.2c-0.7-6.3,2.6-9.5,6-11c2.9-1.3,5.9-1.2,8.7,0.4c0.3,0.2,0.7,0.3,1,0.4c4,1.1,6.8,4.6,6.9,8.7
		c0,1.6,0,3.1,0,4.9c-0.5-0.5-1-0.9-1.4-1.3c-2.7-2.8-5.4-5.6-8-8.5c-0.8-0.9-1.2-0.9-2,0.1C432.2,165.6,428.5,167.6,423.9,168.2
		L423.9,168.2z"/>
	<path class="st1" d="M392.8,171.7c-0.5-0.5-1-0.9-1.4-1.3c-2.6-2.8-5.3-5.5-7.9-8.3c-1-1-1.3-1.1-2.2,0.1c-2.7,3.4-6.2,5.3-10.4,6
		c-0.2,0-0.4,0-0.7,0.1c-0.3-2.8,0.1-5.4,1.8-7.7c2.9-3.8,8.5-5.5,12.9-2.8c0.3,0.2,0.6,0.3,0.9,0.3c4,1.1,6.8,4.5,6.9,8.6
		C392.8,168.3,392.8,169.9,392.8,171.7L392.8,171.7z"/>
	<path class="st1" d="M428.6,171.8c0-0.2,0-0.4,0-0.6c0.1-1.5,0.4-2.6,2.1-3.3c1.9-0.7,3.4-2.1,4.7-3.5c0.6-0.6,0.9-0.6,1.5,0
		c1.4,1.5,2.9,3.1,4.4,4.6c0.6,0.6,1,1.3,1,2.2c0.1,2.3-0.5,4.4-2.1,6.2c-2.8,3.2-7.4,2.9-10-0.5
		C429.1,175.5,428.6,173.7,428.6,171.8L428.6,171.8z"/>
	<path class="st1" d="M388.7,171.8c-0.2,2.1-0.8,4-2.2,5.6c-2.8,3.2-7.3,3.1-9.9-0.2c-1.8-2.4-2.2-5-1.4-7.9
		c0.1-0.3,0.4-0.6,0.6-0.8c2.2-1,4.2-2.4,5.9-4.2c0.5-0.5,0.9-0.5,1.4,0c1.6,1.8,3.3,3.4,4.9,5.3C388.5,170.1,388.5,171,388.7,171.8
		L388.7,171.8z"/>
	<path class="st1" d="M418.6,167.1c-0.9-0.6-1.6-1-2.3-1.6c-1.8-1.4-3.2-3.2-4.1-5.3c-0.5-1.2-1.1-1.3-2-0.3
		c-0.9,1.1-1.8,2.3-3.2,2.6c-0.6,0.2-1.3,0.3-2,0.2c-2.5-0.4-4.7,0.4-6.5,2.4c-0.3-2.9,0.2-5.5,2.1-7.7c2.8-3.1,7.1-3.8,10.7-1.9
		c0.3,0.2,0.7,0.3,1.1,0.4c3.6,0.9,6.1,4,6.1,7.7C418.7,164.7,418.6,165.8,418.6,167.1L418.6,167.1z"/>
	<path class="st1" d="M408.6,190.7c-0.9-1.4-1.7-2.6-2.6-3.9c-0.4-0.6-0.7-1.2-1.2-1.7c-1.5-1.6-1.4-3.6-1.2-5.6
		c2.9,1.3,5.9,1.4,9,0.4c0,1.7,0.2,3.3-0.7,4.8C410.7,186.5,409.7,188.6,408.6,190.7L408.6,190.7z"/>
	<path class="st1" d="M377.1,180.1c2.8,1.7,5.5,1.9,8.4,0.5c0,1.3,0,2.6,0,3.8c0,0.1-0.1,0.2-0.1,0.3c-1.2,1.9-2.4,3.7-3.7,5.6
		c-1.5-2.1-3-4-4.4-6c-0.1-0.1-0.2-0.4-0.2-0.6C377.1,182.5,377.1,181.4,377.1,180.1L377.1,180.1z"/>
	<path class="st1" d="M439.2,180.6c0,1.3,0,2.5,0,3.7c0,0.1,0,0.3-0.1,0.4c-1.2,1.9-2.4,3.7-3.7,5.7c-1.5-2.1-3-4.1-4.4-6.1
		c-0.1-0.1-0.1-0.2-0.1-0.4c0-1.2,0-2.5,0-3.8C433.6,181.8,436.4,181.9,439.2,180.6L439.2,180.6z"/>
	<path class="st1" d="M375.5,180.5c-2.5,0.1-4.8-1.9-5.2-4.3c-0.1-0.4-0.1-0.7-0.1-1.1c0-1.6,0-3.3,0-5c1-0.2,2-0.4,3.1-0.6
		c0,0.3,0,0.5-0.1,0.8c-0.4,2.8,0.2,5.4,1.8,7.8C375.4,178.6,375.4,179.6,375.5,180.5L375.5,180.5z"/>
	<path class="st1" d="M429,180.5c-2.1,0.2-4.5-1.7-4.9-4c-0.2-0.9-0.2-1.8-0.2-2.7c0-1.2,0-2.5,0-3.7c1-0.2,2-0.4,3.1-0.6
		c0,0.2,0,0.4,0,0.6c-0.4,2.6,0,5.2,1.5,7.4C429.1,178.5,429,179.4,429,180.5L429,180.5z"/>
	<path class="st1" d="M390.3,171.8c0.9,0.8,1.6,1.4,2.3,2.1c0.1,0.1,0.1,0.2,0.2,0.3c0.7,3-2.2,6.4-5.2,6.3c0,0-0.1,0-0.2-0.1
		c-0.1-0.7-0.1-1.3,0.5-1.9C389.5,176.7,390.3,174.5,390.3,171.8L390.3,171.8z"/>
	<path class="st1" d="M441.1,180.5c-0.2-0.8,0-1.4,0.6-2.1c1.5-1.6,2.2-3.7,2.4-5.8c0-0.2,0-0.4,0-0.8c0.8,0.8,1.5,1.4,2.3,2.1
		c0.1,0.1,0.1,0.2,0.1,0.3C447.3,177.1,444.2,180.8,441.1,180.5L441.1,180.5z"/>
	<path class="st1" d="M408.6,138.9c3.1,0,5.7,2.6,5.6,5.7c0,3.1-2.6,5.6-5.7,5.6s-5.7-2.6-5.6-5.7
		C402.9,141.3,405.5,138.9,408.6,138.9z"/>
</g>
<g>
	<path class="st7" d="M676.3,142.1v39.5h-7.4c0-0.3,0-0.6,0-1c0-3.4,0-6.8,0-10.2c0-1.6-0.4-2-2-2c-3.8,0-7.5,0-11.2,0
		c-1.5,0-1.9,0.4-1.9,1.9c0,3.4,0,6.8,0,10.2c0,0.3,0,0.6,0,1h-7.4V142L676.3,142.1L676.3,142.1z M654.9,149.4c0-0.5,0-1,0-1.6
		s-0.3-0.8-0.8-0.8c-1,0-2,0-3,0c-0.5,0-0.8,0.2-0.8,0.8c0,0.5,0,1,0,1.6c0,2.7-0.4,2.3,2.4,2.3
		C654.9,151.7,654.9,151.7,654.9,149.4L654.9,149.4z M667.7,149.3c0,0.5,0,1,0,1.6s0.2,0.8,0.8,0.8c1,0,2.1,0,3.1,0
		c0.6,0,0.8-0.3,0.8-0.8c0-1,0-2,0-3c0-0.6-0.3-0.9-0.8-0.8c-1,0-2,0-3,0c-0.6,0-0.8,0.3-0.8,0.9
		C667.8,148.3,667.7,148.8,667.7,149.3L667.7,149.3z M659,149.3c0,0.5,0,1,0,1.6s0.2,0.8,0.8,0.8c1.1,0,2.1,0,3.2,0
		c0.5,0,0.7-0.2,0.7-0.7c0-0.6,0-1.1,0-1.6c0-2.6,0.4-2.3-2.4-2.3C658.6,147,659,146.7,659,149.3L659,149.3z M652.6,156.8
		c-0.6,0-1.2-0.1-1.7,0c-0.2,0-0.6,0.4-0.6,0.6c-0.1,1.1-0.1,2.2,0,3.3c0,0.3,0.4,0.7,0.7,0.7c1.1,0.1,2.2,0,3.3,0
		c0.5,0,0.7-0.2,0.7-0.7c0-0.6,0-1.1,0-1.6C654.9,157.6,654.1,156.8,652.6,156.8L652.6,156.8z M661.3,161.5c0.5,0,1.1,0,1.7,0
		c0.5,0,0.8-0.2,0.7-0.8c0-1.1,0-2.1,0-3.2c0-0.5-0.3-0.7-0.8-0.7c-1,0-2.1,0-3.1,0c-0.5,0-0.8,0.2-0.8,0.8s0,1.1,0,1.6
		C659,161.8,658.6,161.4,661.3,161.5L661.3,161.5z M670,161.5c0.5,0,1,0,1.6,0s0.8-0.2,0.8-0.8c0-1.1,0-2.1,0-3.2
		c0-0.5-0.2-0.7-0.7-0.7c-1.1,0-2.2,0-3.3,0c-0.5,0-0.7,0.2-0.7,0.7c0,0.6,0,1.1,0,1.6C667.7,160.7,668.5,161.5,670,161.5L670,161.5
		z"/>
	<path class="st7" d="M643.6,155.4v26.2c-0.3,0-0.6,0-0.8,0c-4.1,0-8.2,0-12.3,0c-1.4,0-1.8-0.4-1.8-1.8c0-7.6,0-15.1,0-22.7
		c0-1.4,0.4-1.8,1.7-1.8c4.1,0,8.3,0,12.4,0C643,155.3,643.2,155.3,643.6,155.4L643.6,155.4z M636.2,171c-0.5,0-1.1,0-1.7,0
		c-0.5,0-0.7,0.2-0.7,0.7c0,1.1,0,2.2,0,3.3c0,0.5,0.3,0.7,0.8,0.7c1,0,2.1,0,3.1,0c0.6,0,0.8-0.3,0.8-0.8s0-1,0-1.6
		C638.4,170.6,638.8,171.1,636.2,171L636.2,171z M633.8,163.5c0,0.6,0,1.1,0,1.6s0.2,0.8,0.8,0.8c1.1,0,2.1,0,3.2,0
		c0.3,0,0.7-0.4,0.7-0.7c0.1-1.1,0-2.2,0-3.3c0-0.5-0.2-0.7-0.7-0.7s-1.1,0-1.7,0C634.6,161.2,633.8,162,633.8,163.5L633.8,163.5z"
		/>
	<path class="st7" d="M679.1,155.3c0.3,0,0.6,0,0.9,0c4,0,8,0,12.1,0c1.6,0,1.9,0.3,1.9,2c0,7.5,0,15,0,22.4c0,1.6-0.3,1.9-2,1.9
		c-4,0-8,0-12.1,0H679L679.1,155.3L679.1,155.3z M688.8,173.4c0-0.6,0-1.1,0-1.6s-0.2-0.7-0.7-0.7c-1.1,0-2.2,0-3.3,0
		c-0.5,0-0.7,0.3-0.7,0.7c0,1.1,0,2.1,0,3.2c0,0.5,0.2,0.8,0.8,0.7c1.1,0,2.1,0,3.2,0c0.5,0,0.7-0.3,0.7-0.8
		C688.8,174.4,688.8,173.9,688.8,173.4L688.8,173.4z M686.5,161.2c-2.4,0-2.4,0-2.4,2.4c0,2.6-0.3,2.3,2.3,2.3c2.4,0,2.4,0,2.4-2.4
		S688.8,161.2,686.5,161.2L686.5,161.2z"/>
	<path class="st7" d="M661.4,134.6c5,0,9.9,0,14.9,0c2,0,3.2,1.8,2.3,3.4c-0.5,0.9-1.3,1.3-2.4,1.3c-4.4,0-8.9,0-13.3,0
		c-5.5,0-11,0-16.5,0c-1.9,0-3.2-1.7-2.4-3.3c0.5-1,1.3-1.4,2.4-1.4C651.4,134.6,656.4,134.6,661.4,134.6L661.4,134.6z"/>
	<path class="st7" d="M631.2,203.4c-2.5,0-5.1,0-7.6,0c-1.3,0-1.6-0.4-1.3-1.6c0.7-4.2,4.5-7.5,8.9-7.5s8.3,3.2,9.1,7.4
		c0.2,1.3-0.1,1.7-1.4,1.7C636.3,203.4,633.8,203.4,631.2,203.4L631.2,203.4z"/>
	<path class="st7" d="M651.3,203.4c-2.6,0-5.1,0-7.7,0c-1.2,0-1.5-0.4-1.3-1.6c0.7-4.2,4.6-7.5,9-7.6c4.4,0,8.3,3.2,9.1,7.4
		c0.2,1.3-0.1,1.7-1.5,1.7C656.3,203.4,653.8,203.4,651.3,203.4L651.3,203.4z"/>
	<path class="st7" d="M671.3,203.4c-2.5,0-5,0-7.4,0c-1.5,0-1.8-0.4-1.5-1.8c0.8-4,4.5-7.1,8.6-7.3c4.2-0.1,8.1,2.6,9.2,6.7
		c0.6,2.1,0.4,2.5-1.9,2.5C675.9,203.4,673.6,203.5,671.3,203.4L671.3,203.4z"/>
	<path class="st7" d="M691.4,203.4c-2.5,0-5.1,0-7.6,0c-1.4,0-1.7-0.4-1.5-1.7c0.8-4.3,4.8-7.6,9.3-7.4c4.4,0.1,8.2,3.6,8.8,7.9
		c0.1,0.8-0.3,1.2-1.2,1.2C696.6,203.5,694,203.5,691.4,203.4L691.4,203.4z"/>
	<path class="st7" d="M636.2,188.2c0,2.7-2.2,4.9-4.9,4.9s-4.9-2.2-4.9-4.9s2.2-4.9,4.9-4.9S636.2,185.5,636.2,188.2L636.2,188.2z"
		/>
	<path class="st7" d="M686.4,188.2c0-2.7,2.2-4.9,5-4.9c2.7,0,4.9,2.2,4.9,4.9s-2.3,4.9-5,4.9C688.6,193.1,686.4,190.9,686.4,188.2z
		"/>
	<path class="st7" d="M656.2,188.2c0,2.7-2.2,4.9-4.9,4.9s-4.9-2.2-4.9-4.9s2.2-4.9,4.9-4.9S656.2,185.5,656.2,188.2L656.2,188.2z"
		/>
	<path class="st7" d="M676.2,188.3c-0.1,2.7-2.3,4.9-5,4.8c-2.8-0.1-4.9-2.4-4.8-5.1c0.1-2.7,2.3-4.8,5.1-4.7
		C674.2,183.4,676.3,185.6,676.2,188.3L676.2,188.3z"/>
	<path class="st7" d="M671.5,129.8h-5.8v-6.3h5.9c-0.5,0.9-1,1.8-1.5,2.6c-0.2,0.4-0.2,0.7,0,1.1C670.5,128,671,128.8,671.5,129.8
		L671.5,129.8z"/>
	<path class="st7" d="M662.8,131.9h-3c0-0.2-0.1-0.4-0.1-0.6c0-2.6,0-5.1,0-7.7c0-0.2,0-0.4,0.1-0.7c0.2-0.8,0.7-1.2,1.5-1.2
		s1.4,0.4,1.5,1.2c0.1,0.4,0.1,0.8,0.1,1.2c0,2.3,0,4.5,0,6.8C662.9,131.3,662.9,131.6,662.8,131.9L662.8,131.9z"/>
</g>
<g>
	<path class="st5" d="M962.1,171.4c-1.1,2.4-2.1,4.7-3.2,7c-0.2,0.4-0.3,0.8-0.5,1.1c-0.5,1.1-1.4,1.6-2.7,1.6c-10.5,0-21,0-31.6,0
		c-16.4,0-32.7,0-49.1,0c-2.8,0-4.2-1.4-4.2-4.2c0-1.8,0-3.6,0-5.4c0-1.1,0.4-1.4,1.5-1.4c6.9,0,13.8,0,20.7,0
		c0.7,0,1.2,0.2,1.6,0.8c0.6,0.9,1.4,1.2,2.5,1.2c13,0,26.1,0,39.1,0c0.9,0,1.6-0.1,2-0.9c0.5-0.9,1.3-1.1,2.3-1
		c6.7,0,13.4,0,20.2,0c0.7,0,1.3,0.2,1.5,0.9L962.1,171.4L962.1,171.4z"/>
	<path class="st5" d="M953.7,196.7c0,0.5,0.1,1.1,0,1.6c0,0.2-0.3,0.5-0.7,0.6c-5.3,1-10.8,1.7-16.5,1.2c-1.8-0.2-3.4-0.5-4.7-1.1
		c-2.6-1.3-5.8-1.6-9.2-1.1c-1.9,0.2-3.8,0.6-5.5,1.1c-3.2,0.8-6.5,1.4-10.1,1.4c-2.4,0-4.7-0.4-6.5-1.2c-2.4-1.2-5.3-1.5-8.5-1.4
		c-3.8,0.1-7.3,0.5-10.8,1.2c-1.5,0.3-2,0.1-2-0.7c0-1,0.1-2,0.2-2.9c0-0.4,0.4-0.6,1.2-0.8c4.1-0.7,8.3-1.2,12.7-1.2
		c3.2,0,6.2,0.5,8.6,1.6c2.4,1.1,5.3,1.2,8.3,0.8c2-0.2,3.9-0.6,5.8-1.1c3.1-0.7,6.2-1.4,9.8-1.4c2.7,0,5.1,0.4,7,1.4
		c1.6,0.8,3.5,1.1,5.7,1.2c4.6,0.2,9-0.4,13.2-1.1c0.2,0,0.4-0.1,0.6-0.1c0.9-0.1,1.4,0.1,1.4,0.5
		C953.7,195.6,953.7,196.1,953.7,196.7L953.7,196.7L953.7,196.7z"/>
	<path class="st5" d="M953.7,189c0,0.5,0.1,1.1,0,1.6c0,0.2-0.3,0.5-0.7,0.6c-5.3,1-10.8,1.7-16.5,1.2c-1.8-0.2-3.4-0.5-4.7-1.1
		c-2.6-1.3-5.8-1.6-9.2-1.1c-1.9,0.2-3.8,0.6-5.5,1.1c-3.2,0.8-6.5,1.4-10.1,1.4c-2.4,0-4.7-0.4-6.5-1.2c-2.4-1.2-5.3-1.5-8.5-1.4
		c-3.8,0.1-7.3,0.5-10.8,1.2c-1.5,0.3-2,0.1-2-0.7c0-1,0.1-2,0.2-2.9c0-0.4,0.4-0.6,1.2-0.8c4.1-0.7,8.3-1.2,12.7-1.2
		c3.2,0,6.2,0.5,8.6,1.6c2.4,1.1,5.3,1.2,8.3,0.8c2-0.2,3.9-0.6,5.8-1.1c3.1-0.7,6.2-1.4,9.8-1.4c2.7,0,5.1,0.4,7,1.4
		c1.6,0.8,3.5,1.1,5.7,1.2c4.6,0.2,9-0.4,13.2-1.1c0.2,0,0.4-0.1,0.6-0.1c0.9-0.1,1.4,0.1,1.4,0.5S953.7,188.4,953.7,189L953.7,189
		L953.7,189z"/>
	<path class="st5" d="M891.8,168h-18.3c0-0.9-0.1-1.8,0-2.6c0.1-0.6,0.7-0.8,1.2-0.8c1.9,0,3.8,0,5.7,0c0.3,0,0.6,0,1.1,0
		c0-0.4,0-0.7,0-1c0-3.1,0-6.1,0-9.2c0-1.3,0.3-1.6,1.6-1.6c2.4,0,4.8,0,7.2,0c1.1,0,1.4,0.4,1.4,1.4c0,4.5,0,8.9,0,13.4
		C891.8,167.6,891.8,167.7,891.8,168L891.8,168z M886.6,161.2L886.6,161.2c0.2,0,0.4,0,0.6,0c0.7,0,1.1-0.4,1.1-1s-0.4-1-1-1.1
		c-0.5,0-1-0.1-1.4,0c-0.4,0.2-0.8,0.6-0.9,1c-0.1,0.6,0.3,1,0.9,1.1C886.2,161.2,886.4,161.2,886.6,161.2L886.6,161.2z
		 M886.6,162.5c-0.2,0-0.3,0-0.5,0c-0.7,0-1.1,0.4-1.1,1.1c0,0.7,0.5,1,1.2,1.1c0.3,0,0.7,0,1.1,0c0.7,0,1.2-0.4,1.1-1.1
		c0-0.7-0.5-1-1.2-1.1C887,162.5,886.8,162.5,886.6,162.5L886.6,162.5z M886.6,157.9L886.6,157.9c0.2,0,0.4,0,0.6,0
		c0.7,0,1.1-0.4,1.1-1s-0.4-1-1-1.1c-0.5,0-1-0.1-1.4,0c-0.6,0.1-1,0.5-0.9,1.1c0.1,0.4,0.6,0.7,0.9,1
		C886.1,158,886.4,157.9,886.6,157.9L886.6,157.9z"/>
	<path class="st5" d="M910,148.9v7.6h-12.7c0-0.8,0-1.7,0-2.5c0-1.3,0-2.6,0-3.9c0-0.7,0.3-1.2,1.1-1.2c3.8,0,7.6,0,11.4,0
		C909.9,148.8,909.9,148.8,910,148.9L910,148.9z"/>
	<path class="st5" d="M935.5,156.4h-12.7v-7.7c0.3,0,0.5,0,0.8,0c3.5,0,6.9,0,10.3,0c1.2,0,1.5,0.3,1.5,1.5
		C935.5,152.3,935.5,154.3,935.5,156.4L935.5,156.4z"/>
	<path class="st5" d="M935.5,147.2h-12.7v-7.7c0.3,0,0.5,0,0.8,0c3.5,0,6.9,0,10.3,0c1.2,0,1.5,0.3,1.5,1.5
		C935.5,143.1,935.5,145.1,935.5,147.2L935.5,147.2z"/>
	<path class="st5" d="M897.4,158.6H910v5.7h-12.7v-5.7H897.4z"/>
	<path class="st5" d="M922.8,164.3v-5.7h12.7v5.7H922.8z"/>
	<path class="st5" d="M920.6,156.4h-8.3v-7.7h8.3V156.4z"/>
	<path class="st5" d="M920.6,147.2h-8.3v-7.7h8.3V147.2z"/>
	<path class="st5" d="M920.6,138.1h-8.3v-7.7h8.3V138.1z"/>
	<path class="st5" d="M910,147.2h-8.3v-7.7h8.3V147.2z"/>
	<path class="st5" d="M920.5,164.3h-8.3v-5.7h8.3V164.3z"/>
	<path class="st5" d="M897.3,169.9v-3.3H910v3.3H897.3z"/>
	<path class="st5" d="M935.5,169.9h-12.6v-3.3h12.6V169.9z"/>
	<path class="st5" d="M920.5,169.9h-8.3v-3.3h8.3V169.9z"/>
</g>
<g>
	<path class="st10" d="M102.9,384.7h-9.7l-1.6,4.6H85l9.4-26h7.3l9.4,26h-6.7L102.9,384.7L102.9,384.7z M98.1,370.3l-3.2,9.5h6.4
		L98.1,370.3z"/>
	<path class="st10" d="M121.8,368.3c3,0,5.2,1.4,6.4,3.2v-2.9h6.3v20.6c0,5.5-3.2,10.2-10.3,10.2c-6.1,0-10.1-3.1-10.7-8h6.2
		c0.4,1.5,2,2.5,4.1,2.5c2.4,0,4.3-1.3,4.3-4.7v-2.9c-1.2,1.8-3.3,3.3-6.4,3.3c-5.1,0-9.1-4.1-9.1-10.7S116.8,368.3,121.8,368.3
		L121.8,368.3z M123.7,373.8c-2.4,0-4.5,1.8-4.5,5.1s2.2,5.1,4.5,5.1s4.5-1.8,4.5-5.1S126.1,373.8,123.7,373.8L123.7,373.8z"/>
	<path class="st10" d="M148.3,389.5c-6.1,0-10.4-4.1-10.4-10.6s4.3-10.6,10.4-10.6s10.3,4,10.3,10.3c0,0.6,0,1.2-0.1,1.9h-14.3
		c0.2,2.7,1.9,4,3.9,4c1.8,0,2.8-0.9,3.3-2h6.7C157.1,386.4,153.4,389.6,148.3,389.5L148.3,389.5z M144.2,376.9h7.9
		c0-2.3-1.8-3.5-3.9-3.5S144.6,374.6,144.2,376.9z"/>
	<path class="st10" d="M176.2,378c0-2.8-1.6-4.4-4-4.4s-4,1.5-4,4.4v11.2h-6.3v-20.6h6.3v2.7c1.3-1.7,3.5-3,6.2-3c4.8,0,8,3.3,8,8.8
		v12.1h-6.3V378H176.2z"/>
	<path class="st10" d="M196,368.3c5.2,0,8.8,2.9,9.9,7.8h-6.7c-0.5-1.4-1.6-2.4-3.3-2.4c-2.3,0-3.8,1.8-3.8,5.2s1.6,5.2,3.8,5.2
		c1.7,0,2.7-0.9,3.3-2.4h6.7c-1.1,4.8-4.7,7.8-9.9,7.8c-6.1,0-10.4-4.1-10.4-10.6S189.9,368.3,196,368.3z"/>
	<path class="st10" d="M223.5,368.6h6.9l-12.9,30.5h-6.8l4.7-10.5l-8.4-19.9h7.1l4.8,12.9L223.5,368.6L223.5,368.6z"/>
</g>
<g>
	<g>
		<g>
			<defs>
				<rect id="SVGID_00000127020251034353438960000013284162879622715045_" x="395.1" y="274.4" width="22.6" height="23"/>
			</defs>
			<clipPath id="SVGID_00000019653760225759076220000010060119984326611845_">
				<use xlink:href="#SVGID_00000127020251034353438960000013284162879622715045_"  style="overflow:visible;"/>
			</clipPath>
			<g style="clip-path:url(#SVGID_00000019653760225759076220000010060119984326611845_);">
				<path class="st10" d="M406.4,296.8c6.2,0,11.3-5,11.3-11.1s-5.1-11.1-11.3-11.1s-11.3,5-11.3,11.1S400.1,296.8,406.4,296.8z"/>
			</g>
		</g>
	</g>
</g>
<path class="st8" d="M406.4,291.2c3.1,0,5.7-2.5,5.7-5.6s-2.5-5.6-5.7-5.6s-5.7,2.5-5.7,5.6S403.2,291.2,406.4,291.2z"/>
<path class="st11" d="M406.4,324.7c3.1,0,5.7-2.5,5.7-5.6s-2.5-5.6-5.7-5.6s-5.7,2.5-5.7,5.6S403.2,324.7,406.4,324.7z"/>
<path class="st11" d="M406.4,347c3.1,0,5.7-2.5,5.7-5.6s-2.5-5.6-5.7-5.6s-5.7,2.5-5.7,5.6S403.2,347,406.4,347z"/>
<g class="st14">
	<path class="st10" d="M616.6,389.3h-12.1v-26h11.7c5.3,0,8.4,2.6,8.4,6.7c0,3.1-1.9,5.2-4.4,5.9c3,0.6,5,3.3,5,6.3
		C625.2,386.5,622.1,389.3,616.6,389.3z M615,368.4h-4.1v5.4h4.1c2.1,0,3.2-0.9,3.2-2.7C618.2,369.3,617,368.4,615,368.4z
		 M615.4,378.4h-4.6v5.7h4.7c2.1,0,3.3-1,3.3-2.8C618.8,379.5,617.5,378.4,615.4,378.4z"/>
	<path class="st10" d="M635.2,389.3h-6.3v-20.6h6.3v3.4c1.4-2.2,3.7-3.7,6.5-3.7v6.7H640c-3,0-4.7,1-4.7,4.6L635.2,389.3
		L635.2,389.3z"/>
	<path class="st10" d="M654.1,389.6c-6.1,0-10.7-4.1-10.7-10.6s4.7-10.6,10.7-10.6c6.1,0,10.7,4.1,10.7,10.6
		C664.9,385.5,660.2,389.6,654.1,389.6z M654.1,384.1c2.3,0,4.4-1.7,4.4-5.1c0-3.5-2.1-5.1-4.3-5.1c-2.3,0-4.3,1.6-4.3,5.1
		C649.9,382.4,651.8,384.1,654.1,384.1z"/>
	<path class="st10" d="M668.3,361.9h6.3V377l6.3-8.4h7.8l-8.6,10.4l8.7,10.3H681l-6.3-8.7v8.7h-6.3v-27.4H668.3z"/>
	<path class="st10" d="M700.3,389.6c-6.1,0-10.4-4.1-10.4-10.6s4.3-10.6,10.4-10.6c6,0,10.3,4,10.3,10.3c0,0.6,0,1.2-0.1,1.8h-14.3
		c0.2,2.7,1.9,4,3.9,4c1.8,0,2.8-0.9,3.3-2h6.7C709.1,386.4,705.5,389.6,700.3,389.6z M696.2,376.9h7.9c0-2.3-1.8-3.6-3.9-3.6
		C698.2,373.4,696.6,374.6,696.2,376.9z"/>
	<path class="st10" d="M720.3,389.3H714v-20.6h6.3v3.4c1.4-2.2,3.7-3.7,6.5-3.7v6.7H725c-3,0-4.7,1-4.7,4.6V389.3z"/>
</g>
<g>
	<g>
		<g>
			<defs>
				<rect id="SVGID_00000073697937427758733100000003344147756562317194_" x="909.1" y="274.4" width="22.6" height="23"/>
			</defs>
			<clipPath id="SVGID_00000083047651531315377640000018100825077876510343_">
				<use xlink:href="#SVGID_00000073697937427758733100000003344147756562317194_"  style="overflow:visible;"/>
			</clipPath>
			<g style="clip-path:url(#SVGID_00000083047651531315377640000018100825077876510343_);">
				<path class="st10" d="M920.4,296.8c6.2,0,11.3-5,11.3-11.1s-5.1-11.1-11.3-11.1s-11.3,5-11.3,11.1S914.2,296.8,920.4,296.8z"/>
			</g>
		</g>
	</g>
</g>
<path class="st8" d="M920.4,291.2c3.1,0,5.7-2.5,5.7-5.6s-2.5-5.6-5.7-5.6s-5.7,2.5-5.7,5.6S917.3,291.2,920.4,291.2z"/>
<path class="st11" d="M920.4,324.7c3.1,0,5.7-2.5,5.7-5.6s-2.5-5.6-5.7-5.6s-5.7,2.5-5.7,5.6S917.3,324.7,920.4,324.7z"/>
<path class="st11" d="M920.4,347c3.1,0,5.7-2.5,5.7-5.6s-2.5-5.6-5.7-5.6s-5.7,2.5-5.7,5.6S917.3,347,920.4,347z"/>
<g class="st14">
	<path class="st10" d="M867.8,363c6.2,0,10.8,3.5,12.3,9.1h-7c-1.1-2.2-3-3.3-5.4-3.3c-3.9,0-6.5,2.9-6.5,7.5s2.7,7.5,6.5,7.5
		c2.4,0,4.4-1.1,5.4-3.3h7c-1.5,5.6-6.1,9.1-12.3,9.1c-7.7,0-13.1-5.4-13.1-13.2C854.7,368.5,860.1,363,867.8,363z"/>
	<path class="st10" d="M891.9,368.3c3.1,0,5.3,1.4,6.4,3.2v-2.9h6.3v20.6h-6.3v-2.9c-1.1,1.8-3.3,3.2-6.4,3.2c-5,0-9.1-4.1-9.1-10.7
		C882.8,372.4,886.8,368.3,891.9,368.3z M893.7,373.8c-2.4,0-4.5,1.8-4.5,5.1c0,3.3,2.1,5.1,4.5,5.1s4.5-1.8,4.5-5.1
		C898.2,375.6,896.1,373.8,893.7,373.8z"/>
	<path class="st10" d="M915.5,389.3h-6.3v-20.6h6.3v3.4c1.4-2.2,3.7-3.7,6.5-3.7v6.7h-1.7c-3,0-4.7,1-4.7,4.6L915.5,389.3
		L915.5,389.3z"/>
	<path class="st10" d="M931.3,389.3H925v-20.6h6.3v3.4c1.4-2.2,3.7-3.7,6.5-3.7v6.7H936c-3,0-4.7,1-4.7,4.6V389.3z"/>
	<path class="st10" d="M940.2,363.1c0-1.9,1.5-3.4,3.8-3.4c2.2,0,3.7,1.5,3.7,3.4s-1.5,3.4-3.7,3.4
		C941.7,366.5,940.2,364.9,940.2,363.1z M940.8,368.6h6.3v20.6h-6.3V368.6z"/>
	<path class="st10" d="M960.9,389.6c-6.1,0-10.4-4.1-10.4-10.6s4.3-10.6,10.4-10.6c6,0,10.3,4,10.3,10.3c0,0.6,0,1.2-0.1,1.8h-14.3
		c0.2,2.7,1.9,4,3.9,4c1.8,0,2.8-0.9,3.3-2h6.7C969.7,386.4,966,389.6,960.9,389.6z M956.8,376.9h7.9c0-2.3-1.8-3.6-3.9-3.6
		C958.7,373.4,957.2,374.6,956.8,376.9z"/>
	<path class="st10" d="M980.8,389.3h-6.3v-20.6h6.3v3.4c1.4-2.2,3.7-3.7,6.5-3.7v6.7h-1.7c-3,0-4.7,1-4.7,4.6L980.8,389.3
		L980.8,389.3z"/>
</g>
<g>
	<path class="st10" d="M365.2,364.3h7.3l7.1,17.5l7-17.5h7.2v25.3h-6.2v-15.2l-5.7,15.2h-5l-5.7-15.2v15.2h-6.2V364.3z"/>
	<path class="st10" d="M421.9,372.3h-6.8c-0.9-1.7-2.7-2.6-5-2.6c-4,0-6.6,2.8-6.6,7.2c0,4.7,2.7,7.4,7.1,7.4c3.1,0,5.2-1.6,6.1-4.5
		h-7.8v-4.5h13.4v5.7c-1.3,4.4-5.5,8.7-12.2,8.7c-7.6,0-12.9-5.3-12.9-12.8c0-7.6,5.3-12.9,12.9-12.9
		C416.1,364,420.5,367.1,421.9,372.3z"/>
	<path class="st10" d="M441.4,385.1H432l-1.5,4.5h-6.4l9.1-25.3h7.1l9.1,25.3H443L441.4,385.1z M436.7,371.1l-3.1,9.3h6.2
		L436.7,371.1z"/>
</g>
</svg>
