<?xml version="1.0" encoding="UTF-8"?>
<svg id="Layer_1" data-name="Layer 1" xmlns="http://www.w3.org/2000/svg" viewBox="0 0 500 500">
  <defs>
    <style>
      .cls-1 {
        fill: #fff;
      }

      .cls-2 {
        fill: #242424;
      }
    </style>
  </defs>
  <circle class="cls-2" cx="246.91" cy="249.48" r="227.15"/>
  <g>
    <path class="cls-1" d="m262.23,119.64c2.73.57,5.5,1.01,8.18,1.75,31.89,8.68,47.1,44.18,31,73.27-4.23,7.64-10.33,14.24-15.25,21.53-2.46,3.65-5.33,4.78-9.7,4.68-14.03-.32-28.06-.14-42.1-.08-1.52,0-2.47-.41-3.39-1.65-5.28-7.15-11.19-13.89-15.9-21.39-12.49-19.89-10.76-43.24,4.08-60.51,8.38-9.75,19.06-15.45,31.84-17.15.54-.07,1.07-.28,1.6-.43,3.21,0,6.42,0,9.63,0Zm4.2,45.53c-2.9,3-5.89,6.08-9.17,9.46-3.11-3.36-5.99-6.46-8.74-9.42-3.59,3.62-6.9,6.96-10.36,10.45,2.57,2.56,5.16,5.54,8.17,8.03,3.14,2.6,4.24,5.58,3.93,9.58-.33,4.27-.07,8.59-.07,12.83h14.45c0-5.49.08-10.78-.04-16.07-.04-1.76.49-2.98,1.76-4.18,3.58-3.41,7.03-6.95,10.43-10.34-3.5-3.5-6.78-6.79-10.33-10.34Z"/>
    <path class="cls-1" d="m180.38,119.64c.67.51,1.29,1.1,2.01,1.52,7.32,4.26,14.66,8.5,22.29,12.91-2.38,4.13-4.71,8.18-7.2,12.5-8.34-4.82-16.6-9.58-24.9-14.37,2.36-4.33,4.6-8.44,6.84-12.56.32,0,.64,0,.96,0Z"/>
    <path class="cls-1" d="m335.4,119.64c1.74,3.21,3.48,6.43,5.23,9.64.49.9.99,1.79,1.6,2.88-8.32,4.81-16.54,9.56-24.94,14.41-2.41-4.16-4.75-8.22-7.21-12.47,1.94-1.14,3.71-2.19,5.49-3.22,5.68-3.28,11.37-6.55,17.04-9.84.66-.38,1.22-.93,1.83-1.4.32,0,.64,0,.96,0Z"/>
    <path class="cls-1" d="m221.4,308.27v14.54h2.45c28.73,0,57.45-.02,86.17.04,1.78,0,2.66-.53,3.45-2.13,8.51-17.15,17.11-34.26,25.69-51.38,6.39-12.74,18.22-16.77,31.02-10.57,1.66.8,3.3,1.64,5.11,2.54-.34.77-.61,1.48-.95,2.16-14.62,29.24-29.25,58.47-43.83,87.73-.72,1.45-1.51,2.09-3.24,2.08-49.03-.05-98.05-.04-147.08-.04-.63,0-1.27,0-2.24,0v-2.44c0-25.36.02-50.71-.04-76.06,0-1.8.64-2.66,2.17-3.45,21.07-10.89,46.31-8.12,64.48,7.07.82.68,2.13,1.09,3.22,1.1,10.59.08,21.18-.03,31.77.08,15.03.15,27.6,12.31,28.35,27.3.02.4,0,.8,0,1.47h-86.51Z"/>
    <path class="cls-1" d="m134.8,279.58h28.58v86.35h-28.58v-86.35Z"/>
    <path class="cls-1" d="m235.74,235.28h42.99c2.06,14.15-3.85,24.55-15.66,27.96-13.42,3.87-27.01-6.28-27.33-20.25-.06-2.48,0-4.96,0-7.71Z"/>
    <path class="cls-1" d="m197.47,199.33c2.45,4.24,4.79,8.3,7.22,12.5-8.43,4.86-16.64,9.6-25,14.43-2.45-4.25-4.79-8.31-7.21-12.5,8.41-4.86,16.63-9.6,24.99-14.43Z"/>
    <path class="cls-1" d="m192.22,180.19h-28.58v-14.14h28.58v14.14Z"/>
    <path class="cls-1" d="m351.15,166.02v14.16h-28.58v-14.16h28.58Z"/>
    <path class="cls-1" d="m317.27,199.29c8.56,4.95,16.71,9.66,24.99,14.45-2.44,4.22-4.78,8.27-7.22,12.49-8.4-4.85-16.61-9.59-24.99-14.43,2.45-4.25,4.8-8.31,7.22-12.51Z"/>
  </g>
</svg>