<?xml version="1.0" encoding="UTF-8"?>
<svg id="Layer_1" data-name="Layer 1" xmlns="http://www.w3.org/2000/svg" viewBox="0 0 500 500">
  <defs>
    <style>
      .cls-1 {
        fill: #fff;
      }

      .cls-2 {
        fill: #5a6267;
      }
    </style>
  </defs>
  <circle class="cls-2" cx="251.9" cy="250" r="234.63"/>
  <g>
    <path class="cls-1" d="m364.8,224.12c-.55,34.41-11.2,60.81-32.56,82.75-1.64,1.69-1.81,2.78-.62,4.82,9.55,16.32,18.99,32.7,28.35,49.14.75,1.31,1.31,3.67.65,4.58-.69.95-3.08,1.23-4.56.95-10.84-2.05-21.64-4.32-32.44-6.53-4.67-.96-5.11-.72-6.64,3.82-3.53,10.45-7,20.92-10.65,31.33-.51,1.44-1.71,3.22-3,3.67-2.16.76-3-1.52-3.89-3.06-10.27-17.79-20.55-35.57-30.75-53.4-1.08-1.88-2.09-2.47-4.44-2.38-8.14.31-16.3.32-24.44,0-2.35-.09-3.36.51-4.43,2.38-9.62,16.83-19.34,33.61-29.02,50.41-.38.67-.63,1.49-1.19,1.96-.95.8-2.15,1.97-3.15,1.88-.98-.09-2.28-1.39-2.66-2.44-2.17-5.94-4.11-11.97-6.13-17.97-1.69-5-3.37-10-5.07-14.99-1.34-3.94-1.93-4.24-6.13-3.39-11,2.23-22,4.49-33.02,6.58-1.39.26-3.87-.03-4.26-.84-.58-1.2-.19-3.33.55-4.63,8.92-15.69,17.94-31.32,27.04-46.9,1.2-2.05,1.21-3.25-.57-5.06-54.05-54.9-38.24-146.49,31.06-180.37,65.3-31.92,143.95,6.3,159.24,77.53,1.68,7.84,2.19,15.94,2.74,20.17Zm-112.64-86.74c-49.73-.22-90.42,40.23-90.64,90.11-.22,49.97,39.97,90.43,90.2,90.82,49.65.38,90.47-40.07,90.78-89.96.31-50.07-40.09-90.75-90.35-90.97Z"/>
    <path class="cls-1" d="m214.72,177c1.25.75,2.4,1.24,3.3,2.02,4.43,3.78,9.37,4.77,14.75,2.6,5.51-2.23,8.3-6.56,8.8-12.43.28-3.28,1.52-4.5,4.69-4.54,3.84-.05,7.68-.05,11.53,0,3.17.04,4.41,1.27,4.69,4.54.5,5.88,3.29,10.21,8.8,12.43,5.38,2.17,10.32,1.17,14.74-2.62,2.62-2.25,4.35-2.19,6.78.17,2.69,2.61,5.35,5.25,7.95,7.94,2.16,2.24,2.26,4.25.23,6.59-3.88,4.48-5.01,9.5-2.71,14.97,2.28,5.44,6.54,8.3,12.5,8.66,3.09.19,4.49,1.72,4.55,4.82.08,3.84.09,7.69,0,11.53-.07,2.92-1.46,4.48-4.41,4.66-6.08.37-10.41,3.23-12.7,8.82-2.25,5.51-1.03,10.5,2.87,14.95,1.9,2.17,1.79,4.28-.23,6.39-2.46,2.56-5.01,5.04-7.54,7.54-2.97,2.94-4.43,3.01-7.63.38-6.35-5.2-15.42-4.46-20.14,2.06-1.6,2.21-2.42,5.18-2.97,7.92-.7,3.5-1.61,4.66-5.22,4.69-3.65.03-7.3.04-10.95,0-3.23-.04-4.56-1.25-4.81-4.42-.46-5.88-3.18-10.26-8.67-12.53-5.46-2.25-10.49-1.24-14.99,2.66-2.53,2.2-4.31,2.07-6.78-.34-2.48-2.41-4.91-4.87-7.34-7.33-2.84-2.87-2.89-4.49-.29-7.66,6.59-8.04,2.93-19.93-6.97-22.62-.37-.1-.74-.2-1.12-.26-6.68-1.11-6.73-1.17-6.73-8.05,0-2.79-.06-5.57.02-8.36.08-3.11,1.45-4.64,4.55-4.82,5.97-.36,10.23-3.22,12.51-8.66,2.29-5.47,1.18-10.49-2.71-14.98-2.03-2.35-1.93-4.36.24-6.59,2.68-2.75,5.38-5.49,8.17-8.13.85-.81,2.04-1.27,3.24-1.99Zm37.4,77.3c14.73-.06,26.53-11.97,26.41-26.69-.11-14.54-12.04-26.31-26.6-26.24-14.72.07-26.51,12-26.41,26.71.1,14.55,11.99,26.27,26.59,26.21Z"/>
  </g>
</svg>