<?xml version="1.0" encoding="UTF-8"?>
<svg id="Layer_1" data-name="Layer 1" xmlns="http://www.w3.org/2000/svg" viewBox="0 0 500 500">
  <defs>
    <style>
      .cls-1 {
        fill: #fff;
      }

      .cls-2 {
        fill: #5a6267;
      }
    </style>
  </defs>
  <circle class="cls-2" cx="251.9" cy="251.27" r="234.63"/>
  <g>
    <path class="cls-1" d="m354.9,235.91c-26.3,3.11-46.8,15.38-59.96,38.38-13.15,23-13.38,46.86-2.76,70.96-28.25,15.21-77.23,16.7-115-14.32-39.18-32.18-50.99-87.42-28.32-133.01,22.63-45.51,73.9-69.47,123.26-57.43,52.32,12.76,80.1,57.75,82.78,95.42Zm-102.88-8.23c0-5.91.02-11.82,0-17.73-.02-4.35-1.95-6.83-5.33-6.91-3.5-.08-5.56,2.48-5.57,7.01-.02,10.45.09,20.91-.1,31.36-.03,1.69-.86,3.75-2.02,4.96-7.42,7.68-15.04,15.16-22.57,22.74-3.07,3.09-3.34,6.2-.86,8.63,2.47,2.42,5.53,2.11,8.64-.99,8.45-8.42,16.96-16.78,25.23-25.38,1.41-1.46,2.35-3.92,2.47-5.97.33-5.89.11-11.81.11-17.72Zm-.03-62.74c0-1.93.12-3.87-.03-5.79-.23-3.04-2.45-5.15-5.28-5.21-2.98-.07-5.39,2.1-5.52,5.31-.15,3.74-.15,7.5,0,11.25.13,3.04,2.44,5.15,5.27,5.22,2.96.07,5.31-2.12,5.54-5.31.13-1.81.02-3.64.02-5.45Zm-87.43,87.16c1.93,0,3.87.11,5.79-.03,3.05-.22,5.17-2.42,5.25-5.25.09-2.96-2.09-5.42-5.27-5.55-3.74-.16-7.5-.15-11.25,0-3.06.13-5.16,2.39-5.25,5.23-.09,2.97,2.08,5.34,5.27,5.57,1.81.13,3.63.02,5.45.02Zm87.42,76.37c0-1.93.14-3.88-.03-5.79-.26-3.01-2.59-5.08-5.43-5.05-2.85.02-5.2,2.1-5.34,5.13-.17,3.86-.18,7.73,0,11.59.15,3.01,2.57,5.08,5.41,5.06,2.84-.02,5.11-2.11,5.36-5.14.16-1.92.03-3.86.03-5.79Zm-48.08-162.92c-5.01.09-7.6,4.14-5.82,7.79,1.63,3.34,3.56,6.55,5.53,9.72,1.77,2.85,4.64,3.63,7.28,2.22,2.77-1.48,3.73-4.53,2.13-7.57-1.69-3.2-3.42-6.41-5.5-9.35-1-1.42-2.85-2.24-3.62-2.81Zm81.73,20.38c.72-.46,2.53-1.03,3.37-2.26,2.28-3.35,4.29-6.91,6.12-10.53,1.38-2.72.36-5.16-2.13-6.72-2.57-1.61-5.26-1.16-6.92,1.28-2.4,3.54-4.6,7.27-6.38,11.15-1.51,3.28,1.4,7.04,5.94,7.09Zm-81.79,141.81c.68-.43,2.41-.96,3.19-2.12,2.31-3.46,4.44-7.08,6.28-10.82,1.34-2.73.2-5.15-2.35-6.64-2.63-1.53-5.24-.97-6.88,1.48-2.26,3.36-4.32,6.9-6.08,10.55-1.74,3.6,1.12,7.66,5.84,7.54Zm-22.55-113.33c1.3-1.3,3.25-2.55,4.16-4.33,1.22-2.39.07-4.74-2.16-6.16-3.06-1.95-6.21-3.76-9.42-5.47-3.03-1.62-6.13-.72-7.64,2-1.46,2.64-.71,5.53,2.15,7.34,2.97,1.88,6.05,3.59,9.12,5.29.87.48,1.89.68,3.78,1.34Zm-10.34,82.57c5.16-3.45,9.88-6.25,14.05-9.69.89-.73.37-4.12-.49-5.77-1.12-2.14-3.67-2.84-5.94-1.69-3.72,1.88-7.36,3.96-10.85,6.25-2.04,1.34-3.03,3.71-1.73,5.94,1.01,1.74,2.9,2.97,4.95,4.97Zm141.67-81.9c5.07-3.32,9.81-6.08,14.02-9.48.9-.73.44-4.1-.38-5.78-1.06-2.18-3.61-2.98-5.88-1.84-3.83,1.91-7.57,4.05-11.13,6.41-2.06,1.37-2.79,3.85-1.52,6.01.97,1.65,2.84,2.78,4.89,4.68Z"/>
    <path class="cls-1" d="m388.09,240.1c-7.33-1.6-14.5-3.16-21.85-4.76-4.88-39.44-23.61-70.69-58.04-91.53-28.56-17.28-59.56-21.87-91.83-13.18-67.15,18.06-104.8,86.28-84.33,151.99,20.97,67.31,97.87,104.54,165.6,72.86,5.04,5.48,10.01,10.89,14.94,16.26-38.74,22.76-103.66,26.37-154.59-14.29-51.69-41.25-68.01-113.59-39.01-172.61,29.77-60.59,96.36-91.99,161.63-75.84,66.29,16.4,105.75,74.74,107.49,131.1Z"/>
    <path class="cls-1" d="m426.6,312.43c-.27,36.48-29.81,65.47-66.43,65.17-35.86-.29-64.72-30.01-64.49-66.42.22-35.78,30.11-64.79,66.42-64.49,35.56.3,64.76,30.06,64.5,65.74Zm-120.01-.35c-.1,30.08,24.41,54.59,54.64,54.64,29.73.04,54.36-24.45,54.46-54.16.1-30.14-24.15-54.84-53.97-54.97-30.48-.13-55.03,24.13-55.13,54.49Z"/>
    <path class="cls-1" d="m404.78,312.16c-.06,24.08-19.6,43.65-43.57,43.63-24.23-.02-43.75-19.58-43.71-43.81.03-24.11,19.77-43.58,44.07-43.47,23.71.11,43.27,19.86,43.21,43.65Zm-27.28-12.37c-.31-5.55-3.13-10.23-8.7-13.31-.99-.55-1.87-1.73-2.29-2.82-1.02-2.61-2.67-4.27-5.54-4.19-2.7.07-4.3,1.68-5.18,4.19-.33.94-.88,2.13-1.67,2.53-6.07,3.05-9.41,7.87-9.27,14.65.14,6.82,3.88,11.38,9.94,14.24,3.08,1.45,6.3,2.75,9.04,4.71,1.37.98,2.5,3.28,2.49,4.97-.02,2.33-2.04,3.6-4.51,3.76-3.79.24-5.69-1.33-6.13-5.14-.43-3.75-2.67-5.96-5.82-5.74-3.19.23-5.23,2.73-5.06,6.46.28,6.19,3.28,10.68,8.67,13.71.99.56,1.86,1.73,2.29,2.82,1.02,2.62,2.68,4.27,5.54,4.19,2.7-.07,4.29-1.69,5.19-4.19.34-.94.88-2.13,1.67-2.53,6.07-3.05,9.4-7.88,9.26-14.66-.14-6.81-3.87-11.39-9.94-14.24-3.18-1.5-6.48-2.87-9.34-4.86-1.28-.89-2.5-3.42-2.12-4.74.43-1.53,2.49-3.27,4.13-3.65,3.89-.91,5.94,1.05,6.45,5.31.42,3.43,2.77,5.62,5.8,5.4,3.06-.22,5.07-2.64,5.09-6.87Z"/>
  </g>
</svg>