<?xml version="1.0" encoding="UTF-8"?>
<svg id="Layer_1" data-name="Layer 1" xmlns="http://www.w3.org/2000/svg" xmlns:xlink="http://www.w3.org/1999/xlink" viewBox="0 0 1140.7 1140.7">
  <defs>
    <style>
      .cls-1 {
        fill: url(#linear-gradient);
      }

      .cls-2 {
        fill: #d66b22;
      }

      .cls-3 {
        fill: url(#linear-gradient-3);
      }

      .cls-4 {
        fill: url(#linear-gradient-4);
      }

      .cls-5 {
        fill: url(#linear-gradient-2);
      }

      .cls-6 {
        fill: url(#linear-gradient-6);
      }

      .cls-7 {
        fill: url(#linear-gradient-5);
      }
    </style>
    <linearGradient id="linear-gradient" x1="827.02" y1="352.73" x2="125.35" y2="352.73" gradientUnits="userSpaceOnUse">
      <stop offset="0" stop-color="#faac18"/>
      <stop offset=".21" stop-color="#f9a519"/>
      <stop offset=".51" stop-color="#f6931c"/>
      <stop offset=".71" stop-color="#f4831f"/>
      <stop offset="1" stop-color="#df4f27"/>
    </linearGradient>
    <linearGradient id="linear-gradient-2" x1="827.03" y1="278.45" x2="125.34" y2="278.45" xlink:href="#linear-gradient"/>
    <linearGradient id="linear-gradient-3" x1="827.03" y1="509.33" x2="125.33" y2="509.33" xlink:href="#linear-gradient"/>
    <linearGradient id="linear-gradient-4" x1="827.02" y1="917.83" x2="125.35" y2="917.83" xlink:href="#linear-gradient"/>
    <linearGradient id="linear-gradient-5" x1="827.04" y1="813.95" x2="125.35" y2="813.95" xlink:href="#linear-gradient"/>
    <linearGradient id="linear-gradient-6" x1="827.04" y1="757.45" x2="125.32" y2="757.45" xlink:href="#linear-gradient"/>
  </defs>
  <g>
    <path class="cls-2" d="m761.71,661.64c-3.23-12.93-7.67-22.46-10.9-34.3-12.91-47.35-44.31-78.62-87.36-100.15-72.12-36.6-146.39-73.2-220.67-110.88-37.68-19.36-73.2-41.96-103.33-73.19-69.97-71.04-89.34-153.92-59.21-250.81,3.23-9.69,10.02-31.52,13.24-40.13h6.51c1.08,3.23-2.51,18.61-2.51,22.93,12.91,95.78,64.57,167.9,142.07,219.57,59.21,38.76,120.55,73.22,181.92,108.72,41.98,24.75,82.87,49.51,116.24,87.19,24.75,27.99,43.05,59.2,44.13,97.95,1.08,24.75-1.58,41.88-12.35,63.4-1.08,2.16-2.17,2.88-3.25,5.01,0,0-2.38,3.58-4.54,4.7Z"/>
    <path class="cls-2" d="m682.92,163.39c-6.46-5.37-13.36-14.44-19.82-19.83.75-.64.92-.74.92-.74,0,0,1.34.75,2.03-.05,3.25,1.63,38.29,14.15,52.3,9.84,13.98-4.31,29.05-7.53,43.05-11.85,2.14-1.06,5.38-1.06,6.46,0,9.69,9.69,22.6,9.69,34.44,12.92,11.66,3.19,23.97-.64,26.41,11.58.06.31-.32.65-.55.86-2.43,2.32-2.87,3.43-7.55,4.83-33.38,3.23-63.53,38.7-58.15,72.06,3.24,20.46,8.63,39.84,15.08,60.28,9.69,35.52,17.52,71.85,8.9,108.45-3.24,13.97-9.27,29.41-14.64,45.56-3.23-4.3-7.19-7.61-9.34-10.83-27.97-38.76-65.65-64.59-107.63-86.13-41.97-20.44-85.05-39.84-125.94-60.27-35.52-17.22-68.89-39.84-92.56-73.2-21.54-29.07-35.47-78.7-24.08-112.86,59.22,71.03,128.08,123.96,209.88,162.7,8.61-18.28,22.1-45.87,31.79-65.25-8.61-4.3-13.75-6.57-22.36-10.86-3.22-2.17-6.65-6.09-9.89-8.25.97-1.28,1.44-2.17,1.44-2.17,0,0,1.01-.48,2.27-1.33,16.14-8.63,40.34-16.83,57.55-25.46Z"/>
    <path class="cls-2" d="m725.42,672.07c-1.08-1.08-5.37-3.62-6.45-4.7-38.76-37.68-87.83-49.78-136.26-68.06-57.04-20.46-113.02-43.07-168.98-65.67-43.07-18.28-79.66-46.27-102.27-88.26-10.77-20.46-16.36-49.9-22.86-72.68-1.63-9.76,2.71-15.25,1.63-22.78,4.32,3.24,4.35,5.99,6.51,8.13,58.14,54.89,122.38,104.56,197.72,132.54,41.99,15.06,82.89,31.22,122.71,49.52,44.13,20.44,77.5,54.88,96.88,102.24,4.32,11.86,13.48,11.78,16.72,23.61,0,1.06-4.26,6.11-5.33,6.11Z"/>
    <path class="cls-2" d="m249.03,1113.82c3.23-43.05,21.53-76.44,47.37-105.49,20.44-23.68,46.27-39.84,73.18-54.9,35.52-20.44,72.12-39.84,107.65-61.35,59.21-36.58,109.8-82.89,143.16-144.23,0-1.07,1.08-2.15,2.14-2.15-4.3,64.57-23.66,120.55-67.81,167.9-32.28,34.46-69.95,60.3-110.86,82.89-54.9,30.15-107.64,62.43-161.45,94.72-7.55,4.32-15.08,10.78-22.61,16.15-3.24,2.17-6.47,3.23-10.77,6.47Z"/>
    <path class="cls-2" d="m589.18,705.86c-2.16,8.63-4.31,18.32-7.55,26.93-20.44,51.66-57.04,89.33-104.41,114.1-33.37,17.22-68.89,30.13-102.26,46.27-35.52,16.15-71.04,33.38-106.57,49.53-2.16,1.08-4.31,2.14-7.53,3.22,6.45-32.31,21.53-54.89,49.51-69.97,53.82-30.13,107.65-60.27,162.53-89.34,36.6-20.44,74.28-40.9,104.43-71.04,3.22-3.22,6.45-6.45,9.69-9.69h2.16Z"/>
    <path class="cls-2" d="m707.12,870.3c-30.15-17.22-49.06-36.34-50.12-70.77-1.08-23.7-1.08-46.31-2.16-69.99-1.08-23.69-3.68-58.59-10.19-79.74,29.07,12.91,51.09,64.67,57.56,101.26,6.46,40.92,11.35,74.19,8.11,114.01-1.01,2.15-2.14,3.08-3.19,5.22Z"/>
  </g>
  <g>
    <path class="cls-1" d="m766.27,653.05c-3.23-12.93-6.45-24.77-9.69-36.62-12.91-47.35-43.06-79.64-86.11-101.18-72.12-36.6-146.39-73.2-220.67-110.88-37.68-19.36-73.2-41.96-103.33-73.19-69.97-71.04-89.34-153.92-59.21-250.81,3.23-9.69,6.47-19.36,9.69-27.97h3.23c1.08,3.23,4.31,6.45,4.31,10.77,12.91,95.78,64.57,167.9,142.07,219.57,59.21,38.76,120.55,73.22,181.92,108.72,41.98,24.75,82.87,49.51,116.24,87.19,24.75,27.99,43.05,59.2,44.13,97.95,1.08,24.75-5.37,48.45-16.14,69.96-1.08,2.16-2.16,3.24-3.24,5.36,0,0-1.06,0-3.22,1.11Z"/>
    <path class="cls-5" d="m681.23,158.96c-6.46-5.37-10.75-10.75-17.21-16.14,7.53,0,13.99-2.14,19.36,0,14,5.39,27.99,2.17,41.99-2.14,13.98-4.31,29.05-7.53,43.05-11.85,2.14-1.06,5.38-1.06,6.46,0,9.69,9.69,22.6,9.69,34.44,12.92,11.84,3.24,17.22,10.75,19.38,23.68-3.24,0-5.39,1.08-8.61,1.08-33.38,3.23-55.98,31.21-50.61,64.57,3.24,20.46,8.63,39.84,15.08,60.28,9.69,35.52,16.15,71.06,7.53,107.66-3.24,13.97-9.69,27.97-15.07,44.12-3.23-4.3-5.39-5.38-7.55-8.6-27.97-38.76-65.65-64.59-107.63-86.13-41.97-20.44-85.05-39.84-125.94-60.27-35.52-17.22-68.89-39.84-92.56-73.2-21.54-29.07-34.45-61.35-31.23-101.18,59.22,71.03,136.71,111.94,218.51,150.68,8.61-18.28,17.22-35.51,26.91-54.89-8.61-4.3-17.22-8.61-25.83-12.91-3.22-2.17-5.38-4.31-8.61-6.47,3.23-2.16,5.39-5.39,8.61-6.45,16.14-8.63,32.3-16.14,49.51-24.77Z"/>
    <path class="cls-3" d="m728.6,668.1c-1.08-1.08-3.22-2.14-4.3-3.22-38.76-37.68-86.13-59.21-134.56-77.5-57.04-20.46-113.02-43.07-168.98-65.67-43.07-18.28-79.66-46.27-102.27-88.26-10.77-20.46-18.3-44.13-25.83-65.67-2.16-4.3-1.08-9.67-2.16-17.21,4.32,3.24,6.46,5.39,8.61,7.53,58.14,54.89,127.03,92.58,202.37,120.55,41.99,15.06,82.89,31.22,122.71,49.52,44.13,20.44,77.5,54.88,96.88,102.24,4.32,11.86,6.46,23.71,9.69,35.54,0,1.06-1.08,2.14-2.16,2.14Z"/>
    <path class="cls-4" d="m256.06,1101.89c3.23-43.05,21.53-76.44,47.37-105.49,20.44-23.68,46.27-39.84,73.18-54.9,35.52-20.44,72.12-39.84,107.65-61.35,59.21-36.58,109.8-82.89,143.16-144.23,0-1.07,1.08-2.15,2.14-2.15-4.3,64.57-23.66,120.55-67.81,167.9-32.28,34.46-69.95,60.3-110.86,82.89-54.9,30.15-107.64,62.43-161.45,94.72-7.55,4.32-15.08,10.78-22.61,16.15-3.24,2.17-6.47,3.23-10.77,6.47Z"/>
    <path class="cls-7" d="m596.21,693.93c-2.16,8.63-4.31,18.32-7.55,26.93-20.44,51.66-57.04,89.33-104.41,114.1-33.37,17.22-68.89,30.13-102.26,46.27-35.52,16.15-71.04,33.38-106.57,49.53-2.16,1.08-4.31,2.14-7.53,3.22,6.45-32.31,21.53-54.89,49.51-69.97,53.82-30.13,107.65-60.27,162.53-89.34,36.6-20.44,74.28-40.9,104.43-71.04,3.22-3.22,6.45-6.45,9.69-9.69h2.16Z"/>
    <path class="cls-6" d="m710.31,865.08c-30.15-17.22-45.23-43.05-46.29-77.48-1.08-23.7-1.08-46.31-2.16-69.99-1.08-23.69-4.31-47.36-17.22-67.81,29.07,12.91,58.12,52.74,64.59,89.33,6.46,40.92,5.38,81.81,2.14,121.63q0,2.17-1.06,4.31Z"/>
  </g>
</svg>