<?xml version="1.0" encoding="UTF-8"?>
<svg id="Layer_1" data-name="Layer 1" xmlns="http://www.w3.org/2000/svg" xmlns:xlink="http://www.w3.org/1999/xlink" viewBox="0 0 435.65 720">
  <defs>
    <style>
      .cls-1 {
        fill: #6d5636;
      }

      .cls-2 {
        fill: url(#radial-gradient-6);
      }

      .cls-3 {
        fill: url(#radial-gradient-5);
      }

      .cls-4 {
        fill: url(#radial-gradient-3);
      }

      .cls-5 {
        fill: url(#radial-gradient-4);
      }

      .cls-6 {
        fill: url(#radial-gradient-2);
      }

      .cls-7 {
        fill: url(#radial-gradient);
      }
    </style>
    <radialGradient id="radial-gradient" cx="-17.71" cy="675.38" fx="-17.71" fy="675.38" r="971.04" gradientUnits="userSpaceOnUse">
      <stop offset="0" stop-color="#291b10"/>
      <stop offset="0" stop-color="#2f1e11"/>
      <stop offset="0" stop-color="#492d16"/>
      <stop offset="0" stop-color="#5f391b"/>
      <stop offset="0" stop-color="#70421e"/>
      <stop offset="0" stop-color="#7c4921"/>
      <stop offset="0" stop-color="#834c22"/>
      <stop offset=".02" stop-color="#854e23"/>
      <stop offset=".04" stop-color="#f7e68a"/>
      <stop offset=".07" stop-color="#8e5c25"/>
      <stop offset=".08" stop-color="#9a682d"/>
      <stop offset=".1" stop-color="#bb8a45"/>
      <stop offset=".12" stop-color="#e8b965"/>
      <stop offset=".17" stop-color="#f8e888"/>
      <stop offset=".25" stop-color="#b2813b"/>
      <stop offset=".32" stop-color="#e6b963"/>
      <stop offset=".42" stop-color="#b2813b"/>
      <stop offset=".53" stop-color="#f8e888"/>
      <stop offset=".58" stop-color="#e8b965"/>
      <stop offset=".63" stop-color="#e8b965"/>
      <stop offset=".69" stop-color="#8e5c25"/>
      <stop offset=".7" stop-color="#97682e"/>
      <stop offset=".7" stop-color="#b18a47"/>
      <stop offset=".71" stop-color="#dac06e"/>
      <stop offset=".72" stop-color="#f7e68a"/>
      <stop offset=".78" stop-color="#8e5c25"/>
      <stop offset=".87" stop-color="#854f23"/>
      <stop offset=".88" stop-color="#854e23"/>
      <stop offset=".98" stop-color="#291b10"/>
    </radialGradient>
    <radialGradient id="radial-gradient-2" cx="-17.71" cy="675.04" fx="-17.71" fy="675.04" r="970.84" xlink:href="#radial-gradient"/>
    <radialGradient id="radial-gradient-3" cx="-17.71" cy="676.03" fx="-17.71" fy="676.03" r="971.72" xlink:href="#radial-gradient"/>
    <radialGradient id="radial-gradient-4" cx="-17.71" cy="675.04" fx="-17.71" fy="675.04" r="970.84" xlink:href="#radial-gradient"/>
    <radialGradient id="radial-gradient-5" cx="-17.71" cy="675.04" fx="-17.71" fy="675.04" r="970.84" xlink:href="#radial-gradient"/>
    <radialGradient id="radial-gradient-6" cx="-17.71" cy="675.04" fx="-17.71" fy="675.04" r="970.84" xlink:href="#radial-gradient"/>
  </defs>
  <g>
    <path class="cls-1" d="m311.41,299.87c-18.66-21.08-41.54-34.92-65.02-48.77-34.33-19.86-68.64-39.14-101.76-60.82-43.35-28.9-69.85-70.03-77.07-123.61,0-2.41.8-4.05.2-5.86-.33,0-.86-5.55-1.15-5.4-2.61,1.41-2.87,3.36-3.15,3.36-2.63,4.81-6.13,12.89-7.94,18.31-16.85,54.2-6.01,100.56,33.12,140.29,16.85,17.47,36.72,30.11,57.8,40.94,41.55,21.08,83.09,41.55,123.43,62.02,24.08,12.05,40.94,30.11,48.17,56.59,1.81,6.62,5.09,11.27,6.9,18.5,1.51,0,3.6-1.89,3.6-1.89.84-.75,1.66-1.84,2.26-3.04,6.02-12.04,5.91-22,5.3-35.85-.6-21.68-10.84-39.14-24.69-54.79Z"/>
    <path class="cls-1" d="m358.02,122.91c1.65-1.32,4.33-2.73,5.9-4.55-1.21-7.23-9.75-5.14-16.38-6.95-6.63-1.81-13.85-1.81-19.27-7.23-.6-.59-2.41-.59-3.61,0-7.83,2.41-16.26,4.21-24.08,6.63-7.83,2.41-11.76,1.63-19.59-1.39-1.81-.72-5.83-4.68-9.19-3.7-2.23.65-2.88,2.77-4.56,2.77,3.61,3.02,8.48,7.73,12.09,10.73-9.62,4.83-21.38,8.17-30.41,13-1.8.59-1.57,2.59-3.38,3.8,1.81,1.21,3.41,2.67,5.21,3.89,4.82,2.4,8.16,4.32,12.97,6.72-5.42,10.84-11.31,23.19-16.13,33.42-44.01-20.85-89.07-49.62-116.69-90.58,0-.01-.02-.04-.02-.03-.3.48-.4.45-.57.69-.23.32-.41.33-.71.71-.63.8-1.54,1-1.54,1-1.8,22.27,2.74,44.25,14.78,60.51,13.24,18.66,31.91,31.31,51.78,40.95,22.88,11.43,46.97,22.28,70.45,33.72,23.48,12.05,44.56,26.5,60.2,48.18,1.21,1.8,2.41,2.4,4.22,4.81.79-2.38,4.7-4.06,5.54-6.29,2.33-6.25,1.56-12.63,2.89-18.39,4.82-20.47,1.21-40.35-4.21-60.22-3.61-11.43-6.63-22.27-8.44-33.72-3.01-18.66,14.09-36.66,32.76-38.47Z"/>
    <path class="cls-1" d="m243.98,327.57c-22.27-10.24-45.15-19.28-68.64-27.7-42.14-15.65-75.42-39.94-107.94-70.64-.6-.6-3.79-6.62-4.54-7.3s-4.45,5.22-5.54,6.29c.2,1.4.32,2.63.42,3.74.28,3.15.93,6.26,1.96,9.25,3.84,11.11,7.81,22.98,13.28,33.37,12.65,23.49,33.11,39.14,57.21,49.37,31.3,12.64,62.62,25.29,94.52,36.73,27.09,10.23,53.1,20.22,74.78,41.29.6.6,1.17,1.19,1.77,1.8.6,0,7.54-3.87,7.54-4.46.33-.2.61-.37.33-.97-2.54-5.48-8.82-7.72-10.96-13.59-10.84-26.49-29.5-45.75-54.19-57.19Z"/>
    <path class="cls-1" d="m246.11,443.93c-18.66,34.31-47.28,60.05-80.4,80.52-19.87,12.04-40.34,22.88-60.21,34.32-15.05,8.43-29.5,17.46-40.94,30.71-14.45,16.25-21.77,32.07-23.57,56.15,2.61-1.33,7.54-4.24,9.35-5.45,4.21-3,2.17-1.93,6.4-4.35,30.1-18.06,59.6-36.12,90.31-52.98,22.89-12.64,43.95-27.09,62.01-46.37,24.7-26.49,41.06-64.09,43.47-100.21-1.14-.13-6.14,6.93-6.41,7.66Z"/>
    <path class="cls-1" d="m165.71,499.17c26.49-13.86,46.97-34.93,58.4-63.82,1.81-4.82,3.02-10.24,4.22-15.06h-1.21c-1.81,1.81-3.62,3.62-5.42,5.42-16.86,16.86-37.94,28.3-58.41,39.74-30.7,16.26-60.81,33.12-90.91,49.98-15.65,8.44-24.08,21.07-27.69,39.14,1.8-.6,3.01-1.2,4.21-1.8,19.87-9.03,39.74-18.67,59.61-27.7,18.66-9.03,38.53-16.25,57.2-25.88Z"/>
    <path class="cls-1" d="m255.42,395.61c7.22,11.43,9.03,24.68,9.63,37.93.6,13.25.6,25.89,1.21,39.15.59,19.26,10.68,31.86,27.55,41.49.59-1.2,3.88-3.23,3.88-4.44,1.81-22.28-2.53-41.27-6.14-64.16-3.21-18.13-2.98-38.31-30.59-56.26-1.55-1.01-6.3,5.29-5.54,6.29Z"/>
  </g>
  <g>
    <path class="cls-7" d="m316.95,293.58c-18.66-21.08-41.54-34.92-65.02-48.77-34.33-19.86-68.64-39.14-101.76-60.82-43.35-28.9-72.25-69.24-79.47-122.82-.46-2.15-1.35-3.71-2.11-5.28-.22-.46-.68-.74-1.19-.74h0c-.56,0-1.06.34-1.25.86-1.69,4.6-3.4,9.69-5.1,14.78-16.85,54.2-6.01,100.56,33.12,140.29,16.85,17.47,36.72,30.11,57.8,40.94,41.55,21.08,83.09,41.55,123.43,62.02,24.08,12.05,40.94,30.11,48.17,56.59,1.81,6.62,3.61,13.25,5.42,20.48,1.03.64,1.8-.62,1.8-.62.6-1.19,1.21-1.79,1.81-3,6.02-12.04,9.63-25.29,9.03-39.14-.6-21.68-10.84-39.14-24.69-54.79Z"/>
    <path class="cls-6" d="m359.1,118.97c1.8,0,3.01-.6,4.82-.6-1.21-7.23-4.21-11.43-10.84-13.24-6.63-1.81-13.85-1.81-19.27-7.23-.6-.59-2.41-.59-3.61,0-7.83,2.41-16.26,4.21-24.08,6.63-7.83,2.41-15.66,4.21-23.49,1.2-3.01-1.2-6.62,0-10.83,0,3.61,3.02,6.01,6.02,9.62,9.03-9.62,4.83-18.66,9.03-27.69,13.86-1.8.59-3.01,2.4-4.82,3.61,1.81,1.21,3.02,2.4,4.82,3.62,4.82,2.4,9.63,4.82,14.45,7.22-5.42,10.84-10.24,20.47-15.05,30.7-45.75-21.67-89.1-44.56-122.23-84.29-1.8,22.27,5.42,40.33,17.47,56.59,13.24,18.66,31.91,31.31,51.78,40.95,22.88,11.43,46.97,22.28,70.45,33.72,23.48,12.05,44.56,26.5,60.2,48.18,1.21,1.8,2.41,2.4,4.22,4.81,3.01-9.03,6.62-16.86,8.43-24.68,4.82-20.47,1.21-40.35-4.21-60.22-3.61-11.43-6.63-22.27-8.44-33.72-3.01-18.66,9.63-34.31,28.31-36.12Z"/>
    <path class="cls-4" d="m249.52,321.28c-22.27-10.24-45.15-19.28-68.64-27.7-42.14-15.65-80.68-36.73-113.2-67.43-1.21-1.2-2.4-2.4-4.82-4.21.6,4.21.53,7.32,1.21,9.62,4.21,12.05,8.43,25.29,14.45,36.73,12.65,23.49,33.11,39.14,57.21,49.37,31.3,12.64,62.62,25.29,94.52,36.73,27.09,10.23,53.59,22.27,75.27,43.35.6.6,1.73,1.59,2.33,2.19.75-.43,1.28-.99,1.28-1.59-1.81-6.62-3.01-13.24-5.42-19.88-10.84-26.49-29.5-45.75-54.19-57.19Z"/>
    <path class="cls-5" d="m251.33,437.48c-18.66,34.31-46.96,60.22-80.08,80.68-19.87,12.04-40.34,22.88-60.21,34.32-15.05,8.43-29.5,17.46-40.94,30.71-14.45,16.25-24.69,34.92-26.5,59.01,2.4-1.81,4.21-2.4,6.02-3.62,4.21-3,8.43-6.62,12.65-9.03,30.1-18.06,59.6-36.12,90.31-52.98,22.89-12.64,43.95-27.09,62.01-46.37,24.7-26.49,35.53-57.8,37.93-93.92-.59,0-.92.65-1.2,1.2Z"/>
    <path class="cls-3" d="m171.24,492.88c26.49-13.86,46.97-34.93,58.4-63.82,1.81-4.82,3.02-10.24,4.22-15.06h-1.21c-1.81,1.81-3.62,3.62-5.42,5.42-16.86,16.86-37.94,28.3-58.41,39.74-30.7,16.26-60.81,33.12-90.91,49.98-15.65,8.44-24.08,21.07-27.69,39.14,1.8-.6,3.01-1.2,4.21-1.8,19.87-9.03,39.74-18.67,59.61-27.7,18.66-9.03,38.53-16.25,57.2-25.88Z"/>
    <path class="cls-2" d="m260.96,389.32c7.22,11.43,9.03,24.68,9.63,37.93.6,13.25.6,25.89,1.21,39.15.59,19.26,9.03,33.71,25.89,43.34q.59-1.2.59-2.41c1.81-22.28,2.41-45.15-1.2-68.04-3.62-20.46-19.87-42.75-36.13-49.97Z"/>
  </g>
</svg>