<?xml version="1.0" encoding="UTF-8"?>
<svg id="Layer_1" data-name="Layer 1" xmlns="http://www.w3.org/2000/svg" viewBox="0 0 500 500">
  <defs>
    <style>
      .cls-1 {
        fill: #fff;
      }

      .cls-2 {
        fill: #242424;
      }
    </style>
  </defs>
  <circle class="cls-2" cx="247.87" cy="250" r="227.15"/>
  <g>
    <path class="cls-1" d="m120.94,206.58c8.04-1.06,16.09-2.12,24.13-3.19.16-.02.32-.12.48-.1,6.49.63,9.46-3.1,11.69-8.62,2.45-6.06,5.7-11.81,8.61-17.68.39-.78.83-1.54,1.4-2.62.57,1.02,1.02,1.76,1.4,2.53,3.81,7.72,7.68,15.41,11.38,23.18.83,1.74,1.95,2.32,3.72,2.56,9.26,1.26,18.51,2.63,28.29,4.03-.82.87-1.36,1.49-1.95,2.06-6.17,6.02-12.3,12.08-18.55,18.02-1.43,1.36-1.77,2.63-1.43,4.53,1.68,9.19,3.21,18.4,4.86,28-.98-.44-1.68-.71-2.35-1.06-7.69-4.04-15.4-8.05-23.05-12.18-1.6-.86-2.83-.96-4.5-.05-7.56,4.12-15.21,8.07-22.83,12.07-.78.41-1.57.79-2.7,1.35,1.14-6.69,2.21-12.98,3.29-19.27.56-3.23,1.22-6.45,1.64-9.7.12-.9-.17-2.21-.78-2.79-7.31-6.84-14.72-13.58-22.11-20.34-.16-.14-.42-.16-.64-.24,0-.16,0-.33,0-.49Z"/>
    <path class="cls-1" d="m251.41,301.64c2.88.56,5.18.93,7.45,1.46,23.13,5.38,39.7,25.93,39.96,49.63.09,7.7.01,15.4.01,23.24h-103.13c-.06-.07-.26-.19-.26-.31.1-9.52-.4-19.09.47-28.54,2.04-22,19.72-40.55,41.56-44.49,1.57-.28,3.15-.55,5.41-.95-23.63-4.07-34.75-24.08-32.48-41.06,2.6-19.44,18.11-32.99,37.17-32.84,18.64.15,34.07,14.14,36.27,33.31,1.99,17.32-9.45,36.65-32.44,40.55Z"/>
    <path class="cls-1" d="m168.79,331.28c-12.53-2.97-21.01-10.08-24.27-22.63-4.01-15.41,5.64-31.52,21.05-35.51,15.85-4.09,32,5.19,36.11,20.78.38,1.42.63,2.88.87,4.34.55,3.46.09,6.32-2.83,9.01-5.59,5.15-9.88,11.43-12.88,18.44-1,2.33-2.45,3.52-4.71,4.09-1.65.42-3.29.87-5.49,1.46,2.73.66,4.96,1.19,7.53,1.81-5.32,14.01-3.07,28.5-3.7,42.89h-44.07c-.91-10.55.33-20.52,6.77-29.28,6.38-8.67,14.98-13.71,25.62-15.41Z"/>
    <path class="cls-1" d="m309.98,333.07c2.62-.62,4.82-1.13,7.44-1.75-2.53-.75-4.73-1.22-6.76-2.09-1.07-.46-2.22-1.45-2.7-2.49-3.55-7.79-8.35-14.68-14.52-20.58-1.44-1.38-2-2.82-2.01-4.75-.06-14.56,11.15-27.02,26.27-29.11,13.9-1.92,28.12,7.72,31.82,21.58,4.49,16.83-5.83,33.28-23.16,36.89-.31.07-.63.14-1.25.28,24.05,5.53,34.24,20.88,32.81,44.88h-44.18c-.7-14.2,1.64-28.7-3.76-42.86Z"/>
    <path class="cls-1" d="m326.93,174.14c3.89,7.86,7.87,15.04,11.01,22.57,1.89,4.52,4.65,6.07,9.28,6.5,8.24.76,16.42,2.17,24.62,3.32.3.04.58.14,1.22.3-1.93,1.8-3.65,3.41-5.38,5-5.51,5.05-10.97,10.15-16.57,15.09-1.46,1.29-1.67,2.53-1.35,4.29,1.61,8.88,3.12,17.77,4.65,26.66.07.39,0,.8,0,1.45-5.29-2.78-10.44-5.48-15.58-8.18-3.41-1.79-6.78-3.68-10.26-5.31-.92-.43-2.41-.44-3.3.02-7.82,3.98-15.56,8.11-23.33,12.19-.79.41-1.59.8-2.72,1.36.93-5.57,1.8-10.81,2.69-16.04.72-4.2,1.44-8.41,2.24-12.6.28-1.5-.02-2.57-1.19-3.69-6.35-6.07-12.61-12.23-18.89-18.37-.57-.55-1.09-1.15-1.87-1.98,9.58-1.4,18.79-2.79,28.03-4.05,1.97-.27,3.14-.97,4.05-2.86,4.02-8.43,8.22-16.76,12.63-25.67Z"/>
    <path class="cls-1" d="m201.97,156.52c9.96-1.46,19.12-2.86,28.3-4.09,2.07-.28,3.3-.96,4.24-2.96,3.59-7.64,7.41-15.17,11.14-22.74.39-.79.82-1.57,1.42-2.7.56,1.02,1.01,1.75,1.38,2.51,3.77,7.64,7.62,15.25,11.25,22.96.94,2.01,2.2,2.65,4.26,2.92,9.17,1.22,18.32,2.61,27.88,4-.76.82-1.27,1.42-1.83,1.96-6.23,6.08-12.41,12.2-18.72,18.18-1.38,1.31-1.69,2.54-1.37,4.32,1.62,8.96,3.14,17.93,4.69,26.9.05.31,0,.64,0,1.27-2.16-1.12-4.16-2.16-6.16-3.21-6.46-3.39-12.94-6.74-19.35-10.23-1.49-.81-2.61-.72-4.05.05-8.38,4.48-16.8,8.87-25.64,13.52.76-4.62,1.44-8.85,2.17-13.07.89-5.17,1.77-10.34,2.74-15.5.3-1.59-.03-2.72-1.26-3.89-6.3-6-12.48-12.12-18.72-18.19-.58-.56-1.23-1.05-2.37-2.02Z"/>
  </g>
</svg>