<?xml version="1.0" encoding="UTF-8"?>
<svg id="Layer_1" data-name="Layer 1" xmlns="http://www.w3.org/2000/svg" viewBox="0 0 500 500">
  <defs>
    <style>
      .cls-1 {
        fill: #fff;
      }

      .cls-2 {
        fill: #242424;
      }
    </style>
  </defs>
  <circle class="cls-2" cx="246.91" cy="249.48" r="227.15"/>
  <g>
    <path class="cls-1" d="m107.54,354.58c1.1-4.45,3.92-7.71,7.1-10.86,12.7-12.57,25.31-25.25,37.93-37.9.64-.64,1.08-1.48,1.8-2.5,6.1,8.77,13.01,15.75,21.35,21.47-.31.41-.51.76-.77,1.03-13.87,13.88-27.68,27.81-41.64,41.6-8.52,8.42-21.72,4.95-25.25-6.47-.14-.47-.34-.92-.51-1.38,0-1.66,0-3.33,0-4.99Z"/>
    <path class="cls-1" d="m168.41,200.26c0-14.27,0-27.99,0-41.7,0-7.82-.05-15.63.02-23.45.09-9.81,7.62-17.5,17.38-17.51,38.59-.06,77.17-.02,115.76-.02.41,0,.81.04,1.57.08,0,.92,0,1.8,0,2.68,0,16.13,0,32.27,0,48.4,0,5.82,2.9,8.71,8.74,8.71,16.05,0,32.1,0,48.15,0h2.98v2.85c0,57.63,0,115.26,0,172.88,0,11.58-7.27,18.86-18.82,18.86-52.47,0-104.95,0-157.42,0-9.57,0-16.76-6-18.21-15.09-.33-2.06-.06-3.71,1.64-5.33,6-5.75,11.84-11.68,17.66-17.62,1.2-1.23,2.17-1.54,3.87-.9,36.45,13.74,76.36-.39,96.02-33.99.89-1.51,1.85-1.96,3.52-1.95,11.31.07,22.62.08,33.93.02,6.12-.03,9.79-6.03,6.86-11.13-1.55-2.7-3.99-3.84-7.07-3.83-8.98.02-17.96,0-26.94,0-.9,0-1.8,0-2.67,0,.98-5.06,1.92-9.93,2.9-14.97,8.63,0,17.27,0,25.91,0,.99,0,2.02.02,2.97-.2,3.79-.86,6.32-4.41,5.87-8.12-.46-3.78-3.54-6.6-7.52-6.63-8.15-.06-16.3-.02-24.45-.02-.91,0-1.82,0-2.77,0-.97-4.99-1.91-9.85-2.91-14.97.84,0,1.72,0,2.6,0,8.9,0,17.8.01,26.69,0,5.02,0,8.43-3.1,8.39-7.56-.04-4.36-3.42-7.4-8.29-7.4-11.23-.02-22.45-.04-33.68.04-1.62.01-2.47-.51-3.34-1.87-2.8-4.38-5.8-8.62-8.87-13.14.89,0,1.76,0,2.64,0,14.55,0,29.11.03,43.66-.02,5.79-.02,9.52-5.43,7.23-10.45-1.47-3.22-4.14-4.53-7.65-4.52-16.38.03-32.76.02-49.15.02-.33,0-.67-.02-1,0-8.46.59-16.72.19-24.01-4.94-28.88-11.24-55.66-7.57-80.3,11.31-.51.39-1.01.78-1.9,1.47Zm75.12-37.79c-12.38,0-24.76-.02-37.13,0-4.65,0-7.99,3.13-8.05,7.38-.05,4.36,3.33,7.54,8.11,7.58,4.24.03,8.47,0,12.71,0,20.19,0,40.37-.02,60.56.02,3.48,0,6.19-1.2,7.71-4.41,2.41-5.1-1.34-10.55-7.27-10.56-12.21-.04-24.42-.01-36.63-.01Zm62.09,164.66c6.31,0,12.62,0,18.93,0,5.07,0,8.47-2.99,8.5-7.43.04-4.44-3.37-7.53-8.39-7.54-12.7-.01-25.4-.01-38.11,0-5.01,0-8.42,3.1-8.38,7.55.04,4.36,3.41,7.4,8.26,7.42,6.39.02,12.79,0,19.18,0Z"/>
    <path class="cls-1" d="m266.54,302.54c-2.87-12.64-10.02-21.58-21.58-27.18,6.18-8.2,8.6-17.18,6.61-27.11-1.53-7.61-5.48-13.83-11.48-18.75-11.61-9.51-28.9-9.53-40.55,0-6.94,5.68-11.05,13-11.98,21.94-.92,8.81,1.63,16.73,7.14,23.93-5.66,2.69-10.41,6.23-14.16,11-3.7,4.7-6.14,10-7.35,15.93-11.94-10.85-20.82-34.13-15.22-57.6,6.14-25.74,29.58-46.19,55.62-48.26,28.45-2.26,53.91,12.9,64.82,38.59,10.37,24.4,3.68,51.66-11.86,67.5Z"/>
    <path class="cls-1" d="m219.87,323.36c-11.12.02-21.5-2.73-31.21-8.14-1.66-.92-2.47-1.76-1.89-3.82.72-2.54.84-5.25,1.54-7.8,2.62-9.61,11.13-16.2,21.08-16.35,6.4-.09,12.8-.03,19.2-.02,12.74.01,21.5,7.5,23.57,20.13.09.57.14,1.16.24,1.73.9,5.03.89,5.01-3.74,7.37-9.04,4.6-18.63,6.91-28.78,6.91Z"/>
    <path class="cls-1" d="m219.82,272.24c-9.62,0-17.47-7.83-17.47-17.44,0-9.62,7.83-17.46,17.44-17.47,9.63,0,17.46,7.81,17.47,17.44,0,9.63-7.82,17.47-17.44,17.47Z"/>
    <path class="cls-1" d="m318.2,162.27v-39.03c12.92,12.92,26.13,26.13,39.03,39.03h-39.03Z"/>
  </g>
</svg>