<?xml version="1.0" encoding="UTF-8"?>
<svg id="Layer_1" data-name="Layer 1" xmlns="http://www.w3.org/2000/svg" xmlns:xlink="http://www.w3.org/1999/xlink" viewBox="0 0 1594.73 590.49">
  <defs>
    <style>
      .cls-1 {
        fill: #6d5636;
      }

      .cls-2 {
        fill: url(#radial-gradient-20);
      }

      .cls-3 {
        fill: url(#radial-gradient-21);
      }

      .cls-4 {
        fill: url(#radial-gradient-22);
      }

      .cls-5 {
        fill: url(#radial-gradient-24);
      }

      .cls-6 {
        fill: url(#radial-gradient-23);
      }

      .cls-7 {
        fill: url(#radial-gradient-25);
      }

      .cls-8 {
        fill: url(#radial-gradient-10);
      }

      .cls-9 {
        fill: url(#radial-gradient-19);
      }

      .cls-10 {
        fill: url(#radial-gradient-18);
      }

      .cls-11 {
        fill: url(#radial-gradient-17);
      }

      .cls-12 {
        fill: url(#radial-gradient-11);
      }

      .cls-13 {
        fill: url(#radial-gradient-16);
      }

      .cls-14 {
        fill: url(#radial-gradient-15);
      }

      .cls-15 {
        fill: url(#radial-gradient-12);
      }

      .cls-16 {
        fill: url(#radial-gradient-14);
      }

      .cls-17 {
        fill: url(#radial-gradient-13);
      }

      .cls-18 {
        fill: url(#radial-gradient-6);
      }

      .cls-19 {
        fill: url(#radial-gradient-5);
      }

      .cls-20 {
        fill: url(#radial-gradient-3);
      }

      .cls-21 {
        fill: url(#radial-gradient-4);
      }

      .cls-22 {
        fill: url(#radial-gradient-9);
      }

      .cls-23 {
        fill: url(#radial-gradient-8);
      }

      .cls-24 {
        fill: url(#radial-gradient-7);
      }

      .cls-25 {
        fill: url(#radial-gradient-2);
      }

      .cls-26 {
        fill: url(#radial-gradient);
      }
    </style>
    <radialGradient id="radial-gradient" cx="-58.69" cy="620.23" fx="-58.69" fy="620.23" r="971.04" gradientUnits="userSpaceOnUse">
      <stop offset="0" stop-color="#291b10"/>
      <stop offset="0" stop-color="#2f1e11"/>
      <stop offset="0" stop-color="#492d16"/>
      <stop offset="0" stop-color="#5f391b"/>
      <stop offset="0" stop-color="#70421e"/>
      <stop offset="0" stop-color="#7c4921"/>
      <stop offset="0" stop-color="#834c22"/>
      <stop offset=".02" stop-color="#854e23"/>
      <stop offset=".04" stop-color="#f7e68a"/>
      <stop offset=".07" stop-color="#8e5c25"/>
      <stop offset=".08" stop-color="#9a682d"/>
      <stop offset=".1" stop-color="#bb8a45"/>
      <stop offset=".12" stop-color="#e8b965"/>
      <stop offset=".17" stop-color="#f8e888"/>
      <stop offset=".25" stop-color="#b2813b"/>
      <stop offset=".32" stop-color="#e6b963"/>
      <stop offset=".42" stop-color="#b2813b"/>
      <stop offset=".53" stop-color="#f8e888"/>
      <stop offset=".58" stop-color="#e8b965"/>
      <stop offset=".63" stop-color="#e8b965"/>
      <stop offset=".69" stop-color="#8e5c25"/>
      <stop offset=".7" stop-color="#97682e"/>
      <stop offset=".7" stop-color="#b18a47"/>
      <stop offset=".71" stop-color="#dac06e"/>
      <stop offset=".72" stop-color="#f7e68a"/>
      <stop offset=".78" stop-color="#8e5c25"/>
      <stop offset=".87" stop-color="#854f23"/>
      <stop offset=".88" stop-color="#854e23"/>
      <stop offset=".98" stop-color="#291b10"/>
    </radialGradient>
    <radialGradient id="radial-gradient-2" cx="-58.69" cy="619.9" fx="-58.69" fy="619.9" r="970.84" xlink:href="#radial-gradient"/>
    <radialGradient id="radial-gradient-3" cx="-58.69" cy="620.89" fx="-58.69" fy="620.89" r="971.72" xlink:href="#radial-gradient"/>
    <radialGradient id="radial-gradient-4" cx="-58.69" cy="619.9" fx="-58.69" fy="619.9" r="970.84" xlink:href="#radial-gradient"/>
    <radialGradient id="radial-gradient-5" cx="-58.69" cy="619.9" fx="-58.69" fy="619.9" r="970.84" xlink:href="#radial-gradient"/>
    <radialGradient id="radial-gradient-6" cx="-58.69" cy="619.9" fx="-58.69" fy="619.9" r="970.84" xlink:href="#radial-gradient"/>
    <radialGradient id="radial-gradient-7" cx="222.48" cy="542.49" fx="222.48" fy="542.49" r="1610.83" xlink:href="#radial-gradient"/>
    <radialGradient id="radial-gradient-8" cx="222.48" cy="542.49" fx="222.48" fy="542.49" r="1610.83" xlink:href="#radial-gradient"/>
    <radialGradient id="radial-gradient-9" cx="222.48" cy="542.49" fx="222.48" fy="542.49" r="1610.83" xlink:href="#radial-gradient"/>
    <radialGradient id="radial-gradient-10" cx="222.48" cy="542.49" fx="222.48" fy="542.49" r="1610.83" xlink:href="#radial-gradient"/>
    <radialGradient id="radial-gradient-11" cx="222.48" cy="542.49" fx="222.48" fy="542.49" r="1610.83" xlink:href="#radial-gradient"/>
    <radialGradient id="radial-gradient-12" cx="222.48" cy="542.49" fx="222.48" fy="542.49" r="1610.83" xlink:href="#radial-gradient"/>
    <radialGradient id="radial-gradient-13" cx="222.48" cy="542.49" fx="222.48" fy="542.49" r="1610.83" xlink:href="#radial-gradient"/>
    <radialGradient id="radial-gradient-14" cx="222.48" cy="542.49" fx="222.48" fy="542.49" r="1610.83" xlink:href="#radial-gradient"/>
    <radialGradient id="radial-gradient-15" cx="222.48" cy="542.49" fx="222.48" fy="542.49" r="1610.83" xlink:href="#radial-gradient"/>
    <radialGradient id="radial-gradient-16" cx="222.48" cy="542.49" fx="222.48" fy="542.49" r="1610.83" xlink:href="#radial-gradient"/>
    <radialGradient id="radial-gradient-17" cx="222.48" cy="542.49" fx="222.48" fy="542.49" r="1610.83" xlink:href="#radial-gradient"/>
    <radialGradient id="radial-gradient-18" cx="222.48" cy="542.49" fx="222.48" fy="542.49" r="1610.83" xlink:href="#radial-gradient"/>
    <radialGradient id="radial-gradient-19" cx="222.48" cy="542.49" fx="222.48" fy="542.49" r="1610.83" xlink:href="#radial-gradient"/>
    <radialGradient id="radial-gradient-20" cx="222.48" cy="542.49" fx="222.48" fy="542.49" r="1610.83" xlink:href="#radial-gradient"/>
    <radialGradient id="radial-gradient-21" cx="346.55" cy="374.02" fx="346.55" fy="374.02" r="1992.23" xlink:href="#radial-gradient"/>
    <radialGradient id="radial-gradient-22" cx="346.55" cy="374.02" fx="346.55" fy="374.02" r="1992.23" xlink:href="#radial-gradient"/>
    <radialGradient id="radial-gradient-23" cx="346.55" cy="374.02" fx="346.55" fy="374.02" r="1992.23" xlink:href="#radial-gradient"/>
    <radialGradient id="radial-gradient-24" cx="346.55" cy="374.02" fx="346.55" fy="374.02" r="1992.23" xlink:href="#radial-gradient"/>
    <radialGradient id="radial-gradient-25" cx="346.55" cy="374.02" fx="346.55" fy="374.02" r="1992.23" xlink:href="#radial-gradient"/>
  </defs>
  <g>
    <g>
      <path class="cls-1" d="m270.43,244.72c-18.66-21.08-41.54-34.92-65.02-48.77-34.33-19.86-68.64-39.14-101.76-60.82C60.3,106.23,33.79,65.1,26.57,11.52c0-2.41.8-4.05.2-5.86-.33,0-.86-5.55-1.15-5.4-2.61,1.41-2.87,3.36-3.15,3.36-2.63,4.81-6.13,12.89-7.94,18.31C-2.32,76.14,8.52,122.49,47.66,162.23c16.85,17.47,36.72,30.11,57.8,40.94,41.55,21.08,83.09,41.55,123.43,62.02,24.08,12.05,40.94,30.11,48.17,56.59,1.81,6.62,5.09,11.27,6.9,18.5,1.51,0,3.6-1.89,3.6-1.89.84-.75,1.66-1.84,2.26-3.04,6.02-12.04,5.91-22,5.3-35.85-.6-21.68-10.84-39.14-24.69-54.79Z"/>
      <path class="cls-1" d="m317.03,67.77c1.65-1.32,4.33-2.73,5.9-4.55-1.21-7.23-9.75-5.14-16.38-6.95-6.63-1.81-13.85-1.81-19.27-7.23-.6-.59-2.41-.59-3.61,0-7.83,2.41-16.26,4.21-24.08,6.63-7.83,2.41-11.76,1.63-19.59-1.39-1.81-.72-5.83-4.68-9.19-3.7-2.23.65-2.88,2.77-4.56,2.77,3.61,3.02,8.48,7.73,12.09,10.73-9.62,4.83-21.38,8.17-30.41,13-1.8.59-1.57,2.59-3.38,3.8,1.81,1.21,3.41,2.67,5.21,3.89,4.82,2.4,8.16,4.32,12.97,6.72-5.42,10.84-11.31,23.19-16.13,33.42-44.01-20.85-89.07-49.62-116.69-90.58,0-.01-.02-.04-.02-.03-.3.48-.4.45-.57.69-.23.32-.41.33-.71.71-.63.8-1.54,1-1.54,1-1.8,22.27,2.74,44.25,14.78,60.51,13.24,18.66,31.91,31.31,51.78,40.95,22.88,11.43,46.97,22.28,70.45,33.72,23.48,12.05,44.56,26.5,60.2,48.18,1.21,1.8,2.41,2.4,4.22,4.81.79-2.38,4.7-4.06,5.54-6.29,2.33-6.25,1.56-12.63,2.89-18.39,4.82-20.47,1.21-40.35-4.21-60.22-3.61-11.43-6.63-22.27-8.44-33.72-3.01-18.66,14.09-36.66,32.76-38.47Z"/>
      <path class="cls-1" d="m203,272.42c-22.27-10.24-45.15-19.28-68.64-27.7-42.14-15.65-75.42-39.94-107.94-70.64-.6-.6-3.79-6.62-4.54-7.3s-4.45,5.22-5.54,6.29c.2,1.4.32,2.63.42,3.74.28,3.15.93,6.26,1.96,9.25,3.84,11.11,7.81,22.98,13.28,33.37,12.65,23.49,33.11,39.14,57.21,49.37,31.3,12.64,62.62,25.29,94.52,36.73,27.09,10.23,53.1,20.22,74.78,41.29.6.6,1.17,1.19,1.77,1.8.6,0,7.54-3.87,7.54-4.46.33-.2.61-.37.33-.97-2.54-5.48-8.82-7.72-10.96-13.59-10.84-26.49-29.5-45.75-54.19-57.19Z"/>
      <path class="cls-1" d="m205.13,388.78c-18.66,34.31-47.28,60.05-80.4,80.52-19.87,12.04-40.34,22.88-60.21,34.32-15.05,8.43-29.5,17.46-40.94,30.71-14.45,16.25-21.77,32.07-23.57,56.15,2.61-1.33,7.54-4.24,9.35-5.45,4.21-3,2.17-1.93,6.4-4.35,30.1-18.06,59.6-36.12,90.31-52.98,22.89-12.64,43.95-27.09,62.01-46.37,24.7-26.49,41.06-64.09,43.47-100.21-1.14-.13-6.14,6.93-6.41,7.66Z"/>
      <path class="cls-1" d="m124.72,444.02c26.49-13.86,46.97-34.93,58.4-63.82,1.81-4.82,3.02-10.24,4.22-15.06h-1.21c-1.81,1.81-3.62,3.62-5.42,5.42-16.86,16.86-37.94,28.3-58.41,39.74-30.7,16.26-60.81,33.12-90.91,49.98-15.65,8.44-24.08,21.07-27.69,39.14,1.8-.6,3.01-1.2,4.21-1.8,19.87-9.03,39.74-18.67,59.61-27.7,18.66-9.03,38.53-16.25,57.2-25.88Z"/>
      <path class="cls-1" d="m214.44,340.46c7.22,11.43,9.03,24.68,9.63,37.93.6,13.25.6,25.89,1.21,39.15.59,19.26,10.68,31.86,27.55,41.49.59-1.2,3.88-3.23,3.88-4.44,1.81-22.28-2.53-41.27-6.14-64.16-3.21-18.13-2.98-38.31-30.59-56.26-1.55-1.01-6.3,5.29-5.54,6.29Z"/>
    </g>
    <g>
      <path class="cls-1" d="m399.15,438.29l-10.85,9.97v13.12h-6.21v-64.9h6.21v44l27.47-25.1h7.7l-19.68,18.81,21.52,27.2h-7.61l-18.54-23.09Z"/>
      <path class="cls-1" d="m507.52,450.27l3.5,4.02c-4.11,4.9-10.41,7.52-17.67,7.52-14.35,0-24.23-9.8-24.23-23.44s9.53-23.36,22.74-23.36c12.33,0,21.61,9.01,22.04,21.96l-37.79,7.35c2.27,7.44,8.75,11.98,17.32,11.98,5.69,0,10.67-2.01,14.08-6.04Zm-32.36-12.33c0,.7,0,1.31.09,1.92l32.45-6.3c-1.31-7.52-7.35-13.21-15.83-13.21-9.8,0-16.71,7.17-16.71,17.58Z"/>
      <path class="cls-1" d="m601.29,450.27l3.5,4.02c-4.11,4.9-10.41,7.52-17.67,7.52-14.35,0-24.23-9.8-24.23-23.44s9.53-23.36,22.74-23.36c12.33,0,21.61,9.01,22.04,21.96l-37.79,7.35c2.27,7.44,8.75,11.98,17.32,11.98,5.69,0,10.67-2.01,14.08-6.04Zm-32.36-12.33c0,.7,0,1.31.09,1.92l32.45-6.3c-1.31-7.52-7.35-13.21-15.83-13.21-9.8,0-16.71,7.17-16.71,17.58Z"/>
      <path class="cls-1" d="m707.91,438.38c0,14-9.8,23.44-22.92,23.44-7.35,0-13.65-3.15-17.49-9.1v25.63h-6.21v-62.98h5.95v9.1c3.76-6.12,10.15-9.45,17.76-9.45,13.12,0,22.92,9.45,22.92,23.36Zm-6.21,0c0-10.67-7.43-17.93-17.14-17.93s-17.14,7.26-17.14,17.93,7.35,17.93,17.14,17.93,17.14-7.17,17.14-17.93Z"/>
      <path class="cls-1" d="m760.12,400.85c0-2.36,2.01-4.37,4.55-4.37s4.55,1.92,4.55,4.29c0,2.54-1.92,4.55-4.55,4.55s-4.55-2.01-4.55-4.46Zm1.4,14.52h6.21v46.01h-6.21v-46.01Z"/>
      <path class="cls-1" d="m868.32,434.7v26.68h-6.21v-26.07c0-9.71-5.07-14.7-13.82-14.7-9.88,0-16.09,6.12-16.09,16.62v24.14h-6.21v-46.01h5.95v8.48c3.32-5.6,9.53-8.83,17.49-8.83,11.2,0,18.89,6.47,18.89,19.68Z"/>
      <path class="cls-1" d="m968.91,415.37v40.41c0,15.83-7.78,23.01-23.01,23.01-8.4,0-16.62-2.54-21.43-7.09l3.15-4.72c4.37,3.94,11.02,6.3,18.11,6.3,11.63,0,16.97-5.34,16.97-16.71v-5.86c-3.85,5.86-10.41,8.92-17.93,8.92-13.12,0-23.09-9.19-23.09-22.39s9.97-22.22,23.09-22.22c7.7,0,14.35,3.15,18.19,9.19v-8.83h5.95Zm-6.04,21.87c0-9.97-7.35-16.79-17.49-16.79s-17.41,6.82-17.41,16.79,7.26,16.88,17.41,16.88,17.49-6.91,17.49-16.88Z"/>
      <path class="cls-1" d="m1142,400.15v61.23h-6.21v-10.32c-4.11,7.44-11.28,10.85-20.56,10.85-14.35,0-23.35-8.83-23.35-25.28v-36.48h6.47v36.3c0,13.12,6.91,19.68,18.11,19.68s19.07-6.74,19.07-21.17v-34.81h6.47Z"/>
      <path class="cls-1" d="m1271.45,409.95v5.42h14.17v5.25h-14v40.76h-6.21v-51.7c0-8.22,4.9-13.65,13.91-13.65,3.41,0,6.91.96,9.18,2.89l-2.1,4.64c-1.75-1.49-4.2-2.27-6.82-2.27-5.34,0-8.13,2.97-8.13,8.66Z"/>
      <path class="cls-1" d="m1340.55,400.85c0-2.36,2.01-4.37,4.55-4.37s4.55,1.92,4.55,4.29c0,2.54-1.92,4.55-4.55,4.55s-4.55-2.01-4.55-4.46Zm1.4,14.52h6.21v46.01h-6.21v-46.01Z"/>
      <path class="cls-1" d="m1429.59,415.02v6.04c-.53,0-1.05-.09-1.49-.09-9.62,0-15.48,6.12-15.48,16.97v23.44h-6.21v-46.01h5.95v9.01c2.89-6.12,8.75-9.36,17.23-9.36Z"/>
      <path class="cls-1" d="m1475.68,456.14l2.8-4.9c3.67,2.89,9.88,5.16,16.36,5.16,8.75,0,12.33-2.97,12.33-7.52,0-11.98-29.83-2.54-29.83-20.73,0-7.52,6.47-13.12,18.19-13.12,5.95,0,12.42,1.66,16.27,4.29l-2.71,4.99c-.26-.18-.53-.36-.79-.52-3.85-2.42-8.35-3.41-12.76-3.41-8.31,0-11.98,3.24-11.98,7.61,0,12.42,29.83,3.06,29.83,20.73,0,7.96-7,13.12-18.98,13.12-7.61,0-14.96-2.45-18.72-5.69Z"/>
      <path class="cls-1" d="m1588.43,458.58c-2.36,2.19-6.04,3.24-9.62,3.24-8.66,0-13.47-4.9-13.47-13.38v-43.12h6.21v10.06h13.91v5.25h-13.91v27.47c0,5.42,2.71,8.4,7.87,8.4,2.62,0,5.07-.79,6.82-2.36l2.19,4.46Z"/>
    </g>
    <rect class="cls-1" x="1086.49" y="475.76" width="63.62" height="6.06"/>
    <path class="cls-1" d="m432.45,107.68c-12.2,4.49-22.33,10.85-30.11,18.89-7.8,8.06-13.52,17.73-17.02,28.74-3.42,10.77-5.16,22.77-5.16,35.62v166.35h52.65l5.54-6.29-5.54-91.32h149.91l5.54-6.29-5.54-44.07-1.11-.09h-148.8v-18.64c0-5.35.72-10.34,2.15-14.84,1.36-4.27,3.64-7.92,7-11.18,3.37-3.26,8.05-5.9,13.92-7.86,6.06-2.02,13.8-3.04,22.99-3.04h103.85l5.54-6.29-5.54-46.36h-106.77c-16.82,0-31.45,2.25-43.5,6.69Z"/>
    <path class="cls-1" d="m816.62,228.31c8.17-4.59,14.72-10.45,19.53-17.52,6.5-9.54,9.78-22.13,9.78-37.41,0-10.51-1.7-20.31-5.06-29.11-3.43-8.96-8.84-16.79-16.09-23.24-7.17-6.39-16.36-11.4-27.3-14.88-10.77-3.42-23.87-5.16-38.91-5.16h-108.58c-16.27,0-25.23,8.83-25.23,24.86v206.57c0,16.03,8.97,24.85,25.23,24.85h109.68c15.06,0,28.18-1.8,38.96-5.36,10.92-3.6,20.1-8.66,27.26-15.04,7.25-6.46,12.66-14.27,16.09-23.25,3.36-8.8,5.07-18.6,5.07-29.11,0-15.29-3.49-28.07-10.36-38-5.09-7.32-11.81-13.43-20.06-18.22Zm-139.93-75.41h83.33c11.8,0,20.34,2.5,25.37,7.42,5.07,4.96,7.54,11.51,7.54,20.01,0,10.67-3.45,24.86-33.27,24.86h-83l.03-52.29Zm109.72,144.95c-5.15,4.74-13.79,7.15-25.66,7.15h-84.09v-54.48h84.09c29.82,0,33.27,15.44,33.27,27.05,0,8.93-2.49,15.56-7.61,20.28Z"/>
    <path class="cls-1" d="m1088.73,227.22c-6.68-7.33-15.82-13.34-27.16-17.85-11.24-4.46-25.73-6.73-43.07-6.73h-57.76c-6.76,0-12.27-.71-16.38-2.13-3.92-1.34-7.05-3.16-9.33-5.45-2.26-2.26-3.8-4.72-4.67-7.55-.95-3.05-1.43-6.21-1.43-9.37,0-7.35,2.09-13.16,6.4-17.77,4.17-4.46,11.24-6.72,21.02-6.72h131.26l5.54-6.29-5.54-46.33v-.03h-129.79c-14.13,0-26.48,1.88-36.71,5.59-10.38,3.76-19.02,9.12-25.72,15.95-6.71,6.86-11.65,15.04-14.66,24.35-2.94,9.09-4.44,19.11-4.44,29.8,0,8.92,1.22,17.95,3.64,26.83,2.5,9.21,7.04,17.59,13.45,24.92,6.44,7.38,15.36,13.35,26.5,17.74,10.99,4.34,25.23,6.55,42.34,6.55h57.4c6.99,0,12.81.77,17.29,2.3,4.32,1.48,7.72,3.39,10.13,5.7,2.37,2.26,4,4.85,4.98,7.9,1.06,3.29,1.6,6.68,1.6,10.06,0,7.81-2.26,13.98-6.91,18.83-4.53,4.72-12.05,7.13-22.34,7.13l-138.15-6.29-5.54,6.29v52.64h142.22c14.63,0,27.31-1.94,37.66-5.78,10.49-3.88,19.26-9.36,26.06-16.3,6.81-6.95,11.86-15.25,15.01-24.68,3.06-9.21,4.62-19.43,4.62-30.38,0-9.13-1.23-18.39-3.62-27.54-2.52-9.48-7.18-18.02-13.88-25.38Z"/>
    <path class="cls-1" d="m1589.19,304.64h-100.54c-9.19,0-16.85-1.02-22.78-3.05-5.77-1.96-10.39-4.6-13.76-7.87-3.34-3.23-5.62-6.99-6.98-11.5-1.45-4.74-2.17-9.87-2.17-15.25V100.99l-47.11-6.29-5.54,6.29v166.35c0,12.87,1.74,24.85,5.16,35.63,3.5,11.01,9.22,20.69,17.02,28.73,7.78,8.04,17.91,14.4,30.1,18.88,12.05,4.45,26.68,6.69,43.51,6.69h103.1l5.54-6.29-5.54-46.33v-.02Z"/>
    <path class="cls-1" d="m1354.42,149.92c-3.27-9.64-8.43-18.17-15.34-25.35-6.91-7.16-15.76-12.94-26.33-17.2-10.51-4.23-23.17-6.38-37.6-6.38h-115.38c-8.74,0-15.82,7.08-15.82,15.82v36.83l.31,133.74v69.89h52.65l5.54-6.29-5.54-82.88v-4.79c0-.88.15-1.25.14-1.27.07-.04.45-.2,1.33-.2h76.78c15.01,0,28.04-2.48,38.72-7.38,10.67-4.88,19.52-11.31,26.29-19.12,6.75-7.79,11.68-16.74,14.66-26.6,2.92-9.68,4.41-19.49,4.41-29.16,0-10.21-1.62-20.2-4.82-29.68Zm-49.96,42.98c-1.15,3.43-2.88,6.53-5.16,9.22-2.2,2.6-5.2,4.76-8.9,6.4-3.75,1.67-8.38,2.51-13.79,2.51h-79.7v-57.4h80.06c10.33,0,17.58,2.62,22.16,8.01,4.77,5.62,7.09,12.21,7.09,20.14,0,3.85-.59,7.59-1.76,11.11Z"/>
    <polygon class="cls-1" points="1091.88 400.15 1094.62 397.32 1098.35 400.15 1096.57 402.94 1091.88 400.15"/>
    <polygon class="cls-1" points="1142 461.38 1144.74 458.55 1143.37 455.83 1140.88 454.58 1139.32 457.47 1142 461.38"/>
    <polygon class="cls-1" points="1135.53 400.15 1138.27 397.32 1142 400.15 1139.79 404.25 1135.53 400.15"/>
    <polygon class="cls-1" points="1288.51 398.93 1291.24 396.09 1289.14 400.73 1286.41 403.57 1285.47 399.83 1288.51 398.93"/>
    <polygon class="cls-1" points="1285.62 415.37 1288.36 412.54 1288.36 417.78 1285.62 420.62 1282.03 418.08 1285.62 415.37"/>
    <polygon class="cls-1" points="1271.62 461.38 1274.36 458.55 1272.03 455.59 1270.23 454.34 1269.29 456.14 1268.59 457.86 1269.52 459.34 1271.62 461.38"/>
    <polygon class="cls-1" points="1340.88 399.22 1345.05 394.57 1351.7 400.37 1347.79 404.47 1345.1 401.58 1340.88 399.22"/>
    <polygon class="cls-1" points="1341.95 415.37 1344.68 412.54 1348.16 415.37 1345.65 417.77 1341.95 415.37"/>
    <polygon class="cls-1" points="1348.16 461.38 1350.89 458.55 1346.27 453.56 1348.16 461.38"/>
    <polygon class="cls-1" points="1406.41 415.37 1409.15 412.54 1412.36 415.37 1409.81 418.94 1406.41 415.37"/>
    <polygon class="cls-1" points="1429.59 415.02 1432.33 412.19 1432.33 418.22 1429.59 421.06 1426.22 417.14 1429.59 415.02"/>
    <polygon class="cls-1" points="1412.62 461.38 1415.36 458.55 1413.25 454.34 1411.22 453.09 1410.28 455.91 1410.67 460.28 1412.62 461.38"/>
    <polygon class="cls-1" points="1511.81 419.31 1514.54 416.47 1511.83 421.46 1509.1 424.3 1506.56 420.03 1511.81 419.31"/>
    <polygon class="cls-1" points="1478.48 451.24 1481.22 448.4 1481.56 450.75 1479.52 453.64 1478.48 451.24"/>
    <polygon class="cls-1" points="1565.33 405.32 1568.07 402.48 1571.55 405.32 1569.32 407.68 1565.33 405.32"/>
    <polygon class="cls-1" points="1585.45 415.37 1588.19 412.54 1588.19 417.78 1585.45 420.62 1583.08 418.31 1585.45 415.37"/>
    <polygon class="cls-1" points="1586.24 454.12 1588.98 451.29 1591.16 455.75 1588.43 458.58 1585.63 457 1586.24 454.12"/>
    <polygon class="cls-1" points="1086.49 475.76 1089.76 472.17 1094.62 477.03 1094.62 480.68 1091.08 480.66 1086.49 475.76"/>
    <polygon class="cls-1" points="1147.85 478.47 1153.39 472.17 1153.39 478.23 1150.11 481.82 1143.25 481.49 1147.85 478.47"/>
    <polygon class="cls-1" points="962.96 415.37 965.7 412.54 971.64 412.54 968.91 415.37 964.96 416.75 962.96 415.37"/>
    <polygon class="cls-1" points="927.62 466.98 930.71 467.76 927.97 469.55 927.62 466.98"/>
    <polyline class="cls-1" points="930.36 464.14 930.71 467.76 927.97 469.55 927.62 466.98"/>
    <polygon class="cls-1" points="868.32 461.38 871.06 458.55 865.29 455.41 868.32 461.38"/>
    <polygon class="cls-1" points="832.2 461.38 834.93 458.55 831.06 453.48 832.2 461.38"/>
    <polygon class="cls-1" points="761.52 415.37 764.26 412.54 770.47 412.54 767.73 415.37 764.63 419.72 761.52 415.37"/>
    <polygon class="cls-1" points="767.73 461.38 770.47 458.55 766 454.34 764.63 459.11 767.73 461.38"/>
    <polygon class="cls-1" points="661.29 415.37 664.02 412.54 667.24 415.37 664.07 418.78 661.29 415.37"/>
    <polygon class="cls-1" points="667.5 478.35 670.23 475.52 665.4 469.66 667.5 478.35"/>
    <polygon class="cls-1" points="607.67 436.98 610.41 434.14 605.06 429.41 607.67 436.98"/>
    <polygon class="cls-1" points="604.79 454.3 607.52 451.46 604.02 447.44 601.29 450.27 604.79 454.3"/>
    <polygon class="cls-1" points="513.91 436.98 516.65 434.14 511.28 429.41 513.91 436.98"/>
    <polygon class="cls-1" points="507.52 450.27 510.26 447.44 513.76 451.46 511.02 454.3 507.52 450.27"/>
    <polygon class="cls-1" points="415.77 415.37 418.51 412.54 426.21 412.54 423.47 415.37 417.65 417.53 415.77 415.37"/>
    <polygon class="cls-1" points="425.31 461.38 428.04 458.55 420.66 455.51 425.31 461.38"/>
    <polygon class="cls-1" points="388.31 461.38 391.04 458.55 387.33 452.23 388.31 461.38"/>
    <polygon class="cls-1" points="388.31 396.48 391.04 393.64 384.83 393.64 382.1 396.48 388.31 396.48"/>
  </g>
  <g>
    <g>
      <path class="cls-26" d="m275.97,238.43c-18.66-21.08-41.54-34.92-65.02-48.77-34.33-19.86-68.64-39.14-101.76-60.82C65.83,99.94,36.93,59.6,29.71,6.02c-.46-2.15-1.35-3.71-2.11-5.28-.22-.46-.68-.74-1.19-.74h0c-.56,0-1.06.34-1.25.86-1.69,4.6-3.4,9.69-5.1,14.78C3.22,69.85,14.06,116.2,53.19,155.94c16.85,17.47,36.72,30.11,57.8,40.94,41.55,21.08,83.09,41.55,123.43,62.02,24.08,12.05,40.94,30.11,48.17,56.59,1.81,6.62,3.61,13.25,5.42,20.48,1.03.64,1.8-.62,1.8-.62.6-1.19,1.21-1.79,1.81-3,6.02-12.04,9.63-25.29,9.03-39.14-.6-21.68-10.84-39.14-24.69-54.79Z"/>
      <path class="cls-25" d="m318.12,63.82c1.8,0,3.01-.6,4.82-.6-1.21-7.23-4.21-11.43-10.84-13.24-6.63-1.81-13.85-1.81-19.27-7.23-.6-.59-2.41-.59-3.61,0-7.83,2.41-16.26,4.21-24.08,6.63-7.83,2.41-15.66,4.21-23.49,1.2-3.01-1.2-6.62,0-10.83,0,3.61,3.02,6.01,6.02,9.62,9.03-9.62,4.83-18.66,9.03-27.69,13.86-1.8.59-3.01,2.4-4.82,3.61,1.81,1.21,3.02,2.4,4.82,3.62,4.82,2.4,9.63,4.82,14.45,7.22-5.42,10.84-10.24,20.47-15.05,30.7-45.75-21.67-89.1-44.56-122.23-84.29-1.8,22.27,5.42,40.33,17.47,56.59,13.24,18.66,31.91,31.31,51.78,40.95,22.88,11.43,46.97,22.28,70.45,33.72,23.48,12.05,44.56,26.5,60.2,48.18,1.21,1.8,2.41,2.4,4.22,4.81,3.01-9.03,6.62-16.86,8.43-24.68,4.82-20.47,1.21-40.35-4.21-60.22-3.61-11.43-6.63-22.27-8.44-33.72-3.01-18.66,9.63-34.31,28.31-36.12Z"/>
      <path class="cls-20" d="m208.53,266.13c-22.27-10.24-45.15-19.28-68.64-27.7-42.14-15.65-80.68-36.73-113.2-67.43-1.21-1.2-2.4-2.4-4.82-4.21.6,4.21.53,7.32,1.21,9.62,4.21,12.05,8.43,25.29,14.45,36.73,12.65,23.49,33.11,39.14,57.21,49.37,31.3,12.64,62.62,25.29,94.52,36.73,27.09,10.23,53.59,22.27,75.27,43.35.6.6,1.73,1.59,2.33,2.19.75-.43,1.28-.99,1.28-1.59-1.81-6.62-3.01-13.24-5.42-19.88-10.84-26.49-29.5-45.75-54.19-57.19Z"/>
      <path class="cls-21" d="m210.34,382.33c-18.66,34.31-46.96,60.22-80.08,80.68-19.87,12.04-40.34,22.88-60.21,34.32-15.05,8.43-29.5,17.46-40.94,30.71-14.45,16.25-24.69,34.92-26.5,59.01,2.4-1.81,4.21-2.4,6.02-3.62,4.21-3,8.43-6.62,12.65-9.03,30.1-18.06,59.6-36.12,90.31-52.98,22.89-12.64,43.95-27.09,62.01-46.37,24.7-26.49,35.53-57.8,37.93-93.92-.59,0-.92.65-1.2,1.2Z"/>
      <path class="cls-19" d="m130.26,437.73c26.49-13.86,46.97-34.93,58.4-63.82,1.81-4.82,3.02-10.24,4.22-15.06h-1.21c-1.81,1.81-3.62,3.62-5.42,5.42-16.86,16.86-37.94,28.3-58.41,39.74-30.7,16.26-60.81,33.12-90.91,49.98-15.65,8.44-24.08,21.07-27.69,39.14,1.8-.6,3.01-1.2,4.21-1.8,19.87-9.03,39.74-18.67,59.61-27.7,18.66-9.03,38.53-16.25,57.2-25.88Z"/>
      <path class="cls-18" d="m219.97,334.17c7.22,11.43,9.03,24.68,9.63,37.93.6,13.25.6,25.89,1.21,39.15.59,19.26,9.03,33.71,25.89,43.34q.59-1.2.59-2.41c1.81-22.28,2.41-45.15-1.2-68.04-3.62-20.46-19.87-42.75-36.13-49.97Z"/>
    </g>
    <g>
      <path class="cls-24" d="m401.89,435.45l-10.85,9.97v13.12h-6.21v-64.9h6.21v44l27.47-25.1h7.7l-19.68,18.81,21.52,27.2h-7.61l-18.54-23.09Z"/>
      <path class="cls-23" d="m510.26,447.44l3.5,4.02c-4.11,4.9-10.41,7.52-17.67,7.52-14.35,0-24.23-9.8-24.23-23.44s9.53-23.36,22.74-23.36c12.33,0,21.61,9.01,22.04,21.96l-37.79,7.35c2.27,7.44,8.75,11.98,17.32,11.98,5.69,0,10.67-2.01,14.08-6.04Zm-32.36-12.33c0,.7,0,1.31.09,1.92l32.45-6.3c-1.31-7.52-7.35-13.21-15.83-13.21-9.8,0-16.71,7.17-16.71,17.58Z"/>
      <path class="cls-22" d="m604.02,447.44l3.5,4.02c-4.11,4.9-10.41,7.52-17.67,7.52-14.35,0-24.23-9.8-24.23-23.44s9.53-23.36,22.74-23.36c12.33,0,21.61,9.01,22.04,21.96l-37.79,7.35c2.27,7.44,8.75,11.98,17.32,11.98,5.69,0,10.67-2.01,14.08-6.04Zm-32.36-12.33c0,.7,0,1.31.09,1.92l32.45-6.3c-1.31-7.52-7.35-13.21-15.83-13.21-9.8,0-16.71,7.17-16.71,17.58Z"/>
      <path class="cls-8" d="m710.65,435.54c0,14-9.8,23.44-22.92,23.44-7.35,0-13.65-3.15-17.49-9.1v25.63h-6.21v-62.98h5.95v9.1c3.76-6.12,10.15-9.45,17.76-9.45,13.12,0,22.92,9.45,22.92,23.36Zm-6.21,0c0-10.67-7.43-17.93-17.14-17.93s-17.14,7.26-17.14,17.93,7.35,17.93,17.14,17.93,17.14-7.17,17.14-17.93Z"/>
      <path class="cls-12" d="m762.86,398.02c0-2.36,2.01-4.37,4.55-4.37s4.55,1.92,4.55,4.29c0,2.54-1.92,4.55-4.55,4.55s-4.55-2.01-4.55-4.46Zm1.4,14.52h6.21v46.01h-6.21v-46.01Z"/>
      <path class="cls-15" d="m871.06,431.87v26.68h-6.21v-26.07c0-9.71-5.07-14.7-13.82-14.7-9.88,0-16.09,6.12-16.09,16.62v24.14h-6.21v-46.01h5.95v8.48c3.32-5.6,9.53-8.83,17.49-8.83,11.2,0,18.89,6.47,18.89,19.68Z"/>
      <path class="cls-17" d="m971.64,412.54v40.41c0,15.83-7.78,23.01-23.01,23.01-8.4,0-16.62-2.54-21.43-7.09l3.15-4.72c4.37,3.94,11.02,6.3,18.11,6.3,11.63,0,16.97-5.34,16.97-16.71v-5.86c-3.85,5.86-10.41,8.92-17.93,8.92-13.12,0-23.09-9.19-23.09-22.39s9.97-22.22,23.09-22.22c7.7,0,14.35,3.15,18.19,9.19v-8.83h5.95Zm-6.04,21.87c0-9.97-7.35-16.79-17.49-16.79s-17.41,6.82-17.41,16.79,7.26,16.88,17.41,16.88,17.49-6.91,17.49-16.88Z"/>
      <path class="cls-16" d="m1144.74,397.32v61.23h-6.21v-10.32c-4.11,7.44-11.28,10.85-20.56,10.85-14.35,0-23.35-8.83-23.35-25.28v-36.48h6.47v36.3c0,13.12,6.91,19.68,18.11,19.68s19.07-6.74,19.07-21.17v-34.81h6.47Z"/>
      <path class="cls-14" d="m1274.19,407.11v5.42h14.17v5.25h-14v40.76h-6.21v-51.7c0-8.22,4.9-13.65,13.91-13.65,3.41,0,6.91.96,9.18,2.89l-2.1,4.64c-1.75-1.49-4.2-2.27-6.82-2.27-5.34,0-8.13,2.97-8.13,8.66Z"/>
      <path class="cls-13" d="m1343.28,398.02c0-2.36,2.01-4.37,4.55-4.37s4.55,1.92,4.55,4.29c0,2.54-1.92,4.55-4.55,4.55s-4.55-2.01-4.55-4.46Zm1.4,14.52h6.21v46.01h-6.21v-46.01Z"/>
      <path class="cls-11" d="m1432.33,412.19v6.04c-.53,0-1.05-.09-1.49-.09-9.62,0-15.48,6.12-15.48,16.97v23.44h-6.21v-46.01h5.95v9.01c2.89-6.12,8.75-9.36,17.23-9.36Z"/>
      <path class="cls-10" d="m1478.42,453.3l2.8-4.9c3.67,2.89,9.88,5.16,16.36,5.16,8.75,0,12.33-2.97,12.33-7.52,0-11.98-29.83-2.54-29.83-20.73,0-7.52,6.47-13.12,18.19-13.12,5.95,0,12.42,1.66,16.27,4.29l-2.71,4.99c-.26-.18-.53-.36-.79-.52-3.85-2.42-8.35-3.41-12.76-3.41-8.31,0-11.98,3.24-11.98,7.61,0,12.42,29.83,3.06,29.83,20.73,0,7.96-7,13.12-18.98,13.12-7.61,0-14.96-2.45-18.72-5.69Z"/>
      <path class="cls-9" d="m1591.16,455.75c-2.36,2.19-6.04,3.24-9.62,3.24-8.66,0-13.47-4.9-13.47-13.38v-43.12h6.21v10.06h13.91v5.25h-13.91v27.47c0,5.42,2.71,8.4,7.87,8.4,2.62,0,5.07-.79,6.82-2.36l2.19,4.46Z"/>
    </g>
    <rect class="cls-2" x="1089.76" y="472.17" width="63.62" height="6.06"/>
    <path class="cls-3" d="m437.99,101.39c-12.2,4.49-22.33,10.85-30.11,18.89-7.8,8.06-13.52,17.73-17.02,28.74-3.42,10.77-5.16,22.77-5.16,35.62v166.35h52.65v-97.61h149.91v-50.36l-1.11-.09h-148.8v-18.64c0-5.35.72-10.34,2.15-14.84,1.36-4.27,3.64-7.92,7-11.18,3.37-3.26,8.05-5.9,13.92-7.86,6.06-2.02,13.8-3.04,22.99-3.04h103.85v-52.65h-106.77c-16.82,0-31.45,2.25-43.5,6.69Z"/>
    <path class="cls-4" d="m822.16,222.02c8.17-4.59,14.72-10.45,19.53-17.52,6.5-9.54,9.78-22.13,9.78-37.41,0-10.51-1.7-20.31-5.06-29.11-3.43-8.96-8.84-16.79-16.09-23.24-7.17-6.39-16.36-11.4-27.3-14.88-10.77-3.42-23.87-5.16-38.91-5.16h-108.58c-16.27,0-25.23,8.83-25.23,24.86v206.57c0,16.03,8.97,24.85,25.23,24.85h109.68c15.06,0,28.18-1.8,38.96-5.36,10.92-3.6,20.1-8.66,27.26-15.04,7.25-6.46,12.66-14.27,16.09-23.25,3.36-8.8,5.07-18.6,5.07-29.11,0-15.29-3.49-28.07-10.36-38-5.09-7.32-11.81-13.43-20.06-18.22Zm-139.93-75.41h83.33c11.8,0,20.34,2.5,25.37,7.42,5.07,4.96,7.54,11.51,7.54,20.01,0,10.67-3.45,24.86-33.27,24.86h-83l.03-52.29Zm109.72,144.95c-5.15,4.74-13.79,7.15-25.66,7.15h-84.09v-54.48h84.09c29.82,0,33.27,15.44,33.27,27.05,0,8.93-2.49,15.56-7.61,20.28Z"/>
    <path class="cls-6" d="m1094.27,220.92c-6.68-7.33-15.82-13.34-27.16-17.85-11.24-4.46-25.73-6.73-43.07-6.73h-57.76c-6.76,0-12.27-.71-16.38-2.13-3.92-1.34-7.05-3.16-9.33-5.45-2.26-2.26-3.8-4.72-4.67-7.55-.95-3.05-1.43-6.21-1.43-9.37,0-7.35,2.09-13.16,6.4-17.77,4.17-4.46,11.24-6.72,21.02-6.72h131.26v-52.65h-129.79c-14.13,0-26.48,1.88-36.71,5.59-10.38,3.76-19.02,9.12-25.72,15.95-6.71,6.86-11.65,15.04-14.66,24.35-2.94,9.09-4.44,19.11-4.44,29.8,0,8.92,1.22,17.95,3.64,26.83,2.5,9.21,7.04,17.59,13.45,24.92,6.44,7.38,15.36,13.35,26.5,17.74,10.99,4.34,25.23,6.55,42.34,6.55h57.4c6.99,0,12.81.77,17.29,2.3,4.32,1.48,7.72,3.39,10.13,5.7,2.37,2.26,4,4.85,4.98,7.9,1.06,3.29,1.6,6.68,1.6,10.06,0,7.81-2.26,13.98-6.91,18.83-4.53,4.72-12.05,7.13-22.34,7.13h-143.68v52.64h142.22c14.63,0,27.31-1.94,37.66-5.78,10.49-3.88,19.26-9.36,26.06-16.3,6.81-6.95,11.86-15.25,15.01-24.68,3.06-9.21,4.62-19.43,4.62-30.38,0-9.13-1.23-18.39-3.62-27.54-2.52-9.48-7.18-18.02-13.88-25.38Z"/>
    <path class="cls-5" d="m1594.73,298.35h-100.54c-9.19,0-16.85-1.02-22.78-3.05-5.77-1.96-10.39-4.6-13.76-7.87-3.34-3.23-5.62-6.99-6.98-11.5-1.45-4.74-2.17-9.87-2.17-15.25V94.7h-52.65v166.35c0,12.87,1.74,24.85,5.16,35.63,3.5,11.01,9.22,20.69,17.02,28.73,7.78,8.04,17.91,14.4,30.1,18.88,12.05,4.45,26.68,6.69,43.51,6.69h103.1v-52.64Z"/>
    <path class="cls-7" d="m1359.95,143.63c-3.27-9.64-8.43-18.17-15.34-25.35-6.91-7.16-15.76-12.94-26.33-17.2-10.51-4.23-23.17-6.38-37.6-6.38h-115.38c-8.74,0-15.82,7.08-15.82,15.82v36.83l.31,133.74v69.89h52.65v-93.96c0-.88.15-1.25.14-1.27.07-.04.45-.2,1.33-.2h76.78c15.01,0,28.04-2.48,38.72-7.38,10.67-4.88,19.52-11.31,26.29-19.12,6.75-7.79,11.68-16.74,14.66-26.6,2.92-9.68,4.41-19.49,4.41-29.16,0-10.21-1.62-20.2-4.82-29.68Zm-49.96,42.98c-1.15,3.43-2.88,6.53-5.16,9.22-2.2,2.6-5.2,4.76-8.9,6.4-3.75,1.67-8.38,2.51-13.79,2.51h-79.7v-57.4h80.06c10.33,0,17.58,2.62,22.16,8.01,4.77,5.62,7.09,12.21,7.09,20.14,0,3.85-.59,7.59-1.76,11.11Z"/>
  </g>
</svg>