<?xml version="1.0" encoding="utf-8"?>
<!-- Generator: Adobe Illustrator 27.1.1, SVG Export Plug-In . SVG Version: 6.00 Build 0)  -->
<svg version="1.1" id="Layer_1" xmlns="http://www.w3.org/2000/svg" xmlns:xlink="http://www.w3.org/1999/xlink" x="0px" y="0px"
	 viewBox="0 0 1920 748.4" style="enable-background:new 0 0 1920 748.4;" xml:space="preserve">
<style type="text/css">
	.st0{fill:#31366E;}
	.st1{clip-path:url(#SVGID_00000136411643772189647570000007474651367705223043_);}
	.st2{fill:#FFFFFF;}
	.st3{clip-path:url(#SVGID_00000086692191452037009460000002792840653122139022_);}
	.st4{clip-path:url(#SVGID_00000150803195723108425450000006802783001851312316_);}
	.st5{clip-path:url(#SVGID_00000088844779398908803450000012662874980387380159_);}
	.st6{fill:#AD74B1;}
	.st7{fill:#7460AA;}
	.st8{clip-path:url(#SVGID_00000008146798543291005600000002844662120424147843_);}
	.st9{clip-path:url(#SVGID_00000080191491020913615920000006734709947818173059_);}
	.st10{fill:#E76EAA;}
	.st11{clip-path:url(#SVGID_00000159431091940068110720000017170457671394879133_);}
	.st12{clip-path:url(#SVGID_00000172437316003790261810000016386268412507754921_);}
	.st13{clip-path:url(#SVGID_00000117664758672006398320000007144845274992792971_);}
	.st14{clip-path:url(#SVGID_00000083055725642345449870000001233638428316321433_);}
	.st15{fill:#CC5395;}
	.st16{clip-path:url(#SVGID_00000106132988901809725140000001677308476476088226_);}
	.st17{clip-path:url(#SVGID_00000128465751152820842170000005367762651842574492_);}
	.st18{clip-path:url(#SVGID_00000030488544326613747680000012120388328481605271_);}
	.st19{clip-path:url(#SVGID_00000173883489935319479100000003515896255609943743_);}
	.st20{clip-path:url(#SVGID_00000021119588550099049170000017198027200307216575_);}
	.st21{clip-path:url(#SVGID_00000124868395818427070640000005545434192543158956_);}
	.st22{clip-path:url(#SVGID_00000049904567102098894600000014102803719689244092_);}
	.st23{clip-path:url(#SVGID_00000050622768657630073810000013632088511525606840_);}
	.st24{fill:#B24485;}
	.st25{fill:#191919;}
	.st26{clip-path:url(#SVGID_00000083072100718532011070000018404794127041484456_);}
	.st27{clip-path:url(#SVGID_00000060738713033491907050000015246323659984023691_);}
	.st28{clip-path:url(#SVGID_00000078765497625762516930000000821077577376570007_);}
	.st29{clip-path:url(#SVGID_00000070080165115353681260000006374015711599026327_);}
	.st30{clip-path:url(#SVGID_00000076582787404047835620000010774736428891554458_);}
	.st31{clip-path:url(#SVGID_00000062151557418666733920000005423165151040428200_);}
	.st32{clip-path:url(#SVGID_00000147923555689883853880000015481276820497846913_);}
	.st33{clip-path:url(#SVGID_00000178896186398443227390000001741945460545478534_);}
	.st34{clip-path:url(#SVGID_00000091733420054144441440000014897757309219107247_);}
	.st35{clip-path:url(#SVGID_00000010306128577119848080000010598055947192588721_);}
	.st36{clip-path:url(#SVGID_00000008118572777644245600000003434965754653890442_);}
	.st37{clip-path:url(#SVGID_00000163034395709943704800000007621353120851185316_);}
	.st38{clip-path:url(#SVGID_00000050638980439829078990000009360603029752927920_);}
	.st39{clip-path:url(#SVGID_00000029015021564108875500000014487519628675240866_);}
	.st40{clip-path:url(#SVGID_00000160909138371078278250000012113214025656359608_);}
</style>
<g>
	<rect x="19.1" y="465.9" class="st0" width="220.5" height="127"/>
	<g>
		<defs>
			<rect id="SVGID_1_" x="19.1" y="465.9" width="220.5" height="127"/>
		</defs>
		<clipPath id="SVGID_00000174573899371092919400000015032291423439946151_">
			<use xlink:href="#SVGID_1_"  style="overflow:visible;"/>
		</clipPath>
		<g style="clip-path:url(#SVGID_00000174573899371092919400000015032291423439946151_);">
			<path class="st0" d="M19.1,465.9h220.1v126.7H19.1V465.9z"/>
		</g>
	</g>
</g>
<path class="st2" d="M134.5,519.1h-2.3c-1.4,0-2.7,0.4-3.9,1.1l-5.2,3v4.5l6.5-3.5V541h5V519.1z"/>
<g>
	<g>
		<defs>
			<rect id="SVGID_00000105387008720062643890000006893515844414931897_" x="198.7" y="554.1" width="41.3" height="38.9"/>
		</defs>
		<clipPath id="SVGID_00000156581529777237095770000015803481171823700617_">
			<use xlink:href="#SVGID_00000105387008720062643890000006893515844414931897_"  style="overflow:visible;"/>
		</clipPath>
		<g style="clip-path:url(#SVGID_00000156581529777237095770000015803481171823700617_);">
			<g>
				<defs>
					<polyline id="SVGID_00000007395947192296903280000012424299506406860193_" points="199.3,554.2 239.6,554.2 239.6,592.9 					
						"/>
				</defs>
				<use xlink:href="#SVGID_00000007395947192296903280000012424299506406860193_"  style="overflow:visible;fill:#AD74B1;"/>
				<clipPath id="SVGID_00000089572259646724618520000016375496852227091367_">
					<use xlink:href="#SVGID_00000007395947192296903280000012424299506406860193_"  style="overflow:visible;"/>
				</clipPath>
				<g style="clip-path:url(#SVGID_00000089572259646724618520000016375496852227091367_);">
					<g>
						<defs>
							<polyline id="SVGID_00000005261929422149392400000018407632338469539225_" points="199.3,554.3 239.6,554.3 239.6,592.9 
								199.3,554.3 							"/>
						</defs>
						<use xlink:href="#SVGID_00000005261929422149392400000018407632338469539225_"  style="overflow:visible;fill:#AD74B1;"/>
						<clipPath id="SVGID_00000088101439232895967210000005267593677212625066_">
							<use xlink:href="#SVGID_00000005261929422149392400000018407632338469539225_"  style="overflow:visible;"/>
						</clipPath>
						<g style="clip-path:url(#SVGID_00000088101439232895967210000005267593677212625066_);">
							<path class="st6" d="M239.6,592.9h-40.3v-38.6h40.3V592.9z"/>
						</g>
					</g>
				</g>
			</g>
		</g>
	</g>
</g>
<g>
	<rect x="199.3" y="427.3" class="st7" width="220.5" height="126.8"/>
	<g>
		<defs>
			<rect id="SVGID_00000135678052315976025580000000829344988517088915_" x="199.3" y="427.3" width="220.5" height="126.8"/>
		</defs>
		<clipPath id="SVGID_00000096771140739011479810000010586589549545943207_">
			<use xlink:href="#SVGID_00000135678052315976025580000000829344988517088915_"  style="overflow:visible;"/>
		</clipPath>
		<g style="clip-path:url(#SVGID_00000096771140739011479810000010586589549545943207_);">
			<path class="st7" d="M199.3,427.3h220.1V554H199.3V427.3L199.3,427.3z"/>
		</g>
	</g>
</g>
<path class="st2" d="M308.9,498.5l3.6-3.5c4.1-4,5.4-5.9,5.4-8.6c0-3.9-2.7-6.4-7.6-6.4s-8.1,2.6-8.6,7.4l0,0.3h5l0-0.3
	c0.2-2.5,1.2-3.7,3.1-3.7c1.8,0,2.8,1.2,2.8,3c0,2.1-1.1,3.6-4.2,6.6l-7.1,6.9v2.3h16.4v-3.9L308.9,498.5L308.9,498.5z"/>
<g>
	<rect x="382.8" y="388.7" class="st6" width="220.2" height="127"/>
	<g>
		<defs>
			<rect id="SVGID_00000062150692764593554300000017929208534942074497_" x="382.8" y="388.7" width="220.2" height="127"/>
		</defs>
		<clipPath id="SVGID_00000085243053176249570550000018084932698991735967_">
			<use xlink:href="#SVGID_00000062150692764593554300000017929208534942074497_"  style="overflow:visible;"/>
		</clipPath>
		<g style="clip-path:url(#SVGID_00000085243053176249570550000018084932698991735967_);">
			<path class="st6" d="M382.8,388.7h220.2v126.7H382.8L382.8,388.7L382.8,388.7z"/>
		</g>
	</g>
</g>
<path class="st2" d="M496.9,452.2c2.7-0.7,4.1-2.5,4.1-5c0-3.2-2.5-5.8-7.5-5.8c-5.4,0-8.1,3.1-8.5,6.9l0,0.3h5l0-0.3
	c0.2-1.8,1.2-3.2,3-3.2c1.8,0,2.8,1,2.8,2.7c0,1.8-1.3,3-3.5,3.2l-0.8,0v3.3h0.8c2.6,0.1,4,1.2,4,3.2c0,1.8-1.4,3-3.6,3
	s-3.4-1.4-3.8-3.3l0-0.3h-5l0,0.3c0.4,4.5,3.6,7,8.8,7s8.7-2.7,8.7-6.9C501.5,454.6,499.9,452.9,496.9,452.2L496.9,452.2z"/>
<g>
	<rect x="564.5" y="350.5" class="st10" width="220.3" height="127"/>
	<g>
		<defs>
			<rect id="SVGID_00000106136348995496608870000007004367257684486538_" x="564.5" y="350.5" width="220.3" height="127"/>
		</defs>
		<clipPath id="SVGID_00000024680697566903785530000008422374424022277504_">
			<use xlink:href="#SVGID_00000106136348995496608870000007004367257684486538_"  style="overflow:visible;"/>
		</clipPath>
		<g style="clip-path:url(#SVGID_00000024680697566903785530000008422374424022277504_);">
			<path class="st10" d="M564.5,350.5h220.1v126.7H564.5L564.5,350.5L564.5,350.5z"/>
		</g>
	</g>
</g>
<path class="st2" d="M683.9,420.5v-3.9h-2.7v-13h-5.4l-10,14.2v2.7h10.4v5h5v-5L683.9,420.5L683.9,420.5z M676.2,416.6H671l3.8-5.4
	c0.4-0.6,0.9-1.3,1.3-2.2V416.6z"/>
<g>
	<g>
		<defs>
			<polyline id="SVGID_00000160162273746120063060000008923445756201317771_" points="563.2,476.3 603,476.3 603,516 			"/>
		</defs>
		<use xlink:href="#SVGID_00000160162273746120063060000008923445756201317771_"  style="overflow:visible;fill:#CC5395;"/>
		<clipPath id="SVGID_00000016765365025806412650000013664490054497292198_">
			<use xlink:href="#SVGID_00000160162273746120063060000008923445756201317771_"  style="overflow:visible;"/>
		</clipPath>
		<g style="clip-path:url(#SVGID_00000016765365025806412650000013664490054497292198_);">
			<g>
				<defs>
					<polyline id="SVGID_00000033334995790526743030000017002131171422044803_" points="564,477.1 602.6,477.1 602.6,515.7 					"/>
				</defs>
				<use xlink:href="#SVGID_00000033334995790526743030000017002131171422044803_"  style="overflow:visible;fill:#CC5395;"/>
				<clipPath id="SVGID_00000045615751461047018630000003432911502786777757_">
					<use xlink:href="#SVGID_00000033334995790526743030000017002131171422044803_"  style="overflow:visible;"/>
				</clipPath>
				<g style="clip-path:url(#SVGID_00000045615751461047018630000003432911502786777757_);">
					<g>
						<defs>
							<polyline id="SVGID_00000132790937328688144340000003708059799555521960_" points="564,477.1 602.6,477.1 602.6,515.7 
								564,477.1 							"/>
						</defs>
						<use xlink:href="#SVGID_00000132790937328688144340000003708059799555521960_"  style="overflow:visible;fill:#CC5395;"/>
						<clipPath id="SVGID_00000111898627734434713450000012696879935985869246_">
							<use xlink:href="#SVGID_00000132790937328688144340000003708059799555521960_"  style="overflow:visible;"/>
						</clipPath>
						<g style="clip-path:url(#SVGID_00000111898627734434713450000012696879935985869246_);">
							<path class="st15" d="M602.6,515.7H564v-38.6h38.7V515.7z"/>
						</g>
					</g>
				</g>
			</g>
		</g>
	</g>
</g>
<g>
	<g>
		<defs>
			<rect id="SVGID_00000042722329181238589040000008714722283337784507_" x="381.4" y="515.2" width="39.7" height="39.7"/>
		</defs>
		<clipPath id="SVGID_00000012448011010521896800000007596709089685343886_">
			<use xlink:href="#SVGID_00000042722329181238589040000008714722283337784507_"  style="overflow:visible;"/>
		</clipPath>
		<g style="clip-path:url(#SVGID_00000012448011010521896800000007596709089685343886_);">
			<g>
				<defs>
					<polyline id="SVGID_00000142134893620874249030000001271970365984574122_" points="381.7,515.6 420.4,515.6 420.4,554.3 					
						"/>
				</defs>
				<use xlink:href="#SVGID_00000142134893620874249030000001271970365984574122_"  style="overflow:visible;fill:#E76EAA;"/>
				<clipPath id="SVGID_00000090987039055314007270000018345686851616180370_">
					<use xlink:href="#SVGID_00000142134893620874249030000001271970365984574122_"  style="overflow:visible;"/>
				</clipPath>
				<g style="clip-path:url(#SVGID_00000090987039055314007270000018345686851616180370_);">
					<g>
						<defs>
							<polyline id="SVGID_00000050641167106819149790000010892820018354835082_" points="381.7,515.7 420.4,515.7 420.4,554.3 
								381.7,515.7 							"/>
						</defs>
						<use xlink:href="#SVGID_00000050641167106819149790000010892820018354835082_"  style="overflow:visible;fill:#E76EAA;"/>
						<clipPath id="SVGID_00000117648456963391024530000009716476862610432161_">
							<use xlink:href="#SVGID_00000050641167106819149790000010892820018354835082_"  style="overflow:visible;"/>
						</clipPath>
						<g style="clip-path:url(#SVGID_00000117648456963391024530000009716476862610432161_);">
							<path class="st10" d="M420.4,554.3h-38.7v-38.6h38.7V554.3z"/>
						</g>
					</g>
				</g>
			</g>
		</g>
	</g>
</g>
<g>
	<defs>
		<rect id="SVGID_00000165918759922805485740000015886569171811763117_" x="746" y="246.3" width="283.2" height="250.6"/>
	</defs>
	<clipPath id="SVGID_00000129924314363971474610000017968846760606539698_">
		<use xlink:href="#SVGID_00000165918759922805485740000015886569171811763117_"  style="overflow:visible;"/>
	</clipPath>
	<g style="clip-path:url(#SVGID_00000129924314363971474610000017968846760606539698_);">
		<g>
			<polyline class="st15" points="1029.1,372 911.4,246.3 911.4,305.1 746,305.1 746,438.9 911.4,438.9 911.4,497.8 1029.1,372 			
				"/>
			<g>
				<defs>
					<polyline id="SVGID_00000028315054148102104920000001359904949286013359_" points="1029.1,372 911.4,246.3 911.4,305.1 
						746,305.1 746,438.9 911.4,438.9 911.4,497.8 1029.1,372 					"/>
				</defs>
				<clipPath id="SVGID_00000137105493540476201840000018285317490538366363_">
					<use xlink:href="#SVGID_00000028315054148102104920000001359904949286013359_"  style="overflow:visible;"/>
				</clipPath>
				<g style="clip-path:url(#SVGID_00000137105493540476201840000018285317490538366363_);">
					<path class="st15" d="M746,246.3h283.2v250.1H746L746,246.3L746,246.3z"/>
				</g>
			</g>
		</g>
	</g>
</g>
<path class="st2" d="M874.1,368.5c-1.2,0-2.4,0.2-3.4,0.8l-1,1.5l0.8-5.5h10v-3.9h-14.1l-1.6,13.1h4.6c0.6-1.6,1.6-2.3,3.2-2.3
	c2.2,0,3.5,1.6,3.5,3.9s-1.2,3.9-3.6,3.9c-1.9,0-2.9-1.1-3.1-2.8l0-0.3h-5l0,0.3c0.5,4.5,3.3,6.5,8.4,6.5c4.4,0,8.5-2.7,8.5-7.8
	C881.3,371.3,878.6,368.5,874.1,368.5L874.1,368.5z"/>
<g>
	<g>
		<defs>
			<polyline id="SVGID_00000080916833135945552480000007833116379539752084_" points="745.1,438.1 784.8,438.1 784.8,477.9 			"/>
		</defs>
		<use xlink:href="#SVGID_00000080916833135945552480000007833116379539752084_"  style="overflow:visible;fill:#B24485;"/>
		<clipPath id="SVGID_00000027585516455196604140000009205600725415862417_">
			<use xlink:href="#SVGID_00000080916833135945552480000007833116379539752084_"  style="overflow:visible;"/>
		</clipPath>
		<g style="clip-path:url(#SVGID_00000027585516455196604140000009205600725415862417_);">
			<g>
				<defs>
					<polyline id="SVGID_00000083083699797623947820000014724790910211580071_" points="745.4,438.4 784.1,438.4 784.1,477.1 					
						"/>
				</defs>
				<use xlink:href="#SVGID_00000083083699797623947820000014724790910211580071_"  style="overflow:visible;fill:#B24485;"/>
				<clipPath id="SVGID_00000124152194405762613210000016295012445179973300_">
					<use xlink:href="#SVGID_00000083083699797623947820000014724790910211580071_"  style="overflow:visible;"/>
				</clipPath>
				<g style="clip-path:url(#SVGID_00000124152194405762613210000016295012445179973300_);">
					<g>
						<defs>
							<polyline id="SVGID_00000085963199074210380350000006566466052825676711_" points="745.4,438.5 784.1,438.5 784.1,477.1 
								745.4,438.5 							"/>
						</defs>
						<use xlink:href="#SVGID_00000085963199074210380350000006566466052825676711_"  style="overflow:visible;fill:#B24485;"/>
						<clipPath id="SVGID_00000170976920140668528110000002206779896462913977_">
							<use xlink:href="#SVGID_00000085963199074210380350000006566466052825676711_"  style="overflow:visible;"/>
						</clipPath>
						<g style="clip-path:url(#SVGID_00000170976920140668528110000002206779896462913977_);">
							<path class="st24" d="M784.1,477.1h-38.7v-38.6h38.7V477.1L784.1,477.1z"/>
						</g>
					</g>
				</g>
			</g>
		</g>
	</g>
</g>
<path class="st25" d="M67.3,355.2c0,1-0.2,1.9-0.7,2.8c-0.5,0.9-1.2,1.5-2.2,2.1c-1,0.5-2.2,0.8-3.7,0.8h-3.1v7H54v-18.3h6.7
	c1.4,0,2.6,0.2,3.6,0.7c1,0.5,1.7,1.2,2.2,2C67.1,353.1,67.3,354.1,67.3,355.2L67.3,355.2z M60.5,357.8c1,0,1.8-0.2,2.2-0.7
	c0.5-0.5,0.7-1.1,0.7-2c0-1.8-1-2.7-3-2.7h-2.9v5.3L60.5,357.8L60.5,357.8z"/>
<path class="st25" d="M74.3,355.5c0.5-0.8,1.1-1.4,1.8-1.8s1.6-0.7,2.6-0.7v3.9h-1c-1.2,0-2,0.3-2.6,0.8c-0.6,0.5-0.9,1.5-0.9,2.8
	v7.2h-3.7v-14.5h3.7V355.5L74.3,355.5z"/>
<path class="st25" d="M88.5,368c-1.4,0-2.7-0.3-3.8-0.9s-2-1.5-2.6-2.6c-0.6-1.1-1-2.5-1-3.9s0.3-2.8,1-3.9s1.6-2,2.7-2.6
	c1.1-0.6,2.4-0.9,3.8-0.9s2.7,0.3,3.8,0.9c1.1,0.6,2,1.5,2.7,2.6c0.7,1.1,1,2.4,1,3.9s-0.3,2.8-1,3.9c-0.7,1.1-1.6,2-2.7,2.6
	C91.2,367.7,89.9,368,88.5,368z M88.5,364.8c0.7,0,1.3-0.2,1.9-0.5c0.6-0.3,1.1-0.8,1.4-1.5c0.3-0.6,0.5-1.4,0.5-2.4
	c0-1.4-0.4-2.4-1.1-3.2c-0.7-0.7-1.6-1.1-2.7-1.1s-1.9,0.4-2.6,1.1c-0.7,0.7-1.1,1.8-1.1,3.2s0.3,2.4,1,3.2
	C86.6,364.5,87.4,364.8,88.5,364.8z"/>
<path class="st25" d="M105.1,368c-1.2,0-2.2-0.2-3.2-0.6c-0.9-0.4-1.7-1-2.2-1.8c-0.6-0.7-0.8-1.5-0.9-2.4h3.7
	c0.1,0.6,0.3,1,0.8,1.4s1.1,0.5,1.8,0.5s1.2-0.1,1.6-0.4c0.4-0.3,0.6-0.6,0.6-1.1c0-0.5-0.2-0.8-0.7-1c-0.5-0.2-1.2-0.5-2.3-0.8
	c-1.1-0.2-2-0.5-2.7-0.8c-0.7-0.3-1.3-0.7-1.8-1.3c-0.5-0.6-0.7-1.4-0.7-2.3c0-0.8,0.2-1.5,0.7-2.2s1.1-1.2,2-1.6
	c0.9-0.4,1.9-0.6,3.1-0.6c1.7,0,3.1,0.4,4.2,1.3c1,0.9,1.6,2,1.7,3.5h-3.5c-0.1-0.6-0.3-1-0.7-1.4s-1-0.5-1.7-0.5
	c-0.7,0-1.2,0.1-1.5,0.4s-0.5,0.6-0.5,1c0,0.5,0.2,0.9,0.7,1.1c0.5,0.3,1.2,0.5,2.3,0.8c1.1,0.3,1.9,0.5,2.6,0.8
	c0.7,0.3,1.3,0.7,1.8,1.3c0.5,0.6,0.8,1.4,0.8,2.3c0,0.8-0.2,1.6-0.7,2.3c-0.5,0.7-1.1,1.2-2,1.6C107.3,367.9,106.2,368.1,105.1,368
	L105.1,368z"/>
<path class="st25" d="M118.3,355.4c0.5-0.7,1.1-1.2,1.9-1.7c0.8-0.5,1.8-0.7,2.8-0.7c1.2,0,2.4,0.3,3.4,0.9c1,0.6,1.8,1.5,2.4,2.6
	c0.6,1.1,0.9,2.4,0.9,3.9s-0.3,2.8-0.9,4c-0.6,1.1-1.4,2-2.4,2.7c-1,0.6-2.1,0.9-3.4,0.9c-1.1,0-2-0.2-2.8-0.7s-1.5-1-2-1.6v9h-3.7
	v-21.5h3.7L118.3,355.4L118.3,355.4z M125.9,360.5c0-0.9-0.2-1.6-0.5-2.3c-0.4-0.6-0.8-1.1-1.4-1.5c-0.6-0.3-1.2-0.5-1.9-0.5
	s-1.3,0.2-1.9,0.5c-0.6,0.3-1.1,0.8-1.4,1.5c-0.4,0.6-0.5,1.4-0.5,2.3s0.2,1.6,0.5,2.3c0.4,0.6,0.8,1.1,1.4,1.5
	c0.6,0.3,1.2,0.5,1.9,0.5s1.3-0.2,1.9-0.5c0.6-0.4,1.1-0.8,1.4-1.5C125.8,362.2,125.9,361.4,125.9,360.5L125.9,360.5z"/>
<path class="st25" d="M146.6,360.2c0,0.5,0,1-0.1,1.4h-10.6c0.1,1,0.4,1.9,1.1,2.5s1.4,0.9,2.4,0.9c1.4,0,2.3-0.6,2.9-1.8h4
	c-0.4,1.4-1.2,2.5-2.4,3.4s-2.6,1.4-4.4,1.4c-1.4,0-2.6-0.3-3.8-0.9s-2-1.5-2.6-2.6c-0.6-1.1-0.9-2.5-0.9-3.9s0.3-2.8,0.9-4
	c0.6-1.1,1.5-2,2.6-2.6c1.1-0.6,2.4-0.9,3.8-0.9s2.6,0.3,3.7,0.9s1.9,1.4,2.5,2.5C146.4,357.6,146.7,358.8,146.6,360.2L146.6,360.2z
	 M142.8,359.2c0-0.9-0.4-1.7-1-2.3s-1.5-0.9-2.4-0.9c-0.9,0-1.7,0.3-2.3,0.8s-1,1.3-1.1,2.3L142.8,359.2L142.8,359.2z"/>
<path class="st25" d="M149.2,360.6c0-1.5,0.3-2.8,0.9-4c0.6-1.1,1.5-2,2.5-2.6c1.1-0.6,2.3-0.9,3.7-0.9c1.8,0,3.3,0.5,4.5,1.4
	c1.2,0.9,2,2.2,2.4,3.8h-4c-0.2-0.6-0.6-1.1-1.1-1.5c-0.5-0.4-1.1-0.5-1.9-0.5c-1,0-1.9,0.4-2.5,1.1s-0.9,1.8-0.9,3.2
	s0.3,2.5,0.9,3.2c0.6,0.8,1.4,1.1,2.5,1.1c1.5,0,2.5-0.7,2.9-2h4c-0.4,1.6-1.2,2.8-2.4,3.8c-1.2,0.9-2.7,1.4-4.5,1.4
	c-1.4,0-2.6-0.3-3.7-0.9s-1.9-1.5-2.5-2.6C149.5,363.4,149.2,362.1,149.2,360.6L149.2,360.6z"/>
<path class="st25" d="M170.9,356.3v7c0,0.5,0.1,0.8,0.4,1.1c0.2,0.2,0.6,0.3,1.2,0.3h1.7v3.1h-2.3c-3.1,0-4.6-1.5-4.6-4.5v-7h-1.7
	v-3h1.7v-3.6h3.7v3.6h3.2v3L170.9,356.3L170.9,356.3z"/>
<path class="st25" d="M37.3,384.5v19.3h-3.9v-19.3H37.3z"/>
<path class="st25" d="M50.4,388.2c1.8,0,3.3,0.6,4.4,1.7s1.7,2.8,1.7,4.8v9h-3.9v-8.5c0-1.2-0.3-2.2-0.9-2.8c-0.6-0.7-1.4-1-2.5-1
	s-1.9,0.3-2.5,1c-0.6,0.7-0.9,1.6-0.9,2.8v8.5h-3.9v-15.3h3.9v1.9c0.5-0.7,1.2-1.2,2-1.6S49.4,388.2,50.4,388.2L50.4,388.2z"/>
<path class="st25" d="M65.5,392.6h-2.5v11.5h-3.7v-11.5h-1.7v-3h1.7v-0.7c0-1.8,0.5-3.1,1.5-3.9c1-0.8,2.5-1.2,4.6-1.2v3.1
	c-0.9,0-1.5,0.1-1.9,0.5s-0.5,0.9-0.5,1.7v0.6h2.5V392.6L65.5,392.6z"/>
<path class="st25" d="M75.1,404.4c-1.4,0-2.7-0.3-3.8-0.9s-2-1.5-2.6-2.6c-0.6-1.1-1-2.5-1-3.9s0.3-2.8,1-3.9s1.6-2,2.7-2.6
	c1.1-0.6,2.4-0.9,3.8-0.9s2.7,0.3,3.8,0.9c1.1,0.6,2,1.5,2.7,2.6c0.7,1.1,1,2.4,1,3.9s-0.3,2.8-1,3.9c-0.7,1.1-1.6,2-2.7,2.6
	C77.8,404.1,76.5,404.4,75.1,404.4z M75.1,401.2c0.7,0,1.3-0.2,1.9-0.5c0.6-0.3,1.1-0.8,1.4-1.5c0.3-0.6,0.5-1.4,0.5-2.4
	c0-1.4-0.4-2.4-1.1-3.2c-0.7-0.7-1.6-1.1-2.7-1.1s-1.9,0.4-2.6,1.1c-0.7,0.7-1.1,1.8-1.1,3.2s0.3,2.4,1,3.2
	C73.2,400.8,74,401.2,75.1,401.2z"/>
<path class="st25" d="M89.8,391.9c0.5-0.8,1.1-1.4,1.8-1.8s1.6-0.7,2.6-0.7v3.9h-1c-1.2,0-2,0.3-2.6,0.8c-0.6,0.5-0.9,1.5-0.9,2.8
	v7.2h-3.7v-14.5h3.7V391.9L89.8,391.9z"/>
<path class="st25" d="M115.6,389.4c1.8,0,3.2,0.5,4.3,1.6s1.6,2.6,1.6,4.6v8.5h-3.7v-8c0-1.1-0.3-2-0.9-2.6
	c-0.6-0.6-1.4-0.9-2.4-0.9s-1.8,0.3-2.4,0.9c-0.6,0.6-0.9,1.5-0.9,2.6v8h-3.7v-8c0-1.1-0.3-2-0.9-2.6c-0.6-0.6-1.4-0.9-2.4-0.9
	s-1.8,0.3-2.4,0.9c-0.6,0.6-0.9,1.5-0.9,2.6v8h-3.7v-14.5h3.7v1.8c0.5-0.6,1.1-1.1,1.8-1.4s1.6-0.5,2.5-0.5c1.1,0,2.1,0.2,3,0.7
	s1.6,1.2,2.1,2.1c0.5-0.8,1.2-1.5,2.1-2S114.5,389.4,115.6,389.4L115.6,389.4z"/>
<path class="st25" d="M124.8,396.8c0-1.5,0.3-2.8,0.9-3.9c0.6-1.1,1.4-2,2.4-2.6c1-0.6,2.1-0.9,3.4-0.9c1.1,0,2,0.2,2.8,0.7
	s1.5,1,2,1.6v-2.1h3.7v14.5h-3.7V402c-0.5,0.7-1.1,1.2-2,1.7s-1.8,0.7-2.9,0.7c-1.2,0-2.3-0.3-3.4-0.9c-1-0.6-1.8-1.5-2.4-2.7
	C125.1,399.6,124.8,398.3,124.8,396.8L124.8,396.8z M136.2,396.9c0-0.9-0.2-1.7-0.5-2.3c-0.4-0.6-0.8-1.1-1.4-1.5
	c-0.6-0.3-1.2-0.5-1.9-0.5s-1.3,0.2-1.9,0.5s-1.1,0.8-1.4,1.5c-0.4,0.6-0.5,1.4-0.5,2.3s0.2,1.6,0.5,2.3c0.4,0.6,0.8,1.1,1.4,1.5
	c0.6,0.4,1.2,0.5,1.9,0.5s1.3-0.2,1.9-0.5c0.6-0.3,1.1-0.8,1.4-1.5C136.1,398.5,136.2,397.8,136.2,396.9L136.2,396.9z"/>
<path class="st25" d="M148.6,392.6v7c0,0.5,0.1,0.8,0.4,1.1c0.2,0.2,0.6,0.3,1.2,0.3h1.7v3.1h-2.3c-3.1,0-4.6-1.5-4.6-4.5v-7h-1.7
	v-3h1.7V386h3.7v3.6h3.2v3L148.6,392.6L148.6,392.6z"/>
<path class="st25" d="M157.1,387.9c-0.6,0-1.2-0.2-1.6-0.6c-0.4-0.4-0.6-0.9-0.6-1.5s0.2-1.1,0.6-1.5c0.4-0.4,1-0.6,1.6-0.6
	s1.2,0.2,1.6,0.6c0.4,0.4,0.6,0.9,0.6,1.5s-0.2,1.1-0.6,1.5C158.3,387.7,157.8,387.9,157.1,387.9z M158.9,389.6v14.5h-3.7v-14.5
	H158.9z"/>
<path class="st25" d="M169.8,404.4c-1.4,0-2.7-0.3-3.8-0.9s-2-1.5-2.6-2.6c-0.6-1.1-1-2.5-1-3.9s0.3-2.8,1-3.9s1.6-2,2.7-2.6
	c1.1-0.6,2.4-0.9,3.8-0.9s2.7,0.3,3.8,0.9c1.1,0.6,2,1.5,2.7,2.6c0.7,1.1,1,2.4,1,3.9s-0.3,2.8-1,3.9c-0.7,1.1-1.6,2-2.7,2.6
	C172.5,404.1,171.2,404.4,169.8,404.4L169.8,404.4z M169.8,401.2c0.7,0,1.3-0.2,1.9-0.5c0.6-0.3,1.1-0.8,1.4-1.5
	c0.4-0.6,0.5-1.4,0.5-2.4c0-1.4-0.4-2.4-1.1-3.2c-0.7-0.7-1.6-1.1-2.7-1.1s-1.9,0.4-2.6,1.1c-0.7,0.7-1.1,1.8-1.1,3.2s0.3,2.4,1,3.2
	C167.9,400.8,168.7,401.2,169.8,401.2L169.8,401.2z"/>
<path class="st25" d="M188.9,389.4c1.7,0,3.1,0.5,4.2,1.6s1.6,2.6,1.6,4.6v8.5H191v-8c0-1.2-0.3-2-0.9-2.7c-0.6-0.6-1.4-0.9-2.4-0.9
	s-1.8,0.3-2.4,0.9s-0.9,1.5-0.9,2.7v8h-3.7v-14.5h3.7v1.8c0.5-0.6,1.1-1.1,1.9-1.5C187.1,389.6,188,389.4,188.9,389.4L188.9,389.4z"
	/>
<path class="st25" d="M54.2,427.7c-0.4-0.8-1-1.4-1.7-1.8c-0.7-0.4-1.6-0.6-2.6-0.6c-1.1,0-2,0.2-2.9,0.7s-1.5,1.2-2,2.1
	c-0.5,0.9-0.7,2-0.7,3.1s0.2,2.3,0.7,3.2c0.5,0.9,1.1,1.6,2,2.1c0.9,0.5,1.9,0.7,3,0.7c1.4,0,2.5-0.4,3.4-1.1s1.5-1.8,1.8-3.1H49
	v-2.8h9.9v3.2c-0.2,1.3-0.8,2.5-1.6,3.5c-0.8,1.1-1.8,2-3.1,2.6c-1.3,0.6-2.7,1-4.3,1c-1.8,0-3.4-0.4-4.8-1.2
	c-1.4-0.8-2.5-1.9-3.3-3.3c-0.8-1.4-1.2-3-1.2-4.8s0.4-3.4,1.2-4.8c0.8-1.4,1.9-2.5,3.3-3.3c1.4-0.8,3-1.2,4.8-1.2
	c2.1,0,3.8,0.5,5.4,1.5c1.5,1,2.6,2.4,3.2,4.2L54.2,427.7L54.2,427.7z"/>
<path class="st25" d="M61.5,433.2c0-1.5,0.3-2.8,0.9-3.9c0.6-1.1,1.4-2,2.4-2.6c1-0.6,2.1-0.9,3.4-0.9c1.1,0,2,0.2,2.8,0.7
	s1.5,1,2,1.6V426h3.7v14.5h-3.7v-2.1c-0.5,0.7-1.1,1.2-2,1.7s-1.8,0.7-2.9,0.7c-1.2,0-2.3-0.3-3.3-0.9c-1-0.6-1.8-1.5-2.4-2.7
	S61.5,434.7,61.5,433.2L61.5,433.2z M72.9,433.2c0-0.9-0.2-1.7-0.5-2.3c-0.3-0.6-0.8-1.1-1.4-1.5c-0.6-0.3-1.2-0.5-1.9-0.5
	s-1.3,0.2-1.9,0.5s-1.1,0.8-1.4,1.5c-0.4,0.6-0.5,1.4-0.5,2.3s0.2,1.6,0.5,2.3c0.3,0.6,0.8,1.1,1.4,1.5c0.6,0.4,1.2,0.5,1.9,0.5
	s1.3-0.2,1.9-0.5c0.6-0.3,1.1-0.8,1.4-1.5C72.7,434.9,72.9,434.1,72.9,433.2L72.9,433.2z"/>
<path class="st25" d="M85.2,429v7c0,0.5,0.1,0.8,0.3,1.1c0.2,0.2,0.6,0.3,1.2,0.3h1.7v3.1h-2.3c-3.1,0-4.6-1.5-4.6-4.5v-7h-1.7v-3
	h1.7v-3.6h3.7v3.6h3.2v3L85.2,429L85.2,429z"/>
<path class="st25" d="M100.1,425.8c1.1,0,2.1,0.2,2.9,0.7c0.9,0.5,1.5,1.2,2,2.1c0.5,0.9,0.7,2.1,0.7,3.4v8.5h-3.7v-8
	c0-1.2-0.3-2-0.9-2.7c-0.6-0.6-1.4-0.9-2.4-0.9s-1.8,0.3-2.4,0.9c-0.6,0.6-0.9,1.5-0.9,2.7v8h-3.7v-19.4h3.7v6.7
	c0.5-0.6,1.1-1.1,1.9-1.5C98.2,425.9,99.1,425.8,100.1,425.8L100.1,425.8z"/>
<path class="st25" d="M123.5,432.9c0,0.5,0,1-0.1,1.4h-10.6c0.1,1,0.4,1.9,1.1,2.5s1.4,0.9,2.4,0.9c1.4,0,2.3-0.6,2.9-1.8h4
	c-0.4,1.4-1.2,2.5-2.4,3.4c-1.2,0.9-2.6,1.4-4.4,1.4c-1.4,0-2.7-0.3-3.8-0.9s-2-1.5-2.6-2.6c-0.6-1.1-0.9-2.5-0.9-3.9s0.3-2.8,0.9-4
	c0.6-1.1,1.5-2,2.6-2.6c1.1-0.6,2.4-0.9,3.8-0.9s2.6,0.3,3.7,0.9s1.9,1.4,2.5,2.5C123.2,430.2,123.5,431.5,123.5,432.9L123.5,432.9z
	 M119.7,431.9c0-0.9-0.4-1.7-1-2.3c-0.7-0.6-1.5-0.9-2.4-0.9c-0.9,0-1.7,0.3-2.3,0.8c-0.6,0.5-1,1.3-1.1,2.3L119.7,431.9
	L119.7,431.9z"/>
<path class="st25" d="M130.6,428.2c0.5-0.8,1.1-1.4,1.9-1.8c0.8-0.4,1.6-0.7,2.6-0.7v3.9h-1c-1.1,0-2,0.3-2.6,0.8s-0.9,1.5-0.9,2.8
	v7.2H127V426h3.7V428.2L130.6,428.2z"/>
<path class="st25" d="M140.2,424.2c-0.6,0-1.2-0.2-1.6-0.6c-0.4-0.4-0.6-0.9-0.6-1.5s0.2-1.1,0.6-1.5c0.4-0.4,1-0.6,1.6-0.6
	s1.2,0.2,1.6,0.6c0.4,0.4,0.6,0.9,0.6,1.5s-0.2,1.1-0.6,1.5C141.4,424.1,140.9,424.2,140.2,424.2z M142,426v14.5h-3.7V426H142z"/>
<path class="st25" d="M154.5,425.8c1.7,0,3.1,0.5,4.2,1.6s1.6,2.6,1.6,4.6v8.5h-3.7v-8c0-1.2-0.3-2-0.9-2.7
	c-0.6-0.6-1.4-0.9-2.4-0.9s-1.8,0.3-2.4,0.9s-0.9,1.5-0.9,2.7v8h-3.7V426h3.7v1.8c0.5-0.6,1.1-1.1,1.9-1.5
	C152.7,425.9,153.5,425.8,154.5,425.8L154.5,425.8z"/>
<path class="st25" d="M170.2,425.7c1.1,0,2,0.2,2.9,0.6c0.8,0.4,1.5,1,1.9,1.7V426h3.7v14.6c0,1.4-0.3,2.5-0.8,3.6
	c-0.5,1.1-1.4,1.9-2.4,2.5c-1.1,0.6-2.4,0.9-3.9,0.9c-2.1,0-3.8-0.5-5.1-1.5c-1.3-1-2.1-2.3-2.2-3.9h3.6c0.2,0.7,0.6,1.2,1.2,1.6
	c0.6,0.4,1.4,0.6,2.3,0.6c1.1,0,1.9-0.3,2.6-1c0.7-0.6,1-1.6,1-2.9v-2.2c-0.5,0.7-1.1,1.2-2,1.7s-1.8,0.7-2.8,0.7
	c-1.2,0-2.4-0.3-3.4-0.9s-1.8-1.5-2.4-2.7c-0.6-1.1-0.9-2.5-0.9-4s0.3-2.8,0.9-3.9c0.6-1.1,1.4-2,2.4-2.6
	C167.8,426,169,425.7,170.2,425.7L170.2,425.7z M175,433.2c0-0.9-0.2-1.7-0.5-2.3c-0.4-0.6-0.8-1.1-1.4-1.5
	c-0.6-0.3-1.2-0.5-1.9-0.5s-1.3,0.2-1.9,0.5s-1.1,0.8-1.4,1.5c-0.4,0.6-0.5,1.4-0.5,2.3s0.2,1.6,0.5,2.3c0.4,0.6,0.8,1.1,1.4,1.5
	c0.6,0.4,1.2,0.5,1.9,0.5s1.3-0.2,1.9-0.5c0.6-0.3,1.1-0.8,1.4-1.5C174.8,434.9,175,434.1,175,433.2L175,433.2z"/>
<path class="st25" d="M246.2,395.2l-2.8-3.3c-0.8,0.2-1.6,0.3-2.4,0.3c-1.7,0-3.3-0.4-4.7-1.2c-1.4-0.8-2.6-1.9-3.4-3.4
	s-1.2-3-1.2-4.8s0.4-3.4,1.2-4.8c0.8-1.4,2-2.5,3.4-3.3c1.4-0.8,3-1.2,4.7-1.2s3.3,0.4,4.7,1.2c1.4,0.8,2.6,1.9,3.4,3.3
	c0.8,1.4,1.2,3,1.2,4.8c0,1.6-0.4,3.1-1,4.4c-0.7,1.3-1.6,2.4-2.8,3.3l4.2,4.7L246.2,395.2L246.2,395.2z M235.5,382.8
	c0,1.2,0.2,2.3,0.7,3.2c0.5,0.9,1.1,1.6,2,2.1c0.9,0.5,1.8,0.7,2.9,0.7s2.1-0.2,2.9-0.7c0.8-0.5,1.5-1.2,2-2.1
	c0.5-0.9,0.7-2,0.7-3.2s-0.2-2.3-0.7-3.2s-1.1-1.6-2-2.1s-1.8-0.7-2.9-0.7s-2.1,0.2-2.9,0.7c-0.8,0.5-1.5,1.2-2,2.1
	S235.5,381.6,235.5,382.8z"/>
<path class="st25" d="M267.7,377.5V392H264v-1.8c-0.5,0.6-1.1,1.1-1.9,1.5c-0.8,0.4-1.6,0.5-2.5,0.5c-1.1,0-2.1-0.2-3-0.7
	c-0.9-0.5-1.6-1.2-2.1-2.1s-0.7-2-0.7-3.4v-8.5h3.7v8c0,1.2,0.3,2,0.9,2.7c0.6,0.6,1.4,0.9,2.4,0.9s1.8-0.3,2.4-0.9
	c0.6-0.6,0.9-1.5,0.9-2.7v-8L267.7,377.5L267.7,377.5z"/>
<path class="st25" d="M278.6,392.3c-1.4,0-2.7-0.3-3.8-0.9s-2-1.5-2.6-2.6c-0.6-1.1-1-2.5-1-3.9s0.3-2.8,1-3.9
	c0.6-1.1,1.5-2,2.7-2.6c1.1-0.6,2.4-0.9,3.8-0.9s2.7,0.3,3.8,0.9c1.1,0.6,2,1.5,2.7,2.6c0.7,1.1,1,2.4,1,3.9s-0.3,2.8-1,3.9
	c-0.7,1.1-1.6,2-2.7,2.6C281.3,392,280,392.3,278.6,392.3z M278.6,389.1c0.7,0,1.3-0.2,1.9-0.5c0.6-0.3,1-0.8,1.4-1.5
	c0.4-0.6,0.5-1.4,0.5-2.4c0-1.4-0.4-2.4-1.1-3.2c-0.7-0.7-1.6-1.1-2.7-1.1s-1.9,0.4-2.6,1.1c-0.7,0.7-1,1.8-1,3.2s0.3,2.4,1,3.2
	C276.6,388.7,277.5,389.1,278.6,389.1L278.6,389.1z"/>
<path class="st25" d="M293.9,380.5v7c0,0.5,0.1,0.8,0.4,1.1c0.2,0.2,0.6,0.3,1.2,0.3h1.7v3.1h-2.3c-3.1,0-4.6-1.5-4.6-4.5v-7h-1.7
	v-3h1.7v-3.6h3.7v3.6h3.2v3L293.9,380.5L293.9,380.5z"/>
<path class="st25" d="M302.4,375.8c-0.6,0-1.2-0.2-1.6-0.6c-0.4-0.4-0.6-0.9-0.6-1.5s0.2-1.1,0.6-1.5c0.4-0.4,1-0.6,1.6-0.6
	s1.2,0.2,1.6,0.6c0.4,0.4,0.6,0.9,0.6,1.5s-0.2,1.1-0.6,1.5C303.6,375.6,303.1,375.8,302.4,375.8z M304.2,377.5V392h-3.7v-14.5
	H304.2z"/>
<path class="st25" d="M316.7,377.3c1.7,0,3.1,0.5,4.2,1.6s1.6,2.6,1.6,4.6v8.5h-3.7v-8c0-1.2-0.3-2-0.9-2.7
	c-0.6-0.6-1.4-0.9-2.4-0.9s-1.8,0.3-2.4,0.9s-0.9,1.5-0.9,2.7v8h-3.7v-14.5h3.7v1.8c0.5-0.6,1.1-1.1,1.9-1.5
	C314.9,377.5,315.8,377.3,316.7,377.3L316.7,377.3z"/>
<path class="st25" d="M332.4,377.3c1.1,0,2,0.2,2.9,0.6c0.8,0.4,1.5,1,2,1.7v-2.1h3.7v14.6c0,1.4-0.3,2.5-0.8,3.6
	c-0.5,1.1-1.4,1.9-2.4,2.5c-1.1,0.6-2.4,0.9-3.9,0.9c-2.1,0-3.8-0.5-5.1-1.5c-1.3-1-2.1-2.3-2.2-3.9h3.6c0.2,0.7,0.6,1.2,1.2,1.6
	c0.6,0.4,1.4,0.6,2.3,0.6c1.1,0,1.9-0.3,2.6-1c0.7-0.6,1-1.6,1-2.9v-2.2c-0.5,0.7-1.1,1.2-2,1.7s-1.8,0.7-2.8,0.7
	c-1.2,0-2.4-0.3-3.4-0.9c-1-0.6-1.8-1.5-2.4-2.7c-0.6-1.1-0.9-2.5-0.9-4s0.3-2.8,0.9-3.9c0.6-1.1,1.4-2,2.4-2.6
	C330.1,377.6,331.2,377.3,332.4,377.3L332.4,377.3z M337.2,384.8c0-0.9-0.2-1.7-0.5-2.3c-0.4-0.6-0.8-1.1-1.4-1.5
	c-0.6-0.3-1.2-0.5-1.9-0.5s-1.3,0.2-1.9,0.5c-0.6,0.3-1,0.8-1.4,1.5c-0.4,0.6-0.5,1.4-0.5,2.3s0.2,1.6,0.5,2.3
	c0.4,0.6,0.8,1.1,1.4,1.5c0.6,0.4,1.2,0.5,1.9,0.5s1.3-0.2,1.9-0.5c0.6-0.3,1.1-0.8,1.4-1.5C337,386.4,337.2,385.7,337.2,384.8
	L337.2,384.8z"/>
<path class="st25" d="M423.9,345.4c0,1-0.2,1.9-0.7,2.8c-0.5,0.9-1.2,1.5-2.2,2.1c-1,0.5-2.2,0.8-3.7,0.8h-3.1v7h-3.7v-18.3h6.7
	c1.4,0,2.6,0.2,3.6,0.7c1,0.5,1.7,1.2,2.2,2C423.6,343.4,423.9,344.3,423.9,345.4L423.9,345.4z M417.1,348.1c1,0,1.8-0.2,2.2-0.7
	c0.5-0.5,0.7-1.1,0.7-2c0-1.8-1-2.7-3-2.7h-2.9v5.3L417.1,348.1L417.1,348.1z"/>
<path class="st25" d="M430.9,345.8c0.5-0.8,1.1-1.4,1.9-1.8s1.6-0.7,2.6-0.7v3.9h-1c-1.1,0-2,0.3-2.6,0.8s-0.9,1.5-0.9,2.8v7.2h-3.7
	v-14.5h3.7V345.8L430.9,345.8z"/>
<path class="st25" d="M445.1,358.3c-1.4,0-2.7-0.3-3.8-0.9s-2-1.5-2.6-2.6c-0.6-1.1-1-2.5-1-3.9s0.3-2.8,1-3.9
	c0.6-1.1,1.5-2,2.7-2.6c1.1-0.6,2.4-0.9,3.8-0.9s2.7,0.3,3.8,0.9c1.1,0.6,2,1.5,2.7,2.6c0.7,1.1,1,2.4,1,3.9s-0.3,2.8-1,3.9
	c-0.7,1.1-1.6,2-2.7,2.6C447.8,358,446.5,358.3,445.1,358.3z M445.1,355.1c0.7,0,1.3-0.2,1.9-0.5c0.6-0.3,1-0.8,1.4-1.5
	c0.4-0.6,0.5-1.4,0.5-2.4c0-1.4-0.4-2.4-1.1-3.2c-0.7-0.7-1.6-1.1-2.7-1.1s-1.9,0.4-2.6,1.1c-0.7,0.7-1,1.8-1,3.2s0.3,2.4,1,3.2
	C443.1,354.7,444,355.1,445.1,355.1L445.1,355.1z"/>
<path class="st25" d="M459.8,345.6c0.5-0.7,1.1-1.2,2-1.7c0.8-0.5,1.8-0.7,2.9-0.7c1.2,0,2.4,0.3,3.4,0.9c1,0.6,1.8,1.5,2.4,2.6
	c0.6,1.1,0.9,2.4,0.9,3.9s-0.3,2.8-0.9,4c-0.6,1.1-1.4,2-2.4,2.7c-1,0.6-2.1,0.9-3.4,0.9c-1.1,0-2-0.2-2.8-0.7s-1.5-1-2-1.6v9h-3.7
	v-21.5h3.7L459.8,345.6L459.8,345.6z M467.5,350.8c0-0.9-0.2-1.6-0.5-2.3c-0.4-0.6-0.8-1.1-1.4-1.5c-0.6-0.3-1.2-0.5-1.9-0.5
	s-1.3,0.2-1.9,0.5c-0.6,0.3-1.1,0.8-1.4,1.5c-0.4,0.6-0.5,1.4-0.5,2.3s0.2,1.6,0.5,2.3c0.4,0.6,0.8,1.1,1.4,1.5s1.2,0.5,1.9,0.5
	s1.3-0.2,1.9-0.5c0.6-0.4,1.1-0.8,1.4-1.5S467.5,351.6,467.5,350.8L467.5,350.8z"/>
<path class="st25" d="M481.1,358.3c-1.4,0-2.7-0.3-3.8-0.9s-2-1.5-2.6-2.6c-0.6-1.1-1-2.5-1-3.9s0.3-2.8,1-3.9
	c0.6-1.1,1.5-2,2.7-2.6c1.1-0.6,2.4-0.9,3.8-0.9s2.7,0.3,3.8,0.9c1.1,0.6,2,1.5,2.7,2.6c0.7,1.1,1,2.4,1,3.9s-0.3,2.8-1,3.9
	c-0.7,1.1-1.6,2-2.7,2.6C483.8,358,482.5,358.3,481.1,358.3z M481.1,355.1c0.7,0,1.3-0.2,1.9-0.5c0.6-0.3,1-0.8,1.4-1.5
	c0.4-0.6,0.5-1.4,0.5-2.4c0-1.4-0.4-2.4-1.1-3.2c-0.7-0.7-1.6-1.1-2.7-1.1s-1.9,0.4-2.6,1.1c-0.7,0.7-1,1.8-1,3.2s0.3,2.4,1,3.2
	C479.2,354.7,480.1,355.1,481.1,355.1L481.1,355.1z"/>
<path class="st25" d="M497.7,358.3c-1.2,0-2.2-0.2-3.2-0.6c-0.9-0.4-1.7-1-2.2-1.8c-0.5-0.7-0.9-1.5-0.9-2.4h3.7
	c0.1,0.6,0.4,1,0.8,1.4c0.5,0.4,1.1,0.5,1.8,0.5s1.2-0.1,1.6-0.4c0.4-0.3,0.6-0.6,0.6-1.1c0-0.5-0.2-0.8-0.7-1
	c-0.5-0.2-1.2-0.5-2.3-0.8c-1.1-0.2-2-0.5-2.7-0.8c-0.7-0.3-1.3-0.7-1.8-1.3c-0.5-0.6-0.7-1.4-0.7-2.3c0-0.8,0.2-1.5,0.7-2.2
	s1.1-1.2,2-1.6c0.9-0.4,1.9-0.6,3-0.6c1.7,0,3.1,0.4,4.1,1.3c1,0.9,1.6,2,1.7,3.5h-3.5c0-0.6-0.3-1-0.7-1.4s-1-0.5-1.7-0.5
	c-0.7,0-1.2,0.1-1.5,0.4c-0.4,0.2-0.5,0.6-0.5,1c0,0.5,0.2,0.9,0.7,1.1c0.5,0.3,1.2,0.5,2.3,0.8c1,0.3,1.9,0.5,2.6,0.8
	s1.3,0.7,1.8,1.3c0.5,0.6,0.8,1.4,0.8,2.3c0,0.8-0.2,1.6-0.7,2.3c-0.5,0.7-1.1,1.2-2,1.6C499.9,358.1,498.9,358.3,497.7,358.3
	L497.7,358.3z"/>
<path class="st25" d="M506.3,350.8c0-1.5,0.3-2.8,0.9-3.9c0.6-1.1,1.4-2,2.4-2.6c1-0.6,2.1-0.9,3.4-0.9c1.1,0,2,0.2,2.8,0.7
	s1.5,1,2,1.6v-2.1h3.7v14.5h-3.7v-2.1c-0.5,0.7-1.1,1.2-2,1.7s-1.8,0.7-2.9,0.7c-1.2,0-2.3-0.3-3.4-0.9c-1-0.6-1.8-1.5-2.4-2.7
	C506.6,353.6,506.3,352.2,506.3,350.8L506.3,350.8z M517.7,350.8c0-0.9-0.2-1.7-0.5-2.3c-0.3-0.6-0.8-1.1-1.4-1.5
	c-0.6-0.3-1.2-0.5-1.9-0.5s-1.3,0.2-1.9,0.5c-0.6,0.3-1,0.8-1.4,1.5c-0.4,0.6-0.5,1.4-0.5,2.3s0.2,1.6,0.5,2.3
	c0.4,0.6,0.8,1.1,1.4,1.5c0.6,0.4,1.2,0.5,1.9,0.5s1.3-0.2,1.9-0.5c0.6-0.3,1.1-0.8,1.4-1.5C517.5,352.5,517.7,351.7,517.7,350.8
	L517.7,350.8z"/>
<path class="st25" d="M529.5,338.7v19.4h-3.7v-19.4H529.5z"/>
<path class="st25" d="M632.8,280.1c0,1-0.2,1.9-0.7,2.8c-0.5,0.9-1.2,1.5-2.2,2.1c-1,0.5-2.2,0.8-3.7,0.8h-3.1v7h-3.7v-18.3h6.7
	c1.4,0,2.6,0.2,3.6,0.7c1,0.5,1.7,1.2,2.2,2C632.5,278,632.8,279,632.8,280.1L632.8,280.1z M626,282.7c1,0,1.8-0.2,2.2-0.7
	c0.5-0.5,0.7-1.1,0.7-2c0-1.8-1-2.7-3-2.7h-2.9v5.3L626,282.7L626,282.7z"/>
<path class="st25" d="M642.6,292.9c-1.4,0-2.7-0.3-3.8-0.9s-2-1.5-2.6-2.6c-0.6-1.1-1-2.5-1-3.9s0.3-2.8,1-3.9
	c0.7-1.1,1.5-2,2.7-2.6c1.1-0.6,2.4-0.9,3.8-0.9s2.7,0.3,3.8,0.9c1.1,0.6,2,1.5,2.7,2.6c0.7,1.1,1,2.4,1,3.9s-0.3,2.8-1,3.9
	c-0.7,1.1-1.6,2-2.7,2.6C645.3,292.6,644,292.9,642.6,292.9L642.6,292.9z M642.6,289.7c0.7,0,1.3-0.2,1.9-0.5c0.6-0.3,1-0.8,1.4-1.5
	c0.3-0.6,0.5-1.4,0.5-2.4c0-1.4-0.4-2.4-1.1-3.2c-0.7-0.7-1.6-1.1-2.7-1.1s-1.9,0.4-2.6,1.1c-0.7,0.7-1,1.8-1,3.2s0.3,2.4,1,3.2
	C640.7,289.4,641.5,289.7,642.6,289.7L642.6,289.7z"/>
<path class="st25" d="M657.3,273.3v19.4h-3.7v-19.4H657.3z"/>
<path class="st25" d="M663.6,276.5c-0.7,0-1.2-0.2-1.6-0.6c-0.4-0.4-0.7-0.9-0.7-1.5s0.2-1.1,0.7-1.5c0.4-0.4,1-0.6,1.6-0.6
	s1.2,0.2,1.6,0.6c0.4,0.4,0.7,0.9,0.7,1.5s-0.2,1.1-0.7,1.5C664.8,276.3,664.2,276.5,663.6,276.5z M665.4,278.2v14.5h-3.7v-14.5
	H665.4z"/>
<path class="st25" d="M668.8,285.4c0-1.5,0.3-2.8,0.9-4c0.6-1.1,1.5-2,2.5-2.6c1.1-0.6,2.3-0.9,3.7-0.9c1.8,0,3.3,0.5,4.5,1.4
	c1.2,0.9,2,2.2,2.4,3.8h-4c-0.2-0.6-0.6-1.1-1.1-1.5c-0.5-0.4-1.1-0.5-1.8-0.5c-1,0-1.9,0.4-2.5,1.1s-0.9,1.8-0.9,3.2
	s0.3,2.5,0.9,3.2c0.6,0.8,1.4,1.1,2.5,1.1c1.5,0,2.5-0.7,2.9-2h4c-0.4,1.6-1.2,2.8-2.4,3.8c-1.2,0.9-2.7,1.4-4.5,1.4
	c-1.4,0-2.6-0.3-3.7-0.9c-1.1-0.6-1.9-1.5-2.5-2.6C669.1,288.3,668.8,286.9,668.8,285.4L668.8,285.4z"/>
<path class="st25" d="M700.2,278.2l-9,21.4h-3.9l3.1-7.2l-5.8-14.1h4.1l3.8,10.1l3.8-10.1L700.2,278.2L700.2,278.2z"/>
<path class="st25" d="M614.5,319.6c1,0.2,1.9,0.7,2.5,1.5s1,1.8,1,2.9c0,1-0.2,1.8-0.7,2.6s-1.2,1.3-2.1,1.8c-0.9,0.4-2,0.6-3.2,0.6
	h-7.9v-18.3h7.5c1.2,0,2.3,0.2,3.2,0.6c0.9,0.4,1.6,1,2,1.7c0.5,0.7,0.7,1.5,0.7,2.4c0,1.1-0.3,2-0.9,2.7
	C616.2,318.8,615.5,319.4,614.5,319.6L614.5,319.6z M607.8,318.3h3.4c0.9,0,1.5-0.2,2-0.6c0.5-0.4,0.7-1,0.7-1.7s-0.2-1.3-0.7-1.7
	c-0.5-0.4-1.1-0.6-2-0.6h-3.4V318.3z M611.5,326c0.9,0,1.6-0.2,2.1-0.6c0.5-0.4,0.7-1,0.7-1.8s-0.3-1.4-0.8-1.9s-1.2-0.7-2.1-0.7
	h-3.6v4.9L611.5,326L611.5,326z"/>
<path class="st25" d="M623.6,312.8c-0.7,0-1.2-0.2-1.6-0.6c-0.4-0.4-0.7-0.9-0.7-1.5s0.2-1.1,0.7-1.5c0.4-0.4,1-0.6,1.6-0.6
	s1.2,0.2,1.6,0.6c0.4,0.4,0.7,0.9,0.7,1.5s-0.2,1.1-0.7,1.5C624.8,312.6,624.3,312.8,623.6,312.8z M625.4,314.5V329h-3.7v-14.5
	H625.4z"/>
<path class="st25" d="M637.9,314.3c1.7,0,3.1,0.5,4.2,1.6s1.6,2.6,1.6,4.6v8.5H640v-8c0-1.2-0.3-2-0.9-2.7c-0.6-0.6-1.4-0.9-2.4-0.9
	s-1.8,0.3-2.4,0.9s-0.9,1.5-0.9,2.7v8h-3.7v-14.5h3.7v1.8c0.5-0.6,1.1-1.1,1.9-1.5C636.1,314.5,637,314.3,637.9,314.3L637.9,314.3z"
	/>
<path class="st25" d="M647,321.7c0-1.5,0.3-2.8,0.9-3.9c0.6-1.1,1.4-2,2.4-2.6c1-0.6,2.2-0.9,3.4-0.9c0.9,0,1.8,0.2,2.7,0.6
	c0.9,0.4,1.5,1,2,1.6v-6.9h3.7V329h-3.7v-2.1c-0.5,0.7-1.1,1.3-1.9,1.7c-0.8,0.4-1.8,0.7-2.8,0.7c-1.2,0-2.3-0.3-3.4-0.9
	s-1.8-1.5-2.4-2.7C647.3,324.5,647,323.2,647,321.7L647,321.7z M658.4,321.8c0-0.9-0.2-1.7-0.5-2.3c-0.3-0.6-0.8-1.1-1.4-1.5
	c-0.6-0.3-1.2-0.5-1.9-0.5s-1.3,0.2-1.9,0.5s-1,0.8-1.4,1.5c-0.4,0.6-0.5,1.4-0.5,2.3s0.2,1.6,0.5,2.3c0.3,0.6,0.8,1.1,1.4,1.5
	c0.6,0.4,1.2,0.5,1.9,0.5s1.3-0.2,1.9-0.5c0.6-0.3,1.1-0.8,1.4-1.5C658.2,323.4,658.4,322.7,658.4,321.8L658.4,321.8z"/>
<path class="st25" d="M668.4,312.8c-0.7,0-1.2-0.2-1.6-0.6c-0.4-0.4-0.7-0.9-0.7-1.5s0.2-1.1,0.7-1.5c0.4-0.4,1-0.6,1.6-0.6
	s1.2,0.2,1.6,0.6c0.4,0.4,0.7,0.9,0.7,1.5s-0.2,1.1-0.7,1.5C669.5,312.6,669,312.8,668.4,312.8z M670.2,314.5V329h-3.7v-14.5H670.2z
	"/>
<path class="st25" d="M682.6,314.3c1.7,0,3.1,0.5,4.2,1.6s1.6,2.6,1.6,4.6v8.5h-3.7v-8c0-1.2-0.3-2-0.9-2.7
	c-0.6-0.6-1.4-0.9-2.4-0.9s-1.8,0.3-2.4,0.9s-0.9,1.5-0.9,2.7v8h-3.7v-14.5h3.7v1.8c0.5-0.6,1.1-1.1,1.9-1.5
	C680.9,314.5,681.7,314.3,682.6,314.3L682.6,314.3z"/>
<path class="st25" d="M698.4,314.3c1.1,0,2,0.2,2.8,0.6c0.8,0.4,1.5,1,2,1.7v-2.1h3.7v14.6c0,1.4-0.3,2.5-0.8,3.6
	c-0.5,1.1-1.3,1.9-2.4,2.5c-1.1,0.6-2.4,0.9-3.9,0.9c-2.1,0-3.8-0.5-5.1-1.5c-1.3-1-2.1-2.3-2.2-3.9h3.7c0.2,0.7,0.6,1.2,1.2,1.6
	c0.6,0.4,1.4,0.6,2.3,0.6c1.1,0,1.9-0.3,2.6-1c0.7-0.6,1-1.6,1-2.9v-2.2c-0.5,0.7-1.1,1.2-2,1.7s-1.8,0.7-2.8,0.7
	c-1.2,0-2.3-0.3-3.4-0.9s-1.8-1.5-2.4-2.7c-0.6-1.1-0.9-2.5-0.9-4s0.3-2.8,0.9-3.9c0.6-1.1,1.4-2,2.4-2.6
	C696,314.6,697.1,314.3,698.4,314.3L698.4,314.3z M703.2,321.8c0-0.9-0.2-1.7-0.5-2.3c-0.3-0.6-0.8-1.1-1.4-1.5
	c-0.6-0.3-1.2-0.5-1.9-0.5s-1.3,0.2-1.9,0.5s-1,0.8-1.4,1.5c-0.4,0.6-0.5,1.4-0.5,2.3s0.2,1.6,0.5,2.3c0.3,0.6,0.8,1.1,1.4,1.5
	c0.6,0.4,1.2,0.5,1.9,0.5s1.3-0.2,1.9-0.5c0.6-0.3,1.1-0.8,1.4-1.5C703,323.4,703.1,322.7,703.2,321.8L703.2,321.8z"/>
<path class="st25" d="M809.1,236c0,1-0.2,1.9-0.7,2.8c-0.5,0.9-1.2,1.6-2.2,2.1s-2.2,0.8-3.7,0.8h-3.1v7h-3.7v-18.3h6.7
	c1.4,0,2.6,0.2,3.6,0.7c1,0.5,1.7,1.2,2.2,2C808.9,233.9,809.1,234.9,809.1,236L809.1,236z M802.4,238.6c1,0,1.8-0.2,2.2-0.7
	c0.5-0.5,0.7-1.1,0.7-1.9c0-1.8-1-2.7-3-2.7h-2.9v5.3H802.4z"/>
<path class="st25" d="M818.9,248.9c-1.4,0-2.7-0.3-3.8-0.9s-2-1.5-2.6-2.6c-0.6-1.1-1-2.4-1-3.9s0.3-2.8,1-3.9
	c0.7-1.1,1.5-2,2.7-2.6c1.1-0.6,2.4-0.9,3.8-0.9s2.7,0.3,3.8,0.9c1.1,0.6,2,1.5,2.7,2.6c0.7,1.1,1,2.4,1,3.9s-0.3,2.8-1,3.9
	c-0.7,1.1-1.6,2-2.7,2.6C821.6,248.5,820.3,248.9,818.9,248.9L818.9,248.9z M818.9,245.7c0.7,0,1.3-0.2,1.9-0.5
	c0.6-0.3,1-0.8,1.4-1.4c0.3-0.6,0.5-1.4,0.5-2.4c0-1.4-0.4-2.4-1.1-3.2c-0.7-0.7-1.6-1.1-2.7-1.1s-1.9,0.4-2.6,1.1
	c-0.7,0.7-1,1.8-1,3.2s0.3,2.4,1,3.2C817,245.3,817.9,245.7,818.9,245.7L818.9,245.7z"/>
<path class="st25" d="M833.7,229.2v19.4H830v-19.4H833.7z"/>
<path class="st25" d="M839.9,232.4c-0.7,0-1.2-0.2-1.6-0.6c-0.4-0.4-0.7-0.9-0.7-1.5s0.2-1.1,0.7-1.5c0.4-0.4,1-0.6,1.6-0.6
	s1.2,0.2,1.6,0.6c0.4,0.4,0.7,0.9,0.7,1.5s-0.2,1.1-0.7,1.5C841.1,232.2,840.6,232.4,839.9,232.4z M841.7,234.1v14.5h-3.7v-14.5
	H841.7z"/>
<path class="st25" d="M845.2,241.4c0-1.5,0.3-2.8,0.9-3.9c0.6-1.1,1.5-2,2.5-2.6c1.1-0.6,2.3-0.9,3.7-0.9c1.8,0,3.3,0.4,4.5,1.4
	c1.2,0.9,2,2.2,2.4,3.8h-4c-0.2-0.6-0.6-1.1-1.1-1.5s-1.1-0.6-1.8-0.6c-1,0-1.9,0.4-2.5,1.1s-0.9,1.8-0.9,3.2s0.3,2.4,0.9,3.2
	c0.6,0.8,1.4,1.1,2.5,1.1c1.5,0,2.5-0.7,2.9-2h4c-0.4,1.6-1.2,2.8-2.4,3.8c-1.2,0.9-2.7,1.4-4.5,1.4c-1.4,0-2.6-0.3-3.7-0.9
	c-1.1-0.6-1.9-1.5-2.5-2.6C845.5,244.2,845.2,242.8,845.2,241.4L845.2,241.4z"/>
<path class="st25" d="M876.6,234.1l-9,21.4h-3.9l3.1-7.2l-5.8-14.1h4.1l3.8,10.1l3.8-10.1L876.6,234.1L876.6,234.1z"/>
<path class="st25" d="M774.5,266.7V285h-3.7v-18.3H774.5z"/>
<path class="st25" d="M784.4,285.2c-1.2,0-2.2-0.2-3.2-0.6c-0.9-0.4-1.7-1-2.2-1.8c-0.5-0.7-0.8-1.5-0.9-2.4h3.7
	c0.1,0.6,0.3,1,0.8,1.4c0.5,0.4,1.1,0.5,1.8,0.5s1.2-0.1,1.6-0.4c0.4-0.3,0.6-0.6,0.6-1.1c0-0.5-0.2-0.8-0.7-1
	c-0.5-0.2-1.2-0.5-2.3-0.8c-1.1-0.2-2-0.5-2.7-0.8c-0.7-0.3-1.3-0.7-1.8-1.3c-0.5-0.6-0.7-1.4-0.7-2.3c0-0.8,0.2-1.5,0.7-2.2
	s1.1-1.2,2-1.6c0.9-0.4,1.9-0.6,3-0.6c1.7,0,3.1,0.4,4.2,1.3c1,0.9,1.6,2,1.7,3.5h-3.5c0-0.6-0.3-1-0.7-1.4s-1-0.5-1.7-0.5
	c-0.7,0-1.2,0.1-1.5,0.4s-0.5,0.6-0.5,1c0,0.5,0.2,0.9,0.7,1.1s1.2,0.5,2.3,0.8c1,0.3,1.9,0.5,2.6,0.8c0.7,0.3,1.3,0.7,1.8,1.3
	c0.5,0.6,0.8,1.4,0.8,2.3c0,0.8-0.2,1.6-0.7,2.3c-0.5,0.7-1.1,1.2-2,1.6C786.6,285,785.6,285.2,784.4,285.2L784.4,285.2z"/>
<path class="st25" d="M799.5,285.2c-1.2,0-2.2-0.2-3.2-0.6c-0.9-0.4-1.7-1-2.2-1.8c-0.5-0.7-0.8-1.5-0.9-2.4h3.7
	c0.1,0.6,0.3,1,0.8,1.4c0.5,0.4,1.1,0.5,1.8,0.5s1.2-0.1,1.6-0.4c0.4-0.3,0.6-0.6,0.6-1.1c0-0.5-0.2-0.8-0.7-1
	c-0.5-0.2-1.2-0.5-2.3-0.8c-1.1-0.2-2-0.5-2.7-0.8c-0.7-0.3-1.3-0.7-1.8-1.3c-0.5-0.6-0.7-1.4-0.7-2.3c0-0.8,0.2-1.5,0.7-2.2
	s1.1-1.2,2-1.6c0.9-0.4,1.9-0.6,3-0.6c1.7,0,3.1,0.4,4.2,1.3c1,0.9,1.6,2,1.7,3.5h-3.5c0-0.6-0.3-1-0.7-1.4s-1-0.5-1.7-0.5
	c-0.7,0-1.2,0.1-1.5,0.4s-0.5,0.6-0.5,1c0,0.5,0.2,0.9,0.7,1.1s1.2,0.5,2.3,0.8c1,0.3,1.9,0.5,2.6,0.8c0.7,0.3,1.3,0.7,1.8,1.3
	c0.5,0.6,0.8,1.4,0.8,2.3c0,0.8-0.2,1.6-0.7,2.3c-0.5,0.7-1.1,1.2-2,1.6C801.7,285,800.7,285.2,799.5,285.2L799.5,285.2z"/>
<path class="st25" d="M822.7,270.4v14.5H819v-1.8c-0.5,0.6-1.1,1.1-1.9,1.5c-0.8,0.4-1.6,0.5-2.5,0.5c-1.1,0-2.1-0.2-3-0.7
	c-0.9-0.5-1.6-1.2-2.1-2.1s-0.7-2-0.7-3.4v-8.5h3.7v8c0,1.2,0.3,2,0.9,2.7c0.6,0.6,1.4,0.9,2.4,0.9s1.8-0.3,2.4-0.9
	c0.6-0.6,0.9-1.5,0.9-2.7v-8L822.7,270.4L822.7,270.4z"/>
<path class="st25" d="M826.2,277.6c0-1.5,0.3-2.8,0.9-3.9c0.6-1.1,1.4-2,2.4-2.6c1-0.6,2.1-0.9,3.4-0.9c1.1,0,2,0.2,2.8,0.7
	s1.5,1,2,1.6v-2.1h3.7v14.5h-3.7v-2.1c-0.5,0.7-1.1,1.2-2,1.7s-1.8,0.7-2.9,0.7c-1.2,0-2.3-0.3-3.3-0.9c-1-0.6-1.8-1.5-2.4-2.7
	S826.2,279.1,826.2,277.6L826.2,277.6z M837.6,277.7c0-0.9-0.2-1.7-0.5-2.3c-0.3-0.6-0.8-1.1-1.4-1.5c-0.6-0.3-1.2-0.5-1.9-0.5
	s-1.3,0.2-1.9,0.5s-1,0.8-1.4,1.5c-0.4,0.6-0.5,1.4-0.5,2.3s0.2,1.6,0.5,2.3c0.3,0.6,0.8,1.1,1.4,1.5c0.6,0.4,1.2,0.5,1.9,0.5
	s1.3-0.2,1.9-0.5c0.6-0.3,1.1-0.8,1.4-1.5C837.4,279.3,837.6,278.6,837.6,277.7L837.6,277.7z"/>
<path class="st25" d="M853.7,270.2c1.7,0,3.1,0.5,4.2,1.6s1.6,2.6,1.6,4.6v8.5h-3.7v-8c0-1.2-0.3-2-0.9-2.7
	c-0.6-0.6-1.4-0.9-2.4-0.9s-1.8,0.3-2.4,0.9s-0.9,1.5-0.9,2.7v8h-3.7v-14.5h3.7v1.8c0.5-0.6,1.1-1.1,1.9-1.5
	C852,270.4,852.8,270.2,853.7,270.2L853.7,270.2z"/>
<path class="st25" d="M862.8,277.7c0-1.5,0.3-2.8,0.9-4c0.6-1.1,1.5-2,2.5-2.6c1.1-0.6,2.3-0.9,3.7-0.9c1.8,0,3.3,0.5,4.5,1.4
	c1.2,0.9,2,2.2,2.4,3.8h-4c-0.2-0.6-0.6-1.1-1.1-1.5c-0.5-0.4-1.1-0.5-1.8-0.5c-1,0-1.9,0.4-2.5,1.1s-0.9,1.8-0.9,3.2
	s0.3,2.5,0.9,3.2c0.6,0.8,1.4,1.1,2.5,1.1c1.5,0,2.5-0.7,2.9-2h4c-0.4,1.6-1.2,2.8-2.4,3.8c-1.2,0.9-2.7,1.4-4.5,1.4
	c-1.4,0-2.6-0.3-3.7-0.9c-1.1-0.6-1.9-1.5-2.5-2.6C863.1,280.5,862.8,279.2,862.8,277.7L862.8,277.7z"/>
<path class="st25" d="M893.8,277.4c0,0.5,0,1-0.1,1.4h-10.6c0.1,1,0.5,1.9,1.1,2.5s1.4,0.9,2.4,0.9c1.4,0,2.3-0.6,2.9-1.8h4
	c-0.4,1.4-1.2,2.5-2.4,3.4s-2.6,1.4-4.4,1.4c-1.4,0-2.7-0.3-3.8-0.9s-2-1.5-2.6-2.6c-0.6-1.1-0.9-2.5-0.9-3.9s0.3-2.8,0.9-4
	c0.6-1.1,1.5-2,2.6-2.6c1.1-0.6,2.4-0.9,3.8-0.9s2.6,0.3,3.7,0.9s1.9,1.4,2.5,2.5C893.5,274.7,893.8,276,893.8,277.4L893.8,277.4z
	 M890,276.3c0-0.9-0.4-1.7-1-2.3c-0.7-0.6-1.5-0.9-2.4-0.9c-0.9,0-1.7,0.3-2.3,0.8c-0.6,0.5-1,1.3-1.1,2.3L890,276.3L890,276.3z"/>
<g>
	<rect x="1205.5" y="73.8" class="st0" width="675.9" height="141.4"/>
	<g>
		<defs>
			<rect id="SVGID_00000072980749753411874590000005390635030554572948_" x="1205.5" y="73.8" width="675.9" height="141.4"/>
		</defs>
		<clipPath id="SVGID_00000160184344648579495450000008832764436302330275_">
			<use xlink:href="#SVGID_00000072980749753411874590000005390635030554572948_"  style="overflow:visible;"/>
		</clipPath>
		<g style="clip-path:url(#SVGID_00000160184344648579495450000008832764436302330275_);">
			<path class="st0" d="M1205.5,73.8h676.7V215h-676.7V73.8z"/>
		</g>
	</g>
</g>
<path class="st2" d="M1323.1,144.4c0-2.4,0.5-4.6,1.6-6.5c1.1-1.9,2.6-3.4,4.4-4.4s4-1.6,6.3-1.6c2.7,0,5.1,0.7,7.2,2.1
	c2.1,1.4,3.5,3.3,4.3,5.8h-5.6c-0.6-1.2-1.3-2-2.4-2.6c-1-0.6-2.2-0.9-3.5-0.9c-1.4,0-2.7,0.3-3.8,1c-1.1,0.7-2,1.6-2.6,2.8
	c-0.6,1.2-0.9,2.6-0.9,4.2s0.3,3,0.9,4.3c0.6,1.2,1.5,2.2,2.6,2.8s2.4,1,3.8,1c1.3,0,2.5-0.3,3.5-0.9c1-0.6,1.8-1.5,2.4-2.6h5.6
	c-0.8,2.5-2.2,4.4-4.3,5.8c-2,1.4-4.4,2.1-7.2,2.1c-2.3,0-4.4-0.5-6.3-1.6s-3.4-2.5-4.4-4.4C1323.6,149,1323.1,146.8,1323.1,144.4
	L1323.1,144.4z"/>
<path class="st2" d="M1356,136.2v6.1h8.2v3.9h-8.2v6.5h9.3v4h-14.2v-24.5h14.2v4L1356,136.2L1356,136.2z"/>
<path class="st2" d="M1382.3,156.7l-5.4-9.5h-2.3v9.5h-4.9v-24.4h9.2c1.9,0,3.5,0.3,4.8,1c1.3,0.7,2.3,1.6,3,2.7
	c0.7,1.1,1,2.4,1,3.8c0,1.6-0.5,3.1-1.4,4.4c-0.9,1.3-2.3,2.2-4.2,2.7l5.8,9.9L1382.3,156.7L1382.3,156.7z M1374.6,143.5h4.1
	c1.3,0,2.3-0.3,3-1c0.7-0.6,1-1.5,1-2.7s-0.3-2-1-2.6c-0.7-0.6-1.6-0.9-3-0.9h-4.1V143.5L1374.6,143.5z"/>
<path class="st2" d="M1408.8,132.2v4h-6.5v20.5h-4.9v-20.5h-6.5v-4H1408.8L1408.8,132.2z"/>
<path class="st2" d="M1417.2,132.2v24.4h-4.9v-24.4L1417.2,132.2L1417.2,132.2z"/>
<path class="st2" d="M1437.1,132.2v4h-10.2v6.3h7.8v3.9h-7.8v10.3h-4.9v-24.4L1437.1,132.2L1437.1,132.2z"/>
<path class="st2" d="M1445.5,132.2v24.4h-4.9v-24.4L1445.5,132.2L1445.5,132.2z"/>
<path class="st2" d="M1449.1,144.4c0-2.4,0.5-4.6,1.6-6.5c1.1-1.9,2.6-3.4,4.4-4.4s4-1.6,6.3-1.6c2.7,0,5.1,0.7,7.2,2.1
	c2.1,1.4,3.5,3.3,4.3,5.8h-5.6c-0.6-1.2-1.3-2-2.4-2.6c-1-0.6-2.2-0.9-3.5-0.9c-1.4,0-2.7,0.3-3.8,1c-1.1,0.7-2,1.6-2.6,2.8
	c-0.6,1.2-0.9,2.6-0.9,4.2s0.3,3,0.9,4.3c0.6,1.2,1.5,2.2,2.6,2.8s2.4,1,3.8,1c1.3,0,2.5-0.3,3.5-0.9c1-0.6,1.8-1.5,2.4-2.6h5.6
	c-0.8,2.5-2.2,4.4-4.3,5.8c-2,1.4-4.4,2.1-7.2,2.1c-2.3,0-4.4-0.5-6.3-1.6s-3.4-2.5-4.4-4.4C1449.7,149,1449.1,146.8,1449.1,144.4
	L1449.1,144.4z"/>
<path class="st2" d="M1492.2,152h-9.7l-1.6,4.6h-5.1l8.8-24.5h5.7l8.8,24.5h-5.2L1492.2,152z M1490.8,148.1l-3.5-10.2l-3.5,10.2
	H1490.8L1490.8,148.1z"/>
<path class="st2" d="M1518.8,132.2v4h-6.5v20.5h-4.9v-20.5h-6.5v-4H1518.8L1518.8,132.2z"/>
<path class="st2" d="M1527.3,136.2v6.1h8.2v3.9h-8.2v6.5h9.3v4h-14.2v-24.5h14.2v4L1527.3,136.2L1527.3,136.2z"/>
<path class="st2" d="M1560.7,156.9c-2.3,0-4.4-0.5-6.3-1.6c-1.9-1.1-3.4-2.6-4.5-4.5c-1.1-1.9-1.7-4.1-1.7-6.5s0.6-4.5,1.7-6.4
	s2.6-3.4,4.5-4.5s4-1.6,6.3-1.6s4.4,0.5,6.3,1.6c1.9,1.1,3.4,2.6,4.5,4.5c1.1,1.9,1.7,4,1.7,6.4s-0.6,4.6-1.7,6.5
	c-1.1,1.9-2.6,3.4-4.5,4.5C1565.1,156.4,1563,156.9,1560.7,156.9L1560.7,156.9z M1560.7,152.5c1.5,0,2.8-0.3,3.9-1
	c1.1-0.7,2-1.6,2.6-2.8c0.6-1.2,1-2.7,1-4.3s-0.3-3.1-1-4.3c-0.6-1.2-1.5-2.2-2.6-2.8c-1.1-0.7-2.4-1-3.9-1s-2.8,0.3-3.9,1
	c-1.1,0.6-2,1.6-2.6,2.8c-0.6,1.2-0.9,2.6-0.9,4.3s0.3,3.1,0.9,4.3c0.6,1.2,1.5,2.2,2.6,2.8C1557.9,152.2,1559.2,152.5,1560.7,152.5
	z"/>
<path class="st2" d="M1591.9,132.2v4h-10.2v6.3h7.8v3.9h-7.8v10.3h-4.9v-24.4L1591.9,132.2L1591.9,132.2z"/>
<path class="st2" d="M1608.6,132.2v24.4h-4.9v-24.4L1608.6,132.2L1608.6,132.2z"/>
<path class="st2" d="M1634.3,156.7h-4.9l-11.1-16.8v16.8h-4.9v-24.5h4.9l11.1,16.8v-16.8h4.9V156.7z"/>
<path class="st2" d="M1647.5,156.9c-1.7,0-3.2-0.3-4.6-0.9s-2.4-1.4-3.2-2.5c-0.8-1.1-1.2-2.4-1.2-3.9h5.3c0.1,1,0.4,1.8,1.1,2.4
	c0.6,0.6,1.5,0.9,2.7,0.9s2-0.3,2.7-0.8c0.7-0.6,1-1.3,1-2.1c0-0.7-0.2-1.3-0.7-1.8c-0.4-0.5-1-0.8-1.7-1.1
	c-0.7-0.3-1.6-0.6-2.7-0.9c-1.6-0.5-2.9-0.9-3.9-1.4c-1-0.4-1.8-1.1-2.6-2.1c-0.7-0.9-1.1-2.1-1.1-3.7c0-1.4,0.4-2.7,1.1-3.8
	c0.7-1.1,1.7-1.9,3-2.5c1.3-0.6,2.8-0.9,4.5-0.9c2.5,0,4.6,0.6,6.2,1.9c1.6,1.2,2.4,2.9,2.6,5.1h-5.4c-0.1-0.8-0.4-1.5-1.1-2.1
	c-0.7-0.6-1.5-0.8-2.6-0.8c-1,0-1.7,0.2-2.3,0.7c-0.6,0.5-0.8,1.2-0.8,2.1c0,0.6,0.2,1.2,0.6,1.6c0.4,0.4,1,0.8,1.6,1.1
	c0.7,0.3,1.6,0.6,2.7,0.9c1.6,0.5,2.9,0.9,3.9,1.4c1,0.5,1.9,1.2,2.6,2.1c0.7,0.9,1.1,2.2,1.1,3.7c0,1.3-0.3,2.5-1,3.7
	c-0.7,1.1-1.7,2-3,2.7C1650.9,156.6,1649.3,156.9,1647.5,156.9L1647.5,156.9z"/>
<path class="st2" d="M1665.2,132.2v15.1c0,1.7,0.4,2.9,1.3,3.8c0.9,0.9,2.1,1.3,3.7,1.3s2.8-0.4,3.7-1.3c0.9-0.9,1.3-2.1,1.3-3.8
	v-15.1h4.9v15.1c0,2.1-0.4,3.8-1.3,5.3c-0.9,1.4-2.1,2.5-3.6,3.2c-1.5,0.7-3.2,1.1-5,1.1s-3.5-0.4-4.9-1.1c-1.5-0.7-2.7-1.8-3.5-3.2
	c-0.9-1.4-1.3-3.2-1.3-5.3v-15.1H1665.2L1665.2,132.2z"/>
<path class="st2" d="M1697.4,156.7l-5.4-9.5h-2.3v9.5h-4.9v-24.4h9.2c1.9,0,3.5,0.3,4.8,1c1.3,0.7,2.3,1.6,3,2.7
	c0.7,1.1,1,2.4,1,3.8c0,1.6-0.5,3.1-1.4,4.4c-0.9,1.3-2.3,2.2-4.2,2.7l5.8,9.9L1697.4,156.7L1697.4,156.7z M1689.7,143.5h4.1
	c1.3,0,2.3-0.3,3-1c0.7-0.6,1-1.5,1-2.7s-0.3-2-1-2.6c-0.7-0.6-1.6-0.9-3-0.9h-4.1V143.5L1689.7,143.5z"/>
<path class="st2" d="M1722.2,152h-9.7l-1.6,4.6h-5.1l8.8-24.5h5.7l8.8,24.5h-5.2L1722.2,152z M1720.9,148.1l-3.5-10.2l-3.5,10.2
	H1720.9L1720.9,148.1z"/>
<path class="st2" d="M1753.2,156.7h-4.9l-11.1-16.8v16.8h-4.9v-24.5h4.9l11.1,16.8v-16.8h4.9V156.7z"/>
<path class="st2" d="M1756.8,144.4c0-2.4,0.5-4.6,1.6-6.5c1.1-1.9,2.6-3.4,4.4-4.4s4-1.6,6.3-1.6c2.7,0,5.1,0.7,7.2,2.1
	c2.1,1.4,3.5,3.3,4.3,5.8h-5.6c-0.6-1.2-1.3-2-2.4-2.6c-1-0.6-2.2-0.9-3.5-0.9c-1.4,0-2.7,0.3-3.8,1c-1.1,0.7-2,1.6-2.6,2.8
	c-0.6,1.2-0.9,2.6-0.9,4.2s0.3,3,0.9,4.3c0.6,1.2,1.5,2.2,2.6,2.8s2.4,1,3.8,1c1.3,0,2.5-0.3,3.5-0.9c1-0.6,1.8-1.5,2.4-2.6h5.6
	c-0.8,2.5-2.2,4.4-4.3,5.8c-2,1.4-4.4,2.1-7.2,2.1c-2.3,0-4.4-0.5-6.3-1.6s-3.4-2.5-4.4-4.4C1757.3,149,1756.8,146.8,1756.8,144.4
	L1756.8,144.4z"/>
<path class="st2" d="M1789.7,136.2v6.1h8.2v3.9h-8.2v6.5h9.3v4h-14.2v-24.5h14.2v4L1789.7,136.2L1789.7,136.2z"/>
<g>
	<defs>
		<rect id="SVGID_00000021818851693917806900000017014258536224078750_" x="1244.2" y="117.8" width="53.8" height="53.8"/>
	</defs>
	<clipPath id="SVGID_00000173846896323750754590000012132257389681303432_">
		<use xlink:href="#SVGID_00000021818851693917806900000017014258536224078750_"  style="overflow:visible;"/>
	</clipPath>
	<g style="clip-path:url(#SVGID_00000173846896323750754590000012132257389681303432_);">
		<g>
			<defs>
				<path id="SVGID_00000018226705326646720660000017528507321829523359_" d="M1271.1,117.8c-14.9,0-26.9,12-26.9,26.9
					s12.1,26.9,26.9,26.9s26.9-12.1,26.9-26.9S1286,117.8,1271.1,117.8"/>
			</defs>
			<clipPath id="SVGID_00000075159455168033621830000011964399348734133144_">
				<use xlink:href="#SVGID_00000018226705326646720660000017528507321829523359_"  style="overflow:visible;"/>
			</clipPath>
			<g style="clip-path:url(#SVGID_00000075159455168033621830000011964399348734133144_);">
				<path class="st2" d="M1244.2,117.8h53.8v53.8h-53.8C1244.2,171.6,1244.2,117.8,1244.2,117.8z"/>
			</g>
		</g>
	</g>
</g>
<path class="st0" d="M1274.4,135.9h-1.6c-0.7,0-1.4,0.1-2.1,0.6l-4.2,2.6v2.6l5.4-3.2v17h2.4L1274.4,135.9L1274.4,135.9z"/>
<g>
	<rect x="1205.5" y="218.1" class="st7" width="675.9" height="141.5"/>
	<g>
		<defs>
			<rect id="SVGID_00000103250073499131195940000004823408408051396282_" x="1205.5" y="218.1" width="675.9" height="141.5"/>
		</defs>
		<clipPath id="SVGID_00000120548636984342525180000013093473339733242006_">
			<use xlink:href="#SVGID_00000103250073499131195940000004823408408051396282_"  style="overflow:visible;"/>
		</clipPath>
		<g style="clip-path:url(#SVGID_00000120548636984342525180000013093473339733242006_);">
			<path class="st7" d="M1205.5,218.1h676.7v141.2h-676.7V218.1z"/>
		</g>
	</g>
</g>
<path class="st2" d="M1329.1,280.5v6.1h8.2v3.9h-8.2v6.5h9.3v4h-14.2v-24.5h14.2v4L1329.1,280.5L1329.1,280.5z"/>
<path class="st2" d="M1363.7,301h-4.9l-11.1-16.8V301h-4.9v-24.5h4.9l11.1,16.8v-16.8h4.9V301z"/>
<path class="st2" d="M1377.1,276.5c2.6,0,4.8,0.5,6.8,1.5c1.9,1,3.4,2.4,4.5,4.3c1.1,1.9,1.6,4,1.6,6.4s-0.5,4.6-1.6,6.4
	c-1.1,1.8-2.6,3.2-4.5,4.2s-4.2,1.5-6.8,1.5h-8.5v-24.4L1377.1,276.5L1377.1,276.5z M1376.9,296.8c2.6,0,4.5-0.7,5.9-2.1
	c1.4-1.4,2.1-3.4,2.1-5.9s-0.7-4.5-2.1-6s-3.4-2.1-5.9-2.1h-3.5v16.1L1376.9,296.8L1376.9,296.8z"/>
<path class="st2" d="M1405,301.2c-2.3,0-4.4-0.5-6.3-1.6c-1.9-1.1-3.4-2.5-4.5-4.5c-1.1-1.9-1.7-4-1.7-6.5s0.6-4.5,1.7-6.4
	c1.1-1.9,2.6-3.4,4.5-4.5c1.9-1.1,4-1.6,6.3-1.6s4.4,0.5,6.3,1.6c1.9,1.1,3.4,2.6,4.5,4.5s1.7,4,1.7,6.4s-0.6,4.6-1.7,6.5
	s-2.6,3.4-4.5,4.5C1409.4,300.7,1407.3,301.2,1405,301.2L1405,301.2z M1405,296.8c1.5,0,2.8-0.3,3.9-1c1.1-0.7,2-1.6,2.6-2.8
	c0.6-1.2,1-2.7,1-4.3s-0.3-3-1-4.3c-0.6-1.2-1.5-2.2-2.6-2.8c-1.1-0.7-2.4-1-3.9-1s-2.8,0.3-3.9,1c-1.1,0.6-2,1.6-2.6,2.8
	c-0.6,1.2-0.9,2.6-0.9,4.3s0.3,3.1,0.9,4.3c0.6,1.2,1.5,2.2,2.6,2.8C1402.2,296.5,1403.5,296.8,1405,296.8z"/>
<path class="st2" d="M1433.7,301l-5.4-9.5h-2.3v9.5h-4.9v-24.4h9.2c1.9,0,3.5,0.3,4.8,1c1.3,0.7,2.3,1.6,3,2.7c0.7,1.1,1,2.4,1,3.8
	c0,1.6-0.5,3.1-1.4,4.4c-0.9,1.3-2.3,2.2-4.2,2.7l5.8,9.9L1433.7,301L1433.7,301z M1426,287.8h4.1c1.3,0,2.3-0.3,3-1
	c0.7-0.6,1-1.5,1-2.7s-0.3-2-1-2.6c-0.7-0.6-1.6-0.9-3-0.9h-4.1V287.8z"/>
<path class="st2" d="M1452,301.2c-1.7,0-3.2-0.3-4.6-0.9s-2.4-1.4-3.2-2.5c-0.8-1.1-1.2-2.4-1.2-3.9h5.3c0.1,1,0.4,1.8,1.1,2.4
	c0.6,0.6,1.5,0.9,2.7,0.9s2-0.3,2.7-0.8c0.7-0.5,1-1.3,1-2.1c0-0.7-0.2-1.3-0.7-1.8c-0.4-0.5-1-0.8-1.7-1.1
	c-0.7-0.3-1.6-0.6-2.7-0.9c-1.6-0.5-2.9-0.9-3.9-1.4c-1-0.5-1.8-1.1-2.6-2.1c-0.7-0.9-1.1-2.1-1.1-3.7c0-1.4,0.4-2.7,1.1-3.8
	c0.7-1.1,1.7-1.9,3-2.5c1.3-0.6,2.8-0.9,4.5-0.9c2.5,0,4.6,0.6,6.2,1.9c1.6,1.2,2.4,2.9,2.6,5.1h-5.4c-0.1-0.8-0.4-1.5-1.1-2.1
	c-0.7-0.5-1.5-0.8-2.6-0.8c-1,0-1.7,0.2-2.3,0.7c-0.6,0.5-0.8,1.2-0.8,2.1c0,0.6,0.2,1.2,0.6,1.6c0.4,0.4,1,0.8,1.6,1.1
	c0.7,0.3,1.6,0.6,2.7,0.9c1.6,0.5,2.9,0.9,3.9,1.4c1,0.5,1.9,1.2,2.6,2.1c0.7,0.9,1.1,2.2,1.1,3.7c0,1.3-0.3,2.5-1,3.7
	c-0.7,1.1-1.7,2-3,2.7C1455.3,300.9,1453.8,301.2,1452,301.2L1452,301.2z"/>
<path class="st2" d="M1469.7,280.5v6.1h8.2v3.9h-8.2v6.5h9.3v4h-14.2v-24.5h14.2v4L1469.7,280.5L1469.7,280.5z"/>
<path class="st2" d="M1510.1,276.5V301h-4.9v-15.9l-6.5,15.9h-3.7l-6.6-15.9V301h-4.9v-24.4h5.6l7.8,18.2l7.8-18.2H1510.1
	L1510.1,276.5z"/>
<path class="st2" d="M1519.8,280.5v6.1h8.2v3.9h-8.2v6.5h9.3v4h-14.2v-24.5h14.2v4L1519.8,280.5L1519.8,280.5z"/>
<path class="st2" d="M1554.4,301h-4.9l-11.1-16.8V301h-4.9v-24.5h4.9l11.1,16.8v-16.8h4.9V301z"/>
<path class="st2" d="M1575.8,276.5v4h-6.5V301h-4.9v-20.5h-6.5v-4H1575.8L1575.8,276.5z"/>
<path class="st2" d="M1587.8,301.2c-1.7,0-3.2-0.3-4.6-0.9s-2.4-1.4-3.2-2.5c-0.8-1.1-1.2-2.4-1.2-3.9h5.3c0.1,1,0.4,1.8,1.1,2.4
	c0.6,0.6,1.5,0.9,2.7,0.9s2-0.3,2.7-0.8c0.7-0.5,1-1.3,1-2.1c0-0.7-0.2-1.3-0.7-1.8c-0.4-0.5-1-0.8-1.7-1.1
	c-0.7-0.3-1.6-0.6-2.7-0.9c-1.6-0.5-2.9-0.9-3.9-1.4c-1-0.5-1.8-1.1-2.6-2.1c-0.7-0.9-1.1-2.1-1.1-3.7c0-1.4,0.4-2.7,1.1-3.8
	c0.7-1.1,1.7-1.9,3-2.5c1.3-0.6,2.8-0.9,4.5-0.9c2.5,0,4.6,0.6,6.2,1.9c1.6,1.2,2.4,2.9,2.6,5.1h-5.4c-0.1-0.8-0.4-1.5-1.1-2.1
	c-0.7-0.5-1.5-0.8-2.6-0.8c-1,0-1.7,0.2-2.3,0.7c-0.6,0.5-0.8,1.2-0.8,2.1c0,0.6,0.2,1.2,0.6,1.6c0.4,0.4,1,0.8,1.6,1.1
	c0.7,0.3,1.6,0.6,2.7,0.9c1.6,0.5,2.9,0.9,3.9,1.4c1,0.5,1.9,1.2,2.6,2.1c0.7,0.9,1.1,2.2,1.1,3.7c0,1.3-0.3,2.5-1,3.7
	c-0.7,1.1-1.7,2-3,2.7C1591.2,300.9,1589.6,301.2,1587.8,301.2L1587.8,301.2z"/>
<g>
	<defs>
		<rect id="SVGID_00000105409513320540089530000006192940303656795800_" x="1244.2" y="262.2" width="53.8" height="53.8"/>
	</defs>
	<clipPath id="SVGID_00000019665194631186918040000005829241646060332181_">
		<use xlink:href="#SVGID_00000105409513320540089530000006192940303656795800_"  style="overflow:visible;"/>
	</clipPath>
	<g style="clip-path:url(#SVGID_00000019665194631186918040000005829241646060332181_);">
		<g>
			<defs>
				<path id="SVGID_00000012447794702913517630000002818003555933873834_" d="M1271.1,262.2c-14.9,0-26.9,12-26.9,26.9
					s12.1,26.9,26.9,26.9s26.9-12,26.9-26.9S1286,262.2,1271.1,262.2"/>
			</defs>
			<clipPath id="SVGID_00000039109404567909106860000015831507806573299588_">
				<use xlink:href="#SVGID_00000012447794702913517630000002818003555933873834_"  style="overflow:visible;"/>
			</clipPath>
			<g style="clip-path:url(#SVGID_00000039109404567909106860000015831507806573299588_);">
				<path class="st2" d="M1244.2,262.2h53.8V316h-53.8V262.2z"/>
			</g>
		</g>
	</g>
</g>
<path class="st7" d="M1268.1,298l4.9-4.9c3.3-3.3,4.8-5.1,4.8-7.8c0-2.9-2-5.4-6-5.4s-6.4,2.2-6.8,6.2l0,0.3h2.4l0-0.3
	c0.3-2.8,1.5-4.3,4-4.3c2.4,0,3.5,1.7,3.5,3.8c0,1.9-1.1,3.3-3.4,5.7l-7.1,7.2v1.4h13.2v-2L1268.1,298L1268.1,298z"/>
<g>
	<rect x="1205.5" y="362.2" class="st6" width="675.9" height="141.6"/>
	<g>
		<defs>
			<rect id="SVGID_00000149379967526966046900000017032824660111811976_" x="1205.5" y="362.2" width="675.9" height="141.6"/>
		</defs>
		<clipPath id="SVGID_00000032638654510894388640000011961173653779732646_">
			<use xlink:href="#SVGID_00000149379967526966046900000017032824660111811976_"  style="overflow:visible;"/>
		</clipPath>
		<g style="clip-path:url(#SVGID_00000032638654510894388640000011961173653779732646_);">
			<path class="st6" d="M1205.5,362.2h676.7v141.2h-676.7V362.2z"/>
		</g>
	</g>
</g>
<path class="st2" d="M1337.2,421.2c3.2,0,5.6,0.8,7.4,2.3c1.8,1.5,2.8,3.5,3.1,6l0,0.3h-4.8l-0.1-0.3c-0.6-3.1-2.5-4.7-5.6-4.7
	c-2,0-3.5,0.8-4.7,2.4c-1.2,1.6-1.8,3.7-1.8,6.4c0,2.9,0.6,5.2,1.8,6.8c1.2,1.6,2.8,2.4,4.7,2.4c1.5,0,2.8-0.4,3.7-1.3
	c0.9-0.9,1.6-2.1,1.9-3.6l0.1-0.3h4.8l0,0.3c-0.3,2.6-1.3,4.7-3.2,6.2c-1.9,1.5-4.4,2.3-7.4,2.3c-3.4,0-6.2-1.1-8.2-3.4
	c-2.1-2.2-3.1-5.3-3.1-9.1s1.1-7,3.3-9.3C1331,422.4,1333.8,421.2,1337.2,421.2L1337.2,421.2z"/>
<path class="st2" d="M1369.4,441.8v4h-17.4v-24.1h4.8v20.1L1369.4,441.8L1369.4,441.8z"/>
<path class="st2" d="M1386.2,438.6h-8.1l-2.4,7.3h-5.1l8.7-24.1h6.1l8.5,24.1h-5.3L1386.2,438.6z M1382.1,425.8l-2.9,8.9h5.7
	L1382.1,425.8z"/>
<path class="st2" d="M1401.6,445.9h-4.8v-24.1h4.8V445.9z"/>
<path class="st2" d="M1433,421.7v24.1h-4.8v-11.2c0-3.8,0-6.6,0.1-8.3c-0.7,2.8-1.4,5.5-2.2,8.2l-3.4,11.2h-5.2l-3.5-11.2
	c-0.9-3-1.6-5.7-2.2-8.2c0,1.7,0.1,4.4,0.1,8.2v11.2h-4.8v-24.1h7.6l5.4,19.7l5.5-19.7L1433,421.7L1433,421.7z"/>
<path class="st2" d="M1446.3,421.2c2.8,0,4.9,0.7,6.3,2.1s2.3,3.2,2.6,5.5h-4.9c-0.2-1.3-0.6-2.2-1.3-2.9c-0.7-0.7-1.7-1.1-2.9-1.1
	c-1,0-1.8,0.2-2.5,0.7c-0.6,0.5-0.9,1.2-0.9,2.1c0,1,0.4,1.8,1.1,2.4c0.8,0.6,2.1,1.1,4,1.5c2.6,0.6,4.6,1.5,5.8,2.8
	c1.2,1.2,1.9,2.8,1.9,4.8c0,2.2-0.9,3.9-2.6,5.2c-1.7,1.3-3.8,1.9-6.3,1.9c-2.9,0-5.3-0.6-7-2c-1.8-1.3-2.8-3.2-3-5.7h4.9
	c0.2,1.3,0.8,2.3,1.7,3c0.9,0.7,2,1,3.3,1c1.1,0,2.1-0.3,2.8-0.8c0.8-0.6,1.1-1.3,1.1-2.2c0-1-0.4-1.9-1.1-2.5
	c-0.7-0.6-2-1.1-3.7-1.6c-2.7-0.6-4.7-1.5-6.1-2.6c-1.3-1.1-2-2.7-2-4.8s0.8-3.9,2.5-5.1C1441.9,421.9,1443.9,421.2,1446.3,421.2
	L1446.3,421.2z"/>
<path class="st2" d="M1492.4,421.7v24.1h-4.8v-11.2c0-3.8,0-6.6,0.1-8.3c-0.7,2.8-1.4,5.5-2.2,8.2l-3.4,11.2h-5.2l-3.5-11.2
	c-0.9-3-1.6-5.7-2.2-8.2c0,1.7,0.1,4.4,0.1,8.2v11.2h-4.8v-24.1h7.6l5.4,19.7l5.5-19.7L1492.4,421.7L1492.4,421.7z"/>
<path class="st2" d="M1510.8,438.6h-8.1l-2.4,7.3h-5.1l8.7-24.1h6.1l8.5,24.1h-5.3L1510.8,438.6z M1506.8,425.8l-2.9,8.9h5.7
	L1506.8,425.8z"/>
<path class="st2" d="M1542.6,445.9h-6.6l-9.9-18.3c0.1,2.2,0.2,4.7,0.2,7.4v10.9h-4.8v-24.1h6.4l10.2,18.7c-0.1-2.2-0.2-4.7-0.2-7.6
	v-11.1h4.8L1542.6,445.9L1542.6,445.9z"/>
<path class="st2" d="M1561.1,438.6h-8.1l-2.4,7.3h-5.1l8.7-24.1h6.1l8.5,24.1h-5.3L1561.1,438.6z M1557,425.8l-2.9,8.9h5.7
	L1557,425.8z"/>
<path class="st2" d="M1582.7,433.5h9.7v12.3h-3.9l-0.3-3.9l-1.1,2.4c-1.3,1.3-3.3,2-5.9,2c-3.3,0-6-1.1-8-3.3c-2-2.2-3-5.3-3-9.1
	s1.1-7,3.4-9.3c2.2-2.3,5.1-3.5,8.5-3.5c3.1,0,5.6,0.8,7.4,2.3s2.8,3.5,3,6l0,0.3h-4.8l-0.1-0.3c-0.6-3.1-2.5-4.7-5.6-4.7
	c-2,0-3.6,0.8-4.8,2.4c-1.3,1.6-1.9,3.7-1.9,6.4c0,2.9,0.6,5.2,1.8,6.8c1.2,1.6,2.8,2.4,4.8,2.4c1.6,0,2.9-0.5,3.9-1.4
	c1-1,1.7-2.3,1.9-4h-5.1L1582.7,433.5L1582.7,433.5z"/>
<path class="st2" d="M1614.8,442v3.8h-17.4v-24.1h17.1v3.8h-12.2v6.4h11.4v3.8h-11.4v6.4L1614.8,442L1614.8,442z"/>
<path class="st2" d="M1645,421.7v24.1h-4.8v-11.2c0-3.8,0-6.6,0.1-8.3c-0.7,2.8-1.4,5.5-2.2,8.2l-3.4,11.2h-5.2l-3.5-11.2
	c-0.9-3-1.6-5.7-2.2-8.2c0,1.7,0.1,4.4,0.1,8.2v11.2h-4.8v-24.1h7.6l5.4,19.7l5.5-19.7L1645,421.7L1645,421.7z"/>
<path class="st2" d="M1667.8,442v3.8h-17.4v-24.1h17.1v3.8h-12.2v6.4h11.4v3.8h-11.4v6.4L1667.8,442L1667.8,442z"/>
<path class="st2" d="M1693.1,445.9h-6.6l-9.9-18.3c0.1,2.2,0.2,4.7,0.2,7.4v10.9h-4.8v-24.1h6.4l10.2,18.7c-0.1-2.2-0.2-4.7-0.2-7.6
	v-11.1h4.8L1693.1,445.9L1693.1,445.9z"/>
<path class="st2" d="M1717.4,425.5h-8.2v20.4h-4.8v-20.4h-8.2v-3.8h21.2L1717.4,425.5L1717.4,425.5z"/>
<g>
	<defs>
		<rect id="SVGID_00000066475257179431453990000004361555796119027107_" x="1244.2" y="406.5" width="53.8" height="53.8"/>
	</defs>
	<clipPath id="SVGID_00000029753987970398563090000012391750242247920574_">
		<use xlink:href="#SVGID_00000066475257179431453990000004361555796119027107_"  style="overflow:visible;"/>
	</clipPath>
	<g style="clip-path:url(#SVGID_00000029753987970398563090000012391750242247920574_);">
		<g>
			<defs>
				<path id="SVGID_00000026161957926938969040000001787551767314931079_" d="M1271.1,406.5c-14.9,0-26.9,12-26.9,26.9
					s12.1,26.9,26.9,26.9s26.9-12,26.9-26.9S1286,406.5,1271.1,406.5"/>
			</defs>
			<clipPath id="SVGID_00000006703571859632136850000000214576766279320212_">
				<use xlink:href="#SVGID_00000026161957926938969040000001787551767314931079_"  style="overflow:visible;"/>
			</clipPath>
			<g style="clip-path:url(#SVGID_00000006703571859632136850000000214576766279320212_);">
				<path class="st2" d="M1244.2,406.5h53.8v53.8h-53.8V406.5z"/>
			</g>
		</g>
	</g>
</g>
<path class="st6" d="M1274.1,433.8c2.1-0.6,3.5-2.4,3.5-4.6c0-3-2.3-5-5.9-5c-4,0-6.4,2.2-6.8,5.8l0,0.3h2.4l0-0.3
	c0.3-2.6,1.9-3.8,4-3.8s3.5,1.4,3.5,3.3c0,2.5-1.9,3.8-4.2,3.8h-0.5v2h0.5c3.2,0,4.7,1.3,4.7,3.6s-1.7,3.8-4.2,3.8s-4.3-1.2-4.6-4
	l0-0.3h-2.4l0,0.3c0.4,4.2,3,5.9,6.8,5.9s7.1-2.2,7.1-5.9C1278,436.2,1276.5,434.5,1274.1,433.8L1274.1,433.8z"/>
<g>
	<rect x="1205.5" y="506.3" class="st10" width="675.9" height="141.6"/>
	<g>
		<defs>
			<rect id="SVGID_00000044899630870380782360000005015361349881170610_" x="1205.5" y="506.3" width="675.9" height="141.6"/>
		</defs>
		<clipPath id="SVGID_00000070808951273385558030000005256330517058491297_">
			<use xlink:href="#SVGID_00000044899630870380782360000005015361349881170610_"  style="overflow:visible;"/>
		</clipPath>
		<g style="clip-path:url(#SVGID_00000070808951273385558030000005256330517058491297_);">
			<path class="st10" d="M1205.5,506.3h676.7v141.2h-676.7V506.3L1205.5,506.3z"/>
		</g>
	</g>
</g>
<path class="st2" d="M1345.5,566c1.9,0.2,3.5,1,4.7,2.2c1.2,1.3,1.8,3,1.8,5.1s-0.6,3.8-1.9,5.1c-1.2,1.3-2.8,2-4.6,2.2
	c-1,0.1-2.2,0.2-3.5,0.2h-3.5v9.1h-4.8v-24.1h8.4C1343.3,565.8,1344.5,565.9,1345.5,566L1345.5,566z M1344,576.9
	c1.9-0.3,2.9-1.5,2.9-3.6s-1-3.3-2.9-3.6c-0.6-0.1-1.3-0.1-2.1-0.1h-3.5v7.4h3.5C1342.8,577,1343.5,577,1344,576.9z"/>
<path class="st2" d="M1366,565.3c3.7,0,6.6,1.1,8.7,3.4c2.1,2.3,3.2,5.3,3.2,9.1s-1.1,6.8-3.2,9.1c-2.1,2.3-5,3.4-8.7,3.4
	s-6.6-1.1-8.7-3.4c-2.1-2.3-3.2-5.3-3.2-9.1s1.1-6.9,3.2-9.1C1359.4,566.4,1362.3,565.3,1366,565.3L1366,565.3z M1360.9,584.5
	c1.2,1.6,2.9,2.4,5.1,2.4s3.8-0.8,5-2.4c1.2-1.6,1.8-3.8,1.8-6.6s-0.6-5-1.8-6.6c-1.2-1.6-2.9-2.4-5-2.4s-3.9,0.8-5.1,2.4
	c-1.2,1.6-1.8,3.8-1.8,6.6S1359.7,582.9,1360.9,584.5L1360.9,584.5z"/>
<path class="st2" d="M1399.6,585.9v4h-17.4v-24.1h4.8v20.1H1399.6L1399.6,585.9z"/>
<path class="st2" d="M1408.1,590h-4.8v-24.1h4.8V590z"/>
<path class="st2" d="M1423.9,565.3c3.2,0,5.6,0.8,7.4,2.3c1.8,1.5,2.8,3.5,3.1,6l0,0.3h-4.8l-0.1-0.3c-0.6-3.2-2.5-4.7-5.6-4.7
	c-2,0-3.5,0.8-4.7,2.4c-1.2,1.6-1.8,3.7-1.8,6.4c0,2.9,0.6,5.2,1.8,6.8c1.2,1.6,2.8,2.4,4.7,2.4c1.5,0,2.8-0.4,3.7-1.3
	c0.9-0.9,1.6-2.1,1.9-3.6l0.1-0.3h4.8l0,0.3c-0.3,2.6-1.3,4.7-3.2,6.2c-1.9,1.5-4.4,2.3-7.4,2.3c-3.4,0-6.2-1.1-8.2-3.4
	c-2.1-2.2-3.1-5.3-3.1-9.1s1.1-7,3.3-9.3C1417.7,566.5,1420.5,565.3,1423.9,565.3L1423.9,565.3z"/>
<path class="st2" d="M1449.4,580.6v9.3h-4.8v-9.3l-8.5-14.8h5.4l5.6,10.5l5.4-10.5h5.3L1449.4,580.6L1449.4,580.6z"/>
<path class="st2" d="M1475.3,565.3c2.8,0,4.9,0.7,6.3,2.1s2.3,3.2,2.6,5.5h-4.9c-0.2-1.3-0.6-2.2-1.3-2.9c-0.7-0.7-1.7-1.1-2.9-1.1
	c-1,0-1.8,0.2-2.5,0.7c-0.6,0.5-0.9,1.2-0.9,2.1c0,1,0.4,1.8,1.1,2.4c0.8,0.6,2.1,1.1,4,1.5c2.6,0.6,4.6,1.5,5.8,2.8
	c1.2,1.2,1.9,2.8,1.9,4.8c0,2.2-0.9,3.9-2.6,5.2c-1.7,1.3-3.8,1.9-6.3,1.9c-2.9,0-5.3-0.7-7-2c-1.8-1.3-2.8-3.2-3-5.7h4.9
	c0.2,1.3,0.8,2.3,1.7,3s2,1,3.3,1c1.1,0,2.1-0.3,2.8-0.8c0.8-0.6,1.1-1.3,1.1-2.2c0-1-0.4-1.9-1.1-2.5c-0.7-0.6-2-1.2-3.7-1.6
	c-2.7-0.7-4.7-1.5-6.1-2.6c-1.3-1.1-2-2.7-2-4.8s0.8-3.9,2.5-5.1C1470.9,566,1472.9,565.3,1475.3,565.3L1475.3,565.3z"/>
<path class="st2" d="M1506,586.1v3.8h-17.4v-24.1h17.1v3.8h-12.2v6.4h11.4v3.8h-11.4v6.4H1506L1506,586.1z"/>
<path class="st2" d="M1527.6,583.9c0.3,2.9,0.9,4.9,1.8,6.1h-5.3c-0.6-1.6-1-3.4-1.2-5.4c-0.3-2.7-1.4-4.2-3.3-4.3
	c-0.4,0-1.1,0-1.9,0h-2.8v9.7h-4.8v-24.1h8.8c1.3,0,2.5,0.1,3.5,0.2c1.9,0.2,3.4,0.9,4.6,1.9c1.2,1,1.7,2.5,1.7,4.5
	c0,1.5-0.4,2.8-1.3,3.8c-0.8,1-2,1.7-3.5,2.1C1526.1,579,1527.3,580.9,1527.6,583.9L1527.6,583.9z M1515,576.6h3.3c1,0,1.6,0,2,0
	c2.3-0.2,3.5-1.4,3.5-3.5c0-1.1-0.3-1.9-0.8-2.4c-0.6-0.5-1.3-0.9-2.4-1c-0.6-0.1-1.2-0.1-2-0.1h-3.5L1515,576.6L1515,576.6z"/>
<path class="st2" d="M1545.6,590h-6.1l-8.5-24.1h5.2l6.4,20.4l6.5-20.4h5.2L1545.6,590L1545.6,590z"/>
<path class="st2" d="M1561.9,590h-4.8v-24.1h4.8V590z"/>
<path class="st2" d="M1577.6,565.3c3.2,0,5.6,0.8,7.4,2.3c1.8,1.5,2.8,3.5,3.1,6l0,0.3h-4.8l-0.1-0.3c-0.6-3.2-2.5-4.7-5.6-4.7
	c-2,0-3.5,0.8-4.7,2.4c-1.2,1.6-1.8,3.7-1.8,6.4c0,2.9,0.6,5.2,1.8,6.8c1.2,1.6,2.8,2.4,4.7,2.4c1.5,0,2.8-0.4,3.7-1.3
	c0.9-0.9,1.6-2.1,1.9-3.6l0.1-0.3h4.8l0,0.3c-0.3,2.6-1.3,4.7-3.2,6.2c-1.9,1.5-4.4,2.3-7.4,2.3c-3.4,0-6.2-1.1-8.2-3.4
	c-2.1-2.2-3.1-5.3-3.1-9.1s1.1-7,3.3-9.3C1571.4,566.5,1574.2,565.3,1577.6,565.3L1577.6,565.3z"/>
<path class="st2" d="M1597.2,590h-4.8v-24.1h4.8V590z"/>
<path class="st2" d="M1623.8,590h-6.6l-9.9-18.3c0.1,2.2,0.2,4.7,0.2,7.4v10.9h-4.8v-24.1h6.4l10.2,18.7c-0.1-2.2-0.2-4.7-0.2-7.6
	v-11.1h4.8L1623.8,590L1623.8,590z"/>
<path class="st2" d="M1640.3,577.6h9.7V590h-3.9l-0.3-3.9l-1.1,2.4c-1.3,1.3-3.3,2-5.9,2c-3.3,0-6-1.1-8-3.3c-2-2.2-3-5.3-3-9.1
	s1.1-7,3.4-9.3c2.2-2.3,5.1-3.5,8.5-3.5c3.1,0,5.6,0.8,7.4,2.3c1.8,1.5,2.8,3.5,3,6l0,0.3h-4.8l-0.1-0.3c-0.6-3.2-2.5-4.7-5.6-4.7
	c-2,0-3.6,0.8-4.8,2.4c-1.3,1.6-1.9,3.7-1.9,6.4c0,2.9,0.6,5.2,1.8,6.8c1.2,1.6,2.8,2.4,4.8,2.4c1.6,0,2.9-0.5,3.9-1.4
	c1-1,1.7-2.3,1.9-4h-5.1L1640.3,577.6L1640.3,577.6z"/>
<g>
	<defs>
		<rect id="SVGID_00000003800137422447339890000012056834757086490510_" x="1244.2" y="550.6" width="53.8" height="53.8"/>
	</defs>
	<clipPath id="SVGID_00000103980105492516037120000011142175143417183635_">
		<use xlink:href="#SVGID_00000003800137422447339890000012056834757086490510_"  style="overflow:visible;"/>
	</clipPath>
	<g style="clip-path:url(#SVGID_00000103980105492516037120000011142175143417183635_);">
		<g>
			<defs>
				<path id="SVGID_00000169556994678700847820000010002489951584515466_" d="M1271.1,550.6c-14.9,0-26.9,12-26.9,26.9
					s12.1,26.9,26.9,26.9s26.9-12,26.9-26.9S1286,550.6,1271.1,550.6"/>
			</defs>
			<clipPath id="SVGID_00000094593877295981983820000002452351631962981814_">
				<use xlink:href="#SVGID_00000169556994678700847820000010002489951584515466_"  style="overflow:visible;"/>
			</clipPath>
			<g style="clip-path:url(#SVGID_00000094593877295981983820000002452351631962981814_);">
				<path class="st2" d="M1244.2,550.6h53.8v53.8h-53.8V550.6z"/>
			</g>
		</g>
	</g>
</g>
<path class="st10" d="M1278.4,583.4v-2h-2.5v-12.7h-2.4l-9.7,13.5v1.2h9.7v5h2.4v-5H1278.4z M1273.5,581.4h-6.6l5-6.9
	c0.7-0.9,1.2-1.7,1.6-2.5V581.4z"/>
<g>
	<path class="st7" d="M1110.8,296.5L1110.8,296.5c39.4,0,71.3,31.9,71.3,71.3v0c0,39.4-31.9,71.3-71.3,71.3h0
		c-39.4,0-71.3-31.9-71.3-71.3v0C1039.5,328.5,1071.4,296.5,1110.8,296.5z"/>
	<g>
		<defs>
			<path id="SVGID_00000037656016203691986730000000834424142248092842_" d="M1110.8,296.5L1110.8,296.5c39.4,0,71.3,31.9,71.3,71.3
				v0c0,39.4-31.9,71.3-71.3,71.3h0c-39.4,0-71.3-31.9-71.3-71.3v0C1039.5,328.5,1071.4,296.5,1110.8,296.5z"/>
		</defs>
		<clipPath id="SVGID_00000069361803231401327800000015896378773422840467_">
			<use xlink:href="#SVGID_00000037656016203691986730000000834424142248092842_"  style="overflow:visible;"/>
		</clipPath>
		<g style="clip-path:url(#SVGID_00000069361803231401327800000015896378773422840467_);">
			<g>
				
					<rect x="1029.8" y="286.6" transform="matrix(0.9909 -0.1349 0.1349 0.9909 -39.4523 153.1724)" class="st7" width="162.3" height="162.3"/>
				<g>
					<defs>
						
							<rect id="SVGID_00000077304001680463544460000007699326148014366398_" x="1029.8" y="286.6" transform="matrix(0.9909 -0.1349 0.1349 0.9909 -39.4523 153.1724)" width="162.3" height="162.3"/>
					</defs>
					<clipPath id="SVGID_00000117648043264117913310000001917347467112405128_">
						<use xlink:href="#SVGID_00000077304001680463544460000007699326148014366398_"  style="overflow:visible;"/>
					</clipPath>
					<g style="clip-path:url(#SVGID_00000117648043264117913310000001917347467112405128_);">
						<g>
							
								<rect x="1029.8" y="286.6" transform="matrix(0.9909 -0.1349 0.1349 0.9909 -39.4523 153.1724)" class="st7" width="162.3" height="162.3"/>
							<g>
								<defs>
									
										<rect id="SVGID_00000048483744932079781020000000894089587519216792_" x="1029.8" y="286.6" transform="matrix(0.9909 -0.1349 0.1349 0.9909 -39.4523 153.1724)" width="162.3" height="162.3"/>
								</defs>
								<clipPath id="SVGID_00000080894894429770607000000003120711331278254765_">
									<use xlink:href="#SVGID_00000048483744932079781020000000894089587519216792_"  style="overflow:visible;"/>
								</clipPath>
								<g style="clip-path:url(#SVGID_00000080894894429770607000000003120711331278254765_);">
									<path class="st7" d="M1101.3,297.7c-38.6,5.2-65.7,40.9-60.4,79.5c5.2,38.6,40.9,65.7,79.5,60.4
										c38.6-5.2,65.7-40.9,60.4-79.5C1175.5,319.7,1139.8,292.5,1101.3,297.7z"/>
								</g>
							</g>
						</g>
					</g>
				</g>
			</g>
		</g>
	</g>
</g>
<g>
	<rect x="1106.1" y="330.9" class="st2" width="9.4" height="72.8"/>
	<rect x="1074.3" y="362.7" class="st2" width="72.8" height="9.4"/>
</g>
<circle class="st25" cx="1109.3" cy="148.8" r="3.5"/>
<circle class="st25" cx="1121.3" cy="148.8" r="3.5"/>
<circle class="st25" cx="1133.3" cy="148.8" r="3.5"/>
<circle class="st25" cx="1145.3" cy="148.8" r="3.5"/>
<circle class="st25" cx="1157.3" cy="148.8" r="3.5"/>
<circle class="st25" cx="1169.3" cy="148.8" r="3.5"/>
<circle class="st25" cx="1109.3" cy="171.5" r="3.5"/>
<circle class="st25" cx="1109.3" cy="160.2" r="3.5"/>
<circle class="st25" cx="1109.3" cy="183.5" r="3.5"/>
<circle class="st25" cx="1109.3" cy="195.5" r="3.5"/>
<circle class="st25" cx="1109.3" cy="207.5" r="3.5"/>
<circle class="st25" cx="1109.3" cy="219.5" r="3.5"/>
<circle class="st25" cx="1109.3" cy="231.5" r="3.5"/>
<circle class="st25" cx="1109.3" cy="243.5" r="3.5"/>
<circle class="st25" cx="1109.3" cy="255.5" r="3.5"/>
<circle class="st25" cx="1109.3" cy="267.5" r="3.5"/>
<circle class="st25" cx="1109.3" cy="279.5" r="3.5"/>
<circle class="st25" cx="1109.3" cy="291.5" r="3.5"/>
<path class="st25" d="M1198.7,149.1l-15.8-9.1v5.7c-0.5-0.2-1-0.4-1.5-0.4c-1.9,0-3.5,1.6-3.5,3.5s1.6,3.5,3.5,3.5
	c0.5,0,1-0.1,1.5-0.4v6.3L1198.7,149.1z"/>
<circle class="st25" cx="1109.3" cy="586" r="3.5"/>
<circle class="st25" cx="1121.3" cy="586" r="3.5"/>
<circle class="st25" cx="1133.3" cy="586" r="3.5"/>
<circle class="st25" cx="1145.3" cy="586" r="3.5"/>
<circle class="st25" cx="1157.3" cy="586" r="3.5"/>
<circle class="st25" cx="1169.3" cy="586" r="3.5"/>
<path class="st25" d="M1198.7,586.3l-15.8-9.1v5.7c-0.5-0.2-1-0.3-1.5-0.3c-1.9,0-3.5,1.6-3.5,3.5s1.6,3.5,3.5,3.5
	c0.5,0,1-0.1,1.5-0.3v6.3L1198.7,586.3L1198.7,586.3z"/>
<circle class="st25" cx="1157.3" cy="291.6" r="3.5"/>
<circle class="st25" cx="1169.3" cy="291.6" r="3.5"/>
<circle class="st25" cx="1133.3" cy="291.6" r="3.5"/>
<circle class="st25" cx="1145.3" cy="291.6" r="3.5"/>
<circle class="st25" cx="1109.4" cy="291.6" r="3.5"/>
<circle class="st25" cx="1109.3" cy="443.1" r="3.5"/>
<circle class="st25" cx="1109.3" cy="465.8" r="3.5"/>
<circle class="st25" cx="1109.3" cy="454.5" r="3.5"/>
<circle class="st25" cx="1109.3" cy="477.8" r="3.5"/>
<circle class="st25" cx="1109.3" cy="489.8" r="3.5"/>
<circle class="st25" cx="1109.3" cy="501.8" r="3.5"/>
<circle class="st25" cx="1109.3" cy="513.8" r="3.5"/>
<circle class="st25" cx="1109.3" cy="525.8" r="3.5"/>
<circle class="st25" cx="1109.3" cy="537.8" r="3.5"/>
<circle class="st25" cx="1109.3" cy="549.8" r="3.5"/>
<circle class="st25" cx="1109.3" cy="561.8" r="3.5"/>
<circle class="st25" cx="1109.3" cy="573.8" r="3.5"/>
<circle class="st25" cx="1109.3" cy="585.8" r="3.5"/>
<circle class="st25" cx="1109.4" cy="585.9" r="3.5"/>
<circle class="st25" cx="1121.4" cy="291.6" r="3.5"/>
<circle class="st25" cx="1133.3" cy="442.2" r="3.5"/>
<circle class="st25" cx="1145.3" cy="442.2" r="3.5"/>
<circle class="st25" cx="1109.4" cy="442.2" r="3.5"/>
<circle class="st25" cx="1121.4" cy="442.2" r="3.5"/>
<path class="st25" d="M1198.7,291.9l-15.8-9.1v5.7c-0.5-0.2-1-0.4-1.5-0.4c-1.9,0-3.5,1.6-3.5,3.5s1.6,3.5,3.5,3.5
	c0.5,0,1-0.1,1.5-0.4v6.3L1198.7,291.9L1198.7,291.9z"/>
<circle class="st25" cx="1157.3" cy="441.9" r="3.5"/>
<circle class="st25" cx="1169.3" cy="441.9" r="3.5"/>
<path class="st25" d="M1198.7,442.2l-15.8-9.1v5.7c-0.5-0.2-1-0.4-1.5-0.4c-1.9,0-3.5,1.6-3.5,3.5s1.6,3.5,3.5,3.5
	c0.5,0,1-0.1,1.5-0.4v6.3L1198.7,442.2L1198.7,442.2z"/>
</svg>
