<?xml version="1.0" encoding="UTF-8"?>
<svg id="Layer_1" data-name="Layer 1" xmlns="http://www.w3.org/2000/svg" xmlns:xlink="http://www.w3.org/1999/xlink" viewBox="0 0 1920 748.42">
  <defs>
    <style>
      .cls-1 {
        fill: none;
      }

      .cls-2 {
        clip-path: url(#clippath);
      }

      .cls-3 {
        mask: url(#mask);
      }

      .cls-4 {
        fill: #fff;
      }

      .cls-5 {
        fill: #3292d0;
      }

      .cls-6 {
        fill: #14548a;
      }

      .cls-7 {
        fill: #1bb6b3;
      }

      .cls-8 {
        fill: #42c6ec;
      }

      .cls-9 {
        fill: #191919;
      }

      .cls-10 {
        fill: #51c4cc;
      }

      .cls-11 {
        fill: #5bc5c7;
      }

      .cls-12 {
        fill: rgba(1, 1, 1, .5);
      }

      .cls-13 {
        clip-path: url(#clippath-1);
      }

      .cls-14 {
        clip-path: url(#clippath-4);
      }

      .cls-15 {
        clip-path: url(#clippath-3);
      }

      .cls-16 {
        clip-path: url(#clippath-2);
      }

      .cls-17 {
        clip-path: url(#clippath-7);
      }

      .cls-18 {
        clip-path: url(#clippath-8);
      }

      .cls-19 {
        clip-path: url(#clippath-6);
      }

      .cls-20 {
        clip-path: url(#clippath-5);
      }

      .cls-21 {
        clip-path: url(#clippath-9);
      }

      .cls-22 {
        clip-path: url(#clippath-20);
      }

      .cls-23 {
        clip-path: url(#clippath-21);
      }

      .cls-24 {
        clip-path: url(#clippath-24);
      }

      .cls-25 {
        clip-path: url(#clippath-23);
      }

      .cls-26 {
        clip-path: url(#clippath-22);
      }

      .cls-27 {
        clip-path: url(#clippath-25);
      }

      .cls-28 {
        clip-path: url(#clippath-27);
      }

      .cls-29 {
        clip-path: url(#clippath-28);
      }

      .cls-30 {
        clip-path: url(#clippath-26);
      }

      .cls-31 {
        clip-path: url(#clippath-29);
      }

      .cls-32 {
        clip-path: url(#clippath-32);
      }

      .cls-33 {
        clip-path: url(#clippath-30);
      }

      .cls-34 {
        clip-path: url(#clippath-31);
      }

      .cls-35 {
        clip-path: url(#clippath-14);
      }

      .cls-36 {
        clip-path: url(#clippath-13);
      }

      .cls-37 {
        clip-path: url(#clippath-12);
      }

      .cls-38 {
        clip-path: url(#clippath-10);
      }

      .cls-39 {
        clip-path: url(#clippath-15);
      }

      .cls-40 {
        clip-path: url(#clippath-17);
      }

      .cls-41 {
        clip-path: url(#clippath-16);
      }

      .cls-42 {
        clip-path: url(#clippath-19);
      }

      .cls-43 {
        clip-path: url(#clippath-11);
      }

      .cls-44 {
        clip-path: url(#clippath-18);
      }

      .cls-45 {
        mask: url(#mask-3);
      }

      .cls-46 {
        mask: url(#mask-2);
      }

      .cls-47 {
        mask: url(#mask-1);
      }
    </style>
    <clipPath id="clippath">
      <rect class="cls-1" x="19.15" y="465.92" width="220.46" height="126.98"/>
    </clipPath>
    <mask id="mask" x="-159.56" y="-41.6" width="1372.52" height="772.04" maskUnits="userSpaceOnUse">
      <g id="_885daac752" data-name="885daac752">
        <rect class="cls-12" x="-159.56" y="-41.6" width="1372.52" height="772.04"/>
      </g>
    </mask>
    <clipPath id="clippath-1">
      <rect class="cls-1" x="198.66" y="554.11" width="41.3" height="38.92"/>
    </clipPath>
    <clipPath id="clippath-2">
      <rect class="cls-1" x="199.33" y="554.24" width="40.28" height="38.66"/>
    </clipPath>
    <clipPath id="clippath-3">
      <polyline class="cls-1" points="199.33 554.3 239.61 554.3 239.61 592.89 199.33 554.3"/>
    </clipPath>
    <clipPath id="clippath-4">
      <rect class="cls-1" x="199.34" y="427.32" width="220.46" height="126.78"/>
    </clipPath>
    <clipPath id="clippath-5">
      <rect class="cls-1" x="382.75" y="388.73" width="220.2" height="126.98"/>
    </clipPath>
    <clipPath id="clippath-6">
      <rect class="cls-1" x="564.55" y="350.46" width="220.29" height="126.98"/>
    </clipPath>
    <mask id="mask-1" x="-159.56" y="-41.6" width="1372.52" height="772.04" maskUnits="userSpaceOnUse">
      <g id="_066f00652f" data-name="066f00652f">
        <rect class="cls-12" x="-159.56" y="-41.6" width="1372.52" height="772.04"/>
      </g>
    </mask>
    <clipPath id="clippath-7">
      <rect class="cls-1" x="563.24" y="476.27" width="39.71" height="39.71"/>
    </clipPath>
    <clipPath id="clippath-8">
      <rect class="cls-1" x="563.96" y="477.06" width="38.66" height="38.63"/>
    </clipPath>
    <clipPath id="clippath-9">
      <polyline class="cls-1" points="563.96 477.1 602.61 477.1 602.61 515.7 563.96 477.1"/>
    </clipPath>
    <mask id="mask-2" x="-159.56" y="-41.6" width="1372.52" height="772.04" maskUnits="userSpaceOnUse">
      <g id="_5be3815789" data-name="5be3815789">
        <rect class="cls-12" x="-159.56" y="-41.6" width="1372.52" height="772.04"/>
      </g>
    </mask>
    <clipPath id="clippath-10">
      <rect class="cls-1" x="381.35" y="515.19" width="39.71" height="39.71"/>
    </clipPath>
    <clipPath id="clippath-11">
      <rect class="cls-1" x="381.73" y="515.63" width="38.66" height="38.66"/>
    </clipPath>
    <clipPath id="clippath-12">
      <polyline class="cls-1" points="381.73 515.7 420.39 515.7 420.39 554.3 381.73 515.7"/>
    </clipPath>
    <clipPath id="clippath-13">
      <rect class="cls-1" x="746" y="246.29" width="283.18" height="250.63"/>
    </clipPath>
    <clipPath id="clippath-14">
      <polyline class="cls-1" points="1029.06 372.02 911.37 246.29 911.37 305.13 746 305.13 746 438.9 911.37 438.9 911.37 497.75 1029.06 372.02"/>
    </clipPath>
    <mask id="mask-3" x="-159.56" y="-41.6" width="1372.52" height="772.04" maskUnits="userSpaceOnUse">
      <g id="_28f1125810" data-name="28f1125810">
        <rect class="cls-12" x="-159.56" y="-41.6" width="1372.52" height="772.04"/>
      </g>
    </mask>
    <clipPath id="clippath-15">
      <rect class="cls-1" x="745.13" y="438.14" width="39.71" height="39.71"/>
    </clipPath>
    <clipPath id="clippath-16">
      <rect class="cls-1" x="745.4" y="438.44" width="38.66" height="38.66"/>
    </clipPath>
    <clipPath id="clippath-17">
      <polyline class="cls-1" points="745.4 438.5 784.06 438.5 784.06 477.1 745.4 438.5"/>
    </clipPath>
    <clipPath id="clippath-18">
      <rect class="cls-1" x="1205.52" y="87.85" width="675.94" height="141.43"/>
    </clipPath>
    <clipPath id="clippath-19">
      <rect class="cls-1" x="1244.23" y="131.76" width="53.8" height="53.81"/>
    </clipPath>
    <clipPath id="clippath-20">
      <path class="cls-1" d="m1271.13,131.76c-14.86,0-26.9,12.05-26.9,26.9s12.05,26.9,26.9,26.9,26.9-12.05,26.9-26.9-12.04-26.9-26.9-26.9"/>
    </clipPath>
    <clipPath id="clippath-21">
      <rect class="cls-1" x="1205.52" y="232.13" width="675.94" height="141.49"/>
    </clipPath>
    <clipPath id="clippath-22">
      <rect class="cls-1" x="1244.23" y="276.22" width="53.8" height="53.8"/>
    </clipPath>
    <clipPath id="clippath-23">
      <path class="cls-1" d="m1271.13,276.22c-14.86,0-26.9,12.05-26.9,26.9s12.05,26.9,26.9,26.9,26.9-12.05,26.9-26.9-12.04-26.9-26.9-26.9"/>
    </clipPath>
    <clipPath id="clippath-24">
      <rect class="cls-1" x="1205.52" y="376.21" width="675.94" height="141.62"/>
    </clipPath>
    <clipPath id="clippath-25">
      <rect class="cls-1" x="1244.23" y="420.5" width="53.8" height="53.8"/>
    </clipPath>
    <clipPath id="clippath-26">
      <path class="cls-1" d="m1271.13,420.5c-14.86,0-26.9,12.04-26.9,26.9s12.05,26.9,26.9,26.9,26.9-12.05,26.9-26.9-12.04-26.9-26.9-26.9"/>
    </clipPath>
    <clipPath id="clippath-27">
      <rect class="cls-1" x="1205.52" y="520.3" width="675.94" height="141.62"/>
    </clipPath>
    <clipPath id="clippath-28">
      <rect class="cls-1" x="1244.23" y="564.58" width="53.8" height="53.8"/>
    </clipPath>
    <clipPath id="clippath-29">
      <path class="cls-1" d="m1271.13,564.58c-14.86,0-26.9,12.04-26.9,26.9s12.05,26.9,26.9,26.9,26.9-12.05,26.9-26.9-12.04-26.9-26.9-26.9"/>
    </clipPath>
    <clipPath id="clippath-30">
      <rect class="cls-11" x="1037.78" y="301.41" width="142.53" height="142.53" rx="71.26" ry="71.26"/>
    </clipPath>
    <clipPath id="clippath-31">
      <rect class="cls-11" x="1028.07" y="291.45" width="162.33" height="162.33" transform="translate(-40.13 153.04) rotate(-7.75)"/>
    </clipPath>
    <clipPath id="clippath-32">
      <rect class="cls-11" x="1028.07" y="291.45" width="162.33" height="162.33" transform="translate(-40.13 153.04) rotate(-7.75)"/>
    </clipPath>
  </defs>
  <g>
    <g class="cls-2">
      <path class="cls-11" d="m19.15,465.92h220.15v126.66H19.15v-126.66Z"/>
    </g>
    <path class="cls-4" d="m134.53,519.06h-2.32c-1.4,0-2.67.38-3.94,1.11l-5.24,3.05v4.54l6.51-3.49v16.71h4.99v-21.92Z"/>
    <g class="cls-3">
      <g class="cls-13">
        <g class="cls-16">
          <g class="cls-15">
            <path class="cls-7" d="m239.61,592.89h-40.28v-38.58h40.28v38.58Z"/>
          </g>
        </g>
      </g>
    </g>
    <g class="cls-14">
      <path class="cls-7" d="m199.34,427.32h220.15v126.66h-220.15v-126.66Z"/>
    </g>
    <path class="cls-4" d="m308.93,498.48l3.56-3.47c4.1-3.97,5.37-5.94,5.37-8.64,0-3.88-2.67-6.42-7.62-6.42s-8.1,2.64-8.58,7.4l-.03.32h4.99l.03-.32c.22-2.48,1.21-3.72,3.15-3.72,1.81,0,2.83,1.18,2.83,2.98,0,2.1-1.14,3.65-4.23,6.61l-7.15,6.89v2.26h16.43v-3.91h-8.74Z"/>
    <g class="cls-20">
      <path class="cls-8" d="m382.75,388.73h220.15v126.66h-220.15v-126.66Z"/>
    </g>
    <path class="cls-4" d="m496.9,452.19c2.73-.67,4.1-2.45,4.1-4.99,0-3.18-2.51-5.78-7.53-5.78-5.37,0-8.1,3.08-8.48,6.86l-.03.32h4.96l.03-.32c.16-1.81,1.18-3.18,3.02-3.18,1.75,0,2.8,1.05,2.8,2.67,0,1.81-1.3,3.05-3.53,3.18l-.79.03v3.34h.79c2.61.09,4.03,1.18,4.03,3.21,0,1.78-1.43,3.02-3.56,3.02s-3.43-1.37-3.75-3.27l-.03-.32h-4.99l.03.32c.44,4.45,3.62,6.96,8.83,6.96s8.71-2.7,8.71-6.86c0-2.83-1.59-4.51-4.61-5.18Z"/>
    <g class="cls-19">
      <path class="cls-5" d="m564.55,350.46h220.15v126.66h-220.15v-126.66Z"/>
    </g>
    <path class="cls-4" d="m683.87,420.47v-3.91h-2.7v-12.96h-5.37l-10.04,14.17v2.7h10.42v5.05h4.99v-5.05h2.7Zm-7.69-3.91h-5.14l3.81-5.37c.41-.6.86-1.33,1.33-2.16v7.53Z"/>
    <g class="cls-47">
      <g class="cls-17">
        <g class="cls-18">
          <g class="cls-21">
            <path class="cls-5" d="m602.61,515.7h-38.66v-38.58h38.66v38.58Z"/>
          </g>
        </g>
      </g>
    </g>
    <g class="cls-46">
      <g class="cls-38">
        <g class="cls-43">
          <g class="cls-37">
            <path class="cls-8" d="m420.39,554.3h-38.66v-38.58h38.66v38.58Z"/>
          </g>
        </g>
      </g>
    </g>
    <g class="cls-36">
      <g class="cls-35">
        <path class="cls-6" d="m746,246.29h283.18v250.08h-283.18v-250.08Z"/>
      </g>
    </g>
    <path class="cls-4" d="m874.09,368.5c-1.24,0-2.38.22-3.4.83l-.99,1.46.79-5.53h9.98v-3.88h-14.08l-1.59,13.06h4.6c.64-1.59,1.62-2.26,3.24-2.26,2.19,0,3.46,1.62,3.46,3.94s-1.24,3.94-3.56,3.94c-1.87,0-2.86-1.08-3.12-2.83l-.03-.32h-4.99l.03.32c.47,4.51,3.34,6.51,8.39,6.51,4.38,0,8.51-2.7,8.51-7.78,0-4.64-2.76-7.47-7.28-7.47Z"/>
    <g class="cls-45">
      <g class="cls-39">
        <g class="cls-41">
          <g class="cls-40">
            <path class="cls-6" d="m784.06,477.1h-38.66v-38.58h38.66v38.58Z"/>
          </g>
        </g>
      </g>
    </g>
    <path class="cls-9" d="m67.3,355.18c0,.98-.23,1.9-.69,2.76-.47.85-1.19,1.55-2.18,2.07-.99.52-2.23.78-3.72.78h-3.08v7.02h-3.66v-18.29h6.74c1.41,0,2.62.25,3.61.73.99.49,1.74,1.16,2.23,2.02.5.85.76,1.82.76,2.9Zm-6.76,2.64c1.01,0,1.76-.23,2.25-.69.5-.46.74-1.11.74-1.95,0-1.78-1-2.67-2.99-2.67h-2.92v5.31h2.92Z"/>
    <path class="cls-9" d="m74.33,355.55c.47-.77,1.09-1.37,1.85-1.81.76-.44,1.63-.66,2.61-.66v3.86h-.97c-1.15,0-2.02.27-2.61.81-.59.54-.88,1.48-.88,2.83v7.24h-3.66v-14.52h3.66v2.26Z"/>
    <path class="cls-9" d="m88.48,368.05c-1.4,0-2.66-.31-3.77-.93s-2-1.5-2.63-2.63c-.64-1.14-.96-2.45-.96-3.93s.33-2.8.98-3.93c.65-1.13,1.55-2.01,2.68-2.63,1.14-.62,2.41-.93,3.81-.93s2.66.31,3.8.93c1.13.62,2.03,1.5,2.68,2.63.66,1.14.99,2.44.99,3.93s-.34,2.79-1.02,3.93c-.67,1.14-1.58,2.01-2.73,2.63-1.14.62-2.42.93-3.83.93Zm0-3.2c.67,0,1.29-.16,1.87-.48.59-.32,1.05-.81,1.4-1.45.35-.65.53-1.43.53-2.36,0-1.38-.37-2.44-1.09-3.18-.73-.74-1.61-1.12-2.66-1.12s-1.93.37-2.64,1.12c-.7.74-1.05,1.8-1.05,3.18s.34,2.44,1.03,3.19c.69.74,1.56,1.1,2.61,1.1Z"/>
    <path class="cls-9" d="m105.09,368.05c-1.19,0-2.25-.21-3.19-.63-.94-.43-1.69-1.01-2.25-1.75-.55-.74-.85-1.55-.91-2.44h3.7c.07.56.35,1.03.83,1.4.48.37,1.07.55,1.79.55s1.25-.14,1.64-.42c.4-.28.6-.64.6-1.08,0-.47-.24-.82-.72-1.05-.48-.24-1.25-.5-2.3-.78-1.09-.25-1.97-.52-2.67-.81-.69-.28-1.28-.71-1.77-1.28-.5-.58-.74-1.36-.74-2.33,0-.81.23-1.55.69-2.21.46-.66,1.12-1.18,1.99-1.56.87-.39,1.89-.58,3.05-.58,1.73,0,3.11.43,4.15,1.3,1.03.86,1.6,2.02,1.7,3.49h-3.51c-.05-.57-.29-1.02-.72-1.37-.43-.35-1-.52-1.71-.52-.66,0-1.18.12-1.54.37-.36.25-.53.59-.53,1.02,0,.49.24.86.73,1.12.49.26,1.25.52,2.28.77,1.05.27,1.91.54,2.59.82.68.28,1.27.72,1.76,1.3.5.58.76,1.35.78,2.31,0,.84-.23,1.6-.69,2.26-.47.66-1.13,1.19-2,1.56-.86.37-1.87.56-3.03.56Z"/>
    <path class="cls-9" d="m118.27,355.39c.47-.66,1.12-1.22,1.95-1.66.83-.45,1.79-.67,2.85-.67,1.24,0,2.36.31,3.36.92,1.01.61,1.8,1.48,2.38,2.61.59,1.13.88,2.43.88,3.92s-.29,2.8-.88,3.95c-.58,1.14-1.37,2.03-2.38,2.66-1,.63-2.12.94-3.36.94-1.07,0-2.01-.22-2.82-.66-.81-.44-1.47-.99-1.99-1.65v9h-3.66v-21.45h3.66v2.1Zm7.68,5.11c0-.87-.18-1.63-.53-2.27-.36-.64-.83-1.12-1.41-1.45-.59-.33-1.22-.5-1.9-.5s-1.29.17-1.87.51c-.59.34-1.06.83-1.43,1.48-.36.65-.53,1.41-.53,2.28s.18,1.64.53,2.28c.36.65.84,1.14,1.43,1.48.59.34,1.21.51,1.87.51s1.31-.17,1.9-.52c.59-.35,1.06-.84,1.41-1.49.35-.65.53-1.42.53-2.31Z"/>
    <path class="cls-9" d="m146.65,360.25c0,.52-.03.99-.1,1.41h-10.61c.08,1.04.45,1.86,1.09,2.46s1.44.89,2.38.89c1.37,0,2.34-.58,2.92-1.75h3.96c-.42,1.39-1.23,2.54-2.42,3.44-1.19.9-2.64,1.35-4.37,1.35-1.4,0-2.65-.31-3.76-.93-1.11-.62-1.97-1.5-2.59-2.63-.62-1.14-.93-2.45-.93-3.93s.3-2.82.92-3.96c.61-1.13,1.47-2,2.57-2.62,1.1-.61,2.36-.92,3.8-.92s2.62.3,3.71.89,1.94,1.44,2.53,2.53c.6,1.09.91,2.35.91,3.76Zm-3.8-1.05c-.02-.94-.36-1.69-1.02-2.26-.66-.57-1.48-.86-2.44-.86-.9,0-1.66.28-2.28.83-.62.55-1,1.31-1.14,2.28h6.89Z"/>
    <path class="cls-9" d="m149.17,360.56c0-1.5.3-2.82.92-3.95.61-1.12,1.46-2,2.53-2.62,1.08-.62,2.32-.93,3.72-.93,1.8,0,3.29.45,4.47,1.35,1.18.89,1.98,2.16,2.38,3.79h-3.96c-.22-.63-.57-1.12-1.07-1.48-.5-.36-1.11-.55-1.85-.55-1.04,0-1.87.38-2.48,1.14-.61.76-.92,1.84-.92,3.24s.3,2.45.92,3.21c.61.76,1.44,1.14,2.48,1.14,1.49,0,2.46-.66,2.92-2h3.96c-.41,1.57-1.2,2.82-2.4,3.75-1.19.93-2.67,1.39-4.46,1.39-1.4,0-2.64-.31-3.72-.93-1.08-.62-1.92-1.49-2.53-2.62-.61-1.12-.92-2.44-.92-3.95Z"/>
    <path class="cls-9" d="m170.95,356.31v7.02c0,.49.11.84.35,1.07.24.22.64.32,1.2.32h1.7v3.09h-2.31c-3.1,0-4.64-1.5-4.64-4.51v-7h-1.73v-3.02h1.73v-3.59h3.7v3.59h3.25v3.02h-3.25Z"/>
    <path class="cls-9" d="m37.26,384.48v19.32h-3.87v-19.32h3.87Z"/>
    <path class="cls-9" d="m50.41,388.24c1.82,0,3.3.58,4.43,1.73s1.69,2.76,1.69,4.84v8.99h-3.88v-8.47c0-1.22-.31-2.16-.92-2.82-.6-.66-1.43-.98-2.49-.98s-1.91.33-2.53.98c-.62.66-.93,1.6-.93,2.82v8.47h-3.87v-15.33h3.87v1.91c.52-.66,1.18-1.18,1.98-1.56.8-.38,1.68-.58,2.65-.58Z"/>
    <path class="cls-9" d="m65.47,392.65h-2.54v11.5h-3.72v-11.5h-1.65v-3.02h1.65v-.73c0-1.79.5-3.1,1.51-3.93,1.02-.83,2.55-1.23,4.6-1.18v3.09c-.89-.02-1.52.13-1.87.45-.35.32-.52.88-.52,1.7v.61h2.54v3.02Z"/>
    <path class="cls-9" d="m75.08,404.39c-1.4,0-2.66-.31-3.77-.93s-2-1.5-2.63-2.63c-.64-1.14-.96-2.45-.96-3.93s.33-2.8.98-3.93c.65-1.13,1.55-2.01,2.68-2.63,1.14-.62,2.41-.93,3.81-.93s2.66.31,3.8.93c1.13.62,2.03,1.5,2.68,2.63.66,1.14.99,2.44.99,3.93s-.34,2.79-1.02,3.93c-.67,1.14-1.58,2.01-2.73,2.63-1.14.62-2.42.93-3.83.93Zm0-3.2c.67,0,1.29-.16,1.87-.48.59-.32,1.05-.81,1.4-1.45.35-.65.53-1.43.53-2.36,0-1.38-.37-2.44-1.09-3.18-.73-.74-1.61-1.12-2.66-1.12s-1.93.37-2.64,1.12c-.7.74-1.05,1.8-1.05,3.18s.34,2.44,1.03,3.19c.69.74,1.56,1.1,2.61,1.1Z"/>
    <path class="cls-9" d="m89.81,391.89c.47-.77,1.09-1.37,1.85-1.81.76-.44,1.63-.66,2.61-.66v3.86h-.97c-1.15,0-2.02.27-2.61.81-.59.54-.88,1.48-.88,2.83v7.24h-3.66v-14.52h3.66v2.26Z"/>
    <path class="cls-9" d="m115.55,389.42c1.78,0,3.21.55,4.31,1.64s1.64,2.62,1.64,4.58v8.51h-3.66v-8.02c0-1.14-.29-2.01-.87-2.61-.58-.6-1.37-.91-2.36-.91s-1.8.3-2.38.91c-.58.6-.87,1.46-.87,2.61v8.02h-3.67v-8.02c0-1.14-.29-2.01-.87-2.61-.57-.6-1.36-.91-2.36-.91s-1.81.3-2.4.91c-.59.6-.88,1.46-.88,2.61v8.02h-3.66v-14.52h3.66v1.75c.47-.6,1.08-1.08,1.82-1.43.74-.35,1.56-.53,2.46-.53,1.13,0,2.14.24,3.03.72.89.48,1.59,1.17,2.08,2.06.47-.83,1.15-1.5,2.05-2.01.9-.51,1.88-.77,2.93-.77Z"/>
    <path class="cls-9" d="m124.82,396.84c0-1.47.29-2.77.87-3.91.59-1.13,1.38-2,2.38-2.62,1.01-.61,2.13-.92,3.38-.92,1.08,0,2.03.22,2.84.66.81.44,1.46.99,1.96,1.65v-2.07h3.69v14.52h-3.69v-2.12c-.47.68-1.13,1.24-1.96,1.69-.83.45-1.78.67-2.87.67-1.23,0-2.34-.31-3.35-.94-1-.63-1.8-1.51-2.38-2.66-.58-1.15-.87-2.46-.87-3.95Zm11.43.05c0-.89-.18-1.66-.53-2.3-.35-.64-.82-1.12-1.41-1.46-.6-.34-1.23-.51-1.91-.51s-1.31.17-1.89.5c-.58.33-1.05.82-1.4,1.45-.36.64-.53,1.4-.53,2.27s.18,1.64.53,2.3c.35.65.83,1.15,1.41,1.5.59.35,1.21.52,1.87.52s1.32-.17,1.91-.51c.6-.34,1.07-.83,1.41-1.46.35-.64.53-1.4.53-2.3Z"/>
    <path class="cls-9" d="m148.58,392.65v7.02c0,.49.11.84.35,1.07.24.22.64.32,1.2.32h1.7v3.09h-2.31c-3.1,0-4.64-1.5-4.64-4.51v-7h-1.73v-3.02h1.73v-3.59h3.7v3.59h3.25v3.02h-3.25Z"/>
    <path class="cls-9" d="m157.13,387.91c-.65,0-1.19-.2-1.61-.62-.43-.41-.65-.92-.65-1.54s.21-1.12.65-1.53c.43-.41.97-.62,1.61-.62s1.18.21,1.6.62c.43.41.65.92.65,1.53s-.22,1.13-.65,1.54c-.42.42-.96.62-1.6.62Zm1.8,1.73v14.52h-3.66v-14.52h3.66Z"/>
    <path class="cls-9" d="m169.78,404.39c-1.4,0-2.66-.31-3.77-.93s-2-1.5-2.63-2.63c-.64-1.14-.96-2.45-.96-3.93s.33-2.8.98-3.93c.65-1.13,1.55-2.01,2.68-2.63,1.14-.62,2.41-.93,3.81-.93s2.66.31,3.8.93c1.13.62,2.03,1.5,2.68,2.63.66,1.14.99,2.44.99,3.93s-.34,2.79-1.02,3.93c-.67,1.14-1.58,2.01-2.73,2.63-1.14.62-2.42.93-3.83.93Zm0-3.2c.67,0,1.29-.16,1.87-.48.59-.32,1.05-.81,1.4-1.45.35-.65.53-1.43.53-2.36,0-1.38-.37-2.44-1.09-3.18-.73-.74-1.61-1.12-2.66-1.12s-1.93.37-2.64,1.12c-.7.74-1.05,1.8-1.05,3.18s.34,2.44,1.03,3.19c.69.74,1.56,1.1,2.61,1.1Z"/>
    <path class="cls-9" d="m188.88,389.42c1.73,0,3.13.55,4.19,1.64s1.6,2.62,1.6,4.58v8.51h-3.67v-8.02c0-1.16-.29-2.05-.87-2.67-.57-.62-1.36-.93-2.36-.93s-1.81.31-2.4.93c-.59.62-.88,1.51-.88,2.67v8.02h-3.66v-14.52h3.66v1.81c.5-.63,1.12-1.12,1.87-1.48.76-.36,1.59-.55,2.51-.55Z"/>
    <path class="cls-9" d="m54.23,427.7c-.42-.77-1-1.35-1.74-1.75-.73-.4-1.58-.61-2.56-.61-1.09,0-2.05.25-2.89.74-.84.49-1.49,1.19-1.96,2.1-.47.9-.71,1.95-.71,3.14s.24,2.29.72,3.2c.48.9,1.14,1.6,2,2.1.86.49,1.86.73,2.99.73,1.4,0,2.54-.37,3.44-1.12s1.48-1.78,1.76-3.1h-6.29v-2.8h9.9v3.19c-.24,1.28-.77,2.45-1.58,3.54-.8,1.09-1.84,1.96-3.1,2.62-1.27.65-2.69.98-4.26.98-1.76,0-3.36-.4-4.79-1.19-1.42-.8-2.54-1.91-3.35-3.33-.81-1.41-1.22-3.02-1.22-4.82s.4-3.42,1.22-4.84c.81-1.42,1.93-2.53,3.35-3.33,1.43-.79,3.02-1.19,4.77-1.19,2.06,0,3.85.51,5.36,1.51,1.52,1,2.57,2.41,3.15,4.22h-4.22Z"/>
    <path class="cls-9" d="m61.47,433.18c0-1.47.29-2.77.87-3.91.59-1.13,1.38-2,2.38-2.62,1.01-.61,2.13-.92,3.38-.92,1.08,0,2.03.22,2.84.66.81.44,1.46.99,1.96,1.65v-2.07h3.69v14.52h-3.69v-2.12c-.47.68-1.13,1.24-1.96,1.69-.83.45-1.78.67-2.87.67-1.23,0-2.34-.31-3.35-.94-1-.63-1.8-1.51-2.38-2.66-.58-1.15-.87-2.46-.87-3.95Zm11.43.05c0-.89-.18-1.66-.53-2.3-.35-.64-.82-1.12-1.41-1.46-.6-.34-1.23-.51-1.91-.51s-1.31.17-1.89.5c-.58.33-1.05.82-1.4,1.45-.36.64-.53,1.4-.53,2.27s.18,1.64.53,2.3c.35.65.83,1.15,1.41,1.5.59.35,1.21.52,1.87.52s1.32-.17,1.91-.51c.6-.34,1.07-.83,1.41-1.46.35-.64.53-1.4.53-2.3Z"/>
    <path class="cls-9" d="m85.23,428.99v7.02c0,.49.11.84.35,1.07.24.22.64.32,1.2.32h1.7v3.09h-2.31c-3.1,0-4.64-1.5-4.64-4.51v-7h-1.73v-3.02h1.73v-3.59h3.7v3.59h3.25v3.02h-3.25Z"/>
    <path class="cls-9" d="m100.09,425.76c1.1,0,2.08.24,2.93.72.86.48,1.53,1.19,2.01,2.12.48.94.72,2.06.72,3.38v8.51h-3.67v-8.02c0-1.16-.29-2.05-.87-2.67-.57-.62-1.36-.93-2.36-.93s-1.81.31-2.4.93c-.59.62-.88,1.51-.88,2.67v8.02h-3.66v-19.4h3.66v6.69c.47-.63,1.1-1.12,1.89-1.48.79-.36,1.67-.55,2.63-.55Z"/>
    <path class="cls-9" d="m123.51,432.92c0,.52-.03.99-.1,1.41h-10.61c.08,1.04.45,1.86,1.09,2.46s1.44.89,2.38.89c1.37,0,2.34-.58,2.92-1.75h3.96c-.42,1.39-1.23,2.54-2.42,3.44-1.19.9-2.64,1.35-4.37,1.35-1.4,0-2.65-.31-3.76-.93-1.11-.62-1.97-1.5-2.59-2.63-.62-1.14-.93-2.45-.93-3.93s.3-2.82.92-3.96c.61-1.13,1.47-2,2.57-2.62,1.1-.61,2.36-.92,3.8-.92s2.62.3,3.71.89,1.94,1.44,2.53,2.53c.6,1.09.91,2.35.91,3.76Zm-3.8-1.05c-.02-.94-.36-1.69-1.02-2.26-.66-.57-1.48-.86-2.44-.86-.9,0-1.66.28-2.28.83-.62.55-1,1.31-1.14,2.28h6.89Z"/>
    <path class="cls-9" d="m130.63,428.23c.47-.77,1.09-1.37,1.85-1.81.76-.44,1.63-.66,2.61-.66v3.86h-.97c-1.15,0-2.02.27-2.61.81-.59.54-.88,1.48-.88,2.83v7.24h-3.66v-14.52h3.66v2.26Z"/>
    <path class="cls-9" d="m140.21,424.25c-.65,0-1.19-.2-1.61-.62-.43-.41-.65-.92-.65-1.54s.21-1.12.65-1.53c.43-.41.97-.62,1.61-.62s1.18.21,1.6.62c.43.41.65.92.65,1.53s-.22,1.13-.65,1.54c-.42.42-.96.62-1.6.62Zm1.8,1.73v14.52h-3.66v-14.52h3.66Z"/>
    <path class="cls-9" d="m154.46,425.76c1.73,0,3.13.55,4.19,1.64s1.6,2.62,1.6,4.58v8.51h-3.67v-8.02c0-1.16-.29-2.05-.87-2.67-.57-.62-1.36-.93-2.36-.93s-1.81.31-2.4.93c-.59.62-.88,1.51-.88,2.67v8.02h-3.66v-14.52h3.66v1.81c.5-.63,1.12-1.12,1.87-1.48.76-.36,1.59-.55,2.51-.55Z"/>
    <path class="cls-9" d="m170.21,425.74c1.08,0,2.04.22,2.85.65.83.42,1.48.98,1.95,1.66v-2.07h3.69v14.62c0,1.35-.27,2.55-.82,3.61-.54,1.06-1.35,1.9-2.43,2.52-1.09.62-2.39.93-3.92.93-2.07,0-3.76-.48-5.08-1.45-1.32-.96-2.07-2.27-2.25-3.92h3.65c.19.66.6,1.19,1.24,1.58.64.4,1.41.6,2.32.6,1.07,0,1.93-.32,2.59-.96.67-.64,1.01-1.61,1.01-2.9v-2.25c-.47.68-1.13,1.25-1.96,1.7-.83.45-1.77.68-2.84.68-1.23,0-2.35-.31-3.36-.94-1.01-.63-1.81-1.51-2.4-2.66-.58-1.15-.87-2.46-.87-3.95s.29-2.77.87-3.91c.59-1.13,1.38-2,2.38-2.62,1.01-.61,2.13-.92,3.38-.92Zm4.8,7.5c0-.89-.18-1.66-.53-2.3-.35-.64-.82-1.12-1.41-1.46-.6-.34-1.23-.51-1.91-.51s-1.31.17-1.89.5c-.58.33-1.05.82-1.4,1.45-.36.64-.53,1.4-.53,2.27s.18,1.64.53,2.3c.35.65.83,1.15,1.41,1.5.59.35,1.21.52,1.87.52s1.32-.17,1.91-.51c.6-.34,1.07-.83,1.41-1.46.35-.64.53-1.4.53-2.3Z"/>
    <path class="cls-9" d="m246.24,395.25l-2.78-3.33c-.77.19-1.56.29-2.36.29-1.71,0-3.29-.4-4.72-1.2-1.43-.81-2.57-1.93-3.41-3.35-.84-1.42-1.25-3.03-1.25-4.83s.42-3.39,1.25-4.82c.84-1.42,1.98-2.53,3.41-3.34,1.43-.8,3-1.2,4.72-1.2s3.3.4,4.73,1.2c1.42.8,2.55,1.92,3.38,3.34.83,1.42,1.25,3.03,1.25,4.82,0,1.62-.35,3.1-1.04,4.44-.69,1.33-1.62,2.42-2.8,3.26l4.18,4.72h-4.55Zm-10.75-12.42c0,1.23.24,2.3.71,3.23.47.92,1.13,1.63,1.97,2.13.85.5,1.83.74,2.93.74s2.07-.25,2.9-.74c.84-.5,1.5-1.22,1.97-2.13.47-.92.71-2,.71-3.23s-.24-2.3-.71-3.21-1.13-1.62-1.97-2.11c-.84-.49-1.81-.73-2.9-.73s-2.08.25-2.93.73c-.84.49-1.5,1.19-1.97,2.11s-.71,1.99-.71,3.21Z"/>
    <path class="cls-9" d="m267.72,377.5v14.52h-3.69v-1.84c-.48.63-1.1,1.13-1.86,1.49-.75.35-1.58.53-2.47.53-1.14,0-2.14-.24-3.02-.72-.87-.48-1.56-1.19-2.06-2.12-.5-.93-.74-2.05-.74-3.35v-8.51h3.67v7.99c0,1.16.29,2.05.86,2.67.58.61,1.37.92,2.37.92s1.8-.3,2.38-.92c.58-.62.87-1.51.87-2.67v-7.99h3.69Z"/>
    <path class="cls-9" d="m278.57,392.26c-1.4,0-2.66-.31-3.77-.93s-2-1.5-2.63-2.63c-.64-1.14-.96-2.45-.96-3.93s.33-2.8.98-3.93c.65-1.13,1.55-2.01,2.68-2.63,1.14-.62,2.41-.93,3.81-.93s2.66.31,3.8.93c1.13.62,2.03,1.5,2.68,2.63.66,1.14.99,2.44.99,3.93s-.34,2.79-1.02,3.93c-.67,1.14-1.58,2.01-2.73,2.63-1.14.62-2.42.93-3.83.93Zm0-3.2c.67,0,1.29-.16,1.87-.48.59-.32,1.05-.81,1.4-1.45.35-.65.53-1.43.53-2.36,0-1.38-.37-2.44-1.09-3.18-.73-.74-1.61-1.12-2.66-1.12s-1.93.37-2.64,1.12c-.7.74-1.05,1.8-1.05,3.18s.34,2.44,1.03,3.19c.69.74,1.56,1.1,2.61,1.1Z"/>
    <path class="cls-9" d="m293.9,380.52v7.02c0,.49.11.84.35,1.07.24.22.64.32,1.2.32h1.7v3.09h-2.31c-3.1,0-4.64-1.5-4.64-4.51v-7h-1.73v-3.02h1.73v-3.59h3.7v3.59h3.25v3.02h-3.25Z"/>
    <path class="cls-9" d="m302.44,375.78c-.65,0-1.19-.2-1.61-.62-.43-.41-.65-.92-.65-1.54s.21-1.12.65-1.53c.43-.41.97-.62,1.61-.62s1.18.21,1.6.62c.43.41.65.92.65,1.53s-.22,1.13-.65,1.54c-.42.42-.96.62-1.6.62Zm1.8,1.73v14.52h-3.66v-14.52h3.66Z"/>
    <path class="cls-9" d="m316.69,377.29c1.73,0,3.13.55,4.19,1.64s1.6,2.62,1.6,4.58v8.51h-3.67v-8.02c0-1.16-.29-2.05-.87-2.67-.57-.62-1.36-.93-2.36-.93s-1.81.31-2.4.93c-.59.62-.88,1.51-.88,2.67v8.02h-3.66v-14.52h3.66v1.81c.5-.63,1.12-1.12,1.87-1.48.76-.36,1.59-.55,2.51-.55Z"/>
    <path class="cls-9" d="m332.44,377.27c1.08,0,2.04.22,2.85.65.83.42,1.48.98,1.95,1.66v-2.07h3.69v14.62c0,1.35-.27,2.55-.82,3.61-.54,1.06-1.35,1.9-2.43,2.52-1.09.62-2.39.93-3.92.93-2.07,0-3.76-.48-5.08-1.45-1.32-.96-2.07-2.27-2.25-3.92h3.65c.19.66.6,1.19,1.24,1.58.64.4,1.41.6,2.32.6,1.07,0,1.93-.32,2.59-.96.67-.64,1.01-1.61,1.01-2.9v-2.25c-.47.68-1.13,1.25-1.96,1.7-.83.45-1.77.68-2.84.68-1.23,0-2.35-.31-3.36-.94-1.01-.63-1.81-1.51-2.4-2.66-.58-1.15-.87-2.46-.87-3.95s.29-2.77.87-3.91c.59-1.13,1.38-2,2.38-2.62,1.01-.61,2.13-.92,3.38-.92Zm4.8,7.5c0-.89-.18-1.66-.53-2.3-.35-.64-.82-1.12-1.41-1.46-.6-.34-1.23-.51-1.91-.51s-1.31.17-1.89.5c-.58.33-1.05.82-1.4,1.45-.36.64-.53,1.4-.53,2.27s.18,1.64.53,2.3c.35.65.83,1.15,1.41,1.5.59.35,1.21.52,1.87.52s1.32-.17,1.91-.51c.6-.34,1.07-.83,1.41-1.46.35-.64.53-1.4.53-2.3Z"/>
    <path class="cls-9" d="m423.88,345.43c0,.98-.23,1.9-.69,2.76-.47.85-1.19,1.55-2.18,2.07-.99.52-2.23.78-3.72.78h-3.08v7.02h-3.66v-18.29h6.74c1.41,0,2.62.25,3.61.73.99.49,1.74,1.16,2.23,2.02.5.85.76,1.82.76,2.9Zm-6.76,2.64c1.01,0,1.76-.23,2.25-.69.5-.46.74-1.11.74-1.95,0-1.78-1-2.67-2.99-2.67h-2.92v5.31h2.92Z"/>
    <path class="cls-9" d="m430.91,345.8c.47-.77,1.09-1.37,1.85-1.81.76-.44,1.63-.66,2.61-.66v3.86h-.97c-1.15,0-2.02.27-2.61.81-.59.54-.88,1.48-.88,2.83v7.24h-3.66v-14.52h3.66v2.26Z"/>
    <path class="cls-9" d="m445.07,358.3c-1.4,0-2.66-.31-3.77-.93s-2-1.5-2.63-2.63c-.64-1.14-.96-2.45-.96-3.93s.33-2.8.98-3.93c.65-1.13,1.55-2.01,2.68-2.63,1.14-.62,2.41-.93,3.81-.93s2.66.31,3.8.93c1.13.62,2.03,1.5,2.68,2.63.66,1.14.99,2.44.99,3.93s-.34,2.79-1.02,3.93c-.67,1.14-1.58,2.01-2.73,2.63-1.14.62-2.42.93-3.83.93Zm0-3.2c.67,0,1.29-.16,1.87-.48.59-.32,1.05-.81,1.4-1.45.35-.65.53-1.43.53-2.36,0-1.38-.37-2.44-1.09-3.18-.73-.74-1.61-1.12-2.66-1.12s-1.93.37-2.64,1.12c-.7.74-1.05,1.8-1.05,3.18s.34,2.44,1.03,3.19c.69.74,1.56,1.1,2.61,1.1Z"/>
    <path class="cls-9" d="m459.79,345.64c.47-.66,1.12-1.22,1.95-1.66.83-.45,1.79-.67,2.85-.67,1.24,0,2.36.31,3.36.92,1.01.61,1.8,1.48,2.38,2.61.59,1.13.88,2.43.88,3.92s-.29,2.8-.88,3.95c-.58,1.14-1.37,2.03-2.38,2.66-1,.63-2.12.94-3.36.94-1.07,0-2.01-.22-2.82-.66-.81-.44-1.47-.99-1.99-1.65v9h-3.66v-21.45h3.66v2.1Zm7.68,5.11c0-.87-.18-1.63-.53-2.27-.36-.64-.83-1.12-1.41-1.45-.59-.33-1.22-.5-1.9-.5s-1.29.17-1.87.51c-.59.34-1.06.83-1.43,1.48-.36.65-.53,1.41-.53,2.28s.18,1.64.53,2.28c.36.65.84,1.14,1.43,1.48.59.34,1.21.51,1.87.51s1.31-.17,1.9-.52c.59-.35,1.06-.84,1.41-1.49.35-.65.53-1.42.53-2.31Z"/>
    <path class="cls-9" d="m481.12,358.3c-1.4,0-2.66-.31-3.77-.93s-2-1.5-2.63-2.63c-.64-1.14-.96-2.45-.96-3.93s.33-2.8.98-3.93c.65-1.13,1.55-2.01,2.68-2.63,1.14-.62,2.41-.93,3.81-.93s2.66.31,3.8.93c1.13.62,2.03,1.5,2.68,2.63.66,1.14.99,2.44.99,3.93s-.34,2.79-1.02,3.93c-.67,1.14-1.58,2.01-2.73,2.63-1.14.62-2.42.93-3.83.93Zm0-3.2c.67,0,1.29-.16,1.87-.48.59-.32,1.05-.81,1.4-1.45.35-.65.53-1.43.53-2.36,0-1.38-.37-2.44-1.09-3.18-.73-.74-1.61-1.12-2.66-1.12s-1.93.37-2.64,1.12c-.7.74-1.05,1.8-1.05,3.18s.34,2.44,1.03,3.19c.69.74,1.56,1.1,2.61,1.1Z"/>
    <path class="cls-9" d="m497.73,358.3c-1.19,0-2.25-.21-3.19-.63-.94-.43-1.69-1.01-2.25-1.75-.55-.74-.85-1.55-.91-2.44h3.7c.07.56.35,1.03.83,1.4.48.37,1.07.55,1.79.55s1.25-.14,1.64-.42c.4-.28.6-.64.6-1.08,0-.47-.24-.82-.72-1.05-.48-.24-1.25-.5-2.3-.78-1.09-.25-1.97-.52-2.67-.81-.69-.28-1.28-.71-1.77-1.28-.5-.58-.74-1.36-.74-2.33,0-.81.23-1.55.69-2.21.46-.66,1.12-1.18,1.99-1.56.87-.39,1.89-.58,3.05-.58,1.73,0,3.11.43,4.15,1.3,1.03.86,1.6,2.02,1.7,3.49h-3.51c-.05-.57-.29-1.02-.72-1.37-.43-.35-1-.52-1.71-.52-.66,0-1.18.12-1.54.37-.36.25-.53.59-.53,1.02,0,.49.24.86.73,1.12.49.26,1.25.52,2.28.77,1.05.27,1.91.54,2.59.82.68.28,1.27.72,1.76,1.3.5.58.76,1.35.78,2.31,0,.84-.23,1.6-.69,2.26-.47.66-1.13,1.19-2,1.56-.86.37-1.87.56-3.03.56Z"/>
    <path class="cls-9" d="m506.31,350.76c0-1.47.29-2.77.87-3.91.59-1.13,1.38-2,2.38-2.62,1.01-.61,2.13-.92,3.38-.92,1.08,0,2.03.22,2.84.66.81.44,1.46.99,1.96,1.65v-2.07h3.69v14.52h-3.69v-2.12c-.47.68-1.13,1.24-1.96,1.69-.83.45-1.78.67-2.87.67-1.23,0-2.34-.31-3.35-.94-1-.63-1.8-1.51-2.38-2.66-.58-1.15-.87-2.46-.87-3.95Zm11.43.05c0-.89-.18-1.66-.53-2.3-.35-.64-.82-1.12-1.41-1.46-.6-.34-1.23-.51-1.91-.51s-1.31.17-1.89.5c-.58.33-1.05.82-1.4,1.45-.36.64-.53,1.4-.53,2.27s.18,1.64.53,2.3c.35.65.83,1.15,1.41,1.5.59.35,1.21.52,1.87.52s1.32-.17,1.91-.51c.6-.34,1.07-.83,1.41-1.46.35-.64.53-1.4.53-2.3Z"/>
    <path class="cls-9" d="m529.46,338.67v19.4h-3.66v-19.4h3.66Z"/>
    <path class="cls-9" d="m632.76,280.06c0,.98-.23,1.9-.69,2.76-.47.85-1.19,1.55-2.18,2.07-.99.52-2.23.78-3.72.78h-3.08v7.02h-3.66v-18.29h6.74c1.41,0,2.62.25,3.61.73.99.49,1.74,1.16,2.23,2.02.5.85.76,1.82.76,2.9Zm-6.76,2.64c1.01,0,1.76-.23,2.25-.69.5-.46.74-1.11.74-1.95,0-1.78-1-2.67-2.99-2.67h-2.92v5.31h2.92Z"/>
    <path class="cls-9" d="m642.57,292.93c-1.4,0-2.66-.31-3.77-.93s-2-1.5-2.63-2.63c-.64-1.14-.96-2.45-.96-3.93s.33-2.8.98-3.93c.65-1.13,1.55-2.01,2.68-2.63,1.14-.62,2.41-.93,3.81-.93s2.66.31,3.8.93c1.13.62,2.03,1.5,2.68,2.63.66,1.14.99,2.44.99,3.93s-.34,2.79-1.02,3.93c-.67,1.14-1.58,2.01-2.73,2.63-1.14.62-2.42.93-3.83.93Zm0-3.2c.67,0,1.29-.16,1.87-.48.59-.32,1.05-.81,1.4-1.45.35-.65.53-1.43.53-2.36,0-1.38-.37-2.44-1.09-3.18-.73-.74-1.61-1.12-2.66-1.12s-1.93.37-2.64,1.12c-.7.74-1.05,1.8-1.05,3.18s.34,2.44,1.03,3.19c.69.74,1.56,1.1,2.61,1.1Z"/>
    <path class="cls-9" d="m657.3,273.3v19.4h-3.66v-19.4h3.66Z"/>
    <path class="cls-9" d="m663.57,276.45c-.65,0-1.19-.2-1.61-.62-.43-.41-.65-.92-.65-1.54s.21-1.12.65-1.53c.43-.41.97-.62,1.61-.62s1.18.21,1.6.62c.43.41.65.92.65,1.53s-.22,1.13-.65,1.54c-.42.42-.96.62-1.6.62Zm1.8,1.73v14.52h-3.66v-14.52h3.66Z"/>
    <path class="cls-9" d="m668.83,285.44c0-1.5.3-2.82.92-3.95.61-1.12,1.46-2,2.53-2.62,1.08-.62,2.32-.93,3.72-.93,1.8,0,3.29.45,4.47,1.35,1.18.89,1.98,2.16,2.38,3.79h-3.96c-.22-.63-.57-1.12-1.07-1.48-.5-.36-1.11-.55-1.85-.55-1.04,0-1.87.38-2.48,1.14-.61.76-.92,1.84-.92,3.24s.3,2.45.92,3.21c.61.76,1.44,1.14,2.48,1.14,1.49,0,2.46-.66,2.92-2h3.96c-.41,1.57-1.2,2.82-2.4,3.75-1.19.93-2.67,1.39-4.46,1.39-1.4,0-2.64-.31-3.72-.93-1.08-.62-1.92-1.49-2.53-2.62-.61-1.12-.92-2.44-.92-3.95Z"/>
    <path class="cls-9" d="m700.22,278.18l-8.99,21.38h-3.91l3.14-7.24-5.81-14.15h4.11l3.75,10.14,3.8-10.14h3.91Z"/>
    <path class="cls-9" d="m614.52,319.65c1.03.19,1.88.71,2.54,1.55.66.84.99,1.8.99,2.88,0,.98-.24,1.84-.72,2.58-.48.74-1.18,1.33-2.08,1.75-.91.42-1.99.62-3.23.62h-7.88v-18.29h7.55c1.24,0,2.31.2,3.2.61.9.4,1.58.96,2.05,1.68.46.71.69,1.52.69,2.43,0,1.07-.29,1.96-.86,2.68-.56.71-1.32,1.22-2.26,1.51Zm-6.71-1.37h3.36c.87,0,1.54-.19,2.01-.58.47-.4.71-.96.71-1.7s-.24-1.29-.71-1.7c-.47-.4-1.14-.61-2.01-.61h-3.36v4.59Zm3.7,7.76c.89,0,1.59-.2,2.08-.62.5-.42.74-1.02.74-1.79s-.26-1.4-.78-1.85-1.23-.67-2.12-.67h-3.62v4.93h3.7Z"/>
    <path class="cls-9" d="m623.64,312.79c-.65,0-1.19-.2-1.61-.62-.43-.41-.65-.92-.65-1.54s.21-1.12.65-1.53c.43-.41.97-.62,1.61-.62s1.18.21,1.6.62c.43.41.65.92.65,1.53s-.22,1.13-.65,1.54c-.42.42-.96.62-1.6.62Zm1.8,1.73v14.52h-3.66v-14.52h3.66Z"/>
    <path class="cls-9" d="m637.89,314.3c1.73,0,3.13.55,4.19,1.64s1.6,2.62,1.6,4.58v8.51h-3.67v-8.02c0-1.16-.29-2.05-.87-2.67-.57-.62-1.36-.93-2.36-.93s-1.81.31-2.4.93c-.59.62-.88,1.51-.88,2.67v8.02h-3.66v-14.52h3.66v1.81c.5-.63,1.12-1.12,1.87-1.48.76-.36,1.59-.55,2.51-.55Z"/>
    <path class="cls-9" d="m647.01,321.73c0-1.47.29-2.77.87-3.91.59-1.13,1.38-2,2.4-2.62,1.02-.61,2.15-.92,3.39-.92.94,0,1.84.21,2.69.62.86.41,1.54.95,2.05,1.64v-6.9h3.72v19.4h-3.72v-2.15c-.45.71-1.09,1.29-1.91,1.73-.82.44-1.77.66-2.85.66-1.23,0-2.35-.31-3.36-.94-1.01-.63-1.81-1.51-2.4-2.66-.58-1.15-.87-2.46-.87-3.95Zm11.43.05c0-.89-.18-1.66-.53-2.3-.35-.64-.82-1.12-1.41-1.46-.6-.34-1.23-.51-1.91-.51s-1.31.17-1.89.5c-.58.33-1.05.82-1.4,1.45-.36.64-.53,1.4-.53,2.27s.18,1.64.53,2.3c.35.65.83,1.15,1.41,1.5.59.35,1.21.52,1.87.52s1.32-.17,1.91-.51c.6-.34,1.07-.83,1.41-1.46.35-.64.53-1.4.53-2.3Z"/>
    <path class="cls-9" d="m668.36,312.79c-.65,0-1.19-.2-1.61-.62-.43-.41-.65-.92-.65-1.54s.21-1.12.65-1.53c.43-.41.97-.62,1.61-.62s1.18.21,1.6.62c.43.41.65.92.65,1.53s-.22,1.13-.65,1.54c-.42.42-.96.62-1.6.62Zm1.8,1.73v14.52h-3.66v-14.52h3.66Z"/>
    <path class="cls-9" d="m682.62,314.3c1.73,0,3.13.55,4.19,1.64s1.6,2.62,1.6,4.58v8.51h-3.67v-8.02c0-1.16-.29-2.05-.87-2.67-.57-.62-1.36-.93-2.36-.93s-1.81.31-2.4.93c-.59.62-.88,1.51-.88,2.67v8.02h-3.66v-14.52h3.66v1.81c.5-.63,1.12-1.12,1.87-1.48.76-.36,1.59-.55,2.51-.55Z"/>
    <path class="cls-9" d="m698.36,314.28c1.08,0,2.04.22,2.85.65.83.42,1.48.98,1.95,1.66v-2.07h3.69v14.62c0,1.35-.27,2.55-.82,3.61-.54,1.06-1.35,1.9-2.43,2.52-1.09.62-2.39.93-3.92.93-2.07,0-3.76-.48-5.08-1.45-1.32-.96-2.07-2.27-2.25-3.92h3.65c.19.66.6,1.19,1.24,1.58.64.4,1.41.6,2.32.6,1.07,0,1.93-.32,2.59-.96.67-.64,1.01-1.61,1.01-2.9v-2.25c-.47.68-1.13,1.25-1.96,1.7-.83.45-1.77.68-2.84.68-1.23,0-2.35-.31-3.36-.94-1.01-.63-1.81-1.51-2.4-2.66-.58-1.15-.87-2.46-.87-3.95s.29-2.77.87-3.91c.59-1.13,1.38-2,2.38-2.62,1.01-.61,2.13-.92,3.38-.92Zm4.8,7.5c0-.89-.18-1.66-.53-2.3-.35-.64-.82-1.12-1.41-1.46-.6-.34-1.23-.51-1.91-.51s-1.31.17-1.89.5c-.58.33-1.05.82-1.4,1.45-.36.64-.53,1.4-.53,2.27s.18,1.64.53,2.3c.35.65.83,1.15,1.41,1.5.59.35,1.21.52,1.87.52s1.32-.17,1.91-.51c.6-.34,1.07-.83,1.41-1.46.35-.64.53-1.4.53-2.3Z"/>
    <path class="cls-9" d="m809.12,235.98c0,.98-.23,1.9-.69,2.76-.47.85-1.19,1.55-2.18,2.07-.99.52-2.23.78-3.72.78h-3.08v7.02h-3.66v-18.29h6.74c1.41,0,2.62.25,3.61.73.99.49,1.74,1.16,2.23,2.02.5.85.76,1.82.76,2.9Zm-6.76,2.64c1.01,0,1.76-.23,2.25-.69.5-.46.74-1.11.74-1.95,0-1.78-1-2.67-2.99-2.67h-2.92v5.31h2.92Z"/>
    <path class="cls-9" d="m818.93,248.85c-1.4,0-2.66-.31-3.77-.93s-2-1.5-2.63-2.63c-.64-1.14-.96-2.45-.96-3.93s.33-2.8.98-3.93c.65-1.13,1.55-2.01,2.68-2.63,1.14-.62,2.41-.93,3.81-.93s2.66.31,3.8.93c1.13.62,2.03,1.5,2.68,2.63.66,1.14.99,2.44.99,3.93s-.34,2.79-1.02,3.93c-.67,1.14-1.58,2.01-2.73,2.63-1.14.62-2.42.93-3.83.93Zm0-3.2c.67,0,1.29-.16,1.87-.48.59-.32,1.05-.81,1.4-1.45.35-.65.53-1.43.53-2.36,0-1.38-.37-2.44-1.09-3.18-.73-.74-1.61-1.12-2.66-1.12s-1.93.37-2.64,1.12c-.7.74-1.05,1.8-1.05,3.18s.34,2.44,1.03,3.19c.69.74,1.56,1.1,2.61,1.1Z"/>
    <path class="cls-9" d="m833.66,229.22v19.4h-3.66v-19.4h3.66Z"/>
    <path class="cls-9" d="m839.93,232.37c-.65,0-1.19-.2-1.61-.62-.43-.41-.65-.92-.65-1.54s.21-1.12.65-1.53c.43-.41.97-.62,1.61-.62s1.18.21,1.6.62c.43.41.65.92.65,1.53s-.22,1.13-.65,1.54c-.42.42-.96.62-1.6.62Zm1.8,1.73v14.52h-3.66v-14.52h3.66Z"/>
    <path class="cls-9" d="m845.19,241.35c0-1.5.3-2.82.92-3.95.61-1.12,1.46-2,2.53-2.62,1.08-.62,2.32-.93,3.72-.93,1.8,0,3.29.45,4.47,1.35,1.18.89,1.98,2.16,2.38,3.79h-3.96c-.22-.63-.57-1.12-1.07-1.48-.5-.36-1.11-.55-1.85-.55-1.04,0-1.87.38-2.48,1.14-.61.76-.92,1.84-.92,3.24s.3,2.45.92,3.21c.61.76,1.44,1.14,2.48,1.14,1.49,0,2.46-.66,2.92-2h3.96c-.41,1.57-1.2,2.82-2.4,3.75-1.19.93-2.67,1.39-4.46,1.39-1.4,0-2.64-.31-3.72-.93-1.08-.62-1.92-1.49-2.53-2.62-.61-1.12-.92-2.44-.92-3.95Z"/>
    <path class="cls-9" d="m876.59,234.09l-8.99,21.38h-3.91l3.14-7.24-5.81-14.15h4.11l3.75,10.14,3.8-10.14h3.91Z"/>
    <path class="cls-9" d="m774.47,266.66v18.29h-3.66v-18.29h3.66Z"/>
    <path class="cls-9" d="m784.43,285.19c-1.19,0-2.25-.21-3.19-.63-.94-.43-1.69-1.01-2.25-1.75-.55-.74-.85-1.55-.91-2.44h3.7c.07.56.35,1.03.83,1.4.48.37,1.07.55,1.79.55s1.25-.14,1.64-.42c.4-.28.6-.64.6-1.08,0-.47-.24-.82-.72-1.05-.48-.24-1.25-.5-2.3-.78-1.09-.25-1.97-.52-2.67-.81-.69-.28-1.28-.71-1.77-1.28-.5-.58-.74-1.36-.74-2.33,0-.81.23-1.55.69-2.21.46-.66,1.12-1.18,1.99-1.56.87-.39,1.89-.58,3.05-.58,1.73,0,3.11.43,4.15,1.3,1.03.86,1.6,2.02,1.7,3.49h-3.51c-.05-.57-.29-1.02-.72-1.37-.43-.35-1-.52-1.71-.52-.66,0-1.18.12-1.54.37-.36.25-.53.59-.53,1.02,0,.49.24.86.73,1.12.49.26,1.25.52,2.28.77,1.05.27,1.91.54,2.59.82.68.28,1.27.72,1.76,1.3.5.58.76,1.35.78,2.31,0,.84-.23,1.6-.69,2.26-.47.66-1.13,1.19-2,1.56-.86.37-1.87.56-3.03.56Z"/>
    <path class="cls-9" d="m799.5,285.19c-1.19,0-2.25-.21-3.19-.63-.94-.43-1.69-1.01-2.25-1.75-.55-.74-.85-1.55-.91-2.44h3.7c.07.56.35,1.03.83,1.4.48.37,1.07.55,1.79.55s1.25-.14,1.64-.42c.4-.28.6-.64.6-1.08,0-.47-.24-.82-.72-1.05-.48-.24-1.25-.5-2.3-.78-1.09-.25-1.97-.52-2.67-.81-.69-.28-1.28-.71-1.77-1.28-.5-.58-.74-1.36-.74-2.33,0-.81.23-1.55.69-2.21.46-.66,1.12-1.18,1.99-1.56.87-.39,1.89-.58,3.05-.58,1.73,0,3.11.43,4.15,1.3,1.03.86,1.6,2.02,1.7,3.49h-3.51c-.05-.57-.29-1.02-.72-1.37-.43-.35-1-.52-1.71-.52-.66,0-1.18.12-1.54.37-.36.25-.53.59-.53,1.02,0,.49.24.86.73,1.12.49.26,1.25.52,2.28.77,1.05.27,1.91.54,2.59.82.68.28,1.27.72,1.76,1.3.5.58.76,1.35.78,2.31,0,.84-.23,1.6-.69,2.26-.47.66-1.13,1.19-2,1.56-.86.37-1.87.56-3.03.56Z"/>
    <path class="cls-9" d="m822.72,270.43v14.52h-3.69v-1.84c-.48.63-1.1,1.13-1.86,1.49-.75.35-1.58.53-2.47.53-1.14,0-2.14-.24-3.02-.72-.87-.48-1.56-1.19-2.06-2.12-.5-.93-.74-2.05-.74-3.35v-8.51h3.67v7.99c0,1.16.29,2.05.86,2.67.58.61,1.37.92,2.37.92s1.8-.3,2.38-.92c.58-.62.87-1.51.87-2.67v-7.99h3.69Z"/>
    <path class="cls-9" d="m826.18,277.64c0-1.47.29-2.77.87-3.91.59-1.13,1.38-2,2.38-2.62,1.01-.61,2.13-.92,3.38-.92,1.08,0,2.03.22,2.84.66.81.44,1.46.99,1.96,1.65v-2.07h3.69v14.52h-3.69v-2.12c-.47.68-1.13,1.24-1.96,1.69-.83.45-1.78.67-2.87.67-1.23,0-2.34-.31-3.35-.94-1-.63-1.8-1.51-2.38-2.66-.58-1.15-.87-2.46-.87-3.95Zm11.43.05c0-.89-.18-1.66-.53-2.3-.35-.64-.82-1.12-1.41-1.46-.6-.34-1.23-.51-1.91-.51s-1.31.17-1.89.5c-.58.33-1.05.82-1.4,1.45-.36.64-.53,1.4-.53,2.27s.18,1.64.53,2.3c.35.65.83,1.15,1.41,1.5.59.35,1.21.52,1.87.52s1.32-.17,1.91-.51c.6-.34,1.07-.83,1.41-1.46.35-.64.53-1.4.53-2.3Z"/>
    <path class="cls-9" d="m853.71,270.22c1.73,0,3.13.55,4.19,1.64s1.6,2.62,1.6,4.58v8.51h-3.67v-8.02c0-1.16-.29-2.05-.87-2.67-.57-.62-1.36-.93-2.36-.93s-1.81.31-2.4.93c-.59.62-.88,1.51-.88,2.67v8.02h-3.66v-14.52h3.66v1.81c.5-.63,1.12-1.12,1.87-1.48.76-.36,1.59-.55,2.51-.55Z"/>
    <path class="cls-9" d="m862.84,277.69c0-1.5.3-2.82.92-3.95.61-1.12,1.46-2,2.53-2.62,1.08-.62,2.32-.93,3.72-.93,1.8,0,3.29.45,4.47,1.35,1.18.89,1.98,2.16,2.38,3.79h-3.96c-.22-.63-.57-1.12-1.07-1.48-.5-.36-1.11-.55-1.85-.55-1.04,0-1.87.38-2.48,1.14-.61.76-.92,1.84-.92,3.24s.3,2.45.92,3.21c.61.76,1.44,1.14,2.48,1.14,1.49,0,2.46-.66,2.92-2h3.96c-.41,1.57-1.2,2.82-2.4,3.75-1.19.93-2.67,1.39-4.46,1.39-1.4,0-2.64-.31-3.72-.93-1.08-.62-1.92-1.49-2.53-2.62-.61-1.12-.92-2.44-.92-3.95Z"/>
    <path class="cls-9" d="m893.83,277.38c0,.52-.03.99-.1,1.41h-10.61c.08,1.04.45,1.86,1.09,2.46s1.44.89,2.38.89c1.37,0,2.34-.58,2.92-1.75h3.96c-.42,1.39-1.23,2.54-2.42,3.44-1.19.9-2.64,1.35-4.37,1.35-1.4,0-2.65-.31-3.76-.93-1.11-.62-1.97-1.5-2.59-2.63-.62-1.14-.93-2.45-.93-3.93s.3-2.82.92-3.96c.61-1.13,1.47-2,2.57-2.62,1.1-.61,2.36-.92,3.8-.92s2.62.3,3.71.89,1.94,1.44,2.53,2.53c.6,1.09.91,2.35.91,3.76Zm-3.8-1.05c-.02-.94-.36-1.69-1.02-2.26-.66-.57-1.48-.86-2.44-.86-.9,0-1.66.28-2.28.83-.62.55-1,1.31-1.14,2.28h6.89Z"/>
  </g>
  <g class="cls-44">
    <path class="cls-10" d="m1205.52,87.85h676.73v141.16h-676.73V87.85Z"/>
  </g>
  <path class="cls-4" d="m1323.05,158.43c0-2.4.54-4.55,1.62-6.46,1.08-1.9,2.56-3.38,4.44-4.44s3.99-1.59,6.32-1.59c2.72,0,5.11.7,7.16,2.1,2.06,1.4,3.49,3.34,4.31,5.81h-5.62c-.56-1.16-1.35-2.03-2.37-2.61-1.02-.59-2.18-.89-3.5-.89-1.43,0-2.7.34-3.81,1.01-1.11.66-1.96,1.6-2.58,2.82-.62,1.21-.92,2.63-.92,4.25s.31,3.04.92,4.27c.62,1.22,1.47,2.16,2.58,2.82,1.11.66,2.38.99,3.81.99,1.32,0,2.49-.29,3.5-.89,1.03-.59,1.82-1.47,2.37-2.65h5.62c-.81,2.51-2.24,4.45-4.29,5.84-2.04,1.38-4.43,2.07-7.18,2.07-2.34,0-4.44-.53-6.32-1.59s-3.36-2.53-4.44-4.43c-1.08-1.89-1.62-4.04-1.62-6.44Z"/>
  <path class="cls-4" d="m1356,150.21v6.12h8.22v3.9h-8.22v6.48h9.28v3.98h-14.18v-24.47h14.18v4h-9.28Z"/>
  <path class="cls-4" d="m1382.31,170.68l-5.4-9.52h-2.31v9.52h-4.9v-24.43h9.17c1.89,0,3.49.34,4.82,1.01,1.33.66,2.33,1.56,2.99,2.7.67,1.13,1.01,2.39,1.01,3.79,0,1.61-.47,3.06-1.4,4.36-.94,1.29-2.32,2.18-4.17,2.67l5.84,9.91h-5.66Zm-7.71-13.19h4.1c1.32,0,2.31-.32,2.96-.96.66-.65.99-1.54.99-2.68s-.33-1.98-.99-2.6c-.65-.62-1.64-.94-2.96-.94h-4.1v7.18Z"/>
  <path class="cls-4" d="m1408.75,146.24v3.96h-6.51v20.47h-4.9v-20.47h-6.49v-3.96h17.91Z"/>
  <path class="cls-4" d="m1417.22,146.24v24.43h-4.9v-24.43h4.9Z"/>
  <path class="cls-4" d="m1437.13,146.24v3.96h-10.18v6.27h7.81v3.88h-7.81v10.32h-4.9v-24.43h15.09Z"/>
  <path class="cls-4" d="m1445.48,146.24v24.43h-4.9v-24.43h4.9Z"/>
  <path class="cls-4" d="m1449.13,158.43c0-2.4.54-4.55,1.62-6.46,1.08-1.9,2.56-3.38,4.44-4.44s3.99-1.59,6.32-1.59c2.72,0,5.11.7,7.16,2.1,2.06,1.4,3.49,3.34,4.31,5.81h-5.62c-.56-1.16-1.35-2.03-2.37-2.61-1.02-.59-2.18-.89-3.5-.89-1.43,0-2.7.34-3.81,1.01-1.11.66-1.96,1.6-2.58,2.82-.62,1.21-.92,2.63-.92,4.25s.31,3.04.92,4.27c.62,1.22,1.47,2.16,2.58,2.82,1.11.66,2.38.99,3.81.99,1.32,0,2.49-.29,3.5-.89,1.03-.59,1.82-1.47,2.37-2.65h5.62c-.81,2.51-2.24,4.45-4.29,5.84-2.04,1.38-4.43,2.07-7.18,2.07-2.34,0-4.44-.53-6.32-1.59s-3.36-2.53-4.44-4.43c-1.08-1.89-1.62-4.04-1.62-6.44Z"/>
  <path class="cls-4" d="m1492.15,166.03h-9.72l-1.62,4.65h-5.14l8.78-24.47h5.71l8.78,24.47h-5.18l-1.61-4.65Zm-1.33-3.93l-3.54-10.22-3.54,10.22h7.07Z"/>
  <path class="cls-4" d="m1518.84,146.24v3.96h-6.51v20.47h-4.9v-20.47h-6.49v-3.96h17.91Z"/>
  <path class="cls-4" d="m1527.31,150.21v6.12h8.22v3.9h-8.22v6.48h9.28v3.98h-14.18v-24.47h14.18v4h-9.28Z"/>
  <path class="cls-4" d="m1560.68,170.91c-2.29,0-4.39-.53-6.3-1.61-1.91-1.07-3.43-2.55-4.54-4.46-1.12-1.9-1.67-4.05-1.67-6.46s.56-4.52,1.67-6.42c1.11-1.9,2.63-3.39,4.54-4.46,1.91-1.07,4.02-1.61,6.3-1.61s4.41.54,6.3,1.61c1.9,1.07,3.4,2.56,4.51,4.46,1.11,1.9,1.67,4.04,1.67,6.42s-.56,4.56-1.67,6.46c-1.11,1.9-2.61,3.39-4.53,4.46-1.9,1.07-4,1.61-6.29,1.61Zm0-4.37c1.47,0,2.76-.33,3.88-.99,1.11-.66,1.99-1.61,2.61-2.84.64-1.24.96-2.68.96-4.32s-.32-3.05-.96-4.27c-.63-1.23-1.5-2.17-2.61-2.82-1.12-.66-2.41-.99-3.88-.99s-2.78.33-3.91.99c-1.13.65-2.01,1.59-2.63,2.82-.63,1.22-.94,2.64-.94,4.27s.31,3.08.94,4.32c.62,1.23,1.5,2.18,2.63,2.84,1.14.66,2.44.99,3.91.99Z"/>
  <path class="cls-4" d="m1591.88,146.24v3.96h-10.18v6.27h7.81v3.88h-7.81v10.32h-4.9v-24.43h15.09Z"/>
  <path class="cls-4" d="m1608.57,146.24v24.43h-4.9v-24.43h4.9Z"/>
  <path class="cls-4" d="m1634.28,170.68h-4.9l-11.09-16.76v16.76h-4.9v-24.47h4.9l11.09,16.79v-16.79h4.9v24.47Z"/>
  <path class="cls-4" d="m1647.54,170.91c-1.71,0-3.25-.29-4.61-.87-1.36-.58-2.43-1.42-3.23-2.51-.8-1.1-1.21-2.4-1.23-3.9h5.26c.07,1,.42,1.8,1.06,2.39.64.58,1.52.87,2.65.87s2.03-.27,2.68-.82c.66-.55.99-1.26.99-2.15,0-.73-.22-1.32-.67-1.79-.44-.47-1-.83-1.67-1.09-.66-.27-1.57-.57-2.73-.89-1.58-.47-2.88-.93-3.88-1.38-.99-.45-1.84-1.14-2.55-2.07-.71-.92-1.06-2.15-1.06-3.69,0-1.44.36-2.7,1.08-3.78.73-1.08,1.74-1.9,3.04-2.48,1.31-.57,2.8-.85,4.48-.85,2.53,0,4.58.62,6.15,1.85,1.57,1.22,2.43,2.93,2.6,5.13h-5.38c-.05-.84-.41-1.54-1.08-2.08-.66-.55-1.54-.82-2.63-.82-.96,0-1.72.25-2.29.73-.57.49-.85,1.2-.85,2.14,0,.65.21,1.19.63,1.62.43.44.97.79,1.61,1.06.65.26,1.55.56,2.72.91,1.59.47,2.89.94,3.9,1.4,1,.47,1.86,1.17,2.58,2.1.73.94,1.09,2.16,1.09,3.67,0,1.31-.34,2.53-1.03,3.66-.67,1.12-1.67,2.01-2.97,2.67-1.3.66-2.85.99-4.65.99Z"/>
  <path class="cls-4" d="m1665.24,146.24v15.12c0,1.67.43,2.93,1.28,3.81.86.87,2.08,1.3,3.66,1.3s2.81-.43,3.67-1.3c.86-.88,1.3-2.14,1.3-3.81v-15.12h4.92v15.09c0,2.08-.45,3.83-1.35,5.26-.89,1.44-2.09,2.52-3.6,3.25-1.5.72-3.17,1.08-5.01,1.08s-3.48-.36-4.95-1.08c-1.48-.73-2.66-1.81-3.52-3.25-.87-1.44-1.3-3.19-1.3-5.26v-15.09h4.9Z"/>
  <path class="cls-4" d="m1697.4,170.68l-5.4-9.52h-2.31v9.52h-4.9v-24.43h9.17c1.89,0,3.49.34,4.82,1.01,1.33.66,2.33,1.56,2.99,2.7.67,1.13,1.01,2.39,1.01,3.79,0,1.61-.47,3.06-1.4,4.36-.94,1.29-2.32,2.18-4.17,2.67l5.84,9.91h-5.66Zm-7.71-13.19h4.1c1.32,0,2.31-.32,2.96-.96.66-.65.99-1.54.99-2.68s-.33-1.98-.99-2.6c-.65-.62-1.64-.94-2.96-.94h-4.1v7.18Z"/>
  <path class="cls-4" d="m1722.19,166.03h-9.72l-1.62,4.65h-5.14l8.78-24.47h5.71l8.78,24.47h-5.18l-1.61-4.65Zm-1.33-3.93l-3.54-10.22-3.54,10.22h7.07Z"/>
  <path class="cls-4" d="m1753.15,170.68h-4.9l-11.09-16.76v16.76h-4.9v-24.47h4.9l11.09,16.79v-16.79h4.9v24.47Z"/>
  <path class="cls-4" d="m1756.79,158.43c0-2.4.54-4.55,1.62-6.46,1.08-1.9,2.56-3.38,4.44-4.44s3.99-1.59,6.32-1.59c2.72,0,5.11.7,7.16,2.1,2.06,1.4,3.49,3.34,4.31,5.81h-5.62c-.56-1.16-1.35-2.03-2.37-2.61-1.02-.59-2.18-.89-3.5-.89-1.43,0-2.7.34-3.81,1.01-1.11.66-1.96,1.6-2.58,2.82-.62,1.21-.92,2.63-.92,4.25s.31,3.04.92,4.27c.62,1.22,1.47,2.16,2.58,2.82,1.11.66,2.38.99,3.81.99,1.32,0,2.49-.29,3.5-.89,1.03-.59,1.82-1.47,2.37-2.65h5.62c-.81,2.51-2.24,4.45-4.29,5.84-2.04,1.38-4.43,2.07-7.18,2.07-2.34,0-4.44-.53-6.32-1.59s-3.36-2.53-4.44-4.43c-1.08-1.89-1.62-4.04-1.62-6.44Z"/>
  <path class="cls-4" d="m1789.74,150.21v6.12h8.22v3.9h-8.22v6.48h9.28v3.98h-14.18v-24.47h14.18v4h-9.28Z"/>
  <g class="cls-42">
    <g class="cls-22">
      <path class="cls-4" d="m1244.23,131.76h53.8v53.81h-53.8v-53.81Z"/>
    </g>
  </g>
  <path class="cls-10" d="m1274.41,149.87h-1.56c-.68,0-1.37.15-2.13.63l-4.15,2.58v2.59l5.4-3.21v17.03h2.44v-19.61Z"/>
  <g class="cls-23">
    <path class="cls-8" d="m1205.52,232.13h676.73v141.16h-676.73v-141.16Z"/>
  </g>
  <path class="cls-4" d="m1329.13,294.49v6.12h8.22v3.9h-8.22v6.48h9.28v3.98h-14.18v-24.47h14.18v4h-9.28Z"/>
  <path class="cls-4" d="m1363.74,314.96h-4.9l-11.09-16.76v16.76h-4.9v-24.47h4.9l11.09,16.79v-16.79h4.9v24.47Z"/>
  <path class="cls-4" d="m1377.09,290.53c2.56,0,4.82.51,6.77,1.52,1.95,1,3.45,2.43,4.51,4.29,1.07,1.85,1.61,3.99,1.61,6.44s-.54,4.59-1.61,6.42c-1.06,1.84-2.56,3.25-4.51,4.25-1.95,1-4.2,1.5-6.77,1.5h-8.54v-24.43h8.54Zm-.17,20.26c2.56,0,4.54-.69,5.95-2.08,1.4-1.4,2.1-3.37,2.1-5.93s-.7-4.53-2.1-5.96-3.38-2.15-5.95-2.15h-3.47v16.13h3.47Z"/>
  <path class="cls-4" d="m1404.98,315.2c-2.29,0-4.39-.53-6.3-1.61-1.91-1.07-3.43-2.55-4.54-4.46-1.12-1.9-1.67-4.05-1.67-6.46s.56-4.52,1.67-6.42c1.11-1.9,2.63-3.39,4.54-4.46,1.91-1.07,4.02-1.61,6.3-1.61s4.41.54,6.3,1.61c1.9,1.07,3.4,2.56,4.51,4.46,1.11,1.9,1.67,4.04,1.67,6.42s-.56,4.56-1.67,6.46c-1.11,1.9-2.61,3.39-4.53,4.46-1.9,1.07-4,1.61-6.29,1.61Zm0-4.37c1.47,0,2.76-.33,3.88-.99,1.11-.66,1.99-1.61,2.61-2.84.64-1.24.96-2.68.96-4.32s-.32-3.05-.96-4.27c-.63-1.23-1.5-2.17-2.61-2.82-1.12-.66-2.41-.99-3.88-.99s-2.78.33-3.91.99c-1.13.65-2.01,1.59-2.63,2.82-.63,1.22-.94,2.64-.94,4.27s.31,3.08.94,4.32c.62,1.23,1.5,2.18,2.63,2.84,1.14.66,2.44.99,3.91.99Z"/>
  <path class="cls-4" d="m1433.7,314.96l-5.4-9.52h-2.31v9.52h-4.9v-24.43h9.17c1.89,0,3.49.34,4.82,1.01,1.33.66,2.33,1.56,2.99,2.7.67,1.13,1.01,2.39,1.01,3.79,0,1.61-.47,3.06-1.4,4.36-.94,1.29-2.32,2.18-4.17,2.67l5.84,9.91h-5.66Zm-7.71-13.19h4.1c1.32,0,2.31-.32,2.96-.96.66-.65.99-1.54.99-2.68s-.33-1.98-.99-2.6c-.65-.62-1.64-.94-2.96-.94h-4.1v7.18Z"/>
  <path class="cls-4" d="m1451.96,315.2c-1.71,0-3.25-.29-4.61-.87-1.36-.58-2.43-1.42-3.23-2.51-.8-1.1-1.21-2.4-1.23-3.9h5.26c.07,1,.42,1.8,1.06,2.39.64.58,1.52.87,2.65.87s2.03-.27,2.68-.82c.66-.55.99-1.26.99-2.15,0-.73-.22-1.32-.67-1.79-.44-.47-1-.83-1.67-1.09-.66-.27-1.57-.57-2.73-.89-1.58-.47-2.88-.93-3.88-1.38-.99-.45-1.84-1.14-2.55-2.07-.71-.92-1.06-2.15-1.06-3.69,0-1.44.36-2.7,1.08-3.78.73-1.08,1.74-1.9,3.04-2.48,1.31-.57,2.8-.85,4.48-.85,2.53,0,4.58.62,6.15,1.85,1.57,1.22,2.43,2.93,2.6,5.13h-5.38c-.05-.84-.41-1.54-1.08-2.08-.66-.55-1.54-.82-2.63-.82-.96,0-1.72.25-2.29.73-.57.49-.85,1.2-.85,2.14,0,.65.21,1.19.63,1.62.43.44.97.79,1.61,1.06.65.26,1.55.56,2.72.91,1.59.47,2.89.94,3.9,1.4,1,.47,1.86,1.17,2.58,2.1.73.94,1.09,2.16,1.09,3.67,0,1.31-.34,2.53-1.03,3.66-.67,1.12-1.67,2.01-2.97,2.67-1.3.66-2.85.99-4.65.99Z"/>
  <path class="cls-4" d="m1469.73,294.49v6.12h8.22v3.9h-8.22v6.48h9.28v3.98h-14.18v-24.47h14.18v4h-9.28Z"/>
  <path class="cls-4" d="m1510.07,290.53v24.43h-4.9v-15.89l-6.54,15.89h-3.71l-6.58-15.89v15.89h-4.9v-24.43h5.57l7.77,18.16,7.76-18.16h5.54Z"/>
  <path class="cls-4" d="m1519.78,294.49v6.12h8.22v3.9h-8.22v6.48h9.28v3.98h-14.18v-24.47h14.18v4h-9.28Z"/>
  <path class="cls-4" d="m1554.39,314.96h-4.9l-11.09-16.76v16.76h-4.9v-24.47h4.9l11.09,16.79v-16.79h4.9v24.47Z"/>
  <path class="cls-4" d="m1575.83,290.53v3.96h-6.51v20.47h-4.9v-20.47h-6.49v-3.96h17.91Z"/>
  <path class="cls-4" d="m1587.83,315.2c-1.71,0-3.25-.29-4.61-.87-1.36-.58-2.43-1.42-3.23-2.51-.8-1.1-1.21-2.4-1.23-3.9h5.26c.07,1,.42,1.8,1.06,2.39.64.58,1.52.87,2.65.87s2.03-.27,2.68-.82c.66-.55.99-1.26.99-2.15,0-.73-.22-1.32-.67-1.79-.44-.47-1-.83-1.67-1.09-.66-.27-1.57-.57-2.73-.89-1.58-.47-2.88-.93-3.88-1.38-.99-.45-1.84-1.14-2.55-2.07-.71-.92-1.06-2.15-1.06-3.69,0-1.44.36-2.7,1.08-3.78.73-1.08,1.74-1.9,3.04-2.48,1.31-.57,2.8-.85,4.48-.85,2.53,0,4.58.62,6.15,1.85,1.57,1.22,2.43,2.93,2.6,5.13h-5.38c-.05-.84-.41-1.54-1.08-2.08-.66-.55-1.54-.82-2.63-.82-.96,0-1.72.25-2.29.73-.57.49-.85,1.2-.85,2.14,0,.65.21,1.19.63,1.62.43.44.97.79,1.61,1.06.65.26,1.55.56,2.72.91,1.59.47,2.89.94,3.9,1.4,1,.47,1.86,1.17,2.58,2.1.73.94,1.09,2.16,1.09,3.67,0,1.31-.34,2.53-1.03,3.66-.67,1.12-1.67,2.01-2.97,2.67-1.3.66-2.85.99-4.65.99Z"/>
  <g class="cls-26">
    <g class="cls-25">
      <path class="cls-4" d="m1244.23,276.22h53.8v53.8h-53.8v-53.8Z"/>
    </g>
  </g>
  <path class="cls-8" d="m1268.13,311.95l4.92-4.86c3.33-3.27,4.78-5.09,4.78-7.76,0-2.93-1.96-5.4-5.97-5.4s-6.37,2.16-6.77,6.25l-.03.29h2.45l.03-.29c.29-2.75,1.51-4.32,4.04-4.32,2.36,0,3.53,1.73,3.53,3.75,0,1.9-1.11,3.33-3.41,5.69l-7.11,7.25v1.39h13.16v-1.99h-9.61Z"/>
  <g class="cls-24">
    <path class="cls-5" d="m1205.52,376.21h676.73v141.16h-676.73v-141.16Z"/>
  </g>
  <path class="cls-4" d="m1337.18,435.23c3.15,0,5.61.76,7.38,2.29,1.78,1.53,2.79,3.55,3.06,6.05l.03.34h-4.84l-.07-.34c-.63-3.15-2.51-4.73-5.64-4.73-1.96,0-3.54.79-4.73,2.37-1.19,1.57-1.78,3.72-1.78,6.44,0,2.92.59,5.17,1.78,6.75,1.2,1.57,2.75,2.36,4.66,2.36,1.54,0,2.77-.43,3.71-1.3.93-.86,1.56-2.07,1.9-3.6l.07-.34h4.8l-.03.34c-.26,2.61-1.34,4.68-3.23,6.22-1.89,1.53-4.37,2.29-7.41,2.29-3.41,0-6.15-1.12-8.24-3.37-2.08-2.24-3.11-5.26-3.11-9.06s1.09-6.96,3.28-9.26c2.2-2.3,5-3.45,8.41-3.45Z"/>
  <path class="cls-4" d="m1369.37,455.83v4.03h-17.43v-24.14h4.84v20.11h12.59Z"/>
  <path class="cls-4" d="m1386.16,452.58h-8.12l-2.41,7.28h-5.14l8.71-24.14h6.05l8.54,24.14h-5.26l-2.37-7.28Zm-4.02-12.73l-2.87,8.92h5.67l-2.8-8.92Z"/>
  <path class="cls-4" d="m1401.56,459.86h-4.84v-24.14h4.84v24.14Z"/>
  <path class="cls-4" d="m1432.97,435.72v24.14h-4.84v-11.16c0-3.83.02-6.58.07-8.27-.65,2.8-1.4,5.55-2.24,8.24l-3.38,11.19h-5.25l-3.47-11.22c-.89-2.97-1.61-5.69-2.17-8.17.04,1.69.07,4.43.07,8.24v11.16h-4.84v-24.14h7.64l5.45,19.7,5.47-19.7h7.48Z"/>
  <path class="cls-4" d="m1446.33,435.23c2.75,0,4.86.69,6.32,2.07,1.46,1.38,2.33,3.22,2.61,5.54h-4.94c-.15-1.26-.57-2.24-1.26-2.94-.7-.7-1.67-1.06-2.9-1.06-1,0-1.82.25-2.46.73-.63.49-.94,1.2-.94,2.14,0,1.03.38,1.84,1.13,2.43.76.58,2.1,1.09,4.02,1.54,2.64.61,4.58,1.53,5.83,2.77,1.25,1.23,1.88,2.83,1.88,4.78,0,2.19-.87,3.93-2.6,5.21-1.72,1.29-3.83,1.93-6.32,1.93-2.94,0-5.29-.65-7.04-1.95-1.76-1.3-2.75-3.19-2.97-5.69h4.94c.25,1.29.83,2.29,1.74,2.99.91.7,2,1.04,3.26,1.04,1.11,0,2.05-.28,2.8-.84.76-.57,1.14-1.3,1.14-2.2,0-1.03-.37-1.87-1.11-2.49-.73-.62-1.97-1.15-3.72-1.57-2.7-.65-4.72-1.51-6.05-2.6-1.33-1.09-2-2.67-2-4.75s.84-3.87,2.51-5.14c1.68-1.29,3.73-1.93,6.13-1.93Z"/>
  <path class="cls-4" d="m1492.41,435.72v24.14h-4.84v-11.16c0-3.83.02-6.58.07-8.27-.65,2.8-1.4,5.55-2.24,8.24l-3.38,11.19h-5.25l-3.47-11.22c-.89-2.97-1.61-5.69-2.17-8.17.04,1.69.07,4.43.07,8.24v11.16h-4.84v-24.14h7.64l5.45,19.7,5.47-19.7h7.48Z"/>
  <path class="cls-4" d="m1510.84,452.58h-8.12l-2.41,7.28h-5.14l8.71-24.14h6.05l8.54,24.14h-5.26l-2.37-7.28Zm-4.02-12.73l-2.87,8.92h5.67l-2.8-8.92Z"/>
  <path class="cls-4" d="m1542.6,459.86h-6.61l-9.93-18.33c.11,2.19.17,4.66.17,7.41v10.92h-4.84v-24.14h6.41l10.15,18.69c-.12-2.17-.17-4.71-.17-7.6v-11.09h4.78l.03,24.14Z"/>
  <path class="cls-4" d="m1561.07,452.58h-8.12l-2.41,7.28h-5.14l8.71-24.14h6.05l8.54,24.14h-5.26l-2.37-7.28Zm-4.02-12.73l-2.87,8.92h5.67l-2.8-8.92Z"/>
  <path class="cls-4" d="m1582.68,447.54h9.74v12.32h-3.9l-.31-3.91-1.08,2.44c-1.33,1.31-3.3,1.96-5.89,1.96-3.35,0-6.01-1.11-8-3.33-1.97-2.23-2.96-5.26-2.96-9.09s1.12-6.96,3.37-9.26c2.24-2.3,5.09-3.45,8.54-3.45,3.14,0,5.6.76,7.38,2.29,1.78,1.53,2.79,3.55,3.04,6.05l.03.34h-4.84l-.07-.34c-.63-3.15-2.5-4.73-5.62-4.73-1.98,0-3.6.8-4.85,2.39-1.26,1.58-1.88,3.72-1.88,6.42,0,2.92.6,5.17,1.81,6.75,1.22,1.57,2.81,2.36,4.77,2.36,1.57,0,2.87-.48,3.91-1.44,1.03-.96,1.67-2.29,1.9-4h-5.11v-3.78Z"/>
  <path class="cls-4" d="m1614.84,456.05v3.81h-17.43v-24.14h17.09v3.78h-12.25v6.37h11.36v3.81h-11.36v6.37h12.59Z"/>
  <path class="cls-4" d="m1645,435.72v24.14h-4.84v-11.16c0-3.83.02-6.58.07-8.27-.65,2.8-1.4,5.55-2.24,8.24l-3.38,11.19h-5.25l-3.47-11.22c-.89-2.97-1.61-5.69-2.17-8.17.04,1.69.07,4.43.07,8.24v11.16h-4.84v-24.14h7.64l5.45,19.7,5.47-19.7h7.48Z"/>
  <path class="cls-4" d="m1667.77,456.05v3.81h-17.43v-24.14h17.09v3.78h-12.25v6.37h11.36v3.81h-11.36v6.37h12.59Z"/>
  <path class="cls-4" d="m1693.09,459.86h-6.61l-9.93-18.33c.11,2.19.17,4.66.17,7.41v10.92h-4.84v-24.14h6.41l10.15,18.69c-.12-2.17-.17-4.71-.17-7.6v-11.09h4.78l.03,24.14Z"/>
  <path class="cls-4" d="m1717.37,439.5h-8.18v20.37h-4.84v-20.37h-8.18v-3.78h21.2v3.78Z"/>
  <g class="cls-27">
    <g class="cls-30">
      <path class="cls-4" d="m1244.23,420.5h53.8v53.8h-53.8v-53.8Z"/>
    </g>
  </g>
  <path class="cls-5" d="m1274.13,447.79c2.05-.6,3.47-2.36,3.47-4.6,0-2.96-2.27-4.98-5.88-4.98-3.98,0-6.4,2.22-6.77,5.77l-.03.29h2.44l.03-.29c.26-2.59,1.93-3.84,4.01-3.84s3.47,1.36,3.47,3.32c0,2.47-1.88,3.84-4.21,3.84h-.48v1.99h.48c3.19,0,4.66,1.31,4.66,3.61s-1.73,3.78-4.15,3.78-4.26-1.23-4.55-3.98l-.03-.29h-2.45l.03.29c.43,4.24,3.04,5.91,6.77,5.91s7.11-2.19,7.11-5.86c0-2.56-1.51-4.29-3.93-4.97Z"/>
  <g class="cls-28">
    <path class="cls-6" d="m1205.52,520.3h676.73v141.16h-676.73v-141.16Z"/>
  </g>
  <path class="cls-4" d="m1345.48,579.98c1.93.22,3.5.97,4.7,2.24,1.2,1.26,1.79,2.97,1.79,5.11s-.62,3.84-1.86,5.11c-1.23,1.26-2.78,2.01-4.63,2.24-1.02.13-2.18.19-3.5.19h-3.54v9.09h-4.84v-24.14h8.37c1.35,0,2.52.06,3.5.17Zm-1.44,10.95c1.91-.27,2.87-1.47,2.87-3.59s-.96-3.34-2.87-3.62c-.55-.07-1.26-.1-2.14-.1h-3.47v7.41h3.47c.88,0,1.59-.03,2.14-.1Z"/>
  <path class="cls-4" d="m1366.01,579.31c3.68,0,6.58,1.14,8.71,3.42,2.14,2.28,3.21,5.33,3.21,9.14s-1.07,6.85-3.21,9.14c-2.13,2.29-5.04,3.43-8.73,3.43s-6.59-1.14-8.73-3.43c-2.13-2.29-3.19-5.33-3.19-9.14s1.06-6.86,3.18-9.14c2.13-2.28,5.05-3.42,8.76-3.42Zm-5.07,19.17c1.23,1.57,2.91,2.36,5.06,2.36s3.83-.79,5.04-2.37c1.22-1.59,1.83-3.79,1.83-6.59s-.61-5.01-1.83-6.58c-1.21-1.58-2.88-2.37-5.02-2.37s-3.87.79-5.09,2.37c-1.21,1.57-1.81,3.77-1.81,6.59s.61,5.01,1.83,6.59Z"/>
  <path class="cls-4" d="m1399.59,599.91v4.03h-17.43v-24.14h4.84v20.11h12.59Z"/>
  <path class="cls-4" d="m1408.12,603.95h-4.84v-24.14h4.84v24.14Z"/>
  <path class="cls-4" d="m1423.86,579.31c3.15,0,5.61.76,7.38,2.29,1.78,1.53,2.79,3.55,3.06,6.05l.03.34h-4.84l-.07-.34c-.63-3.15-2.51-4.73-5.64-4.73-1.96,0-3.54.79-4.73,2.37-1.19,1.57-1.78,3.72-1.78,6.44,0,2.92.59,5.17,1.78,6.75,1.2,1.57,2.75,2.36,4.66,2.36,1.54,0,2.77-.43,3.71-1.3.93-.86,1.56-2.07,1.9-3.6l.07-.34h4.8l-.03.34c-.26,2.61-1.34,4.68-3.23,6.22-1.89,1.53-4.37,2.29-7.41,2.29-3.41,0-6.15-1.12-8.24-3.37-2.08-2.24-3.11-5.26-3.11-9.06s1.09-6.96,3.28-9.26c2.2-2.3,5-3.45,8.41-3.45Z"/>
  <path class="cls-4" d="m1449.4,594.6v9.35h-4.8v-9.35l-8.53-14.8h5.45l5.64,10.52,5.45-10.52h5.33l-8.54,14.8Z"/>
  <path class="cls-4" d="m1475.32,579.31c2.75,0,4.86.69,6.32,2.07,1.46,1.38,2.33,3.22,2.61,5.54h-4.94c-.15-1.26-.57-2.24-1.26-2.94-.7-.7-1.67-1.06-2.9-1.06-1,0-1.82.25-2.46.73-.63.49-.94,1.2-.94,2.14,0,1.03.38,1.84,1.13,2.43.76.58,2.1,1.09,4.02,1.54,2.64.61,4.58,1.53,5.83,2.77,1.25,1.23,1.88,2.83,1.88,4.78,0,2.19-.87,3.93-2.6,5.21-1.72,1.29-3.83,1.93-6.32,1.93-2.94,0-5.29-.65-7.04-1.95-1.76-1.3-2.75-3.19-2.97-5.69h4.94c.25,1.29.83,2.29,1.74,2.99.91.7,2,1.04,3.26,1.04,1.11,0,2.05-.28,2.8-.84.76-.57,1.14-1.3,1.14-2.2,0-1.03-.37-1.87-1.11-2.49-.73-.62-1.97-1.15-3.72-1.57-2.7-.65-4.72-1.51-6.05-2.6-1.33-1.09-2-2.67-2-4.75s.84-3.87,2.51-5.14c1.68-1.29,3.73-1.93,6.13-1.93Z"/>
  <path class="cls-4" d="m1506,600.14v3.81h-17.43v-24.14h17.09v3.78h-12.25v6.37h11.36v3.81h-11.36v6.37h12.59Z"/>
  <path class="cls-4" d="m1527.62,597.86c.31,2.87.89,4.9,1.76,6.08h-5.3c-.58-1.61-.97-3.4-1.18-5.38-.33-2.73-1.42-4.17-3.26-4.31-.44-.02-1.07-.03-1.88-.03h-2.8v9.72h-4.84v-24.14h8.82c1.33,0,2.5.06,3.5.17,1.91.24,3.44.88,4.6,1.91,1.16,1.04,1.74,2.54,1.74,4.49,0,1.52-.42,2.77-1.26,3.76-.85.99-2,1.7-3.47,2.12,2.08.8,3.27,2.67,3.57,5.6Zm-12.66-7.24h3.31c.96,0,1.61,0,1.96-.03,2.31-.21,3.47-1.37,3.47-3.47,0-1.09-.27-1.9-.82-2.43-.55-.53-1.33-.87-2.36-1.01-.57-.07-1.25-.1-2.03-.1h-3.54v7.04Z"/>
  <path class="cls-4" d="m1545.61,603.95h-6.07l-8.53-24.14h5.25l6.41,20.43,6.49-20.43h5.16l-8.71,24.14Z"/>
  <path class="cls-4" d="m1561.9,603.95h-4.84v-24.14h4.84v24.14Z"/>
  <path class="cls-4" d="m1577.64,579.31c3.15,0,5.61.76,7.38,2.29,1.78,1.53,2.79,3.55,3.06,6.05l.03.34h-4.84l-.07-.34c-.63-3.15-2.51-4.73-5.64-4.73-1.96,0-3.54.79-4.73,2.37-1.19,1.57-1.78,3.72-1.78,6.44,0,2.92.59,5.17,1.78,6.75,1.2,1.57,2.75,2.36,4.66,2.36,1.54,0,2.77-.43,3.71-1.3.93-.86,1.56-2.07,1.9-3.6l.07-.34h4.8l-.03.34c-.26,2.61-1.34,4.68-3.23,6.22-1.89,1.53-4.37,2.29-7.41,2.29-3.41,0-6.15-1.12-8.24-3.37-2.08-2.24-3.11-5.26-3.11-9.06s1.09-6.96,3.28-9.26c2.2-2.3,5-3.45,8.41-3.45Z"/>
  <path class="cls-4" d="m1597.24,603.95h-4.84v-24.14h4.84v24.14Z"/>
  <path class="cls-4" d="m1623.82,603.95h-6.61l-9.93-18.33c.11,2.19.17,4.66.17,7.41v10.92h-4.84v-24.14h6.41l10.15,18.69c-.12-2.17-.17-4.71-.17-7.6v-11.09h4.78l.03,24.14Z"/>
  <path class="cls-4" d="m1640.26,591.63h9.74v12.32h-3.9l-.31-3.91-1.08,2.44c-1.33,1.31-3.3,1.96-5.89,1.96-3.35,0-6.01-1.11-8-3.33-1.97-2.23-2.96-5.26-2.96-9.09s1.12-6.96,3.37-9.26c2.24-2.3,5.09-3.45,8.54-3.45,3.14,0,5.6.76,7.38,2.29,1.78,1.53,2.79,3.55,3.04,6.05l.03.34h-4.84l-.07-.34c-.63-3.15-2.5-4.73-5.62-4.73-1.98,0-3.6.8-4.85,2.39-1.26,1.58-1.88,3.72-1.88,6.42,0,2.92.6,5.17,1.81,6.75,1.22,1.57,2.81,2.36,4.77,2.36,1.57,0,2.87-.48,3.91-1.44,1.03-.96,1.67-2.29,1.9-4h-5.11v-3.78Z"/>
  <g class="cls-29">
    <g class="cls-31">
      <path class="cls-4" d="m1244.23,564.58h53.8v53.8h-53.8v-53.8Z"/>
    </g>
  </g>
  <path class="cls-6" d="m1278.45,597.36v-1.99h-2.47v-12.68h-2.44l-9.72,13.45v1.22h9.72v4.95h2.44v-4.95h2.47Zm-4.92-1.99h-6.62l5-6.91c.65-.91,1.17-1.73,1.62-2.5v9.41Z"/>
  <g>
    <rect class="cls-11" x="1037.78" y="301.41" width="142.53" height="142.53" rx="71.26" ry="71.26"/>
    <g class="cls-33">
      <g>
        <rect class="cls-11" x="1028.07" y="291.45" width="162.33" height="162.33" transform="translate(-40.13 153.04) rotate(-7.75)"/>
        <g class="cls-34">
          <g>
            <rect class="cls-11" x="1028.07" y="291.45" width="162.33" height="162.33" transform="translate(-40.13 153.04) rotate(-7.75)"/>
            <g class="cls-32">
              <path class="cls-11" d="m1099.54,302.6c-38.56,5.23-65.72,40.94-60.42,79.5,5.23,38.56,40.94,65.72,79.5,60.42,38.56-5.23,65.72-40.94,60.42-79.5-5.23-38.48-40.94-65.64-79.5-60.42Z"/>
            </g>
          </g>
        </g>
      </g>
    </g>
  </g>
  <g>
    <rect class="cls-4" x="1104.35" y="335.79" width="9.38" height="72.84"/>
    <rect class="cls-4" x="1104.35" y="335.79" width="9.38" height="72.84" transform="translate(1481.25 -736.83) rotate(90)"/>
  </g>
  <circle class="cls-9" cx="1107.6" cy="153.69" r="3.5"/>
  <circle class="cls-9" cx="1119.6" cy="153.69" r="3.5"/>
  <circle class="cls-9" cx="1131.6" cy="153.69" r="3.5"/>
  <circle class="cls-9" cx="1143.6" cy="153.69" r="3.5"/>
  <circle class="cls-9" cx="1155.6" cy="153.69" r="3.5"/>
  <circle class="cls-9" cx="1167.6" cy="153.69" r="3.5"/>
  <circle class="cls-9" cx="1107.6" cy="176.37" r="3.5"/>
  <circle class="cls-9" cx="1107.6" cy="165.03" r="3.5"/>
  <circle class="cls-9" cx="1107.6" cy="188.37" r="3.5"/>
  <circle class="cls-9" cx="1107.6" cy="200.37" r="3.5"/>
  <circle class="cls-9" cx="1107.6" cy="212.37" r="3.5"/>
  <circle class="cls-9" cx="1107.6" cy="224.37" r="3.5"/>
  <circle class="cls-9" cx="1107.6" cy="236.37" r="3.5"/>
  <circle class="cls-9" cx="1107.6" cy="248.37" r="3.5"/>
  <circle class="cls-9" cx="1107.6" cy="260.37" r="3.5"/>
  <circle class="cls-9" cx="1107.6" cy="272.37" r="3.5"/>
  <circle class="cls-9" cx="1107.6" cy="284.37" r="3.5"/>
  <circle class="cls-9" cx="1107.6" cy="296.37" r="3.5"/>
  <path class="cls-9" d="m1196.93,153.98l-15.83-9.14v5.71c-.46-.22-.96-.35-1.5-.35-1.93,0-3.5,1.57-3.5,3.5s1.57,3.5,3.5,3.5c.54,0,1.04-.13,1.5-.35v6.27l15.83-9.14Z"/>
  <circle class="cls-9" cx="1107.6" cy="590.87" r="3.5"/>
  <circle class="cls-9" cx="1119.6" cy="590.87" r="3.5"/>
  <circle class="cls-9" cx="1131.6" cy="590.87" r="3.5"/>
  <circle class="cls-9" cx="1143.6" cy="590.87" r="3.5"/>
  <circle class="cls-9" cx="1155.6" cy="590.87" r="3.5"/>
  <circle class="cls-9" cx="1167.6" cy="590.87" r="3.5"/>
  <path class="cls-9" d="m1196.93,591.16l-15.83-9.14v5.71c-.46-.22-.96-.35-1.5-.35-1.93,0-3.5,1.57-3.5,3.5s1.57,3.5,3.5,3.5c.54,0,1.04-.13,1.5-.35v6.27l15.83-9.14Z"/>
  <circle class="cls-9" cx="1155.6" cy="296.45" r="3.5"/>
  <circle class="cls-9" cx="1167.6" cy="296.45" r="3.5"/>
  <circle class="cls-9" cx="1131.6" cy="296.45" r="3.5"/>
  <circle class="cls-9" cx="1143.6" cy="296.45" r="3.5"/>
  <circle class="cls-9" cx="1107.73" cy="296.45" r="3.5"/>
  <circle class="cls-9" cx="1107.6" cy="447.98" r="3.5"/>
  <circle class="cls-9" cx="1107.6" cy="470.66" r="3.5"/>
  <circle class="cls-9" cx="1107.6" cy="459.32" r="3.5"/>
  <circle class="cls-9" cx="1107.6" cy="482.66" r="3.5"/>
  <circle class="cls-9" cx="1107.6" cy="494.66" r="3.5"/>
  <circle class="cls-9" cx="1107.6" cy="506.66" r="3.5"/>
  <circle class="cls-9" cx="1107.6" cy="518.66" r="3.5"/>
  <circle class="cls-9" cx="1107.6" cy="530.66" r="3.5"/>
  <circle class="cls-9" cx="1107.6" cy="542.66" r="3.5"/>
  <circle class="cls-9" cx="1107.6" cy="554.66" r="3.5"/>
  <circle class="cls-9" cx="1107.6" cy="566.66" r="3.5"/>
  <circle class="cls-9" cx="1107.6" cy="578.66" r="3.5"/>
  <circle class="cls-9" cx="1107.6" cy="590.66" r="3.5"/>
  <circle class="cls-9" cx="1107.73" cy="590.73" r="3.5"/>
  <circle class="cls-9" cx="1119.73" cy="296.45" r="3.5"/>
  <circle class="cls-9" cx="1131.6" cy="447.08" r="3.5"/>
  <circle class="cls-9" cx="1143.6" cy="447.08" r="3.5"/>
  <circle class="cls-9" cx="1107.73" cy="447.08" r="3.5"/>
  <circle class="cls-9" cx="1119.73" cy="447.08" r="3.5"/>
  <path class="cls-9" d="m1196.93,296.73l-15.83-9.14v5.71c-.46-.22-.96-.35-1.5-.35-1.93,0-3.5,1.57-3.5,3.5s1.57,3.5,3.5,3.5c.54,0,1.04-.13,1.5-.35v6.27l15.83-9.14Z"/>
  <circle class="cls-9" cx="1155.6" cy="446.8" r="3.5"/>
  <circle class="cls-9" cx="1167.6" cy="446.8" r="3.5"/>
  <path class="cls-9" d="m1196.93,447.08l-15.83-9.14v5.71c-.46-.22-.96-.35-1.5-.35-1.93,0-3.5,1.57-3.5,3.5s1.57,3.5,3.5,3.5c.54,0,1.04-.13,1.5-.35v6.27l15.83-9.14Z"/>
</svg>