<?xml version="1.0" encoding="UTF-8"?>
<svg id="Layer_1" data-name="Layer 1" xmlns="http://www.w3.org/2000/svg" viewBox="0 0 200 51.24">
  <defs>
    <style>
      .cls-1 {
        fill: #fff;
      }

      .cls-2 {
        fill: #2f76bc;
      }
    </style>
  </defs>
  <rect class="cls-2" x="0" width="200" height="51.24"/>
  <g>
    <path class="cls-1" d="m57.48,19.64v10.25h3.99v1.56h-5.93v-11.81h1.94Z"/>
    <path class="cls-1" d="m67.12,31.6c-2.69,0-4.67-1.9-4.67-4.84s1.9-4.83,4.67-4.83,4.56,1.85,4.56,4.61c0,.32-.02.63-.07.95h-7.16c.14,1.55,1.24,2.48,2.67,2.48,1.19,0,1.85-.58,2.21-1.31h2.09c-.53,1.63-2.01,2.94-4.3,2.94Zm-2.65-5.68h5.18c-.03-1.44-1.17-2.36-2.62-2.36-1.31,0-2.36.88-2.57,2.36Z"/>
    <path class="cls-1" d="m73.89,23.67h-1.1v-1.58h1.1v-2.33h1.95v2.33h2.28v1.58h-2.28v5.18c0,.7.27.99,1.09.99h1.19v1.61h-1.53c-1.67,0-2.7-.7-2.7-2.6v-5.18Z"/>
    <path class="cls-1" d="m79.17,23.68l1.04-4.05h2.11l-1.78,4.05h-1.36Z"/>
    <path class="cls-1" d="m87.42,31.6c-2.24,0-3.82-1.33-3.91-3.03h2.01c.07.76.8,1.39,1.87,1.39s1.72-.48,1.72-1.12c0-1.84-5.44-.78-5.44-4.22,0-1.5,1.39-2.7,3.6-2.7s3.52,1.14,3.62,3.01h-1.94c-.07-.82-.7-1.38-1.75-1.38s-1.58.42-1.58,1.05c0,1.89,5.29.83,5.39,4.22,0,1.58-1.38,2.77-3.59,2.77Z"/>
    <path class="cls-1" d="m101.46,21.93c2.29,0,3.79,1.14,4.32,3.11h-2.09c-.32-.9-1.07-1.48-2.23-1.48-1.56,0-2.6,1.16-2.6,3.2s1.04,3.21,2.6,3.21c1.16,0,1.87-.51,2.23-1.48h2.09c-.53,1.84-2.02,3.11-4.32,3.11-2.69,0-4.59-1.9-4.59-4.84s1.9-4.83,4.59-4.83Z"/>
    <path class="cls-1" d="m111.78,31.6c-2.67,0-4.69-1.9-4.69-4.84s2.11-4.83,4.78-4.83,4.78,1.89,4.78,4.83-2.18,4.84-4.86,4.84Zm0-1.68c1.44,0,2.87-1.04,2.87-3.16s-1.38-3.15-2.82-3.15-2.77,1.02-2.77,3.15,1.26,3.16,2.72,3.16Z"/>
    <path class="cls-1" d="m125.21,26.22c0-1.72-.94-2.6-2.35-2.6s-2.36.88-2.36,2.6v5.24h-1.94v-9.37h1.94v1.07c.63-.77,1.67-1.22,2.79-1.22,2.19,0,3.84,1.38,3.84,3.99v5.52h-1.92v-5.24Z"/>
    <path class="cls-1" d="m136.24,26.22c0-1.72-.94-2.6-2.35-2.6s-2.36.88-2.36,2.6v5.24h-1.94v-9.37h1.94v1.07c.63-.77,1.67-1.22,2.79-1.22,2.19,0,3.84,1.38,3.84,3.99v5.52h-1.92v-5.24Z"/>
    <path class="cls-1" d="m144.65,31.6c-2.69,0-4.67-1.9-4.67-4.84s1.9-4.83,4.67-4.83,4.56,1.85,4.56,4.61c0,.32-.02.63-.07.95h-7.16c.14,1.55,1.24,2.48,2.67,2.48,1.19,0,1.85-.58,2.21-1.31h2.09c-.53,1.63-2.01,2.94-4.3,2.94Zm-2.65-5.68h5.18c-.03-1.44-1.17-2.36-2.62-2.36-1.31,0-2.36.88-2.57,2.36Z"/>
    <path class="cls-1" d="m155.06,21.93c2.29,0,3.79,1.14,4.32,3.11h-2.09c-.32-.9-1.07-1.48-2.23-1.48-1.56,0-2.6,1.16-2.6,3.2s1.04,3.21,2.6,3.21c1.16,0,1.87-.51,2.23-1.48h2.09c-.53,1.84-2.02,3.11-4.32,3.11-2.69,0-4.59-1.9-4.59-4.84s1.9-4.83,4.59-4.83Z"/>
    <path class="cls-1" d="m161.62,23.67h-1.1v-1.58h1.1v-2.33h1.95v2.33h2.28v1.58h-2.28v5.18c0,.7.27.99,1.09.99h1.19v1.61h-1.53c-1.67,0-2.7-.7-2.7-2.6v-5.18Z"/>
    <path class="cls-1" d="m169.1,31.57c-.7,0-1.24-.54-1.24-1.24s.54-1.24,1.24-1.24,1.22.54,1.22,1.24-.54,1.24-1.22,1.24Zm-1.09-11.93h2.06l-.22,8.24h-1.62l-.22-8.24Z"/>
  </g>
  <path class="cls-1" d="m17.16,19.44h.03c1.45,0,2.35-1.04,2.35-2.33-.03-1.32-.9-2.33-2.32-2.33s-2.35,1.01-2.35,2.33.9,2.33,2.29,2.33Zm-2.29,1.55h4.66v13.47h-4.66v-13.47Zm20.73,4.92c0-2.72-2.2-4.92-4.92-4.92-1.58,0-2.99.75-3.89,1.91v-1.91h-4.66v13.47h4.66v-7.77h0c0-1.14.93-2.07,2.07-2.07s2.07.93,2.07,2.07v7.77h4.66v-8.55Z"/>
  <rect class="cls-1" x="46.9" y="14.87" width=".29" height="19.51"/>
</svg>