<?xml version="1.0" encoding="UTF-8"?>
<svg id="Layer_1" data-name="Layer 1" xmlns="http://www.w3.org/2000/svg" viewBox="0 0 200 39.2">
  <defs>
    <style>
      .cls-1 {
        font-family: Poppins-Medium, Poppins;
        font-size: 12.97px;
        font-weight: 500;
        letter-spacing: -.02em;
      }

      .cls-1, .cls-2 {
        fill: #262626;
      }

      .cls-3, .cls-4 {
        fill: #fff;
      }

      .cls-5 {
        fill: #2f76bc;
      }

      .cls-2, .cls-4 {
        fill-rule: evenodd;
      }
    </style>
  </defs>
  <rect class="cls-3" x="0" width="200" height="39.2"/>
  <text class="cls-1" transform="translate(6.25 24.59)"><tspan x="0" y="0">View my profile on</tspan></text>
  <g id="layer1">
    <g id="g3019">
      <path id="path14" class="cls-5" d="m174.8,12.21c0-.68.57-1.23,1.27-1.23h14.6c.7,0,1.27.55,1.27,1.23v14.77c0,.68-.57,1.23-1.27,1.23h-14.6c-.7,0-1.27-.55-1.27-1.23v-14.77Z"/>
      <path id="path16" class="cls-2" d="m126.85,25.41h7.15v-2.35h-4.56v-8.95h-2.59s0,11.3,0,11.3Z"/>
      <path id="path18" class="cls-2" d="m137.62,25.41v-7.78h-2.59v7.78h2.59Zm-1.29-8.85c.9,0,1.46-.6,1.46-1.35-.02-.76-.56-1.34-1.45-1.34s-1.46.58-1.46,1.34.56,1.35,1.43,1.35h.02Z"/>
      <path id="path20" class="cls-2" d="m138.82,25.41h2.59v-4.35c0-.23.02-.47.09-.63.19-.46.61-.95,1.33-.95.94,0,1.31.71,1.31,1.76v4.16h2.59v-4.46c0-2.39-1.28-3.5-2.98-3.5-1.4,0-2.01.78-2.35,1.31h.02v-1.13h-2.59c.03.73,0,7.78,0,7.78h0Z"/>
      <path id="path22" class="cls-2" d="m150.37,14.11h-2.59v11.3h2.59v-2.52l.65-.81,2.03,3.34h3.18l-3.4-4.83,2.98-3.29h-3.11s-2.13,2.94-2.31,3.29v-6.47h0Z"/>
      <path id="path24" class="cls-2" d="m163.14,22.16c.03-.2.09-.58.09-1.02,0-2.01-1.02-4.05-3.71-4.05-2.88,0-4.2,2.28-4.2,4.34,0,2.55,1.62,4.15,4.44,4.15,1.12,0,2.16-.17,3.01-.51l-.34-1.71c-.7.23-1.41.35-2.3.35-1.21,0-2.26-.5-2.35-1.55l5.36.02h0Zm-5.38-1.75c.07-.66.51-1.64,1.62-1.64,1.17,0,1.45,1.05,1.45,1.64h-3.06Z"/>
      <path id="path26" class="cls-2" d="m169.61,14.11v3.91h-.03c-.37-.55-1.16-.91-2.2-.91-1.99,0-3.74,1.59-3.73,4.32,0,2.52,1.58,4.17,3.56,4.17,1.07,0,2.09-.47,2.6-1.36h.05l.1,1.18h2.3c-.03-.55-.07-1.49-.07-2.42v-8.88h-2.59,0Zm0,7.7c0,.2-.02.4-.05.56-.15.71-.77,1.21-1.51,1.21-1.07,0-1.77-.86-1.77-2.22,0-1.28.6-2.31,1.79-2.31.8,0,1.36.55,1.51,1.23.03.15.03.32.03.47v1.06h0Z"/>
      <path id="path28" class="cls-4" d="m179.99,25.4v-7.78h-2.59v7.78h2.59Zm-1.29-8.85c.9,0,1.46-.6,1.46-1.34-.02-.76-.56-1.34-1.45-1.34s-1.46.58-1.46,1.34.56,1.34,1.43,1.34h.02Z"/>
      <path id="path30" class="cls-4" d="m181.42,25.4h2.59v-4.35c0-.23.02-.47.09-.63.19-.46.61-.95,1.33-.95.94,0,1.31.71,1.31,1.76v4.16h2.59v-4.46c0-2.39-1.28-3.5-2.98-3.5-1.4,0-2.01.78-2.35,1.31h.02v-1.13h-2.59c.03.73,0,7.78,0,7.78h0Z"/>
    </g>
  </g>
</svg>