<?xml version="1.0" encoding="UTF-8"?>
<svg id="Layer_1" data-name="Layer 1" xmlns="http://www.w3.org/2000/svg" viewBox="0 0 200 39.2">
  <defs>
    <style>
      .cls-1, .cls-2 {
        fill: #fff;
      }

      .cls-3, .cls-4 {
        fill: #2f76bc;
      }

      .cls-4, .cls-2 {
        fill-rule: evenodd;
      }
    </style>
  </defs>
  <rect class="cls-3" x="0" width="200" height="39.2"/>
  <g>
    <path class="cls-1" d="m13.43,15.58h1.56l-3.39,9.01h-1.71l-3.4-9.01h1.58l2.67,7.5,2.69-7.5Z"/>
    <path class="cls-1" d="m15.7,15.55c0-.53.42-.95.95-.95s.93.42.93.95-.42.95-.93.95-.95-.42-.95-.95Zm.19,1.89h1.48v7.15h-1.48v-7.15Z"/>
    <path class="cls-1" d="m22.07,24.71c-2.05,0-3.57-1.45-3.57-3.7s1.45-3.68,3.57-3.68,3.48,1.41,3.48,3.51c0,.25-.01.48-.05.73h-5.46c.1,1.18.95,1.89,2.04,1.89.91,0,1.41-.44,1.69-1h1.6c-.4,1.25-1.53,2.24-3.28,2.24Zm-2.02-4.33h3.96c-.03-1.1-.89-1.8-2-1.8-1,0-1.8.67-1.96,1.8Z"/>
    <path class="cls-1" d="m25.84,17.45h1.5l1.49,5.75,1.52-5.75h1.54l1.45,5.72,1.48-5.72h1.45l-2.22,7.15h-1.56l-1.44-5.28-1.44,5.28h-1.56l-2.23-7.15Z"/>
    <path class="cls-1" d="m50.23,20.6c0-1.31-.71-1.98-1.79-1.98s-1.8.67-1.8,1.98v4h-1.47v-4c0-1.31-.71-1.98-1.79-1.98s-1.8.67-1.8,1.98v4h-1.48v-7.15h1.48v.82c.48-.58,1.26-.93,2.11-.93,1.13,0,2.08.48,2.57,1.41.44-.87,1.45-1.41,2.49-1.41,1.67,0,2.94,1.05,2.94,3.05v4.21h-1.47v-4Z"/>
    <path class="cls-1" d="m58.16,17.45h1.53l-4.38,10.51h-1.53l1.45-3.48-2.81-7.03h1.65l2.01,5.45,2.09-5.45Z"/>
    <path class="cls-1" d="m67.5,17.33c1.88,0,3.36,1.45,3.36,3.66s-1.48,3.72-3.36,3.72c-1.18,0-2.02-.6-2.49-1.16v4.44h-1.48v-10.54h1.48v1.05c.45-.6,1.32-1.17,2.49-1.17Zm-.32,1.28c-1.1,0-2.17.87-2.17,2.4s1.06,2.41,2.17,2.41,2.18-.9,2.18-2.44-1.06-2.37-2.18-2.37Z"/>
    <path class="cls-1" d="m73.48,24.59h-1.48v-7.15h1.48v1.04c.42-.71,1.13-1.15,2.14-1.15v1.53h-.38c-1.09,0-1.76.45-1.76,1.97v3.76Z"/>
    <path class="cls-1" d="m79.76,24.71c-2.04,0-3.58-1.45-3.58-3.7s1.61-3.68,3.64-3.68,3.65,1.44,3.65,3.68-1.66,3.7-3.71,3.7Zm0-1.28c1.1,0,2.19-.79,2.19-2.41s-1.05-2.4-2.15-2.4-2.11.78-2.11,2.4.96,2.41,2.08,2.41Z"/>
    <path class="cls-1" d="m84.79,18.65h-.84v-1.21h.84v-.51c0-1.65.84-2.36,2.71-2.36v1.23c-.91,0-1.22.31-1.22,1.13v.51h1.32v1.21h-1.32v5.94h-1.49v-5.94Z"/>
    <path class="cls-1" d="m88.4,15.55c0-.53.42-.95.95-.95s.93.42.93.95-.42.95-.93.95-.95-.42-.95-.95Zm.19,1.89h1.48v7.15h-1.48v-7.15Z"/>
    <path class="cls-1" d="m91.69,15h1.48v9.6h-1.48v-9.6Z"/>
    <path class="cls-1" d="m97.87,24.71c-2.05,0-3.57-1.45-3.57-3.7s1.45-3.68,3.57-3.68,3.48,1.41,3.48,3.51c0,.25-.01.48-.05.73h-5.46c.1,1.18.95,1.89,2.04,1.89.91,0,1.41-.44,1.69-1h1.6c-.4,1.25-1.53,2.24-3.28,2.24Zm-2.02-4.33h3.96c-.03-1.1-.9-1.8-2-1.8-1,0-1.8.67-1.96,1.8Z"/>
    <path class="cls-1" d="m108.62,24.71c-2.04,0-3.58-1.45-3.58-3.7s1.61-3.68,3.64-3.68,3.64,1.44,3.64,3.68-1.66,3.7-3.71,3.7Zm0-1.28c1.1,0,2.19-.79,2.19-2.41s-1.05-2.4-2.15-2.4-2.11.78-2.11,2.4.96,2.41,2.08,2.41Z"/>
    <path class="cls-1" d="m118.54,20.6c0-1.31-.71-1.98-1.79-1.98s-1.8.67-1.8,1.98v4h-1.48v-7.15h1.48v.82c.48-.58,1.27-.93,2.13-.93,1.67,0,2.93,1.05,2.93,3.05v4.21h-1.47v-4Z"/>
  </g>
  <g id="layer1">
    <g id="g3019">
      <path id="path14" class="cls-1" d="m174.8,12.21c0-.68.57-1.23,1.27-1.23h14.6c.7,0,1.27.55,1.27,1.23v14.77c0,.68-.57,1.23-1.27,1.23h-14.6c-.7,0-1.27-.55-1.27-1.23v-14.77Z"/>
      <path id="path16" class="cls-2" d="m126.85,25.41h7.15v-2.35h-4.56v-8.95h-2.59s0,11.3,0,11.3Z"/>
      <path id="path18" class="cls-2" d="m137.62,25.41v-7.78h-2.59v7.78h2.59Zm-1.29-8.85c.9,0,1.46-.6,1.46-1.35-.02-.76-.56-1.34-1.45-1.34s-1.46.58-1.46,1.34.56,1.35,1.43,1.35h.02Z"/>
      <path id="path20" class="cls-2" d="m138.82,25.41h2.59v-4.35c0-.23.02-.47.09-.63.19-.46.61-.95,1.33-.95.94,0,1.31.71,1.31,1.76v4.16h2.59v-4.46c0-2.39-1.28-3.5-2.98-3.5-1.4,0-2.01.78-2.35,1.31h.02v-1.13h-2.59c.03.73,0,7.78,0,7.78h0Z"/>
      <path id="path22" class="cls-2" d="m150.37,14.11h-2.59v11.3h2.59v-2.52l.65-.81,2.03,3.34h3.18l-3.4-4.83,2.98-3.29h-3.11s-2.13,2.94-2.31,3.29v-6.47h0Z"/>
      <path id="path24" class="cls-2" d="m163.14,22.16c.03-.2.09-.58.09-1.02,0-2.01-1.02-4.05-3.71-4.05-2.88,0-4.2,2.28-4.2,4.34,0,2.55,1.62,4.15,4.44,4.15,1.12,0,2.16-.17,3.01-.51l-.34-1.71c-.7.23-1.41.35-2.3.35-1.21,0-2.26-.5-2.35-1.55l5.36.02h0Zm-5.38-1.75c.07-.66.51-1.64,1.62-1.64,1.17,0,1.45,1.05,1.45,1.64h-3.06Z"/>
      <path id="path26" class="cls-2" d="m169.61,14.11v3.91h-.03c-.37-.55-1.16-.91-2.2-.91-1.99,0-3.74,1.59-3.73,4.32,0,2.52,1.58,4.17,3.56,4.17,1.07,0,2.09-.47,2.6-1.36h.05l.1,1.18h2.3c-.03-.55-.07-1.49-.07-2.42v-8.88h-2.59,0Zm0,7.7c0,.2-.02.4-.05.56-.15.71-.77,1.21-1.51,1.21-1.07,0-1.77-.86-1.77-2.22,0-1.28.6-2.31,1.79-2.31.8,0,1.36.55,1.51,1.23.03.15.03.32.03.47v1.06h0Z"/>
      <path id="path28" class="cls-4" d="m179.99,25.4v-7.78h-2.59v7.78h2.59Zm-1.29-8.85c.9,0,1.46-.6,1.46-1.34-.02-.76-.56-1.34-1.45-1.34s-1.46.58-1.46,1.34.56,1.34,1.43,1.34h.02Z"/>
      <path id="path30" class="cls-4" d="m181.42,25.4h2.59v-4.35c0-.23.02-.47.09-.63.19-.46.61-.95,1.33-.95.94,0,1.31.71,1.31,1.76v4.16h2.59v-4.46c0-2.39-1.28-3.5-2.98-3.5-1.4,0-2.01.78-2.35,1.31h.02v-1.13h-2.59c.03.73,0,7.78,0,7.78h0Z"/>
    </g>
  </g>
</svg>